<svg width="148" height="147" viewBox="0 0 148 147" fill="none" xmlns="http://www.w3.org/2000/svg">
<path d="M21.5385 136.674C50.3007 150.38 96.9091 150.38 125.671 136.674C154.434 122.968 154.398 100.766 125.671 87.0601C96.945 73.354 50.315 73.3576 21.5672 87.0601C-7.18068 100.763 -7.18786 122.975 21.5385 136.674Z" fill="#EBEBEB"/>
<path d="M114.21 34.8033L115.531 33.7871V30.8786C115.531 28.5769 117.366 25.9018 119.362 24.7491C121.359 23.5965 122.978 24.5301 122.978 26.8354V27.2555C123.398 26.574 123.971 25.9998 124.652 25.5786C126.088 24.7491 127.255 25.4206 127.255 27.0795V27.2734L129.898 25.7474C130.842 25.2016 131.611 25.6432 131.611 26.7348C131.578 27.329 131.406 27.9071 131.108 28.4224C130.811 28.9377 130.396 29.3757 129.898 29.7008L114.21 38.7568C113.265 39.3026 112.497 38.8609 112.497 37.7693C112.529 37.1752 112.701 36.597 112.999 36.0817C113.296 35.5664 113.711 35.1284 114.21 34.8033Z" fill="#EBEBEB"/>
<path d="M19.4163 113.851C19.2296 113.819 19.0321 113.761 18.8095 113.704C18.0591 113.502 17.3197 113.263 16.5939 112.986C15.1465 112.46 13.7814 111.731 12.5399 110.82C11.8591 110.336 11.2766 109.727 10.8235 109.025C10.3707 108.314 10.2099 107.456 10.3747 106.63C10.4659 106.222 10.6719 105.849 10.9684 105.554C11.2649 105.26 11.6395 105.056 12.048 104.967C12.4322 104.906 12.8308 104.967 13.215 104.899C13.4117 104.883 13.5983 104.805 13.7475 104.676C13.8967 104.547 14.0007 104.373 14.0445 104.181C14.046 103.961 13.9863 103.744 13.8721 103.556C13.1745 102.278 12.5743 100.949 12.0767 99.5812C11.6602 98.3602 11.6351 97.0396 12.0049 95.8037C12.3189 94.574 12.9914 93.4654 13.9368 92.6186C14.3676 92.2596 14.9637 91.9507 15.4844 92.177C15.6499 92.2612 15.7953 92.3802 15.9106 92.5259C16.0259 92.6715 16.1083 92.8403 16.1523 93.0208C16.2326 93.3816 16.2736 93.75 16.2744 94.1196C16.3256 94.9148 16.4777 95.7003 16.7268 96.4572C16.8383 96.9301 17.1097 97.35 17.4952 97.6457C18.1631 98.0623 19.0824 97.7355 19.7933 98.073C20.5043 98.4106 20.7485 99.1862 20.7808 99.9187C20.8131 100.651 20.6659 101.391 20.7485 102.12C20.7629 102.35 20.8359 102.572 20.9603 102.766C21.158 102.978 21.3869 103.158 21.639 103.301C21.9702 103.575 22.2358 103.92 22.416 104.31C22.5962 104.701 22.6865 105.126 22.6803 105.556C22.6585 106.415 22.4947 107.264 22.1956 108.07C21.8659 109.196 21.6258 110.346 21.4774 111.51C21.3604 112.223 21.0582 112.893 20.6013 113.452C20.4657 113.629 20.2806 113.761 20.0695 113.832C19.8585 113.903 19.6311 113.91 19.4163 113.851Z" fill="#47D163"/>
<path d="M20.6084 113.255C20.5873 113.255 20.5666 113.249 20.5483 113.238C20.53 113.227 20.5149 113.212 20.5043 113.194C16.3139 106.127 14.9888 101.15 14.6118 98.2167C14.1989 95.0209 14.7806 93.5235 14.8057 93.4625C14.8116 93.4474 14.8204 93.4336 14.8316 93.4219C14.8429 93.4102 14.8563 93.4009 14.8711 93.3944C14.886 93.3879 14.9019 93.3844 14.9181 93.384C14.9343 93.3837 14.9504 93.3866 14.9655 93.3925C14.9806 93.3983 14.9944 93.4072 15.0061 93.4184C15.0178 93.4296 15.0271 93.443 15.0336 93.4579C15.0401 93.4727 15.0436 93.4887 15.044 93.5049C15.0443 93.5211 15.0414 93.5372 15.0355 93.5522C15.0355 93.5774 14.4538 95.0819 14.8596 98.2203C15.2187 101.125 16.5616 106.059 20.7162 113.072C20.7246 113.086 20.7301 113.101 20.7325 113.117C20.7349 113.133 20.734 113.149 20.73 113.165C20.726 113.181 20.7189 113.196 20.7091 113.209C20.6993 113.222 20.6871 113.232 20.6731 113.241C20.6529 113.25 20.6308 113.255 20.6084 113.255Z" fill="white"/>
<path d="M18.3678 109.158C13.2617 108.598 11.8182 106.921 11.7572 106.849C11.7344 106.826 11.7216 106.795 11.7216 106.763C11.7216 106.73 11.7344 106.699 11.7572 106.677C11.7682 106.665 11.7816 106.655 11.7964 106.649C11.8112 106.643 11.8272 106.639 11.8433 106.639C11.8595 106.639 11.8755 106.643 11.8903 106.649C11.9051 106.655 11.9184 106.665 11.9295 106.677C11.9295 106.695 13.3874 108.35 18.375 108.899C18.4042 108.904 18.4308 108.919 18.4499 108.942C18.469 108.965 18.4795 108.993 18.4795 109.023C18.4795 109.053 18.469 109.082 18.4499 109.104C18.4308 109.127 18.4042 109.142 18.375 109.147L18.3678 109.158Z" fill="white"/>
<path d="M16.9279 105.976C16.9007 105.976 16.8742 105.968 16.8525 105.951C16.8397 105.941 16.8289 105.929 16.8209 105.915C16.8129 105.901 16.8077 105.886 16.8057 105.87C16.8037 105.853 16.8049 105.837 16.8092 105.822C16.8135 105.806 16.8209 105.792 16.8309 105.779C18.4504 103.65 18.5545 100.159 18.5581 100.123C18.5581 100.107 18.5613 100.091 18.5677 100.076C18.5741 100.061 18.5835 100.048 18.5953 100.037C18.6071 100.026 18.621 100.017 18.6362 100.012C18.6514 100.006 18.6676 100.004 18.6838 100.005C18.7 100.005 18.716 100.008 18.7308 100.015C18.7457 100.021 18.7591 100.03 18.7702 100.042C18.7813 100.054 18.7899 100.068 18.7954 100.083C18.8009 100.098 18.8032 100.114 18.8023 100.131C18.8023 100.278 18.6945 103.721 17.0284 105.926C17.0167 105.942 17.0015 105.954 16.9841 105.963C16.9666 105.972 16.9474 105.976 16.9279 105.976Z" fill="white"/>
<path d="M121.578 92.0261C122.073 88.6867 122.081 84.6112 119.628 78.6576C117.176 72.7041 117.937 69.5837 120.565 68.7327C123.194 67.8817 129.018 72.4025 128.802 80.0042C128.591 87.3437 123.632 93.405 123.632 93.405L121.578 92.0261Z" fill="#47D163"/>
<path opacity="0.1" d="M121.578 92.0261C122.073 88.6867 122.081 84.6112 119.628 78.6576C117.176 72.7041 117.937 69.5837 120.565 68.7327C123.194 67.8817 129.018 72.4025 128.802 80.0042C128.591 87.3437 123.632 93.405 123.632 93.405L121.578 92.0261Z" fill="black"/>
<path d="M122.86 93.01C122.844 93.0133 122.828 93.0133 122.813 93.01C122.798 93.0042 122.784 92.9952 122.772 92.9838C122.761 92.9723 122.752 92.9585 122.745 92.9434C122.739 92.9282 122.736 92.9119 122.737 92.8956C122.738 92.8792 122.741 92.8632 122.748 92.8484C122.774 92.7874 125.459 86.5143 125.262 80.8193C125.039 74.2661 121.409 70.6609 121.373 70.625C121.362 70.6137 121.352 70.6002 121.346 70.5854C121.34 70.5705 121.336 70.5545 121.336 70.5383C121.336 70.5222 121.339 70.5061 121.345 70.4911C121.351 70.4761 121.36 70.4624 121.371 70.4509C121.383 70.4393 121.396 70.4301 121.411 70.4238C121.426 70.4174 121.442 70.4141 121.458 70.4139C121.474 70.4137 121.49 70.4168 121.505 70.4228C121.52 70.4288 121.534 70.4378 121.546 70.4491C121.581 70.485 125.28 74.1512 125.495 80.8121C125.693 86.5574 122.982 92.8843 122.96 92.9454C122.95 92.9637 122.936 92.9791 122.918 92.9904C122.901 93.0017 122.881 93.0084 122.86 93.01Z" fill="white"/>
<path d="M121.721 94.9885C121.721 94.9885 123.108 86.9165 128.027 82.2772C132.946 77.6379 141.148 76.7545 143.719 79.2322C146.29 81.7098 144.641 84.1192 141.018 84.9559C136.925 85.9003 134.415 87.552 136.925 88.816C139.255 89.9866 138.993 92.5253 136.566 93.7425C132.688 95.6887 125.686 93.8359 123.998 97.6637L121.721 94.9885Z" fill="#47D163"/>
<path d="M122.763 96.6978H122.723C122.693 96.6864 122.668 96.6636 122.654 96.6341C122.639 96.6046 122.637 96.5707 122.648 96.5398C123.782 93.3833 125.529 90.4824 127.79 88.0045C129.562 86.0883 131.636 84.4761 133.93 83.2323C136.209 81.9743 138.691 81.1237 141.263 80.7188C141.295 80.7157 141.328 80.7257 141.354 80.7465C141.379 80.7673 141.395 80.7973 141.399 80.8301C141.401 80.8461 141.4 80.8624 141.395 80.878C141.391 80.8936 141.384 80.9081 141.374 80.9208C141.364 80.9335 141.351 80.9441 141.337 80.9519C141.323 80.9598 141.307 80.9647 141.291 80.9665C138.745 81.3753 136.291 82.226 134.038 83.4801C130.447 85.4299 125.574 89.2972 122.871 96.6403C122.859 96.658 122.843 96.6725 122.824 96.6826C122.805 96.6926 122.784 96.6978 122.763 96.6978Z" fill="white"/>
<path d="M125.258 91.6204C125.233 91.6205 125.207 91.6126 125.186 91.5978C125.165 91.583 125.149 91.5621 125.14 91.5378C125.129 91.5068 125.131 91.473 125.146 91.4435C125.16 91.414 125.185 91.3912 125.215 91.3798C129.413 89.9148 135.431 90.6832 135.492 90.6904C135.508 90.6925 135.524 90.6977 135.538 90.7058C135.552 90.7139 135.564 90.7247 135.574 90.7376C135.584 90.7504 135.591 90.765 135.595 90.7807C135.599 90.7963 135.6 90.8126 135.598 90.8286C135.596 90.8446 135.591 90.8601 135.583 90.8741C135.574 90.8881 135.564 90.9004 135.551 90.9102C135.538 90.92 135.523 90.9273 135.508 90.9314C135.492 90.9356 135.476 90.9367 135.46 90.9345C135.402 90.9345 129.438 90.1661 125.298 91.6132C125.286 91.619 125.272 91.6214 125.258 91.6204Z" fill="white"/>
<path d="M24.5727 8.84191C24.5427 8.28733 24.3824 7.74765 24.1047 7.26663C23.8271 6.78561 23.44 6.37682 22.9748 6.07341L21.6714 5.31934C21.1762 5.06796 20.6287 4.93695 20.0735 4.93695C19.5182 4.93695 18.9707 5.06796 18.4756 5.31934L8.16639 11.2693C7.67543 11.5778 7.27421 12.01 7.00298 12.5225C6.76943 12.9297 6.62272 13.3808 6.57208 13.8475C6.57208 13.9121 6.57208 13.9767 6.57208 14.0414V25.9412C6.6025 26.4961 6.76338 27.036 7.04165 27.5171C7.31991 27.9981 7.70772 28.4067 8.17357 28.7097L9.47344 29.4638L9.63862 29.55L9.69966 29.5751L9.81097 29.6218L9.89715 29.6541L9.99051 29.6864L10.0946 29.7152L10.1736 29.7367L10.2957 29.7654H10.3568L10.504 29.7906H10.5327C11.2689 29.9112 12.0243 29.7916 12.6872 29.4494L22.9748 23.5139C23.4407 23.2101 23.8285 22.8008 24.1068 22.3192C24.385 21.8376 24.5459 21.2972 24.5763 20.7418L24.5727 8.84191Z" fill="#47D163"/>
<path opacity="0.4" d="M11.5345 15.0647C11.3499 15.3705 11.2119 15.7021 11.1252 16.0486C11.3395 15.1511 11.8912 14.3706 12.6656 13.869L22.9748 7.91908C23.8581 7.40918 24.5763 7.82213 24.5763 8.84191C24.5458 8.28702 24.385 7.74712 24.1067 7.26608C23.8284 6.78504 23.4406 6.37642 22.9748 6.07341L21.6713 5.31934C21.1762 5.06796 20.6287 4.93695 20.0734 4.93695C19.5181 4.93695 18.9706 5.06796 18.4755 5.31934L8.16635 11.2693C7.67539 11.5778 7.27417 12.01 7.00293 12.5225L7.03525 12.465L11.5345 15.0647Z" fill="white"/>
<path opacity="0.1" d="M12.3353 29.6146L12.2599 29.6362L12.1306 29.6613H12.0085H11.8829C11.7344 29.6504 11.5922 29.5967 11.4735 29.5069L11.4161 29.453L11.3837 29.4243L11.3407 29.3704L11.3047 29.3238L11.2688 29.2663L11.2365 29.2088C11.2365 29.2088 11.2365 29.1693 11.2114 29.1478C11.2003 29.1257 11.1907 29.1029 11.1827 29.0796L11.1252 29.0221V28.9503C11.1252 28.9288 11.1252 28.9072 11.1252 28.8857C11.1232 28.851 11.1232 28.8162 11.1252 28.7815C11.1232 28.7624 11.1232 28.7432 11.1252 28.7241C11.1252 28.6702 11.1252 28.6128 11.1252 28.5517V16.6411C11.1254 16.5123 11.1362 16.3838 11.1575 16.2569C11.1575 16.2102 11.1575 16.1599 11.1862 16.1132V16.0558C11.2685 15.7101 11.4016 15.3785 11.5812 15.0719L7.03529 12.465L7.00298 12.5225C6.76943 12.9296 6.62272 13.3808 6.57208 13.8475C6.57208 13.9121 6.57208 13.9767 6.57208 14.0414V25.9412C6.6025 26.4961 6.76338 27.036 7.04164 27.5171C7.31991 27.9981 7.70772 28.4067 8.17357 28.7097L9.47344 29.4638L9.63862 29.55L9.69966 29.5751L9.81097 29.6218L9.89715 29.6541L9.99051 29.6864L10.0946 29.7151L10.1736 29.7367L10.2957 29.7654H10.3568L10.504 29.7906H10.5327C11.1389 29.8827 11.7584 29.8222 12.3353 29.6146Z" fill="black"/>
<path d="M20.0698 19.7543C20.7583 18.2162 21.1109 16.5488 21.1039 14.8636C21.4403 14.3417 21.7231 13.7871 21.9478 13.2083C21.6579 13.5482 21.3316 13.8552 20.9747 14.1239C21.3368 13.6177 21.5899 13.0418 21.7179 12.4327C21.4072 12.8647 21.0455 13.2578 20.6407 13.6033C20.4617 13.4701 20.2445 13.3981 20.0213 13.3981C19.7981 13.3981 19.5809 13.4701 19.4019 13.6033C18.3247 14.2353 17.506 16.0594 17.7537 17.3305C16.3461 18.0487 15.0965 17.8691 14.2635 16.9714C13.8182 18.2426 14.0337 19.4491 14.7877 19.6825C14.557 19.821 14.2863 19.878 14.0193 19.8441C14.0193 20.9213 14.5615 21.5569 15.3766 21.3019C15.1605 21.5171 14.8993 21.6815 14.6118 21.7831C14.8272 22.5551 15.452 22.8603 16.1953 22.4402C15.6167 23.4691 14.7405 24.299 13.6818 24.8209C14.4286 25.0292 15.3192 24.8891 16.2779 24.3361C17.9512 23.3702 19.2367 21.6215 20.059 19.7292" fill="white"/>
<path d="M24.5727 52.1719C24.5404 51.6198 24.3791 51.083 24.1015 50.6047C23.824 50.1263 23.4381 49.7198 22.9748 49.4178L21.6713 48.6637C21.1762 48.4124 20.6287 48.2813 20.0734 48.2813C19.5181 48.2813 18.9706 48.4124 18.4755 48.6637L8.16993 54.6137C7.67897 54.9222 7.27775 55.3544 7.00652 55.8669C6.77297 56.2741 6.62626 56.7252 6.57562 57.1919C6.57562 57.2565 6.57562 57.3211 6.57562 57.3858V69.2856C6.60705 69.8371 6.76732 70.3735 7.04357 70.8518C7.31983 71.3301 7.70438 71.737 8.16634 72.0398L9.46621 72.7938L9.63138 72.8764L9.69243 72.9052L9.80374 72.9518L9.88992 72.9842L9.98328 73.0165L10.0874 73.0452L10.1664 73.0667L10.2885 73.0955H10.3495L10.4968 73.1206H10.5255C11.2636 73.2358 12.0191 73.1099 12.68 72.7615L22.9748 66.8439C23.4407 66.5401 23.8285 66.1308 24.1067 65.6492C24.385 65.1676 24.5458 64.6272 24.5762 64.0718L24.5727 52.1719Z" fill="#47D163"/>
<path opacity="0.4" d="M11.5345 58.3948C11.3549 58.7014 11.2218 59.033 11.1395 59.3787C11.3503 58.4835 11.8966 57.7033 12.6656 57.199L22.9748 51.2491C23.8581 50.7392 24.5763 51.1522 24.5763 52.1719C24.5436 51.6195 24.3817 51.0825 24.1035 50.6041C23.8254 50.1257 23.4387 49.7194 22.9748 49.4178L21.6713 48.6637C21.1762 48.4124 20.6287 48.2813 20.0734 48.2813C19.5181 48.2813 18.9707 48.4124 18.4755 48.6637L8.16995 54.6137C7.67898 54.9222 7.27777 55.3544 7.00653 55.8669L7.03885 55.8094L11.5345 58.3948Z" fill="white"/>
<path opacity="0.1" d="M12.3353 72.9446L12.2599 72.9662C12.2176 72.9792 12.1744 72.9888 12.1306 72.9949H12.0085H11.8829C11.7344 72.984 11.5922 72.9304 11.4735 72.8405L11.416 72.7866L11.3837 72.7579L11.3406 72.7005L11.3047 72.6574L11.2688 72.5999L11.2365 72.5425C11.2365 72.5209 11.2365 72.503 11.2114 72.4814C11.1996 72.4584 11.19 72.4344 11.1826 72.4096L11.1611 72.3486L11.1396 72.2624C11.1396 72.2624 11.1396 72.2229 11.1396 72.2013C11.1376 72.1667 11.1376 72.1319 11.1396 72.0972C11.1376 72.0781 11.1376 72.0589 11.1396 72.0398C11.1396 71.9859 11.1396 71.9249 11.1396 71.8638V59.9711C11.1398 59.8424 11.1506 59.7139 11.1719 59.5869C11.1719 59.5366 11.1719 59.49 11.2006 59.4433V59.3858C11.2829 59.0401 11.416 58.7086 11.5956 58.4019L7.09633 55.8022L7.06401 55.8597C6.83047 56.2669 6.68376 56.718 6.63312 57.1847C6.63312 57.2493 6.63312 57.3139 6.63312 57.3786V69.2784C6.65697 69.8261 6.80792 70.3607 7.07404 70.84C7.34015 71.3192 7.71413 71.73 8.16639 72.0398L9.46625 72.7938L9.63143 72.8764L9.69247 72.9051L9.80379 72.9518L9.88996 72.9841L9.98332 73.0165L10.0875 73.0452L10.1665 73.0667L10.2885 73.0955H10.3496L10.4968 73.1206H10.5255C11.134 73.2139 11.7562 73.1534 12.3353 72.9446Z" fill="black"/>
<path d="M17.8184 57.6766C18.8741 57.0662 18.9998 57.0015 19.4163 56.7861C19.6356 56.6545 19.8804 56.5712 20.1345 56.5419C20.2968 56.5254 20.4592 56.5731 20.5869 56.6748C20.7305 56.7837 20.835 56.9361 20.8849 57.1093C20.9775 57.4007 21.0235 57.7048 21.0214 58.0106C21.0393 58.5528 21.0429 58.7287 21.0429 60.1255C21.0429 61.5224 21.0429 61.6983 21.0214 62.28C21.0151 62.6359 20.9693 62.9899 20.8849 63.3357C20.82 63.6062 20.7198 63.8669 20.5869 64.1113C20.4678 64.3506 20.3155 64.5718 20.1345 64.7684C19.9233 65.0009 19.6818 65.2038 19.4163 65.3717C18.9998 65.6374 18.8741 65.7308 17.8184 66.3232C16.7627 66.9157 16.6406 67.0019 16.2241 67.2173C16.0045 67.3477 15.7597 67.4297 15.5059 67.4579C15.3424 67.4746 15.1789 67.427 15.0499 67.3251C14.9084 67.2149 14.8054 67.0628 14.7555 66.8906C14.6632 66.6004 14.6171 66.2974 14.619 65.9929C14.619 65.4471 14.5939 65.2747 14.5939 63.8779C14.5939 62.4811 14.5939 62.3016 14.619 61.7234C14.6243 61.3604 14.6701 60.9991 14.7555 60.6462C14.8214 60.3766 14.9203 60.1161 15.0499 59.8706C15.172 59.6323 15.3254 59.4113 15.5059 59.2135C15.7162 58.9801 15.9579 58.7771 16.2241 58.6102C16.6406 58.3445 16.7663 58.2511 17.8184 57.6587V57.6766ZM17.8184 56.7107C16.7412 57.3283 16.6119 57.4288 16.1918 57.6802C15.8371 57.902 15.5145 58.1714 15.233 58.481C14.9478 58.7822 14.7061 59.1218 14.5149 59.49C14.3146 59.8684 14.1615 60.27 14.0589 60.6857C13.9471 61.1396 13.8857 61.6044 13.8757 62.0717C13.8757 62.6427 13.8506 62.8258 13.8506 64.2549C13.8506 65.6841 13.8506 65.8636 13.8757 66.4094C13.8758 66.8079 13.9376 67.204 14.0589 67.5836C14.1384 67.8479 14.2977 68.0812 14.5149 68.2515C14.7186 68.4104 14.9762 68.4838 15.233 68.4562C15.571 68.4227 15.8978 68.3174 16.1918 68.1474C16.6119 67.9283 16.7448 67.8565 17.8184 67.2389C18.8921 66.6213 19.0249 66.5207 19.4486 66.2658C20.1545 65.8292 20.728 65.2085 21.1076 64.4704C21.3073 64.0921 21.4593 63.6904 21.56 63.2747C21.6732 62.8222 21.7358 62.3585 21.7467 61.8922C21.7467 61.3177 21.7683 61.1345 21.7683 59.7054C21.7683 58.2763 21.7683 58.1003 21.7467 57.5509C21.7462 57.1534 21.6832 56.7583 21.56 56.3803C21.481 56.1157 21.3232 55.8814 21.1076 55.7089C20.9037 55.5505 20.6459 55.4784 20.3894 55.5078C20.0511 55.5395 19.7239 55.6449 19.4307 55.8166C19.007 56.032 18.8741 56.1039 17.8005 56.7251L17.8184 56.7107ZM17.8005 59.2853C16.6801 59.9316 15.7717 61.666 15.7717 63.1597C15.7717 64.6535 16.6801 65.3394 17.8005 64.693C18.9208 64.0467 19.8293 62.3123 19.8293 60.8186C19.8293 59.3248 18.9208 58.6389 17.8005 59.2853ZM17.8005 63.745C17.0823 64.1652 16.4862 63.7199 16.4862 62.7504C16.4862 61.7809 17.0751 60.6534 17.8005 60.2368C18.5258 59.8203 19.1183 60.262 19.1183 61.2351C19.1183 62.2082 18.5294 63.3285 17.8005 63.7486V63.745ZM20.3822 57.691C20.3822 57.3319 20.1704 57.1811 19.9082 57.3319C19.7635 57.4355 19.6452 57.5718 19.5629 57.7296C19.4805 57.8874 19.4365 58.0624 19.4343 58.2404C19.4343 58.5994 19.6461 58.7467 19.9082 58.5994C20.0525 58.4962 20.1705 58.3605 20.2528 58.2034C20.3351 58.0462 20.3795 57.872 20.3822 57.6946" fill="white"/>
<path d="M42.5123 24.4654C42.4841 23.9121 42.3261 23.3731 42.051 22.8921C41.7759 22.4112 41.3915 22.0017 40.9287 21.6969L39.6253 20.9429C39.1295 20.6914 38.5815 20.5604 38.0256 20.5604C37.4697 20.5604 36.9217 20.6914 36.4259 20.9429L26.1203 26.8928C25.6845 27.1819 25.3166 27.5622 25.0419 28.0073C24.7673 28.4524 24.5925 28.9518 24.5296 29.471C24.5296 29.5356 24.5296 29.6003 24.5296 29.6649V41.5648C24.5593 42.1194 24.7195 42.6592 24.9972 43.1403C25.2749 43.6213 25.6621 44.0301 26.1275 44.3333L27.431 45.0873L27.5961 45.1735L27.6572 45.1986L27.7685 45.2453L27.8511 45.2776L27.948 45.31L28.0486 45.3387L28.1312 45.3602L28.2532 45.389H28.3143L28.4615 45.4141H28.4902C29.2264 45.5345 29.9818 45.4149 30.6447 45.073L40.9287 39.1374C41.3942 38.8334 41.7814 38.424 42.0591 37.9424C42.3367 37.4607 42.4969 36.9204 42.5266 36.3653L42.5123 24.4654Z" fill="#47D163"/>
<path opacity="0.4" d="M29.4777 30.6883C29.2985 30.9955 29.1643 31.3268 29.0791 31.6721C29.2908 30.7764 29.8384 29.9962 30.6088 29.4925L40.9287 23.5426C41.812 23.0327 42.5266 23.4456 42.5266 24.4654C42.4969 23.9108 42.3366 23.371 42.059 22.8899C41.7813 22.4089 41.3941 22.0001 40.9287 21.6969L39.6252 20.9429C39.1295 20.6914 38.5814 20.5604 38.0255 20.5604C37.4697 20.5604 36.9216 20.6914 36.4258 20.9429L26.1203 26.8928C25.6312 27.2024 25.2314 27.6344 24.9604 28.146L24.9892 28.0885L29.4777 30.6883Z" fill="white"/>
<path opacity="0.1" d="M30.2785 45.2381L30.1995 45.2597C30.1584 45.2726 30.1164 45.2823 30.0738 45.2884H29.9553H29.7973C29.65 45.277 29.5091 45.2234 29.3915 45.134L29.3341 45.0801L29.3018 45.0514L29.2551 44.994L29.2228 44.9509C29.2087 44.9331 29.1967 44.9138 29.1869 44.8934L29.1545 44.836C29.1545 44.818 29.1545 44.7965 29.1258 44.7749L29.1007 44.7067L29.0791 44.6421C29.0791 44.6157 29.072 44.587 29.0576 44.5559C29.0555 44.5356 29.0555 44.5151 29.0576 44.4948C29.0556 44.4602 29.0556 44.4254 29.0576 44.3907C29.0556 44.3716 29.0556 44.3524 29.0576 44.3333C29.0539 44.2759 29.0539 44.2183 29.0576 44.1609V32.2646C29.0596 32.1359 29.0704 32.0076 29.0899 31.8804C29.0899 31.8301 29.0899 31.7834 29.115 31.7368C29.1164 31.7176 29.1164 31.6984 29.115 31.6793C29.2003 31.334 29.3345 31.0027 29.5136 30.6954L25.0108 28.0957L24.982 28.1532C24.7469 28.5597 24.6001 29.0111 24.5511 29.4782C24.5511 29.5428 24.5511 29.6074 24.5511 29.6721V41.5719C24.5809 42.1266 24.7411 42.6664 25.0187 43.1474C25.2964 43.6285 25.6837 44.0372 26.149 44.3404L27.4525 45.0945L27.6177 45.1807L27.6787 45.2058L27.79 45.2525L27.8726 45.2848L27.9696 45.3171L28.0701 45.3459L28.1527 45.3674L28.2748 45.3961H28.3358L28.4831 45.4213H28.5118C29.1068 45.5051 29.7133 45.4422 30.2785 45.2381Z" fill="black"/>
<path d="M34.6484 40.9148L36.3684 39.9202V34.1749L37.5677 33.4819L37.6934 31.4854L36.3684 32.2503V31.1551C36.3684 30.7026 36.4366 30.4836 36.7634 30.2969L37.6934 29.7583V27.7618L36.5049 28.4512C35.9168 28.7612 35.4296 29.2328 35.1007 29.8104C34.7718 30.3881 34.6149 31.0478 34.6484 31.7116V33.2593L33.7471 33.7656V35.7118L34.6412 35.1983L34.6484 40.9148Z" fill="white"/>
<path d="M19.226 115.847L60.4231 139.626C60.9071 139.872 61.4422 140 61.9851 140C62.528 140 63.0632 139.872 63.5471 139.626L127.794 102.536C128.655 102.037 128.655 101.233 127.794 100.741L86.5964 76.9484C86.1131 76.7025 85.5785 76.5743 85.0362 76.5743C84.4939 76.5743 83.9593 76.7025 83.476 76.9484L19.226 114.052C18.3642 114.54 18.3642 115.345 19.226 115.847Z" fill="#E0E0E0"/>
<path d="M20.5223 110.102L60.5524 133.216C61.0415 133.464 61.5822 133.593 62.1306 133.593C62.6789 133.593 63.2196 133.464 63.7087 133.216L127.176 96.5793C128.048 96.0766 128.048 95.2615 127.176 94.7588L87.1422 71.6449C86.6531 71.3969 86.1124 71.2677 85.564 71.2677C85.0157 71.2677 84.475 71.3969 83.9859 71.6449L20.5223 108.307C19.6497 108.792 19.6497 109.607 20.5223 110.102Z" fill="#37474F"/>
<path d="M60.5524 133.223L20.5223 110.102C19.7431 109.653 19.6605 108.953 20.2745 108.45C19.8843 108.76 19.564 109.148 19.3344 109.59C19.1048 110.032 18.9712 110.517 18.9423 111.014V112.497C18.9722 113.045 19.1308 113.579 19.4053 114.054C19.6798 114.53 20.0625 114.934 20.5223 115.233L60.5524 138.344C61.0383 138.602 61.5822 138.732 62.1323 138.721V133.6C61.5822 133.611 61.0383 133.481 60.5524 133.223Z" fill="#455A64"/>
<path d="M127.176 101.707C127.635 101.408 128.017 101.004 128.291 100.529C128.565 100.055 128.723 99.5217 128.752 98.9743V97.4913C128.724 96.9942 128.59 96.5088 128.36 96.0669C128.131 95.625 127.81 95.2367 127.42 94.9275C128.034 95.4302 127.955 96.1304 127.176 96.5793L63.7087 133.223C63.2238 133.481 62.6813 133.611 62.1323 133.6V138.728C62.6813 138.738 63.2238 138.608 63.7087 138.351L127.176 101.707Z" fill="#263238"/>
<path d="M42.006 120.778C42.6851 121.123 43.4363 121.303 44.1982 121.303C44.9601 121.303 45.7112 121.123 46.3903 120.778C47.6004 120.059 47.6004 118.946 46.3903 118.246C45.7106 117.903 44.9597 117.724 44.1982 117.724C43.4366 117.724 42.6857 117.903 42.006 118.246C40.8103 118.946 40.8103 120.081 42.006 120.778Z" fill="#263238"/>
<path d="M66.7824 128.318L28.4651 106.181C27.9444 105.879 27.9444 105.387 28.4651 105.086L78.3771 76.259C78.6703 76.1104 78.9945 76.033 79.3232 76.033C79.652 76.033 79.9761 76.1104 80.2694 76.259L118.587 98.3962C119.111 98.6979 119.111 99.1862 118.587 99.4735L68.6747 128.304C68.3826 128.455 68.059 128.535 67.7303 128.537C67.4015 128.54 67.0768 128.465 66.7824 128.318Z" fill="white"/>
<path d="M104.263 84.8266C104.435 84.9135 104.625 84.9587 104.818 84.9587C105.011 84.9587 105.201 84.9135 105.373 84.8266C105.432 84.7969 105.483 84.751 105.518 84.6943C105.553 84.6375 105.572 84.572 105.572 84.5053C105.572 84.4385 105.553 84.3731 105.518 84.3163C105.483 84.2595 105.432 84.2137 105.373 84.1839C105.201 84.0971 105.011 84.0519 104.818 84.0519C104.625 84.0519 104.435 84.0971 104.263 84.1839C103.954 84.3599 103.954 84.6471 104.263 84.8266Z" fill="#263238"/>
<path d="M106.037 89.8609C106.381 90.0346 106.761 90.125 107.146 90.125C107.532 90.125 107.912 90.0346 108.256 89.8609C108.87 89.5019 108.87 88.9309 108.256 88.579C107.912 88.4038 107.532 88.3124 107.146 88.3124C106.761 88.3124 106.381 88.4038 106.037 88.579C105.423 88.9166 105.423 89.5055 106.037 89.8609Z" fill="#263238"/>
<path d="M104.486 87.6275C104.895 87.3941 104.874 86.9991 104.435 86.7477L97.1318 82.5285C96.897 82.4039 96.6361 82.3363 96.3704 82.3313C96.1046 82.3263 95.8414 82.3841 95.6021 82.4998C95.1927 82.7368 95.2143 83.1318 95.6524 83.3831L102.956 87.6023C103.191 87.7264 103.452 87.7934 103.718 87.7977C103.984 87.8021 104.247 87.7438 104.486 87.6275Z" fill="#263238"/>
<path d="M77.7307 82.2125C77.2065 82.5142 77.2065 83.0025 77.7307 83.2898L106.924 100.149C107.218 100.297 107.542 100.375 107.872 100.375C108.201 100.375 108.526 100.297 108.82 100.149L115.283 96.4249L84.1941 78.4709L77.7307 82.2125Z" fill="#EBEBEB"/>
<path d="M77.9462 85.1391L75.6158 83.7961C75.5184 83.7466 75.4108 83.7208 75.3016 83.7208C75.1924 83.7208 75.0847 83.7466 74.9874 83.7961L73.5187 84.6435C73.3428 84.7441 73.3428 84.9057 73.5187 85.0026L73.7198 85.1211L72.9765 85.5161C72.8904 85.5628 72.8975 85.5915 72.9981 85.5843L74.3051 85.4586L75.8492 86.3492C75.9475 86.3974 76.0556 86.4224 76.1652 86.4224C76.2747 86.4224 76.3828 86.3974 76.4811 86.3492L77.9462 85.5017C77.983 85.4878 78.0147 85.463 78.0371 85.4306C78.0594 85.3982 78.0714 85.3598 78.0714 85.3204C78.0714 85.281 78.0594 85.2426 78.0371 85.2102C78.0147 85.1778 77.983 85.153 77.9462 85.1391Z" fill="#EBEBEB"/>
<path d="M78.632 88.6437L78.4596 88.2846C78.237 87.8142 78.1006 87.175 78.7469 86.8052C78.9918 86.6812 79.2624 86.6166 79.5369 86.6166C79.8114 86.6166 80.082 86.6812 80.3269 86.8052C80.6644 86.9991 80.7398 87.2899 80.5531 87.5233C80.9723 87.4085 81.4193 87.4546 81.8063 87.6526C81.9022 87.6838 81.9858 87.7445 82.0451 87.8261C82.1044 87.9077 82.1364 88.006 82.1364 88.1068C82.1364 88.2077 82.1044 88.306 82.0451 88.3876C81.9858 88.4692 81.9022 88.5299 81.8063 88.5611C81.1743 88.9202 80.0683 88.8555 79.2532 88.7298L78.632 88.6437Z" fill="#EBEBEB"/>
<path d="M46.6381 101.255L75.8348 118.113C76.1287 118.262 76.4534 118.339 76.7827 118.339C77.1121 118.339 77.4368 118.262 77.7307 118.113L100.468 104.982C100.988 104.68 100.988 104.192 100.468 103.905L71.2709 87.0314C70.977 86.8828 70.6523 86.8053 70.3229 86.8053C69.9936 86.8053 69.6688 86.8828 69.3749 87.0314L46.6381 100.163C46.1138 100.465 46.1138 100.953 46.6381 101.255Z" fill="#EBEBEB"/>
<path d="M46.8607 103.089L44.5195 101.743C44.4212 101.695 44.3131 101.67 44.2035 101.67C44.094 101.67 43.9859 101.695 43.8876 101.743L42.4189 102.59C42.3833 102.605 42.3527 102.63 42.3312 102.662C42.3097 102.694 42.2983 102.731 42.2983 102.77C42.2983 102.808 42.3097 102.846 42.3312 102.878C42.3527 102.91 42.3833 102.935 42.4189 102.949L42.6236 103.068L41.8803 103.459C41.7905 103.506 41.8013 103.538 41.8803 103.527L43.1874 103.405L44.7314 104.296C44.8298 104.344 44.9378 104.369 45.0474 104.369C45.1569 104.369 45.265 104.344 45.3634 104.296L46.832 103.445C46.8693 103.434 46.9025 103.413 46.9272 103.383C46.9518 103.353 46.9667 103.316 46.9698 103.277C46.9729 103.238 46.9642 103.2 46.9447 103.166C46.9252 103.133 46.8959 103.106 46.8607 103.089Z" fill="#EBEBEB"/>
<path d="M47.5286 106.59L47.3598 106.231C47.1336 105.761 47.0007 105.122 47.6471 104.748C47.8913 104.624 48.1613 104.56 48.4352 104.56C48.7091 104.56 48.9792 104.624 49.2234 104.748C49.5825 104.946 49.6399 105.237 49.4496 105.466C49.8704 105.356 50.317 105.402 50.7064 105.596C50.8019 105.628 50.8849 105.689 50.9437 105.771C51.0025 105.853 51.0341 105.951 51.0341 106.052C51.0341 106.153 51.0025 106.251 50.9437 106.333C50.8849 106.414 50.8019 106.476 50.7064 106.508C50.0744 106.867 48.9685 106.802 48.1498 106.677L47.5286 106.59Z" fill="#EBEBEB"/>
<path d="M38.2895 104.982C38.5834 104.833 38.9081 104.756 39.2374 104.756C39.5668 104.756 39.8915 104.833 40.1854 104.982L69.3785 121.837C69.9028 122.139 69.9028 122.631 69.3785 122.932L63.4214 126.372L32.3395 108.418L38.2895 104.982Z" fill="#EBEBEB"/>
<path d="M70.7323 101.1L54.1141 105.563L75.842 118.11C76.1359 118.258 76.4606 118.336 76.79 118.336C77.1193 118.336 77.444 118.258 77.7379 118.11L78.2083 117.837L87.5839 104.08L67.673 107.987L70.7323 101.1Z" fill="#E0E0E0"/>
<path d="M78.9157 91.4481L71.2709 87.0314C70.977 86.8828 70.6522 86.8053 70.3229 86.8053C69.9936 86.8053 69.6688 86.8828 69.3749 87.0314L60.8289 91.9687C61.2203 92.712 62.0282 93.4051 63.2526 94.0047C66.8434 95.7211 72.6892 95.7211 76.2908 94.0047C77.7989 93.2866 78.6715 92.3817 78.9157 91.4481Z" fill="#E0E0E0"/>
<path opacity="0.2" d="M115.782 89.8932L77.4614 67.7596C77.1681 67.611 76.844 67.5336 76.5152 67.5336C76.1865 67.5336 75.8623 67.611 75.5691 67.7596L25.6571 96.5865C25.1364 96.8881 25.1364 97.3764 25.6571 97.6637L33.7579 102.332L63.9888 119.794C64.282 119.942 64.6062 120.02 64.9349 120.02C65.2637 120.02 65.5879 119.942 65.8811 119.794L110.809 93.8359L115.779 90.9633C116.307 90.6868 116.307 90.1949 115.782 89.8932Z" fill="white"/>
<path d="M115.876 89.7353L84.1906 71.4223L77.5548 67.6017C77.2336 67.4372 76.8779 67.3514 76.517 67.3514C76.1562 67.3514 75.8005 67.4372 75.4793 67.6017L25.5673 96.4285C25.4251 96.4832 25.3027 96.5798 25.2165 96.7054C25.1302 96.831 25.084 96.9799 25.084 97.1323C25.084 97.2847 25.1302 97.4336 25.2165 97.5592C25.3027 97.6848 25.4251 97.7814 25.5673 97.8361L33.6682 102.504L63.9098 119.977C64.2308 120.142 64.5866 120.228 64.9475 120.228C65.3085 120.228 65.6642 120.142 65.9853 119.977L110.91 94.0191L115.883 91.1465C116.025 91.0909 116.147 90.9939 116.233 90.868C116.319 90.7421 116.365 90.5933 116.365 90.4409C116.365 90.2885 116.319 90.1396 116.233 90.0137C116.147 89.8878 116.025 89.7908 115.883 89.7353H115.876ZM115.693 90.8305L110.719 93.7031L65.7949 119.661C65.529 119.794 65.2358 119.863 64.9385 119.863C64.6413 119.863 64.3481 119.794 64.0821 119.661L33.8513 102.202L25.7541 97.5345C25.6675 97.5123 25.5909 97.462 25.5361 97.3915C25.4814 97.3209 25.4516 97.2342 25.4516 97.1449C25.4516 97.0556 25.4814 96.9688 25.5361 96.8983C25.5909 96.8277 25.6675 96.7774 25.7541 96.7553L75.666 67.9284C75.9322 67.7965 76.2253 67.7278 76.5224 67.7278C76.8195 67.7278 77.1126 67.7965 77.3788 67.9284L84.0182 71.7526L115.703 90.0656C115.79 90.0878 115.867 90.1381 115.921 90.2086C115.976 90.2792 116.006 90.3659 116.006 90.4552C116.006 90.5445 115.976 90.6313 115.921 90.7018C115.867 90.7724 115.79 90.8227 115.703 90.8448L115.693 90.8305Z" fill="white"/>
<path d="M98.586 0.130664C99.1139 -0.174553 99.5448 0.07321 99.5448 0.683644V71.275C99.5262 71.6078 99.4298 71.9316 99.2633 72.2204C99.0968 72.5091 98.8648 72.7548 98.586 72.9375L71.0375 88.8447L67.8058 99.6171C67.5149 100.594 66.9332 100.637 66.5095 99.7068L63.5507 93.1752L55.5073 97.8181C54.9795 98.1233 54.5486 97.8755 54.5486 97.2651V26.6738C54.5665 26.3408 54.6627 26.0168 54.8293 25.7279C54.9959 25.4391 55.2281 25.1936 55.5073 25.0112L98.586 0.130664Z" fill="#47D163"/>
<path d="M95.0671 54.6245C95.0343 55.0816 94.8938 55.5244 94.6574 55.9169C94.4209 56.3094 94.095 56.6405 93.7062 56.8831L78.571 65.6231C77.8206 66.054 77.2101 65.7488 77.2101 64.9337C77.2442 64.4769 77.385 64.0345 77.6214 63.6422C77.8578 63.2498 78.1831 62.9186 78.571 62.675L93.7134 53.9387C94.4603 53.5042 95.0671 53.813 95.0671 54.6245Z" fill="white"/>
<path d="M92.2771 63.3537C92.2433 63.8105 92.1026 64.253 91.8662 64.6454C91.6297 65.0378 91.3043 65.369 90.9162 65.6123L78.3448 72.8801C77.5943 73.3145 76.9875 73.0057 76.9875 72.1906C77.0205 71.7345 77.1606 71.2926 77.3965 70.9008C77.6323 70.509 77.9572 70.1783 78.3448 69.9356L90.9305 62.6678C91.681 62.2334 92.2771 62.5422 92.2771 63.3537Z" fill="white"/>
<path d="M69.6012 75.7706L69.5689 75.3469C68.8831 77.0777 67.8489 78.3201 66.6963 78.9844C64.6603 80.1622 62.8398 79.1172 62.8398 76.0004C62.8398 73.0632 64.2761 69.8422 66.5132 68.5603C67.9818 67.7129 68.9836 68.3377 69.1488 68.7075V67.9894C69.1488 67.5908 69.5546 67.0342 70.0501 66.747C70.5456 66.4597 70.955 66.7218 70.955 67.3359V73.9968C70.955 74.8442 71.2709 75.0166 71.7198 74.7544C72.5385 74.284 73.2926 72.2696 73.2926 69.9751C73.2926 65.5441 70.9693 63.4794 67.2636 65.6195C63.7913 67.6231 61.0372 72.6861 61.0372 77.11C61.0372 81.4513 63.6405 83.1066 67.0482 81.1425C68.0268 80.5345 68.894 79.7633 69.612 78.8623C69.9998 78.3883 70.4235 78.2447 70.6102 78.5822C70.797 78.9198 70.6821 79.6164 70.2978 80.0904C69.3894 81.2304 68.2971 82.2109 67.0661 82.9917C62.8254 85.437 59.6188 83.3041 59.6188 77.9395C59.6188 72.4599 62.9762 66.3161 67.2816 63.8277C71.5869 61.3392 74.7432 63.5512 74.7432 69.0954C74.7432 72.4563 73.4254 75.4008 71.5546 76.478C70.5205 77.0454 69.7844 76.9125 69.6012 75.7706ZM64.7932 74.7616C64.7932 76.478 65.6262 77.4188 66.8974 76.6863C68.1685 75.9538 69.0518 74.0722 69.0518 72.3378C69.0518 70.6681 68.2008 69.8243 66.8794 70.5855C65.6262 71.2965 64.7932 73.117 64.7932 74.7616Z" fill="white"/>
<path d="M77.0377 22.846C84.4742 18.5371 90.4995 22.0345 90.4995 30.6201C90.4995 39.2056 84.4742 49.6512 77.0377 53.9386C69.6011 58.226 63.5758 54.7502 63.5758 46.1646C63.5758 37.579 69.6011 27.1549 77.0377 22.846Z" fill="white"/>
<path d="M77.0377 22.846C84.4742 18.5371 90.4995 22.0345 90.4995 30.6201C90.4995 39.2056 84.4742 49.6512 77.0377 53.9386C69.6011 58.226 63.5758 54.7502 63.5758 46.1646C63.5758 37.579 69.6011 27.1549 77.0377 22.846Z" fill="#F5F5F5"/>
<path d="M72.129 34.2467C71.5121 34.3533 70.9609 34.6959 70.5922 35.2018C69.9315 36.0528 70.0679 37.2665 70.5922 39.9991L72.6353 39.6867L72.129 34.2467Z" fill="#263238"/>
<path d="M84.0361 30.225C84.4951 30.1024 84.9281 29.898 85.3145 29.6217C85.9429 29.0939 86.1044 29.7654 85.7597 30.4763C85.5311 30.9832 85.2043 31.4396 84.7981 31.8193C84.3919 32.199 83.9145 32.4943 83.3934 32.6883C83.3719 32.6021 82.8045 31.2519 82.8045 31.2519L84.0361 30.225Z" fill="#263238"/>
<path d="M73.3033 48.3405C73.3033 48.3405 69.4971 50.7966 68.6712 51.662C67.8453 52.5274 67.5042 55.224 67.199 58.524C67.199 58.524 71.5331 60.3517 78.3304 56.9871C85.1278 53.6225 85.7418 50.9618 85.7418 50.9618C85.7418 50.9618 84.8621 46.9652 84.5353 45.8557C84.1224 44.4517 83.3252 43.4391 78.6895 45.5433L73.3033 48.3405Z" fill="#263238"/>
<path d="M73.0878 39.5682C72.7826 39.8303 72.3517 39.3635 71.9783 39.0727C71.6048 38.7818 70.384 38.5736 69.7735 40.0206C69.1631 41.4677 70.5635 42.8538 71.3894 43.2093C71.6719 43.3281 71.9829 43.3622 72.2845 43.3073C72.5861 43.2525 72.8652 43.1111 73.0878 42.9005L73.3033 48.3405C73.3033 48.3405 74.3805 50.2041 77.3249 49.8163C80.2694 49.4285 79.6554 46.4697 78.6931 45.5433V44.4229C78.6931 44.4229 80.212 44.3224 80.9265 43.9418C81.3107 43.7371 82.2228 42.387 82.8117 40.9937C84.026 38.4273 84.3029 35.5166 83.5945 32.7672C82.5424 28.5732 77.7343 29.7258 74.8689 32.2969C72.0034 34.8679 73.0878 39.5682 73.0878 39.5682Z" fill="#FFA8A7"/>
<path d="M84.8656 26.0166C84.6071 25.1691 84.4491 25.32 82.37 26.7814C80.7821 27.8994 79.01 28.7296 77.1347 29.2339C75.6696 29.6792 73.666 30.0311 72.6354 31.3884C72.1922 31.9721 71.9662 32.6921 71.9962 33.4244C71.9089 33.3434 71.8028 33.2854 71.6874 33.2556C71.1811 33.1192 70.5599 33.489 70.2978 34.0851L72.0932 34.5627C71.9531 35.5968 71.551 38.789 71.9891 39.0691C72.3661 39.3097 72.9442 40.1176 73.0986 40.0745C73.6121 39.9273 73.8168 37.6507 74.0968 36.2719C74.4021 34.7027 74.5206 34.1174 75.0843 34.0528C76.9153 33.7641 78.7176 33.3159 80.4705 32.7134C82.4095 31.9557 82.9661 31.313 82.9661 31.313L84.0002 30.6559C84.4619 29.9865 84.7775 29.2276 84.9265 28.4283C85.0756 27.629 85.0549 26.8073 84.8656 26.0166Z" fill="#263238"/>
<path d="M78.6859 44.423C78.6859 44.423 75.9676 44.6061 75.0197 44.3547C74.4736 44.2247 74.0012 43.8839 73.7054 43.4068C73.8398 43.906 74.0965 44.3639 74.4523 44.739C75.1453 45.4571 78.6859 45.1483 78.6859 45.1483V44.423Z" fill="#F28F8F"/>
<path d="M77.9928 41.2667L79.2352 41.3995C79.1841 41.5838 79.0738 41.7462 78.9213 41.8617C78.7688 41.9772 78.5826 42.0394 78.3914 42.0387C78.0467 42.0028 77.8707 41.6581 77.9928 41.2667Z" fill="#F28F8F"/>
<path d="M79.7883 36.4191L79.9678 39.6472L81.6806 38.6095L79.7883 36.4191Z" fill="#F28F8F"/>
<path d="M78.0323 37.5682C78.0289 37.7297 77.9747 37.886 77.8773 38.0149C77.78 38.1438 77.6445 38.2388 77.4901 38.2863C77.4256 38.3084 77.3565 38.3142 77.2892 38.3032C77.2219 38.2921 77.1584 38.2645 77.1043 38.2229C77.0502 38.1813 77.0073 38.1269 76.9794 38.0647C76.9515 38.0024 76.9394 37.9342 76.9443 37.8662C76.9485 37.7044 77.0035 37.548 77.1014 37.4191C77.1993 37.2902 77.3353 37.1954 77.4901 37.148C77.5544 37.1257 77.6234 37.1198 77.6906 37.1308C77.7578 37.1418 77.8212 37.1694 77.875 37.2112C77.9289 37.2529 77.9715 37.3074 77.9989 37.3697C78.0264 37.4321 78.0379 37.5003 78.0323 37.5682Z" fill="#263238"/>
<path d="M77.4542 35.6614L76.2908 36.6166C76.2155 36.4435 76.2015 36.2498 76.2511 36.0677C76.3007 35.8855 76.411 35.7257 76.5637 35.6147C76.6209 35.5514 76.6916 35.5016 76.7706 35.4689C76.8495 35.4363 76.9347 35.4217 77.02 35.4262C77.1053 35.4306 77.1886 35.4541 77.2637 35.4948C77.3388 35.5355 77.4039 35.5924 77.4542 35.6614Z" fill="#263238"/>
<path d="M82.8907 34.656L81.8135 34.1246C81.8945 33.9584 82.033 33.8272 82.2033 33.7552C82.3736 33.6833 82.5643 33.6754 82.7399 33.7332C82.8133 33.7815 82.8759 33.8445 82.9237 33.9183C82.9715 33.992 83.0035 34.0748 83.0177 34.1615C83.0318 34.2483 83.0279 34.337 83.006 34.4221C82.9842 34.5072 82.9449 34.5869 82.8907 34.656Z" fill="#263238"/>
<path d="M82.5819 36.1929C82.5774 36.3541 82.5227 36.5099 82.4256 36.6386C82.3284 36.7673 82.1935 36.8626 82.0396 36.911C81.9751 36.9332 81.9061 36.9389 81.8388 36.9279C81.7715 36.9168 81.7079 36.8892 81.6539 36.8476C81.5998 36.806 81.5569 36.7517 81.529 36.6894C81.501 36.6272 81.489 36.559 81.4939 36.4909C81.4981 36.3291 81.553 36.1727 81.651 36.0438C81.7489 35.915 81.8849 35.8201 82.0396 35.7728C82.104 35.7504 82.1729 35.7445 82.2401 35.7555C82.3073 35.7665 82.3708 35.7942 82.4246 35.8359C82.4784 35.8776 82.521 35.9321 82.5485 35.9944C82.5759 36.0568 82.5874 36.125 82.5819 36.1929Z" fill="#263238"/>
</svg>
