<svg width="169" height="157" viewBox="0 0 169 157" fill="none" xmlns="http://www.w3.org/2000/svg">
<path d="M24.7007 144.876C57.6373 160.573 111.036 160.577 143.972 144.876C176.909 129.175 176.904 103.728 143.972 88.0318C111.041 72.3354 57.6373 72.3354 24.7007 88.0318C-8.23596 103.728 -8.23117 129.18 24.7007 144.876Z" fill="#F5F5F5"/>
<path d="M143.858 133.276C149.924 133.276 154.841 130.933 154.841 128.042C154.841 125.152 149.924 122.809 143.858 122.809C137.792 122.809 132.874 125.152 132.874 128.042C132.874 130.933 137.792 133.276 143.858 133.276Z" fill="#EBEBEB"/>
<path d="M22.2009 128.793L26.0868 126.551C28.2564 124.781 29.9077 122.457 30.8665 119.826C32.0662 116.519 31.8989 114.005 31.0385 112.743C29.9822 111.189 27.2435 111.462 27.1335 114.731C26.9041 121.174 25.0257 125.643 22.2009 128.793Z" fill="#47D163"/>
<path opacity="0.2" d="M22.2009 128.793L26.0868 126.551C28.2564 124.781 29.9077 122.457 30.8665 119.826C32.0662 116.519 31.8989 114.005 31.0385 112.743C29.9822 111.189 27.2435 111.462 27.1335 114.731C26.9041 121.174 25.0257 125.643 22.2009 128.793Z" fill="black"/>
<path d="M22.2009 129.032C22.1503 129.031 22.1012 129.014 22.0607 128.984C22.0201 128.954 21.9903 128.911 21.9754 128.863C21.9605 128.815 21.9614 128.763 21.9779 128.715C21.9943 128.667 22.0256 128.626 22.0671 128.597C31.0528 122.383 29.313 113.718 29.2939 113.632C29.2873 113.6 29.287 113.568 29.2929 113.536C29.2988 113.505 29.3109 113.475 29.3284 113.448C29.346 113.421 29.3686 113.398 29.3951 113.38C29.4216 113.362 29.4513 113.349 29.4827 113.342C29.5141 113.336 29.5465 113.336 29.578 113.341C29.6095 113.347 29.6395 113.359 29.6664 113.377C29.6933 113.395 29.7164 113.417 29.7345 113.444C29.7526 113.47 29.7653 113.5 29.7719 113.531C29.7719 113.622 31.6073 122.584 22.3538 128.989C22.3089 129.019 22.2552 129.035 22.2009 129.032Z" fill="white"/>
<path d="M14.4148 133.29C14.4148 133.29 13.0622 132.191 13.3872 130.7C13.7122 129.209 14.5869 128.138 13.0909 126.217C11.5948 124.295 11.179 121.733 12.9666 120.347C14.3288 119.272 16.4558 120.792 17.2205 117.957C17.7845 115.883 17.5933 111.29 20.2365 109.76C22.8796 108.231 24.5382 110.534 24.1223 113.651C23.7591 116.437 23.2429 119.119 23.6444 119.864C24.4187 121.298 25.7426 121.102 25.6805 123.722C25.6279 126.159 23.3193 128.176 23.3193 128.176L14.4148 133.29Z" fill="#47D163"/>
<path d="M18.8552 130.953C18.7968 130.953 18.7405 130.931 18.6966 130.892C18.6528 130.854 18.6242 130.801 18.6162 130.743C17.9327 125.079 19.5721 115.3 20.9104 112.394C20.9217 112.362 20.9397 112.332 20.9633 112.307C20.987 112.283 21.0156 112.263 21.0473 112.251C21.079 112.238 21.113 112.232 21.1471 112.234C21.1812 112.235 21.2146 112.244 21.245 112.26C21.2735 112.273 21.2992 112.291 21.3205 112.314C21.3418 112.337 21.3583 112.364 21.369 112.393C21.3796 112.423 21.3843 112.454 21.3828 112.485C21.3812 112.517 21.3733 112.547 21.3597 112.575C20.0358 115.443 18.4537 125.251 19.1085 130.666C19.1152 130.729 19.0969 130.792 19.0575 130.841C19.0181 130.89 18.9608 130.922 18.8982 130.929L18.8552 130.953Z" fill="white"/>
<path d="M18.7261 126.542C18.6896 126.543 18.6532 126.535 18.621 126.518C16.9624 125.71 15.9109 122.828 15.8679 122.694C15.8562 122.664 15.8505 122.632 15.8513 122.6C15.8521 122.569 15.8593 122.537 15.8724 122.508C15.8856 122.479 15.9044 122.453 15.9279 122.431C15.9513 122.409 15.9789 122.392 16.009 122.382C16.039 122.371 16.0709 122.366 16.1028 122.368C16.1347 122.369 16.166 122.377 16.1947 122.391C16.2235 122.405 16.2491 122.425 16.2701 122.449C16.2912 122.473 16.3072 122.501 16.3172 122.531C16.3172 122.56 17.3448 125.351 18.8313 126.073C18.88 126.097 18.9193 126.136 18.9427 126.185C18.9661 126.234 18.9722 126.289 18.9599 126.342C18.9477 126.395 18.9179 126.442 18.8754 126.476C18.833 126.509 18.7803 126.527 18.7261 126.527V126.542Z" fill="white"/>
<path d="M18.6974 128.453C18.6496 128.453 18.6028 128.439 18.5635 128.411C18.5242 128.384 18.4942 128.345 18.4776 128.3C18.4538 128.242 18.454 128.177 18.4782 128.119C18.5024 128.06 18.5485 128.014 18.6066 127.99C21.398 126.871 23.1378 123.55 23.1569 123.511C23.186 123.455 23.2364 123.412 23.2969 123.393C23.3574 123.374 23.4231 123.379 23.4795 123.409C23.5359 123.438 23.5784 123.488 23.5977 123.549C23.617 123.609 23.6114 123.675 23.5823 123.731C23.5058 123.875 21.7421 127.249 18.8026 128.434C18.7698 128.45 18.7336 128.456 18.6974 128.453Z" fill="white"/>
<path d="M116.265 102.739C116.265 102.739 114.176 99.3548 113.97 95.6793C113.765 92.0037 114.573 90.4742 115.682 90.0345C116.79 89.5948 116.876 90.9474 117.445 91.7456C118.014 92.5438 119.175 92.0897 119.606 89.5995C120.036 87.1093 121.604 82.908 124.863 82.0907C128.448 81.2017 126.527 85.4078 125.623 87.0472C124.72 88.6866 124.022 90.9235 124.615 91.5305C125.207 92.1375 126.13 91.0143 127.005 92.0563C128.07 93.3133 124.758 97.8397 122.856 98.9342L116.265 102.739Z" fill="#47D163"/>
<path d="M119.128 101.319C119.096 101.318 119.065 101.311 119.037 101.297C119.008 101.284 118.983 101.266 118.961 101.243C118.94 101.22 118.924 101.192 118.913 101.163C118.902 101.133 118.897 101.102 118.898 101.071C119.222 95.1581 121.066 89.429 124.251 84.4375C124.27 84.4115 124.293 84.3894 124.319 84.3726C124.346 84.3558 124.376 84.3446 124.408 84.3397C124.439 84.3348 124.471 84.3362 124.501 84.344C124.532 84.3518 124.561 84.3657 124.586 84.3849C124.636 84.4222 124.67 84.4775 124.68 84.5391C124.689 84.6008 124.675 84.6638 124.639 84.7147C121.51 89.6332 119.699 95.274 119.381 101.095C119.379 101.126 119.371 101.157 119.357 101.185C119.344 101.213 119.325 101.239 119.301 101.26C119.277 101.28 119.25 101.296 119.22 101.307C119.191 101.317 119.159 101.321 119.128 101.319Z" fill="white"/>
<path d="M119.4 98.4945C119.36 98.4941 119.321 98.4843 119.285 98.4658C117.947 97.725 117.206 95.5263 117.178 95.4355C117.167 95.4057 117.162 95.3741 117.164 95.3425C117.166 95.311 117.174 95.2801 117.188 95.2516C117.202 95.2232 117.221 95.1977 117.245 95.1768C117.268 95.1558 117.296 95.1398 117.326 95.1296C117.386 95.11 117.451 95.1151 117.508 95.1438C117.564 95.1725 117.607 95.2224 117.627 95.2825C117.627 95.2825 118.344 97.3999 119.539 98.0452C119.593 98.0772 119.633 98.1289 119.649 98.1894C119.666 98.25 119.659 98.3148 119.63 98.3702C119.608 98.4113 119.575 98.4451 119.534 98.4672C119.493 98.4894 119.446 98.4989 119.4 98.4945Z" fill="white"/>
<path d="M119.634 97.0463C119.581 97.0457 119.53 97.0275 119.489 96.9947C119.447 96.9618 119.418 96.9161 119.405 96.8646C119.397 96.8345 119.395 96.8031 119.4 96.7723C119.404 96.7415 119.415 96.7118 119.431 96.6851C119.447 96.6584 119.468 96.6352 119.493 96.6168C119.518 96.5984 119.547 96.5851 119.577 96.5779C123.028 95.7032 124.223 93.8965 124.232 93.8774C124.249 93.8507 124.271 93.8276 124.297 93.8094C124.323 93.7913 124.352 93.7784 124.383 93.7715C124.414 93.7646 124.446 93.7639 124.477 93.7693C124.508 93.7748 124.538 93.7863 124.565 93.8033C124.591 93.8202 124.614 93.8423 124.632 93.8681C124.651 93.894 124.664 93.9232 124.67 93.954C124.677 93.9849 124.678 94.0168 124.673 94.0479C124.667 94.079 124.656 94.1088 124.639 94.1355C124.586 94.2167 123.343 96.1142 119.696 97.0415L119.634 97.0463Z" fill="white"/>
<path d="M64.2619 95.3112C64.2619 95.3112 59.6782 94.1928 59.4393 85.6085C59.1859 76.3455 60.5625 65.5339 55.1376 64.6593C49.7126 63.7846 46.7014 70.3948 46.7684 78.114C46.8305 84.8724 49.5549 99.546 64.2428 102.423L64.2619 95.3112Z" fill="#47D163"/>
<path opacity="0.2" d="M64.2619 95.3112C64.2619 95.3112 59.6782 94.1928 59.4393 85.6085C59.1859 76.3455 60.5625 65.5339 55.1376 64.6593C49.7126 63.7846 46.7014 70.3948 46.7684 78.114C46.8305 84.8724 49.5549 99.546 64.2428 102.423L64.2619 95.3112Z" fill="black"/>
<path d="M64.2619 101.544H64.2189C60.9162 100.942 58.2252 99.1206 56.2225 96.1381C50.2862 87.2814 52.1551 70.7438 52.7716 67.8569C52.7854 67.7953 52.8225 67.7416 52.8751 67.7068C52.9277 67.6721 52.9917 67.659 53.0536 67.6704C53.1155 67.6853 53.1693 67.7233 53.204 67.7767C53.2387 67.83 53.2516 67.8946 53.24 67.9572C52.633 70.825 50.7737 87.1523 56.6193 95.8704C57.4701 97.2224 58.5927 98.3828 59.9158 99.278C61.2388 100.173 62.7335 100.784 64.305 101.071C64.3361 101.076 64.3659 101.088 64.3924 101.106C64.419 101.123 64.4418 101.145 64.4596 101.172C64.4774 101.198 64.4898 101.227 64.4961 101.259C64.5024 101.29 64.5024 101.322 64.4961 101.353C64.486 101.407 64.4569 101.456 64.414 101.491C64.3712 101.526 64.3173 101.545 64.2619 101.544Z" fill="white"/>
<path d="M64.2619 123.573C59.5253 124.214 51.8348 124.204 47.3945 120.706C42.9542 117.207 43.8814 114.196 45.5878 112.939C47.2941 111.682 48.7758 110.248 45.8411 107.456C42.9064 104.665 38.1937 100.182 36.6642 93.4567C35.1347 86.7317 35.8899 82.5256 38.8915 81.1252C41.8023 79.7678 42.5718 81.9282 44.3546 86.3828C46.1375 90.8375 50.1476 87.0185 53.5794 88.4094C57.0112 89.8003 56.8726 92.5534 57.0877 94.9193C57.3027 97.2852 58.4355 97.94 60.3808 97.94C62.3262 97.94 64.2619 99.0585 64.2619 101.286V123.573Z" fill="#47D163"/>
<path d="M64.2619 115.763C64.2415 115.768 64.2203 115.768 64.1998 115.763C63.9943 115.706 59.0951 114.282 51.9591 107.729C44.3594 100.751 40.7747 90.283 40.7364 90.1779C40.7181 90.1177 40.7238 90.0527 40.7523 89.9966C40.7808 89.9404 40.83 89.8975 40.8894 89.8768C40.949 89.857 41.014 89.8614 41.0703 89.8891C41.1267 89.9168 41.1699 89.9656 41.1905 90.025C41.224 90.1301 44.7753 100.483 52.2841 107.375C59.3198 113.842 64.2763 115.29 64.3289 115.305C64.359 115.313 64.3871 115.328 64.4116 115.348C64.436 115.367 64.4564 115.392 64.4715 115.419C64.4866 115.447 64.4961 115.477 64.4995 115.508C64.5029 115.539 64.5002 115.571 64.4914 115.601C64.4759 115.649 64.4451 115.691 64.4037 115.72C64.3624 115.75 64.3126 115.765 64.2619 115.763Z" fill="white"/>
<path d="M53.9522 109.392C53.9042 109.393 53.8571 109.378 53.8176 109.351C53.7782 109.324 53.7484 109.284 53.7324 109.239C52.1981 105.301 51.8492 96.8742 51.8205 96.5157C51.8191 96.4526 51.8423 96.3915 51.8851 96.3451C51.9279 96.2988 51.9869 96.2708 52.0499 96.2672C52.1123 96.2681 52.1722 96.292 52.2181 96.3343C52.264 96.3766 52.2926 96.4344 52.2985 96.4966C52.2985 96.5826 52.6569 105.2 54.1625 109.067C54.174 109.097 54.1796 109.128 54.1788 109.16C54.1781 109.191 54.1711 109.222 54.1582 109.251C54.1453 109.28 54.1268 109.306 54.1037 109.328C54.0807 109.35 54.0535 109.367 54.0239 109.378C54.0009 109.386 53.9767 109.391 53.9522 109.392Z" fill="white"/>
<path d="M53.914 115.056C53.4733 115.06 53.0328 115.037 52.5948 114.989C52.5634 114.985 52.5331 114.975 52.5055 114.96C52.4779 114.944 52.4537 114.924 52.4342 114.899C52.4147 114.874 52.4002 114.846 52.3917 114.815C52.3832 114.785 52.3807 114.753 52.3845 114.721C52.3882 114.69 52.3981 114.66 52.4136 114.632C52.4291 114.605 52.4499 114.58 52.4747 114.561C52.4996 114.541 52.5281 114.527 52.5585 114.518C52.5889 114.51 52.6207 114.507 52.6521 114.511C52.6951 114.511 57.145 115.018 59.1859 112.939C59.2072 112.914 59.2334 112.893 59.2629 112.878C59.2925 112.864 59.3247 112.856 59.3576 112.854C59.3905 112.853 59.4234 112.858 59.4541 112.87C59.4849 112.882 59.5128 112.9 59.5363 112.923C59.5597 112.946 59.5781 112.974 59.5904 113.004C59.6026 113.035 59.6084 113.067 59.6074 113.1C59.6063 113.133 59.5985 113.166 59.5844 113.195C59.5703 113.225 59.5501 113.252 59.5253 113.273C58.0484 114.798 55.4721 115.056 53.914 115.056Z" fill="white"/>
<path d="M50.4726 24.5483L49.9564 21.5706L47.299 23.32C47.0561 22.842 46.712 22.4228 46.2904 22.0916L47.5618 18.6502L45.172 18.1197L43.4226 21.4654C42.7897 21.5722 42.1761 21.7719 41.6016 22.0581L40.8416 19.5345L38.0025 21.7666L38.1889 24.73C37.6108 25.3776 37.0864 26.0714 36.6212 26.8043L34.2792 26.6848L32.635 30.37L34.6472 31.2303C34.4371 31.9925 34.3042 32.774 34.2505 33.5628L31.6934 35.9144L32.2048 38.8969L34.8671 37.1475C35.1085 37.625 35.4529 38.043 35.8756 38.3711L34.6281 41.8173L37.0179 42.343L39.5224 39.9054C40.1008 39.8146 39.9574 38.7248 40.5883 38.4141L41.3483 40.9282L44.1826 38.7009L44.1109 37.5347C44.6845 36.8942 46.8544 35.4842 47.3229 34.7481L47.9107 33.7922L49.555 30.1071L48.7902 28.721L47.9394 26.9143L50.4726 24.5483ZM41.7976 34.3514C39.618 36.0625 38.9298 36.4401 38.5617 34.1507C38.1937 31.8612 39.4412 28.3816 41.6207 26.6657C43.8002 24.9498 44.6319 24.8303 45.0238 27.115C45.4158 29.3997 43.9819 32.6594 41.7976 34.3514Z" fill="#E0E0E0"/>
<path d="M45.1911 18.1197L48.2931 19.9073L46.5438 23.2435L43.4418 21.4559L45.1911 18.1197Z" fill="#F5F5F5"/>
<path d="M53.0584 23.3582L50.401 25.1076L47.299 23.32L49.9564 21.5706L53.0584 23.3582Z" fill="#F5F5F5"/>
<path d="M52.633 31.8803L50.6208 31.0248L47.5188 29.2372L49.531 30.0927L52.633 31.8803Z" fill="#E0E0E0"/>
<path d="M34.6233 41.8173L37.7253 43.6001L38.9967 40.1587L35.8947 38.3711L34.6233 41.8173Z" fill="#E0E0E0"/>
<path d="M44.4216 42.7158L41.3244 40.9283L40.5644 38.4142L43.6664 40.2018L44.4216 42.7158Z" fill="#E0E0E0"/>
<path d="M53.5698 26.3359L53.0584 23.3582L50.4009 25.1076C50.1563 24.6294 49.8106 24.2102 49.3876 23.8792L50.659 20.4378L48.2931 19.9073L46.539 23.2531C45.9061 23.3598 45.2924 23.5595 44.7179 23.8457L43.9627 21.3316L41.1236 23.5637L41.31 26.5271C40.7312 27.1793 40.2069 27.8779 39.7423 28.6158L37.3955 28.4963L35.7513 32.1815L37.7635 33.0418C37.5553 33.8061 37.4225 34.5889 37.3668 35.3791L34.8145 37.6972L35.3259 40.6797L37.9834 38.9303C38.228 39.4071 38.5738 39.8247 38.9967 40.1539L37.7253 43.5953L40.1151 44.1258L41.8645 40.7801C42.4998 40.6745 43.1154 40.473 43.6903 40.1826L44.4455 42.6967L47.2846 40.4694L47.0982 37.506C47.6763 36.8584 48.2007 36.1646 48.6659 35.4316L51.0127 35.5463L52.6569 31.8612L50.616 31.0057C50.8276 30.242 50.9621 29.459 51.0175 28.6684L53.5698 26.3359ZM44.9043 36.1581C42.7296 37.8693 40.6456 37.4056 40.2489 35.121C39.8522 32.8363 41.3005 29.5909 43.48 27.8798C45.6595 26.1686 47.7387 26.6371 48.1354 28.9217C48.5321 31.2064 47.0838 34.447 44.9043 36.1581Z" fill="#EBEBEB"/>
<path d="M43.9627 21.3221L40.8607 19.5345L38.0216 21.7666L41.1236 23.5542L43.9627 21.3221Z" fill="#F5F5F5"/>
<path d="M38.0216 21.7666L38.208 24.73L41.31 26.5176L41.1236 23.5542L38.0216 21.7666Z" fill="#E0E0E0"/>
<path d="M39.7423 28.5919L36.6403 26.8044L34.2983 26.6896L37.3955 28.4772L39.7423 28.5919Z" fill="#F5F5F5"/>
<path d="M34.2983 26.6896L32.6541 30.37L35.7513 32.1576L37.3955 28.4772L34.2983 26.6896Z" fill="#E0E0E0"/>
<path d="M37.3668 35.3504L34.2696 33.5628L31.7125 35.9144L34.8097 37.702L37.3668 35.3504Z" fill="#F5F5F5"/>
<path d="M35.3259 40.6845L32.2239 38.8969L31.7125 35.9144L34.8097 37.702L35.3259 40.6845Z" fill="#E0E0E0"/>
<path d="M48.2931 19.9073L45.1911 18.1197L47.5618 18.6502L50.659 20.4378L48.2931 19.9073Z" fill="#F5F5F5"/>
<path d="M36.5829 11.0315V6.5816L33.0412 8.178C32.8536 7.42303 32.5296 6.70869 32.0853 6.07017L34.3174 1.57251L31.5929 0L28.8112 4.1822C28.036 4.11448 27.2549 4.19064 26.5074 4.40685L26.1155 0.540104L22.263 2.76742L21.8759 7.06912C21.0375 7.81203 20.2665 8.62776 19.5721 9.50675L16.7903 8.55081L14.0659 13.2731L16.2933 15.185C15.8817 16.2258 15.5618 17.3005 15.3373 18.3969L11.7956 20.8871V25.3418L15.3373 23.7454C15.5249 24.5003 15.8489 25.2147 16.2933 25.8532L14.0755 30.3556L16.7999 31.9281L19.5817 27.7459C20.3569 27.8134 21.1379 27.7373 21.8855 27.5213L22.2726 31.388L26.125 29.1607L26.5169 24.859C27.7193 24.4203 28.7845 23.6717 29.6046 22.6891L31.6025 23.3917L34.3269 18.6741L32.654 17.2402C33.0172 16.0445 33.1518 14.7911 33.0507 13.5456L36.5829 11.0315ZM24.1893 22.149C21.2354 23.8553 19.4096 22.6269 19.4096 19.2286C19.4096 15.8302 21.852 11.6289 24.8106 9.92258C27.7692 8.21624 29.5568 9.44461 29.5568 12.8716C29.5568 16.2986 27.1479 20.4378 24.1893 22.149Z" fill="#E0E0E0"/>
<path d="M34.6902 1.78282L31.593 0L28.8112 4.1822L31.9084 5.9698L34.6902 1.78282Z" fill="#F5F5F5"/>
<path d="M39.6849 8.3692L36.5829 6.5816L33.0412 8.17801L36.1432 9.96561L39.6849 8.3692Z" fill="#F5F5F5"/>
<path d="M25.3603 33.1756L22.2631 31.388L21.8759 27.5213L24.9731 29.3089L25.3603 33.1756Z" fill="#E0E0E0"/>
<path d="M14.0612 30.3556L17.1632 32.1432L19.3953 27.6456L16.2933 25.858L14.0612 30.3556Z" fill="#E0E0E0"/>
<path d="M39.685 12.843V8.3931L36.1432 9.97517C35.9576 9.21952 35.6335 8.50483 35.1873 7.86734L37.4194 3.36968L34.695 1.79239L31.9132 5.97937C31.138 5.90929 30.3565 5.9855 29.6094 6.20402L29.2175 2.32771L25.3651 4.55504L24.9732 8.85673C24.136 9.60088 23.3651 10.4165 22.6694 11.2944L19.8876 10.3384L17.1632 15.0607L19.3953 16.9726C18.9816 18.0126 18.6617 19.0875 18.4394 20.1845L14.8976 22.6747V27.1294L18.4394 25.533C18.6249 26.2887 18.949 27.0034 19.3953 27.6408L17.1632 32.1385L19.8876 33.711L22.6694 29.5288C23.4446 29.5965 24.2256 29.5203 24.9732 29.3041L25.3651 33.1709L29.2175 30.9435L29.6047 26.6418C30.4431 25.8989 31.214 25.0832 31.9085 24.2042L34.6902 25.1602L37.4146 20.4426L35.1825 18.5308C35.5961 17.4907 35.916 16.4158 36.1385 15.3188L39.685 12.843ZM27.2913 23.9605C24.3327 25.6668 21.9333 24.2807 21.9333 20.868C21.9333 17.4553 24.3231 13.3018 27.2913 11.5907C30.2595 9.87958 32.6445 11.2705 32.6445 14.6831C32.6445 18.0958 30.2451 22.2254 27.2913 23.9366V23.9605Z" fill="#EBEBEB"/>
<path d="M19.5721 9.51631L22.6693 11.3039L19.8876 10.3336L16.7903 8.54126L19.5721 9.51631Z" fill="#F0F0F0"/>
<path d="M16.79 8.54615L14.0649 13.2701L17.1658 15.059L19.891 10.335L16.79 8.54615Z" fill="#F5F5F5"/>
<path d="M14.0612 13.2635L17.1632 15.0511L19.3953 16.9726L16.2933 15.1898L14.0612 13.2635Z" fill="#E0E0E0"/>
<path d="M15.3373 18.4017L18.4393 20.1893L14.8976 22.6795L11.7956 20.8919L15.3373 18.4017Z" fill="#F5F5F5"/>
<path d="M11.7956 20.8919L14.8976 22.6795V27.1341L11.7956 25.3466V20.8919Z" fill="#E0E0E0"/>
<path d="M29.2175 2.32769L26.1155 0.5401L22.2631 2.76742L25.3603 4.55502L29.2175 2.32769Z" fill="#F5F5F5"/>
<path d="M68.9843 129.969L113.913 104.025C114.012 103.99 114.098 103.925 114.158 103.839C114.219 103.754 114.252 103.652 114.252 103.547C114.252 103.442 114.219 103.339 114.158 103.254C114.098 103.168 114.012 103.103 113.913 103.069L109.76 100.679C109.502 100.549 109.218 100.482 108.93 100.482C108.642 100.482 108.358 100.549 108.101 100.679L63.1579 126.599C63.0589 126.634 62.9732 126.698 62.9125 126.784C62.8519 126.87 62.8193 126.972 62.8193 127.077C62.8193 127.182 62.8519 127.284 62.9125 127.37C62.9732 127.455 63.0589 127.52 63.1579 127.555L67.3257 129.945C67.5811 130.078 67.8642 130.149 68.1522 130.154C68.4402 130.158 68.7252 130.094 68.9843 129.969Z" fill="#E0E0E0"/>
<path d="M112.68 3.85722L72.1675 27.2489C71.5653 27.6419 71.0641 28.1713 70.7045 28.7941C70.3449 29.4168 70.1371 30.1156 70.0979 30.8336V126.938C70.0979 128.257 71.0251 128.793 72.1675 128.133L112.68 104.742C113.283 104.349 113.785 103.82 114.144 103.197C114.504 102.574 114.711 101.875 114.75 101.157V5.05214C114.75 3.73295 113.827 3.19763 112.68 3.85722Z" fill="#455A64"/>
<path d="M72.1675 27.2489L112.68 3.85722C113.703 3.26455 114.549 3.63258 114.721 4.66021C114.625 4.01411 114.394 3.39558 114.042 2.84528C113.69 2.29498 113.226 1.82538 112.68 1.46739L110.998 0.511461C110.356 0.186062 109.647 0.0164795 108.928 0.0164795C108.209 0.0164795 107.5 0.186062 106.858 0.511461L66.3411 23.884C65.7309 24.2667 65.2277 24.7978 64.8785 25.4278L70.7049 28.7736C71.0539 28.1486 71.5575 27.6236 72.1675 27.2489Z" fill="#37474F"/>
<path d="M64.262 123.573C64.3012 124.291 64.509 124.99 64.8686 125.613C65.2281 126.236 65.7293 126.765 66.3316 127.158L68.0188 128.114C68.6027 128.406 69.2418 128.572 69.8942 128.6C70.5465 128.628 71.1974 128.518 71.8043 128.277C70.8483 128.649 70.0884 128.1 70.0884 126.919V30.8336C70.1123 30.1125 70.3214 29.4097 70.6954 28.7927L64.869 25.447C64.5002 26.0593 64.2914 26.7546 64.262 27.4688V123.573Z" fill="#263238"/>
<path d="M73.2812 40.0536L111.581 17.9477C112.269 17.5557 112.823 17.876 112.823 18.6646V89.7955C112.8 90.2266 112.676 90.6462 112.46 91.02C112.244 91.3938 111.943 91.7112 111.581 91.9464L73.2955 114.052C72.6072 114.449 72.0528 114.129 72.0528 113.335V42.2045C72.0745 41.7747 72.1971 41.3561 72.4104 40.9825C72.6238 40.6089 72.9221 40.2907 73.2812 40.0536Z" fill="white"/>
<path d="M92.4237 19.1951C92.2123 19.3339 92.0364 19.5204 91.9103 19.7396C91.7841 19.9587 91.7111 20.2045 91.6972 20.457C91.6972 20.9349 92.0222 21.1118 92.4237 20.8776C92.6359 20.7396 92.8124 20.5534 92.9387 20.334C93.065 20.1147 93.1375 19.8685 93.1502 19.6158C93.1502 19.1521 92.8252 18.9657 92.4237 19.1951Z" fill="#37474F"/>
<path d="M92.4237 106.4C91.5881 106.947 90.8931 107.682 90.3949 108.548C89.8966 109.413 89.6092 110.383 89.5559 111.38C89.5559 113.211 90.8416 113.957 92.4237 113.039C93.259 112.492 93.9538 111.756 94.452 110.891C94.9502 110.026 95.2378 109.056 95.2915 108.059C95.3011 106.228 94.0106 105.482 92.4237 106.4Z" fill="#37474F"/>
<path d="M85.5458 26.5941C85.1257 26.8729 84.7771 27.2466 84.528 27.685C84.2789 28.1233 84.1364 28.6141 84.1119 29.1177C84.1119 30.045 84.7619 30.4226 85.5458 29.9589C85.9703 29.6828 86.3236 29.3102 86.5769 28.8717C86.8302 28.4332 86.9764 27.941 87.0036 27.4353C87.0036 26.508 86.3535 26.1304 85.5458 26.5941Z" fill="#37474F"/>
<path d="M89.1162 26.2786C89.1162 26.9 89.5942 27.1342 90.1534 26.8044L99.7127 21.2743C100.009 21.0894 100.257 20.8372 100.437 20.5382C100.618 20.2392 100.725 19.9018 100.75 19.5536C100.75 18.9371 100.272 18.7028 99.7127 19.0326L90.1534 24.5627C89.8579 24.7472 89.61 24.9987 89.4298 25.2968C89.2496 25.5949 89.1422 25.9312 89.1162 26.2786Z" fill="#37474F"/>
<path d="M67.493 43.1317C67.8322 43.3526 68.1145 43.6504 68.3172 44.0008C68.5198 44.3513 68.637 44.7445 68.6592 45.1487C68.6592 45.8943 68.1383 46.1955 67.493 45.8226C67.155 45.6009 66.8737 45.3028 66.672 44.9525C66.4703 44.6021 66.3536 44.2093 66.3315 43.8056C66.3315 43.0648 66.8525 42.7637 67.493 43.1317Z" fill="#37474F"/>
<path d="M67.493 52.1079C67.8322 52.3288 68.1145 52.6266 68.3172 52.977C68.5198 53.3275 68.637 53.7207 68.6592 54.1249C68.6592 54.8658 68.1383 55.1669 67.493 54.7989C67.155 54.5771 66.8737 54.2791 66.672 53.9287C66.4703 53.5784 66.3536 53.1855 66.3315 52.7818C66.3315 52.0362 66.8525 51.7351 67.493 52.1079Z" fill="#37474F"/>
<path d="M67.1297 43.3134C67.4689 43.5343 67.7513 43.832 67.9539 44.1825C68.1565 44.5329 68.2737 44.9262 68.296 45.3304C68.296 46.0712 67.775 46.3723 67.1297 46.0043C66.7906 45.7834 66.5082 45.4856 66.3056 45.1352C66.103 44.7847 65.9858 44.3915 65.9635 43.9873C65.9683 43.2417 66.4893 42.9549 67.1297 43.3134Z" fill="#455A64"/>
<path d="M67.1297 52.2848C67.4696 52.5062 67.7523 52.8047 67.955 53.156C68.1576 53.5073 68.2745 53.9015 68.296 54.3066C68.296 55.0474 67.775 55.3485 67.1297 54.9757C66.7898 54.7556 66.5068 54.4581 66.3041 54.1075C66.1013 53.7568 65.9846 53.3631 65.9635 52.9587C65.9683 52.2178 66.4893 51.9167 67.1297 52.2848Z" fill="#455A64"/>
<path d="M120.576 20.9158C120.576 20.1224 120.021 19.8022 119.333 20.1989L114.75 22.842L81.0481 42.3048C80.6861 42.54 80.3849 42.8575 80.1689 43.2313C79.9529 43.605 79.8284 44.0246 79.8054 44.4557V115.567C79.8054 116.361 80.3599 116.681 81.0481 116.284L114.764 96.8169L119.333 94.1785C119.695 93.9433 119.996 93.6258 120.212 93.2521C120.428 92.8783 120.553 92.4587 120.576 92.0276V20.9158Z" fill="white"/>
<path d="M121.054 20.9158C121.084 20.6761 121.043 20.4329 120.935 20.2165C120.828 20.0002 120.659 19.8203 120.45 19.6994C120.241 19.5785 120.001 19.5219 119.759 19.5368C119.518 19.5517 119.287 19.6373 119.094 19.783L114.721 22.3115L80.8091 41.9081C80.3725 42.1837 80.0095 42.5613 79.7514 43.0085C79.4932 43.4556 79.3477 43.9589 79.3274 44.4748V115.567C79.3083 115.806 79.3541 116.045 79.4602 116.26C79.5662 116.475 79.7285 116.657 79.9297 116.786C80.1008 116.886 80.2957 116.937 80.4937 116.934C80.7739 116.926 81.0471 116.845 81.2871 116.7L115.223 97.1036L119.587 94.5847C120.021 94.3065 120.382 93.9282 120.64 93.4816C120.897 93.035 121.044 92.5332 121.068 92.0181L121.054 20.9158ZM114.73 96.2863L114.338 96.5157L80.8283 115.864C80.7719 115.907 80.7067 115.937 80.6372 115.952C80.5678 115.967 80.4959 115.966 80.4268 115.95C80.3646 115.912 80.3025 115.778 80.3025 115.558V44.4557C80.3272 44.1086 80.4304 43.7717 80.6043 43.4703C80.7782 43.169 81.0182 42.911 81.3062 42.7159L114.783 23.3582L119.563 20.5908C119.619 20.5475 119.684 20.5174 119.754 20.5025C119.823 20.4876 119.895 20.4884 119.964 20.5048C120.026 20.543 120.088 20.6768 120.088 20.8967V92.0276C120.064 92.3747 119.96 92.7116 119.787 93.0129C119.613 93.3143 119.373 93.5723 119.085 93.7674L114.721 96.2863H114.73Z" fill="#47D163"/>
<path d="M100.191 37.4391C104.492 34.9633 107.958 36.9612 107.958 41.9272C107.958 46.8933 104.478 52.9205 100.191 55.3772C95.9033 57.834 92.4237 55.8552 92.4237 50.8939C92.4237 45.9326 95.9033 39.9198 100.191 37.4391Z" fill="#47D163"/>
<path d="M100.191 41.3393C101.582 40.5364 102.71 41.1864 102.71 42.7732C102.662 43.6474 102.41 44.4982 101.972 45.2564C101.534 46.0146 100.924 46.6589 100.191 47.1371C98.7998 47.9401 97.6718 47.29 97.6718 45.7032C97.719 44.829 97.9717 43.9783 98.4094 43.2201C98.8471 42.4618 99.4573 41.8175 100.191 41.3393Z" fill="#47D163"/>
<path d="M105.099 49.9045C105.099 47.2661 103.25 46.1955 100.96 47.5146L99.5263 48.3415C97.2416 49.6607 95.3871 52.8727 95.3871 55.511V56.2232C96.7111 56.6581 98.3744 56.4239 100.167 55.3772C102.152 54.1525 103.831 52.4897 105.075 50.5163L105.099 49.9045Z" fill="#47D163"/>
<path opacity="0.7" d="M100.191 41.3393C101.582 40.5364 102.71 41.1864 102.71 42.7732C102.662 43.6474 102.41 44.4982 101.972 45.2564C101.534 46.0146 100.924 46.6589 100.191 47.1371C98.7998 47.9401 97.6718 47.29 97.6718 45.7032C97.719 44.829 97.9717 43.9783 98.4094 43.2201C98.8471 42.4618 99.4573 41.8175 100.191 41.3393Z" fill="white"/>
<path opacity="0.7" d="M105.099 49.9045C105.099 47.2661 103.25 46.1955 100.96 47.5146L99.5263 48.3415C97.2416 49.6607 95.3871 52.8727 95.3871 55.511V56.2232C96.7111 56.6581 98.3744 56.4239 100.167 55.3772C102.152 54.1525 103.831 52.4897 105.075 50.5163L105.099 49.9045Z" fill="white"/>
<path d="M85.1634 66.2987L95.1577 60.5297C95.6357 60.2668 95.9846 60.4771 95.9846 61.0076V61.3374C95.9694 61.6247 95.8867 61.9043 95.743 62.1535C95.5993 62.4027 95.3987 62.6144 95.1577 62.7713L85.1634 68.5404C84.7094 68.8033 84.3365 68.5882 84.3365 68.0624V67.7326C84.3521 67.4455 84.435 67.166 84.5787 66.9169C84.7223 66.6678 84.9227 66.456 85.1634 66.2987Z" fill="#47D163"/>
<path opacity="0.1" d="M85.1634 66.2987L95.1577 60.5297C95.6357 60.2668 95.9846 60.4771 95.9846 61.0076V61.3374C95.9694 61.6247 95.8867 61.9043 95.743 62.1535C95.5993 62.4027 95.3987 62.6144 95.1577 62.7713L85.1634 68.5404C84.7094 68.8033 84.3365 68.5882 84.3365 68.0624V67.7326C84.3521 67.4455 84.435 67.166 84.5787 66.9169C84.7223 66.6678 84.9227 66.456 85.1634 66.2987Z" fill="black"/>
<path d="M84.7524 73.2627L114.989 55.8074C115.213 55.6735 115.4 55.7787 115.4 56.0464V59.5737C115.391 59.7169 115.35 59.8561 115.278 59.9805C115.207 60.1049 115.108 60.2111 114.989 60.2907L84.7524 77.746C84.523 77.8798 84.3365 77.7699 84.3365 77.507V73.9796C84.3448 73.8359 84.3867 73.6961 84.4589 73.5715C84.5312 73.447 84.6317 73.3412 84.7524 73.2627Z" fill="#47D163"/>
<path opacity="0.2" d="M84.7524 73.2627L114.989 55.8074C115.213 55.6735 115.4 55.7787 115.4 56.0464V59.5737C115.391 59.7169 115.35 59.8561 115.278 59.9805C115.207 60.1049 115.108 60.2111 114.989 60.2907L84.7524 77.746C84.523 77.8798 84.3365 77.7699 84.3365 77.507V73.9796C84.3448 73.8359 84.3867 73.6961 84.4589 73.5715C84.5312 73.447 84.6317 73.3412 84.7524 73.2627Z" fill="white"/>
<path d="M85.1634 81.9904L95.1577 76.2213C95.6357 75.9584 95.9846 76.1735 95.9846 76.6993V77.0291C95.9698 77.3164 95.8872 77.5961 95.7435 77.8454C95.5997 78.0946 95.399 78.3063 95.1577 78.463L85.1634 84.232C84.7094 84.4997 84.3365 84.2846 84.3365 83.754V83.4243C84.3528 83.1373 84.4361 82.8581 84.5797 82.6091C84.7233 82.3601 84.9232 82.1482 85.1634 81.9904Z" fill="#47D163"/>
<path opacity="0.1" d="M85.1634 81.9904L95.1577 76.2213C95.6357 75.9584 95.9846 76.1735 95.9846 76.6993V77.0291C95.9698 77.3164 95.8872 77.5961 95.7435 77.8454C95.5997 78.0946 95.399 78.3063 95.1577 78.463L85.1634 84.232C84.7094 84.4997 84.3365 84.2846 84.3365 83.754V83.4243C84.3528 83.1373 84.4361 82.8581 84.5797 82.6091C84.7233 82.3601 84.9232 82.1482 85.1634 81.9904Z" fill="black"/>
<path d="M84.7524 88.9543L114.989 71.499C115.213 71.3651 115.4 71.4751 115.4 71.738V75.2654C115.391 75.4085 115.35 75.5478 115.278 75.6722C115.207 75.7966 115.108 75.9027 114.989 75.9823L84.7524 93.4376C84.523 93.5715 84.3365 93.4663 84.3365 93.1986V89.6712C84.3448 89.5275 84.3867 89.3877 84.4589 89.2632C84.5312 89.1386 84.6317 89.0328 84.7524 88.9543Z" fill="#47D163"/>
<path opacity="0.2" d="M84.7524 88.9543L114.989 71.499C115.213 71.3651 115.4 71.4751 115.4 71.738V75.2654C115.391 75.4085 115.35 75.5478 115.278 75.6722C115.207 75.7966 115.108 75.9027 114.989 75.9823L84.7524 93.4376C84.523 93.5715 84.3365 93.4663 84.3365 93.1986V89.6712C84.3448 89.5275 84.3867 89.3877 84.4589 89.2632C84.5312 89.1386 84.6317 89.0328 84.7524 88.9543Z" fill="white"/>
<path d="M96.8114 90.957L108.761 84.0695C109.239 83.8018 109.592 84.0169 109.592 84.5475V88.2374C109.577 88.525 109.493 88.8049 109.349 89.0541C109.204 89.3034 109.003 89.5148 108.761 89.6713L96.8114 96.5635C96.3335 96.8264 95.9846 96.6113 95.9846 96.0856V92.3909C96.0012 92.104 96.0846 91.825 96.2282 91.576C96.3717 91.3271 96.5715 91.1151 96.8114 90.957Z" fill="#47D163"/>
<path opacity="0.1" d="M96.8114 90.957L108.761 84.0695C109.239 83.8018 109.592 84.0169 109.592 84.5475V88.2374C109.577 88.525 109.493 88.8049 109.349 89.0541C109.204 89.3034 109.003 89.5148 108.761 89.6713L96.8114 96.5635C96.3335 96.8264 95.9846 96.6113 95.9846 96.0856V92.3909C96.0012 92.104 96.0846 91.825 96.2282 91.576C96.3717 91.3271 96.5715 91.1151 96.8114 90.957Z" fill="black"/>
<path d="M125.107 75.3848C125.107 75.3848 119.238 67.2881 118.893 66.3035C118.621 65.577 118.893 64.4968 118.98 63.9949C119.066 63.493 119.142 62.3746 119.228 62.083C119.371 61.5381 118.669 61.6481 118.272 62.1452C117.875 62.6422 117.742 63.6364 117.536 63.7989C117.331 63.9614 115.768 61.6815 114.95 60.63C114.133 59.5785 113.622 58.938 113.12 59.3299C112.761 59.6119 113.029 60.2237 113.622 61.1223C113.968 61.6062 114.287 62.1088 114.577 62.6279C114.668 62.8239 114.181 62.8382 113.918 63.2445C113.712 63.5599 113.918 64.0714 113.631 64.3151C113.455 64.4494 113.334 64.644 113.291 64.8617C113.249 65.0794 113.288 65.3051 113.402 65.4957C113.934 66.3312 114.62 67.0579 115.423 67.637C116.303 68.244 116.657 68.4591 117.178 69.286C117.699 70.1129 122.373 78.5585 122.689 79.0652C123.004 79.5718 123.611 80.6042 124.533 80.6329C125.456 80.6616 133.008 74.1612 133.395 73.8362C134.638 72.799 135.034 72.6509 135.245 73.5829C135.317 73.9142 135.372 74.2493 135.407 74.5866C135.555 75.772 136.363 80.0068 136.363 80.0068C136.363 80.0068 140.187 81.8565 143.327 80.9627C146.467 80.0689 147.528 78.7354 147.528 78.7354L145.956 76.1735C146.381 75.1172 148.346 70.8346 148.981 67.8377L139.135 66.2461C138.935 66.2031 138.61 66.1218 138.179 66.0119C137.639 65.8685 136.268 65.3953 135.23 66.3035C131.846 69.2525 125.117 75.3848 125.117 75.3848" fill="#FFA8A7"/>
<path d="M144.627 125.065L142.863 127.517C143.665 127.891 144.541 128.079 145.425 128.066C147.007 128.124 147.442 127.588 147.5 127.483C147.767 126.91 147.352 125.877 147.237 124.988L144.627 125.065Z" fill="#37474F"/>
<path d="M142.964 126.341C142.964 126.341 140.823 126.202 139.346 126.021C137.869 125.839 136.698 126.556 137.042 127.163C137.386 127.77 138.203 128.277 139.475 128.702C140.56 129.07 141.865 129.333 142.993 129.658C144.121 129.983 144.904 130.408 145.559 130.179C146.29 129.926 146.606 129.634 146.544 129.099C146.384 128.337 146.186 127.584 145.951 126.843L142.964 126.341Z" fill="#37474F"/>
<path d="M147.5 122.603C147.5 122.603 147.232 124.83 147.213 125.308C147.194 125.786 145.038 125.939 144.627 125.065L144.56 122.34L147.5 122.603Z" fill="#F28F8F"/>
<path d="M145.33 123.97L146.099 127.354C146.099 127.354 146.171 127.765 144.412 128.028C142.653 128.291 139.891 127.106 139.417 126.867C138.944 126.628 138.892 126.145 140.622 126.24C142.352 126.336 142.964 126.341 142.964 126.341L142.4 124.845L145.33 123.97Z" fill="#FFA8A7"/>
<path d="M148.953 67.8091L150.172 67.4697C150.172 67.4697 152.719 75.533 153.001 76.3121C153.283 77.0912 153.603 77.9133 153.054 78.874C152.399 80.0163 148.953 84.6096 148.953 84.6096L146.764 82.4683L149.249 77.918L147.05 73.473L148.953 67.8091Z" fill="#F28F8F"/>
<path d="M136.435 57.3368C136.149 56.8004 136.004 56.2003 136.013 55.5926C136.022 54.985 136.186 54.3895 136.487 53.862C137.701 51.6108 140.407 50.5163 143.628 50.9321C145.119 51.1281 146.878 52.366 147.839 54.2157C148.9 56.2662 149.001 60.3958 149.273 61.9588L136.435 57.3368Z" fill="#37474F"/>
<path d="M136.349 58.2211C136.349 58.2211 135.584 59.6789 135.718 59.8127C135.916 59.9285 136.133 60.0093 136.358 60.0517L136.349 58.2211Z" fill="#FFA8A7"/>
<path d="M138.672 53.6135C137.84 54.1536 136.406 55.1477 136.344 58.4218C136.277 61.7676 136.755 62.8717 137.252 63.2588C137.587 63.5217 139.551 63.3879 140.392 63.1919C141.234 62.9959 143.657 61.7962 144.532 59.9752C145.559 57.8339 145.349 54.7176 143.824 53.7616C143.048 53.3027 142.168 53.0484 141.267 53.0225C140.366 52.9966 139.473 53.1999 138.672 53.6135Z" fill="#FFA8A7"/>
<path d="M147.5 78.7162C148.972 81.0105 150.368 83.0179 150.673 85.6085C151.304 91.0525 149.24 97.2757 148.795 101.305C149.631 102.451 150.113 103.817 150.181 105.234C150.181 106.902 147.5 122.603 147.5 122.603C147.5 122.603 145.55 123.196 144.56 122.34L142.72 93.4567L143.676 89.9389L147.5 78.7162Z" fill="#47D163"/>
<path opacity="0.2" d="M147.5 78.7162C148.972 81.0105 150.368 83.0179 150.673 85.6085C151.304 91.0525 149.24 97.2757 148.795 101.305C149.631 102.451 150.113 103.817 150.181 105.234C150.181 106.902 147.5 122.603 147.5 122.603C147.5 122.603 145.55 123.196 144.56 122.34L142.72 93.4567L143.676 89.9389L147.5 78.7162Z" fill="black"/>
<path d="M142.72 93.4567L143.676 89.9389C145.506 89.4571 147.272 88.7557 148.934 87.8502C148.934 87.8502 147.939 89.6616 145.081 90.6558L143.604 95.1726L143.48 105.521L142.72 93.4567Z" fill="#47D163"/>
<path opacity="0.3" d="M142.72 93.4567L143.676 89.9389C145.506 89.4571 147.272 88.7557 148.934 87.8502C148.934 87.8502 147.939 89.6616 145.081 90.6558L143.604 95.1726L143.48 105.521L142.72 93.4567Z" fill="black"/>
<path d="M147.5 78.7162C148.288 80.0068 150.172 82.2054 149.77 84.3228C149.292 86.8847 147.906 88.6866 143.69 89.9389L139.733 104.278C139.733 104.278 141.793 106.19 142.424 108.039C143.055 109.889 145.33 123.98 145.33 123.98C145.33 123.98 144.622 125.132 142.4 124.854C142.4 124.854 134.652 107.17 134.107 106.018C133.446 104.851 133.214 103.49 133.452 102.17C133.696 100.316 136.32 80.0163 136.32 80.0163L147.5 78.7162Z" fill="#47D163"/>
<path opacity="0.2" d="M147.5 78.7162C148.288 80.0068 150.172 82.2054 149.77 84.3228C149.292 86.8847 147.906 88.6866 143.69 89.9389L139.733 104.278C139.733 104.278 141.793 106.19 142.424 108.039C143.055 109.889 145.33 123.98 145.33 123.98C145.33 123.98 144.622 125.132 142.4 124.854C142.4 124.854 134.652 107.17 134.107 106.018C133.446 104.851 133.214 103.49 133.452 102.17C133.696 100.316 136.32 80.0163 136.32 80.0163L147.5 78.7162Z" fill="black"/>
<path d="M148.953 67.809L139.107 66.2174C138.906 66.1744 138.581 66.0931 138.151 65.9832C138.151 65.9832 137.73 72.1585 135.202 73.5733C135.264 73.8697 135.316 74.1995 135.364 74.5771C135.512 75.7624 136.32 79.9972 136.32 79.9972C136.32 79.9972 140.144 81.8469 143.284 80.9531C146.424 80.0593 147.485 78.7258 147.485 78.7258L145.913 76.1639C146.353 75.098 148.331 70.8155 148.953 67.809Z" fill="#47D163"/>
<path opacity="0.7" d="M148.953 67.809L139.107 66.2174C138.906 66.1744 138.581 66.0931 138.151 65.9832C138.151 65.9832 137.73 72.1585 135.202 73.5733C135.264 73.8697 135.316 74.1995 135.364 74.5771C135.512 75.7624 136.32 79.9972 136.32 79.9972C136.32 79.9972 140.144 81.8469 143.284 80.9531C146.424 80.0593 147.485 78.7258 147.485 78.7258L145.913 76.1639C146.353 75.098 148.331 70.8155 148.953 67.809Z" fill="white"/>
<path d="M146.357 75.1458C145.05 75.931 143.68 76.6072 142.261 77.1676C143.549 77.1419 144.809 76.7935 145.927 76.1544L146.357 75.1458Z" fill="#47D163"/>
<path d="M138.428 53.7759C138.428 53.7759 137.95 56.8827 139.078 58.7086C139.078 58.7086 139.499 57.4706 140.545 57.7048C141.592 57.939 141.649 59.3204 140.913 60.0947C140.726 60.3119 140.482 60.4719 140.208 60.5564C139.934 60.641 139.642 60.6466 139.365 60.5726C139.365 60.5726 139.197 62.8191 139.107 64.7023C139.016 66.5854 138.519 70.6912 140.636 72.3497C142.754 74.0083 148.069 74.5914 150.559 71.1118C151.945 69.176 150.105 65.7538 149.249 61.9157C148.46 58.3883 148.016 53.1594 144.273 52.3181C140.531 51.4769 138.428 53.7759 138.428 53.7759Z" fill="#37474F"/>
<path d="M152.16 11.3278L151.371 11.8058C151.437 11.5252 151.474 11.2384 151.481 10.9502C151.481 9.34903 150.358 8.70378 148.972 9.51632C148.55 9.77076 148.174 10.0938 147.858 10.4723C147.858 8.3214 146.348 7.44672 144.484 8.52215C143.502 9.16275 142.684 10.0259 142.098 11.0415C141.511 12.0572 141.173 13.1967 141.109 14.3677C141.109 14.4776 141.109 14.5828 141.109 14.6879C140.629 14.6275 140.143 14.7393 139.738 15.0034C139.007 15.4793 138.399 16.1207 137.963 16.8756C137.527 17.6305 137.276 18.4776 137.228 19.3481C137.228 19.5504 137.249 19.7523 137.29 19.9503L136.87 20.1941C135.727 20.8537 134.8 22.1394 134.8 23.0619C134.8 23.9844 135.727 24.2042 136.87 23.5398L152.165 14.7214C153.307 14.0618 154.234 12.776 154.234 11.8536C154.234 10.9311 153.302 10.6634 152.16 11.3278Z" fill="#EBEBEB"/>
</svg>
