<svg width="236" height="221" viewBox="0 0 236 221" fill="none" xmlns="http://www.w3.org/2000/svg">
<path d="M236 61.9039H113.304C113.304 61.9039 116.065 52.6262 124.66 54.9679C124.66 54.9679 126.425 49.3341 131.2 46.4095C135.976 43.485 142.098 46.4095 142.098 46.4095C142.098 46.4095 143.399 42.0148 146.788 40.4502C150.178 38.8855 153.918 40.4502 153.918 40.4502C153.918 40.4502 157.714 28.1009 169.608 28.1009C182.237 28.1009 184.375 39.0273 184.375 39.0273C184.375 39.0273 189.309 30.7262 199.086 32.8789C207.262 34.6798 208.898 44.5981 208.898 44.5981C209.683 44.2629 210.537 44.0894 211.401 44.0894C212.266 44.0894 213.12 44.2629 213.905 44.5981C216.621 45.7375 216.83 49.1503 216.83 49.1503C216.83 49.1503 220.225 47.2444 223.524 49.1503C227.275 51.3293 226.392 56.6008 226.392 56.6008C226.392 56.6008 232.164 56.4643 236 61.9039Z" fill="#EBEBEB"/>
<path d="M73.3348 39.6311H0C0 39.6311 1.65217 34.8636 6.78974 36.066C7.53244 34.2399 8.90506 32.6929 10.6938 31.666C13.5512 30.1644 17.212 31.666 17.212 31.666C17.212 31.666 17.9872 29.4083 20.0128 28.605C21.39 28.1465 22.8961 28.1465 24.2733 28.605C24.2733 28.605 26.5366 22.2571 33.6545 22.2571C41.2024 22.2571 42.4811 27.8752 42.4811 27.8752C43.4526 26.6067 44.8049 25.6317 46.3695 25.0715C47.934 24.5113 49.6416 24.3907 51.2795 24.7248C56.1625 25.6489 57.1413 30.7472 57.1413 30.7472C58.1033 30.3969 59.1725 30.3969 60.1345 30.7472C61.7583 31.3353 61.8828 33.0889 61.8828 33.0889C62.5069 32.8106 63.1905 32.666 63.883 32.666C64.5754 32.666 65.259 32.8106 65.8831 33.0889C68.1463 34.2073 67.5805 36.9166 67.5805 36.9166C68.6972 36.9416 69.7937 37.1985 70.7895 37.6682C71.7852 38.1379 72.655 38.8086 73.3348 39.6311Z" fill="#EBEBEB"/>
<path d="M0 166.846L29.5014 166.72L59.0028 166.673L118 166.584L176.997 166.673L206.499 166.72L236 166.846L206.499 166.978L176.997 167.02L118 167.109L59.0028 167.02L29.5014 166.978L0 166.846Z" fill="#263238"/>
<path d="M118 220.885C178.007 220.885 226.653 216.285 226.653 210.61C226.653 204.935 178.007 200.334 118 200.334C57.9927 200.334 9.34717 204.935 9.34717 210.61C9.34717 216.285 57.9927 220.885 118 220.885Z" fill="#EBEBEB"/>
<path d="M56.5082 211.061C56.5082 212.552 48.7 213.765 39.0755 213.765C29.4511 213.765 21.6372 212.552 21.6372 211.061C21.6372 209.57 29.4454 208.352 39.0755 208.352C48.7056 208.352 56.5082 209.565 56.5082 211.061Z" fill="#C7C7C7"/>
<path d="M31.7991 212.2C30.5064 212.148 29.218 212.027 27.9402 211.838C27.2896 211.766 26.6545 211.603 26.0561 211.355C25.9797 211.313 25.9125 211.258 25.8581 211.192C25.8311 211.151 25.8137 211.104 25.8071 211.056C25.8121 211.009 25.8296 210.964 25.8581 210.925C25.9715 210.802 26.1179 210.71 26.2824 210.657C26.5865 210.542 26.9007 210.453 27.2217 210.389C28.4928 210.162 29.7777 210.008 31.0692 209.927C32.3592 209.848 33.6549 209.806 34.945 209.759L31.0805 210.016C29.7928 210.114 28.5133 210.29 27.25 210.541C26.9368 210.597 26.63 210.68 26.3333 210.788C26.1904 210.83 26.0617 210.906 25.9599 211.009C25.8694 211.103 25.9938 211.213 26.1183 211.282C26.7 211.529 27.3177 211.695 27.9516 211.775C29.2246 211.959 30.509 212.069 31.7991 212.2Z" fill="white"/>
<path d="M39.0753 212.426C38.1531 212.463 37.2308 212.426 36.3085 212.426C35.3863 212.426 34.4696 212.374 33.5474 212.3C34.4753 212.263 35.3919 212.3 36.3142 212.3C37.2365 212.3 38.1531 212.353 39.0753 212.426Z" fill="white"/>
<path d="M49.1013 211.948C48.4902 212.053 47.8735 212.111 47.2567 212.169C46.64 212.227 46.0233 212.264 45.4009 212.264C46.0176 212.153 46.6287 212.101 47.2454 212.043C47.8622 211.985 48.4789 211.948 49.1013 211.948Z" fill="white"/>
<path d="M39.0752 209.691C40.2068 209.691 41.3271 209.703 42.4361 209.727C43.5677 209.727 44.6994 209.727 45.831 209.843C46.9626 209.958 48.0659 210.016 49.1806 210.132C49.7464 210.205 50.3122 210.289 50.8441 210.399C51.1177 210.46 51.3877 210.534 51.6532 210.62C51.7872 210.659 51.9162 210.712 52.0379 210.778C52.1568 210.841 52.2926 210.925 52.3039 211.061C52.3039 210.925 52.1454 210.851 52.0323 210.793C51.9067 210.734 51.7761 210.685 51.6419 210.646C51.3759 210.573 51.1043 210.515 50.8271 210.463C50.2613 210.357 49.7238 210.284 49.1693 210.221C48.0377 210.121 46.906 210.058 45.8197 209.974C44.7333 209.89 43.5847 209.853 42.4644 209.811C41.3441 209.769 40.1955 209.743 39.0752 209.691Z" fill="white"/>
<path d="M33.8363 211.728C32.9129 211.708 31.9913 211.643 31.0751 211.534C30.6104 211.494 30.1525 211.403 29.7115 211.261C29.6487 211.238 29.5925 211.202 29.5475 211.156C29.5317 211.142 29.519 211.126 29.5104 211.108C29.5018 211.09 29.4973 211.07 29.4973 211.051C29.4973 211.031 29.5018 211.011 29.5104 210.993C29.519 210.975 29.5317 210.959 29.5475 210.946C29.6441 210.873 29.7558 210.819 29.8756 210.788C30.0995 210.722 30.3284 210.671 30.5603 210.636C32.3889 210.409 34.232 210.296 36.0769 210.3C35.1603 210.368 34.238 210.415 33.3214 210.468C32.4048 210.52 31.4825 210.615 30.5829 210.762C30.3572 210.796 30.1342 210.843 29.9152 210.904C29.8134 210.927 29.7174 210.968 29.6323 211.024C29.5927 211.056 29.6323 211.061 29.6323 211.087C29.6668 211.118 29.7071 211.143 29.7511 211.161C30.1785 211.306 30.623 211.403 31.0751 211.45C31.9974 211.571 32.914 211.649 33.8363 211.728Z" fill="white"/>
<path d="M39.0753 211.859C38.4077 211.901 37.7457 211.891 37.0837 211.891C36.4217 211.891 35.754 211.854 35.0977 211.786C35.7597 211.744 36.4217 211.754 37.0837 211.786C37.7457 211.817 38.4077 211.791 39.0753 211.859Z" fill="white"/>
<path d="M46.2951 211.581C45.8551 211.654 45.4113 211.707 44.9654 211.738C44.5207 211.762 44.0749 211.762 43.6301 211.738C44.0698 211.664 44.5138 211.613 44.9598 211.586C45.4043 211.558 45.8503 211.556 46.2951 211.581Z" fill="white"/>
<path d="M39.0752 210.263C39.873 210.263 40.6764 210.263 41.4799 210.263C42.2833 210.263 43.0925 210.263 43.8902 210.321L46.2949 210.499C46.6967 210.541 47.0927 210.589 47.4888 210.657C47.6868 210.694 47.8849 210.736 48.0546 210.788C48.1533 210.813 48.2498 210.844 48.3432 210.883C48.4281 210.919 48.5412 210.961 48.5582 211.061C48.5582 210.967 48.4224 210.93 48.3319 210.898C48.2403 210.864 48.1456 210.838 48.049 210.82C47.8509 210.778 47.6529 210.746 47.4832 210.72C47.0871 210.662 46.691 210.62 46.2893 210.583L43.8902 210.452C43.0925 210.379 42.289 210.379 41.4855 210.352C40.6821 210.326 39.873 210.3 39.0752 210.263Z" fill="white"/>
<path d="M194.6 183.842C204.231 183.842 212.038 182.632 212.038 181.138C212.038 179.645 204.231 178.434 194.6 178.434C184.969 178.434 177.162 179.645 177.162 181.138C177.162 182.632 184.969 183.842 194.6 183.842Z" fill="#C7C7C7"/>
<path d="M186.775 182.587C185.463 182.509 184.159 182.35 182.871 182.11C182.548 182.046 182.229 181.967 181.914 181.873C181.59 181.793 181.283 181.66 181.009 181.48C180.928 181.435 180.864 181.366 180.829 181.285C180.793 181.203 180.787 181.113 180.811 181.028C180.891 180.879 181.019 180.758 181.179 180.681C181.471 180.534 181.781 180.418 182.101 180.335C183.378 180.029 184.68 179.823 185.994 179.721C187.301 179.616 188.614 179.558 189.926 179.49L186.005 179.81C184.702 179.927 183.411 180.143 182.146 180.456C181.834 180.534 181.532 180.645 181.247 180.787C181.11 180.848 180.998 180.947 180.924 181.07C180.91 181.133 180.918 181.198 180.947 181.257C180.975 181.315 181.023 181.364 181.083 181.396C181.346 181.57 181.638 181.701 181.948 181.784C182.254 181.879 182.576 181.952 182.893 182.026C184.176 182.273 185.472 182.461 186.775 182.587Z" fill="white"/>
<path d="M194.051 182.876C193.134 182.902 192.212 182.876 191.29 182.876C190.367 182.876 189.445 182.813 188.529 182.734C189.456 182.703 190.373 182.734 191.295 182.734C192.218 182.734 193.134 182.797 194.051 182.876Z" fill="white"/>
<path d="M204.083 182.267C203.477 182.388 202.855 182.456 202.238 182.53C201.621 182.603 201.005 182.651 200.382 182.666C200.993 182.545 201.61 182.477 202.221 182.404C202.832 182.33 203.438 182.283 204.083 182.267Z" fill="white"/>
<path d="M194.051 179.406C195.182 179.406 196.314 179.423 197.446 179.458C198.577 179.49 199.709 179.458 200.841 179.616C201.972 179.773 203.104 179.836 204.235 179.988C204.794 180.076 205.348 180.192 205.893 180.335C206.167 180.407 206.434 180.501 206.691 180.613C206.929 180.729 207.257 180.86 207.257 181.138C207.212 180.865 206.9 180.745 206.657 180.64C206.397 180.541 206.131 180.458 205.859 180.393C205.293 180.261 204.756 180.156 204.201 180.072C203.07 179.936 201.938 179.857 200.807 179.747C199.679 179.628 198.546 179.561 197.412 179.547C196.303 179.526 195.182 179.479 194.051 179.406Z" fill="white"/>
<path d="M188.811 181.984C187.878 181.953 186.949 181.867 186.028 181.726C185.558 181.672 185.1 181.551 184.67 181.369C184.611 181.338 184.561 181.295 184.523 181.243C184.502 181.211 184.488 181.175 184.483 181.138C184.483 181.107 184.483 181.06 184.523 181.033C184.601 180.939 184.707 180.868 184.828 180.829C185.048 180.745 185.275 180.678 185.507 180.629C186.424 180.461 187.352 180.347 188.285 180.288C189.219 180.23 190.147 180.204 191.08 180.177C190.152 180.256 189.224 180.314 188.291 180.377C187.366 180.447 186.448 180.574 185.541 180.755C185.315 180.797 185.093 180.859 184.879 180.939C184.781 180.97 184.693 181.025 184.624 181.096C184.568 181.149 184.624 181.222 184.732 181.275C185.147 181.457 185.59 181.581 186.045 181.642C186.961 181.795 187.889 181.894 188.811 181.984Z" fill="white"/>
<path d="M194.051 182.141C193.389 182.183 192.727 182.173 192.065 182.141C191.403 182.11 190.735 182.099 190.073 182.031C190.741 181.989 191.403 182.005 192.065 182.031C192.727 182.057 193.389 182.083 194.051 182.141Z" fill="white"/>
<path d="M201.277 181.8C200.399 181.96 199.506 182.038 198.612 182.031C199.049 181.946 199.491 181.885 199.936 181.847C200.381 181.81 200.829 181.794 201.277 181.8Z" fill="white"/>
<path d="M194.051 180.125C194.858 180.125 195.667 180.125 196.478 180.125C197.287 180.125 198.096 180.125 198.905 180.204C199.715 180.283 200.518 180.34 201.321 180.424C201.718 180.482 202.119 180.545 202.515 180.629C202.713 180.676 202.906 180.729 203.081 180.792C203.257 180.855 203.494 180.928 203.545 181.123C203.483 180.934 203.245 180.886 203.07 180.823C202.884 180.77 202.695 180.726 202.504 180.692C202.114 180.613 201.712 180.561 201.31 180.514C200.507 180.44 199.703 180.398 198.9 180.335C198.096 180.272 197.287 180.241 196.478 180.209C195.669 180.178 194.86 180.172 194.051 180.125Z" fill="white"/>
<path d="M206.21 184.872C209.717 184.872 212.559 184.413 212.559 183.848C212.559 183.282 209.717 182.824 206.21 182.824C202.704 182.824 199.862 183.282 199.862 183.848C199.862 184.413 202.704 184.872 206.21 184.872Z" fill="#C7C7C7"/>
<path d="M208.411 183.422C208.812 183.432 209.211 183.47 209.605 183.538C209.807 183.567 209.999 183.635 210.171 183.737C210.202 183.757 210.226 183.785 210.239 183.818C210.253 183.851 210.254 183.887 210.244 183.921C210.218 183.977 210.172 184.023 210.114 184.052C210.024 184.103 209.927 184.141 209.826 184.168C209.046 184.34 208.245 184.414 207.444 184.388C208.232 184.324 209.015 184.208 209.786 184.042C209.95 184.005 210.216 183.895 210.086 183.826C209.924 183.735 209.746 183.671 209.56 183.637C209.198 183.548 208.807 183.485 208.411 183.422Z" fill="white"/>
<path d="M206.21 183.333C206.488 183.296 206.768 183.281 207.048 183.291C207.328 183.299 207.606 183.33 207.88 183.385C207.604 183.419 207.326 183.431 207.048 183.422C206.766 183.416 206.486 183.386 206.21 183.333Z" fill="white"/>
<path d="M203.183 183.522C203.364 183.455 203.555 183.413 203.749 183.396C203.937 183.372 204.127 183.372 204.315 183.396C204.133 183.461 203.943 183.504 203.749 183.522C203.561 183.543 203.371 183.543 203.183 183.522Z" fill="white"/>
<path d="M206.21 184.415C205.871 184.415 205.526 184.415 205.181 184.415C204.837 184.421 204.493 184.407 204.151 184.373C203.811 184.331 203.466 184.304 203.127 184.252C202.963 184.215 202.793 184.178 202.629 184.126C202.546 184.101 202.466 184.068 202.391 184.026C202.318 183.989 202.227 183.942 202.221 183.853C202.284 184.005 202.493 184.021 202.646 184.063C202.812 184.101 202.98 184.13 203.149 184.152L204.168 184.241C204.506 184.282 204.846 184.306 205.186 184.315C205.531 184.357 205.871 184.383 206.21 184.415Z" fill="white"/>
<path d="M207.795 183.611C208.08 183.607 208.365 183.621 208.649 183.653C208.796 183.671 208.939 183.71 209.073 183.769C209.102 183.769 209.186 183.853 209.135 183.926C209.109 183.965 209.069 183.995 209.022 184.01C208.953 184.04 208.881 184.063 208.807 184.079C208.248 184.175 207.678 184.208 207.11 184.178C207.676 184.089 208.241 184.073 208.779 183.953C208.898 183.953 209.09 183.842 209.005 183.869C208.885 183.814 208.758 183.775 208.626 183.753C208.355 183.716 208.077 183.659 207.795 183.611Z" fill="white"/>
<path d="M206.21 183.559C206.41 183.521 206.613 183.503 206.816 183.506C207.019 183.511 207.22 183.539 207.416 183.59C207.217 183.63 207.013 183.645 206.81 183.638C206.608 183.634 206.406 183.608 206.21 183.559Z" fill="white"/>
<path d="M204.032 183.669C204.155 183.616 204.287 183.582 204.422 183.569C204.559 183.546 204.699 183.546 204.835 183.569C204.711 183.626 204.577 183.661 204.439 183.674C204.304 183.693 204.166 183.691 204.032 183.669Z" fill="white"/>
<path d="M206.21 184.194C205.721 184.228 205.229 184.228 204.739 184.194C204.496 184.168 204.253 184.152 204.009 184.121C203.885 184.094 203.766 184.073 203.647 184.042C203.528 184.01 203.387 183.979 203.336 183.863C203.404 183.958 203.551 183.958 203.664 183.979L204.021 184.021L204.75 184.068C204.994 184.1 205.237 184.094 205.48 184.115C205.724 184.136 205.967 184.163 206.21 184.194Z" fill="white"/>
<path d="M206.21 213.314C219.251 213.314 229.822 211.55 229.822 209.376C229.822 207.201 219.251 205.438 206.21 205.438C193.17 205.438 182.599 207.201 182.599 209.376C182.599 211.55 193.17 213.314 206.21 213.314Z" fill="#C7C7C7"/>
<path d="M216.169 211.303C217.955 211.122 219.729 210.849 221.482 210.484C221.916 210.385 222.345 210.266 222.766 210.127C223.188 210.004 223.583 209.812 223.932 209.56C224.016 209.508 224.082 209.433 224.12 209.346C224.159 209.259 224.168 209.163 224.147 209.071C224.066 208.891 223.923 208.741 223.739 208.646C223.361 208.425 222.954 208.249 222.528 208.121C220.805 207.658 219.04 207.338 217.255 207.165C216.367 207.06 215.467 207.018 214.573 206.94L211.891 206.714C213.685 206.824 215.478 206.913 217.266 207.076C219.06 207.234 220.835 207.543 222.568 208C223.005 208.126 223.423 208.302 223.813 208.525C224.019 208.638 224.178 208.812 224.265 209.019C224.293 209.131 224.283 209.248 224.237 209.354C224.192 209.461 224.113 209.553 224.011 209.617C223.648 209.877 223.238 210.074 222.8 210.2C222.375 210.336 221.942 210.452 221.504 210.547C219.747 210.916 217.964 211.169 216.169 211.303Z" fill="white"/>
<path d="M206.267 211.723L213.775 211.492C212.531 211.628 211.28 211.686 210.024 211.733C208.768 211.78 207.529 211.78 206.267 211.723Z" fill="white"/>
<path d="M192.642 210.83L195.16 211.108C195.992 211.208 196.857 211.292 197.672 211.413C196.823 211.413 195.975 211.324 195.143 211.24C194.302 211.146 193.467 211.009 192.642 210.83Z" fill="white"/>
<path d="M206.267 206.614C203.177 206.672 200.088 206.761 197.015 207.045C195.476 207.171 193.943 207.333 192.421 207.57C191.657 207.69 190.902 207.852 190.158 208.053C189.788 208.15 189.426 208.275 189.077 208.426C188.903 208.5 188.739 208.596 188.591 208.709C188.51 208.758 188.443 208.823 188.393 208.9C188.343 208.976 188.312 209.061 188.302 209.15C188.31 209.06 188.339 208.972 188.387 208.894C188.435 208.815 188.5 208.746 188.579 208.693C188.725 208.577 188.887 208.478 189.06 208.399C189.406 208.237 189.766 208.1 190.135 207.99C190.878 207.776 191.634 207.6 192.398 207.465C193.921 207.197 195.454 207.018 196.993 206.877C200.077 206.642 203.172 206.554 206.267 206.614Z" fill="white"/>
<path d="M213.402 210.415C214.669 210.289 215.931 210.153 217.181 209.927C217.493 209.864 217.798 209.801 218.104 209.717C218.407 209.649 218.698 209.538 218.964 209.386C219.088 209.313 219.19 209.197 219.122 209.097C219.033 208.988 218.914 208.903 218.777 208.851C218.489 208.734 218.19 208.642 217.883 208.578C216.646 208.312 215.391 208.128 214.126 208.026L210.318 207.748C211.591 207.8 212.864 207.848 214.137 207.937C215.411 208.028 216.676 208.204 217.923 208.462C218.236 208.532 218.541 208.631 218.834 208.756C218.995 208.816 219.133 208.921 219.23 209.055C219.249 209.097 219.261 209.141 219.264 209.187C219.258 209.233 219.243 209.277 219.218 209.318C219.169 209.385 219.106 209.443 219.032 209.486C218.753 209.642 218.449 209.756 218.132 209.822C217.826 209.906 217.51 209.964 217.198 210.021C215.942 210.223 214.675 210.355 213.402 210.415Z" fill="white"/>
<path d="M206.267 210.662C207.167 210.583 208.066 210.557 208.966 210.526C209.866 210.494 210.771 210.494 211.671 210.526C210.777 210.599 209.871 210.625 208.972 210.657C208.072 210.688 207.178 210.694 206.267 210.662Z" fill="white"/>
<path d="M196.461 210.137C197.073 210.137 197.672 210.195 198.278 210.242C198.883 210.289 199.483 210.368 200.083 210.478C199.472 210.478 198.866 210.421 198.261 210.373C197.655 210.326 197.056 210.247 196.461 210.137Z" fill="white"/>
<path d="M206.267 207.674C205.164 207.727 204.066 207.774 202.963 207.806C201.859 207.837 200.762 207.848 199.67 207.979C198.578 208.11 197.474 208.136 196.377 208.252C195.811 208.32 195.29 208.404 194.753 208.52C194.485 208.575 194.221 208.643 193.961 208.725C193.833 208.769 193.708 208.822 193.587 208.882C193.526 208.91 193.473 208.95 193.43 208.999C193.387 209.048 193.356 209.105 193.338 209.166C193.351 209.102 193.38 209.043 193.422 208.992C193.464 208.94 193.519 208.899 193.581 208.872C193.697 208.802 193.821 208.744 193.949 208.698C194.207 208.601 194.472 208.521 194.741 208.457C195.273 208.336 195.816 208.241 196.365 208.163C197.457 208.037 198.561 207.953 199.658 207.848C200.756 207.743 201.859 207.743 202.963 207.716C204.066 207.69 205.175 207.68 206.267 207.674Z" fill="white"/>
<path d="M126.505 201.962C134.207 201.962 140.452 201.038 140.452 199.899C140.452 198.759 134.207 197.835 126.505 197.835C118.802 197.835 112.557 198.759 112.557 199.899C112.557 201.038 118.802 201.962 126.505 201.962Z" fill="#C7C7C7"/>
<path d="M120.614 200.444C119.573 200.416 118.535 200.337 117.503 200.208C116.98 200.16 116.466 200.049 115.975 199.877C115.908 199.848 115.849 199.807 115.799 199.757C115.77 199.722 115.754 199.68 115.754 199.636C115.76 199.595 115.78 199.556 115.811 199.526C115.916 199.437 116.042 199.372 116.179 199.337C116.429 199.26 116.684 199.199 116.942 199.153C117.969 199 119.004 198.897 120.043 198.843C121.084 198.791 122.125 198.764 123.161 198.743C122.125 198.817 121.09 198.875 120.054 198.932C119.02 198.999 117.991 199.117 116.971 199.284C116.718 199.323 116.468 199.38 116.224 199.452C116.109 199.482 116.001 199.532 115.907 199.599C115.822 199.657 115.907 199.725 116.026 199.783C116.507 199.951 117.009 200.066 117.519 200.124C118.566 200.266 119.579 200.355 120.614 200.444Z" fill="white"/>
<path d="M126.487 200.607C125.741 200.644 124.994 200.634 124.224 200.607C123.455 200.581 122.736 200.565 121.995 200.497C122.742 200.455 123.483 200.466 124.23 200.497C124.977 200.529 125.758 200.518 126.487 200.607Z" fill="white"/>
<path d="M134.624 200.271C134.131 200.353 133.635 200.41 133.136 200.445C132.635 200.485 132.133 200.499 131.631 200.487C132.129 200.397 132.627 200.361 133.125 200.313C133.623 200.266 134.12 200.256 134.624 200.271Z" fill="white"/>
<path d="M126.488 198.691C127.393 198.691 128.298 198.691 129.203 198.691C130.109 198.691 131.014 198.691 131.914 198.764L134.618 198.974C135.071 199.027 135.518 199.085 135.965 199.163C136.186 199.205 136.406 199.253 136.627 199.316C136.735 199.349 136.841 199.387 136.944 199.431C137.04 199.479 137.164 199.531 137.181 199.641C137.181 199.531 137.034 199.484 136.938 199.447C136.833 199.407 136.725 199.373 136.616 199.347C136.395 199.295 136.174 199.258 135.954 199.226C135.507 199.158 135.06 199.106 134.613 199.064L131.908 198.896C131.008 198.812 130.103 198.812 129.198 198.78C128.292 198.749 127.41 198.738 126.488 198.691Z" fill="white"/>
<path d="M122.261 200.114C121.52 200.114 120.778 200.077 120.037 199.998C119.655 199.968 119.276 199.904 118.906 199.809C118.855 199.79 118.807 199.763 118.764 199.73C118.764 199.73 118.708 199.662 118.73 199.625C118.734 199.608 118.741 199.592 118.752 199.578C118.763 199.563 118.777 199.551 118.792 199.541C118.879 199.494 118.972 199.459 119.07 199.436C119.256 199.391 119.445 199.356 119.635 199.331C121.113 199.172 122.601 199.102 124.088 199.121C123.347 199.174 122.606 199.211 121.865 199.247C121.124 199.284 120.382 199.352 119.652 199.457C119.471 199.457 119.29 199.51 119.115 199.552C119.032 199.569 118.952 199.598 118.877 199.636C118.843 199.662 118.877 199.636 118.877 199.636C118.908 199.656 118.94 199.674 118.974 199.688C119.324 199.788 119.684 199.854 120.049 199.888C120.784 199.993 121.52 200.051 122.261 200.114Z" fill="white"/>
<path d="M126.488 200.208C125.951 200.247 125.413 200.259 124.875 200.245C124.337 200.245 123.8 200.219 123.268 200.156C123.805 200.117 124.343 200.105 124.881 200.119C125.429 200.135 125.967 200.145 126.488 200.208Z" fill="white"/>
<path d="M132.349 199.993C131.997 200.059 131.639 200.101 131.28 200.119C130.918 200.143 130.555 200.143 130.194 200.119C130.548 200.052 130.907 200.008 131.269 199.988C131.629 199.966 131.99 199.968 132.349 199.993Z" fill="white"/>
<path d="M126.488 199.09C127.133 199.09 127.783 199.09 128.434 199.09C129.085 199.09 129.73 199.09 130.38 199.127C131.031 199.163 131.676 199.2 132.321 199.253C132.644 199.284 132.966 199.321 133.289 199.373C133.449 199.397 133.607 199.429 133.764 199.468C133.844 199.483 133.921 199.506 133.996 199.536C134.069 199.536 134.166 199.589 134.188 199.668C134.16 199.589 134.064 199.573 133.99 199.547C133.914 199.525 133.837 199.51 133.758 199.5C133.599 199.471 133.439 199.45 133.277 199.437C132.955 199.4 132.632 199.373 132.31 199.352L130.369 199.258C129.724 199.205 129.079 199.216 128.428 199.19C127.778 199.163 127.15 199.127 126.488 199.09Z" fill="white"/>
<path d="M63.4785 218.937C76.5187 218.937 87.0898 217.174 87.0898 214.999C87.0898 212.824 76.5187 211.061 63.4785 211.061C50.4383 211.061 39.8672 212.824 39.8672 214.999C39.8672 217.174 50.4383 218.937 63.4785 218.937Z" fill="#C7C7C7"/>
<path d="M74.0427 212.421C75.9782 212.566 77.8997 212.843 79.7913 213.251C80.2644 213.359 80.7309 213.49 81.1889 213.644C81.6585 213.783 82.096 214.002 82.4789 214.29C82.5837 214.364 82.6644 214.464 82.7123 214.578C82.7602 214.692 82.7734 214.816 82.7505 214.936C82.6622 215.157 82.4943 215.342 82.2752 215.461C81.8637 215.71 81.4185 215.908 80.9512 216.049C79.0877 216.564 77.1763 216.915 75.2422 217.099C73.3128 217.283 71.372 217.383 69.4426 217.514L72.3396 217.262C73.3015 217.173 74.269 217.131 75.2309 217.01C77.1493 216.818 79.0437 216.457 80.889 215.934C81.3451 215.801 81.7806 215.614 82.1847 215.377C82.3821 215.269 82.5323 215.1 82.6091 214.899C82.6287 214.8 82.6172 214.698 82.5761 214.605C82.535 214.512 82.4659 214.432 82.3771 214.374C82.0081 214.093 81.586 213.877 81.1323 213.739C80.6796 213.585 80.2188 213.451 79.7517 213.34C77.87 212.929 75.9636 212.622 74.0427 212.421Z" fill="white"/>
<path d="M63.4053 211.948C64.7519 211.896 66.1042 211.912 67.4508 211.948C68.7975 211.985 70.1441 212.064 71.4794 212.211L63.4053 211.948Z" fill="white"/>
<path d="M48.7451 212.951C49.631 212.753 50.5283 212.603 51.4327 212.5C52.3324 212.4 53.2433 212.321 54.1486 212.3C53.249 212.426 52.3493 212.516 51.4497 212.631L48.7451 212.951Z" fill="white"/>
<path d="M63.4049 217.666C60.0737 217.711 56.7423 217.595 53.424 217.32C51.7662 217.162 50.114 216.963 48.4732 216.663C47.6546 216.519 46.8459 216.33 46.0515 216.096C45.6617 215.972 45.2833 215.82 44.9199 215.64C44.7367 215.548 44.5658 215.437 44.4106 215.309C44.3287 215.248 44.2608 215.173 44.2112 215.087C44.1616 215.001 44.1313 214.907 44.1221 214.81C44.1329 214.906 44.1651 214.999 44.2167 215.083C44.2684 215.167 44.3382 215.241 44.4219 215.298C44.5796 215.422 44.7524 215.527 44.9368 215.613C45.3017 215.78 45.6801 215.921 46.0685 216.033C46.8643 216.251 47.6728 216.426 48.4901 216.558C50.1197 216.842 51.7775 217.026 53.4297 217.167C56.7453 217.503 60.078 217.608 63.4049 217.666Z" fill="white"/>
<path d="M71.0664 213.413C72.4389 213.487 73.8051 213.64 75.1572 213.87C75.491 213.939 75.8305 214.002 76.1587 214.096C76.4992 214.17 76.8242 214.296 77.1206 214.469C77.262 214.548 77.4374 214.742 77.3356 214.936C77.2354 215.081 77.0919 215.196 76.9225 215.267C76.6081 215.41 76.278 215.52 75.938 215.598C74.5975 215.884 73.2358 216.077 71.8642 216.175C70.4949 216.275 69.12 216.333 67.7507 216.396L71.8529 216.091C73.2176 215.975 74.5715 215.768 75.9041 215.472C76.2325 215.396 76.5526 215.292 76.8603 215.162C77.0068 215.105 77.1325 215.01 77.2224 214.889C77.2847 214.773 77.1885 214.642 77.0527 214.558C76.7707 214.382 76.459 214.251 76.1304 214.17C75.8022 214.075 75.4684 214.002 75.1346 213.933C73.7936 213.707 72.43 213.555 71.0664 213.413Z" fill="white"/>
<path d="M63.4053 213.119C64.3785 213.088 65.346 213.119 66.3135 213.119C67.2811 213.119 68.2543 213.182 69.2218 213.261C68.2486 213.287 67.2811 213.261 66.3135 213.261C65.346 213.261 64.3728 213.219 63.4053 213.119Z" fill="white"/>
<path d="M52.8472 213.723C53.4922 213.608 54.1372 213.539 54.7879 213.466C55.4386 213.392 56.0893 213.35 56.7399 213.345C56.1006 213.461 55.4499 213.529 54.8049 213.597C54.1598 213.665 53.4979 213.713 52.8472 213.723Z" fill="white"/>
<path d="M63.4051 216.474C62.2245 216.474 61.0381 216.459 59.8462 216.427C58.658 216.396 57.4698 216.427 56.2872 216.275C55.1047 216.123 53.9221 216.065 52.7452 215.923C52.1794 215.834 51.574 215.734 50.9969 215.592C50.7102 215.521 50.4286 215.434 50.1538 215.33C50.0156 215.277 49.883 215.212 49.7577 215.135C49.6924 215.102 49.636 215.056 49.5929 214.999C49.5498 214.943 49.521 214.878 49.5088 214.81C49.5238 214.877 49.5551 214.939 49.6002 214.993C49.6453 215.047 49.7031 215.09 49.7691 215.12C49.8935 215.193 50.0264 215.253 50.1651 215.298C50.4419 215.393 50.7255 215.471 51.0139 215.529C51.5797 215.661 52.1455 215.755 52.7622 215.834C53.9391 215.965 55.1216 216.039 56.2985 216.144C57.4754 216.249 58.6636 216.291 59.8518 216.338C61.04 216.385 62.2226 216.422 63.4051 216.474Z" fill="white"/>
<path d="M9.97541 193.015C9.51394 193.003 9.05419 192.958 8.60049 192.879C8.36283 192.846 8.13526 192.768 7.93283 192.648C7.8973 192.627 7.86981 192.597 7.8545 192.561C7.83919 192.525 7.8369 192.485 7.84796 192.448C7.87649 192.384 7.92868 192.332 7.99507 192.301C8.09899 192.246 8.20903 192.202 8.32324 192.17C9.22628 191.976 10.152 191.887 11.0787 191.907C10.1666 191.977 9.26094 192.107 8.36851 192.296C8.26294 192.323 8.16058 192.36 8.06297 192.406C7.97244 192.469 7.93283 192.501 8.01204 192.558C8.20078 192.663 8.40742 192.738 8.62312 192.779C9.07011 192.879 9.52276 192.947 9.97541 193.015Z" fill="white"/>
<path d="M12.5219 193.12C12.2008 193.153 11.8775 193.166 11.5544 193.157C11.2316 193.149 10.91 193.117 10.5925 193.062C10.9133 193.024 11.237 193.012 11.5601 193.026C11.8829 193.034 12.2045 193.065 12.5219 193.12Z" fill="white"/>
<path d="M16.0296 192.899C15.825 192.968 15.6122 193.014 15.3958 193.036C15.1778 193.06 14.9575 193.06 14.7395 193.036C14.9444 192.968 15.157 192.922 15.3732 192.899C15.5914 192.878 15.8114 192.878 16.0296 192.899Z" fill="white"/>
<path d="M12.5215 191.876C12.9176 191.876 13.3136 191.876 13.7153 191.876C14.1121 191.868 14.509 191.884 14.9036 191.923C15.2996 191.97 15.6957 192.002 16.0861 192.065C16.2773 192.1 16.4662 192.146 16.6519 192.201C16.7467 192.233 16.8393 192.269 16.9292 192.312C17.0084 192.354 17.1215 192.411 17.1272 192.511C17.1272 192.411 16.9971 192.375 16.9122 192.338C16.8213 192.308 16.7288 192.284 16.6349 192.264C16.4491 192.219 16.26 192.185 16.0691 192.165L14.8922 192.054C14.4997 192.01 14.105 191.983 13.7097 191.975C13.3249 191.944 12.9176 191.912 12.5215 191.876Z" fill="white"/>
<path d="M10.6885 192.8C10.3611 192.804 10.0338 192.785 9.70964 192.742C9.5387 192.725 9.37223 192.68 9.21739 192.611C9.19078 192.598 9.16757 192.58 9.14949 192.558C9.13856 192.541 9.13281 192.521 9.13281 192.501C9.13281 192.48 9.13856 192.46 9.14949 192.443C9.18153 192.402 9.22441 192.369 9.27397 192.348C9.35524 192.319 9.43838 192.294 9.52292 192.275C10.1682 192.164 10.8252 192.124 11.4806 192.154C10.8356 192.248 10.1793 192.264 9.55122 192.401C9.47595 192.416 9.40215 192.437 9.33055 192.464L9.26265 192.501C9.4026 192.563 9.5511 192.607 9.70398 192.632C10.0435 192.705 10.366 192.753 10.6885 192.8Z" fill="white"/>
<path d="M12.5215 192.863C12.2917 192.899 12.0587 192.915 11.8256 192.91C11.591 192.905 11.3577 192.877 11.1296 192.826C11.361 192.787 11.5962 192.771 11.8312 192.779C12.0641 192.781 12.2959 192.809 12.5215 192.863Z" fill="white"/>
<path d="M15.051 192.732C14.7571 192.85 14.4304 192.879 14.1174 192.816C14.2633 192.758 14.418 192.723 14.5757 192.711C14.7344 192.697 14.8944 192.704 15.051 192.732Z" fill="white"/>
<path d="M12.5215 192.117C13.0867 192.083 13.6537 192.083 14.2189 192.117C14.5018 192.149 14.7847 192.164 15.0676 192.201C15.2091 192.227 15.3449 192.254 15.4863 192.29C15.6278 192.327 15.7862 192.359 15.8428 192.49C15.7692 192.374 15.5995 192.38 15.4694 192.353C15.3392 192.327 15.1921 192.317 15.0507 192.306L14.2076 192.248C13.9304 192.212 13.6418 192.217 13.3645 192.196C13.0873 192.175 12.8044 192.164 12.5215 192.117Z" fill="white"/>
<path d="M63.054 118.284C74.0703 131.022 93.8058 149.73 100.358 149.042C106.203 148.422 127.285 144.227 137.735 137.596C140.44 135.879 129.356 113.28 126.646 115.339C120.953 119.66 106.712 125.115 102.802 125.96C99.3225 126.696 78.5742 114.1 67.2184 108.859C53.4352 102.475 58.6633 113.207 63.054 118.284Z" fill="#D3766A"/>
<path d="M121.864 119.061L129.005 130.24L129.033 130.282L129.192 130.528L134.601 139.013C135.445 138.822 136.277 138.583 137.09 138.299C143.428 136.092 149.477 133.228 155.123 129.762C158.546 127.572 167.667 120.311 166.049 117.754C164.43 115.197 161.573 117.082 161.573 117.082C161.573 117.082 164.934 113.485 163.061 111.038C161.516 109.033 158.325 110.744 157.211 111.427L157.035 111.537L156.843 111.668C156.843 111.668 160.006 107.736 157.974 105.426C156.135 103.357 152.882 106.166 152.226 106.78L152.141 106.859C152.141 106.859 152.175 106.817 152.192 106.785C152.684 106.192 154.891 103.299 152.599 102.181C149.521 100.684 144.644 107.678 140.717 109.915C140.519 110.025 139.501 110.524 138.029 111.254C136.332 112.078 134.069 113.17 131.755 114.294L121.864 119.061Z" fill="#D3766A"/>
<path d="M139.993 116.404C141.888 115.823 143.729 115.099 145.498 114.241C148.39 112.75 150.483 110.755 152.237 107.064C152.316 106.906 152.271 106.806 152.186 106.785C152.181 106.783 152.175 106.781 152.169 106.781C152.163 106.781 152.157 106.783 152.152 106.785C152.09 106.785 152.028 106.827 151.96 106.917C149.765 110.067 147.954 111.899 145.532 113.427C143.755 114.51 141.879 115.447 139.925 116.226C139.812 116.278 139.868 116.452 139.993 116.404Z" fill="#263238"/>
<path d="M144.18 121.576C150.313 119.03 153.799 117.297 157.29 111.758C157.403 111.59 157.335 111.422 157.216 111.422C157.183 111.425 157.151 111.435 157.122 111.451C157.094 111.467 157.07 111.49 157.052 111.516C152.837 116.52 150.104 118.342 144.14 121.403C144.027 121.471 144.095 121.608 144.18 121.576Z" fill="#263238"/>
<path d="M161.211 117.476C156.724 122.07 153.827 124.196 147.631 126.475C147.606 126.488 147.586 126.509 147.575 126.535C147.565 126.56 147.564 126.588 147.574 126.614C147.583 126.639 147.602 126.661 147.627 126.675C147.652 126.689 147.682 126.694 147.711 126.69C154.28 124.937 157.895 122.306 161.358 117.617C161.567 117.297 161.488 117.187 161.211 117.476Z" fill="#263238"/>
<path d="M131.127 128.628C131.39 128.417 131.634 128.187 131.857 127.94L132.049 127.725C135.444 123.592 132.519 116.494 132.519 116.494C134.246 115.865 135.91 115.097 137.492 114.199C139.756 112.902 141.872 111.306 142.585 109.663C142.782 109.238 142.866 108.775 142.828 108.313C142.809 108.065 142.749 107.821 142.652 107.589C142.646 107.566 142.634 107.544 142.619 107.526C141.99 106.266 138.511 106.544 134.725 107.405C130.567 108.35 126.04 110.03 124.513 111.08C122.555 112.498 117.157 120.594 117.157 120.594C117.157 120.594 126.323 132.513 131.127 128.628Z" fill="#D3766A"/>
<path d="M142.714 108.665C141.526 112.824 136.145 114.415 132.383 116.095C132.326 116.118 132.277 116.153 132.238 116.198C132.199 116.242 132.173 116.295 132.16 116.351C132.148 116.407 132.151 116.465 132.168 116.52C132.185 116.575 132.216 116.625 132.258 116.667C133.441 120.216 133.995 125.551 131.393 128.643C131.375 128.661 131.365 128.684 131.365 128.708C131.366 128.732 131.377 128.755 131.395 128.772C131.414 128.789 131.439 128.798 131.465 128.797C131.491 128.797 131.516 128.787 131.534 128.77C134.81 125.798 134.725 120.521 133.164 116.693C137.051 115.029 142.369 113.212 142.782 108.66C142.76 108.634 142.72 108.634 142.714 108.665Z" fill="#263238"/>
<path d="M131.331 142.017L116.167 119.933C116.167 119.933 104.636 125.367 102.44 125.535C100.245 125.703 74.2006 111.159 65.6625 107.788C57.1244 104.417 55.9985 108.513 61.7019 117.119C67.4052 125.724 91.8257 148.343 98.3947 149.483C104.964 150.622 131.331 142.017 131.331 142.017Z" fill="#47D163"/>
<path opacity="0.2" d="M75.2644 120.495C75.1253 120.615 74.9529 120.697 74.7665 120.731C74.5983 120.764 74.4239 120.757 74.2596 120.71C74.0952 120.663 73.9465 120.578 73.8273 120.463C73.6415 120.297 73.4062 120.187 73.1519 120.146C72.8975 120.106 72.636 120.138 72.4014 120.237C72.0181 120.464 71.709 120.783 71.5075 121.161C71.6942 121.062 71.8639 120.936 72.045 120.825C72.1821 120.702 72.352 120.615 72.5372 120.573C72.7015 120.533 72.8743 120.532 73.0389 120.571C73.2035 120.611 73.3543 120.689 73.4765 120.799C73.6559 120.969 73.8855 121.085 74.1363 121.134C74.3871 121.182 74.6477 121.161 74.8853 121.072C75.3776 120.873 75.5587 120.479 75.802 120.159C75.6096 120.258 75.4455 120.384 75.2644 120.495ZM127.511 143.214L128.157 143.019C127.926 143.028 127.703 143.096 127.511 143.214ZM129.367 141.46C129.311 141.66 129.282 141.854 129.243 142.053C129.244 142.239 129.189 142.42 129.084 142.578C129.024 142.672 128.945 142.754 128.852 142.82L129.458 142.631C129.523 142.239 129.492 141.839 129.367 141.46ZM113.57 133.642C113.513 133.842 113.491 134.036 113.445 134.235C113.44 134.411 113.388 134.582 113.293 134.734C113.206 134.871 113.083 134.984 112.935 135.064C112.788 135.144 112.62 135.188 112.45 135.191C112.193 135.189 111.942 135.259 111.727 135.389C111.513 135.52 111.345 135.707 111.244 135.926C111.129 136.336 111.147 136.769 111.295 137.17C111.352 136.976 111.38 136.777 111.42 136.577C111.43 136.328 111.545 136.093 111.739 135.921C111.934 135.75 112.193 135.655 112.461 135.658C112.718 135.654 112.968 135.578 113.178 135.441C113.388 135.303 113.548 135.11 113.638 134.886C113.736 134.473 113.713 134.044 113.57 133.642ZM94.4285 144.143C94.3719 144.343 94.3493 144.537 94.304 144.736C94.3036 144.922 94.2488 145.103 94.1456 145.261C94.0593 145.397 93.9371 145.51 93.7904 145.589C93.6438 145.668 93.4777 145.711 93.3082 145.713C93.0842 145.709 92.8629 145.758 92.665 145.856C92.4671 145.953 92.299 146.096 92.1765 146.27L92.5217 146.501C92.6171 146.398 92.7354 146.317 92.8683 146.262C93.0012 146.206 93.1456 146.179 93.2912 146.18C93.5494 146.178 93.8008 146.103 94.012 145.965C94.2232 145.827 94.3842 145.633 94.4737 145.408C94.5817 144.994 94.5661 144.56 94.4285 144.154V144.143ZM84.6739 117.082V117.134C84.5549 117.544 84.5727 117.978 84.7248 118.379C84.7814 118.184 84.804 117.985 84.8493 117.791C84.8564 117.615 84.9151 117.444 85.019 117.297L85.0473 117.26L84.6739 117.082ZM73.9235 130.313C73.8895 130.434 73.8669 130.555 73.8443 130.675L74.0423 130.864C74.0366 130.686 73.98 130.497 73.9461 130.313H73.9235ZM63.5521 112.272C63.4956 112.472 63.4729 112.666 63.4277 112.866C63.4225 113.041 63.3699 113.213 63.2749 113.364C63.188 113.501 63.065 113.615 62.9174 113.695C62.7698 113.775 62.6027 113.818 62.4318 113.821C62.1752 113.82 61.9239 113.889 61.7095 114.02C61.495 114.15 61.3271 114.337 61.2267 114.556C61.1115 114.967 61.1292 115.4 61.2776 115.801C61.3342 115.606 61.3624 115.407 61.4021 115.213C61.4092 115.037 61.4679 114.866 61.5718 114.719C61.6657 114.586 61.7941 114.476 61.9454 114.401C62.0967 114.326 62.2659 114.287 62.4375 114.288C62.6955 114.286 62.9465 114.21 63.1576 114.073C63.3687 113.935 63.5299 113.741 63.62 113.517C63.726 113.106 63.7103 112.676 63.5748 112.272H63.5521ZM89.3531 127.042C89.2129 127.164 89.0416 127.251 88.8552 127.294C88.6905 127.334 88.5174 127.334 88.3528 127.294C88.1881 127.253 88.0376 127.174 87.916 127.063C87.7367 126.893 87.5068 126.777 87.2557 126.729C87.0047 126.681 86.7439 126.704 86.5071 126.795C86.0149 126.995 85.8338 127.389 85.5905 127.709C85.7829 127.604 85.947 127.483 86.1563 127.373C86.2955 127.253 86.4679 127.171 86.6542 127.137C86.8219 127.102 86.9962 127.109 87.1606 127.155C87.325 127.2 87.474 127.285 87.5935 127.399C87.779 127.565 88.014 127.676 88.2682 127.718C88.5224 127.759 88.784 127.728 89.0193 127.63C89.4016 127.401 89.7119 127.082 89.919 126.706C89.7096 126.806 89.5512 126.932 89.3758 127.042H89.3531ZM118.006 122.653C117.953 122.69 117.893 122.721 117.83 122.742C117.675 122.806 117.504 122.832 117.335 122.817C117.166 122.802 117.003 122.747 116.863 122.658C116.656 122.518 116.409 122.438 116.153 122.429C115.897 122.419 115.644 122.481 115.426 122.605C115.072 122.879 114.814 123.245 114.685 123.655C114.854 123.524 115.001 123.377 115.154 123.241C115.273 123.103 115.429 122.996 115.607 122.931C115.767 122.874 115.94 122.856 116.11 122.877C116.28 122.898 116.441 122.958 116.58 123.052C116.793 123.186 117.044 123.259 117.301 123.259C117.559 123.259 117.81 123.186 118.023 123.052C118.083 123.012 118.138 122.966 118.187 122.915L118.006 122.653ZM100.46 135.821C100.345 135.962 100.193 136.074 100.019 136.146C99.8631 136.21 99.6925 136.236 99.5231 136.221C99.3538 136.207 99.1913 136.152 99.0512 136.062C98.8443 135.922 98.5971 135.842 98.3412 135.833C98.0853 135.824 97.8321 135.885 97.614 136.01C97.2573 136.282 96.9987 136.648 96.8728 137.06C97.0425 136.929 97.184 136.782 97.3424 136.645C97.4592 136.507 97.6135 136.4 97.7894 136.336C97.95 136.279 98.1233 136.261 98.2934 136.283C98.4634 136.305 98.6248 136.366 98.7626 136.462C98.9763 136.596 99.2286 136.668 99.4868 136.668C99.7451 136.668 99.9974 136.596 100.211 136.462C100.549 136.178 100.799 135.815 100.935 135.411C100.749 135.537 100.601 135.684 100.46 135.821ZM118.368 144.558C118.228 144.68 118.056 144.766 117.87 144.81C117.705 144.848 117.533 144.847 117.368 144.806C117.204 144.766 117.054 144.688 116.931 144.579C116.751 144.409 116.522 144.293 116.271 144.244C116.02 144.196 115.76 144.217 115.522 144.306C115.03 144.505 114.854 144.899 114.605 145.219C114.791 145.117 114.97 145.004 115.143 144.883C115.285 144.767 115.456 144.686 115.641 144.647C115.809 144.615 115.983 144.623 116.147 144.67C116.311 144.716 116.46 144.801 116.58 144.915C116.766 145.081 117.001 145.191 117.255 145.232C117.509 145.274 117.77 145.243 118.006 145.146C118.391 144.918 118.702 144.596 118.905 144.217C118.696 144.337 118.526 144.442 118.351 144.558H118.368ZM104.675 127.536C104.486 127.528 104.302 127.474 104.143 127.378C103.999 127.291 103.882 127.17 103.801 127.029C103.721 126.887 103.681 126.729 103.685 126.57C103.681 126.331 103.599 126.099 103.451 125.904C103.302 125.71 103.094 125.561 102.853 125.477C102.723 125.505 102.591 125.526 102.457 125.54C102.295 125.543 102.134 125.516 101.982 125.462C101.829 125.462 101.682 125.519 101.535 125.54C101.744 125.593 101.959 125.614 102.169 125.656C102.368 125.656 102.563 125.705 102.735 125.798C102.882 125.878 103.004 125.992 103.09 126.129C103.177 126.266 103.224 126.421 103.227 126.58C103.225 126.818 103.3 127.051 103.441 127.25C103.582 127.449 103.783 127.605 104.019 127.698C104.461 127.805 104.928 127.789 105.36 127.651C105.1 127.593 104.89 127.567 104.675 127.536ZM106.576 145.104C106.387 145.095 106.203 145.039 106.045 144.941C105.9 144.855 105.783 144.736 105.702 144.595C105.622 144.454 105.582 144.297 105.586 144.138C105.582 143.899 105.5 143.666 105.352 143.471C105.203 143.275 104.995 143.125 104.755 143.04C104.309 142.948 103.845 142.972 103.414 143.109C103.623 143.161 103.838 143.182 104.047 143.219C104.247 143.221 104.442 143.272 104.613 143.366C104.76 143.447 104.883 143.561 104.969 143.698C105.055 143.835 105.102 143.99 105.105 144.148C105.103 144.386 105.178 144.619 105.319 144.817C105.46 145.015 105.661 145.17 105.897 145.261C106.339 145.372 106.807 145.355 107.238 145.214C107.001 145.156 106.791 145.135 106.576 145.099V145.104ZM85.4943 138.977C85.3066 138.97 85.1245 138.916 84.9681 138.819C84.8229 138.733 84.704 138.614 84.6227 138.474C84.5414 138.333 84.5006 138.175 84.5041 138.016C84.501 137.776 84.4199 137.543 84.2714 137.347C84.123 137.152 83.9142 137.002 83.6724 136.918C83.2342 136.832 82.7792 136.856 82.3541 136.987C82.5634 137.039 82.7784 137.06 82.9934 137.102C83.1826 137.107 83.3674 137.156 83.5309 137.244C83.6774 137.325 83.7993 137.44 83.8854 137.576C83.9714 137.713 84.0188 137.868 84.0232 138.026C84.0217 138.264 84.0961 138.498 84.2371 138.697C84.378 138.895 84.5792 139.051 84.8153 139.145C85.2572 139.255 85.7247 139.238 86.1563 139.097C85.9187 139.034 85.7093 139.013 85.4943 138.971V138.977Z" fill="black"/>
<path d="M112.443 123.335C114.294 126.701 116.404 129.956 118.616 133.133C119.697 134.708 120.783 136.246 121.926 137.769C123.069 139.292 124.405 140.867 125.632 142.426C125.689 142.5 125.814 142.426 125.757 142.353C124.625 140.73 123.618 139.05 122.515 137.422C121.412 135.795 120.359 134.272 119.284 132.739C117.083 129.557 114.899 126.359 112.562 123.262C112.511 123.204 112.404 123.272 112.443 123.335Z" fill="#263238"/>
<path d="M98.0097 126.538C96.3991 127.079 94.83 127.721 93.3135 128.46C93.2739 128.46 93.3135 128.544 93.3135 128.528C94.9487 128.003 96.6122 127.625 98.2417 127.121C99.8713 126.617 101.478 125.945 103.147 125.546C103.166 125.54 103.181 125.527 103.191 125.511C103.2 125.495 103.202 125.476 103.197 125.458C103.193 125.44 103.181 125.425 103.164 125.415C103.147 125.405 103.127 125.401 103.108 125.404C101.422 125.793 99.6902 126.008 98.0097 126.538Z" fill="#263238"/>
<path d="M124.586 144.106C116.309 146.569 102.791 150.255 98.3554 149.483C91.7807 148.343 67.3319 125.724 61.6625 117.118C60.8408 115.895 60.102 114.626 59.4502 113.317L124.586 144.106Z" fill="#263238"/>
<path d="M192.212 210.956C190.209 211.592 132.768 211.943 130.538 210.673C129.707 210.195 129.163 202.435 128.79 193.041C128.711 191.009 121.265 158.388 121.265 158.388L159.689 158.047L165.822 192.7C165.822 192.7 187.889 201.694 190.152 203.327C192.415 204.96 194.215 210.321 192.212 210.956Z" fill="#D3766A"/>
<path d="M192.212 210.951C190.209 211.592 132.767 211.943 130.538 210.673C129.701 210.19 129.158 202.435 128.795 193.036C128.795 192.569 128.354 190.442 127.726 187.455H164.889L165.822 192.705C165.822 192.705 187.889 201.7 190.152 203.332C192.415 204.965 194.215 210.321 192.212 210.951Z" fill="white"/>
<path d="M192.212 210.956C190.209 211.592 132.768 211.943 130.539 210.673C129.707 210.195 129.164 202.435 128.79 193.041L165.823 192.711C165.823 192.711 187.889 201.705 190.153 203.338C192.416 204.971 194.215 210.321 192.212 210.956Z" fill="#47D163"/>
<path d="M191.374 208.824C181.756 208.667 142.884 208.866 133.35 209.386C133.271 209.386 133.271 209.439 133.35 209.439C142.896 209.796 181.75 209.302 191.374 208.971C191.555 208.966 191.555 208.83 191.374 208.824Z" fill="#263238"/>
<path d="M186.463 201.442C185.39 201.423 184.324 201.611 183.334 201.994C182.343 202.377 181.449 202.947 180.709 203.668C179.365 204.949 178.606 206.663 178.593 208.452C178.593 208.504 178.7 208.504 178.706 208.452C179.232 204.95 182.638 201.857 186.452 201.563C186.469 201.564 186.486 201.559 186.5 201.549C186.513 201.539 186.521 201.524 186.523 201.508C186.524 201.492 186.519 201.476 186.508 201.464C186.496 201.451 186.48 201.444 186.463 201.442Z" fill="#263238"/>
<path d="M169.591 193.577C165.737 193.577 161.279 194.842 158.908 197.777C158.812 197.893 158.987 198.008 159.106 197.956C162.463 196.294 166.003 194.972 169.664 194.013C169.716 193.994 169.759 193.959 169.787 193.915C169.815 193.87 169.825 193.818 169.816 193.767C169.808 193.716 169.781 193.67 169.74 193.635C169.699 193.6 169.646 193.58 169.591 193.577Z" fill="#263238"/>
<path d="M172.578 194.637C168.719 194.611 164.261 195.898 161.89 198.838C161.8 198.953 161.975 199.074 162.088 199.016C165.445 197.356 168.985 196.036 172.646 195.079C172.701 195.062 172.748 195.029 172.779 194.983C172.81 194.938 172.822 194.884 172.814 194.831C172.806 194.778 172.778 194.73 172.734 194.694C172.691 194.659 172.636 194.639 172.578 194.637Z" fill="#263238"/>
<path d="M175.56 195.693C171.707 195.667 167.248 196.958 164.871 199.893C164.781 200.009 164.956 200.124 165.07 200.072C168.427 198.411 171.966 197.089 175.628 196.129C175.679 196.11 175.722 196.076 175.75 196.032C175.778 195.988 175.789 195.936 175.781 195.886C175.773 195.835 175.747 195.788 175.707 195.753C175.667 195.718 175.615 195.697 175.56 195.693Z" fill="#263238"/>
<path d="M178.542 196.754C174.689 196.727 170.23 198.014 167.854 200.954C167.763 201.069 167.939 201.19 168.052 201.132C171.41 199.474 174.949 198.152 178.61 197.189C178.669 197.178 178.722 197.146 178.757 197.1C178.792 197.054 178.806 196.997 178.798 196.942C178.789 196.886 178.758 196.835 178.71 196.8C178.662 196.765 178.602 196.749 178.542 196.754Z" fill="#263238"/>
<path d="M135.744 200.886C131.421 200.922 131.477 207.155 135.806 207.118C140.134 207.081 140.066 200.844 135.744 200.886Z" fill="white"/>
<path d="M173.687 184.01C171.729 182.519 169.279 184.01 168.091 185.585C166.099 188.305 164.913 191.463 164.651 194.742C164.651 194.757 164.654 194.771 164.66 194.785C164.667 194.798 164.676 194.81 164.688 194.819C164.7 194.829 164.714 194.836 164.729 194.84C164.744 194.844 164.76 194.844 164.775 194.842C164.791 194.909 164.824 194.972 164.871 195.025C164.918 195.079 164.978 195.121 165.045 195.148C165.113 195.176 165.187 195.188 165.261 195.184C165.335 195.181 165.407 195.16 165.471 195.126C168.199 193.346 171.356 191.76 173.421 189.261C174.626 187.791 175.543 185.417 173.687 184.01ZM169.013 191.639C167.695 192.542 166.337 193.382 165.053 194.333C165.665 192.529 166.377 190.755 167.186 189.019C167.588 188.183 168.053 187.374 168.578 186.599C169.404 185.412 173.166 182.398 173.579 186.289C173.806 188.442 170.62 190.542 169.013 191.639Z" fill="#263238"/>
<path d="M155.089 196.118C158.444 196.58 161.879 195.672 165.194 195.173C165.266 195.157 165.333 195.125 165.389 195.08C165.445 195.036 165.489 194.979 165.517 194.915C165.544 194.851 165.555 194.783 165.548 194.714C165.541 194.646 165.517 194.58 165.477 194.522C165.49 194.513 165.5 194.502 165.508 194.488C165.515 194.475 165.519 194.461 165.519 194.446C165.519 194.431 165.515 194.416 165.508 194.403C165.5 194.39 165.49 194.378 165.477 194.37C162.828 192.184 159.607 190.683 156.136 190.017C154.104 189.67 151.236 190.19 150.953 192.527C150.681 194.742 153.125 195.85 155.089 196.118ZM152.746 194.097C150.115 191.046 155.077 190.768 156.56 191.083C157.523 191.3 158.468 191.579 159.389 191.918C161.273 192.637 163.116 193.445 164.911 194.338C163.282 194.49 161.675 194.769 160.045 194.979C158.099 195.225 154.212 195.793 152.746 194.097Z" fill="#263238"/>
<path opacity="0.1" d="M192.212 210.956C190.701 211.434 157.533 211.754 140.463 211.334L136.632 192.957L165.851 192.695C165.851 192.695 187.917 201.689 190.18 203.322C192.444 204.955 194.215 210.321 192.212 210.956Z" fill="black"/>
<path d="M147.422 112.708C155.445 125.309 168.397 183.622 168.397 183.622L126.153 184L118.181 156.487C118.181 156.487 107.906 188.263 75.5357 204.104C61.3904 211.035 35.2103 206.498 29.4277 185.696L56.6885 154.014C56.6885 154.014 65.9282 156.067 69.6626 152.439C82.5292 139.88 104.036 111.542 112.002 106.208C122.26 99.3192 140.027 101.152 147.422 112.708Z" fill="#37474F"/>
<path d="M109.552 127.777C109.79 129.218 110.125 130.643 110.554 132.046C110.921 133.521 111.267 135.007 111.634 136.488V136.53C111.453 136.178 111.267 135.826 111.069 135.48C110.474 134.267 109.767 133.112 109.286 131.851C109.286 131.773 109.133 131.815 109.156 131.893C109.62 133.164 109.954 134.487 110.531 135.716C110.803 136.299 111.097 136.871 111.402 137.433C111.566 137.743 111.736 138.052 111.917 138.357C112.002 138.493 112.087 138.651 112.189 138.782C112.37 139.46 117.242 155.626 117.988 156.492C118.045 156.561 118.136 156.529 118.119 156.45C117.756 155.006 112.653 137.863 112.228 136.398C111.804 134.934 111.368 133.553 110.95 132.125C110.604 130.648 110.16 129.192 109.62 127.767C109.631 127.714 109.547 127.725 109.552 127.777Z" fill="#263238"/>
<path d="M164.572 176.891C162.19 176.738 159.785 176.749 157.398 176.733C155.01 176.717 152.605 176.733 150.212 176.733C145.419 176.733 140.621 176.733 135.829 176.812C133.198 176.854 130.567 176.922 127.941 177.095C127.823 177.095 127.834 177.279 127.941 177.284C132.722 177.547 137.515 177.474 142.302 177.453C147.088 177.432 151.92 177.405 156.685 177.316C159.31 177.269 161.958 177.263 164.572 177.069C164.685 177.074 164.674 176.917 164.572 176.891Z" fill="#263238"/>
<path d="M168.358 183.622L132.395 183.937L116.739 103.803C127.082 100.033 141.068 102.784 147.394 112.729C155.417 125.299 168.358 183.622 168.358 183.622Z" fill="#263238"/>
<path d="M208.943 213.119C206.934 213.749 149.493 214.007 147.27 212.736C146.432 212.253 145.906 204.493 145.572 195.1C145.493 193.073 130.159 163.197 130.159 163.197L168.584 162.924L182.604 194.832C182.604 194.832 204.643 203.863 206.895 205.501C209.147 207.139 210.946 212.468 208.943 213.119Z" fill="#D3766A"/>
<path d="M208.937 213.119C206.934 213.749 149.493 214.012 147.298 212.736C146.46 212.253 145.934 204.493 145.6 195.099C145.6 194.653 144.293 191.697 143.111 189.151L179.86 188.526L182.633 194.826C182.633 194.826 204.671 203.852 206.923 205.49C209.175 207.128 210.94 212.468 208.937 213.119Z" fill="white"/>
<path d="M208.943 213.119C206.935 213.749 149.493 214.007 147.27 212.736C146.432 212.253 145.906 204.493 145.572 195.099L182.605 194.832C182.605 194.832 204.643 203.863 206.895 205.501C209.147 207.139 210.946 212.468 208.943 213.119Z" fill="#47D163"/>
<path d="M208.106 210.972C198.487 210.793 159.616 210.925 150.082 211.434C150.002 211.434 150.002 211.487 150.082 211.487C159.621 211.854 198.481 211.429 208.106 211.114C208.309 211.108 208.309 210.972 208.106 210.972Z" fill="#263238"/>
<path d="M203.2 203.579C202.131 203.555 201.068 203.738 200.079 204.115C199.089 204.491 198.195 205.055 197.452 205.769C196.103 207.046 195.341 208.759 195.324 210.547C195.324 210.599 195.432 210.599 195.437 210.547C195.969 207.044 199.398 203.962 203.2 203.668C203.207 203.663 203.213 203.656 203.217 203.648C203.221 203.641 203.223 203.632 203.223 203.624C203.223 203.615 203.221 203.607 203.217 203.599C203.213 203.591 203.207 203.584 203.2 203.579Z" fill="#263238"/>
<path d="M186.355 195.682C182.502 195.651 178.038 196.937 175.662 199.883C175.565 199.993 175.741 200.114 175.854 200.061C179.216 198.406 182.759 197.089 186.423 196.134C186.488 196.126 186.546 196.094 186.585 196.046C186.625 195.997 186.642 195.937 186.633 195.877C186.624 195.817 186.589 195.763 186.537 195.726C186.485 195.69 186.42 195.674 186.355 195.682Z" fill="#263238"/>
<path d="M189.338 196.748C185.479 196.717 181.02 197.998 178.638 200.949C178.548 201.064 178.723 201.185 178.836 201.127C182.198 199.473 185.741 198.158 189.405 197.205C189.438 197.201 189.469 197.191 189.497 197.175C189.525 197.16 189.55 197.14 189.57 197.116C189.589 197.092 189.604 197.064 189.612 197.035C189.62 197.006 189.622 196.975 189.618 196.945C189.613 196.915 189.602 196.886 189.586 196.86C189.569 196.834 189.548 196.811 189.522 196.793C189.496 196.774 189.466 196.761 189.434 196.753C189.403 196.746 189.37 196.744 189.338 196.748Z" fill="#263238"/>
<path d="M192.314 197.809C188.461 197.777 184.002 199.058 181.62 202.009C181.53 202.12 181.705 202.24 181.818 202.188C185.18 200.531 188.723 199.214 192.388 198.26C192.42 198.256 192.45 198.246 192.478 198.23C192.506 198.215 192.53 198.194 192.549 198.17C192.568 198.146 192.582 198.119 192.59 198.089C192.598 198.06 192.599 198.03 192.594 198C192.589 197.971 192.578 197.942 192.562 197.917C192.545 197.891 192.523 197.869 192.497 197.851C192.471 197.833 192.441 197.82 192.41 197.813C192.379 197.806 192.346 197.804 192.314 197.809Z" fill="#263238"/>
<path d="M195.296 198.875C191.443 198.843 186.984 200.124 184.602 203.075C184.511 203.191 184.687 203.311 184.8 203.254C188.16 201.599 191.701 200.284 195.364 199.332C195.429 199.323 195.488 199.291 195.528 199.242C195.568 199.194 195.585 199.132 195.576 199.072C195.567 199.011 195.532 198.956 195.48 198.919C195.427 198.882 195.361 198.866 195.296 198.875Z" fill="#263238"/>
<path d="M152.514 202.933C148.191 202.965 148.237 209.202 152.565 209.171C156.894 209.139 156.82 202.902 152.514 202.933Z" fill="white"/>
<path d="M190.469 186.121C188.512 184.63 186.062 186.121 184.868 187.67C182.87 190.394 181.678 193.557 181.411 196.843C181.411 196.921 181.467 196.948 181.535 196.948C181.551 197.014 181.584 197.076 181.63 197.129C181.677 197.182 181.736 197.223 181.803 197.251C181.87 197.278 181.944 197.291 182.017 197.288C182.09 197.284 182.162 197.265 182.225 197.231C184.964 195.457 188.121 193.876 190.192 191.377C191.397 189.907 192.325 187.533 190.469 186.121ZM185.779 193.745C184.46 194.648 183.097 195.483 181.818 196.433C182.436 194.631 183.152 192.86 183.962 191.125C184.358 190.29 184.816 189.481 185.332 188.704C186.163 187.518 189.932 184.504 190.333 188.405C190.577 190.542 187.357 192.669 185.779 193.745Z" fill="#263238"/>
<path d="M171.843 198.203C175.203 198.665 178.632 197.762 181.954 197.273C182.026 197.257 182.092 197.226 182.149 197.181C182.205 197.136 182.248 197.079 182.276 197.015C182.304 196.952 182.315 196.883 182.308 196.814C182.301 196.746 182.276 196.68 182.236 196.622C182.249 196.613 182.26 196.602 182.267 196.589C182.274 196.575 182.278 196.561 182.278 196.546C182.278 196.531 182.274 196.517 182.267 196.503C182.26 196.49 182.249 196.479 182.236 196.47C179.586 194.281 176.36 192.779 172.884 192.117C170.858 191.765 167.989 192.285 167.695 194.622C167.441 196.843 169.885 197.93 171.843 198.203ZM169.489 196.176C166.863 193.12 171.826 192.852 173.314 193.167C174.276 193.387 175.221 193.668 176.143 194.007C178.025 194.729 179.867 195.541 181.659 196.438C180.03 196.585 178.423 196.864 176.793 197.068C174.858 197.31 170.954 197.861 169.489 196.176Z" fill="#263238"/>
<path d="M148.831 110.298C156.86 122.899 184.093 186.305 184.093 186.305L139.23 186.683L124.518 153.295C124.518 153.295 104.851 210.337 64.7291 210.337C44.8691 210.337 34.1753 200.996 27.7024 187.759L64.1463 154.46C64.1463 154.46 67.9825 156.986 69.9911 155.069C83.0048 142.673 105.445 109.138 113.417 103.803C123.704 96.9091 141.464 98.7468 148.831 110.298Z" fill="#37474F"/>
<path d="M177.671 179.595C175.294 179.442 172.884 179.458 170.502 179.442C168.12 179.427 165.709 179.442 163.316 179.442C158.523 179.442 153.725 179.442 148.933 179.521C146.302 179.563 143.671 179.631 141.04 179.805C140.927 179.805 140.938 179.988 141.04 179.994C145.821 180.256 150.613 180.183 155.4 180.167C160.187 180.151 164.991 180.114 169.783 180.03C172.409 179.983 175.057 179.978 177.671 179.784C177.784 179.757 177.772 179.6 177.671 179.595Z" fill="#263238"/>
<path d="M123.466 149.304C123.03 147.986 122.589 146.679 122.125 145.356C121.208 142.778 120.371 140.168 119.363 137.617C119.075 136.902 118.837 136.167 118.549 135.453C118.26 134.739 117.983 133.973 117.706 133.227C117.696 133.212 117.682 133.2 117.664 133.193C117.646 133.187 117.627 133.186 117.609 133.191C117.59 133.195 117.575 133.206 117.563 133.22C117.552 133.234 117.547 133.252 117.547 133.269C118.17 135.973 118.786 138.682 119.652 141.329C119.95 142.232 120.259 143.133 120.58 144.033C120.167 143.371 119.72 142.731 119.262 142.09C118.471 141.084 117.812 139.995 117.298 138.845C117.298 138.803 117.202 138.845 117.219 138.845C117.638 140.004 118.235 141.1 118.99 142.101C119.59 142.93 120.24 143.749 120.795 144.616C121.361 146.117 121.927 147.603 122.521 149.084C123.085 150.514 123.758 151.906 124.535 153.247C124.535 153.289 124.62 153.247 124.614 153.211C124.326 151.909 123.884 150.596 123.466 149.304Z" fill="#263238"/>
<path d="M142.449 176.744C139.156 170.931 135.659 165.193 132.445 159.359C129.231 153.526 126.119 147.572 123.2 141.591C122.385 139.922 121.57 138.252 120.784 136.577C119.997 134.902 119.25 133.169 118.458 131.474C118.458 131.437 118.373 131.474 118.39 131.474C119.607 134.561 120.999 137.596 122.351 140.641C123.703 143.686 125.129 146.627 126.595 149.567C129.548 155.518 132.754 161.382 136.213 167.161C138.154 170.406 140.174 173.63 142.381 176.754C142.392 176.76 142.404 176.762 142.417 176.76C142.429 176.758 142.44 176.752 142.449 176.744Z" fill="#263238"/>
<path d="M71.0941 154.03C68.9666 155.915 66.9071 157.889 64.9833 159.958C64.5929 160.378 64.2081 160.808 63.8517 161.234C62.7201 161.995 61.6563 162.809 60.6152 163.633C59.4497 164.583 58.352 165.607 57.2487 166.605C57.2147 166.636 57.2487 166.699 57.2996 166.663C58.4312 165.702 59.6534 164.82 60.8416 163.922L62.7993 162.436C61.6676 163.759 60.536 165.098 59.4553 166.447C58.4312 167.707 57.5202 169.041 56.5357 170.327C56.4905 170.39 56.581 170.459 56.6319 170.401C57.5542 169.314 58.5613 168.301 59.5062 167.224C60.4512 166.148 61.4074 165.124 62.3353 164.037C63.2632 162.95 64.2251 161.937 65.1644 160.918C66.1036 159.9 67.0485 158.787 67.9934 157.726C69.0628 156.534 70.1152 155.332 71.1676 154.124C71.2412 154.067 71.1507 153.977 71.0941 154.03Z" fill="#263238"/>
<path d="M52.2981 175.841C51.9142 174.907 51.4663 173.996 50.9571 173.116L50.1593 171.756C49.9293 171.293 49.6427 170.856 49.305 170.454C49.2314 170.385 49.0786 170.454 49.1126 170.527C49.1347 170.643 49.1668 170.757 49.2088 170.868L49.2597 171.068C49.2597 171.068 49.2597 171.068 49.2936 171.068C49.3785 171.257 49.469 171.441 49.5539 171.624C49.7519 172.055 49.95 172.486 50.1197 172.921C50.4422 173.735 50.7704 174.544 51.0307 175.368C51.5839 176.918 51.9038 178.531 51.9812 180.162C52.0282 181.721 51.5752 183.258 50.6799 184.578C49.7707 185.788 48.6387 186.84 47.3359 187.686C45.8365 188.736 44.224 189.686 42.6001 190.6C42.5039 190.652 42.6001 190.784 42.7189 190.747C44.43 190.178 46.0862 189.475 47.6698 188.647C49.1622 187.849 50.4636 186.777 51.4946 185.496C53.5938 182.803 53.673 179.07 52.2981 175.841Z" fill="#263238"/>
<path d="M121.961 145.387C118.403 152.963 114.346 160.327 109.813 167.44C105.36 174.302 100.471 181.028 94.7112 186.867C89.1266 192.532 82.5349 197.368 74.9474 199.967C71.2476 201.277 67.3252 201.963 63.3652 201.993C59.549 201.978 55.7672 201.324 52.2018 200.061C48.5028 198.765 45.0883 196.856 42.1247 194.427C38.9752 191.735 36.1727 188.714 33.7733 185.423C33.1509 184.607 32.5341 183.792 31.9231 182.976C31.9117 182.967 31.8977 182.962 31.883 182.962C31.8684 182.961 31.8539 182.965 31.8418 182.973C31.8297 182.98 31.8206 182.992 31.8159 183.004C31.8112 183.017 31.811 183.031 31.8156 183.044C34.0641 186.496 36.6393 189.756 39.5106 192.784C42.2256 195.55 45.4599 197.834 49.0558 199.526C56.1124 202.83 64.2378 203.591 71.8637 201.663C79.6832 199.694 86.6653 195.304 92.5498 189.896C98.6549 184.283 103.736 177.594 108.353 170.742C113.167 163.606 117.36 156.125 120.891 148.37C121.321 147.419 121.717 146.453 122.119 145.487C122.159 145.387 122.017 145.303 121.961 145.387Z" fill="#263238"/>
<path d="M137.023 180.892C136.598 179.91 136.185 178.928 135.744 177.951C134.861 176.005 133.977 174.056 133.09 172.102C131.325 168.233 129.661 164.331 127.998 160.43C127.528 159.322 127.076 158.209 126.6 157.107C126.363 156.555 126.119 156.009 125.882 155.458C125.549 154.643 125.171 153.844 124.75 153.064C124.665 152.938 124.405 152.99 124.428 153.153C124.58 154.156 125.407 155.994 125.746 156.954C126.085 157.915 126.487 158.955 126.878 159.953C127.647 161.948 128.456 163.927 129.288 165.896C130.946 169.839 132.643 173.772 134.527 177.631C135.055 178.706 135.601 179.773 136.163 180.834C136.446 181.359 136.728 181.884 137.023 182.409C137.317 182.934 137.656 183.422 137.951 183.948C138.03 184.095 138.296 183.984 138.228 183.832C137.803 182.866 137.447 181.868 137.023 180.892Z" fill="#263238"/>
<path d="M105.281 112.225C103.255 114.598 101.269 117.008 99.2944 119.424C97.3197 121.839 95.3337 124.244 93.3704 126.68C89.4833 131.542 85.5961 136.409 81.7599 141.308C79.6042 144.059 77.4541 146.81 75.3832 149.619C75.3549 149.656 75.4228 149.703 75.4511 149.667C79.5363 144.941 83.4291 140.053 87.3332 135.191C91.2373 130.329 95.0961 125.435 98.9266 120.552C101.077 117.801 103.227 115.045 105.309 112.246L105.281 112.225Z" fill="#263238"/>
<path d="M26.48 189.303L81.2845 159.501C82.1785 158.755 75.6943 120.568 69.3459 109.621C68.2765 107.783 58.3126 103.32 50.9514 111.427C21.7102 143.565 26.48 189.303 26.48 189.303Z" fill="#47D163"/>
<path opacity="0.2" d="M61.4868 126.344C61.2975 126.336 61.1138 126.282 60.9549 126.186C60.8112 126.099 60.6934 125.98 60.6124 125.84C60.5313 125.699 60.4895 125.542 60.4909 125.383C60.4878 125.143 60.4067 124.91 60.2582 124.715C60.1098 124.519 59.9009 124.369 59.6592 124.286C59.2142 124.194 58.7509 124.216 58.3182 124.349C58.5332 124.401 58.7426 124.422 58.9576 124.464C59.1571 124.464 59.3527 124.515 59.5234 124.611C59.6694 124.691 59.7909 124.805 59.8761 124.941C59.9613 125.077 60.0074 125.231 60.01 125.388C60.0085 125.626 60.0829 125.859 60.2238 126.058C60.3648 126.257 60.566 126.413 60.8021 126.506C61.244 126.617 61.7115 126.6 62.1431 126.459C61.9111 126.407 61.6961 126.386 61.4868 126.344ZM65.6568 151.058C65.4675 151.051 65.2838 150.996 65.1249 150.9C64.9807 150.813 64.863 150.693 64.7828 150.551C64.7026 150.41 64.6626 150.252 64.6666 150.092C64.6623 149.853 64.5807 149.622 64.4323 149.427C64.284 149.232 64.0758 149.083 63.8349 149C63.3899 148.908 62.9266 148.93 62.4939 149.063C62.7033 149.115 62.9183 149.136 63.1276 149.178C63.3264 149.179 63.5215 149.228 63.6934 149.32C63.8406 149.401 63.9631 149.515 64.0492 149.652C64.1354 149.789 64.1824 149.944 64.1857 150.102C64.1842 150.341 64.2586 150.574 64.3995 150.773C64.5405 150.972 64.7417 151.128 64.9778 151.221C65.4201 151.328 65.8865 151.311 66.3188 151.174C66.0812 151.121 65.8718 151.095 65.6568 151.058ZM49.9272 134.577C49.7379 134.569 49.5543 134.515 49.3954 134.419C49.2517 134.332 49.1339 134.213 49.0528 134.072C48.9718 133.932 48.93 133.775 48.9314 133.616C48.929 133.376 48.8482 133.143 48.6997 132.947C48.5511 132.751 48.3419 132.601 48.0997 132.518C47.6547 132.427 47.1914 132.449 46.7587 132.581C46.9737 132.634 47.1887 132.66 47.3981 132.697C47.5977 132.696 47.7936 132.747 47.9639 132.844C48.1099 132.924 48.2316 133.038 48.3176 133.174C48.4037 133.31 48.4513 133.463 48.4561 133.621C48.4519 133.859 48.5245 134.093 48.6647 134.292C48.8049 134.491 49.0062 134.647 49.2426 134.739C49.6845 134.85 50.152 134.833 50.5836 134.692C50.3516 134.64 50.1366 134.619 49.9272 134.577ZM41.3948 159.889C41.2061 159.884 41.0233 159.827 40.8686 159.727C40.7238 159.641 40.6051 159.522 40.5239 159.381C40.4427 159.24 40.4016 159.083 40.4046 158.923C40.3999 158.684 40.3182 158.452 40.17 158.256C40.0217 158.061 39.8138 157.911 39.5729 157.826C39.1274 157.736 38.6641 157.76 38.2319 157.894C38.4469 157.947 38.6563 157.968 38.8713 158.004C39.0606 158.013 39.245 158.063 39.4088 158.151C39.556 158.232 39.6784 158.346 39.7646 158.483C39.8508 158.62 39.8977 158.775 39.901 158.934C39.8992 159.171 39.9735 159.404 40.1146 159.602C40.2556 159.8 40.457 159.955 40.6932 160.047C41.1345 160.159 41.602 160.144 42.0342 160.005C41.8191 159.952 41.6155 159.926 41.3948 159.889ZM40.3311 176.166C40.0619 176.158 39.8069 176.052 39.6208 175.872C39.4346 175.691 39.3321 175.45 39.3352 175.2C39.3306 174.961 39.2488 174.729 39.1006 174.533C38.9523 174.337 38.7444 174.188 38.5035 174.103C38.058 174.013 37.5947 174.036 37.1625 174.171C37.3775 174.223 37.5869 174.244 37.8019 174.286C38.0006 174.287 38.1958 174.336 38.3677 174.428C38.5142 174.509 38.6358 174.623 38.721 174.76C38.8062 174.897 38.8521 175.052 38.8543 175.21C38.8535 175.448 38.9282 175.681 39.0691 175.88C39.2099 176.079 39.4107 176.235 39.6464 176.329C40.0887 176.436 40.5551 176.419 40.9874 176.282C40.7554 176.224 40.5404 176.198 40.3311 176.161V176.166ZM54.6291 108.497H54.5612L54.1708 108.728C54.539 108.754 54.9091 108.716 55.2628 108.618C55.0365 108.56 54.8215 108.539 54.6291 108.497ZM73.7422 142.531C73.6036 142.652 73.4343 142.739 73.25 142.783C73.0843 142.822 72.9107 142.821 72.7455 142.78C72.5803 142.74 72.4288 142.661 72.3051 142.552C72.1258 142.382 71.8959 142.266 71.6448 142.218C71.3937 142.17 71.133 142.193 70.8962 142.284C70.4039 142.484 70.2285 142.878 69.9796 143.198C70.172 143.093 70.3417 142.972 70.5454 142.857C70.7431 142.691 71.0016 142.602 71.2679 142.608C71.5342 142.614 71.7879 142.714 71.9769 142.888C72.1624 143.055 72.3974 143.166 72.6516 143.207C72.9058 143.248 73.1674 143.217 73.4027 143.119C73.7865 142.892 74.0972 142.572 74.3024 142.195C74.0704 142.295 73.9063 142.416 73.7253 142.531H73.7422ZM80.068 148.963C79.8169 149.226 79.6245 149.533 79.5022 149.866C79.6719 149.74 79.8134 149.593 79.9718 149.451C80.0165 149.402 80.0657 149.356 80.1189 149.315C80.0906 149.199 80.0906 149.063 80.051 148.963H80.068ZM32.4889 151.641C32.3487 151.763 32.1773 151.849 31.991 151.893C31.8262 151.939 31.6512 151.945 31.4834 151.909C31.3156 151.873 31.161 151.797 31.0348 151.688C30.9065 151.571 30.7542 151.48 30.5871 151.418C30.4199 151.357 30.2413 151.327 30.0616 151.331L29.9597 151.741C30.0951 151.739 30.2294 151.763 30.3541 151.811C30.4788 151.86 30.5911 151.933 30.684 152.024C30.8687 152.192 31.1038 152.304 31.3583 152.345C31.6128 152.386 31.8748 152.355 32.1098 152.255C32.4931 152.029 32.8023 151.709 33.0038 151.331C32.8171 151.405 32.6473 151.531 32.4719 151.641H32.4889ZM50.278 168.815C50.1394 168.936 49.9701 169.023 49.7858 169.067C49.62 169.105 49.4466 169.104 49.2815 169.064C49.1164 169.023 48.9649 168.945 48.8409 168.836C48.6616 168.666 48.4317 168.55 48.1806 168.502C47.9295 168.455 47.6688 168.478 47.432 168.569C46.9454 168.768 46.7643 169.162 46.521 169.482C46.7078 169.377 46.8775 169.256 47.0869 169.141C47.2854 168.975 47.545 168.886 47.8122 168.891C48.0794 168.897 48.3341 168.998 48.524 169.172C48.7082 169.339 48.9423 169.45 49.1957 169.491C49.449 169.533 49.7099 169.502 49.9442 169.403C50.3292 169.177 50.6403 168.858 50.8438 168.479C50.6062 168.579 50.4421 168.705 50.2611 168.815H50.278ZM27.804 179.243C27.666 179.366 27.4966 179.454 27.3117 179.5C27.146 179.538 26.9726 179.537 26.8075 179.497C26.6424 179.456 26.4908 179.378 26.3668 179.269C26.3231 179.225 26.2737 179.186 26.2197 179.154C26.2197 179.353 26.2197 179.547 26.2197 179.742C26.4 179.853 26.608 179.92 26.8239 179.935C27.0399 179.951 27.2565 179.915 27.4532 179.831C27.8395 179.606 28.151 179.286 28.3528 178.907C28.1491 178.991 27.9851 179.133 27.804 179.243ZM51.5681 147.976C51.4281 148.095 51.2593 148.182 51.0758 148.228C50.911 148.267 50.7383 148.266 50.574 148.225C50.4097 148.185 50.2591 148.106 50.1366 147.997C49.9571 147.827 49.7275 147.711 49.4768 147.662C49.226 147.614 48.9653 147.635 48.7277 147.724C48.2355 147.923 48.0544 148.317 47.8111 148.638C48.0035 148.538 48.1676 148.412 48.3769 148.301C48.5175 148.183 48.6893 148.102 48.8748 148.065C49.043 148.033 49.2172 148.041 49.3813 148.088C49.5454 148.135 49.6943 148.219 49.8141 148.333C50.0018 148.495 50.2373 148.6 50.4904 148.637C50.7435 148.673 51.0025 148.639 51.2343 148.538C51.6175 148.311 51.9267 147.992 52.1282 147.614C51.9472 147.74 51.8001 147.86 51.5964 147.976H51.5681ZM66.6526 165.303C66.514 165.424 66.3447 165.511 66.1604 165.555C65.9946 165.593 65.8212 165.592 65.6561 165.551C65.491 165.511 65.3395 165.433 65.2155 165.324C65.0362 165.154 64.8063 165.037 64.5552 164.99C64.3041 164.942 64.0434 164.965 63.8066 165.056C63.32 165.25 63.1389 165.644 62.8956 165.97C63.0823 165.865 63.2521 165.744 63.4614 165.628C63.602 165.51 63.7738 165.429 63.9594 165.392C64.1276 165.36 64.3017 165.368 64.4658 165.415C64.63 165.461 64.7788 165.546 64.8986 165.66C65.0828 165.826 65.3169 165.938 65.5703 165.979C65.8236 166.02 66.0845 165.989 66.3188 165.891C66.7053 165.664 67.0167 165.342 67.2184 164.961C67.0261 165.051 66.862 165.171 66.6809 165.287L66.6526 165.303ZM63.5463 112.272C63.4897 112.472 63.4671 112.666 63.4218 112.866C63.4166 113.041 63.3641 113.213 63.2691 113.364C63.1822 113.501 63.0591 113.615 62.9116 113.695C62.764 113.775 62.5969 113.818 62.426 113.821C62.1694 113.82 61.9181 113.889 61.7036 114.02C61.4892 114.15 61.3212 114.337 61.2208 114.556C61.1057 114.967 61.1234 115.399 61.2718 115.801C61.3283 115.606 61.3566 115.407 61.3962 115.213C61.4033 115.037 61.462 114.866 61.566 114.719C61.6598 114.586 61.7883 114.476 61.9396 114.401C62.0908 114.326 62.26 114.287 62.4317 114.288C62.6897 114.286 62.9407 114.21 63.1518 114.073C63.3628 113.935 63.524 113.741 63.6142 113.517C63.722 113.106 63.7083 112.676 63.5746 112.272H63.5463ZM76.0394 156.34C75.9828 156.534 75.9546 156.734 75.9149 156.928C75.9157 157.113 75.8608 157.295 75.7565 157.453C75.6706 157.589 75.5485 157.703 75.4019 157.783C75.2553 157.863 75.0891 157.906 74.9191 157.91C74.6625 157.909 74.4112 157.978 74.1968 158.108C73.9823 158.239 73.8144 158.426 73.7139 158.645C73.595 159.055 73.6127 159.489 73.7649 159.889C73.8215 159.69 73.8441 159.496 73.8893 159.296C73.8973 159.12 73.9559 158.95 74.0591 158.803C74.1525 158.669 74.281 158.56 74.4325 158.486C74.584 158.411 74.7534 158.374 74.9248 158.377C75.1828 158.374 75.4338 158.299 75.6449 158.161C75.8559 158.024 76.0172 157.83 76.1073 157.605C76.2193 157.188 76.2056 156.751 76.0677 156.34H76.0394ZM73.9176 130.313C73.8611 130.513 73.8384 130.707 73.7988 130.906C73.7967 131.091 73.7421 131.272 73.6404 131.431C73.5523 131.567 73.429 131.68 73.2817 131.76C73.1344 131.84 72.9678 131.884 72.7973 131.888C72.5417 131.885 72.2907 131.952 72.0769 132.082C71.8631 132.213 71.6962 132.399 71.5978 132.618C71.4788 133.028 71.4966 133.462 71.6487 133.862C71.7053 133.668 71.7279 133.469 71.7675 133.274C71.7775 133.098 71.838 132.928 71.943 132.781C72.0364 132.647 72.1648 132.538 72.3162 132.462C72.4675 132.387 72.6369 132.349 72.8086 132.35C73.0665 132.347 73.3172 132.271 73.5281 132.133C73.739 131.996 73.9003 131.802 73.9912 131.579C74.1043 131.161 74.0886 130.723 73.9459 130.313H73.9176ZM60.7059 136.845C60.6494 137.039 60.6211 137.239 60.5815 137.433C60.5822 137.618 60.5274 137.8 60.423 137.958C60.3371 138.094 60.215 138.208 60.0684 138.287C59.9218 138.367 59.7556 138.411 59.5856 138.415C59.329 138.413 59.0777 138.482 58.8633 138.613C58.6488 138.744 58.4809 138.931 58.3805 139.15C58.2615 139.56 58.2792 139.994 58.4314 140.394C58.488 140.195 58.5106 140 58.5559 139.801C58.5638 139.625 58.6224 139.455 58.7256 139.307C58.819 139.174 58.9475 139.065 59.099 138.99C59.2505 138.916 59.4199 138.879 59.5913 138.882C59.8489 138.878 60.0993 138.802 60.31 138.664C60.5208 138.527 60.6823 138.334 60.7738 138.11C60.8858 137.693 60.8721 137.255 60.7342 136.845H60.7059ZM31.9967 165.465C31.9401 165.66 31.9174 165.859 31.8778 166.054C31.8758 166.238 31.8211 166.42 31.7194 166.579C31.6326 166.715 31.5095 166.829 31.3619 166.909C31.2144 166.989 31.0472 167.032 30.8764 167.035C30.6202 167.033 30.3691 167.102 30.1554 167.233C29.9417 167.364 29.775 167.551 29.6768 167.77C29.5597 168.181 29.5794 168.615 29.7334 169.015C29.79 168.815 29.8126 168.621 29.8522 168.422C29.8621 168.245 29.9227 168.075 30.0276 167.928C30.1206 167.794 30.249 167.685 30.4006 167.61C30.5522 167.536 30.7219 167.499 30.8933 167.503C31.151 167.498 31.4013 167.423 31.6121 167.285C31.8228 167.147 31.9844 166.954 32.0759 166.731C32.178 166.311 32.1506 165.872 31.9967 165.465ZM35.9573 183.937C35.9573 184.021 35.9177 184.105 35.8951 184.189L36.0026 184.131C35.9573 184.068 35.9573 184 35.9573 183.937ZM41.3099 124.338C41.276 124.391 41.242 124.438 41.2137 124.49C41.2137 124.585 41.1741 124.685 41.1572 124.779C41.1551 124.964 41.1004 125.145 40.9987 125.304C40.8835 125.479 40.711 125.615 40.5065 125.693L40.2009 126.218C40.4499 126.207 40.69 126.129 40.8913 125.993C41.0925 125.856 41.246 125.668 41.3326 125.451C41.4363 125.085 41.4245 124.698 41.2986 124.338H41.3099ZM41.3099 141.46C41.2533 141.66 41.225 141.854 41.1854 142.053C41.1834 142.238 41.1287 142.419 41.027 142.578C40.9403 142.714 40.818 142.827 40.6716 142.907C40.5252 142.987 40.3594 143.031 40.1896 143.035C39.9332 143.031 39.6813 143.099 39.4665 143.229C39.2517 143.359 39.0838 143.546 38.9844 143.765C38.8655 144.175 38.8832 144.609 39.0354 145.009C39.0919 144.815 39.1146 144.616 39.1598 144.421C39.1678 144.246 39.2264 144.075 39.3296 143.928C39.4234 143.794 39.5519 143.685 39.7032 143.61C39.8544 143.535 40.0237 143.496 40.1953 143.497C40.4531 143.494 40.7038 143.418 40.9147 143.28C41.1256 143.143 41.287 142.949 41.3778 142.725C41.4679 142.302 41.4307 141.865 41.2703 141.46H41.3099ZM56.2643 156.34C56.2077 156.534 56.1851 156.734 56.1455 156.928C56.1434 157.113 56.0888 157.294 55.9871 157.453C55.9002 157.59 55.7771 157.703 55.6296 157.783C55.482 157.863 55.3149 157.907 55.144 157.91C54.888 157.908 54.6373 157.977 54.4237 158.108C54.2101 158.239 54.0433 158.426 53.9445 158.645C53.8237 159.055 53.8395 159.488 53.9898 159.889C54.0421 159.694 54.0837 159.496 54.1142 159.296C54.1241 159.12 54.1847 158.95 54.2896 158.803C54.3826 158.669 54.511 158.559 54.6626 158.485C54.8142 158.411 54.9839 158.373 55.1553 158.377C55.413 158.373 55.6633 158.297 55.8741 158.16C56.0848 158.022 56.2464 157.829 56.3379 157.605C56.4292 157.182 56.39 156.744 56.2247 156.34H56.2643ZM73.5612 120.264C73.3856 120.182 73.1918 120.139 72.9954 120.139C72.7989 120.139 72.6052 120.182 72.4296 120.264C72.0463 120.49 71.7371 120.81 71.5356 121.188C71.7223 121.088 71.892 120.962 72.0731 120.852C72.2102 120.729 72.3801 120.642 72.5653 120.6C72.7296 120.559 72.9024 120.558 73.067 120.598C73.2316 120.637 73.3824 120.716 73.5046 120.825C73.5826 120.9 73.6723 120.964 73.7705 121.014L73.5612 120.264ZM52.4507 118.73C52.3116 118.851 52.1392 118.932 51.9528 118.967C51.7847 119 51.6102 118.992 51.4459 118.946C51.2816 118.899 51.1328 118.814 51.0136 118.699C50.8279 118.533 50.5925 118.422 50.3382 118.382C50.0838 118.342 49.8223 118.374 49.5877 118.473C49.2042 118.701 48.8935 119.02 48.6881 119.397C48.8805 119.292 49.0502 119.171 49.2256 119.061C49.3658 118.939 49.5372 118.853 49.7235 118.809C49.8878 118.768 50.0606 118.768 50.2252 118.807C50.3898 118.847 50.5406 118.925 50.6628 119.035C50.8422 119.205 51.0718 119.321 51.3226 119.37C51.5734 119.418 51.834 119.397 52.0717 119.308C52.5639 119.108 52.745 118.715 52.9883 118.394C52.7563 118.494 52.5865 118.61 52.4111 118.73H52.4507Z" fill="black"/>
<path d="M68.3389 119.828C65.5098 120.048 57.9563 113.622 57.4018 109.127C57.3678 108.823 62.9241 99.1826 63.8124 97.1664C63.9935 96.7516 76.0905 105.405 76.0905 105.405C76.0905 105.405 72.888 109.122 71.366 112.645C71.2466 112.925 71.1557 113.215 71.0944 113.511C71.0944 113.548 71.0944 113.601 71.0548 113.653C70.6361 115.328 71.5131 119.591 68.3389 119.828Z" fill="#D3766A"/>
<path d="M64.6611 97.5602C63.8293 100.816 62.1602 110.161 69.6232 113.196C70.0867 113.383 70.5653 113.536 71.0547 113.653C71.0547 113.601 71.083 113.548 71.0887 113.506C71.1593 113.213 71.2539 112.925 71.3716 112.645C72.888 109.122 76.0905 105.399 76.0905 105.399C76.0905 105.399 67.4562 99.2246 64.6611 97.5602Z" fill="#263238"/>
<path d="M67.7503 81.4621C64.3837 85.4945 61.5773 99.5974 63.8745 103.772C67.2014 109.82 75.3378 113.16 81.5561 108.875C87.582 104.727 90.8863 86.2978 88.0742 82.2391C83.9268 76.2745 72.7351 75.5027 67.7503 81.4621Z" fill="#D3766A"/>
<path opacity="0.4" d="M84.753 98.1326C84.753 98.1326 84.0061 97.7598 84.0061 97.8386C84.0061 97.9173 84.2324 98.2219 84.2324 98.2534C84.2324 98.2849 84.753 98.5579 84.753 98.6156V99.86C84.753 100.317 84.5776 100.884 84.5889 101.125C84.6834 101.607 84.7383 102.095 84.753 102.585C84.6907 102.895 84.7077 105.058 84.538 105.347C84.3682 105.636 84.2834 106.922 84.6511 106.591C85.0189 106.26 84.7643 104.958 84.9001 104.701C85.0058 103.956 85.0418 103.204 85.0076 102.454C85.0076 102.112 84.8322 101.299 84.8322 101.052C84.8322 100.805 84.9793 100.002 84.9793 99.755V98.8519C84.9793 98.8519 85.3244 98.6314 85.3754 98.5106C85.5147 98.2975 85.6677 98.0923 85.8337 97.8963C85.8337 97.7756 84.9793 98.1326 84.9793 98.1326H84.753Z" fill="white"/>
<path d="M76.4071 91.2754C76.8549 91.1781 77.3083 91.1045 77.7651 91.0549C78.2291 90.9077 78.7326 90.9077 79.1966 91.0549C79.3399 91.129 79.4511 91.247 79.5109 91.3888C79.5708 91.5305 79.5757 91.6872 79.5248 91.8319C79.395 92.0973 79.1913 92.3258 78.9347 92.4938C78.6781 92.6617 78.3779 92.7631 78.065 92.7875C77.4387 92.926 76.7793 92.8437 76.2148 92.5565C76.0877 92.4854 75.9859 92.3811 75.9221 92.2568C75.8583 92.1325 75.8352 91.9935 75.8556 91.8571C75.8761 91.7207 75.9393 91.5928 76.0373 91.4894C76.1354 91.386 76.2639 91.3116 76.4071 91.2754Z" fill="#263238"/>
<path d="M87.6383 94.788C87.349 94.4548 87.0412 94.1359 86.7161 93.8324C86.444 93.4567 86.0464 93.1744 85.5845 93.0291C85.4293 93.0103 85.2718 93.0398 85.1367 93.113C85.0015 93.1861 84.8964 93.2988 84.8376 93.4334C84.7641 93.7142 84.7726 94.0082 84.8621 94.285C84.9516 94.5618 85.1189 94.8116 85.3468 95.0085C85.7475 95.4757 86.3195 95.7897 86.9537 95.8906C87.097 95.9015 87.2406 95.8744 87.3679 95.8124C87.4952 95.7505 87.6008 95.6562 87.6726 95.5406C87.7444 95.4251 87.7792 95.293 87.7732 95.1597C87.7671 95.0264 87.7203 94.8975 87.6383 94.788Z" fill="#263238"/>
<path d="M73.8666 103.152C74.0534 103.42 74.2231 103.777 74.5796 103.887C74.9529 103.958 75.3378 103.958 75.7112 103.887C75.7172 103.89 75.7224 103.894 75.726 103.899C75.7296 103.904 75.7316 103.91 75.7316 103.916C75.7316 103.922 75.7296 103.928 75.726 103.933C75.7224 103.938 75.7172 103.942 75.7112 103.945C75.52 104.098 75.2877 104.201 75.0388 104.243C74.7899 104.285 74.5336 104.263 74.2966 104.181C74.109 104.082 73.9559 103.934 73.8557 103.757C73.7554 103.579 73.7121 103.378 73.7308 103.178C73.7761 103.115 73.8666 103.11 73.8666 103.152Z" fill="#263238"/>
<path d="M76.2604 102.26C77.675 102.055 79.3102 102.559 80.3343 102.9C80.4588 102.9 80.6172 102.716 80.6625 102.617C80.6625 102.585 81.0812 100.595 81.0812 100.595C81.3358 100.784 82.6428 101.698 82.7107 101.314C83.2765 98.1642 83.8876 94.6148 83.7178 91.3385C83.7178 91.3148 83.7077 91.2921 83.6897 91.2753C83.6716 91.2586 83.6472 91.2492 83.6217 91.2492C83.5961 91.2492 83.5717 91.2586 83.5536 91.2753C83.5356 91.2921 83.5255 91.3148 83.5255 91.3385C82.8635 94.368 82.7729 97.4868 82.1619 100.537C81.7048 100.196 81.1981 99.9172 80.6568 99.7078C80.538 99.7078 80.3286 101.871 80.2098 102.186C79.0248 101.605 77.642 101.477 76.3566 101.829C75.8417 102.013 75.5645 102.359 76.2604 102.26Z" fill="#263238"/>
<path d="M84.2661 95.9851C84.2661 95.9536 84.3284 96.0428 84.3171 96.0796C84.0115 96.9354 83.8248 97.9698 84.5773 98.4843C84.5773 98.4843 84.5773 98.5421 84.5773 98.5316C83.5645 98.1325 83.8305 96.7516 84.2661 95.9851Z" fill="#263238"/>
<path d="M83.8818 97.1192C83.8519 97.3719 83.8948 97.6274 84.0063 97.8595C84.0757 97.9848 84.1716 98.0959 84.2883 98.1861C84.4049 98.2763 84.5399 98.3438 84.6853 98.3846C84.8345 98.4202 84.9907 98.4225 85.1412 98.3915C85.2916 98.3605 85.432 98.297 85.551 98.2061C85.7589 98.0469 85.922 97.8433 86.0263 97.6128C86.0925 97.4774 86.1455 97.3368 86.1847 97.1927C86.2756 96.8955 86.2911 96.5828 86.23 96.2791C86.1811 96.4983 86.1052 96.7114 86.0036 96.9144C85.9171 97.0968 85.815 97.2724 85.6981 97.4395C85.4605 97.786 85.1323 98.038 84.8041 97.9383C84.4759 97.8385 84.2836 97.5392 84.2383 97.1245C84.2292 96.6939 84.2614 96.2634 84.3345 95.8381C84.0785 96.2267 83.9235 96.6654 83.8818 97.1192Z" fill="#263238"/>
<path opacity="0.4" d="M76.1299 95.6963C76.1465 96.0024 76.2395 96.3008 76.4015 96.5679C76.606 96.7777 76.7172 97.0516 76.7127 97.3345C76.7251 97.5181 76.7251 97.7022 76.7127 97.8858C76.7127 98.2533 76.2883 99.2667 76.3393 99.7445C76.3902 100.222 76.3393 100.537 76.2374 100.663C75.6635 101.008 75.1171 101.391 74.6022 101.808C74.2741 102.196 72.9784 103.415 72.9048 103.961C72.8312 104.507 72.6445 107.111 72.6954 107.563C72.8355 108.132 72.9376 108.709 73.001 109.29C72.9448 109.701 72.9448 110.118 73.001 110.529C73.0189 110.569 73.0467 110.603 73.0822 110.631C73.1176 110.658 73.1596 110.677 73.2047 110.687C73.2839 110.687 73.3405 110.645 73.3292 110.592C73.3178 110.54 73.1424 110.45 73.1311 110.267C73.1198 110.083 73.3235 109.421 73.3235 109.216C73.3235 108.912 72.8539 107.641 72.8822 107.463C72.9105 107.284 73.1538 104.003 73.1877 103.856C73.6654 103.181 74.1969 102.54 74.7776 101.939C75.4008 101.578 75.998 101.18 76.5656 100.747C76.6655 100.37 76.6961 99.9792 76.6561 99.5922C76.6561 99.5029 76.9334 98.2481 77.0296 97.2767C77.1131 97.0354 77.288 96.8302 77.5218 96.6992C77.6508 96.6258 77.7502 96.5151 77.8047 96.3841C77.8047 96.2109 77.3351 96.2896 76.9334 96.1951C76.5316 96.1006 76.1299 95.6018 76.1299 95.6963Z" fill="white"/>
<path d="M78.4556 94.6095C78.4556 94.5727 78.3707 94.6357 78.3651 94.6725C78.201 95.5651 77.8559 96.5574 76.9279 96.6939C76.9279 96.6939 76.894 96.7412 76.9279 96.7412C78.0086 96.7989 78.4556 95.4758 78.4556 94.6095Z" fill="#263238"/>
<path d="M78.2294 95.7804C78.1315 96.0186 77.9651 96.2274 77.7484 96.3842C77.6249 96.4647 77.4847 96.5208 77.3367 96.5488C77.1887 96.5768 77.0361 96.5762 76.8884 96.5469C76.7391 96.5142 76.6001 96.4497 76.4823 96.3586C76.3645 96.2675 76.2711 96.1522 76.2094 96.0219C76.1086 95.7906 76.066 95.541 76.085 95.2921C76.0993 95.144 76.1219 94.9968 76.1528 94.851C76.2227 94.5476 76.368 94.2635 76.5772 94.0214C76.5084 94.2368 76.4666 94.4588 76.4527 94.683C76.4386 94.884 76.4386 95.0857 76.4527 95.2868C76.4923 95.6963 76.6564 96.0639 77.0185 96.1164C77.3807 96.1689 77.6805 95.9851 77.9125 95.6281C78.1428 95.2527 78.3324 94.8569 78.4783 94.4467C78.5074 94.9031 78.4222 95.3596 78.2294 95.7804Z" fill="#263238"/>
<path opacity="0.2" d="M68.1298 88.0253C66.9981 89.2907 64.5199 92.336 63.6995 92.357C64.6727 87.3795 66.1551 83.053 68.3561 80.7795C69.2644 79.8396 70.352 79.0635 71.5642 78.4903C71.2248 79.7977 69.3406 86.6969 68.1298 88.0253Z" fill="#263238"/>
<path d="M84.2381 85.3371C83.5557 85.8997 82.7298 86.2915 81.8387 86.4753C80.9476 86.659 80.0207 86.6287 79.1457 86.3872C78.2533 86.1426 77.4429 85.6906 76.7914 85.0741C76.1399 84.4575 75.6688 83.6968 75.4227 82.8641C75.4227 82.8168 75.3265 82.8325 75.3378 82.8641C75.5117 83.7616 75.946 84.5982 76.594 85.2837C77.242 85.9693 78.0793 86.4778 79.0156 86.7547C79.9501 86.9811 80.9323 86.9755 81.8638 86.7387C82.7952 86.5019 83.6433 86.0421 84.3229 85.4053C84.3852 85.3686 84.3003 85.2846 84.2381 85.3371Z" fill="#263238"/>
<path d="M80.5376 72.4995C77.4539 72.1739 74.4042 73.392 72.9953 75.193C72.2018 76.2158 71.8031 77.457 71.8637 78.7161C71.8637 78.7686 71.9768 78.7686 71.9825 78.7161C72.078 77.6229 72.4887 76.5736 73.1717 75.6785C73.8546 74.7833 74.7845 74.0751 75.864 73.6283C77.0486 73.1033 78.3484 72.8405 79.6611 72.8606C80.9737 72.8806 82.2634 73.183 83.4289 73.7438C84.5678 74.2682 85.4698 75.1499 85.975 76.2326C86.0203 76.3428 86.2579 76.3061 86.224 76.1958C85.6808 74.3161 83.327 72.7935 80.5376 72.4995Z" fill="#263238"/>
<path d="M97.4668 80.937C97.1751 79.4656 96.3287 78.1386 95.079 77.1934C93.3533 75.8702 91.1976 75.76 89.0531 75.6917C89.0411 75.6917 89.0296 75.6961 89.0211 75.704C89.0127 75.7119 89.0079 75.7226 89.0079 75.7337C89.0079 75.7449 89.0127 75.7555 89.0211 75.7634C89.0296 75.7713 89.0411 75.7757 89.0531 75.7757C90.8751 75.8387 92.7253 76.0067 94.2643 76.9991C95.537 77.8173 96.4679 79.0167 96.901 80.3962C97.2985 81.8105 97.1343 83.3104 96.4382 84.6215C95.7421 85.9327 94.5607 86.9676 93.11 87.5369C92.2662 87.8442 91.3634 87.9879 90.4574 87.959C89.5514 87.9301 88.6614 87.7293 87.8423 87.3689C87.7744 87.3427 87.7122 87.4267 87.7801 87.4582C88.8823 87.9908 90.1226 88.228 91.3619 88.143C92.6013 88.0581 93.7906 87.6544 94.7965 86.9772C95.8024 86.3 96.585 85.3762 97.0567 84.3093C97.5284 83.2424 97.6704 82.0746 97.4668 80.937Z" fill="#263238"/>
<path d="M65.8664 84.812C65.8664 84.812 63.7277 79.3357 66.6133 76.7052C68.2485 75.214 72.792 76.0331 72.792 76.0331C73.5231 75.2727 74.4088 74.6536 75.3981 74.2113C76.3874 73.7689 77.4611 73.5119 78.5576 73.4551C82.5183 73.1453 86.7619 75.8178 86.7619 75.8178C86.7619 75.8178 90.7225 74.3634 93.8345 76.6212C98.2082 79.7715 96.59 86.4082 91.4751 87.9466C87.8822 89.023 83.7348 85.6626 83.7348 85.6626C83.2878 85.6626 78.4105 87.5843 75.5814 83.4154C75.5814 83.4154 72.4695 85.3318 70.2345 83.4154C69.7471 84.0341 69.0673 84.4996 68.2864 84.7492C67.5056 84.9989 66.6611 85.0208 65.8664 84.812Z" fill="#263238"/>
<path d="M66.3813 93.2601C66.3813 93.2601 64.797 87.894 62.2848 88.2668C59.7726 88.6396 59.8123 95.6753 61.951 97.345C62.2094 97.5763 62.5156 97.7568 62.8511 97.8756C63.1866 97.9945 63.5445 98.0491 63.9033 98.0364C64.2621 98.0236 64.6145 97.9437 64.9392 97.8015C65.2639 97.6592 65.5543 97.4575 65.7929 97.2085L66.3813 93.2601Z" fill="#D3766A"/>
<path d="M62.3523 90.283C62.3444 90.2816 62.3363 90.2824 62.329 90.2853C62.3217 90.2882 62.3155 90.2931 62.3112 90.2994C62.3069 90.3056 62.3048 90.3129 62.3051 90.3203C62.3053 90.3277 62.308 90.3348 62.3127 90.3408C63.7951 91.5642 64.1289 93.3546 64.1742 95.1083C63.8856 94.3417 63.3141 93.7851 62.2391 94.0582C62.2278 94.0616 62.2179 94.0683 62.2109 94.0773C62.204 94.0862 62.2002 94.097 62.2002 94.1081C62.2002 94.1191 62.204 94.1299 62.2109 94.1388C62.2179 94.1478 62.2278 94.1545 62.2391 94.1579C62.576 94.1677 62.9015 94.2738 63.1709 94.4618C63.4403 94.6498 63.6405 94.9104 63.7442 95.208C63.914 95.7097 64.0221 96.2275 64.0667 96.7517C64.095 96.9197 64.4005 96.9355 64.4062 96.7517V96.7097C65.2492 94.704 64.6381 91.2754 62.3523 90.283Z" fill="#263238"/>
<path d="M164.527 121.182C166.224 123.645 164.131 125.966 164.131 125.966C165.547 126.596 166.682 127.666 167.339 128.99C168.38 131.368 164.81 133.926 164.81 133.926C166.127 134.861 167.113 136.141 167.639 137.601C168.386 139.974 165.183 143.03 165.183 143.03C165.892 144.521 165.997 146.199 165.477 147.755C163.927 151.846 156.99 153.289 152.56 154.25C148.13 155.211 134.658 154.103 132.066 154.135L125.175 127.882C125.175 127.882 143.643 118.352 149.001 117.906C153.522 117.56 162.62 118.415 164.527 121.182Z" fill="#D3766A"/>
<path d="M163.831 125.593C158.925 124.921 154.076 125.635 149.188 126.092C149.165 126.092 149.144 126.1 149.128 126.115C149.112 126.13 149.103 126.15 149.103 126.171C149.103 126.191 149.112 126.211 149.128 126.226C149.144 126.241 149.165 126.249 149.188 126.249C154.042 125.724 158.942 126.134 163.808 125.808C163.836 125.806 163.861 125.794 163.881 125.776C163.9 125.758 163.912 125.735 163.915 125.709C163.917 125.684 163.911 125.658 163.895 125.637C163.88 125.616 163.857 125.6 163.831 125.593Z" fill="#263238"/>
<path d="M164.628 133.605C163.49 133.551 162.348 133.636 161.233 133.857C160.053 134.025 158.872 134.211 157.691 134.414C155.338 134.816 152.991 135.277 150.653 135.795C150.551 135.795 150.562 135.968 150.653 135.947C153.001 135.548 155.36 135.18 157.725 134.897C158.908 134.739 160.096 134.598 161.284 134.461C162.413 134.4 163.53 134.224 164.617 133.936C164.664 133.937 164.71 133.921 164.745 133.891C164.779 133.861 164.799 133.82 164.801 133.776C164.802 133.732 164.785 133.689 164.753 133.657C164.72 133.625 164.676 133.607 164.628 133.605Z" fill="#263238"/>
<path d="M165.087 143.056C164.125 142.915 163.01 143.256 162.066 143.434C160.998 143.641 159.927 143.84 158.852 144.033C156.707 144.421 154.563 144.81 152.407 145.13C152.3 145.13 152.317 145.303 152.407 145.288C154.603 144.973 156.798 144.689 158.993 144.353C160.068 144.192 161.143 144.017 162.218 143.828C163.129 143.681 164.289 143.592 165.093 143.135C165.098 143.13 165.103 143.123 165.106 143.116C165.108 143.109 165.11 143.102 165.109 143.094C165.109 143.087 165.106 143.08 165.102 143.073C165.099 143.067 165.093 143.061 165.087 143.056Z" fill="#263238"/>
<path d="M132.072 154.119C118.594 154.823 86.0541 159.706 78.1836 156.109C71.0374 152.828 59.3704 139.087 50.0288 125.698C45.044 118.573 47.047 113.259 55.7548 116.982C64.8078 120.852 82.9138 135.643 84.8545 136.409C87.3894 137.422 121.502 128.959 127.37 126.759C131.625 125.189 134.793 153.972 132.072 154.119Z" fill="#D3766A"/>
<path d="M130.753 156.02L125.304 126.559C125.304 126.559 88.617 136.845 84.6676 135.558C82.5345 134.865 65.8148 122.038 57.6445 117.008C49.9947 112.283 43.8387 115.391 48.931 125.462C55.4208 138.289 72.48 155.594 78.7549 158.325C83.553 160.414 130.753 156.02 130.753 156.02Z" fill="#47D163"/>
<g opacity="0.2">
<path d="M60.9548 126.186C61.1137 126.282 61.2974 126.336 61.4867 126.344C61.696 126.386 61.911 126.407 62.143 126.459C61.7114 126.6 61.2439 126.617 60.802 126.506C60.5659 126.413 60.3647 126.257 60.2237 126.058C60.0828 125.859 60.0084 125.626 60.0099 125.388C60.0073 125.231 59.9612 125.077 59.876 124.941C59.7908 124.804 59.6693 124.691 59.5233 124.611C59.3526 124.515 59.157 124.464 58.9575 124.464C58.7425 124.422 58.5331 124.401 58.3181 124.348C58.7508 124.216 59.2141 124.194 59.6591 124.285C59.9008 124.369 60.1097 124.519 60.2581 124.715C60.4066 124.91 60.4877 125.143 60.4908 125.383C60.4894 125.542 60.5312 125.699 60.6123 125.839C60.6933 125.98 60.8111 126.099 60.9548 126.186Z" fill="black"/>
<path d="M84.9678 138.787C85.1242 138.884 85.3063 138.938 85.494 138.945V138.971C85.7091 139.013 85.9184 139.034 86.156 139.097C85.7245 139.238 85.2569 139.255 84.8151 139.144C84.5789 139.051 84.3777 138.895 84.2368 138.696C84.0958 138.497 84.0214 138.264 84.0229 138.026C84.0186 137.868 83.9711 137.713 83.8851 137.576C83.799 137.439 83.6771 137.325 83.5307 137.244C83.3671 137.156 83.1823 137.107 82.9932 137.102C82.7782 137.06 82.5631 137.039 82.3538 136.986C82.7759 136.845 83.2309 136.811 83.6721 136.887C83.9139 136.97 84.1227 137.12 84.2712 137.316C84.4196 137.512 84.5007 137.745 84.5039 137.984C84.5003 138.144 84.5412 138.301 84.6224 138.442C84.7037 138.583 84.8227 138.702 84.9678 138.787Z" fill="black"/>
<path d="M89.701 157.348C89.8493 157.544 89.931 157.776 89.9357 158.015V158.041C89.9334 158.188 89.9692 158.334 90.0401 158.465C90.111 158.597 90.2149 158.711 90.343 158.797H89.732C89.5368 158.579 89.4306 158.304 89.4321 158.02C89.4284 157.862 89.3812 157.708 89.295 157.572C89.2088 157.436 89.0866 157.323 88.9398 157.243C88.7782 157.15 88.5925 157.099 88.4023 157.096C88.1873 157.059 87.9723 157.033 87.7629 156.981C88.1957 156.848 88.659 156.826 89.1039 156.918C89.3448 157.002 89.5528 157.152 89.701 157.348Z" fill="black"/>
<path d="M106.044 144.91C106.203 145.007 106.386 145.063 106.576 145.072V145.099C106.791 145.135 107.001 145.156 107.238 145.183C106.807 145.324 106.339 145.34 105.897 145.23C105.661 145.138 105.46 144.983 105.319 144.785C105.178 144.587 105.103 144.354 105.105 144.117C105.102 143.958 105.055 143.803 104.969 143.666C104.882 143.529 104.76 143.415 104.613 143.334C104.441 143.24 104.246 143.189 104.047 143.187C103.838 143.151 103.623 143.13 103.413 143.077C103.845 142.94 104.309 142.916 104.754 143.009C104.995 143.094 105.203 143.244 105.351 143.439C105.5 143.635 105.581 143.867 105.586 144.106C105.582 144.265 105.622 144.423 105.702 144.563C105.782 144.704 105.9 144.823 106.044 144.91Z" fill="black"/>
</g>
<path d="M120.495 129.557C120.722 133.652 121.271 137.753 121.933 141.812C122.255 143.807 122.6 145.797 123.008 147.776C123.426 149.84 123.986 151.872 124.456 153.925C124.461 153.942 124.471 153.956 124.486 153.967C124.501 153.978 124.519 153.983 124.538 153.983C124.557 153.983 124.575 153.978 124.59 153.967C124.605 153.956 124.615 153.942 124.62 153.925C124.286 151.861 124.054 149.772 123.754 147.703C123.455 145.634 123.092 143.697 122.787 141.712C122.125 137.653 121.486 133.579 120.648 129.547C120.642 129.531 120.631 129.518 120.617 129.509C120.602 129.5 120.585 129.496 120.567 129.497C120.55 129.498 120.533 129.505 120.52 129.516C120.507 129.527 120.499 129.541 120.495 129.557Z" fill="#263238"/>
<path d="M76.0736 129.967C75.4568 129.478 74.891 128.916 74.2573 128.46L73.1653 127.63C73.1661 127.625 73.1657 127.619 73.1641 127.614C73.1624 127.609 73.1597 127.605 73.1559 127.601C73.1521 127.597 73.1475 127.593 73.1423 127.591C73.1371 127.589 73.1314 127.588 73.1257 127.588H73.0974L72.905 127.441C72.8767 127.404 72.8541 127.368 72.8258 127.336C72.7492 127.234 72.666 127.135 72.5768 127.042C72.3958 126.842 72.2204 126.638 72.011 126.443C71.6263 126.06 71.2472 125.682 70.8794 125.288C71.2585 125.745 71.6037 126.223 72.011 126.674L72.1978 126.885C71.0039 126.008 69.7704 125.21 68.5256 124.406V124.438C69.7138 125.441 70.8907 126.438 72.1638 127.357C72.7862 127.814 73.4142 128.26 74.0423 128.712C74.6703 129.163 75.4002 129.573 76.0566 130.024C76.0566 130.056 76.1301 130.003 76.0736 129.967Z" fill="#263238"/>
<path d="M81.4994 158.719C81.1769 158.635 79.802 158.435 79.4625 158.299C77.2615 157.416 73.2386 154.145 72.3163 153.337C70.4491 151.709 68.663 150.008 66.958 148.233C63.5236 144.673 60.4229 140.882 57.2657 137.097C55.4834 134.965 53.7407 132.797 52.0206 130.618C52.0206 130.576 51.9188 130.618 51.9527 130.66C53.7577 133.18 55.5287 135.721 57.3789 138.215L56.5188 137.412C55.7833 136.729 55.0307 136.062 54.2556 135.438C54.2216 135.411 54.182 135.438 54.2103 135.485C55.11 136.477 56.0945 137.396 57.0846 138.315C57.3279 138.535 57.5656 138.761 57.8202 138.977L58.1823 139.286L58.2446 139.339C59.0706 140.431 59.9137 141.518 60.785 142.584C63.8731 146.432 67.3025 150.034 71.0376 153.353C72.0639 154.304 73.1666 155.182 74.3362 155.978C76.2826 157.212 78.0253 158.53 79.3097 158.818C80.0352 158.88 80.766 158.866 81.4881 158.776C81.4936 158.774 81.4983 158.77 81.502 158.766C81.5057 158.761 81.5082 158.756 81.5093 158.75C81.5104 158.744 81.51 158.739 81.5083 158.733C81.5066 158.728 81.5036 158.723 81.4994 158.719Z" fill="#263238"/>
<path d="M42 51.0247H180.409C180.409 51.0247 178.361 46.9608 175.548 44.9236C172.736 42.8864 168.623 44.9236 168.623 44.9236C168.623 44.9236 169.081 41.3007 166.62 39.2635C165.916 38.6784 165.057 38.278 164.131 38.1035C163.205 37.9291 162.246 37.987 161.352 38.2711C161.352 38.2711 163.35 29.4975 156.599 24.1209C148.989 18.0566 142.33 22.9081 142.33 22.9081C142.33 22.9081 142.986 20.0413 140.842 18.1826C140.254 17.6582 139.506 17.3163 138.7 17.2043C137.894 17.0923 137.07 17.2159 136.343 17.5578C136.343 17.5578 133.984 2.85627 121.519 0.798055C107.521 -1.53843 101.62 12.9373 101.62 12.9373C101.62 12.9373 97.0931 7.45574 90.9936 9.57171C85.6128 11.4304 85.5505 19.2222 85.5505 19.2222C85.5505 19.2222 82.2745 16.954 79.5755 18.4346C76.8766 19.9153 76.9841 23.1023 76.9841 23.1023C75.2816 22.4727 73.4478 22.208 71.6197 22.328C69.7915 22.4481 68.0161 22.9497 66.4261 23.7954C60.8528 26.6937 61.9845 33.1046 61.9845 33.1046C61.9845 33.1046 58.9008 32.5166 56.994 34.2072C55.0872 35.8979 55.7719 38.3552 55.7719 38.3552C54.759 38.131 53.7074 38.1016 52.6818 38.2686C51.6562 38.4357 50.6783 38.7957 49.8082 39.3265C46.9791 41.1432 47.4601 46.1207 47.4601 46.1207C47.4601 46.1207 43.5899 46.336 42 51.0247Z" fill="#C7C7C7"/>
<path d="M123.347 65.5214C120.246 65.5214 120.422 62.2189 121.847 58.9215C122.311 57.8714 122.617 56.9631 123.347 55.5507C124.077 56.9631 124.382 57.8609 124.846 58.9215C126.272 62.2189 126.447 65.5214 123.347 65.5214Z" fill="#C7C7C7"/>
<path d="M134.408 102.506C131.308 102.506 131.483 99.2037 132.909 95.9064C133.373 94.8563 133.678 93.9479 134.408 92.5408C135.138 93.9479 135.444 94.8458 135.908 95.9064C137.345 99.1827 137.52 102.506 134.408 102.506Z" fill="#DBDBDB"/>
<path d="M155.479 77.6187C152.379 77.6187 152.554 74.3161 153.98 71.0187C154.444 69.9686 154.749 69.0603 155.479 67.6479C156.209 69.0603 156.515 69.9581 156.979 71.0187C158.405 74.3161 158.58 77.6187 155.479 77.6187Z" fill="#DBDBDB"/>
<path d="M172.188 123.886C169.082 123.886 169.257 120.589 170.688 117.287C171.147 116.236 171.452 115.328 172.188 113.921C172.912 115.328 173.218 116.226 173.682 117.287C175.113 120.589 175.289 123.886 172.188 123.886Z" fill="#C7C7C7"/>
<path d="M87.6837 80.0235C84.5831 80.0235 84.7585 76.7262 86.1843 73.4236C86.6483 72.3735 86.9538 71.4651 87.6837 70.058C88.4136 71.4651 88.7192 72.363 89.1831 73.4236C90.609 76.7262 90.7844 80.0235 87.6837 80.0235Z" fill="#C7C7C7"/>
<path d="M50.2272 63.5106C47.1265 63.5106 47.3019 60.208 48.7278 56.9054C49.1918 55.8553 49.4973 54.9469 50.2272 53.5398C50.9571 54.9469 51.2626 55.8448 51.7266 56.9054C53.1524 60.208 53.3278 63.5106 50.2272 63.5106Z" fill="#DBDBDB"/>
<path d="M28.3922 106.449C25.2916 106.449 25.467 103.147 26.8928 99.8495C27.3568 98.7993 27.6623 97.891 28.3922 96.4786C29.1221 97.891 29.4277 98.7888 29.8916 99.8495C31.3175 103.147 31.4929 106.449 28.3922 106.449Z" fill="#DBDBDB"/>
</svg>
