<svg width="151" height="151" viewBox="0 0 151 151" fill="none" xmlns="http://www.w3.org/2000/svg">
<path d="M138.733 89.8133V105.422C138.733 106.779 138.194 108.08 137.234 109.04C136.275 109.999 134.974 110.538 133.617 110.538H77.6477C76.2915 110.537 74.9913 109.998 74.0326 109.038C73.074 108.079 72.5355 106.778 72.5355 105.422V92.2314L65.5647 84.9109L133.602 84.7011C134.275 84.6987 134.942 84.8292 135.564 85.085C136.187 85.3408 136.752 85.717 137.229 86.1919C137.706 86.6669 138.084 87.2313 138.342 87.8527C138.6 88.4742 138.733 89.1404 138.733 89.8133Z" fill="#F5F5F5"/>
<path d="M80.7835 94.1563L131.574 93.9208L131.567 92.3602L80.7798 92.5958L80.7835 94.1563Z" fill="#E6E6E6"/>
<path d="M80.7835 99.2906L131.574 99.0588L131.567 97.4982L80.7798 97.7301L80.7835 99.2906Z" fill="#E6E6E6"/>
<path d="M100.869 102.642L80.7738 102.74L80.7814 104.301L100.877 104.203L100.869 102.642Z" fill="#E6E6E6"/>
<path d="M39.54 0.311279H72.5503C72.9369 0.311279 73.3198 0.387438 73.677 0.535407C74.0343 0.683377 74.3588 0.900258 74.6322 1.17367C74.9057 1.44708 75.1225 1.77167 75.2705 2.1289C75.4185 2.48613 75.4946 2.869 75.4946 3.25567V19.4167C75.4946 20.1976 75.1844 20.9465 74.6322 21.4987C74.0801 22.0508 73.3312 22.3611 72.5503 22.3611H44.5381C43.7572 22.3611 43.0083 22.0508 42.4561 21.4987C41.9039 20.9465 41.5937 20.1976 41.5937 19.4167V2.35027L39.54 0.311279Z" fill="#F5F5F5"/>
<path d="M81.0117 29.7036V35.5041C81.0117 35.8945 81.1668 36.269 81.4429 36.5451C81.719 36.8212 82.0935 36.9763 82.4839 36.9763H114.894C115.285 36.9763 115.659 36.8212 115.935 36.5451C116.211 36.269 116.366 35.8945 116.366 35.5041V32.3352L120.087 28.3529L82.4876 28.2314C82.294 28.231 82.1021 28.2687 81.9231 28.3425C81.744 28.4162 81.5813 28.5246 81.4442 28.6613C81.3071 28.7981 81.1983 28.9606 81.1241 29.1394C81.0499 29.3183 81.0117 29.51 81.0117 29.7036Z" fill="#F0F0F0"/>
<path d="M59.1643 18.1653V28.5186C59.1648 28.964 59.0775 29.4052 58.9074 29.8169C58.7372 30.2286 58.4876 30.6027 58.1728 30.9178C57.858 31.233 57.4842 31.483 57.0727 31.6536C56.6612 31.8242 56.2201 31.912 55.7746 31.912H18.6385C18.1931 31.912 17.752 31.8242 17.3405 31.6536C16.929 31.483 16.5551 31.233 16.2403 30.9178C15.9255 30.6027 15.6759 30.2286 15.5058 29.8169C15.3356 29.4052 15.2483 28.964 15.2488 28.5186V19.7737L10.6371 14.9155L55.7636 14.7756C56.2096 14.7742 56.6516 14.8608 57.0642 15.0305C57.4767 15.2002 57.8517 15.4496 58.1676 15.7645C58.4835 16.0794 58.7342 16.4536 58.9053 16.8656C59.0763 17.2776 59.1643 17.7193 59.1643 18.1653Z" fill="#E0E0E0"/>
<path d="M20.7327 21.0471L54.4165 20.8926L54.4128 19.8583L20.729 20.0129L20.7327 21.0471Z" fill="#F0F0F0"/>
<path d="M20.7327 24.4553L54.4165 24.297L54.4128 23.2628L20.729 23.4174L20.7327 24.4553Z" fill="#F0F0F0"/>
<path d="M34.0511 26.6767L20.7242 26.7418L20.7292 27.776L34.0561 27.7109L34.0511 26.6767Z" fill="#F0F0F0"/>
<path d="M4.45026 52.3313V67.9439C4.45026 68.6155 4.58262 69.2806 4.83976 69.9011C5.0969 70.5216 5.47379 71.0853 5.94889 71.5601C6.42399 72.0348 6.98799 72.4113 7.60866 72.668C8.22932 72.9247 8.89448 73.0566 9.56614 73.0561H65.5353C66.2069 73.0566 66.8721 72.9247 67.4928 72.668C68.1134 72.4113 68.6774 72.0348 69.1525 71.5601C69.6276 71.0853 70.0045 70.5216 70.2617 69.9011C70.5188 69.2806 70.6512 68.6155 70.6512 67.9439V54.753L77.6183 47.4325L9.58086 47.208C8.90718 47.2061 8.23974 47.3372 7.61687 47.5939C6.99401 47.8506 6.42797 48.2278 5.95126 48.7038C5.47455 49.1798 5.09655 49.7453 4.83897 50.3678C4.58139 50.9903 4.44929 51.6576 4.45026 52.3313Z" fill="#F0F0F0"/>
<path d="M62.3995 56.6743L11.6088 56.4424L11.6162 54.8819L62.4032 55.1137L62.3995 56.6743Z" fill="#E6E6E6"/>
<path d="M62.3995 61.8122L11.6088 61.5766L11.6162 60.0161L62.4032 60.2517L62.3995 61.8122Z" fill="#E6E6E6"/>
<path d="M42.3055 65.1535L42.2979 66.7141L62.3931 66.8123L62.4007 65.2518L42.3055 65.1535Z" fill="#E6E6E6"/>
<path d="M114.327 15.5459C115.867 12.122 114.34 8.0978 110.916 6.55761C107.493 5.01742 103.468 6.54444 101.928 9.96833C100.388 13.3922 101.915 17.4164 105.339 18.9566C108.763 20.4968 112.787 18.9697 114.327 15.5459Z" fill="#F5F5F5"/>
<path d="M105.781 11.0436C106.035 11.0215 106.271 11.3049 106.3 11.6766C106.33 12.0484 106.149 12.3686 105.892 12.3907C105.634 12.4127 105.399 12.1257 105.369 11.7539C105.34 11.3822 105.524 11.062 105.781 11.0436Z" fill="#E0E0E0"/>
<path d="M106.378 9.32112C105.968 9.37174 105.563 9.45419 105.167 9.56771C104.791 9.73934 104.429 9.93991 104.085 10.1676C104.335 9.80914 104.688 9.53582 105.098 9.38448C105.508 9.23313 105.955 9.21102 106.378 9.32112Z" fill="#E0E0E0"/>
<path d="M110.102 10.9553C109.841 10.9553 109.62 11.235 109.605 11.6104C109.591 11.9858 109.786 12.2913 110.047 12.3023C110.308 12.3134 110.526 12.0189 110.54 11.6472C110.555 11.2755 110.36 10.9626 110.102 10.9553Z" fill="#E0E0E0"/>
<path d="M109.432 9.25855C109.848 9.12972 110.294 9.13119 110.709 9.26276C111.124 9.39434 111.489 9.64972 111.755 9.99465C111.403 9.77911 111.033 9.59322 110.651 9.43889C110.25 9.34846 109.842 9.28818 109.432 9.25855Z" fill="#E0E0E0"/>
<path d="M111.479 12.6851C111.482 12.8095 111.465 12.9336 111.431 13.0531C111.344 13.3801 111.205 13.6909 111.019 13.9732C110.752 14.3981 110.4 14.7629 109.985 15.0443C109.477 15.4035 108.878 15.6115 108.257 15.6441C107.637 15.6767 107.019 15.5325 106.477 15.2283C106.033 14.9902 105.644 14.6632 105.332 14.2677C105.124 14.0037 104.96 13.7079 104.847 13.3917C104.795 13.2755 104.766 13.1506 104.762 13.0237C104.939 13.4329 105.167 13.8177 105.443 14.1683C105.748 14.5349 106.123 14.8366 106.547 15.0553C107.062 15.3341 107.643 15.4654 108.227 15.4349C108.812 15.4044 109.377 15.2132 109.859 14.8823C110.262 14.6209 110.609 14.2818 110.879 13.8849C111.129 13.5119 111.33 13.1088 111.479 12.6851Z" fill="#E0E0E0"/>
<path d="M14.7188 89.1656H15.6941L17.8435 86.3021V84.4214C17.8435 84.4214 19.3636 84.3331 19.1869 86.7953C19.0103 89.2576 19.1869 88.6356 19.1869 88.6356C19.1869 88.6356 22.4147 88.6356 22.6834 88.9153C22.8784 89.1104 22.9668 92.1799 22.9999 93.8435C23.016 94.2525 22.8931 94.6549 22.6511 94.9851C22.4092 95.3153 22.0625 95.5538 21.6676 95.6616C21.5469 95.6901 21.4235 95.7049 21.2995 95.7058C20.534 95.6874 16.4302 95.0543 16.4302 95.0543H14.7188V89.1656Z" fill="#F0F0F0"/>
<path d="M11.9032 88.6392L12.5068 95.0764H14.1925V88.768L11.9032 88.6392Z" fill="#F0F0F0"/>
<path d="M150.032 33.1927C149.8 32.9441 149.48 32.7961 149.14 32.7803C148.8 32.7645 148.468 32.8821 148.214 33.1081C147.961 33.3101 147.756 33.5652 147.613 33.8552C147.47 34.1452 147.392 34.4631 147.386 34.7864C147.326 34.4627 147.196 34.156 147.005 33.8877C146.815 33.6194 146.567 33.3961 146.281 33.2332C145.997 33.0415 145.65 32.9681 145.312 33.0286C144.975 33.0891 144.674 33.2787 144.474 33.5571C144.258 33.9391 144.193 34.388 144.29 34.8158C144.354 35.2475 144.535 35.6535 144.813 35.9899C145.832 37.072 146.359 37.2449 147.621 37.9774C148.769 37.0867 149.141 36.8732 150.002 35.6476C150.235 35.2776 150.362 34.8514 150.37 34.4147C150.412 33.9796 150.291 33.5446 150.032 33.1927Z" fill="#F0F0F0"/>
<path d="M89.3848 132.496L51.0783 132.316C49.9828 132.311 48.8988 132.091 47.8884 131.668C46.878 131.244 45.9608 130.626 45.1894 129.848C44.418 129.07 43.8074 128.148 43.3925 127.134C42.9776 126.12 42.7666 125.034 42.7714 123.939L43.18 27.9039C43.1926 25.6926 44.0822 23.5766 45.6534 22.0206C47.2247 20.4646 49.3491 19.5956 51.5604 19.6044L89.8669 19.781C92.0795 19.7918 94.1973 20.6805 95.755 22.2519C97.3126 23.8233 98.1826 25.9489 98.1738 28.1615L97.7689 124.185C97.7582 126.399 96.8691 128.518 95.297 130.076C93.7249 131.634 91.5984 132.505 89.3848 132.496Z" fill="#263238"/>
<path d="M89.8117 23.0861L82.3845 23.053C82.1422 23.0568 81.903 23.1085 81.6807 23.205C81.4584 23.3015 81.2574 23.441 81.0891 23.6154C80.9209 23.7898 80.7887 23.9957 80.7003 24.2213C80.6118 24.4469 80.5688 24.6878 80.5737 24.9301V26.2771C80.5785 26.5194 80.5355 26.7603 80.4471 26.9859C80.3586 27.2115 80.2265 27.4174 80.0582 27.5918C79.89 27.7662 79.6889 27.9057 79.4666 28.0022C79.2443 28.0987 79.0052 28.1503 78.7629 28.1542L64.2765 28.0879C64.0338 28.0822 63.7947 28.0285 63.5729 27.93C63.3511 27.8315 63.1509 27.6901 62.984 27.5139C62.8171 27.3378 62.6866 27.1303 62.6002 26.9035C62.5138 26.6767 62.4731 26.4351 62.4804 26.1925V24.8454C62.4877 24.6028 62.447 24.3612 62.3606 24.1344C62.2742 23.9076 62.1437 23.7001 61.9768 23.5239C61.8099 23.3478 61.6097 23.2063 61.3879 23.1078C61.1661 23.0093 60.927 22.9557 60.6843 22.95H58.0712L51.5825 22.9168C50.815 22.9134 50.0543 23.0613 49.3439 23.3519C48.6335 23.6424 47.9873 24.0701 47.4422 24.6104C46.897 25.1508 46.4637 25.7932 46.1668 26.501C45.87 27.2088 45.7155 27.9682 45.7121 28.7357L45.3146 122.47C45.3087 124.02 45.9183 125.509 47.0093 126.61C48.1003 127.71 49.5837 128.333 51.1335 128.341L89.3627 128.517C90.1302 128.521 90.8909 128.373 91.6013 128.082C92.3117 127.792 92.9579 127.364 93.503 126.824C94.0481 126.283 94.4815 125.641 94.7783 124.933C95.0751 124.225 95.2297 123.466 95.233 122.698L95.6305 28.9639C95.6344 28.1959 95.487 27.4346 95.1966 26.7236C94.9063 26.0125 94.4788 25.3657 93.9385 24.8199C93.3981 24.2741 92.7556 23.84 92.0475 23.5426C91.3394 23.2451 90.5797 23.09 89.8117 23.0861Z" fill="white"/>
<path d="M68.7998 116.681C68.7998 116.84 68.7528 116.995 68.6646 117.127C68.5764 117.259 68.4511 117.361 68.3045 117.422C68.1579 117.483 67.9966 117.499 67.8409 117.468C67.6853 117.437 67.5423 117.36 67.4301 117.248C67.3179 117.136 67.2415 116.993 67.2105 116.837C67.1796 116.682 67.1955 116.52 67.2562 116.374C67.3169 116.227 67.4198 116.102 67.5517 116.014C67.6837 115.926 67.8388 115.878 67.9975 115.878C68.21 115.879 68.4135 115.964 68.5637 116.115C68.714 116.265 68.7988 116.468 68.7998 116.681Z" fill="#455A64"/>
<path d="M71.8473 116.681C71.8473 116.84 71.8002 116.995 71.7121 117.127C71.6239 117.259 71.4986 117.361 71.352 117.422C71.2054 117.483 71.0441 117.499 70.8884 117.468C70.7328 117.437 70.5898 117.36 70.4776 117.248C70.3654 117.136 70.289 116.993 70.258 116.837C70.2271 116.682 70.243 116.52 70.3037 116.374C70.3644 116.227 70.4673 116.102 70.5992 116.014C70.7311 115.926 70.8863 115.878 71.045 115.878C71.2575 115.879 71.461 115.964 71.6112 116.115C71.7615 116.265 71.8463 116.468 71.8473 116.681Z" fill="#455A64"/>
<path d="M74.8947 116.681C74.8947 116.84 74.8477 116.995 74.7595 117.127C74.6713 117.259 74.546 117.361 74.3994 117.422C74.2528 117.483 74.0915 117.499 73.9359 117.468C73.7802 117.437 73.6373 117.36 73.525 117.248C73.4128 117.136 73.3364 116.993 73.3055 116.837C73.2745 116.682 73.2904 116.52 73.3511 116.374C73.4118 116.227 73.5147 116.102 73.6466 116.014C73.7786 115.926 73.9337 115.878 74.0924 115.878C74.3049 115.879 74.5084 115.964 74.6587 116.115C74.8089 116.265 74.8938 116.468 74.8947 116.681Z" fill="#455A64"/>
<path d="M52.834 49.236C52.834 49.236 52.834 49.1698 52.834 49.0336C52.8621 48.4996 53.0506 47.9865 53.375 47.5614C53.6436 47.1954 53.999 46.902 54.4092 46.7075C54.9324 46.475 55.5063 46.38 56.0765 46.4315H63.0399L92.4838 46.4904H92.701L92.5501 46.6486L88.7776 50.6162L88.8034 50.5536V57.1233C88.8298 57.5611 88.7976 58.0005 88.7077 58.4299C88.5947 58.86 88.3815 59.2572 88.0857 59.5892C87.7956 59.9204 87.4328 60.1799 87.0257 60.3474C86.6207 60.5067 86.1871 60.5806 85.7522 60.5645H73.7391L57.6517 60.5314H55.9587C55.4168 60.5729 54.8734 60.4754 54.3798 60.248C53.9309 60.0311 53.5474 59.6992 53.2681 59.2862C52.9889 58.8732 52.8239 58.3936 52.7898 57.8962C52.7898 56.0559 52.7898 54.5065 52.7898 53.222C52.7898 51.9375 52.7898 50.9511 52.8082 50.2776C52.8082 49.9427 52.8082 49.6887 52.8082 49.5084C52.8082 49.328 52.8082 49.2471 52.8082 49.2471C52.8082 49.2471 52.8082 49.3354 52.8082 49.5084C52.8082 49.6814 52.8082 49.9427 52.8082 50.2776C52.8082 50.9585 52.8082 51.9522 52.8082 53.222C52.8082 54.4917 52.8082 56.0744 52.834 57.8888C52.8693 58.3661 53.0302 58.8255 53.3003 59.2204C53.5705 59.6153 53.9404 59.9318 54.3724 60.1376C54.8491 60.3555 55.3739 60.4468 55.8961 60.4026H57.6517L73.7575 60.3842H83.2679H85.7633C86.1729 60.401 86.5816 60.3321 86.9631 60.1818C87.3438 60.0249 87.6837 59.7832 87.9568 59.4751C88.2314 59.1651 88.4282 58.7942 88.531 58.3931C88.6178 57.9795 88.6487 57.5561 88.623 57.1343V50.5205L88.6488 50.4947L92.4249 46.5272L92.4949 46.6854L63.051 46.5603L58.1044 46.5345H56.0838C55.5264 46.4797 54.9642 46.567 54.4497 46.7885C54.046 46.9749 53.6945 47.2581 53.4265 47.6129C53.2281 47.8718 53.0762 48.1632 52.9775 48.4742C52.9062 48.7231 52.8582 48.9782 52.834 49.236Z" fill="#455A64"/>
<path d="M84.2321 51.5915L56.7131 51.4627L56.7168 50.6162L84.2321 50.745V51.5915Z" fill="#455A64"/>
<path d="M84.2321 54.3739L56.7131 54.2451L56.7168 53.3986L84.2321 53.5274V54.3739Z" fill="#455A64"/>
<path d="M73.3417 56.1834L73.3376 57.0299L84.2243 57.0831L84.2285 56.2366L73.3417 56.1834Z" fill="#455A64"/>
<path d="M90.2461 67.874V76.3391C90.2461 77.0735 89.9546 77.7779 89.4356 78.2975C88.9167 78.8171 88.2127 79.1095 87.4783 79.1105H57.1511C56.4161 79.1105 55.7112 78.8185 55.1915 78.2988C54.6717 77.7791 54.3797 77.0741 54.3797 76.3391V69.1879L50.6072 65.2204L87.4636 65.1063C87.8283 65.1043 88.1898 65.1745 88.5273 65.3127C88.8648 65.4509 89.1716 65.6545 89.4302 65.9117C89.6888 66.1689 89.894 66.4747 90.034 66.8114C90.174 67.1482 90.2461 67.5093 90.2461 67.874Z" fill="#47D163"/>
<path d="M58.8515 70.2295L86.3705 70.1007L86.3668 69.2542L58.8478 69.383L58.8515 70.2295Z" fill="white"/>
<path d="M58.8515 73.0119L86.3705 72.8831L86.3668 72.0403L58.8478 72.1654L58.8515 73.0119Z" fill="white"/>
<path d="M69.729 74.8265L58.8422 74.8797L58.8464 75.7262L69.7331 75.673L69.729 74.8265Z" fill="white"/>
<path d="M73.7391 35.4747C74.0059 35.3583 74.2323 35.1654 74.3895 34.9204C74.5467 34.6753 74.6278 34.3892 74.6224 34.0982C74.6321 33.9092 74.6033 33.7202 74.5377 33.5428C74.4721 33.3653 74.371 33.203 74.2407 33.0658C74.1104 32.9287 73.9535 32.8194 73.7797 32.7448C73.6058 32.6701 73.4186 32.6316 73.2293 32.6316C73.0401 32.6316 72.8529 32.6701 72.679 32.7448C72.5052 32.8194 72.3483 32.9287 72.218 33.0658C72.0877 33.203 71.9866 33.3653 71.921 33.5428C71.8554 33.7202 71.8266 33.9092 71.8363 34.0982C71.829 34.3915 71.9096 34.6803 72.0676 34.9276C72.2257 35.1748 72.454 35.3691 72.7233 35.4857C70.5776 35.8096 70.6732 38.143 70.6732 38.143L75.7486 38.1651C75.7486 38.1651 75.8664 35.7985 73.7391 35.4747Z" fill="#47D163"/>
<path opacity="0.5" d="M73.7391 35.4747C74.0059 35.3583 74.2323 35.1654 74.3895 34.9204C74.5467 34.6753 74.6278 34.3892 74.6224 34.0982C74.6321 33.9092 74.6033 33.7202 74.5377 33.5428C74.4721 33.3653 74.371 33.203 74.2407 33.0658C74.1104 32.9287 73.9535 32.8194 73.7797 32.7448C73.6058 32.6701 73.4186 32.6316 73.2293 32.6316C73.0401 32.6316 72.8529 32.6701 72.679 32.7448C72.5052 32.8194 72.3483 32.9287 72.218 33.0658C72.0877 33.203 71.9866 33.3653 71.921 33.5428C71.8554 33.7202 71.8266 33.9092 71.8363 34.0982C71.829 34.3915 71.9096 34.6803 72.0676 34.9276C72.2257 35.1748 72.454 35.3691 72.7233 35.4857C70.5776 35.8096 70.6732 38.143 70.6732 38.143L75.7486 38.1651C75.7486 38.1651 75.8664 35.7985 73.7391 35.4747Z" fill="white"/>
<path d="M70.953 35.4747C71.2187 35.3564 71.4442 35.1632 71.6018 34.9187C71.7594 34.6742 71.8421 34.389 71.84 34.0982C71.8539 33.9065 71.8282 33.7139 71.7644 33.5326C71.7006 33.3513 71.6001 33.1851 71.4692 33.0443C71.3383 32.9036 71.1798 32.7913 71.0036 32.7146C70.8274 32.6378 70.6373 32.5982 70.4451 32.5982C70.2528 32.5982 70.0627 32.6378 69.8865 32.7146C69.7103 32.7913 69.5518 32.9036 69.4209 33.0443C69.29 33.1851 69.1895 33.3513 69.1257 33.5326C69.0619 33.7139 69.0362 33.9065 69.0502 34.0982C69.0429 34.3915 69.1234 34.6803 69.2815 34.9276C69.4395 35.1748 69.6679 35.3691 69.9371 35.4857C67.7914 35.8096 67.8871 38.143 67.8871 38.143L72.9625 38.1651C72.9625 38.1651 73.0803 35.7985 70.953 35.4747Z" fill="#47D163"/>
<path d="M78.7139 39.196L65.0704 39.1341L65.0628 40.8271L78.7062 40.889L78.7139 39.196Z" fill="#47D163"/>
<path opacity="0.3" d="M78.7139 39.196L65.0704 39.1341L65.0628 40.8271L78.7062 40.889L78.7139 39.196Z" fill="white"/>
<path d="M53.4706 87.1486C53.4641 87.0826 53.4641 87.016 53.4706 86.9499C53.4929 86.7511 53.5568 86.5592 53.6583 86.3868C53.827 86.1011 54.086 85.8797 54.3944 85.7574C54.8208 85.641 55.2646 85.6024 55.7047 85.6433H64.1441L92.5611 85.7022H92.7782L92.6163 85.8531L88.899 89.8428L88.9248 89.7765V92.4449C88.9248 92.6436 88.9248 92.8129 88.9248 93.0338C88.9096 93.344 88.8019 93.6426 88.6156 93.8912C88.4294 94.1398 88.173 94.3269 87.8795 94.4286C87.6865 94.4941 87.4832 94.524 87.2796 94.517H83.3157H74.7365L60.228 94.4875H55.263C55.0501 94.499 54.8365 94.4867 54.6263 94.4507C54.33 94.3863 54.0596 94.2349 53.8498 94.0159C53.6399 93.7969 53.5002 93.5203 53.4486 93.2214C53.4268 93.0395 53.4194 92.8562 53.4265 92.6731C53.4265 91.9701 53.4265 91.3297 53.4265 90.7518C53.4265 89.5999 53.4265 88.7055 53.4449 88.0872C53.4449 87.7891 53.4449 87.5609 53.4449 87.3952C53.4449 87.2296 53.4449 87.1597 53.4449 87.1597C53.4449 87.1597 53.4449 87.2407 53.4449 87.3952C53.4449 87.5498 53.4449 87.7891 53.4449 88.0872C53.4449 88.7055 53.4449 89.5999 53.4633 90.7518C53.4633 91.3297 53.4633 91.9701 53.4633 92.6731C53.4571 92.8501 53.4657 93.0274 53.489 93.2031C53.5375 93.4824 53.6686 93.7408 53.8654 93.9449C54.0622 94.1489 54.3158 94.2892 54.5932 94.3477C54.7966 94.3782 55.0025 94.3881 55.2078 94.3771H57.2836H60.228L74.7512 94.355H87.2906C87.4717 94.3617 87.6525 94.3355 87.8243 94.2778C88.1694 94.1567 88.4526 93.904 88.6119 93.5748C88.6907 93.4112 88.7357 93.2335 88.7444 93.0522C88.7444 92.8681 88.7444 92.6657 88.7444 92.4743V89.7692L88.7702 89.7434L92.4948 85.7611L92.5611 85.9194L64.1477 85.7979L55.7084 85.7427C55.2768 85.6952 54.8401 85.7276 54.4202 85.8384C54.1819 85.9327 53.9724 86.0875 53.8123 86.2877C53.6522 86.4878 53.5471 86.7262 53.5075 86.9793C53.4981 87.0364 53.4859 87.0929 53.4706 87.1486Z" fill="#455A64"/>
<path d="M85.4651 89.379L57.9461 89.2539L57.9498 88.4073L85.4688 88.5362L85.4651 89.379Z" fill="#455A64"/>
<path d="M74.3036 91.2007L74.2994 92.0472L85.4659 92.1018L85.47 91.2553L74.3036 91.2007Z" fill="#455A64"/>
<path d="M89.278 102.246V108.043C89.278 108.433 89.1229 108.808 88.8468 109.084C88.5708 109.36 88.1963 109.515 87.8058 109.515H55.3955C55.005 109.515 54.6306 109.36 54.3545 109.084C54.0784 108.808 53.9233 108.433 53.9233 108.043V104.874L50.2023 100.892L87.8058 100.774C88.1963 100.774 88.5708 100.929 88.8468 101.205C89.1229 101.481 89.278 101.856 89.278 102.246Z" fill="#47D163"/>
<path d="M57.2873 104.476L84.8063 104.351L84.8026 103.505L57.2836 103.634L57.2873 104.476Z" fill="white"/>
<path d="M57.2873 107.2L84.8063 107.071L84.8026 106.228L57.2836 106.353L57.2873 107.2Z" fill="white"/>
<path d="M133.635 32.7547C136.02 32.7547 137.953 30.8219 137.953 28.4375C137.953 26.0532 136.02 24.1203 133.635 24.1203C131.251 24.1203 129.318 26.0532 129.318 28.4375C129.318 30.8219 131.251 32.7547 133.635 32.7547Z" fill="#47D163"/>
<path opacity="0.5" d="M133.635 32.7547C136.02 32.7547 137.953 30.8219 137.953 28.4375C137.953 26.0532 136.02 24.1203 133.635 24.1203C131.251 24.1203 129.318 26.0532 129.318 28.4375C129.318 30.8219 131.251 32.7547 133.635 32.7547Z" fill="white"/>
<path d="M132.204 27.2009C132.365 27.2009 132.513 27.3738 132.527 27.6094C132.542 27.845 132.421 28.0474 132.255 28.0547C132.089 28.0621 131.946 27.8818 131.931 27.6462C131.916 27.4107 132.038 27.2082 132.204 27.2009Z" fill="#263238"/>
<path d="M132.605 26.1151C132.605 26.1777 132.237 26.1593 131.869 26.2991C131.501 26.439 131.202 26.6672 131.158 26.623C131.114 26.5789 131.339 26.255 131.795 26.093C132.251 25.9311 132.623 26.0599 132.605 26.1151Z" fill="#263238"/>
<path d="M135.733 27.8744C135.685 27.9112 135.453 27.6609 135.082 27.6241C134.71 27.5873 134.43 27.775 134.393 27.7309C134.357 27.6867 134.423 27.6241 134.544 27.5395C134.712 27.4342 134.91 27.3876 135.107 27.407C135.304 27.4284 135.487 27.5167 135.626 27.6573C135.729 27.7677 135.755 27.856 135.733 27.8744Z" fill="#263238"/>
<path d="M136.105 27.153C136.072 27.2045 135.737 27.0242 135.255 27.0095C134.773 26.9948 134.423 27.142 134.393 27.0831C134.504 26.9688 134.641 26.8827 134.792 26.8321C134.944 26.7815 135.105 26.7679 135.262 26.7923C135.799 26.8107 136.142 27.1125 136.105 27.153Z" fill="#263238"/>
<path d="M135.799 28.3528C135.802 28.6512 135.706 28.9421 135.527 29.181C135.339 29.4958 135.075 29.7583 134.759 29.9442C134.442 30.1301 134.085 30.2335 133.718 30.2448C133.351 30.2562 132.988 30.1752 132.661 30.0092C132.334 29.8432 132.054 29.5976 131.847 29.2951C131.651 29.0695 131.538 28.7839 131.526 28.4853C131.653 28.7425 131.801 28.9887 131.968 29.2214C132.173 29.484 132.437 29.6945 132.739 29.8359C133.041 29.9773 133.372 30.0455 133.705 30.0351C134.038 30.0247 134.364 29.936 134.656 29.7761C134.948 29.6161 135.199 29.3896 135.387 29.1147C135.542 28.8707 135.68 28.6161 135.799 28.3528Z" fill="#263238"/>
<path d="M12.8307 104.804C12.7938 106.004 12.4018 107.167 11.7044 108.144C11.007 109.122 10.0354 109.87 8.91245 110.296C7.7895 110.721 6.56561 110.804 5.39551 110.534C4.2254 110.264 3.1616 109.654 2.33858 108.779C1.51556 107.905 0.970271 106.806 0.771642 105.622C0.573014 104.437 0.729963 103.221 1.22265 102.126C1.71534 101.03 2.52164 100.106 3.53964 99.469C4.55764 98.832 5.74163 98.5112 6.94195 98.547C7.73955 98.5708 8.52465 98.7516 9.25235 99.079C9.98006 99.4064 10.6361 99.874 11.183 100.455C11.7299 101.036 12.1569 101.719 12.4396 102.465C12.7224 103.212 12.8553 104.006 12.8307 104.804Z" fill="#47D163"/>
<path opacity="0.5" d="M12.8307 104.804C12.7938 106.004 12.4018 107.167 11.7044 108.144C11.007 109.122 10.0354 109.87 8.91245 110.296C7.7895 110.721 6.56561 110.804 5.39551 110.534C4.2254 110.264 3.1616 109.654 2.33858 108.779C1.51556 107.905 0.970271 106.806 0.771642 105.622C0.573014 104.437 0.729963 103.221 1.22265 102.126C1.71534 101.03 2.52164 100.106 3.53964 99.469C4.55764 98.832 5.74163 98.5112 6.94195 98.547C7.73955 98.5708 8.52465 98.7516 9.25235 99.079C9.98006 99.4064 10.6361 99.874 11.183 100.455C11.7299 101.036 12.1569 101.719 12.4396 102.465C12.7224 103.212 12.8553 104.006 12.8307 104.804Z" fill="white"/>
<path d="M5.56541 102.949C5.45804 102.809 5.30026 102.716 5.12566 102.691C4.95106 102.665 4.77342 102.709 4.63057 102.813C4.49234 102.906 4.37577 103.028 4.28877 103.17C4.20177 103.312 4.14638 103.472 4.12634 103.637C4.11089 103.468 4.05955 103.305 3.97576 103.158C3.89197 103.01 3.77767 102.883 3.64052 102.783C3.50261 102.673 3.32747 102.62 3.15138 102.635C2.97529 102.65 2.81175 102.732 2.69463 102.864C2.56608 103.05 2.511 103.277 2.54005 103.501C2.55244 103.726 2.62489 103.943 2.74984 104.13C3.1236 104.598 3.58178 104.991 4.10058 105.29C4.61202 105.019 5.06583 104.652 5.43659 104.208C5.57187 104.028 5.65698 103.816 5.68319 103.593C5.72602 103.371 5.68398 103.141 5.56541 102.949Z" fill="#47D163"/>
<path d="M10.9095 103.1C10.8022 102.96 10.6441 102.867 10.4692 102.842C10.2944 102.818 10.1168 102.862 9.97469 102.967C9.83543 103.059 9.7181 103.181 9.63097 103.324C9.54385 103.466 9.48905 103.626 9.47046 103.792C9.455 103.623 9.40367 103.46 9.31988 103.312C9.23609 103.165 9.12178 103.037 8.98463 102.938C8.84709 102.826 8.67174 102.773 8.49538 102.788C8.31902 102.803 8.15536 102.886 8.03875 103.019C7.90954 103.204 7.8544 103.431 7.88417 103.656C7.89472 103.881 7.96733 104.099 8.09396 104.285C8.46772 104.752 8.92589 105.146 9.44469 105.444C9.95456 105.172 10.4079 104.804 10.7807 104.362C10.9161 104.182 11.0012 103.968 11.0273 103.744C11.0694 103.522 11.0274 103.292 10.9095 103.1Z" fill="#47D163"/>
<path d="M8.73068 106.114C8.67088 106.617 8.4231 107.078 8.03714 107.405C7.65119 107.732 7.15568 107.901 6.65027 107.878C6.14485 107.854 5.667 107.641 5.3128 107.279C4.9586 106.918 4.75432 106.436 4.74103 105.93L8.73068 106.114Z" fill="white"/>
<path d="M120.441 143.607L119.705 139.721L112.73 140.957L113.742 146.784L114.18 146.736C116.127 146.504 124.029 145.297 125.244 144.66C126.617 143.95 120.441 143.607 120.441 143.607Z" fill="#47D163"/>
<path d="M125.373 144.273C125.373 144.34 122.796 144.873 119.572 145.466C116.348 146.059 113.742 146.485 113.731 146.419C113.72 146.353 116.308 145.823 119.528 145.23C122.748 144.638 125.351 144.211 125.373 144.273Z" fill="#263238"/>
<path d="M120.709 144.373C120.647 144.351 120.658 144.137 120.772 143.909C120.886 143.681 121.044 143.541 121.1 143.574C121.155 143.607 121.1 143.799 120.985 144.012C120.871 144.226 120.772 144.399 120.709 144.373Z" fill="#263238"/>
<path d="M121.203 144.553C121.136 144.553 121.125 144.307 121.203 144.038C121.28 143.769 121.449 143.593 121.508 143.622C121.567 143.651 121.508 143.869 121.431 144.115C121.354 144.362 121.269 144.564 121.203 144.553Z" fill="#263238"/>
<path d="M115.803 146.007C115.778 146.033 115.656 145.948 115.472 145.805C115.244 145.615 114.997 145.448 114.736 145.308C114.499 145.178 114.233 145.109 113.963 145.109C113.746 145.109 113.613 145.179 113.595 145.146C113.577 145.113 113.691 145.002 113.941 144.94C114.265 144.875 114.601 144.926 114.891 145.083C115.17 145.234 115.42 145.434 115.627 145.676C115.759 145.845 115.836 145.985 115.803 146.007Z" fill="#263238"/>
<path d="M120.588 143.637C120.632 143.685 120.536 143.843 120.352 143.953C120.168 144.064 119.984 144.071 119.962 144.008C119.94 143.946 120.069 143.843 120.231 143.743C120.393 143.644 120.551 143.593 120.588 143.637Z" fill="#263238"/>
<path d="M120.419 143.287C120.419 143.353 120.26 143.442 120.025 143.489C119.789 143.537 119.594 143.519 119.587 143.453C119.58 143.386 119.756 143.298 119.977 143.254C120.198 143.21 120.4 143.224 120.419 143.287Z" fill="#263238"/>
<path d="M128.832 102.515C126.672 98.1533 115.093 81.2819 115.093 81.2819L108.913 81.9297V81.8929L101.998 82.6511L98.1848 83.0706L111.99 143.368L121.537 143.195L119.241 132.039C120.82 128.083 130.028 104.929 128.832 102.515ZM118.983 105.117L115.571 114.277L111.707 95.507L118.983 105.117Z" fill="#263238"/>
<path d="M111.324 53.4317C111.236 52.8024 111.575 50.1855 111.575 50.1855C111.575 50.1855 113.978 50.0089 114.202 47.6386C114.427 45.2684 114.453 39.7808 114.453 39.7808L110.158 37.5063L105.237 40.988L103.963 44.3004L105.642 48.4152L105.59 49.777V52.8944L111.324 53.4317Z" fill="#FFBE9D"/>
<path d="M114.132 43.7557C114.131 43.8163 114.111 43.875 114.077 43.9245C114.042 43.9739 113.993 44.0119 113.936 44.0335C113.88 44.0551 113.818 44.0595 113.759 44.0459C113.7 44.0324 113.646 44.0016 113.605 43.9575C113.563 43.9134 113.536 43.858 113.526 43.7982C113.516 43.7385 113.524 43.6772 113.549 43.622C113.574 43.5668 113.615 43.5204 113.666 43.4885C113.718 43.4566 113.777 43.4407 113.838 43.4429C113.878 43.4438 113.917 43.4527 113.954 43.469C113.99 43.4853 114.023 43.5087 114.051 43.5378C114.078 43.5669 114.099 43.6011 114.113 43.6385C114.127 43.676 114.134 43.7158 114.132 43.7557Z" fill="#263238"/>
<path d="M114.154 43.4355C114.114 43.476 113.893 43.2773 113.569 43.2478C113.245 43.2184 112.991 43.3693 112.958 43.3251C112.925 43.2809 112.984 43.2331 113.094 43.1632C113.243 43.0739 113.416 43.0352 113.588 43.0527C113.759 43.0671 113.92 43.1369 114.048 43.2515C114.143 43.3435 114.173 43.4208 114.154 43.4355Z" fill="#263238"/>
<path d="M110.283 43.384C110.331 43.4197 110.369 43.469 110.389 43.5257C110.41 43.5825 110.413 43.6441 110.399 43.7028C110.385 43.7615 110.353 43.8147 110.309 43.8555C110.264 43.8964 110.209 43.9232 110.149 43.9324C110.089 43.9417 110.028 43.933 109.974 43.9076C109.919 43.8821 109.873 43.841 109.841 43.7894C109.81 43.7377 109.795 43.678 109.797 43.6176C109.8 43.5573 109.82 43.499 109.856 43.4502C109.879 43.4179 109.909 43.3904 109.943 43.3696C109.978 43.3487 110.016 43.3348 110.055 43.3287C110.095 43.3225 110.136 43.3243 110.175 43.3337C110.214 43.3432 110.25 43.3603 110.283 43.384Z" fill="#263238"/>
<path d="M110.522 43.3214C110.481 43.3582 110.264 43.1595 109.937 43.1337C109.609 43.1079 109.359 43.2552 109.326 43.2073C109.293 43.1595 109.351 43.119 109.462 43.0491C109.61 42.9595 109.783 42.9196 109.955 42.935C110.127 42.9504 110.29 43.0214 110.419 43.1374C110.514 43.2257 110.544 43.303 110.522 43.3214Z" fill="#263238"/>
<path d="M111.615 46.1259C111.791 46.0866 111.972 46.0693 112.152 46.0744C112.237 46.0744 112.318 46.0744 112.34 46.0045C112.351 45.9129 112.337 45.82 112.3 45.7358C112.237 45.5186 112.171 45.2904 112.097 45.0512C111.906 44.468 111.758 43.8713 111.655 43.2662C111.737 43.4268 111.802 43.5959 111.847 43.7704C111.95 44.0869 112.086 44.5249 112.215 45.0144C112.281 45.2536 112.347 45.4855 112.406 45.7027C112.453 45.8121 112.461 45.9342 112.428 46.0486C112.415 46.0773 112.395 46.1023 112.37 46.1215C112.345 46.1407 112.316 46.1536 112.285 46.159C112.237 46.1659 112.189 46.1659 112.141 46.159C111.965 46.1688 111.788 46.1577 111.615 46.1259Z" fill="#263238"/>
<path d="M110.525 46.3983C110.198 46.1701 111.42 46.9762 112.09 46.9946C111.965 47.1594 111.787 47.2766 111.586 47.3267C111.385 47.3769 111.174 47.3571 110.986 47.2706C110.305 46.9504 110.525 46.3983 110.525 46.3983Z" fill="white"/>
<path d="M111.574 50.1855C110.447 50.1024 109.367 49.6989 108.461 49.0225C108.461 49.0225 109.116 50.7891 111.504 50.767L111.574 50.1855Z" fill="#EB996E"/>
<path d="M105.921 44.9629C105.921 44.9629 105.888 44.9887 105.829 45.0218C105.746 45.0607 105.652 45.0673 105.564 45.0402C105.428 44.9657 105.315 44.856 105.236 44.7226C105.157 44.5892 105.115 44.4371 105.115 44.282C105.099 44.1087 105.121 43.9339 105.181 43.7704C105.197 43.7063 105.227 43.6468 105.271 43.5974C105.315 43.548 105.37 43.5101 105.432 43.4871C105.471 43.4731 105.514 43.4736 105.553 43.4884C105.592 43.5032 105.625 43.5315 105.645 43.568C105.675 43.6232 105.664 43.6674 105.675 43.6674C105.686 43.6674 105.719 43.6306 105.697 43.5496C105.682 43.5001 105.651 43.4571 105.608 43.4282C105.58 43.4083 105.547 43.3945 105.513 43.3875C105.479 43.3806 105.444 43.3806 105.41 43.3877C105.328 43.4091 105.252 43.451 105.191 43.5097C105.13 43.5683 105.085 43.6416 105.06 43.7226C104.985 43.9041 104.954 44.101 104.972 44.2968C104.974 44.4777 105.029 44.654 105.13 44.8038C105.232 44.9536 105.375 45.0704 105.542 45.1396C105.597 45.1524 105.654 45.1524 105.709 45.1396C105.764 45.1268 105.815 45.1017 105.859 45.066C105.921 44.9997 105.929 44.9666 105.921 44.9629Z" fill="#EB996E"/>
<path d="M115.067 40.1746C114.938 40.2181 114.803 40.2441 114.666 40.2519C115.114 40.017 115.481 39.6545 115.722 39.2103C115.899 38.9035 115.991 38.5558 115.991 38.2019C115.991 37.848 115.899 37.5003 115.722 37.1934C115.532 36.8966 115.24 36.6801 114.9 36.585C114.561 36.49 114.199 36.5232 113.882 36.6782C114.004 36.4249 114.03 36.1361 113.955 35.8652C113.88 35.5944 113.709 35.3602 113.474 35.206C113.229 35.0612 112.956 34.9731 112.673 34.9483C112.39 34.9234 112.105 34.9624 111.839 35.0624C111.309 35.2667 110.813 35.5496 110.367 35.9016C110.334 35.7112 110.255 35.5316 110.138 35.3778C110.021 35.2241 109.869 35.1008 109.694 35.0183C109.342 34.8551 108.949 34.8049 108.568 34.8747C108.014 34.9696 107.502 35.2323 107.103 35.6272C106.703 36.0222 106.435 36.5304 106.333 37.083C106.16 36.9048 105.943 36.7744 105.704 36.7042C105.465 36.6341 105.213 36.6265 104.97 36.6824C104.728 36.7382 104.503 36.8555 104.319 37.023C104.135 37.1905 103.997 37.4026 103.919 37.6388C103.921 37.6559 103.921 37.6732 103.919 37.6903C103.698 37.786 103.513 37.9481 103.389 38.154C103.284 38.3298 103.22 38.5265 103.2 38.7301C103.18 38.9338 103.206 39.1392 103.275 39.3318C103.416 39.7101 103.674 40.0337 104.011 40.2556C104.14 40.3465 104.255 40.457 104.35 40.5832C104.423 40.6932 104.467 40.8197 104.479 40.9512C104.445 41.7462 104.041 42.497 103.842 43.2773C103.569 44.3593 104.169 45.8352 104.515 46.8952C104.861 47.9552 104.983 48.3674 105.656 48.452L105.759 45.6033C105.023 46.2069 104.041 44.1311 104.685 43.303C105.329 42.4749 106.013 42.7583 106.131 43.2809C106.177 43.4818 106.234 43.6797 106.304 43.8735H107.04L106.959 43.2515C106.959 43.2515 106.808 40.4875 108.13 40.3071C108.474 40.234 108.834 40.3001 109.131 40.4911C109.556 40.6625 110.018 40.727 110.474 40.6788C110.945 40.6788 111.578 40.1415 111.578 39.6741C111.848 39.9886 112.189 40.2334 112.574 40.3878C112.958 40.5422 113.374 40.6017 113.786 40.5611C114 40.5388 114.209 40.488 114.408 40.4102C114.657 40.4791 114.921 40.4727 115.167 40.3918C115.419 40.3097 115.64 40.1516 115.8 39.9391C115.917 39.7734 115.94 39.6483 115.917 39.6373C115.675 39.8743 115.385 40.0574 115.067 40.1746ZM104.099 40.0863C103.8 39.8778 103.571 39.5823 103.444 39.2398C103.385 39.0737 103.361 38.8967 103.376 38.7208C103.39 38.545 103.443 38.3743 103.529 38.2203C103.606 38.0726 103.719 37.9462 103.856 37.8522C103.731 38.6877 104.276 39.5342 104.42 40.4065C104.331 40.2879 104.228 40.1803 104.114 40.0863H104.099Z" fill="#47D163"/>
<path d="M127.721 43.6306V48.3747C127.721 48.8911 127.926 49.3863 128.291 49.7515C128.656 50.1166 129.151 50.3217 129.668 50.3217H137.886V53.0342L139.358 50.4395C139.795 50.4079 140.202 50.2122 140.5 49.892C140.798 49.5717 140.963 49.1506 140.963 48.7133V43.6306C140.963 43.373 140.911 43.1181 140.811 42.8807C140.712 42.6432 140.566 42.4278 140.382 42.2471C140.199 42.0663 139.981 41.9238 139.742 41.8277C139.504 41.7316 139.248 41.6839 138.99 41.6873H129.668C129.152 41.6873 128.657 41.8919 128.292 42.2563C127.927 42.6206 127.722 43.1149 127.721 43.6306Z" fill="#47D163"/>
<path d="M132.193 46.2548C132.193 46.4135 132.145 46.5686 132.057 46.7005C131.969 46.8325 131.844 46.9353 131.697 46.996C131.551 47.0568 131.389 47.0727 131.234 47.0417C131.078 47.0107 130.935 46.9343 130.823 46.8221C130.711 46.7099 130.634 46.5669 130.603 46.4113C130.572 46.2557 130.588 46.0943 130.649 45.9477C130.71 45.8011 130.812 45.6758 130.944 45.5876C131.076 45.4995 131.231 45.4524 131.39 45.4524C131.603 45.4524 131.807 45.537 131.958 45.6874C132.108 45.8379 132.193 46.042 132.193 46.2548Z" fill="white"/>
<path d="M135.24 46.2548C135.24 46.4135 135.193 46.5686 135.105 46.7005C135.017 46.8325 134.891 46.9353 134.745 46.996C134.598 47.0568 134.437 47.0727 134.281 47.0417C134.125 47.0107 133.982 46.9343 133.87 46.8221C133.758 46.7099 133.682 46.5669 133.651 46.4113C133.62 46.2557 133.636 46.0943 133.696 45.9477C133.757 45.8011 133.86 45.6758 133.992 45.5876C134.124 45.4995 134.279 45.4524 134.438 45.4524C134.65 45.4524 134.854 45.537 135.005 45.6874C135.155 45.8379 135.24 46.042 135.24 46.2548Z" fill="white"/>
<path d="M138.287 46.2548C138.287 46.4135 138.24 46.5686 138.152 46.7005C138.064 46.8325 137.939 46.9353 137.792 46.996C137.645 47.0568 137.484 47.0727 137.328 47.0417C137.173 47.0107 137.03 46.9343 136.918 46.8221C136.805 46.7099 136.729 46.5669 136.698 46.4113C136.667 46.2557 136.683 46.0943 136.744 45.9477C136.804 45.8011 136.907 45.6758 137.039 45.5876C137.171 45.4995 137.326 45.4524 137.485 45.4524C137.698 45.4524 137.902 45.537 138.052 45.6874C138.203 45.8379 138.287 46.042 138.287 46.2548Z" fill="white"/>
<path d="M134.206 57.7305C134.04 57.3625 123.588 66.5895 121.504 66.906L115.41 58.9635C115.41 58.9635 114.143 56.9576 111.424 53.52C109.672 51.3118 104.832 51.7608 103.558 54.4659C101.398 59.0555 101.324 65.1393 99.6534 74.9147L98.2401 83.2068C98.2401 83.2068 100.327 82.9602 100.32 82.9787L115.159 81.4365L115.527 71.4992C118.472 74.473 119.37 75.0951 120.897 74.8595C124.736 74.2633 138.166 62.1839 138.166 62.1839C138.166 62.1839 134.368 58.1059 134.206 57.7305Z" fill="#455A64"/>
<path d="M136.355 63.8732C136.087 63.7101 135.84 63.5148 135.619 63.2917C134.471 62.2722 133.47 61.0979 132.645 59.8026C132.459 59.5434 132.307 59.2614 132.193 58.9635C132.392 59.2023 132.572 59.4557 132.734 59.7216C133.072 60.1964 133.554 60.8442 134.132 61.5214C134.71 62.1986 135.269 62.7765 135.685 63.1887C135.927 63.3979 136.151 63.6269 136.355 63.8732Z" fill="#263238"/>
<path d="M120.912 70.0528C120.975 68.9856 121.163 67.9295 121.471 66.906C121.413 67.9737 121.225 69.0304 120.912 70.0528Z" fill="#263238"/>
<path d="M122.244 69.7252C122.029 69.2928 121.871 68.8336 121.777 68.3597C121.619 67.9036 121.523 67.4282 121.493 66.9464C121.707 67.3797 121.864 67.8386 121.961 68.3119C122.117 68.7686 122.212 69.2437 122.244 69.7252Z" fill="#263238"/>
<path opacity="0.2" d="M107.647 61.0724L115.373 75.6766L115.546 71.3447L107.647 61.0724Z" fill="black"/>
<path d="M107.147 60.362C107.282 60.4986 107.405 60.6464 107.515 60.8037L108.435 62.0366C109.212 63.0819 110.297 64.5136 111.516 66.0852L114.644 70.0932L115.582 71.3152C115.703 71.4602 115.812 71.6154 115.906 71.7789C115.773 71.6505 115.649 71.5114 115.538 71.363C115.284 71.0538 114.953 70.6563 114.552 70.1779C113.727 69.1694 112.598 67.7708 111.379 66.203C110.161 64.6351 109.09 63.185 108.339 62.1213C107.971 61.5876 107.666 61.1533 107.467 60.8479C107.346 60.6959 107.239 60.5333 107.147 60.362Z" fill="#263238"/>
<path d="M107.39 64.9258C107.327 64.7833 107.281 64.6338 107.254 64.4805C107.18 64.1897 107.084 63.7738 106.97 63.2623L107.084 63.3175L105.564 64.1382L105.461 64.1934L105.428 64.0793C105.373 63.8806 105.314 63.6708 105.251 63.4573L104.986 62.5041L105.123 62.5593L103.625 63.4021L103.533 63.4536V63.3506C103.446 62.8965 103.394 62.4362 103.378 61.9741C103.511 62.4172 103.61 62.8701 103.672 63.3285L103.566 63.277L105.038 62.3973L105.141 62.3348L105.174 62.4526C105.259 62.758 105.351 63.0782 105.443 63.4058C105.505 63.6193 105.564 63.8291 105.619 64.0278L105.483 63.9726L107.018 63.1739L107.11 63.1224L107.128 63.2255C107.224 63.737 107.301 64.1603 107.346 64.4547C107.38 64.6093 107.395 64.7676 107.39 64.9258Z" fill="#263238"/>
<path d="M109.204 56.6705C109.057 56.6143 108.919 56.5388 108.792 56.446C108.538 56.2878 108.181 56.0559 107.747 55.7688L107.864 55.7283C107.71 56.2178 107.537 56.7773 107.349 57.3772L107.312 57.4913L107.209 57.4324L106.65 57.1048L105.796 56.6043L105.932 56.5491L105.443 58.1979L105.413 58.2973L105.332 58.2348C104.955 57.9679 104.598 57.6726 104.265 57.3514C104.667 57.5792 105.052 57.8363 105.417 58.1207L105.307 58.1575C105.435 57.6716 105.586 57.1122 105.752 56.5012L105.785 56.3835L105.888 56.446L106.746 56.9392L107.305 57.2668L107.169 57.3183L107.706 55.6731L107.743 55.5738L107.828 55.6327C108.251 55.9344 108.597 56.1847 108.836 56.3687C108.971 56.4538 109.094 56.5552 109.204 56.6705Z" fill="#263238"/>
<path d="M114.626 59.5082C114.496 59.4193 114.379 59.3141 114.276 59.1954C114.062 58.9856 113.761 58.6801 113.4 58.3047H113.525C113.267 58.75 112.973 59.2543 112.66 59.8026L112.601 59.902L112.513 59.8211L112.038 59.3831L111.302 58.7095L111.449 58.6838C111.14 59.2395 110.857 59.7438 110.61 60.1817L110.559 60.2737L110.492 60.1965C110.183 59.8501 109.9 59.4811 109.646 59.0923C109.989 59.402 110.309 59.7366 110.603 60.0934H110.485L111.284 58.5734L111.343 58.4666L111.431 58.5476L112.167 59.2211L112.638 59.6628H112.495L113.385 58.1906L113.44 58.1023L113.51 58.1796C113.878 58.5476 114.143 58.8862 114.335 59.1144C114.45 59.2315 114.547 59.3641 114.626 59.5082Z" fill="#E0E0E0"/>
<path d="M128.921 68.8014C128.921 68.8014 128.795 68.6837 128.611 68.4518C128.427 68.2199 128.166 67.8776 127.857 67.4581H127.982L126.937 68.8346L126.863 68.9266L126.79 68.8383L126.37 68.3414L125.741 67.5832H125.888L124.868 68.9634L124.806 69.048L124.751 68.9634C124.487 68.5836 124.252 68.1851 124.048 67.7709C124.349 68.1173 124.624 68.4864 124.868 68.8751H124.751C125.041 68.4665 125.373 67.9917 125.737 67.4691L125.807 67.3734L125.884 67.4654L126.521 68.2236L126.937 68.7205H126.79L127.861 67.3661L127.927 67.2814L127.986 67.3661C128.284 67.7967 128.523 68.15 128.689 68.4003C128.78 68.5252 128.858 68.6597 128.921 68.8014Z" fill="#263238"/>
<path d="M120.069 68.058C119.937 67.9823 119.813 67.8922 119.701 67.7893C119.465 67.6053 119.131 67.3366 118.729 67.009L118.851 66.9796L118.152 68.5548L118.107 68.6616L118.012 68.5916L117.485 68.2236L116.687 67.6347L116.83 67.5942C116.587 68.1831 116.366 68.6984 116.171 69.1805L116.131 69.2799L116.057 69.2063C115.709 68.9036 115.385 68.5737 115.089 68.2199C115.466 68.487 115.821 68.7823 116.153 69.1032L116.039 69.129C116.219 68.6579 116.429 68.1169 116.657 67.528L116.701 67.4139L116.797 67.4838L117.599 68.0653L118.122 68.4334L117.979 68.4739L118.693 66.8986L118.737 66.8029L118.814 66.8692C119.204 67.2151 119.524 67.4985 119.745 67.701C119.966 67.9034 120.08 68.0432 120.069 68.058Z" fill="#E0E0E0"/>
<path d="M132.734 65.9785C132.683 65.8307 132.651 65.6775 132.638 65.5221C132.594 65.224 132.535 64.786 132.469 64.2854L132.579 64.348L130.989 65.0326L130.882 65.0768L130.86 64.9627C130.823 64.7566 130.783 64.5431 130.742 64.3259C130.68 63.9873 130.621 63.6634 130.566 63.3506L130.695 63.4169L129.13 64.1382L129.035 64.1787V64.0757C128.989 63.6158 128.981 63.153 129.009 62.6918C129.1 63.1456 129.156 63.6058 129.175 64.0683L129.075 64.0057L130.625 63.2696L130.731 63.2144L130.753 63.3359C130.812 63.6487 130.875 63.9726 130.937 64.3075C130.978 64.5284 131.015 64.7418 131.052 64.9443L130.923 64.8743L132.524 64.2229L132.623 64.1824V64.2854C132.671 64.8044 132.708 65.2313 132.726 65.5295C132.746 65.6784 132.748 65.829 132.734 65.9785Z" fill="#E0E0E0"/>
<path d="M115.089 62.0551C114.969 62.1505 114.838 62.232 114.699 62.298C114.442 62.4452 114.066 62.666 113.595 62.8979L113.617 62.7728L114.821 64.0131L114.902 64.0978L114.802 64.1603L114.25 64.4952L113.404 65.0105V64.8633L114.618 66.0779L114.692 66.1551L114.596 66.1956C114.182 66.4004 113.752 66.5727 113.312 66.7109C113.704 66.4651 114.113 66.2486 114.537 66.0631L114.519 66.1809L113.275 64.9958L113.186 64.9148L113.29 64.8523L114.136 64.3333L114.688 63.9984V64.1419C114.257 63.6855 113.856 63.2549 113.507 62.8795L113.433 62.8022L113.529 62.7581C113.996 62.5299 114.383 62.3422 114.651 62.2207C114.789 62.1462 114.937 62.0905 115.089 62.0551Z" fill="#263238"/>
<path d="M121.843 70.0528C121.722 70.1529 121.59 70.2382 121.449 70.3067C121.192 70.454 120.816 70.6748 120.345 70.903L120.363 70.7815L121.571 72.0219L121.652 72.1028L121.552 72.1654L121 72.504L120.15 73.0156L120.168 72.872L121.383 74.0866L121.457 74.1602L121.361 74.2007C120.946 74.4047 120.517 74.5781 120.076 74.7196C120.476 74.4742 120.893 74.2589 121.324 74.0756L121.302 74.1933L120.062 73.0082L119.973 72.9236L120.076 72.861L120.919 72.3457L121.475 72.0071L121.457 72.1543L120.275 70.8919L120.202 70.8147L120.294 70.7705C120.761 70.5386 121.147 70.3546 121.42 70.2295C121.553 70.1525 121.695 70.0931 121.843 70.0528Z" fill="#E0E0E0"/>
<path d="M108.442 69.9461C108.381 69.8018 108.335 69.6513 108.306 69.497C108.233 69.2063 108.137 68.7904 108.023 68.2825L108.137 68.334L106.602 69.1621L106.499 69.221L106.47 69.1069C106.411 68.9045 106.352 68.6947 106.293 68.4812C106.201 68.1537 106.109 67.8335 106.024 67.528L106.16 67.5832L104.666 68.426L104.574 68.4776V68.3745C104.49 67.9212 104.438 67.4624 104.42 67.0017C104.554 67.4433 104.652 67.895 104.714 68.3524L104.607 68.3009L106.08 67.4213L106.183 67.3624L106.216 67.4765C106.3 67.7819 106.392 68.1021 106.488 68.4297L106.661 69.0554L106.525 68.9965L108.06 68.1978L108.152 68.15L108.174 68.2494C108.269 68.761 108.343 69.1842 108.391 69.4786C108.426 69.6319 108.444 69.7888 108.442 69.9461Z" fill="#E0E0E0"/>
<path d="M114.574 73.4204C114.512 73.2765 114.466 73.1258 114.438 72.9714C114.364 72.6807 114.269 72.2648 114.155 71.7569L114.269 71.8084L112.752 72.6365L112.649 72.6954L112.616 72.5813C112.557 72.3789 112.498 72.1691 112.439 71.9593C112.347 71.628 112.259 71.3078 112.171 71.0024L112.307 71.0576L110.813 71.9004L110.721 71.9519V71.8525C110.636 71.398 110.584 70.938 110.566 70.476C110.7 70.9178 110.798 71.3695 110.86 71.8268L110.754 71.7789L112.226 70.8993L112.329 70.8367L112.362 70.9545C112.45 71.26 112.539 71.5765 112.634 71.9041L112.807 72.5298L112.675 72.4709L114.206 71.6722L114.302 71.6244L114.32 71.7237C114.416 72.2353 114.489 72.6586 114.537 72.953C114.57 73.1065 114.583 73.2637 114.574 73.4204Z" fill="#263238"/>
<path d="M105.575 81.0685C105.512 80.926 105.467 80.7765 105.439 80.6231C105.365 80.3324 105.27 79.9165 105.156 79.4086L105.27 79.4601L103.753 80.2882L103.65 80.3434L103.617 80.2293C103.558 80.0306 103.499 79.8208 103.441 79.6073L103.176 78.6541L103.308 78.7093L101.817 79.5668L101.725 79.6183V79.5153C101.641 79.0608 101.589 78.6008 101.571 78.1388C101.704 78.5819 101.802 79.0348 101.865 79.4932L101.759 79.4417L103.231 78.562L103.334 78.4995L103.367 78.6173C103.455 78.9227 103.544 79.2429 103.639 79.5705L103.812 80.1925L103.68 80.1373L105.211 79.3386L105.307 79.2871L105.325 79.3902C105.421 79.9017 105.494 80.325 105.542 80.6194C105.575 80.7667 105.586 80.918 105.575 81.0685Z" fill="#E0E0E0"/>
<path d="M105.752 73.0413C105.612 72.9698 105.482 72.8808 105.365 72.7763C105.126 72.5997 104.788 72.3347 104.383 72.0071L104.504 71.9777L103.838 73.575L103.794 73.6817L103.698 73.6118C103.525 73.494 103.349 73.3652 103.168 73.2438L102.366 72.6659L102.506 72.6254L101.865 74.2191L101.825 74.3148L101.751 74.2449C101.401 73.9433 101.073 73.6174 100.769 73.2695C101.15 73.5302 101.511 73.8206 101.847 74.1381L101.733 74.1676C101.906 73.6965 102.101 73.1518 102.333 72.5592L102.373 72.4451L102.473 72.515L103.29 73.0818L103.816 73.4499L103.676 73.4867L104.372 71.9041L104.416 71.8084L104.493 71.8746C104.887 72.2169 105.211 72.4966 105.432 72.6991C105.552 72.8002 105.659 72.9151 105.752 73.0413Z" fill="#263238"/>
<path d="M108.961 73.2585C108.851 73.3667 108.727 73.4607 108.593 73.5382C108.347 73.7039 107.986 73.9357 107.544 74.2118V74.0866L108.836 75.2386L108.921 75.3196L108.825 75.3858L108.299 75.7539L107.489 76.3244V76.1808L108.81 77.3144L108.888 77.3843L108.799 77.4322C108.399 77.6648 107.982 77.8665 107.552 78.0358C107.926 77.7623 108.32 77.5163 108.729 77.2997V77.4175L107.404 76.3133L107.312 76.236L107.412 76.1661L108.218 75.5919L108.744 75.2239V75.3711L107.478 74.197L107.401 74.1234L107.489 74.0719C107.938 73.8106 108.31 73.5971 108.575 73.4536C108.695 73.3727 108.825 73.3072 108.961 73.2585Z" fill="#263238"/>
<path d="M112.491 75.7686C112.422 75.909 112.335 76.0401 112.233 76.1587C112.057 76.4016 111.795 76.7402 111.475 77.1524L111.446 77.031L113.05 77.675L113.157 77.7155L113.091 77.8149L112.723 78.3486L112.156 79.162L112.112 79.0184L113.713 79.6367L113.812 79.6772L113.742 79.7508C113.448 80.107 113.125 80.4393 112.778 80.7446C113.037 80.3625 113.324 79.9997 113.636 79.6588L113.665 79.7729L112.049 79.1951L111.935 79.1546L112.005 79.0552C112.182 78.7939 112.373 78.5216 112.565 78.2382C112.693 78.0578 112.815 77.8701 112.933 77.7082L112.973 77.848L111.387 77.1745L111.291 77.134L111.357 77.053C111.692 76.6519 111.968 76.3169 112.167 76.1035C112.366 75.89 112.491 75.7575 112.491 75.7686Z" fill="#E0E0E0"/>
<path d="M110.489 81.7678C110.489 81.7678 110.489 81.8083 110.529 81.8892C110.57 81.9702 110.592 82.099 110.636 82.2573C110.724 82.5775 110.857 83.0523 111.004 83.6669C111.151 84.2815 111.339 85.0324 111.468 85.9267C111.555 86.4143 111.49 86.917 111.28 87.3658C111.047 87.8631 110.728 88.3154 110.338 88.7018V88.6392C111.302 93.2178 112.653 99.6328 114.151 106.729C115.605 113.722 116.904 120.034 117.831 124.616C118.291 126.905 118.656 128.76 118.895 130.045C119.016 130.685 119.105 131.186 119.16 131.517C119.2 131.688 119.22 131.864 119.219 132.04C119.219 132.04 119.189 131.863 119.123 131.524C119.057 131.186 118.95 130.681 118.821 130.052C118.553 128.76 118.17 126.913 117.699 124.634C116.742 120.052 115.428 113.736 113.974 106.762C112.502 99.6586 111.17 93.2398 110.22 88.6613V88.6245L110.246 88.5987C111.026 87.8148 111.552 86.8248 111.35 85.9341C111.232 85.0471 111.052 84.2889 110.916 83.6742C110.779 83.0596 110.662 82.5959 110.581 82.2609L110.492 81.8929C110.486 81.8515 110.485 81.8095 110.489 81.7678Z" fill="#455A64"/>
<path d="M102.738 82.6511C102.738 82.6511 102.797 82.732 102.852 82.9013C102.93 83.1395 102.977 83.387 102.992 83.6374C103.052 84.4783 102.799 85.3117 102.28 85.9761C101.761 86.6406 101.014 87.0886 100.183 87.2333C99.9408 87.2785 99.6935 87.2933 99.4473 87.2774C99.3555 87.2791 99.2642 87.2628 99.1786 87.2296C99.1786 87.1928 99.5687 87.2296 100.169 87.1008C100.951 86.9288 101.649 86.4889 102.141 85.8573C102.634 85.2256 102.89 84.4418 102.866 83.6411C102.843 83.3088 102.8 82.9783 102.738 82.6511Z" fill="#455A64"/>
<path d="M108.902 83.0449C108.902 83.0449 108.902 82.9897 108.991 82.9418C109.046 82.9099 109.107 82.8893 109.17 82.8811C109.233 82.8729 109.297 82.8772 109.359 82.894C109.454 82.9174 109.54 82.9689 109.606 83.0417C109.671 83.1145 109.713 83.2054 109.727 83.3025C109.745 83.4243 109.721 83.5485 109.661 83.6555C109.6 83.7625 109.505 83.8461 109.391 83.8931C109.277 83.94 109.151 83.9476 109.033 83.9146C108.914 83.8816 108.81 83.81 108.737 83.7111C108.677 83.6344 108.639 83.5425 108.628 83.4457C108.617 83.3489 108.633 83.2509 108.674 83.1627C108.825 82.8645 109.068 82.8572 109.061 82.8793C109.053 82.9014 108.884 82.9676 108.803 83.2105C108.779 83.2759 108.773 83.3465 108.785 83.415C108.798 83.4835 108.828 83.5476 108.873 83.6006C108.928 83.6625 108.999 83.707 109.079 83.7286C109.159 83.7502 109.243 83.7479 109.322 83.7221C109.396 83.6867 109.457 83.6297 109.498 83.5587C109.538 83.4878 109.557 83.4062 109.55 83.3246C109.545 83.2561 109.52 83.1907 109.477 83.1369C109.434 83.083 109.376 83.0433 109.311 83.0228C109.176 82.9864 109.033 82.9941 108.902 83.0449Z" fill="#455A64"/>
<path d="M116.683 83.862C116.473 84.01 116.226 84.0955 115.969 84.1086C115.35 84.2015 114.719 84.0659 114.192 83.7273C113.666 83.3887 113.281 82.8701 113.109 82.2683C113.021 82.0336 112.997 81.7794 113.039 81.5322C113.072 81.5322 113.08 81.8193 113.234 82.2426C113.429 82.7953 113.802 83.2678 114.294 83.5862C114.786 83.9045 115.37 84.0507 115.954 84.0018C116.403 83.9429 116.672 83.8325 116.683 83.862Z" fill="#455A64"/>
<path d="M120.724 140.133C120.604 140.166 120.48 140.181 120.356 140.177L119.355 140.232L116.043 140.391L112.73 140.564L111.725 140.604C111.603 140.621 111.479 140.621 111.357 140.604C111.476 140.564 111.6 140.541 111.725 140.538C111.957 140.508 112.3 140.472 112.723 140.435C113.566 140.357 114.736 140.273 116.035 140.207C117.334 140.14 118.501 140.111 119.348 140.107C119.771 140.107 120.113 140.107 120.352 140.107C120.477 140.099 120.602 140.107 120.724 140.133Z" fill="#455A64"/>
<path d="M103.923 86.8505C103.974 86.8505 106.867 98.7863 110.397 113.534C113.926 128.282 116.735 140.254 116.683 140.265C116.631 140.276 113.739 128.333 110.209 113.578C106.679 98.8231 103.871 86.8616 103.923 86.8505Z" fill="#455A64"/>
<path d="M113.341 87.3253C113.366 87.3495 113.389 87.3767 113.407 87.4062L113.588 87.6455L114.272 88.584L116.753 92.0473L120.415 97.2L122.568 100.251C123.304 101.311 124.04 102.5 124.235 103.898C124.43 105.297 124.022 106.648 123.599 107.859C123.175 109.07 122.712 110.247 122.285 111.355C121.423 113.563 120.606 115.558 119.896 117.211C119.186 118.863 118.586 120.192 118.166 121.105L117.669 122.154L117.537 122.422C117.504 122.481 117.489 122.514 117.485 122.511C117.492 122.477 117.503 122.445 117.518 122.415C117.548 122.341 117.588 122.249 117.636 122.135L118.096 121.075C118.497 120.152 119.079 118.815 119.771 117.159C120.463 115.503 121.269 113.516 122.119 111.293C122.542 110.188 122.98 109.014 123.418 107.796C123.856 106.578 124.239 105.271 124.048 103.924C123.856 102.577 123.131 101.414 122.414 100.358L120.271 97.303L116.643 92.1099L114.21 88.6097L113.558 87.6528C113.488 87.5498 113.433 87.4688 113.393 87.4025C113.352 87.3363 113.337 87.3253 113.341 87.3253Z" fill="#455A64"/>
<path d="M132.045 58.1059L140.264 52.1067L140.669 52.7508L132.502 58.8236L132.045 58.1059Z" fill="#263238"/>
<path d="M134.077 57.9219C134.077 57.9219 135.181 55.0511 135.428 54.4402C135.674 53.8292 136.094 52.7655 136.252 52.7435C136.41 52.7214 136.988 52.8097 136.234 54.6352C135.479 56.4607 137.121 55.3456 137.121 55.3456L138.703 54.212C138.703 54.212 139.955 57.9513 139.244 59.0776C138.685 59.9205 138.057 60.7157 137.367 61.4552L134.077 57.9219Z" fill="#FFBE9D"/>
<path d="M29.772 105.507C29.8787 104.885 29.6432 102.61 29.6432 102.61C29.6432 102.61 27.2582 102.356 27.1147 99.9935C26.9712 97.6307 27.1147 92.1762 27.1147 92.1762L31.4577 90.0526L36.2423 93.6705L35.5062 105.496L29.772 105.507Z" fill="#B78876"/>
<path d="M27.7735 96.1291C27.7735 96.2091 27.8053 96.2859 27.8619 96.3425C27.9185 96.3991 27.9953 96.4309 28.0753 96.4309C28.1553 96.4309 28.2321 96.3991 28.2887 96.3425C28.3453 96.2859 28.3771 96.2091 28.3771 96.1291C28.3771 96.0894 28.3693 96.0502 28.3541 96.0136C28.339 95.977 28.3167 95.9437 28.2887 95.9157C28.2607 95.8876 28.2274 95.8654 28.1908 95.8502C28.1542 95.8351 28.1149 95.8273 28.0753 95.8273C28.0357 95.8273 27.9964 95.8351 27.9598 95.8502C27.9232 95.8654 27.8899 95.8876 27.8619 95.9157C27.8339 95.9437 27.8116 95.977 27.7965 96.0136C27.7813 96.0502 27.7735 96.0894 27.7735 96.1291Z" fill="#263238"/>
<path d="M27.3318 95.912C27.3686 95.9488 27.5931 95.7611 27.917 95.7427C28.2409 95.7243 28.4875 95.8825 28.5243 95.8384C28.5611 95.7942 28.4985 95.7463 28.3918 95.6727C28.2481 95.5784 28.0776 95.5332 27.906 95.5439C27.7343 95.5557 27.5707 95.6214 27.4386 95.7316C27.3429 95.8163 27.3097 95.8936 27.3318 95.912Z" fill="#263238"/>
<path d="M31.5976 96.3756C31.7643 96.3756 31.8994 96.2405 31.8994 96.0738C31.8994 95.9071 31.7643 95.772 31.5976 95.772C31.4309 95.772 31.2958 95.9071 31.2958 96.0738C31.2958 96.2405 31.4309 96.3756 31.5976 96.3756Z" fill="#263238"/>
<path d="M30.8504 95.853C30.8909 95.8935 31.1117 95.7021 31.4393 95.6874C31.7668 95.6727 32.0097 95.8273 32.0429 95.7831C32.076 95.7389 32.0208 95.6911 31.914 95.6175C31.7701 95.5236 31.5998 95.4785 31.4282 95.4887C31.2562 95.4989 31.0921 95.5648 30.9608 95.6764C30.8614 95.761 30.832 95.8383 30.8504 95.853Z" fill="#263238"/>
<path d="M29.7315 98.5728C29.5572 98.5275 29.3778 98.5052 29.1978 98.5066C29.1168 98.5066 29.0358 98.4882 29.0174 98.4293C29.0073 98.3382 29.0239 98.2461 29.0653 98.1643L29.2861 97.4908C29.497 96.9181 29.6631 96.3299 29.783 95.7315C29.5356 96.2891 29.3278 96.8635 29.161 97.4503C29.0837 97.6858 29.0138 97.914 28.9475 98.1275C28.897 98.2343 28.8853 98.3553 28.9144 98.4698C28.9268 98.499 28.946 98.5249 28.9703 98.5454C28.9946 98.5658 29.0233 98.5803 29.0543 98.5876C29.1006 98.5945 29.1477 98.5945 29.1941 98.5876C29.3732 98.6043 29.5536 98.5994 29.7315 98.5728Z" fill="#263238"/>
<path d="M30.8099 98.8821C30.3333 99.1838 29.7924 99.3691 29.231 99.4231C29.3505 99.5885 29.5224 99.7087 29.7188 99.7642C29.9152 99.8196 30.1246 99.8071 30.313 99.7286C31.0086 99.4378 30.8099 98.8821 30.8099 98.8821Z" fill="white"/>
<path d="M29.6432 102.61C30.767 102.564 31.8539 102.196 32.7753 101.55C32.7753 101.55 32.0649 103.288 29.6947 103.192L29.6432 102.61Z" fill="#A36957"/>
<path d="M39.3744 95.4224C39.3744 95.4224 40.3387 100.873 35.7344 101.856L35.8706 95.2899L39.3744 95.4224Z" fill="#263238"/>
<path d="M39.2235 94.2152C38.9361 93.0487 38.3986 91.9587 37.6482 91.0205C38.3107 91.2966 38.7524 91.5726 38.8444 91.4843C38.9364 91.3959 38.7671 91.2303 38.4764 90.9837C38.0988 90.6748 37.6669 90.4389 37.2029 90.2881L36.9858 90.2292C37.2896 90.1082 37.567 89.9295 37.8028 89.7029C38.0852 89.4385 38.2804 89.0944 38.3625 88.7165C38.4447 88.3385 38.41 87.9444 38.2629 87.5866C38.0967 87.2824 37.8439 87.0344 37.5367 86.8738C37.2294 86.7133 36.8814 86.6476 36.5367 86.6849C36.1943 86.7333 35.8681 86.8614 35.5842 87.059C35.3004 87.2565 35.0669 87.5179 34.9026 87.8222C34.8233 87.9678 34.758 88.1206 34.7075 88.2786C34.7187 88.0171 34.7458 87.7565 34.7885 87.4983C34.9357 86.5892 35.2743 85.9084 35.2191 85.8789C34.87 86.3412 34.6525 86.8893 34.5898 87.4652C34.5898 87.5535 34.5677 87.6382 34.5566 87.7228C34.4844 87.4875 34.3958 87.2576 34.2916 87.0346C34.0671 86.5598 33.8537 86.2985 33.7911 86.339C33.6623 86.4015 34.0819 87.3989 34.2548 88.746C33.8408 88.6082 33.4099 88.5277 32.974 88.5068C32.1717 88.5068 30.8394 88.1387 28.9549 89.6514C28.3169 90.0587 27.7654 90.5877 27.3319 91.2082C26.7091 92.1197 26.3581 93.1893 26.3197 94.2925C26.3083 94.6238 26.3293 94.9553 26.3823 95.2825C26.3935 95.4034 26.4246 95.5215 26.4743 95.6322C26.5111 95.6322 26.4044 95.1206 26.4743 94.2999C26.5157 93.6914 26.651 93.093 26.8755 92.5259C26.5951 93.5072 26.6574 94.5548 27.0521 95.496L31.2663 94.8372C30.9939 93.9134 31.1927 92.4486 31.3215 91.7309C32.0576 95.1721 35.0204 96.8247 35.0204 96.8247L39.4554 96.1291C39.3928 95.7279 39.3192 94.5759 39.2235 94.2152Z" fill="#263238"/>
<path d="M49.4258 146.927C49.562 146.993 60.4341 149.135 60.0329 147.663C59.6318 146.191 49.5215 143.88 49.5215 143.88L49.4258 146.927Z" fill="#47D163"/>
<path d="M54.3687 145.967C54.4202 145.967 54.4975 146.217 54.4939 146.544C54.4902 146.872 54.4129 147.13 54.3614 147.122C54.3098 147.115 54.2988 146.857 54.3025 146.544C54.3061 146.232 54.3172 145.97 54.3687 145.967Z" fill="#263238"/>
<path d="M53.7908 145.768C53.8387 145.768 53.9344 146.059 53.8976 146.441C53.8608 146.824 53.7246 147.104 53.6767 147.085C53.6289 147.067 53.6767 146.78 53.7062 146.423C53.7356 146.066 53.7356 145.775 53.7908 145.768Z" fill="#263238"/>
<path d="M53.0878 145.709C53.1394 145.709 53.213 145.996 53.2203 146.364C53.2277 146.732 53.1651 147.026 53.1136 147.023C53.0621 147.019 53.0363 146.728 53.0289 146.368C53.0216 146.007 53.0363 145.713 53.0878 145.709Z" fill="#263238"/>
<path d="M51.7629 144.645C51.8199 144.642 51.8771 144.649 51.9322 144.664C52.0426 144.664 52.2045 144.715 52.4106 144.763C52.8265 144.851 53.4264 144.995 54.1589 145.197C54.8913 145.4 55.7599 145.654 56.7094 145.978C57.1842 146.14 57.6885 146.305 58.1816 146.522C58.7163 146.738 59.2075 147.048 59.6318 147.439C59.6979 147.492 59.7519 147.558 59.79 147.634C59.8134 147.687 59.8169 147.747 59.8001 147.803C59.7832 147.859 59.747 147.908 59.698 147.939C59.5563 148.013 59.3974 148.047 59.2379 148.039C58.9545 148.061 58.6748 148.072 58.4025 148.079C57.8541 148.079 57.3241 148.079 56.8199 148.039C55.8151 147.976 54.917 147.851 54.1662 147.733C53.4154 147.615 52.8118 147.498 52.3959 147.413L51.9175 147.314C51.8602 147.306 51.8044 147.29 51.7518 147.266C51.9718 147.273 52.1909 147.298 52.407 147.339L54.1846 147.597C54.9207 147.7 55.8335 147.81 56.8309 147.866C57.3314 147.891 57.8541 147.906 58.3988 147.891C58.6675 147.891 58.9472 147.873 59.2232 147.851C59.3498 147.858 59.4762 147.834 59.5913 147.781C59.6244 147.755 59.6281 147.741 59.617 147.707C59.5863 147.657 59.5478 147.613 59.5029 147.575C59.0941 147.201 58.6217 146.903 58.108 146.695C57.6148 146.482 57.1143 146.327 56.6358 146.143C55.69 145.816 54.8287 145.543 54.1037 145.326C53.3786 145.109 52.7824 144.958 52.3738 144.833C52.1663 144.784 51.9622 144.721 51.7629 144.645Z" fill="#263238"/>
<path d="M57.5376 146.261C57.5891 146.279 57.4824 146.692 57.5376 147.2C57.5928 147.707 57.7327 148.101 57.6811 148.127C57.4852 147.86 57.369 147.543 57.3462 147.213C57.3234 146.882 57.3949 146.552 57.5523 146.261H57.5376Z" fill="#263238"/>
<path d="M13.4859 144.774C13.335 144.774 2.36346 146.287 3.21366 147.52C4.06385 148.753 14.3839 147.671 14.3839 147.671L13.4859 144.774Z" fill="#47D163"/>
<path d="M9.10611 147.295C9.06194 147.317 8.90368 147.096 8.80063 146.787C8.69757 146.478 8.70125 146.213 8.73806 146.213C8.77486 146.213 8.8816 146.445 8.98097 146.743C9.08035 147.041 9.15395 147.269 9.10611 147.295Z" fill="#263238"/>
<path d="M9.72072 147.292C9.67655 147.317 9.48885 147.063 9.39684 146.692C9.30483 146.32 9.34531 146.007 9.39684 146.007C9.44837 146.007 9.49621 146.298 9.58454 146.644C9.67288 146.99 9.76857 147.266 9.72072 147.292Z" fill="#263238"/>
<path d="M10.4016 147.119C10.3538 147.141 10.1918 146.887 10.063 146.541C9.93418 146.195 9.89738 145.897 9.94891 145.882C10.0004 145.867 10.1182 146.14 10.2433 146.474C10.3685 146.809 10.4495 147.096 10.4016 147.119Z" fill="#263238"/>
<path d="M12.0137 147.685C11.9606 147.706 11.9048 147.718 11.848 147.722L11.3622 147.785C10.939 147.836 10.328 147.895 9.56981 147.943C8.81163 147.991 7.90623 148.031 6.90146 148.039C6.39723 148.039 5.87092 148.039 5.31885 148.006C4.74365 147.98 4.1782 147.848 3.65159 147.615C3.57076 147.587 3.49679 147.542 3.43444 147.483C3.39797 147.438 3.37805 147.382 3.37805 147.325C3.37805 147.267 3.39797 147.211 3.43444 147.166C3.54279 147.049 3.68166 146.963 3.83562 146.92C4.09693 146.806 4.35456 146.706 4.6122 146.607C5.12747 146.419 5.63537 146.265 6.1212 146.129C7.09285 145.86 7.98352 145.687 8.73066 145.554C9.4778 145.422 10.0888 145.334 10.5083 145.278L10.9942 145.216C11.0502 145.207 11.1074 145.207 11.1635 145.216C10.9529 145.28 10.7375 145.328 10.5194 145.359L8.75643 145.694C8.02033 145.845 7.12965 146.033 6.18009 146.305C5.69794 146.445 5.1974 146.6 4.70789 146.791C4.45394 146.89 4.1963 146.99 3.93867 147.1C3.81863 147.135 3.70876 147.198 3.61847 147.284C3.59638 147.321 3.59638 147.332 3.61847 147.361C3.66452 147.4 3.71682 147.429 3.77305 147.45C4.27988 147.669 4.82244 147.794 5.37406 147.818C5.91141 147.862 6.4414 147.858 6.94195 147.862C7.94304 147.862 8.84476 147.84 9.60294 147.81C10.3611 147.781 10.9721 147.737 11.3953 147.711C11.6006 147.689 11.8072 147.68 12.0137 147.685Z" fill="#263238"/>
<path d="M6.01813 148.053C5.95924 148.053 5.9298 147.63 5.72369 147.163C5.51759 146.695 5.24523 146.371 5.28572 146.335C5.3262 146.298 5.68689 146.574 5.90036 147.071C6.06434 147.371 6.10651 147.723 6.01813 148.053Z" fill="#263238"/>
<path d="M47.5045 131.454H41.9212L21.3105 131.988L15.4218 131.226C14.5053 131.024 13.9017 130.939 13.7066 131.002C12.9156 131.331 12.2225 131.859 11.6934 132.533C9.44832 135.212 10.8616 139.342 14.2403 140.262L17.4129 141.123L10.4715 143.353L12.816 150.008C12.816 150.008 23.1802 147.766 33.2316 145.4L49.3153 149.75L51.634 142.282L48.9068 141.395C50.6182 140.873 51.7003 140.461 51.8512 140.21C52.8633 138.642 54.6557 131.351 47.4788 131.462" fill="#455A64"/>
<path opacity="0.2" d="M48.8185 141.421L36.8642 146.371L33.25 145.392L48.8185 141.421Z" fill="black"/>
<path opacity="0.2" d="M17.4645 132.014L32.7679 136.397L44.424 132.422L17.4645 132.014Z" fill="black"/>
<path d="M15.2856 149.526C15.0902 149.223 14.9262 148.901 14.7961 148.565C14.5238 147.958 14.1705 147.093 13.8245 146.151C13.4785 145.208 13.1951 144.31 13.0148 143.677C12.8983 143.337 12.8157 142.985 12.7682 142.628C12.9181 142.954 13.0412 143.291 13.1362 143.637C13.3497 144.266 13.6478 145.135 13.9938 146.084C14.3398 147.034 14.6747 147.891 14.9139 148.51C15.0635 148.838 15.1878 149.178 15.2856 149.526Z" fill="#263238"/>
<path d="M52.1788 133.935C52.1489 133.953 52.1167 133.967 52.0831 133.976L51.796 134.082L50.6918 134.472L46.6102 135.86C43.1469 137.016 38.3549 138.58 33.0439 140.247C27.733 141.914 22.9042 143.368 19.404 144.399L15.2525 145.598L14.1225 145.911L13.8244 145.989C13.791 145.999 13.7564 146.005 13.7214 146.007L13.8207 145.97L14.1115 145.875L15.2157 145.525L19.3488 144.266C22.8416 143.206 27.6594 141.73 32.9666 140.063C38.2739 138.396 43.0732 136.854 46.5439 135.731L50.6587 134.402L51.7813 134.034L52.072 133.946C52.1069 133.937 52.1428 133.933 52.1788 133.935Z" fill="#263238"/>
<path d="M41.0342 133.666C40.96 133.709 40.8809 133.742 40.7987 133.766L40.1141 134.016C39.5179 134.229 38.6419 134.531 37.5746 134.896C35.4252 135.632 32.4477 136.603 29.1536 137.66C25.8596 138.716 22.8637 139.647 20.6885 140.302C19.5844 140.63 18.7195 140.887 18.1122 141.06L17.4092 141.255C17.3271 141.28 17.2435 141.298 17.1589 141.311C17.2348 141.271 17.3151 141.24 17.3982 141.219L18.0901 140.99L20.6664 140.173L29.1095 137.479L37.5451 134.767L40.1031 133.946L40.8024 133.729C40.8772 133.7 40.9549 133.679 41.0342 133.666Z" fill="#263238"/>
<path d="M32.6906 136.371C32.6906 136.423 29.2567 135.488 25.0499 134.285C20.8431 133.081 17.4497 132.076 17.4645 132.014C17.4792 131.951 20.8984 132.897 25.1015 134.101C29.3046 135.304 32.7054 136.32 32.6906 136.371Z" fill="#263238"/>
<path d="M49.4037 141.774C49.0265 143.017 48.5867 144.239 48.0861 145.437C47.3095 147.439 46.6396 149.043 46.5918 149.025C46.968 147.784 47.4078 146.563 47.9094 145.367C48.686 143.364 49.3558 141.756 49.4037 141.774Z" fill="#263238"/>
<path d="M47.9683 144.859C46.953 144.683 45.949 144.449 44.9613 144.156C43.9624 143.92 42.9791 143.622 42.0169 143.265C43.0323 143.439 44.0364 143.674 45.0239 143.968C46.0227 144.204 47.0061 144.501 47.9683 144.859Z" fill="#263238"/>
<path d="M25.0757 138.756C24.8829 138.733 24.6921 138.695 24.5052 138.642L22.9668 138.274C21.6712 137.943 19.8788 137.494 17.9245 136.905C16.2493 136.413 14.608 135.812 13.0111 135.105C12.4038 134.826 11.9069 134.583 11.5904 134.402C11.4143 134.32 11.2466 134.22 11.0898 134.104C11.2735 134.168 11.4519 134.245 11.6235 134.336C11.9621 134.494 12.4516 134.704 13.0663 134.98C14.672 135.647 16.3122 136.228 17.9797 136.721C19.9304 137.31 21.7154 137.777 23.0036 138.142L24.5236 138.58C24.7131 138.62 24.898 138.679 25.0757 138.756Z" fill="#263238"/>
<path d="M36.3895 105.179H35.9368L35.8706 103.612L29.6542 103.98C29.6542 103.98 29.7168 104.716 29.7131 105.227C25.8854 105.595 19.7501 107.561 19.6028 116.177L24.5126 116.291C24.0967 120.244 24.1446 122.603 23.7434 124.086C23.0588 126.537 20.891 131.712 21.3253 131.973C21.7596 132.235 41.9066 132.606 42.8672 132.084C43.8278 131.561 42.0796 124.807 41.6416 122.975C41.3656 121.804 41.3067 119.125 41.2993 117.053L46.9378 116.799C46.9378 116.799 47.3463 105.146 36.3895 105.179Z" fill="#47D163"/>
<path d="M35.9037 105.117C35.6067 105.204 35.3002 105.256 34.9909 105.271C34.4204 105.338 33.6328 105.4 32.7605 105.419C31.8883 105.437 31.1006 105.419 30.5302 105.367C30.22 105.362 29.9115 105.322 29.61 105.249C29.9166 105.213 30.2261 105.207 30.5339 105.231C31.1043 105.231 31.8883 105.231 32.7421 105.231C33.596 105.231 34.3947 105.172 34.9504 105.143C35.2666 105.103 35.5858 105.095 35.9037 105.117Z" fill="#263238"/>
<path d="M30.7842 103.928C30.8394 103.928 30.8799 104.23 30.8799 104.602C30.8799 104.973 30.8394 105.279 30.7842 105.279C30.729 105.279 30.6885 104.977 30.6885 104.602C30.6885 104.226 30.7142 103.928 30.7842 103.928Z" fill="#263238"/>
<path d="M32.4293 103.81C32.4808 103.81 32.5323 104.141 32.5434 104.546C32.577 104.794 32.5518 105.046 32.4698 105.282C32.4145 105.282 32.363 104.951 32.352 104.546C32.3171 104.298 32.3437 104.046 32.4293 103.81Z" fill="#263238"/>
<path d="M34.1444 103.751C34.1959 103.751 34.2695 104.075 34.2769 104.487C34.2843 104.9 34.2291 105.224 34.1738 105.224C34.0935 104.987 34.0634 104.736 34.0855 104.487C34.0966 104.09 34.0966 103.755 34.1444 103.751Z" fill="#263238"/>
<path d="M35.3884 103.692C35.4436 103.692 35.4804 104.016 35.532 104.41C35.5835 104.804 35.624 105.128 35.5725 105.146C35.5209 105.165 35.3921 104.848 35.3443 104.436C35.2964 104.024 35.3369 103.689 35.3884 103.692Z" fill="#263238"/>
<path d="M25.2892 116.199C25.1901 115.591 25.1531 114.974 25.1788 114.359C25.1398 113.744 25.1669 113.127 25.2597 112.518C25.357 113.127 25.394 113.743 25.3702 114.359C25.4044 114.973 25.3773 115.59 25.2892 116.199Z" fill="#263238"/>
<path d="M41.0895 116.813C40.9404 116.16 40.8517 115.495 40.8245 114.826C40.7358 114.161 40.7123 113.489 40.7546 112.82C40.9909 114.138 41.103 115.475 41.0895 116.813Z" fill="#263238"/>
<path d="M25.2891 116.199C25.0086 116.236 24.7249 116.245 24.4426 116.225H22.4147H20.3831C20.102 116.245 19.8196 116.236 19.5402 116.199C19.8144 116.128 20.0963 116.092 20.3794 116.092C20.8983 116.052 21.6197 116.022 22.4147 116.026C23.2097 116.029 23.931 116.055 24.45 116.096C24.7328 116.097 25.0145 116.131 25.2891 116.199Z" fill="#263238"/>
<path d="M46.9268 116.813C45.93 116.91 44.928 116.942 43.9272 116.909C42.9251 116.942 41.9218 116.91 40.9239 116.813C41.922 116.719 42.9251 116.687 43.9272 116.718C44.928 116.687 45.9299 116.719 46.9268 116.813Z" fill="#263238"/>
<path d="M46.6802 116.861C46.6802 116.861 48.1523 130.601 43.9419 131.951C39.7314 133.302 31.4282 126.905 31.4282 126.905L33.8205 122.062C33.8205 122.062 39.3413 125.897 40.5337 125.032C41.7262 124.167 41.1042 116.861 41.1042 116.861H46.6802Z" fill="#B78876"/>
<path d="M19.6727 116.199C19.6727 116.199 18.1748 129.798 22.3816 131.153C26.5884 132.507 34.8952 126.103 34.8952 126.103L32.4992 121.259C32.4992 121.259 26.9454 124.811 25.7934 123.913C25.1272 123.39 25.1088 116.269 25.1088 116.269C23.1508 116.184 21.3363 116.099 19.6727 116.199Z" fill="#B78876"/>
<path d="M44.0597 119.033L41.2662 132.724C41.2662 132.724 24.1004 132.592 23.9237 132.54C23.7471 132.489 22.0835 119.033 22.0835 119.033H44.0597Z" fill="#263238"/>
<path d="M31.73 125.97C31.716 126.177 31.7643 126.382 31.8687 126.561C31.9731 126.739 32.1287 126.882 32.3153 126.971C32.502 127.06 32.711 127.09 32.9153 127.059C33.1196 127.027 33.3097 126.935 33.4609 126.794C33.6121 126.653 33.7174 126.47 33.7632 126.268C33.8089 126.067 33.793 125.856 33.7175 125.664C33.642 125.471 33.5103 125.306 33.3397 125.19C33.169 125.073 32.9673 125.01 32.7606 125.01C32.4969 125.002 32.2407 125.098 32.0477 125.278C31.8548 125.458 31.7406 125.707 31.73 125.97Z" fill="white"/>
<path d="M35.3369 95.9303C35.4924 95.8342 35.6693 95.7782 35.8517 95.7672C36.0341 95.7563 36.2164 95.7908 36.3822 95.8677C36.5939 96.0385 36.7333 96.2831 36.7723 96.5523C36.8217 96.7702 36.8191 96.9967 36.7648 97.2135C36.7104 97.4302 36.6059 97.6311 36.4595 97.8C36.3069 97.9629 36.1028 98.0683 35.8816 98.0985C35.6604 98.1287 35.4356 98.0817 35.2449 97.9656" fill="#B78876"/>
<path d="M35.7786 97.5902C35.7786 97.5607 35.8964 97.5423 36.0325 97.4393C36.1224 97.3811 36.1951 97.2998 36.243 97.204C36.2909 97.1083 36.3123 97.0014 36.3049 96.8946C36.2944 96.7891 36.2567 96.6882 36.1954 96.6017C36.1341 96.5152 36.0513 96.4462 35.9553 96.4014C35.8007 96.3278 35.6829 96.3315 35.6792 96.302C35.6755 96.2726 35.797 96.2174 36.0031 96.2689C36.1377 96.3088 36.2572 96.3881 36.3464 96.4965C36.4355 96.605 36.4901 96.7376 36.5032 96.8774C36.5162 97.0172 36.4872 97.1577 36.4197 97.2808C36.3522 97.4039 36.2494 97.5039 36.1246 97.5681C35.9111 97.6491 35.7786 97.6307 35.7786 97.5902Z" fill="#A36957"/>
</svg>
