<svg width="145" height="144" viewBox="0 0 145 144" fill="none" xmlns="http://www.w3.org/2000/svg">
<path d="M49.5688 2.17817C48.4345 0.46963 46.0524 0.267584 44.3971 1.3558C42.7417 2.44402 41.9158 3.80163 41.5046 5.90008C41.4389 4.96073 41.1707 4.04672 40.7186 3.22073C40.2664 2.39474 39.641 1.67633 38.8851 1.11476C37.3184 -0.115242 34.9115 -0.122331 33.6213 1.46923C32.876 2.49142 32.5454 3.75789 32.6961 5.01391C32.8024 6.26518 33.1002 7.57317 33.8198 8.53378C36.3896 11.9544 37.843 12.6031 41.2246 15.1021C44.7693 12.9079 45.9177 12.3727 48.757 9.18954C49.5546 8.29628 49.9622 7.01665 50.1749 5.77956C50.4308 4.54555 50.2145 3.26042 49.5688 2.17817Z" fill="#EBEBEB"/>
<path d="M9.91095 15.8713C10.1915 15.5618 10.3747 15.1766 10.4377 14.7637C10.5008 14.3509 10.4408 13.9285 10.2654 13.5495C10.1741 13.2882 10.0299 13.0485 9.84162 12.8455C9.65338 12.6425 9.42524 12.4806 9.1715 12.37C8.91776 12.2593 8.64389 12.2022 8.36706 12.2024C8.09024 12.2025 7.81642 12.2598 7.56278 12.3707C7.30914 12.4816 7.08115 12.6437 6.89309 12.8469C6.70504 13.05 6.56098 13.2898 6.46994 13.5512C6.37891 13.8127 6.34286 14.0901 6.36406 14.3661C6.38526 14.6421 6.46325 14.9108 6.59314 15.1552C6.75548 15.5444 7.02987 15.8766 7.38142 16.1095C7.73298 16.3424 8.14583 16.4655 8.56752 16.4632C5.93382 18.1328 7.41905 21.1422 7.41905 21.1422L14.0972 18.2249C14.0972 18.2249 12.892 15.0595 9.91095 15.8713Z" fill="#F5F5F5"/>
<path d="M128.268 66.7551C129.081 66.6467 129.845 66.3022 130.464 65.7641C131.083 65.226 131.531 64.5181 131.752 63.728C132.411 61.5054 131.256 59.2049 129.172 58.5882C127.087 57.9714 124.868 59.2723 124.209 61.4948C123.963 62.2845 123.956 63.1294 124.19 63.923C124.423 64.7165 124.886 65.4232 125.521 65.954C119.456 65.1387 117.878 71.5298 117.878 71.5298L131.603 75.5955C131.603 75.5955 133.776 69.3037 128.268 66.7551Z" fill="#E0E0E0"/>
<path d="M76.1078 112.666C76.1078 112.335 76.0425 112.007 75.9155 111.701C75.7886 111.395 75.6026 111.118 75.3682 110.884C75.1337 110.65 74.8554 110.465 74.5493 110.339C74.2431 110.213 73.9151 110.148 73.584 110.149L19.5099 110.231C19.1788 110.231 18.851 110.296 18.5451 110.423C18.2393 110.55 17.9616 110.736 17.7278 110.97C17.494 111.205 17.3088 111.483 17.1827 111.789C17.0567 112.095 16.9922 112.423 16.9932 112.754L17.018 129.379C17.0185 129.71 17.0841 130.038 17.2112 130.343C17.3383 130.649 17.5243 130.926 17.7587 131.16C17.993 131.394 18.2711 131.579 18.5771 131.705C18.883 131.831 19.2108 131.896 19.5418 131.896L66.5265 131.825L72.7545 138.134V131.818H73.6265C73.9576 131.818 74.2855 131.752 74.5913 131.625C74.8971 131.499 75.1748 131.313 75.4086 131.078C75.6424 130.844 75.8276 130.565 75.9537 130.259C76.0798 129.953 76.1442 129.625 76.1432 129.294L76.1078 112.666Z" fill="#EBEBEB"/>
<path d="M26.3157 129.776H26.3724L26.2625 128.004L26.3157 129.776Z" fill="#F5F5F5"/>
<path d="M28.6446 111.989C26.716 111.991 24.8385 112.609 23.2861 113.754C21.7337 114.898 20.5877 116.509 20.0154 118.35C19.443 120.192 19.4743 122.168 20.1046 123.991C20.7349 125.814 21.9312 127.387 23.519 128.482C23.0675 125.993 22.8303 123.469 22.81 120.939H22.764C22.764 120.79 22.803 120.567 22.8242 120.337C22.8466 120.052 22.8833 119.77 22.9341 119.489C23.9621 115.119 27.6698 114.24 28.4071 114.225C29.1976 114.225 30.5694 113.74 32.6253 115.849C33.2106 116.409 33.6174 117.129 33.7946 117.919C33.9718 118.709 33.9116 119.534 33.6213 120.29C33.6603 121.708 33.6851 123.279 33.6461 124.264C33.5611 126.348 31.5193 126.611 31.5193 126.611C31.5193 126.611 31.4201 128.404 31.3917 129.663C33.4541 129.013 35.2154 127.646 36.3565 125.809C37.4977 123.972 37.9432 121.788 37.6124 119.651C37.2815 117.514 36.1962 115.566 34.553 114.161C32.9098 112.755 30.8175 111.985 28.6552 111.989H28.6446Z" fill="#F5F5F5"/>
<path d="M31.4732 127.125C29.4386 127.249 28.8005 125.728 28.8005 125.728C29.5976 126.28 30.5391 126.587 31.5087 126.611C31.5087 126.611 33.554 126.348 33.6355 124.264C33.6745 123.279 33.6355 121.694 33.6107 120.29L33.2562 119.982L30.2964 119.248C30.5162 118.422 30.1511 117.409 29.9419 116.937L29.9207 116.919C29.389 120.049 26.0428 120.439 26.0428 120.439L26.2661 128.021L26.376 129.794C28.0246 130.221 29.7599 130.177 31.3846 129.666C31.413 128.408 31.5122 126.614 31.5122 126.614L31.4732 127.125ZM29.8994 121.208C29.8466 121.211 29.7943 121.197 29.7493 121.169C29.7043 121.141 29.6686 121.101 29.6467 121.053C29.6249 121.005 29.6179 120.951 29.6266 120.899C29.6353 120.847 29.6594 120.798 29.6958 120.76C29.7322 120.722 29.7791 120.695 29.8307 120.683C29.8823 120.672 29.9362 120.676 29.9855 120.695C30.0347 120.714 30.0771 120.748 30.1072 120.791C30.1374 120.835 30.1539 120.886 30.1546 120.939C30.1556 120.974 30.1497 121.008 30.1374 121.04C30.1251 121.072 30.1065 121.102 30.0828 121.127C30.0591 121.152 30.0307 121.172 29.9993 121.186C29.9678 121.2 29.9338 121.208 29.8994 121.208ZM32.9124 121.152C32.8595 121.154 32.8073 121.14 32.7623 121.112C32.7173 121.085 32.6816 121.044 32.6597 120.996C32.6378 120.948 32.6308 120.894 32.6396 120.842C32.6483 120.79 32.6724 120.742 32.7088 120.703C32.7451 120.665 32.7921 120.638 32.8437 120.627C32.8953 120.615 32.9492 120.619 32.9984 120.638C33.0477 120.658 33.0901 120.691 33.1202 120.735C33.1504 120.778 33.1668 120.83 33.1676 120.882C33.169 120.917 33.1635 120.951 33.1514 120.984C33.1392 121.016 33.1207 121.046 33.0969 121.071C33.0731 121.096 33.0445 121.116 33.0128 121.13C32.9811 121.144 32.947 121.151 32.9124 121.152ZM32.4976 120.393C32.6186 120.308 32.7646 120.265 32.9124 120.273C33.0606 120.279 33.2028 120.333 33.3165 120.429C33.4015 120.503 33.4299 120.57 33.4122 120.585C33.3944 120.599 33.1853 120.457 32.9053 120.446C32.6253 120.436 32.4161 120.578 32.3878 120.542C32.3594 120.507 32.4232 120.464 32.4976 120.393ZM31.2747 120.546C31.5005 121.033 31.69 121.537 31.8419 122.052L32.0368 122.648C32.0803 122.742 32.0915 122.848 32.0687 122.949C32.0585 122.975 32.0422 122.998 32.0212 123.017C32.0003 123.035 31.9753 123.048 31.9482 123.055C31.9083 123.062 31.8676 123.062 31.8277 123.055C31.674 123.07 31.519 123.064 31.3669 123.038C31.5154 122.993 31.6692 122.97 31.8242 122.967C31.8951 122.967 31.9624 122.949 31.9766 122.899C31.9824 122.82 31.9665 122.74 31.9305 122.669L31.7284 122.077C31.5387 121.579 31.3871 121.067 31.2747 120.546ZM31.81 123.793C31.7126 123.94 31.5674 124.049 31.399 124.102C31.2305 124.155 31.049 124.148 30.8848 124.083C30.8071 124.064 30.734 124.029 30.6698 123.981C30.6055 123.933 30.5514 123.873 30.5106 123.804C30.4697 123.736 30.4429 123.659 30.4317 123.58C30.4205 123.501 30.4251 123.42 30.4453 123.342C30.1582 123.155 31.2393 123.803 31.81 123.793ZM29.3925 120.464C29.5152 120.38 29.6623 120.339 29.8108 120.347C29.9581 120.352 30.0993 120.407 30.2113 120.503C30.2964 120.574 30.3248 120.641 30.3106 120.659C30.2964 120.677 30.0837 120.528 29.8037 120.521C29.5237 120.514 29.3145 120.652 29.2826 120.613C29.2507 120.574 29.3039 120.517 29.3925 120.464Z" fill="#EBEBEB"/>
<path d="M32.9018 120.62C32.8313 120.62 32.7636 120.648 32.7138 120.698C32.6639 120.748 32.6359 120.815 32.6359 120.886C32.6359 120.956 32.6639 121.024 32.7138 121.074C32.7636 121.124 32.8313 121.152 32.9018 121.152C32.9364 121.151 32.9705 121.144 33.0022 121.13C33.0339 121.116 33.0625 121.096 33.0863 121.071C33.1101 121.046 33.1286 121.016 33.1408 120.984C33.1529 120.951 33.1584 120.917 33.157 120.882C33.157 120.814 33.1304 120.748 33.0827 120.699C33.035 120.65 32.9701 120.622 32.9018 120.62Z" fill="#E0E0E0"/>
<path d="M32.9053 120.464C33.1853 120.464 33.3803 120.638 33.4122 120.602C33.4441 120.567 33.4122 120.521 33.3165 120.446C33.2027 120.351 33.0606 120.296 32.9124 120.29C32.7645 120.283 32.6185 120.326 32.4976 120.411C32.4055 120.478 32.3736 120.542 32.3877 120.56C32.4019 120.578 32.6252 120.432 32.9053 120.464Z" fill="#E0E0E0"/>
<path d="M29.8888 120.677C29.836 120.677 29.7845 120.692 29.7407 120.722C29.6969 120.751 29.6628 120.793 29.6428 120.842C29.6228 120.89 29.6178 120.944 29.6283 120.996C29.6388 121.047 29.6645 121.095 29.7021 121.132C29.7396 121.169 29.7873 121.194 29.8391 121.204C29.8909 121.214 29.9445 121.208 29.993 121.187C30.0415 121.167 30.0827 121.132 30.1115 121.088C30.1403 121.044 30.1553 120.992 30.1546 120.939C30.1537 120.869 30.1253 120.802 30.0755 120.753C30.0257 120.704 29.9587 120.677 29.8888 120.677Z" fill="#E0E0E0"/>
<path d="M29.8037 120.507C30.0837 120.507 30.2787 120.68 30.3106 120.645C30.3425 120.609 30.3106 120.56 30.2113 120.489C30.0993 120.393 29.9581 120.338 29.8108 120.333C29.6623 120.325 29.5152 120.366 29.3925 120.45C29.3039 120.517 29.2685 120.581 29.2826 120.599C29.2968 120.617 29.5237 120.492 29.8037 120.507Z" fill="#E0E0E0"/>
<path d="M31.9305 122.683C31.9665 122.754 31.9824 122.834 31.9766 122.913C31.9766 122.963 31.895 122.977 31.8241 122.981C31.6692 122.984 31.5154 123.008 31.3669 123.052C31.519 123.078 31.674 123.084 31.8277 123.069C31.8676 123.076 31.9083 123.076 31.9482 123.069C31.9753 123.062 32.0003 123.049 32.0212 123.031C32.0422 123.012 32.0584 122.989 32.0687 122.963C32.0915 122.862 32.0803 122.756 32.0368 122.662L31.8419 122.066C31.69 121.551 31.5005 121.047 31.2747 120.56C31.3864 121.086 31.538 121.602 31.7284 122.105L31.9305 122.683Z" fill="#E0E0E0"/>
<path d="M30.8848 124.083C31.049 124.148 31.2305 124.155 31.399 124.102C31.5674 124.049 31.7126 123.94 31.81 123.793C31.2393 123.793 30.1582 123.154 30.4453 123.342C30.4251 123.42 30.4205 123.501 30.4317 123.58C30.4429 123.659 30.4697 123.736 30.5105 123.804C30.5514 123.873 30.6055 123.933 30.6698 123.981C30.734 124.029 30.8071 124.064 30.8848 124.083Z" fill="white"/>
<path d="M28.8005 125.728C28.8005 125.728 29.4386 127.249 31.4732 127.125L31.5087 126.611C30.5391 126.587 29.5976 126.28 28.8005 125.728Z" fill="#E0E0E0"/>
<path d="M26.0427 120.439C26.0427 120.439 29.3889 120.049 29.9206 116.919L29.9419 116.937C30.1475 117.409 30.5126 118.422 30.2964 119.248L33.2845 119.982L33.639 120.29C33.9255 119.534 33.9822 118.709 33.8018 117.92C33.6215 117.131 33.2122 116.413 32.6252 115.856C30.5693 113.747 29.1975 114.218 28.407 114.233C27.6698 114.233 23.962 115.126 22.9341 119.496C22.8832 119.777 22.8465 120.06 22.8242 120.344C22.8029 120.574 22.7816 120.797 22.7639 120.946H22.81C22.8302 123.476 23.0674 126 23.5189 128.489C24.3703 129.077 25.3163 129.515 26.3157 129.783L26.2625 128.028L26.0427 120.439Z" fill="#E0E0E0"/>
<path d="M40.9803 118.131L69.4122 118.086L69.4097 116.52L40.9779 116.564L40.9803 118.131Z" fill="#F5F5F5"/>
<path d="M40.9882 122.165L69.42 122.12L69.4176 120.553L40.9857 120.598L40.9882 122.165Z" fill="#F5F5F5"/>
<path d="M55.3309 126.057L69.4246 126.035L69.4221 124.468L55.3285 124.49L55.3309 126.057Z" fill="#F5F5F5"/>
<path d="M118.371 49.5705C118.129 49.3601 117.815 49.2526 117.495 49.2712C117.175 49.2897 116.875 49.4328 116.659 49.6698C116.445 49.8855 116.28 50.1453 116.176 50.4312C116.071 50.717 116.031 51.022 116.056 51.3251C115.97 51.0296 115.82 50.7564 115.617 50.5245C115.415 50.2925 115.164 50.1073 114.883 49.9817C114.598 49.8321 114.266 49.7991 113.957 49.8897C113.648 49.9803 113.387 50.1874 113.228 50.4673C113.062 50.8453 113.045 51.2715 113.178 51.6619C113.28 52.0656 113.491 52.4336 113.788 52.7253C114.851 53.6363 115.358 53.7426 116.624 54.3027C117.609 53.3491 117.932 53.0975 118.616 51.8817C118.793 51.5124 118.866 51.102 118.828 50.6942C118.825 50.275 118.661 49.8731 118.371 49.5705Z" fill="#F5F5F5"/>
<path d="M33.3767 18.1257L33.8446 19.0721L34.8903 19.2245L34.1353 19.9618L34.3125 21.004L33.3767 20.5112L32.4445 21.004L32.6217 19.9618L31.8667 19.2245L32.9124 19.0721L33.3767 18.1257Z" fill="#E0E0E0"/>
<path d="M16.0361 40.521L16.8833 42.2366L18.7726 42.5095L17.4044 43.8423L17.7269 45.7246L16.0361 44.8348L14.3453 45.7246L14.6714 43.8423L13.3032 42.5095L15.1925 42.2366L16.0361 40.521Z" fill="#E0E0E0"/>
<path d="M28.0845 41.6872L28.3184 42.1586L28.8395 42.2366L28.4638 42.6017L28.5524 43.1228L28.0845 42.8782L27.6166 43.1228L27.7087 42.6017L27.3295 42.2366L27.8505 42.1586L28.0845 41.6872Z" fill="#E0E0E0"/>
<path d="M106.599 129.797C99.2972 124.696 97.6418 115.229 97.9289 106.718C97.9785 105.3 97.8226 103.797 98.4961 102.553C99.1696 101.309 100.75 100.454 102.041 101.05C103.104 101.55 103.554 102.776 104.146 103.79C104.933 105.147 106.088 106.253 107.478 106.98C108.382 107.448 109.502 107.735 110.392 107.243C111.618 106.569 111.764 104.875 111.753 103.46C111.739 100.828 111.724 98.1941 111.707 95.5592C111.707 94.1414 111.707 92.7058 112.132 91.3659C112.558 90.026 113.55 88.7783 114.887 88.399C116.223 88.0197 117.893 88.7995 118.176 90.1713C118.297 90.7456 118.176 91.3446 118.219 91.9437C118.261 92.5427 118.531 93.1808 119.087 93.3438C119.644 93.5069 120.218 93.1099 120.64 92.6951C122.097 91.2773 123.086 89.4305 124.011 87.605C124.936 85.7795 125.833 83.9043 127.158 82.3482C128.484 80.7921 130.313 79.5586 132.334 79.4451C134.354 79.3317 136.516 80.5794 137.027 82.5644C137.537 84.5495 136.378 86.5806 135.113 88.1899C133.237 90.5824 131.024 92.6909 128.544 94.4497C128.101 94.7688 127.616 95.1091 127.445 95.6337C127.141 96.573 128.034 97.5088 128.963 97.8207C130.026 98.1752 131.157 98.0618 132.259 98.1752C133.362 98.2886 134.556 98.792 134.971 99.8341C135.552 101.277 134.343 102.79 133.156 103.783C130.774 105.766 128.069 107.325 125.159 108.391C124.117 108.774 123.032 109.1 122.185 109.837C121.338 110.574 120.842 111.836 121.349 112.832C121.855 113.829 123.156 114.148 124.245 113.945C125.333 113.743 126.308 113.151 127.346 112.762C129.285 112.028 131.795 112.163 133.039 113.825C133.854 114.927 133.929 116.466 133.514 117.781C133.099 119.096 132.263 120.227 131.387 121.272C128.275 124.923 124.298 127.862 119.785 129.425C115.273 130.988 111.108 131.41 106.631 129.78" fill="#47D163"/>
<path d="M106.486 136.107C106.882 132.161 107.655 128.262 108.793 124.463C110.207 119.826 111.885 115.274 113.82 110.83L115.323 107.324C115.819 106.176 116.308 105.034 116.857 103.949C117.916 101.868 119.089 99.8472 120.37 97.8952C121.583 96.0236 122.798 94.2902 123.95 92.6774C125.102 91.0646 126.205 89.59 127.268 88.282C128.936 86.2132 130.764 84.28 132.738 82.5006C133.447 81.8697 133.992 81.3982 134.372 81.0828L134.808 80.7283C134.855 80.6839 134.907 80.6458 134.964 80.6149C134.922 80.6629 134.876 80.7069 134.825 80.746L134.411 81.1182C134.039 81.4443 133.496 81.9264 132.809 82.568C130.87 84.3762 129.069 86.3265 127.421 88.4025C126.357 89.7105 125.294 91.1922 124.135 92.805C122.976 94.4179 121.785 96.1548 120.59 98.0263C119.318 99.9699 118.154 101.982 117.102 104.052C116.556 105.133 116.071 106.261 115.578 107.416L114.078 110.918C112.147 115.353 110.465 119.893 109.041 124.516C107.895 128.298 107.107 132.18 106.688 136.11" fill="#263238"/>
<path d="M116.932 103.939C116.865 103.743 116.819 103.541 116.794 103.336C116.719 102.946 116.631 102.379 116.531 101.674C116.333 100.256 116.124 98.3135 115.9 96.1618C115.677 94.0102 115.44 92.0642 115.22 90.664C115.11 89.9551 115.018 89.3986 114.947 89.0087C114.898 88.8066 114.872 88.5998 114.869 88.3919C114.948 88.5838 115.008 88.7833 115.046 88.9874C115.145 89.3702 115.269 89.9338 115.401 90.6321C115.666 92.0288 115.936 93.9783 116.159 96.1335C116.382 98.2887 116.567 100.182 116.716 101.653C116.787 102.315 116.847 102.872 116.893 103.322C116.929 103.526 116.942 103.732 116.932 103.939Z" fill="#263238"/>
<path d="M135.098 100.543C134.865 100.594 134.628 100.624 134.389 100.632C133.922 100.674 133.248 100.727 132.415 100.827C130.753 101.004 128.463 101.334 125.953 101.805C123.443 102.276 121.189 102.812 119.573 103.244C118.761 103.453 118.109 103.638 117.659 103.765C117.428 103.845 117.191 103.904 116.95 103.939C117.167 103.826 117.395 103.735 117.63 103.666C118.073 103.51 118.718 103.311 119.523 103.063C121.136 102.588 123.39 102.028 125.904 101.546C128.417 101.064 130.724 100.773 132.397 100.639C133.234 100.568 133.914 100.54 134.382 100.529C134.621 100.512 134.861 100.517 135.098 100.543Z" fill="#263238"/>
<path d="M109.02 124.126C109.02 124.126 108.967 124.055 108.893 123.906C108.818 123.757 108.708 123.513 108.584 123.25C108.315 122.676 107.95 121.832 107.521 120.797C106.645 118.717 105.525 115.803 104.331 112.574C103.136 109.345 102.044 106.42 101.215 104.325C100.807 103.304 100.47 102.468 100.222 101.844C100.116 101.575 100.027 101.351 99.9564 101.167C99.9198 101.09 99.8936 101.009 99.8784 100.926C99.929 100.994 99.9706 101.067 100.002 101.146C100.088 101.323 100.19 101.539 100.314 101.805C100.58 102.376 100.945 103.223 101.378 104.254C102.253 106.335 103.373 109.249 104.568 112.482C105.763 115.714 106.851 118.632 107.684 120.726C108.091 121.747 108.425 122.584 108.676 123.208C108.783 123.477 108.871 123.7 108.942 123.885C108.977 123.962 109.003 124.043 109.02 124.126Z" fill="#263238"/>
<path d="M133.159 116.345C133.084 116.39 133.003 116.423 132.918 116.444L132.209 116.682L129.622 117.519C127.442 118.227 124.436 119.238 121.115 120.354C117.793 121.471 114.784 122.481 112.583 123.126C111.484 123.459 110.594 123.718 109.974 123.885L109.265 124.073C109.184 124.101 109.099 124.116 109.013 124.119C109.088 124.075 109.167 124.042 109.251 124.019L109.959 123.785L112.533 122.945C114.716 122.236 117.719 121.226 121.04 120.11C124.362 118.993 127.375 118.001 129.572 117.338C130.671 117.005 131.564 116.746 132.185 116.579L132.894 116.391C132.98 116.366 133.069 116.351 133.159 116.345Z" fill="#263238"/>
<path d="M137.278 9.54045V14.1237C137.278 14.622 137.08 15.0998 136.728 15.4522C136.376 15.8045 135.898 16.0024 135.4 16.0024H127.495V18.6148L126.077 16.1158C125.657 16.0854 125.264 15.897 124.977 15.5885C124.691 15.2801 124.531 14.8745 124.532 14.4534V9.54045C124.532 9.04314 124.729 8.56619 125.081 8.21453C125.433 7.86288 125.909 7.66532 126.407 7.66532H135.4C135.646 7.66485 135.89 7.71301 136.118 7.80703C136.346 7.90106 136.553 8.03911 136.728 8.21328C136.902 8.38745 137.041 8.59432 137.135 8.82205C137.23 9.04978 137.278 9.29391 137.278 9.54045Z" fill="#455A64"/>
<path d="M133.741 12.8406C134.168 12.8406 134.514 12.4946 134.514 12.0678C134.514 11.641 134.168 11.2951 133.741 11.2951C133.314 11.2951 132.968 11.641 132.968 12.0678C132.968 12.4946 133.314 12.8406 133.741 12.8406Z" fill="#263238"/>
<path d="M130.806 12.8406C131.233 12.8406 131.579 12.4946 131.579 12.0678C131.579 11.641 131.233 11.2951 130.806 11.2951C130.379 11.2951 130.033 11.641 130.033 12.0678C130.033 12.4946 130.379 12.8406 130.806 12.8406Z" fill="#263238"/>
<path d="M127.102 12.0678C127.103 12.2204 127.149 12.3691 127.235 12.4952C127.321 12.6213 127.442 12.7193 127.583 12.7767C127.725 12.8341 127.88 12.8484 128.029 12.8178C128.179 12.7871 128.316 12.713 128.423 12.6047C128.531 12.4963 128.603 12.3586 128.633 12.2089C128.662 12.0592 128.646 11.9042 128.588 11.7634C128.529 11.6226 128.43 11.5024 128.303 11.4178C128.176 11.3332 128.027 11.288 127.874 11.288C127.772 11.2875 127.671 11.3074 127.576 11.3465C127.482 11.3856 127.396 11.4432 127.324 11.5158C127.252 11.5884 127.196 11.6746 127.157 11.7694C127.119 11.8642 127.1 11.9656 127.102 12.0678Z" fill="#263238"/>
<path d="M30.3282 26.9059C30.3251 26.9562 30.3168 27.0061 30.3034 27.0547C30.2822 27.1646 30.2503 27.3135 30.2113 27.5014C30.1262 27.9055 30.0057 28.4868 29.8568 29.2276C29.5307 30.7412 29.0628 32.9105 28.4921 35.5691V35.6364L28.4212 35.6187L26.0392 35.1012C24.9758 35.0409 23.9124 34.97 22.7497 34.8849C21.5871 34.7999 20.4067 34.7219 19.1731 34.5482C18.8469 34.5061 18.5329 34.3968 18.251 34.2272C17.9691 34.0576 17.7255 33.8313 17.5355 33.5628C17.1486 33.0095 16.9646 32.3396 17.0144 31.6664C17.0488 31.3328 17.1128 31.0031 17.2058 30.6809C17.2838 30.3584 17.3653 30.0358 17.4433 29.7097L17.9467 27.7389C18.1452 26.9732 18.3508 26.2217 18.5705 25.4809C18.684 25.1087 18.7974 24.7436 18.925 24.3856C18.9569 24.2934 19.0065 24.2048 19.0491 24.1126C19.082 24.0597 19.1226 24.0119 19.1696 23.9709C19.2235 23.946 19.2809 23.9293 19.3397 23.9212C19.533 23.9018 19.7278 23.9018 19.9211 23.9212C21.3658 24.0812 22.8002 24.3238 24.2172 24.6479H24.2775V24.7117C24.2757 24.7294 24.2757 24.7472 24.2775 24.7649C24.2775 24.7649 24.2775 24.7649 24.2278 24.7365C24.1782 24.7082 24.1782 24.7578 24.1782 24.7365C24.1874 24.721 24.1946 24.7043 24.1995 24.6869C24.2273 24.609 24.251 24.5298 24.2704 24.4494C24.3129 24.2828 24.3484 24.1162 24.3803 23.9496C24.4441 23.6164 24.5043 23.2867 24.5575 22.9571C24.6361 22.3112 24.7544 21.6707 24.912 21.0394C25.0853 20.4374 25.4056 19.888 25.8442 19.4408C26.0573 19.2281 26.3194 19.071 26.6074 18.9832C26.8954 18.8955 27.2005 18.8797 27.496 18.9374H27.5634L27.5457 19.0083L26.9289 21.7554V21.72C27.8541 23.9106 28.5488 25.566 28.9813 26.5904H28.96L30.0021 26.8385L30.2538 26.8988L30.3318 26.9236H30.2432L29.9809 26.874L28.9494 26.6613C28.5063 25.644 27.7867 23.9992 26.8225 21.8157V21.798C27.0069 20.9579 27.2054 20.0434 27.4216 19.0438L27.4712 19.1253C27.2001 19.0766 26.9213 19.0947 26.6588 19.1781C26.3963 19.2615 26.158 19.4076 25.9647 19.6038C25.5605 20.0496 25.2741 20.5894 25.1317 21.1741C24.9757 21.801 24.8573 22.4366 24.7773 23.0776C24.7241 23.4073 24.6709 23.7405 24.6036 24.0772C24.5717 24.2438 24.5362 24.4317 24.4937 24.5805C24.4738 24.6681 24.449 24.7545 24.4193 24.8393C24.4193 24.8606 24.4193 24.8854 24.3909 24.9102C24.383 24.9242 24.3735 24.9373 24.3625 24.9492C24.3518 24.9665 24.3365 24.9805 24.3184 24.9899C24.3003 24.9992 24.2801 25.0035 24.2597 25.0024C24.1782 24.9776 24.1853 24.9421 24.1676 24.9279C24.1499 24.9137 24.1676 24.8925 24.1676 24.8818V24.8039L24.2349 24.8818C22.8311 24.5677 21.4111 24.3311 19.9813 24.1729C19.7998 24.1552 19.617 24.1552 19.4354 24.1729C19.4009 24.176 19.3672 24.1857 19.3362 24.2013C19.3148 24.2241 19.2958 24.249 19.2795 24.2757C19.2374 24.3564 19.1995 24.4392 19.166 24.5238C19.0278 24.8783 18.9144 25.2328 18.8116 25.5872C18.5918 26.321 18.3898 27.076 18.1877 27.8381C18.0211 28.501 17.8332 29.1567 17.6879 29.8054C17.6064 30.1315 17.5284 30.4576 17.4469 30.7802C17.3581 31.0923 17.2952 31.4112 17.259 31.7337C17.2135 32.3626 17.3849 32.9882 17.7446 33.506C17.9191 33.7552 18.1434 33.9655 18.4033 34.1236C18.6632 34.2816 18.9531 34.3839 19.2547 34.4241C20.4705 34.5978 21.6686 34.6758 22.7993 34.7786L26.0853 35.0054L28.4637 35.5372L28.3822 35.5903C28.9777 32.9566 29.4669 30.8085 29.8001 29.3056C29.9738 28.5648 30.1085 27.9799 30.2006 27.5723C30.2467 27.3808 30.2857 27.2178 30.3105 27.1185C30.31 27.0473 30.3159 26.9761 30.3282 26.9059Z" fill="#263238"/>
<path d="M34.4436 27.0228C34.3641 27.0185 34.2848 27.0103 34.2061 26.998L33.5539 26.9094L31.1825 26.5549L31.2534 26.5053C30.7713 28.7207 30.0766 31.9003 29.3074 35.4379L29.2329 35.7463L29.162 35.6364L31.5228 36.161L31.4165 36.2212C32.2636 33.6053 33.008 31.319 33.5433 29.66C33.8127 28.8519 34.0289 28.1961 34.1848 27.7211C34.2593 27.5084 34.316 27.3347 34.3656 27.1965C34.3825 27.1315 34.4062 27.0685 34.4365 27.0086C34.4259 27.0665 34.4105 27.1234 34.3904 27.1788L34.2416 27.6927C34.0962 28.1642 33.8871 28.8164 33.6531 29.6246C33.1321 31.3048 32.4125 33.623 31.5866 36.278L31.5653 36.3559H31.4838L29.123 35.8349L29.0309 35.8136L29.0522 35.725L29.1195 35.4131L31.1222 26.4946V26.4344H31.179L33.5823 26.8527L34.2132 26.9696C34.2912 26.9816 34.3682 26.9994 34.4436 27.0228Z" fill="#263238"/>
<path d="M113.603 14.4073L114.812 16.8567L117.517 17.2466L115.56 19.1537L116.021 21.8476L113.603 20.5751L111.186 21.8476L111.647 19.1537L109.69 17.2466L112.395 16.8567L113.603 14.4073Z" fill="#47D163"/>
<path d="M133.73 52.4276L134.333 53.6505L135.687 53.849L134.708 54.8025L134.939 56.1459L133.73 55.5114L132.521 56.1459L132.752 54.8025L131.773 53.849L133.128 53.6505L133.73 52.4276Z" fill="#47D163"/>
<path d="M19.7474 81.2635L20.3536 82.4899L21.7041 82.6849L20.7258 83.6384L20.9562 84.9854L19.7474 84.3509L18.5387 84.9854L18.7691 83.6384L17.7908 82.6849L19.1448 82.4899L19.7474 81.2635Z" fill="#47D163"/>
<path d="M97.8332 143.104L53.117 143.395C51.8385 143.404 50.5707 143.16 49.3861 142.679C48.2016 142.198 47.1234 141.488 46.2132 140.59C45.3031 139.692 44.5787 138.624 44.0816 137.446C43.5845 136.268 43.3243 135.003 43.316 133.725L42.5326 21.6243C42.5156 19.0405 43.5255 16.5558 45.3402 14.7165C47.1549 12.8772 49.6258 11.834 52.2096 11.8162L96.9364 11.522C98.2157 11.515 99.4838 11.7601 100.668 12.2435C101.853 12.7268 102.931 13.4388 103.84 14.3388C104.749 15.2388 105.472 16.3092 105.967 17.4887C106.463 18.6682 106.721 19.9338 106.727 21.2131L107.51 133.314C107.522 135.894 106.51 138.374 104.696 140.21C102.882 142.045 100.414 143.086 97.8332 143.104Z" fill="#263238"/>
<path d="M96.9045 15.3928L88.2342 15.4495C87.9513 15.4577 87.6728 15.5217 87.4146 15.6378C87.1565 15.7538 86.9238 15.9196 86.7299 16.1258C86.5359 16.3319 86.3845 16.5743 86.2844 16.839C86.1843 17.1037 86.1374 17.3856 86.1464 17.6684V19.2387C86.1626 19.8098 85.9514 20.3639 85.5592 20.7793C85.1671 21.1948 84.626 21.4375 84.055 21.4542L67.161 21.5676C66.8776 21.5644 66.5975 21.5051 66.337 21.3934C66.0765 21.2816 65.8407 21.1194 65.643 20.9161C65.4454 20.7129 65.2899 20.4726 65.1854 20.2091C65.0809 19.9456 65.0296 19.664 65.0342 19.3805V17.8102C65.0418 17.2383 64.8221 16.6867 64.4233 16.2767C64.0246 15.8666 63.4794 15.6316 62.9074 15.6232L59.859 15.6409L52.2734 15.6941C51.3773 15.6992 50.4911 15.8809 49.6653 16.2288C48.8396 16.5768 48.0906 17.0841 47.4611 17.7218C46.8316 18.3596 46.334 19.1151 45.9968 19.9453C45.6596 20.7755 45.4894 21.6641 45.496 22.5601L46.2581 131.977C46.2641 132.873 46.4465 133.759 46.7948 134.584C47.1431 135.409 47.6506 136.157 48.2881 136.786C48.9257 137.415 49.6809 137.913 50.5107 138.25C51.3405 138.587 52.2285 138.757 53.1241 138.751L97.7481 138.46C98.6442 138.454 99.5303 138.272 100.356 137.923C101.181 137.575 101.93 137.067 102.56 136.429C103.189 135.791 103.686 135.036 104.024 134.206C104.361 133.375 104.532 132.487 104.526 131.591L103.763 22.1737C103.752 20.3653 103.023 18.6352 101.737 17.3637C100.451 16.0922 98.713 15.3833 96.9045 15.3928Z" fill="#FAFAFA"/>
<path d="M84.2358 136.33L84.8632 136.426V136.387L83.97 136.291L84.2358 136.33Z" fill="#B78876"/>
<path d="M74.0661 138.609C74.0661 138.521 74.0448 138.429 74.0378 138.344C73.9659 137.586 73.9565 136.824 74.0094 136.064C74.0307 135.798 74.059 135.589 74.0838 135.451C74.0925 135.384 74.1055 135.318 74.1228 135.253C72.7971 135.111 71.599 134.99 70.6207 134.898L68.6498 134.7L68.9582 138.648L74.0661 138.609Z" fill="#B78876"/>
<path d="M77.4407 135.618C76.2815 135.486 75.1791 135.362 74.1512 135.263C74.1512 135.331 74.1299 135.618 74.1193 136.082C74.1018 136.835 74.1362 137.588 74.2221 138.336C74.2221 138.429 74.2469 138.524 74.2611 138.616L85.4481 138.542C85.1149 137.479 84.9128 136.812 84.8809 136.667C84.8783 136.629 84.8783 136.591 84.8809 136.553L84.2393 136.472C82.4812 136.231 80.0814 135.926 77.4407 135.618Z" fill="#B78876"/>
<path d="M74.1051 136.061C74.1051 135.593 74.1441 135.309 74.137 135.242C74.1197 135.307 74.1066 135.373 74.098 135.44C74.0732 135.579 74.0448 135.795 74.0235 136.054C73.9706 136.813 73.9801 137.575 74.0519 138.333C74.0519 138.418 74.0732 138.51 74.0803 138.599H74.2504C74.2504 138.507 74.222 138.411 74.2114 138.319C74.1241 137.569 74.0886 136.815 74.1051 136.061Z" fill="#A36957"/>
<path d="M60.0717 71.8524L58.2746 69.8107L58.4482 69.6335C57.1403 70.6402 56.169 71.2534 56.0839 70.9308C54.5137 65.1991 54.7051 57.8155 54.8539 55.001C55.0064 54.7529 55.1765 54.48 55.3821 54.1822C55.6213 53.8362 55.9159 53.532 56.2541 53.2819C56.6626 52.9538 57.1147 52.6842 57.5975 52.4808C58.0548 52.3354 58.1151 51.7187 57.7074 51.5804C57.2998 51.4422 56.0272 51.8073 54.8717 52.8352C53.7161 53.8632 54.1273 51.4882 54.2655 50.6233C54.4038 49.7584 54.698 47.0539 54.464 46.8057C54.1096 46.4513 53.6594 46.7526 53.5424 47.6245C53.4254 48.4965 52.8937 51.0806 52.4365 50.9955C51.9792 50.9105 52.7449 46.5044 52.7449 46.5044C52.7449 46.5044 53.0603 45.5864 52.5357 45.4729C51.5928 45.2709 51.1179 50.0066 51.1001 50.4603C51.0789 50.7722 50.5791 50.7013 50.6216 50.3646C50.6641 50.0278 51.4794 45.9798 50.5188 45.7565C49.7851 45.5934 50.1076 49.6556 49.4731 50.4107C48.8386 51.1657 49.544 47.2984 48.8315 47.1673C48.5692 47.1177 48.3636 47.1212 48.2786 49.3898C48.2964 51.2181 48.4147 53.044 48.633 54.8592C48.1829 61.1014 47.4952 80.1931 56.0769 79.2963C59.6003 78.9418 62.1489 77.7153 63.9815 76.2904L60.1603 71.9446L60.0717 71.8524Z" fill="#B78876"/>
<path d="M79.9822 94.3009L87.146 94.51C87.1779 92.3265 87.2098 90.1997 87.2417 88.1509C87.2021 88.0535 87.1678 87.9541 87.1389 87.8531V87.5376C85.0759 87.488 82.708 87.4313 80.1452 87.364C80.0838 89.6018 80.0294 91.9141 79.9822 94.3009Z" fill="#455A64"/>
<path d="M76.1999 87.2611L72.0881 87.1442C72.003 89.3773 71.918 91.6991 71.8329 94.0776L75.6221 94.1768L79.7978 94.2902C79.8474 91.9047 79.9077 89.5864 79.9715 87.3533L76.1999 87.2611Z" fill="#455A64"/>
<path d="M86.8411 123.123L79.8368 122.945C79.8368 123.552 79.8368 124.151 79.8545 124.718C79.8829 126.685 79.9077 128.429 79.9289 129.925L86.912 130.134C86.8942 128.801 86.8623 127.298 86.8553 125.615C86.8482 124.831 86.8446 124.009 86.8411 123.123Z" fill="#455A64"/>
<path d="M87.0609 133.679C87.0609 134.622 87.0857 135.359 87.0928 135.866C87.0928 136.11 87.0928 136.302 87.0928 136.436C87.0928 136.571 87.0928 136.631 87.0928 136.631C87.0928 136.631 87.6883 134.129 88.4469 130.315L87.029 130.283C87.0113 131.605 87.0432 132.746 87.0609 133.679Z" fill="#455A64"/>
<path d="M86.9864 125.632C86.9864 127.305 87.0077 128.823 87.0183 130.155L88.4717 130.201C88.8758 128.167 89.3259 125.771 89.7584 123.183L86.9829 123.126C86.9829 123.993 86.9841 124.829 86.9864 125.632Z" fill="#455A64"/>
<path d="M87.0573 135.869C87.0573 135.359 87.0183 134.625 86.99 133.679C86.9616 132.732 86.9332 131.605 86.9155 130.283C84.966 130.24 82.5839 130.184 79.929 130.116C79.929 131.148 79.9573 132.062 79.968 132.832C79.968 133.785 79.9928 134.522 79.9999 135.036C79.9999 135.281 79.9999 135.472 79.9999 135.607V135.745C81.5063 135.937 82.8569 136.128 83.9664 136.291L84.8596 136.387L87.0892 136.631C87.0892 136.631 87.0892 136.564 87.0892 136.436C87.0892 136.309 87.0679 136.114 87.0573 135.869Z" fill="#455A64"/>
<path d="M90.3504 94.6092C88.9786 90.1217 87.9719 89.4517 87.4225 88.5124C87.3977 90.4513 87.3693 92.4576 87.3374 94.5171L90.3504 94.6092Z" fill="#455A64"/>
<path d="M79.6809 101.596L75.0302 101.472L71.5564 101.38C71.4607 103.769 71.3721 106.083 71.287 108.309L74.4489 108.395L79.6312 108.536C79.6383 106.285 79.656 103.981 79.6809 101.596Z" fill="#455A64"/>
<path d="M87.2629 99.0826C87.2487 99.9404 87.2358 100.791 87.2239 101.635L91.6442 101.78C91.5869 100.108 91.3625 98.4453 90.9742 96.8176C90.7722 96.0378 90.5772 95.3465 90.3858 94.7227L87.3338 94.6553C87.3126 96.1122 87.2877 97.5832 87.2629 99.0826Z" fill="#455A64"/>
<path d="M79.7943 94.4781L75.6151 94.3682L71.8258 94.2654C71.7975 95.0287 71.7691 95.7955 71.7408 96.5659C71.6817 98.1373 71.6214 99.6817 71.56 101.199L75.0338 101.287L79.6844 101.415C79.6986 100.295 79.7139 99.1629 79.7305 98.0192C79.7517 96.8258 79.773 95.6454 79.7943 94.4781Z" fill="#455A64"/>
<path d="M87.0325 101.773C84.966 101.727 82.5308 101.667 79.8652 101.599C79.8368 103.985 79.8191 106.303 79.8085 108.54C82.4741 108.614 84.8951 108.685 86.9297 108.749C86.9581 106.502 87.0113 104.159 87.0325 101.773Z" fill="#455A64"/>
<path d="M87.1424 94.6553C85.0581 94.6092 82.6265 94.549 79.9786 94.4816C79.9573 95.649 79.9361 96.8306 79.9148 98.0263C79.8959 99.1724 79.8805 100.306 79.8687 101.426L87.0361 101.635C87.0361 100.788 87.0609 99.9404 87.0786 99.0826C87.0999 97.5797 87.1211 96.1086 87.1424 94.6553Z" fill="#455A64"/>
<path d="M87.2807 62.2853C87.2984 62.7958 87.3197 63.5295 87.348 64.476C87.348 64.7985 87.3693 65.1601 87.3764 65.5394C87.3764 65.6599 87.3941 65.7769 87.3976 65.8938L92.0057 66.0321C91.2117 63.7458 89.4429 62.2676 87.5359 61.3283C87.4647 61.4887 87.3742 61.6399 87.2665 61.7785C87.2665 61.9061 87.2736 62.0727 87.2807 62.2853Z" fill="#455A64"/>
<path d="M87.2452 62.2889C87.2452 62.0868 87.2452 61.9344 87.2452 61.7997C87.2239 61.828 87.2027 61.8599 87.1778 61.8883C87.1453 61.9232 87.111 61.9563 87.075 61.9876C86.8719 62.4378 86.576 62.84 86.2066 63.1679C86.7427 63.6557 87.1204 64.2927 87.2913 64.997C87.2913 64.8198 87.2913 64.6425 87.2913 64.4759C87.2629 63.533 87.2523 62.7957 87.2452 62.2889Z" fill="#455A64"/>
<path d="M72.4958 72.3238L66.328 72.1466C66.2501 72.8555 66.165 73.5645 66.0835 74.2734C66.0126 74.9185 65.9417 75.553 65.8708 76.1734C65.9262 77.3905 66.1887 78.5892 66.6471 79.718L72.2051 79.8563C72.3079 77.1375 72.4072 74.6102 72.4958 72.3238Z" fill="#455A64"/>
<path d="M80.6627 72.3628L83.144 72.4302C83.2666 72.4026 83.391 72.3837 83.5162 72.3735C83.4595 72.2919 83.4347 72.221 83.4595 72.2033C83.467 72.199 83.4756 72.1967 83.4843 72.1967C83.493 72.1967 83.5016 72.199 83.5091 72.2033C83.2168 71.9183 83.0476 71.5303 83.0377 71.1222C83.0377 70.2821 83.619 69.5377 84.1684 68.8536C83.6466 67.9811 83.4111 66.9672 83.4949 65.954L80.9605 65.8902C80.8896 67.4322 80.8045 69.2506 80.7088 71.3136C80.6946 71.6574 80.6804 72.0083 80.6627 72.3628Z" fill="#455A64"/>
<path d="M76.7884 80.1576L72.3469 80.0548C72.2689 82.2525 72.1838 84.5707 72.0917 86.9882L76.207 87.0945L79.975 87.1973C80.0459 84.7763 80.1204 82.4546 80.2019 80.2639L76.7884 80.1576Z" fill="#455A64"/>
<path d="M87.3232 61.2184C87.3232 61.2999 87.2842 61.3779 87.2629 61.4559C87.3052 61.3843 87.3419 61.3097 87.3728 61.2326L87.3232 61.2184Z" fill="#455A64"/>
<path d="M78.4544 79.0587C77.6551 78.9511 76.8977 78.6371 76.2567 78.1478C76.0635 78.0017 75.8843 77.8379 75.7214 77.6586C75.6579 77.597 75.6051 77.5251 75.5655 77.4459C75.5903 77.4211 75.842 77.7047 76.3347 78.0414C76.8987 78.4349 77.5397 78.7043 78.2155 78.832C78.8912 78.9597 79.5864 78.9428 80.2551 78.7823C80.3437 76.542 80.4323 74.4471 80.5209 72.5365L76.2071 72.4266L72.6305 72.3274C72.5454 74.6137 72.4533 77.1411 72.354 79.8563L76.7919 79.9733L80.209 80.0654C80.209 79.6861 80.2374 79.314 80.2515 78.9418C79.6658 79.097 79.0554 79.1368 78.4544 79.0587Z" fill="#455A64"/>
<path d="M87.3905 66.1242C87.3905 66.6843 87.4153 67.2869 87.426 67.9355C87.4437 69.2861 87.4756 70.8245 87.4827 72.5224V72.5578C89.8859 72.6322 91.8497 72.696 93.179 72.7457C93.0053 71.4519 92.7359 69.6866 92.3247 67.2656C92.2592 66.8926 92.1692 66.5244 92.0553 66.1632L87.3976 66.0569C87.3968 66.0794 87.3944 66.1019 87.3905 66.1242Z" fill="#455A64"/>
<path d="M87.3657 75.5991C87.3657 74.5924 87.3657 73.6248 87.3657 72.7031L84.6647 72.6393C84.5473 72.6581 84.4276 72.6581 84.3102 72.6393H84.0444C84.0692 72.6712 84.0834 72.696 84.0727 72.7102C84.0621 72.7244 83.9806 72.7102 83.8813 72.6783C83.8893 72.7002 83.8953 72.7227 83.899 72.7457C83.9344 72.783 83.9664 72.8233 83.9948 72.8662C84.1691 73.1353 84.2683 73.4462 84.282 73.7666C84.2957 74.0869 84.2235 74.4051 84.0727 74.6882C84.0263 74.7722 83.9704 74.8507 83.9061 74.9221C83.8565 74.9682 83.8246 74.9895 83.8175 74.9824C83.8104 74.9753 83.8175 74.9398 83.8459 74.8796C83.8742 74.8193 83.9132 74.7378 83.9558 74.6314C84.0605 74.358 84.1088 74.0662 84.0975 73.7736C84.086 73.5696 84.0467 73.368 83.9806 73.1746C84.0506 73.7855 83.9293 74.403 83.6334 74.9421C83.3376 75.4811 82.8817 75.9151 82.3288 76.184L82.506 75.3546C82.3864 75.489 82.2402 75.5971 82.0767 75.6722C81.9132 75.7472 81.7359 75.7875 81.556 75.7906C81.5951 75.4145 81.7007 75.0485 81.8679 74.7094L81.2264 74.9682C81.2114 74.3007 81.4567 73.6537 81.9105 73.1639C82.1342 72.9292 82.4015 72.7402 82.6974 72.6074L80.6769 72.5543C80.599 74.4542 80.5174 76.5314 80.4394 78.7539C80.5635 78.722 80.6805 78.6866 80.7939 78.6476C81.3575 78.4526 81.6765 78.2435 81.6907 78.2718C81.7049 78.3002 81.6269 78.3463 81.4851 78.4384C81.2809 78.5693 81.0649 78.6809 80.84 78.7716C80.7195 78.8213 80.5848 78.8673 80.4394 78.9134C80.4394 79.2998 80.4111 79.6862 80.4005 80.0832L87.2665 80.2817L87.3268 75.787C85.3134 75.6098 83.8352 75.4503 83.8388 75.4077C83.8423 75.3652 85.3276 75.4467 87.3657 75.5991Z" fill="#455A64"/>
<path d="M87.5004 75.6098L88.5638 75.6984C91.1798 75.9182 93.2959 76.1344 93.2924 76.1875C93.203 76.1993 93.1124 76.1993 93.023 76.1875L93.4696 76.2194C93.4696 76.2194 93.615 75.9678 93.1896 72.8201C91.8603 72.7988 89.893 72.7563 87.4827 72.6996C87.4933 73.6283 87.4969 74.5995 87.5004 75.6098Z" fill="#455A64"/>
<path d="M72.6376 72.1466L76.2142 72.2388L80.528 72.3593C80.5458 72.0049 80.5635 71.6504 80.5777 71.2959C80.6769 69.2365 80.7726 67.418 80.8541 65.8761L79.2413 65.8336L72.8609 65.6563C72.8148 66.9962 72.7616 68.5169 72.7049 70.1971C72.6872 70.8387 72.6624 71.4838 72.6376 72.1466Z" fill="#455A64"/>
<path d="M67.1611 65.3621C68.8164 65.3975 70.7057 65.4436 72.7758 65.4968C72.829 64.2278 72.8751 63.1254 72.9141 62.2215C72.9531 61.3176 72.9885 60.552 73.0133 60.0486V59.7473C71.2021 59.7246 69.4056 60.0745 67.7353 60.7753C67.6396 61.5161 67.5191 62.4696 67.3808 63.611C67.3135 64.1463 67.2355 64.7382 67.1611 65.3621Z" fill="#455A64"/>
<path d="M72.198 80.03L66.725 79.874C66.7738 79.9774 66.8282 80.078 66.8881 80.1753L69.5395 84.5566L69.1071 86.896L71.9428 86.9669C72.0208 84.5495 72.1236 82.2312 72.198 80.03Z" fill="#455A64"/>
<path d="M80.1523 87.1867L87.1459 87.3852L87.2346 80.4199C85.1893 80.3738 82.864 80.3136 80.365 80.2498C80.2763 82.4404 80.2196 84.7621 80.1523 87.1867Z" fill="#455A64"/>
<path d="M71.5565 96.5588C71.5896 95.7861 71.6191 95.0193 71.6451 94.2583L67.5793 94.1449C66.9424 96.421 66.4277 98.7295 66.0374 101.061L71.3863 101.192C71.443 99.6746 71.4998 98.1303 71.5565 96.5588Z" fill="#455A64"/>
<path d="M83.4347 59.9742C82.8036 59.8434 82.1657 59.7475 81.5241 59.6871C81.4169 59.718 81.3059 59.7335 81.1944 59.7332C80.9782 59.7332 80.6698 59.7651 80.2834 59.7757C79.5142 59.804 78.4544 59.8147 77.2811 59.8111L74.2788 59.7899C73.5698 59.7899 73.1338 59.7899 73.0523 59.7544C73.0523 59.843 73.0523 59.9423 73.0523 60.0522C73.0523 60.5555 73.0169 61.2857 72.9885 62.2251C72.9601 63.1644 72.9176 64.2314 72.8751 65.4968L79.2555 65.6634L80.8754 65.7059C80.9286 64.7666 80.9782 63.9336 81.0207 63.2247C81.081 62.2747 81.1271 61.5374 81.159 61.027C81.1767 60.7788 81.1909 60.591 81.198 60.4563C81.2051 60.3216 81.2192 60.2613 81.2192 60.2613C81.2192 60.2613 81.2192 60.3287 81.2192 60.4563C81.2192 60.5839 81.2192 60.7824 81.1944 61.027C81.1732 61.5374 81.1377 62.2782 81.0916 63.2282C81.0597 63.9371 81.0207 64.7701 80.9782 65.7095L83.5233 65.7804C83.6278 64.8351 83.9963 63.9384 84.5867 63.1928C84.1505 62.7881 83.8181 62.2844 83.6176 61.7242C83.4171 61.164 83.3543 60.5638 83.4347 59.9742Z" fill="#455A64"/>
<path d="M87.3657 72.5224C87.3657 70.8245 87.3444 69.2861 87.3374 67.9391C87.3374 67.5137 87.3374 67.1167 87.3374 66.7303C87.1606 67.5675 86.7013 68.3185 86.0365 68.8572C86.2189 69.313 86.2985 69.8035 86.2697 70.2936C86.241 70.7838 86.1044 71.2615 85.8699 71.6929C85.7034 72.0215 85.4479 72.2966 85.1326 72.4869L87.3763 72.5543L87.3657 72.5224Z" fill="#455A64"/>
<path d="M70.6313 134.76C72.3788 134.902 74.7892 135.114 77.4477 135.437C78.3303 135.536 79.181 135.642 79.9963 135.745C79.9963 135.712 79.9963 135.666 79.9963 135.607C79.9963 135.472 79.9963 135.281 79.9751 135.036C79.9573 134.526 79.9361 133.785 79.9077 132.835C79.8829 132.066 79.8616 131.148 79.8368 130.116L73.5415 129.953L70.4505 129.868C70.4505 130.223 70.4186 130.577 70.408 130.896C70.3654 131.835 70.33 132.566 70.3087 133.069C70.2945 133.305 70.2839 133.493 70.2768 133.633C70.2768 133.76 70.2591 133.824 70.2591 133.824C70.2591 133.824 70.2591 133.76 70.2591 133.633C70.2591 133.505 70.2591 133.31 70.2591 133.069C70.2768 132.562 70.2981 131.832 70.3264 130.896C70.3264 130.577 70.3477 130.23 70.3583 129.865L67.4694 129.787C67.9444 133.306 68.0649 134.565 68.0649 134.565L68.4407 134.604H68.5683C69.0504 134.643 69.7557 134.689 70.6313 134.76Z" fill="#455A64"/>
<path d="M71.9215 87.1441L69.0858 87.0662L68.0791 92.4612C67.9586 92.844 67.8026 93.358 67.6254 93.9854L71.6521 94.0846C71.7443 91.6991 71.8364 89.3808 71.9215 87.1441Z" fill="#455A64"/>
<path d="M87.0113 116.008C86.99 118.511 86.9758 120.858 86.9758 122.999L89.7655 123.091C90.1412 120.858 90.4992 118.483 90.8041 116.083C89.847 116.069 88.5638 116.044 87.0113 116.008Z" fill="#455A64"/>
<path d="M70.3512 129.68C70.4115 127.908 70.4895 125.615 70.5816 122.903V122.711L66.4521 122.591C66.8881 125.547 67.2106 127.844 67.4481 129.599L70.3512 129.68Z" fill="#455A64"/>
<path d="M86.8553 116.005C84.8632 115.962 82.4635 115.906 79.7943 115.838C79.7943 118.337 79.8156 120.663 79.8333 122.786C82.5095 122.86 84.8951 122.931 86.8411 122.995C86.834 120.854 86.8376 118.507 86.8553 116.005Z" fill="#455A64"/>
<path d="M70.8652 115.42C70.9432 113.24 71.0283 110.922 71.1205 108.487L65.2398 108.32C65.1223 110.641 65.1757 112.968 65.3993 115.282L70.8652 115.42Z" fill="#455A64"/>
<path d="M70.6029 122.534C70.6809 120.443 70.766 118.121 70.8581 115.601L65.4171 115.448C65.4809 116.062 65.5553 116.675 65.651 117.288C65.9381 119.188 66.1933 120.893 66.4202 122.428L70.6029 122.534Z" fill="#455A64"/>
<path d="M73.8605 115.682L71.0035 115.604C70.9043 118.125 70.8157 120.446 70.7341 122.538L73.2792 122.605L79.6951 122.782C79.6667 120.656 79.6455 118.33 79.6348 115.835L73.8605 115.682Z" fill="#455A64"/>
<path d="M79.6986 122.945L73.2721 122.779L70.727 122.708C70.727 122.772 70.727 122.839 70.727 122.903C70.6136 125.611 70.5214 127.897 70.447 129.677L73.5344 129.758L79.8297 129.928C79.7943 128.433 79.7624 126.692 79.7305 124.728C79.7163 124.165 79.7057 123.566 79.6986 122.945Z" fill="#455A64"/>
<path d="M87.2204 101.777C87.185 104.173 87.1495 106.505 87.1176 108.756C88.9502 108.813 90.4567 108.862 91.5237 108.901C91.695 106.561 91.7364 104.213 91.6477 101.869L87.2204 101.777Z" fill="#455A64"/>
<path d="M87.114 108.891C87.0892 110.539 87.0644 112.145 87.0431 113.697C87.0431 114.438 87.0431 115.161 87.0219 115.877C88.5709 115.923 89.8576 115.969 90.8217 116.005C91.1195 113.648 91.3641 111.273 91.5307 108.979C90.4496 108.965 88.9466 108.933 87.114 108.891Z" fill="#455A64"/>
<path d="M79.6277 108.714L74.4454 108.579L71.28 108.494C71.1843 110.925 71.0957 113.244 71.0106 115.424L73.8464 115.498L79.6136 115.658C79.6242 113.463 79.6207 111.138 79.6277 108.714Z" fill="#455A64"/>
<path d="M71.124 108.306C71.2091 106.08 71.2942 103.762 71.3792 101.373L66.0091 101.22C65.6232 103.517 65.3687 105.834 65.2469 108.161L71.124 108.306Z" fill="#455A64"/>
<path d="M86.9262 108.887C84.8951 108.841 82.4741 108.784 79.8049 108.717C79.8049 111.142 79.8049 113.467 79.8049 115.661L86.8659 115.87C86.8659 115.161 86.8659 114.435 86.8837 113.694C86.8872 112.145 86.9049 110.539 86.9262 108.887Z" fill="#455A64"/>
<path d="M67.0086 65.3586C67.0937 64.7276 67.1752 64.1357 67.2532 63.5862C67.4092 62.4697 67.5474 61.5339 67.6573 60.8143C66.3537 61.3818 65.1908 62.2289 64.2509 63.2956C63.6376 64.0045 63.0599 64.6532 62.5175 65.2593C63.6483 65.2841 65.176 65.316 67.0086 65.3586Z" fill="#455A64"/>
<path d="M65.9027 74.2557C65.9854 73.5468 66.0669 72.8378 66.1472 72.1289C63.7227 72.0544 61.6703 71.9906 60.1567 71.9375L63.9708 76.2974L64.3076 76.6767L65.7963 75.117C65.8353 74.8299 65.8672 74.5428 65.9027 74.2557Z" fill="#455A64"/>
<path d="M60.0717 71.8524C61.5959 71.8808 63.6908 71.9269 66.1685 71.9871C66.4521 69.5909 66.7357 67.379 66.9909 65.4968C65.1264 65.4401 63.5774 65.3905 62.4466 65.3479C60.3801 67.652 58.9232 69.1514 58.4482 69.6335L58.2745 69.8107L60.0717 71.8524Z" fill="#455A64"/>
<path d="M66.3493 71.9907C68.2103 72.0332 70.2874 72.0864 72.5029 72.1431C72.5277 71.4802 72.5525 70.828 72.5773 70.2042C72.6482 68.524 72.712 67.0139 72.7652 65.667L67.1398 65.5216C66.9023 67.3861 66.6293 69.5945 66.3493 71.9907Z" fill="#455A64"/>
<path d="M79.8652 101.599H79.6809C79.656 103.985 79.6383 106.303 79.6312 108.54H79.8085C79.8191 106.303 79.8368 103.985 79.8652 101.599Z" fill="#263238"/>
<path d="M80.2515 78.9418C80.2515 79.314 80.2232 79.6862 80.209 80.0654H80.372C80.372 79.6684 80.3969 79.2821 80.411 78.8957L80.2515 78.9418Z" fill="#263238"/>
<path d="M80.2019 80.2462C80.1204 82.4368 80.0459 84.7586 79.975 87.1796H80.1523C80.2196 84.7551 80.2905 82.4333 80.365 80.2427L80.2019 80.2462Z" fill="#263238"/>
<path d="M79.9715 87.3604C79.9077 89.5936 79.8475 91.9118 79.7979 94.2974H79.9822C80.0318 91.9106 80.0873 89.5983 80.1488 87.3604H79.9715Z" fill="#263238"/>
<path d="M81.1838 61.027C81.1838 60.7824 81.2015 60.591 81.2086 60.4563C81.2157 60.3216 81.2086 60.2613 81.2086 60.2613C81.2086 60.2613 81.2086 60.3251 81.1873 60.4563C81.166 60.5874 81.166 60.7788 81.1483 61.027C81.1164 61.5374 81.0703 62.2747 81.0101 63.2247C80.9675 63.9336 80.9179 64.7666 80.8647 65.7059H80.9853C81.0278 64.7666 81.0668 63.9336 81.0987 63.2247C81.1271 62.2782 81.1625 61.5374 81.1838 61.027Z" fill="#263238"/>
<path d="M80.528 72.3593H80.6627C80.6804 72.0048 80.6946 71.6504 80.7088 71.2959C80.8045 69.2329 80.8896 67.4145 80.9605 65.8725H80.8541C80.7726 67.4145 80.6769 69.2329 80.5776 71.2923C80.5635 71.6504 80.5457 72.0048 80.528 72.3593Z" fill="#263238"/>
<path d="M79.9786 94.4816H79.7943C79.773 95.649 79.7517 96.8306 79.7305 98.0263C79.7139 99.1724 79.6986 100.304 79.6844 101.422H79.8687C79.8829 100.302 79.8983 99.1689 79.9148 98.0228C79.9361 96.8294 79.9573 95.649 79.9786 94.4816Z" fill="#263238"/>
<path d="M80.2551 78.7823L80.4181 78.7397C80.4961 76.5172 80.5776 74.44 80.6556 72.5401H80.5209C80.4323 74.4471 80.3437 76.542 80.2551 78.7823Z" fill="#263238"/>
<path d="M79.8049 108.717H79.6277C79.6277 111.142 79.6277 113.467 79.6277 115.661H79.7907C79.7907 113.467 79.7943 111.142 79.8049 108.717Z" fill="#263238"/>
<path d="M79.6348 115.835C79.6348 118.316 79.6667 120.659 79.695 122.782H79.8333C79.8155 120.656 79.8014 118.334 79.7943 115.835H79.6348Z" fill="#263238"/>
<path d="M79.9999 135.036C79.9999 134.522 79.9821 133.785 79.968 132.832C79.968 132.062 79.9431 131.148 79.929 130.116H79.8262C79.851 131.148 79.8722 132.066 79.8971 132.835C79.9254 133.785 79.9467 134.526 79.9644 135.036C79.9644 135.281 79.9821 135.472 79.9857 135.607C79.9857 135.666 79.9857 135.712 79.9857 135.745V135.607C80.0034 135.472 80.0034 135.281 79.9999 135.036Z" fill="#263238"/>
<path d="M79.8368 122.945H79.6985C79.6985 123.555 79.7163 124.154 79.7234 124.718C79.7553 126.682 79.7872 128.422 79.8226 129.918H79.9289C79.9077 128.422 79.8829 126.678 79.8545 124.711C79.8474 124.165 79.8403 123.566 79.8368 122.945Z" fill="#263238"/>
<path d="M87.3374 94.5171C87.3693 92.4577 87.3976 90.4514 87.4224 88.5124C87.354 88.3986 87.2936 88.2802 87.2416 88.158C87.2097 90.2068 87.1778 92.3336 87.1459 94.5171H87.3374Z" fill="#263238"/>
<path d="M87.3338 94.6589H87.1424C87.1211 96.1122 87.0999 97.5832 87.0786 99.0826C87.0609 99.9404 87.0467 100.788 87.0361 101.635H87.2239C87.2239 100.791 87.2369 99.9404 87.2629 99.0826C87.2877 97.5832 87.3126 96.1122 87.3338 94.6589Z" fill="#263238"/>
<path d="M87.3657 72.5224V72.5543H87.4969V72.5188C87.4969 70.8209 87.4579 69.2825 87.4401 67.932C87.4401 67.2833 87.4189 66.6807 87.4047 66.1207C87.3946 66.3244 87.3685 66.5271 87.3267 66.7268C87.3267 67.1132 87.3267 67.5102 87.3267 67.9355C87.3303 69.2861 87.3657 70.8386 87.3657 72.5224Z" fill="#263238"/>
<path d="M87.3657 75.5991H87.5111C87.5111 74.5889 87.511 73.6177 87.4933 72.696H87.3657C87.3657 73.6248 87.3657 74.5924 87.3657 75.5991Z" fill="#263238"/>
<path d="M87.2807 62.2853C87.2807 62.0727 87.2807 61.9061 87.263 61.7749L87.2417 61.7997C87.2417 61.9273 87.2417 62.0868 87.2417 62.2889C87.2417 62.7958 87.2417 63.5331 87.2736 64.476C87.2736 64.6426 87.2736 64.8304 87.2736 64.997C87.3159 65.1697 87.3467 65.3449 87.3658 65.5216C87.3658 65.1494 87.3658 64.7879 87.3374 64.4582C87.3197 63.5295 87.2984 62.7958 87.2807 62.2853Z" fill="#263238"/>
<path d="M87.2204 101.777H87.0325C86.9935 104.169 86.958 106.505 86.9297 108.753H87.1176C87.1495 106.505 87.1849 104.159 87.2204 101.777Z" fill="#263238"/>
<path d="M87.0928 135.866C87.0928 135.359 87.075 134.622 87.0609 133.679C87.0467 132.736 87.0254 131.605 87.0183 130.283H86.9155C86.9155 131.605 86.9616 132.746 86.99 133.679C87.0183 134.611 87.0431 135.359 87.0573 135.869C87.0573 136.114 87.075 136.302 87.0786 136.436C87.0821 136.571 87.0786 136.631 87.0786 136.631C87.0786 136.631 87.0786 136.564 87.0786 136.436C87.0786 136.309 87.0963 136.11 87.0928 135.866Z" fill="#263238"/>
<path d="M87.0113 116.008H86.8482C86.8305 118.511 86.8269 120.858 86.8482 122.999H86.99C86.9829 120.858 87.0113 118.511 87.0113 116.008Z" fill="#263238"/>
<path d="M86.9829 123.126H86.8411C86.8411 123.995 86.8411 124.835 86.8411 125.636C86.8411 127.309 86.8801 128.826 86.8978 130.155H87.0042C87.0042 128.819 86.9687 127.32 86.9723 125.632C86.9794 124.831 86.9829 123.996 86.9829 123.126Z" fill="#263238"/>
<path d="M87.1141 108.891H86.9262C86.9049 110.539 86.8872 112.148 86.873 113.697C86.873 114.438 86.873 115.161 86.8553 115.874H87.0219C87.0219 115.165 87.0219 114.435 87.0432 113.694C87.0644 112.145 87.0892 110.539 87.1141 108.891Z" fill="#263238"/>
<path d="M71.5565 101.38H71.3792C71.2942 103.769 71.2091 106.087 71.124 108.313H71.2871C71.3722 106.083 71.4608 103.769 71.5565 101.38Z" fill="#263238"/>
<path d="M72.5029 72.1431H72.6376C72.6624 71.4802 72.6872 70.828 72.7085 70.2077C72.7652 68.5275 72.8183 67.0175 72.8644 65.667H72.7652C72.712 67.0069 72.6482 68.524 72.5773 70.2042C72.5525 70.8387 72.5277 71.4802 72.5029 72.1431Z" fill="#263238"/>
<path d="M71.9216 87.1442C71.8365 89.3809 71.7443 91.6991 71.6522 94.0776H71.8329C71.918 91.6991 72.0031 89.3773 72.0882 87.1442H71.9216Z" fill="#263238"/>
<path d="M72.198 80.03C72.113 82.2313 72.0208 84.5495 71.9286 86.967H72.0917C72.1839 84.5495 72.2689 82.2313 72.3469 80.0336L72.198 80.03Z" fill="#263238"/>
<path d="M72.9105 62.2215C72.8715 63.1254 72.8254 64.2278 72.7723 65.4968H72.868C72.9105 64.2314 72.9495 63.129 72.9814 62.2251C73.0133 61.3212 73.031 60.5555 73.0452 60.0522C73.0452 59.9423 73.0452 59.843 73.0452 59.7544H73.0275V60.0557C72.985 60.5591 72.9531 61.268 72.9105 62.2215Z" fill="#263238"/>
<path d="M72.4957 72.3239C72.4071 74.6102 72.3079 77.1375 72.2051 79.8527H72.354C72.4532 77.1375 72.5454 74.6102 72.6304 72.3239H72.4957Z" fill="#263238"/>
<path d="M71.8258 94.2654H71.6451C71.6167 95.0287 71.5872 95.7955 71.5564 96.5659C71.4997 98.1373 71.443 99.6816 71.3863 101.199H71.56C71.6214 99.6793 71.6817 98.135 71.7408 96.5659C71.7597 95.7931 71.788 95.0263 71.8258 94.2654Z" fill="#263238"/>
<path d="M70.727 122.719H70.5958V122.91C70.5037 125.622 70.4257 127.908 70.3654 129.687H70.4469C70.5214 127.915 70.6135 125.622 70.727 122.914C70.7234 122.85 70.7234 122.782 70.727 122.719Z" fill="#263238"/>
<path d="M70.8582 115.601C70.766 118.121 70.6809 120.443 70.603 122.534H70.7341C70.8156 120.443 70.9043 118.121 71.0035 115.601H70.8582Z" fill="#263238"/>
<path d="M71.1205 108.487C71.0283 110.922 70.9432 113.24 70.8652 115.42H71.0106C71.0956 113.24 71.1843 110.922 71.28 108.49L71.1205 108.487Z" fill="#263238"/>
<path d="M70.3194 130.896C70.291 131.832 70.2697 132.562 70.252 133.069C70.252 133.305 70.252 133.493 70.252 133.633C70.252 133.76 70.252 133.824 70.252 133.824C70.252 133.824 70.252 133.76 70.2697 133.633C70.2875 133.505 70.2697 133.31 70.3016 133.069C70.3229 132.566 70.3584 131.836 70.4009 130.896C70.4009 130.581 70.4292 130.23 70.4434 129.868H70.3513C70.3513 130.23 70.33 130.577 70.3194 130.896Z" fill="#263238"/>
<path d="M67.0086 65.3586H67.161C67.239 64.7347 67.317 64.1427 67.3843 63.5862C67.5332 62.4555 67.6537 61.502 67.7388 60.7505L67.6502 60.7895C67.5403 61.4984 67.4021 62.4448 67.2461 63.5614C67.161 64.1357 67.0937 64.7276 67.0086 65.3586Z" fill="#263238"/>
<path d="M66.328 72.1466H66.1472C66.0669 72.8343 65.9854 73.5432 65.9027 74.2734C65.8672 74.5605 65.8353 74.8476 65.8034 75.1348L65.8389 75.0993C65.8389 75.0993 65.8389 75.5424 65.8708 76.1911C65.9416 75.5708 66.0125 74.9363 66.0834 74.2911C66.165 73.5538 66.25 72.8414 66.328 72.1466Z" fill="#263238"/>
<path d="M67.1398 65.5216H66.9874C66.7322 67.4074 66.4486 69.6157 66.165 72.0119H66.3494C66.6294 69.5945 66.9023 67.3861 67.1398 65.5216Z" fill="#263238"/>
<path d="M87.3976 66.0568L92.0553 66.1632L92.0021 66.0285L87.394 65.8902C87.3976 65.9434 87.4011 66.0001 87.3976 66.0568Z" fill="#263238"/>
<path d="M66.9873 65.4968H67.1398L72.7652 65.6599H72.8644L79.2448 65.8371L80.8577 65.8796H80.964L83.4984 65.9434C83.4984 65.8832 83.4985 65.8229 83.5162 65.7662L80.9711 65.6953H80.8683L79.2484 65.6528L72.868 65.4862H72.7723C70.7092 65.433 68.8128 65.3869 67.1575 65.3515H67.0086C65.176 65.3089 63.6482 65.277 62.5175 65.2593L62.4431 65.3408C63.5738 65.3905 65.1228 65.4401 66.9873 65.4968Z" fill="#263238"/>
<path d="M76.2071 72.4266L80.521 72.5365H80.6557L82.6761 72.5897C82.8264 72.5201 82.9831 72.4655 83.144 72.4266L80.6628 72.3593H80.5281L76.2142 72.2565L72.6376 72.1643H72.5029C70.2875 72.1076 68.2103 72.0544 66.3493 72.0119H66.165C63.6837 71.9516 61.5924 71.9056 60.0682 71.8772L60.1568 71.9765C61.6704 72.0296 63.7227 72.0934 66.1473 72.1679H66.3281L72.4958 72.3451H72.6305L76.2071 72.4266Z" fill="#263238"/>
<path d="M84.0231 72.611H84.2889C84.1517 72.5845 84.0191 72.5379 83.8954 72.4727C83.942 72.5149 83.9847 72.5612 84.0231 72.611Z" fill="#263238"/>
<path d="M87.3657 72.5542L85.1219 72.4869C85.025 72.5423 84.9213 72.5852 84.8135 72.6145C84.7646 72.6262 84.7148 72.6345 84.6647 72.6393L87.3657 72.7031H87.4969C89.9072 72.7598 91.8745 72.8024 93.2038 72.8236V72.7421C91.8745 72.6925 89.9108 72.6287 87.5075 72.5542H87.3657Z" fill="#263238"/>
<path d="M72.3469 80.0548L76.7884 80.1753L80.202 80.2639H80.365C82.864 80.3277 85.1893 80.388 87.2346 80.4341V80.2817L80.3721 80.0548H80.209L76.792 79.9626L72.354 79.8457H72.2051L66.6471 79.7003C66.6719 79.757 66.6967 79.8067 66.7251 79.8598L72.1981 80.0158L72.3469 80.0548Z" fill="#263238"/>
<path d="M72.0881 87.1441L76.2 87.254L79.9715 87.3533H80.1487C82.7115 87.4206 85.0794 87.4773 87.1424 87.5269V87.3745L80.1487 87.176H79.9715L76.2035 87.0732L72.0881 86.9669H71.9251L69.0893 86.896L69.0574 87.0661L71.8932 87.1441H72.0881Z" fill="#263238"/>
<path d="M71.8259 94.2654L75.6151 94.3682L79.7943 94.4781H79.9786C82.6265 94.5455 85.0582 94.6057 87.1424 94.6518H87.3338L90.3858 94.7192C90.3858 94.6802 90.3646 94.6412 90.3504 94.6022L87.3374 94.51H87.146L79.9822 94.3009H79.7979L75.6222 94.1875L71.833 94.0882H71.6522L67.6254 93.989C67.6077 94.0421 67.5935 94.0988 67.5793 94.1556L71.6451 94.269L71.8259 94.2654Z" fill="#263238"/>
<path d="M71.5565 101.38L75.0302 101.472L79.6809 101.596H79.8652C82.5308 101.663 84.966 101.723 87.0325 101.77H87.2204L91.6477 101.862C91.6459 101.832 91.6459 101.803 91.6477 101.773L87.2275 101.628H87.0396L79.8723 101.419H79.6879L75.0373 101.291L71.5635 101.202H71.3899L66.0409 101.071C66.0409 101.124 66.0232 101.178 66.0126 101.231L71.3828 101.383L71.5565 101.38Z" fill="#263238"/>
<path d="M71.1205 108.487H71.28L74.4454 108.572L79.6277 108.706H79.805C82.4741 108.774 84.8951 108.831 86.9262 108.877H87.1141C88.9467 108.919 90.4496 108.951 91.5201 108.965V108.887C90.4567 108.848 88.9467 108.799 87.1141 108.742H86.9262C84.8916 108.678 82.4706 108.607 79.805 108.533H79.6277L74.4454 108.391L71.2835 108.306H71.1205L65.2434 108.161C65.2434 108.214 65.2434 108.267 65.2434 108.32L71.1205 108.487Z" fill="#263238"/>
<path d="M70.8582 115.601H71.0035L73.8605 115.679L79.6348 115.831H79.7943C82.4635 115.899 84.8632 115.955 86.8553 115.998H87.0113C88.5568 116.033 89.847 116.058 90.8041 116.072V115.994C89.8435 115.959 88.5532 115.913 87.0042 115.867H86.8376L79.7766 115.658H79.6135L73.8641 115.502L71.0283 115.427H70.883L65.3887 115.282C65.3887 115.339 65.3887 115.392 65.4065 115.448L70.8582 115.601Z" fill="#263238"/>
<path d="M70.5959 122.715H70.727L73.2721 122.786L79.6986 122.953H79.8369L86.8411 123.116H86.9829L89.7584 123.172C89.7601 123.142 89.7601 123.111 89.7584 123.08L86.9688 122.988H86.827C84.8809 122.924 82.4954 122.853 79.8191 122.779H79.6809L73.265 122.602L70.7199 122.534H70.5888L66.4061 122.428L66.4309 122.602L70.5959 122.715Z" fill="#263238"/>
<path d="M70.3513 129.865H70.4328L73.5238 129.95L79.8262 130.113H79.9219C82.5769 130.18 84.9589 130.237 86.9085 130.279H87.0113L88.4292 130.311C88.4292 130.272 88.4292 130.237 88.454 130.198L87.0007 130.152H86.8943L79.9113 129.943H79.805L73.5415 129.769L70.4541 129.687H70.3513L67.434 129.613L67.4553 129.79L70.3513 129.865Z" fill="#263238"/>
<path d="M74.2787 59.7899L77.2811 59.8111C78.4544 59.8111 79.5142 59.8111 80.2834 59.7757C80.6698 59.7757 80.9924 59.7473 81.1944 59.7331C81.3059 59.7335 81.4169 59.718 81.5241 59.6871C81.4503 59.6668 81.3735 59.6596 81.2972 59.6658V59.6835L74.4276 59.6552H74.2752C73.8888 59.6552 73.5663 59.6835 73.3642 59.7012C73.2517 59.7 73.1396 59.7143 73.031 59.7438H73.0487C73.1338 59.7757 73.584 59.7828 74.2787 59.7899Z" fill="#263238"/>
<path d="M78.4792 78.8744C77.709 78.7686 76.9744 78.4832 76.3347 78.0414C75.842 77.7047 75.5903 77.4211 75.5655 77.4459C75.6051 77.5251 75.6579 77.597 75.7215 77.6586C75.8843 77.8379 76.0635 78.0017 76.2567 78.1478C76.8172 78.5774 77.469 78.8724 78.1616 79.0101C78.8543 79.1478 79.5694 79.1244 80.2516 78.9418L80.4111 78.8992C80.5564 78.8531 80.6911 78.8071 80.8116 78.7574C81.0366 78.6667 81.2525 78.5551 81.4567 78.4242C81.5985 78.3321 81.6694 78.2683 81.6623 78.2576C81.6553 78.247 81.3291 78.4384 80.7655 78.6334C80.6592 78.6724 80.5422 78.7078 80.4111 78.7397L80.248 78.7823C79.6687 78.9188 79.0696 78.95 78.4792 78.8744Z" fill="#263238"/>
<path d="M93.2924 76.1875C93.2924 76.1344 91.1656 75.9182 88.5638 75.6984L87.5004 75.6098H87.3551C85.3275 75.4503 83.8104 75.3616 83.8104 75.4042C83.8104 75.4467 85.285 75.6062 87.2984 75.7835L88.539 75.8933C90.6091 76.067 92.3673 76.1875 93.0124 76.2053C93.1061 76.2121 93.2003 76.2062 93.2924 76.1875Z" fill="#263238"/>
<path d="M81.4071 57.5638C81.6198 58.3684 82.4989 59.0596 83.7679 58.9108C83.6007 59.2452 83.4882 59.6042 83.4347 59.9742C83.3535 60.5631 83.4151 61.163 83.6144 61.7232C83.8136 62.2833 84.1447 62.7874 84.5796 63.1927C83.9892 63.9383 83.6207 64.8351 83.5162 65.7804C83.5162 65.8371 83.5162 65.8973 83.4985 65.9576C83.4146 66.9707 83.6501 67.9847 84.172 68.8571C83.6225 69.5413 83.0483 70.275 83.0412 71.1257C83.0511 71.5338 83.2204 71.9219 83.5126 72.2069C83.6158 72.2598 83.7112 72.3266 83.7962 72.4054L83.899 72.494C84.0226 72.5592 84.1552 72.6058 84.2925 72.6322C84.4099 72.651 84.5295 72.651 84.6469 72.6322C84.6971 72.6274 84.7468 72.6191 84.7958 72.6074C84.9036 72.5781 85.0072 72.5353 85.1042 72.4798C85.4196 72.2895 85.6751 72.0144 85.8415 71.6858C86.0761 71.2544 86.2126 70.7767 86.2414 70.2865C86.2702 69.7964 86.1905 69.3059 86.0081 68.85C86.6729 68.3114 87.1322 67.5604 87.309 66.7232C87.3508 66.5235 87.3769 66.3209 87.387 66.1171C87.3885 66.0947 87.3885 66.0722 87.387 66.0498C87.387 65.993 87.387 65.9363 87.387 65.8832C87.387 65.7626 87.387 65.6457 87.3657 65.5287C87.3483 65.3485 87.3187 65.1696 87.2771 64.9934C87.1062 64.2891 86.7285 63.6521 86.1924 63.1644C86.5618 62.8365 86.8578 62.4343 87.0609 61.984C86.8697 62.1763 86.6435 62.3304 86.3945 62.4377C86.1992 62.5225 85.9903 62.5717 85.7777 62.5831C85.7199 62.5889 85.6618 62.5889 85.604 62.5831C85.565 62.5831 85.5437 62.5831 85.5437 62.5831C85.5437 62.5831 85.565 62.5831 85.604 62.5618C85.643 62.5405 85.6962 62.5618 85.7671 62.5299C86.2621 62.4348 86.7098 62.1734 87.0361 61.789C87.119 61.6905 87.1914 61.5836 87.2523 61.47C87.2735 61.392 87.2984 61.3141 87.3125 61.2325C87.4136 60.7414 87.4136 60.2349 87.3125 59.7438C87.1942 59.4778 87.0257 59.2371 86.8163 59.0348C86.6035 58.857 86.3731 58.7014 86.1286 58.5705C86.1286 58.5705 86.1499 58.5705 86.1889 58.5705C86.2459 58.5799 86.3017 58.5953 86.3555 58.6166C86.5567 58.6882 86.7429 58.7964 86.9049 58.9356C86.9978 59.0138 87.0832 59.1004 87.1601 59.1943C86.9843 58.7035 86.6981 58.2596 86.3236 57.897C86.7012 57.0212 86.8482 56.0634 86.7508 55.1146C86.6534 54.1659 86.3147 53.2579 85.7671 52.4772C85.2389 54.7564 83.9983 56.9399 81.4071 57.5638ZM85.4729 63.2743C85.4729 63.3239 85.2708 63.3168 85.0475 63.3381C84.8242 63.3593 84.6363 63.3877 84.6186 63.3381C84.6009 63.2884 84.7746 63.1679 85.0333 63.1502C85.2921 63.1325 85.487 63.2246 85.4729 63.2743ZM84.8277 68.882C84.4732 68.8252 84.1507 68.8217 84.1436 68.7685C84.3638 68.6608 84.6154 68.6357 84.8525 68.6976C85.2495 68.7579 85.5331 68.9245 85.5118 68.9706C85.4906 69.0166 85.1964 68.9351 84.8277 68.882ZM84.6257 58.1274C84.8603 58.028 85.1221 58.013 85.3665 58.0849C85.3665 58.138 85.051 58.1947 84.6753 58.3046C84.2996 58.4145 84.0018 58.535 83.9664 58.489C83.9309 58.4429 84.2251 58.2408 84.6257 58.1274Z" fill="#263238"/>
<path d="M75.8561 42.8747C75.9883 43.4363 76.1983 43.9768 76.48 44.4804C76.6438 44.7778 76.8336 45.0601 77.0472 45.324C77.2737 45.6093 77.5265 45.8728 77.8022 46.1109C78.0815 46.3441 78.3803 46.5529 78.6954 46.7348C78.9911 46.9027 79.3006 47.045 79.6206 47.1602C80.1627 47.3556 80.7294 47.4749 81.3043 47.5146H81.4603V46.3236C81.4603 46.3236 76.6785 45.9054 75.6718 41.5099C75.6718 41.5631 75.6718 41.6269 75.6718 41.7014C75.6972 42.0973 75.7589 42.49 75.8561 42.8747Z" fill="#B78876"/>
<path d="M81.3007 59.6658L81.3822 57.5709H81.3574L81.4283 50.4142V50.3965C81.3958 50.0517 81.4041 49.7042 81.4531 49.3614L81.4709 47.6493H81.3114C79.9823 47.5905 78.7105 47.0918 77.6958 46.2315C77.4129 45.985 77.1531 45.7133 76.9195 45.4197C76.702 45.1458 76.5099 44.8528 76.3453 44.5442C76.0618 44.0248 75.8587 43.4655 75.7427 42.8853C75.6607 42.4962 75.6238 42.0989 75.6328 41.7014C75.634 41.5935 75.6411 41.4858 75.654 41.3788C75.6556 41.3694 75.6556 41.3598 75.654 41.3504C75.654 41.3504 75.654 41.3504 75.654 41.3327L75.6257 41.3611C75.3457 42.07 74.8565 43.5623 75.2145 44.764L70.8687 45.9656L70.3867 46.43C70.3867 48.4859 70.4186 50.8112 70.5214 52.2503C70.734 55.3023 73.7399 55.5965 73.7399 55.5965C75.1606 55.518 76.5272 55.025 77.671 54.1786C77.671 54.1786 76.799 56.433 73.8144 56.3373L73.7399 55.5859C73.7399 55.5859 73.9845 58.8115 73.9597 59.6233H74.4453L81.3149 59.6516L81.3007 59.6658ZM71.4359 47.6812C71.3325 47.6812 71.2333 47.6401 71.1602 47.567C71.087 47.4939 71.046 47.3947 71.046 47.2913C71.046 47.1879 71.087 47.0887 71.1602 47.0156C71.2333 46.9425 71.3325 46.9014 71.4359 46.9014C71.5393 46.9014 71.6385 46.9425 71.7116 47.0156C71.7847 47.0887 71.8258 47.1879 71.8258 47.2913C71.8258 47.3947 71.7847 47.4939 71.7116 47.567C71.6385 47.6401 71.5393 47.6812 71.4359 47.6812ZM72.1803 46.7632C72.1377 46.8199 71.8258 46.6143 71.4182 46.6462C71.0105 46.6781 70.7269 46.9227 70.6773 46.873C70.6277 46.8234 70.6773 46.7525 70.8156 46.6391C70.9799 46.4871 71.1913 46.3958 71.4146 46.3803C71.6307 46.3624 71.8466 46.4173 72.0278 46.5363C72.1484 46.6462 72.2015 46.7348 72.1803 46.7632ZM72.9282 50.4284C72.8888 50.4186 72.8522 50.3998 72.8214 50.3733C72.7906 50.3468 72.7665 50.3135 72.751 50.2759C72.7131 50.1284 72.7256 49.9725 72.7864 49.8328C72.8679 49.5528 72.953 49.2586 73.0452 48.9502C73.2444 48.1901 73.5003 47.446 73.8108 46.7242C73.6711 47.4992 73.472 48.2624 73.2153 49.0069C73.1196 49.3118 73.0274 49.6024 72.9424 49.8825C72.8877 49.9921 72.8679 50.1158 72.8857 50.2369C72.9069 50.3114 73.0062 50.3256 73.1125 50.3326C73.3384 50.3301 73.5637 50.3575 73.7825 50.4142C73.5612 50.4607 73.3345 50.4762 73.109 50.4603C73.0475 50.4579 72.9867 50.4472 72.9282 50.4284ZM74.5304 51.8852C74.2935 51.9879 74.0286 52.0058 73.7801 51.9361C73.5315 51.8664 73.3146 51.7132 73.1657 51.5024C74.0022 51.5024 75.5548 50.4957 75.1436 50.7935C75.1436 50.7828 75.4024 51.4953 74.5304 51.8852ZM75.8525 47.6316C75.7491 47.6316 75.65 47.5905 75.5768 47.5174C75.5037 47.4443 75.4626 47.3451 75.4626 47.2417C75.4626 47.1383 75.5037 47.0391 75.5768 46.966C75.65 46.8928 75.7491 46.8518 75.8525 46.8518C75.956 46.8518 76.0551 46.8928 76.1283 46.966C76.2014 47.0391 76.2425 47.1383 76.2425 47.2417C76.2425 47.3451 76.2014 47.4443 76.1283 47.5174C76.0551 47.5905 75.956 47.6316 75.8525 47.6316ZM76.7316 46.7348C76.6891 46.7915 76.3772 46.5859 75.9695 46.6178C75.5619 46.6497 75.2783 46.8943 75.2287 46.8447C75.1791 46.7951 75.2464 46.7206 75.3669 46.6107C75.5291 46.4657 75.7348 46.3785 75.9518 46.3626C76.1681 46.3476 76.3834 46.4036 76.565 46.5221C76.6962 46.5966 76.7494 46.6887 76.7316 46.7348Z" fill="#B78876"/>
<path d="M71.4147 46.9014C71.3373 46.9007 71.2614 46.923 71.1967 46.9656C71.1321 47.0082 71.0815 47.069 71.0516 47.1404C71.0216 47.2118 71.0136 47.2905 71.0286 47.3665C71.0435 47.4425 71.0807 47.5123 71.1354 47.567C71.1902 47.6217 71.26 47.6589 71.336 47.6739C71.4119 47.6888 71.4906 47.6808 71.562 47.6508C71.6334 47.6209 71.6942 47.5704 71.7368 47.5057C71.7794 47.441 71.8018 47.3652 71.8011 47.2878C71.8011 47.1853 71.7603 47.087 71.6879 47.0146C71.6154 46.9421 71.5172 46.9014 71.4147 46.9014Z" fill="#263238"/>
<path d="M72.0137 46.5505C71.8381 46.4296 71.6276 46.3698 71.4147 46.3803C71.1981 46.395 70.9924 46.481 70.8298 46.6249C70.7058 46.7384 70.6703 46.8376 70.6916 46.8589C70.7128 46.8801 71.0212 46.6604 71.4324 46.632C71.8436 46.6037 72.1413 46.8057 72.1945 46.749C72.2477 46.6923 72.1484 46.6462 72.0137 46.5505Z" fill="#263238"/>
<path d="M75.8455 46.8553C75.768 46.8539 75.6918 46.8757 75.6266 46.9178C75.5615 46.96 75.5104 47.0206 75.4799 47.0919C75.4494 47.1632 75.4409 47.242 75.4554 47.3182C75.47 47.3944 75.5069 47.4645 75.5615 47.5196C75.6161 47.5747 75.6859 47.6123 75.7619 47.6275C75.838 47.6428 75.9169 47.6349 75.9885 47.6051C76.0601 47.5753 76.1211 47.5248 76.1639 47.46C76.2066 47.3953 76.229 47.3193 76.2284 47.2417C76.2284 47.1399 76.1881 47.0421 76.1164 46.9698C76.0448 46.8974 75.9474 46.8563 75.8455 46.8553Z" fill="#263238"/>
<path d="M76.5615 46.5044C76.3799 46.3859 76.1646 46.3299 75.9483 46.3449C75.7313 46.3608 75.5256 46.448 75.3634 46.593C75.2429 46.7029 75.2039 46.8021 75.2252 46.827C75.2465 46.8518 75.5548 46.6285 75.966 46.6001C76.3772 46.5717 76.675 46.7738 76.7281 46.7171C76.7813 46.6604 76.6962 46.5966 76.5615 46.5044Z" fill="#263238"/>
<path d="M73.1126 50.3149C73.0062 50.3149 72.907 50.2937 72.8857 50.2192C72.8679 50.0981 72.8877 49.9743 72.9424 49.8648C73.0275 49.5847 73.1196 49.2941 73.2154 48.9892C73.472 48.2447 73.6711 47.4815 73.8109 46.7065C73.5004 47.4283 73.2445 48.1724 73.0452 48.9325C72.953 49.2409 72.868 49.5351 72.7864 49.8151C72.7256 49.9548 72.7132 50.1107 72.751 50.2582C72.7665 50.2958 72.7906 50.3291 72.8214 50.3556C72.8522 50.3821 72.8888 50.4009 72.9282 50.4106C72.9882 50.4188 73.049 50.4188 73.109 50.4106C73.3346 50.4266 73.5612 50.4111 73.7825 50.3646C73.5623 50.3186 73.3371 50.3019 73.1126 50.3149Z" fill="#263238"/>
<path d="M73.1657 51.5024C73.3146 51.7132 73.5316 51.8664 73.7801 51.9361C74.0286 52.0058 74.2936 51.9879 74.5304 51.8852C75.4024 51.4953 75.1436 50.7828 75.1436 50.7828C75.5548 50.4957 74.0023 51.4953 73.1657 51.5024Z" fill="white"/>
<path d="M77.6569 54.207C76.5131 55.0534 75.1465 55.5463 73.7258 55.6249L73.8003 56.3763C76.7849 56.4614 77.6569 54.207 77.6569 54.207Z" fill="#A36957"/>
<path d="M75.2004 44.7817C74.8459 43.5801 75.3315 42.0771 75.6115 41.3788L75.6399 41.3505C75.6399 41.3505 75.6399 41.3505 75.6399 41.3682C75.6415 41.3402 75.6475 41.3127 75.6576 41.2867C75.6576 41.2867 75.6576 41.3256 75.6576 41.3965C75.6576 41.4674 75.6576 41.4781 75.6576 41.5277C76.6643 45.9231 81.4461 46.3414 81.4461 46.3414V47.5324C81.7829 47.5515 82.1208 47.5432 82.4563 47.5076C82.5946 47.5076 82.7009 47.4757 82.7753 47.4686C82.8498 47.4615 82.8888 47.4686 82.8888 47.4686C82.8552 47.4863 82.8195 47.4994 82.7824 47.5076C82.6786 47.5368 82.5733 47.5605 82.467 47.5785C82.1289 47.6384 81.7858 47.6645 81.4425 47.6564L81.4248 49.3685C81.4461 49.2581 81.4745 49.1492 81.5099 49.0424C81.5777 48.8223 81.7032 48.6244 81.8734 48.4692C82.0436 48.314 82.2522 48.2072 82.4776 48.1598C82.7416 48.1402 83.0036 48.2181 83.214 48.3788C83.4244 48.5396 83.5685 48.7719 83.619 49.0318C83.6569 49.2941 83.6161 49.5617 83.5019 49.8008C83.3877 50.0399 83.2052 50.2398 82.9774 50.3752C82.6553 50.5591 82.2811 50.6302 81.914 50.5773C81.914 50.5985 81.914 50.6127 81.914 50.634C81.8849 50.806 81.9202 50.9827 82.0132 51.1302C82.0685 51.2185 82.1425 51.2935 82.2301 51.3499C82.3176 51.4064 82.4165 51.4428 82.5197 51.4567C82.6229 51.4705 82.7279 51.4615 82.8272 51.4302C82.9265 51.3989 83.0178 51.3461 83.0944 51.2756C83.2239 51.1589 83.3059 50.9987 83.3248 50.8254C83.3293 50.6572 83.3053 50.4894 83.2539 50.3291C83.2539 50.3291 83.4524 50.4709 83.4559 50.8325C83.4527 51.0465 83.3647 51.2504 83.2113 51.3996C83.1191 51.4934 83.0063 51.5644 82.8819 51.607C82.7574 51.6496 82.6248 51.6627 82.4944 51.6451C82.3641 51.6276 82.2396 51.5799 82.1308 51.5059C82.0221 51.432 81.9321 51.3337 81.8679 51.2188C81.8147 51.127 81.7801 51.0256 81.7661 50.9203C81.7521 50.8151 81.759 50.7082 81.7864 50.6056C81.7849 50.5903 81.7849 50.5749 81.7864 50.5595C81.6654 50.5375 81.5467 50.5043 81.4319 50.4603L81.3965 50.4213L81.3256 57.578H81.3504H81.3752C83.9664 56.9541 85.1893 54.7706 85.7564 52.4878C85.7919 52.3354 85.8273 52.183 85.8592 52.0306C85.8379 52.0731 85.8167 52.1227 85.7919 52.1653C85.6354 52.4722 85.4527 52.7652 85.246 53.0408C85.1767 53.1484 85.0919 53.2452 84.9943 53.3279C84.966 53.3067 85.3062 52.8849 85.6749 52.1086C85.7939 51.8597 85.8981 51.6041 85.9868 51.3429C86.18 50.0456 86.2512 48.7331 86.1995 47.4225V47.2134C86.0712 46.6654 85.8809 46.1338 85.6323 45.6289C85.2495 44.8562 84.9057 44.4414 84.9234 44.4202C85.0201 44.5012 85.1048 44.5955 85.1751 44.7002C85.3868 44.9734 85.5754 45.2639 85.7387 45.5686C85.906 45.8811 86.0494 46.2058 86.1676 46.5399V46.1854C86.1676 46.1641 86.1676 46.1358 86.1676 46.0862C86.1231 45.6706 86.0568 45.2577 85.9691 44.8491C84.2783 38.4934 78.8088 37.3627 77.7313 37.3733C76.5722 37.3733 74.541 36.753 71.6202 39.9326C68.6994 43.1122 70.3512 46.4548 70.3512 46.4548L70.8333 45.9904L75.2004 44.7817Z" fill="#263238"/>
<path d="M83.6757 72.5472C83.6141 72.4976 83.5604 72.439 83.5162 72.3735C83.391 72.3837 83.2666 72.4027 83.144 72.4302C82.6676 72.5443 82.2328 72.79 81.8892 73.1391C81.4354 73.6288 81.1901 74.2759 81.2051 74.9434L81.8466 74.6846C81.6794 75.0237 81.5738 75.3897 81.5347 75.7657C81.7146 75.7627 81.8919 75.7224 82.0554 75.6473C82.2189 75.5723 82.3651 75.4641 82.4847 75.3297L82.3075 76.1592C82.8604 75.8902 83.3163 75.4563 83.6121 74.9173C83.908 74.3782 84.0293 73.7607 83.9593 73.1498C83.9315 73.0673 83.8983 72.9868 83.86 72.9087C83.7608 72.7031 83.6722 72.5897 83.6934 72.5543C83.7147 72.5188 83.782 72.5932 83.8777 72.7067C83.874 72.6837 83.868 72.6612 83.86 72.6393C83.7953 72.6156 83.7335 72.5847 83.6757 72.5472Z" fill="#263238"/>
<path d="M83.4666 72.2033C83.4418 72.2211 83.4666 72.2919 83.5233 72.3735C83.5675 72.439 83.6212 72.4976 83.6828 72.5472C83.7394 72.5933 83.8013 72.6326 83.8671 72.6641C83.9664 72.7102 84.0444 72.7244 84.0585 72.696C84.0727 72.6677 84.0585 72.657 84.0302 72.6251C83.9915 72.5778 83.9488 72.534 83.9026 72.494L83.7998 72.4054C83.7148 72.3266 83.6194 72.2598 83.5162 72.2069C83.509 72.202 83.5006 72.1991 83.4919 72.1984C83.4831 72.1978 83.4744 72.1995 83.4666 72.2033Z" fill="#47D163"/>
<path d="M84.8526 68.7118C84.6154 68.6499 84.3638 68.675 84.1436 68.7827C84.1436 68.8359 84.4591 68.8394 84.8277 68.8961C85.1964 68.9529 85.4906 69.0344 85.5119 68.9848C85.5331 68.9351 85.2389 68.7579 84.8526 68.7118Z" fill="#47D163"/>
<path d="M84.6185 63.3416C84.6363 63.3877 84.8241 63.3416 85.0475 63.3416C85.2708 63.3416 85.4622 63.3416 85.4728 63.2778C85.4835 63.214 85.292 63.136 85.0333 63.1573C84.7745 63.1786 84.5973 63.2955 84.6185 63.3416Z" fill="#47D163"/>
<path d="M84.6753 58.3047C85.0511 58.1948 85.3665 58.1381 85.3665 58.0849C85.1221 58.013 84.8603 58.0281 84.6257 58.1274C84.2252 58.2408 83.9522 58.4464 83.977 58.4819C84.0018 58.5173 84.2996 58.411 84.6753 58.3047Z" fill="#47D163"/>
<path d="M82.4811 47.5784C82.5875 47.5605 82.6928 47.5368 82.7966 47.5075C82.8336 47.4993 82.8694 47.4862 82.903 47.4686C82.903 47.4686 82.8604 47.4686 82.7895 47.4686C82.7186 47.4686 82.6087 47.4969 82.4705 47.5075C82.135 47.5432 81.7971 47.5515 81.4603 47.5324H81.3043C80.7294 47.4926 80.1627 47.3733 79.6206 47.1779C79.3006 47.0627 78.9911 46.9204 78.6954 46.7525C78.3803 46.5706 78.0815 46.3618 77.8022 46.1287C77.5265 45.8905 77.2737 45.6271 77.0471 45.3417C76.8336 45.0778 76.6438 44.7955 76.48 44.4981C76.1983 43.9945 75.9883 43.454 75.8561 42.8924C75.7659 42.513 75.7102 42.1262 75.6895 41.7368C75.6895 41.6624 75.6895 41.5986 75.6895 41.5454C75.6895 41.4922 75.6895 41.4497 75.6895 41.4142C75.6895 41.3788 75.6895 41.3044 75.6895 41.3044C75.6794 41.3304 75.6734 41.3579 75.6718 41.3859C75.6733 41.3953 75.6733 41.4049 75.6718 41.4142C75.6588 41.5213 75.6517 41.629 75.6505 41.7368C75.6416 42.1344 75.6785 42.5316 75.7604 42.9207C75.8764 43.5009 76.0796 44.0602 76.363 44.5796C76.5276 44.8882 76.7198 45.1813 76.9373 45.4552C77.1708 45.7487 77.4307 46.0204 77.7135 46.2669C78.0009 46.5096 78.3107 46.7244 78.6387 46.9085C79.463 47.3712 80.3847 47.6335 81.3291 47.6741H81.4886C81.8218 47.6743 82.1542 47.6422 82.4811 47.5784Z" fill="#263238"/>
<path d="M85.2105 44.686C85.1402 44.5813 85.0555 44.487 84.9589 44.4059C84.9305 44.4272 85.2743 44.8419 85.6678 45.6147C85.9163 46.1196 86.1066 46.6512 86.2349 47.1992C86.3673 47.7388 86.4375 48.2918 86.4441 48.8474C86.4458 49.6919 86.3056 50.5307 86.0294 51.3287C85.9406 51.5899 85.8364 51.8455 85.7174 52.0944C85.363 52.8706 85.0085 53.2925 85.0368 53.3137C85.1345 53.231 85.2193 53.1342 85.2885 53.0266C85.4953 52.751 85.6779 52.458 85.8344 52.1511C85.8592 52.1085 85.8805 52.0589 85.9017 52.0164C86.675 50.4538 86.838 48.6592 86.359 46.9829C86.3165 46.8234 86.2633 46.671 86.2137 46.5257C86.0954 46.1916 85.9521 45.8669 85.7848 45.5544C85.618 45.2494 85.426 44.9588 85.2105 44.686Z" fill="#263238"/>
<path d="M86.9262 58.932C86.7642 58.7928 86.578 58.6847 86.3768 58.613C86.323 58.5918 86.2672 58.5763 86.2102 58.5669C86.1712 58.5669 86.1499 58.5669 86.1499 58.5669C86.3944 58.6978 86.6248 58.8534 86.8376 59.0313C87.047 59.2335 87.2155 59.4742 87.3338 59.7402V59.765C87.4823 60.0985 87.5351 60.4667 87.4863 60.8284C87.46 60.973 87.4184 61.1144 87.3622 61.2502C87.3313 61.3274 87.2946 61.402 87.2523 61.4736C87.1914 61.5871 87.119 61.694 87.0361 61.7926C86.7099 62.1769 86.2621 62.4383 85.7671 62.5334C85.6962 62.5334 85.6395 62.5547 85.604 62.5653C85.5686 62.576 85.5438 62.5653 85.5438 62.5866C85.5438 62.6079 85.565 62.5866 85.604 62.5866C85.6618 62.5924 85.72 62.5924 85.7777 62.5866C85.9903 62.5752 86.1992 62.526 86.3945 62.4413C86.6435 62.3339 86.8697 62.1799 87.0609 61.9875C87.0969 61.9563 87.1312 61.9232 87.1637 61.8883C87.1885 61.8599 87.2098 61.828 87.231 61.7997L87.2523 61.7749C87.36 61.6363 87.4505 61.4851 87.5217 61.3247C87.5908 61.1685 87.6396 61.0041 87.667 60.8355C87.705 60.5419 87.6805 60.2435 87.5949 59.96C87.5094 59.6766 87.3649 59.4144 87.1708 59.1908C87.0973 59.0973 87.0154 59.0107 86.9262 58.932Z" fill="#263238"/>
<path d="M83.6934 72.5791C83.6722 72.6003 83.7608 72.7138 83.86 72.9335C83.8983 73.0116 83.9315 73.0921 83.9593 73.1746C84.0254 73.368 84.0647 73.5695 84.0763 73.7736C84.0875 74.0662 84.0392 74.358 83.9345 74.6314C83.8919 74.7378 83.8529 74.8229 83.8246 74.8796C83.7962 74.9363 83.7856 74.9753 83.7962 74.9824C83.8069 74.9895 83.8352 74.9824 83.8848 74.9221C83.9491 74.8507 84.005 74.7722 84.0514 74.6882C84.2022 74.4051 84.2744 74.0869 84.2607 73.7665C84.247 73.4462 84.1478 73.1353 83.9735 72.8662C83.9451 72.8233 83.9131 72.783 83.8778 72.7457C83.782 72.611 83.7041 72.5684 83.6934 72.5791Z" fill="#263238"/>
<path d="M81.8147 50.5595C81.9211 50.2511 82.1231 50.1554 82.1267 50.1731C82.0506 50.3012 81.9877 50.4366 81.9388 50.5772C82.3059 50.6301 82.6801 50.559 83.0022 50.3752C83.23 50.2398 83.4126 50.0399 83.5268 49.8008C83.641 49.5617 83.6817 49.294 83.6438 49.0318C83.5933 48.7719 83.4492 48.5395 83.2389 48.3788C83.0285 48.2181 82.7664 48.1402 82.5024 48.1598C82.277 48.2071 82.0684 48.314 81.8983 48.4692C81.7281 48.6244 81.6026 48.8223 81.5347 49.0424C81.4993 49.1491 81.4709 49.2581 81.4496 49.3685C81.4006 49.7113 81.3923 50.0588 81.4248 50.4036V50.4213L81.4603 50.4603C81.5751 50.5043 81.6938 50.5375 81.8147 50.5595ZM82.5237 48.7482C82.602 48.726 82.6843 48.7214 82.7646 48.7349C82.845 48.7484 82.9213 48.7796 82.988 48.8262C83.0621 48.8928 83.1194 48.9761 83.1551 49.0691C83.1909 49.1621 83.2041 49.2623 83.1936 49.3614C83.1888 49.5514 83.1215 49.7345 83.0022 49.8825C82.9009 50.0045 82.7584 50.0852 82.6017 50.1093C82.3323 50.1412 82.2011 49.9995 82.2259 49.9817C82.2507 49.964 82.3748 50.0136 82.5804 49.9498C82.7003 49.9042 82.803 49.8223 82.8741 49.7156C82.9453 49.6088 82.9814 49.4825 82.9774 49.3543C82.9842 49.2909 82.978 49.2267 82.9591 49.1657C82.9402 49.1048 82.909 49.0483 82.8675 48.9999C82.7814 48.9348 82.6734 48.9056 82.5662 48.9183C82.3606 48.9431 82.2118 49.0034 82.2118 48.968C82.2118 48.9325 82.2614 48.8262 82.506 48.7482H82.5237Z" fill="#B78876"/>
<path d="M82.5343 48.9077C82.6415 48.895 82.7495 48.9242 82.8356 48.9892C82.8771 49.0377 82.9083 49.0941 82.9272 49.1551C82.9461 49.216 82.9523 49.2802 82.9455 49.3437C82.9495 49.4719 82.9134 49.5982 82.8422 49.7049C82.7711 49.8116 82.6684 49.8935 82.5485 49.9392C82.3571 50.003 82.2224 49.9392 82.194 49.9711C82.1657 50.003 82.3004 50.1306 82.5698 50.0987C82.7265 50.0746 82.869 49.9939 82.9703 49.8718C83.0896 49.7239 83.1569 49.5408 83.1617 49.3508C83.1722 49.2517 83.159 49.1515 83.1233 49.0584C83.0875 48.9654 83.0302 48.8822 82.9561 48.8155C82.8894 48.7689 82.813 48.7377 82.7327 48.7243C82.6524 48.7108 82.5701 48.7153 82.4918 48.7375C82.2472 48.8155 82.1373 48.9219 82.1586 48.9467C82.1799 48.9715 82.3287 48.9325 82.5343 48.9077Z" fill="#A36957"/>
<path d="M81.8148 50.5595C81.8133 50.5748 81.8133 50.5903 81.8148 50.6056C81.7874 50.7081 81.7805 50.8151 81.7945 50.9203C81.8085 51.0255 81.8431 51.127 81.8963 51.2188C81.9605 51.3336 82.0505 51.4319 82.1592 51.5059C82.268 51.5799 82.3924 51.6275 82.5228 51.6451C82.6532 51.6626 82.7858 51.6496 82.9102 51.607C83.0347 51.5643 83.1475 51.4934 83.2397 51.3996C83.3931 51.2504 83.4811 51.0464 83.4843 50.8324C83.4843 50.478 83.2893 50.3114 83.2823 50.3291C83.3337 50.4893 83.3577 50.6571 83.3531 50.8253C83.3343 50.9986 83.2523 51.1589 83.1227 51.2755C83.0461 51.3461 82.9549 51.3989 82.8556 51.4302C82.7563 51.4615 82.6513 51.4705 82.5481 51.4566C82.4449 51.4428 82.346 51.4063 82.2584 51.3499C82.1709 51.2935 82.0969 51.2185 82.0416 51.1302C81.9486 50.9826 81.9133 50.8059 81.9424 50.6339C81.9424 50.6127 81.9424 50.5985 81.9424 50.5772C81.9913 50.4365 82.0542 50.3012 82.1302 50.1731C82.1302 50.1731 81.9211 50.2511 81.8148 50.5595Z" fill="#47D163"/>
<path d="M74.1228 135.253C75.1507 135.362 76.2496 135.487 77.4122 135.607C80.0672 135.915 82.467 136.22 84.2038 136.451L84.8454 136.532L86.2633 136.717L86.8234 136.78C86.8892 136.79 86.956 136.79 87.0219 136.78C86.9596 136.759 86.8955 136.744 86.8305 136.734L86.2739 136.635C85.9195 136.571 85.4339 136.493 84.8561 136.405L84.2287 136.309L83.9628 136.27C82.8533 136.107 81.5028 135.915 79.9963 135.724C79.181 135.621 78.3303 135.515 77.4477 135.416C74.7892 135.107 72.3788 134.88 70.6313 134.739C69.7557 134.668 69.0503 134.618 68.5612 134.59H68.4336L67.9976 134.568C67.9316 134.561 67.8651 134.561 67.7991 134.568C67.8624 134.588 67.9278 134.6 67.994 134.604L68.5541 134.668H68.6498L70.6206 134.866C71.599 134.997 72.7971 135.111 74.1228 135.253Z" fill="#263238"/>
<path d="M63.6767 59.2936C63.6767 59.2936 58.8523 58.3684 51.919 52.0731C44.9856 45.7777 41.5756 37.2492 40.7497 37.313C39.9238 37.3769 36.2692 35.8066 29.8356 50.9211C23.402 66.0356 26.1988 69.4243 27.5635 69.3534C28.9282 69.2825 38.1231 66.4432 43.9293 66.9359C49.7354 67.4286 57.2608 70.236 57.2608 70.236L63.6767 59.2936Z" fill="#47D163"/>
<path opacity="0.4" d="M63.6767 59.2936C63.6767 59.2936 58.8523 58.3684 51.919 52.0731C44.9856 45.7777 41.5756 37.2492 40.7497 37.313C39.9238 37.3769 36.2692 35.8066 29.8356 50.9211C23.402 66.0356 26.1988 69.4243 27.5635 69.3534C28.9282 69.2825 38.1231 66.4432 43.9293 66.9359C49.7354 67.4286 57.2608 70.236 57.2608 70.236L63.6767 59.2936Z" fill="white"/>
<path d="M74.0944 67.8256L72.5454 70.9804L71.8365 72.3983C71.3795 73.3327 70.5808 74.0557 69.6057 74.4179C68.6306 74.7801 67.5537 74.7538 66.5974 74.3443L56.2186 71.0584L61.8157 57.2341L72.2406 62.4129C73.2004 62.8889 73.9336 63.7244 74.2807 64.738C74.6279 65.7516 74.5609 66.8612 74.0944 67.8256Z" fill="#47D163"/>
<path d="M68.3095 72.9655L65.215 79.477L63.5632 79.0694L53.117 88.0729L49.9622 82.3057C49.9622 82.3057 56.2044 79.4026 57.3103 77.1163C58.4163 74.83 57.048 74.355 57.048 74.355L59.9299 70.8918L68.3095 72.9655Z" fill="#47D163"/>
<path d="M30.3956 51.864C26.975 60.0522 25.6599 67.2975 27.4606 68.049C29.2613 68.8005 33.4866 62.7745 36.9108 54.5792C40.3349 46.3839 41.6394 39.1563 39.867 38.4048C38.0947 37.6534 33.8198 43.6793 30.3956 51.864Z" fill="#263238"/>
<path d="M75.1011 72.292L72.2938 71.4979L73.9243 68.1695L76.0476 69.4101L75.1011 72.292Z" fill="#455A64"/>
<path d="M58.9409 72.0863L66.562 76.6483L67.4446 74.7909L58.9409 72.0863Z" fill="#263238"/>
<path d="M73.9243 68.1695L72.2938 71.4979L72.868 71.661L74.176 68.3184L73.9243 68.1695Z" fill="#263238"/>
<path d="M56.6511 70.0198C56.6511 70.0198 54.6838 69.3605 54.7476 69.3782C54.8114 69.3959 60.8445 58.2585 60.8445 58.2585L61.323 58.4748L56.8461 69.6511" fill="#263238"/>
<path d="M72.0244 68.9812C71.9854 69.0734 70.5817 68.5736 68.8873 67.8611C67.193 67.1487 65.846 66.5035 65.885 66.4149C65.924 66.3263 67.3277 66.8225 69.0256 67.5315C70.7235 68.2404 72.0634 68.8891 72.0244 68.9812Z" fill="#263238"/>
<path d="M72.8325 67.0068C72.7936 67.0955 71.521 66.5992 69.9968 65.9009C68.4726 65.2026 67.2603 64.561 67.3028 64.483C67.3454 64.4051 68.6179 64.8907 70.1386 65.589C71.6593 66.2873 72.868 66.9147 72.8325 67.0068Z" fill="#263238"/>
<path d="M71.0035 71.0584C71.0035 71.108 70.649 71.0407 70.1244 70.8918C69.8585 70.8174 69.5431 70.7252 69.1921 70.6153C68.8412 70.5054 68.4832 70.3282 68.0968 70.1687C66.5549 69.5023 65.371 68.843 65.4064 68.7508C65.4419 68.6586 66.7073 69.1691 68.2422 69.8142C68.625 69.9737 68.983 70.1687 69.3056 70.2821C69.6281 70.3955 69.9436 70.5231 70.1953 70.6366C70.7057 70.8599 71.0141 71.0123 71.0035 71.0584Z" fill="#263238"/>
<path d="M37.7898 49.8577C37.7898 49.8577 33.5362 47.3764 31.4271 53.0869C29.318 58.7974 33.717 59.5807 33.717 59.5807C35.5253 56.5475 36.8964 53.2742 37.7898 49.8577Z" fill="#47D163"/>
<path d="M42.0293 43.02C42.0152 43.3775 41.9714 43.7332 41.8981 44.0834C41.7847 44.7923 41.6252 45.7777 41.3948 47.0113C41.2353 47.621 41.0616 48.2874 40.8737 48.9999C40.7816 49.3543 40.6823 49.7265 40.5831 50.1058C40.5334 50.2972 40.4803 50.4886 40.4271 50.6836C40.3739 50.8785 40.2959 51.07 40.2286 51.2649C39.9521 52.0483 39.6579 52.8707 39.3566 53.7214C39.2822 53.9341 39.2042 54.1503 39.1262 54.3665C39.0482 54.5827 38.9419 54.7883 38.8497 55.0045L38.2684 56.3054L37.6835 57.5993C37.5843 57.8119 37.4992 58.0282 37.3858 58.2302L37.0561 58.8293L35.7907 61.1085C35.6879 61.2893 35.5957 61.463 35.4894 61.6437L35.1562 62.14L34.5181 63.0935L33.3696 64.8127C32.6004 65.7981 31.9518 66.585 31.5122 67.1238C31.2972 67.4134 31.0602 67.686 30.8033 67.9391C30.9791 67.6194 31.1844 67.3168 31.4165 67.0352C31.8419 66.461 32.4445 65.6492 33.1889 64.6567L34.2913 62.9375L34.9045 61.9769L35.227 61.4807C35.3298 61.307 35.422 61.1262 35.5213 60.9454L36.7583 58.6697L37.0845 58.0742C37.1979 57.8757 37.2794 57.6595 37.3787 57.4468C37.5665 57.025 37.7615 56.5961 37.9564 56.1637C38.1514 55.7312 38.3464 55.2988 38.5378 54.8769C38.6299 54.6643 38.7363 54.4622 38.8107 54.246C38.8852 54.0298 38.9667 53.8171 39.0447 53.6079C39.3495 52.7643 39.6473 51.949 39.9308 51.1728C39.9982 50.9813 40.0762 50.7899 40.1364 50.5985L40.2959 50.0278L40.6043 48.9325C40.8028 48.2236 40.9907 47.5678 41.1608 46.9652L41.7741 44.0692C41.8288 43.7128 41.9142 43.3618 42.0293 43.02Z" fill="#263238"/>
<path d="M83.9061 75.39C83.9061 75.39 79.8156 82.965 78.7167 83.082C72.6482 83.7129 66.1473 81.7208 63.868 80.9304C63.6376 80.6645 63.3718 80.349 63.0776 79.9626C62.8261 79.6258 62.6321 79.2497 62.5033 78.8496C62.3252 78.3551 62.2143 77.8388 62.1737 77.3148C62.1868 77.2149 62.1676 77.1134 62.1189 77.0253C62.0701 76.9371 61.9944 76.8669 61.9029 76.8248C61.8113 76.7828 61.7087 76.7712 61.6101 76.7918C61.5115 76.8124 61.422 76.8639 61.3549 76.939C61.0926 77.2935 61.0287 78.6263 61.6313 80.0548C62.2339 81.4833 60.1107 80.3632 59.3308 79.9697C58.551 79.5763 56.0768 78.4774 55.7649 78.6299C55.3112 78.8496 55.453 79.3884 56.2434 79.7641C57.0339 80.1399 59.3202 81.4301 59.0792 81.8449C58.8381 82.2596 54.9071 80.1966 54.9071 80.1966C54.9071 80.1966 54.1343 79.6153 53.8437 80.0867C53.3439 80.9339 57.7038 82.8019 58.1221 82.9685C58.4128 83.0855 58.1824 83.5428 57.8775 83.4045C57.5727 83.2663 53.9784 81.2565 53.4679 82.1143C53.0745 82.7736 57.041 83.6881 57.555 84.5246C58.0689 85.3612 54.6164 83.518 54.262 84.1702C54.1308 84.4112 54.067 84.6097 56.2009 85.3754C57.7618 85.8613 59.3487 86.2589 60.9543 86.5664V86.5877C60.9543 86.5877 81.4426 96.1583 86.8305 86.6621C90.3539 80.4625 90.6835 79.6755 91.9313 76.1734" fill="#B78876"/>
<path d="M1.01378 88.3386H40.9304C41.1996 88.3396 41.4575 88.4472 41.6475 88.6378C41.8375 88.8285 41.9442 89.0867 41.9442 89.3559V97.4449C42.21 100.88 41.9442 101.73 38.0273 102.01V105.661L34.4366 102.071H1.01378C0.744914 102.071 0.487056 101.964 0.296936 101.774C0.106816 101.584 6.19745e-06 101.326 6.19745e-06 101.057V89.3595C-0.000460108 89.2259 0.0253921 89.0935 0.076087 88.9699C0.126782 88.8463 0.201328 88.7339 0.295466 88.6391C0.389604 88.5443 0.501492 88.469 0.624741 88.4174C0.747991 88.3659 0.880188 88.3391 1.01378 88.3386Z" fill="#455A64"/>
<path d="M34.2948 92.6348H13.1898V93.5387H34.2948V92.6348Z" fill="#47D163"/>
<path d="M34.2948 94.5348H13.1898V95.4387H34.2948V94.5348Z" fill="#47D163"/>
<path d="M23.8876 96.5765H13.1898V97.4804H23.8876V96.5765Z" fill="#47D163"/>
<path d="M11.3253 92.2307H5.43048V98.1255H11.3253V92.2307Z" fill="#47D163"/>
<path d="M141.344 28.7101C141.344 28.24 141.157 27.7892 140.825 27.4568C140.493 27.1244 140.042 26.9377 139.572 26.9377L95.4016 27.1539C94.9315 27.1539 94.4807 27.3407 94.1483 27.673C93.8159 28.0054 93.6292 28.4562 93.6292 28.9263L93.6966 42.8604C93.6965 43.0947 93.743 43.3266 93.8331 43.5428C93.9233 43.759 94.0555 43.9551 94.2219 44.12C94.3884 44.2848 94.5859 44.4149 94.8029 44.503C95.02 44.591 95.2524 44.6351 95.4866 44.6328H96.4437L96.472 49.7335L101.456 44.6079L139.643 44.4201C140.113 44.4201 140.564 44.2333 140.896 43.901C141.228 43.5686 141.415 43.1178 141.415 42.6477L141.344 28.7101Z" fill="#47D163"/>
<path d="M127.959 38.1814C127.931 37.3803 127.959 36.2 127.959 35.1472C127.722 34.538 127.67 33.8723 127.809 33.2336C127.949 32.5948 128.273 32.0114 128.743 31.5564C130.388 29.8408 131.501 30.2166 132.139 30.2236C132.777 30.2307 135.733 30.9326 136.584 34.4454C136.627 34.6715 136.658 34.8999 136.676 35.1295C136.693 35.3032 136.711 35.4839 136.725 35.5903C136.763 36.2199 136.961 36.8295 137.3 37.3612C137.639 37.8928 138.109 38.3289 138.664 38.6281C139.071 37.6997 139.278 36.696 139.27 35.6824C139.266 34.4036 138.925 33.1484 138.283 32.0426C137.64 30.9367 136.719 30.019 135.61 29.3811C134.502 28.7433 133.245 28.4077 131.967 28.4081C130.688 28.4084 129.431 28.7446 128.323 29.383C127.215 30.0214 126.294 30.9397 125.652 32.0459C125.011 33.1521 124.671 34.4074 124.666 35.6862C124.662 36.9651 124.994 38.2226 125.629 39.333C126.263 40.4433 127.178 41.3676 128.282 42.0132C127.938 40.767 127.829 39.4677 127.959 38.1814Z" fill="#E0E0E0"/>
<path d="M136.729 35.5938V35.6222H136.69C136.69 37.0401 136.53 41.836 134.163 42.7116C135.16 42.3964 136.078 41.8711 136.855 41.171C137.633 40.4708 138.251 39.6122 138.668 38.6529C138.11 38.3519 137.638 37.9125 137.299 37.3768C136.959 36.8411 136.763 36.2272 136.729 35.5938Z" fill="#263238"/>
<path d="M127.967 38.3551C127.967 38.2984 127.967 38.2417 127.967 38.1814C127.835 39.4688 127.945 40.7694 128.289 42.0168C128.772 42.3047 129.287 42.5343 129.824 42.7009C129.796 41.6836 129.703 40.2196 129.703 40.2196C129.241 40.1614 128.814 39.9428 128.497 39.6021C128.18 39.2614 127.992 38.8201 127.967 38.3551Z" fill="#263238"/>
<path d="M134.081 35.2252C134.081 35.2252 131.38 34.931 130.93 32.3894C130.767 32.7723 130.476 33.5946 130.66 34.261L128.25 34.8672L127.981 35.1188C127.956 36.1822 127.945 37.352 127.981 38.1531C127.981 38.2133 127.981 38.2701 127.981 38.3268C128.002 38.7938 128.187 39.2385 128.503 39.5827C128.819 39.9269 129.247 40.1486 129.71 40.209C130.492 40.1912 131.251 39.9447 131.894 39.5001C131.894 39.5001 131.387 40.7301 129.742 40.6414L129.71 40.2267C129.71 40.2267 129.803 41.6729 129.831 42.708C130.54 42.9288 131.279 43.0388 132.022 43.0341C132.648 43.0274 133.271 42.9416 133.875 42.7789L134.081 35.2252ZM130.763 35.6505C130.765 35.6095 130.779 35.5701 130.804 35.537C130.828 35.504 130.862 35.4789 130.9 35.4648C130.939 35.4507 130.981 35.4482 131.021 35.4578C131.061 35.4673 131.097 35.4884 131.125 35.5183C131.153 35.5483 131.171 35.5859 131.178 35.6263C131.185 35.6668 131.18 35.7084 131.163 35.7459C131.147 35.7835 131.119 35.8153 131.085 35.8374C131.05 35.8595 131.01 35.871 130.969 35.8703C130.941 35.8694 130.913 35.863 130.888 35.8514C130.863 35.8399 130.84 35.8234 130.82 35.803C130.801 35.7826 130.787 35.7587 130.777 35.7325C130.767 35.7063 130.762 35.6785 130.763 35.6505ZM130.714 35.2961C130.804 35.2191 130.918 35.1743 131.036 35.1685C131.155 35.1625 131.273 35.1948 131.373 35.2606C131.447 35.3138 131.476 35.367 131.462 35.3811C131.447 35.3953 131.27 35.2961 131.043 35.3067C130.816 35.3173 130.66 35.452 130.636 35.4237C130.611 35.3953 130.643 35.3492 130.714 35.289V35.2961ZM128.208 35.2642C128.299 35.1867 128.414 35.1419 128.534 35.1366C128.652 35.1303 128.77 35.164 128.867 35.2323C128.941 35.2854 128.97 35.3351 128.955 35.3492C128.941 35.3634 128.764 35.2642 128.537 35.2748C128.31 35.2854 128.154 35.4201 128.13 35.3918C128.105 35.3634 128.13 35.3173 128.208 35.2571V35.2642ZM128.328 35.6186C128.329 35.5766 128.342 35.5357 128.366 35.5011C128.39 35.4665 128.423 35.4398 128.463 35.4244C128.502 35.4089 128.545 35.4054 128.586 35.4143C128.627 35.4232 128.664 35.4441 128.694 35.4743C128.723 35.5046 128.742 35.5428 128.75 35.5842C128.757 35.6256 128.753 35.6683 128.736 35.7068C128.719 35.7454 128.691 35.7782 128.656 35.801C128.621 35.8238 128.579 35.8356 128.537 35.8349C128.481 35.8339 128.428 35.8111 128.389 35.7713C128.35 35.7315 128.328 35.678 128.328 35.6222V35.6186ZM129.324 37.3662C129.302 37.3617 129.282 37.3514 129.265 37.3365C129.248 37.3216 129.235 37.3024 129.228 37.2811C129.209 37.1991 129.218 37.1129 129.253 37.0365C129.299 36.8841 129.352 36.7246 129.406 36.5544C129.525 36.1384 129.675 35.732 129.856 35.3386C129.768 35.7626 129.65 36.1797 129.501 36.5863C129.445 36.7518 129.391 36.9113 129.342 37.0649C129.312 37.1227 129.3 37.188 129.306 37.2527C129.306 37.2917 129.37 37.3024 129.43 37.3059C129.551 37.3089 129.67 37.328 129.785 37.3626C129.661 37.377 129.536 37.377 129.413 37.3626C129.384 37.3687 129.354 37.3711 129.324 37.3697V37.3662ZM130.189 38.1885C130.057 38.2429 129.911 38.25 129.775 38.2087C129.638 38.1673 129.52 38.0801 129.441 37.9617C129.902 37.9617 130.77 37.4371 130.54 37.6072C130.568 37.7311 130.547 37.8612 130.482 37.9702C130.417 38.0792 130.312 38.1587 130.189 38.1921V38.1885Z" fill="#455A64"/>
<path d="M128.75 35.6257C128.75 35.5837 128.737 35.5426 128.714 35.5076C128.691 35.4726 128.657 35.4453 128.619 35.4292C128.58 35.4131 128.537 35.4089 128.496 35.4171C128.454 35.4253 128.417 35.4456 128.387 35.4753C128.357 35.5051 128.337 35.543 128.329 35.5842C128.32 35.6255 128.325 35.6683 128.341 35.7071C128.357 35.746 128.384 35.7792 128.419 35.8026C128.454 35.8259 128.495 35.8384 128.537 35.8384C128.594 35.8384 128.648 35.816 128.688 35.7761C128.727 35.7362 128.75 35.6821 128.75 35.6257Z" fill="#263238"/>
<path d="M128.955 35.3421C128.955 35.3421 128.955 35.2783 128.867 35.2252C128.77 35.1569 128.652 35.1232 128.534 35.1295C128.414 35.1348 128.299 35.1796 128.207 35.2571C128.137 35.3173 128.115 35.3705 128.13 35.3847C128.144 35.3988 128.314 35.2783 128.537 35.2677C128.76 35.2571 128.934 35.3918 128.955 35.3421Z" fill="#263238"/>
<path d="M131.182 35.6577C131.182 35.6022 131.159 35.549 131.12 35.5098C131.081 35.4706 131.028 35.4485 130.972 35.4485C130.917 35.4485 130.864 35.4706 130.825 35.5098C130.785 35.549 130.763 35.6022 130.763 35.6577C130.763 35.7131 130.785 35.7663 130.825 35.8055C130.864 35.8448 130.917 35.8668 130.972 35.8668C131.028 35.8668 131.081 35.8448 131.12 35.8055C131.159 35.7663 131.182 35.7131 131.182 35.6577Z" fill="#263238"/>
<path d="M131.462 35.3918C131.462 35.3918 131.462 35.3244 131.373 35.2712C131.273 35.2054 131.155 35.1731 131.036 35.1791C130.918 35.1849 130.804 35.2297 130.714 35.3067C130.643 35.3669 130.621 35.4201 130.636 35.4343C130.65 35.4485 130.816 35.3279 131.043 35.3173C131.27 35.3067 131.44 35.3918 131.462 35.3918Z" fill="#263238"/>
<path d="M129.796 37.3661C129.68 37.3315 129.561 37.3124 129.441 37.3094C129.381 37.3094 129.328 37.3094 129.317 37.2563C129.31 37.1915 129.323 37.1262 129.352 37.0684C129.402 36.9172 129.455 36.7576 129.512 36.5899C129.661 36.1832 129.779 35.7662 129.866 35.3421C129.686 35.7355 129.536 36.142 129.416 36.558C129.363 36.7281 129.31 36.8876 129.264 37.04C129.228 37.1165 129.22 37.2026 129.239 37.2846C129.246 37.306 129.259 37.3251 129.275 37.34C129.292 37.355 129.313 37.3652 129.335 37.3697C129.368 37.3743 129.401 37.3743 129.434 37.3697C129.554 37.3821 129.676 37.3809 129.796 37.3661Z" fill="#263238"/>
<path d="M129.441 37.9652C129.52 38.0836 129.638 38.1709 129.775 38.2122C129.911 38.2536 130.057 38.2465 130.189 38.1921C130.315 38.1595 130.424 38.0782 130.49 37.9659C130.557 37.8535 130.576 37.7195 130.543 37.593C130.77 37.4406 129.902 37.9723 129.441 37.9652Z" fill="white"/>
<path d="M131.88 39.5107C131.237 39.9554 130.478 40.2019 129.696 40.2196L129.728 40.6344C131.373 40.7407 131.88 39.5107 131.88 39.5107Z" fill="#263238"/>
<path d="M136.69 35.6151H136.729V35.5867C136.729 35.4662 136.697 35.2996 136.679 35.1259C136.662 34.8963 136.631 34.6679 136.587 34.4418C135.736 30.9184 132.738 30.2272 132.142 30.2201C131.547 30.213 130.391 29.8373 128.746 31.5529C128.277 32.0079 127.952 32.5913 127.813 33.2301C127.673 33.8688 127.726 34.5345 127.963 35.1437L128.232 34.892L130.643 34.2858C130.458 33.6194 130.749 32.7971 130.912 32.4143C131.362 34.9416 134.063 35.25 134.063 35.25L133.844 42.7966C133.943 42.7683 134.046 42.747 134.145 42.7151C136.53 41.8289 136.704 37.0153 136.69 35.6151Z" fill="#263238"/>
<path d="M121.992 32.1764L99.0372 32.2885L99.0434 33.554L121.998 33.4418L121.992 32.1764Z" fill="#263238"/>
<path d="M122.012 35.4302L99.0566 35.5424L99.0628 36.8079L122.018 36.6957L122.012 35.4302Z" fill="#263238"/>
<path d="M110.447 38.6486L99.0687 38.7042L99.0748 39.9696L110.453 39.914L110.447 38.6486Z" fill="#263238"/>
</svg>
