<svg width="221" height="222" viewBox="0 0 221 222" fill="none" xmlns="http://www.w3.org/2000/svg">
<path d="M203.807 132.139V155.184C203.807 157.187 203.011 159.108 201.594 160.525C200.178 161.941 198.257 162.737 196.254 162.737H113.622C111.62 162.735 109.7 161.939 108.285 160.523C106.869 159.106 106.074 157.186 106.074 155.184V135.709L95.7828 124.901L196.232 124.592C197.225 124.588 198.21 124.781 199.129 125.158C200.047 125.536 200.883 126.091 201.586 126.793C202.29 127.494 202.849 128.327 203.23 129.244C203.611 130.162 203.807 131.146 203.807 132.139Z" fill="#F5F5F5"/>
<path d="M118.252 138.551L193.238 138.203L193.227 135.899L118.246 136.247L118.252 138.551Z" fill="#E6E6E6"/>
<path d="M118.252 146.131L193.238 145.789L193.227 143.485L118.246 143.827L118.252 146.131Z" fill="#E6E6E6"/>
<path d="M147.905 151.079L118.237 151.224L118.248 153.528L147.917 153.383L147.905 151.079Z" fill="#E6E6E6"/>
<path d="M57.3603 0H106.096C106.667 0 107.232 0.112439 107.76 0.330898C108.287 0.549357 108.766 0.869557 109.17 1.27322C109.574 1.67688 109.894 2.15609 110.112 2.6835C110.331 3.2109 110.443 3.77618 110.443 4.34704V28.2068C110.443 29.3597 109.985 30.4654 109.17 31.2807C108.355 32.0959 107.249 32.5539 106.096 32.5539H64.7394C63.5865 32.5539 62.4808 32.0959 61.6656 31.2807C60.8504 30.4654 60.3924 29.3597 60.3924 28.2068V3.01032L57.3603 0Z" fill="#F5F5F5"/>
<path d="M118.588 43.3943V51.958C118.588 52.5344 118.817 53.0873 119.225 53.4949C119.633 53.9025 120.186 54.1315 120.762 54.1315H168.612C169.188 54.1315 169.741 53.9025 170.149 53.4949C170.556 53.0873 170.785 52.5344 170.785 51.958V47.2795L176.279 41.4001L120.767 41.2208C120.482 41.2201 120.198 41.2757 119.934 41.3847C119.67 41.4936 119.429 41.6536 119.227 41.8555C119.025 42.0574 118.864 42.2972 118.754 42.5613C118.645 42.8253 118.588 43.1084 118.588 43.3943Z" fill="#F0F0F0"/>
<path d="M86.3333 26.3595V41.6447C86.334 42.3024 86.2051 42.9538 85.9539 43.5616C85.7027 44.1694 85.3342 44.7217 84.8694 45.187C84.4046 45.6523 83.8527 46.0214 83.2452 46.2732C82.6376 46.5251 81.9864 46.6547 81.3288 46.6547H26.5018C25.8441 46.6547 25.1929 46.5251 24.5854 46.2732C23.9778 46.0214 23.4259 45.6523 22.9611 45.187C22.4963 44.7217 22.1278 44.1694 21.8766 43.5616C21.6254 42.9538 21.4965 42.3024 21.4972 41.6447V28.734L14.6887 21.5614L81.3125 21.3549C81.971 21.3528 82.6236 21.4807 83.2326 21.7312C83.8417 21.9817 84.3953 22.35 84.8617 22.815C85.3282 23.2799 85.6983 23.8323 85.9508 24.4406C86.2033 25.0488 86.3333 25.7009 86.3333 26.3595Z" fill="#E0E0E0"/>
<path d="M29.5936 30.614L79.3237 30.3858L79.3183 28.8589L29.5882 29.0871L29.5936 30.614Z" fill="#F0F0F0"/>
<path d="M29.5936 35.6457L79.3237 35.4121L79.3183 33.8852L29.5882 34.1134L29.5936 35.6457Z" fill="#F0F0F0"/>
<path d="M49.2565 38.9254L29.581 39.0215L29.5885 40.5484L49.264 40.4523L49.2565 38.9254Z" fill="#F0F0F0"/>
<path d="M5.55454 76.8013V99.8515C5.55454 100.843 5.74995 101.825 6.12959 102.741C6.50923 103.657 7.06566 104.489 7.76709 105.19C8.46852 105.891 9.3012 106.447 10.2175 106.826C11.1339 107.205 12.1159 107.4 13.1075 107.399H95.7393C96.7309 107.4 97.7129 107.205 98.6293 106.826C99.5456 106.447 100.378 105.891 101.08 105.19C101.781 104.489 102.338 103.657 102.717 102.741C103.097 101.825 103.292 100.843 103.292 99.8515V80.3767L113.578 69.5689L13.1293 69.2375C12.1346 69.2346 11.1493 69.4282 10.2297 69.8072C9.31008 70.1861 8.47439 70.743 7.77059 71.4458C7.06678 72.1486 6.50872 72.9835 6.12843 73.9025C5.74814 74.8216 5.55311 75.8067 5.55454 76.8013Z" fill="#F0F0F0"/>
<path d="M91.1097 83.2132L16.1233 82.8708L16.1342 80.5669L91.1152 80.9092L91.1097 83.2132Z" fill="#E6E6E6"/>
<path d="M91.1097 90.7987L16.1233 90.451L16.1342 88.147L91.1152 88.4948L91.1097 90.7987Z" fill="#E6E6E6"/>
<path d="M61.4433 95.7319L61.432 98.0358L91.1002 98.1808L91.1114 95.8769L61.4433 95.7319Z" fill="#E6E6E6"/>
<path d="M167.775 22.492C170.049 17.437 167.794 11.4958 162.739 9.2219C157.684 6.94799 151.743 9.20246 149.469 14.2574C147.195 19.3124 149.45 25.2536 154.505 27.5275C159.56 29.8014 165.501 27.5469 167.775 22.492Z" fill="#F5F5F5"/>
<path d="M155.158 15.845C155.533 15.8124 155.881 16.2308 155.924 16.7797C155.968 17.3285 155.701 17.8012 155.321 17.8338C154.941 17.8664 154.593 17.4426 154.549 16.8938C154.506 16.345 154.778 15.8722 155.158 15.845Z" fill="#E0E0E0"/>
<path d="M156.038 13.302C155.434 13.3767 154.836 13.4984 154.25 13.666C153.696 13.9194 153.162 14.2156 152.653 14.5518C153.022 14.0225 153.544 13.619 154.149 13.3955C154.755 13.1721 155.414 13.1394 156.038 13.302Z" fill="#E0E0E0"/>
<path d="M161.537 15.7145C161.151 15.7145 160.825 16.1275 160.804 16.6818C160.782 17.236 161.07 17.687 161.456 17.7033C161.841 17.7196 162.162 17.2849 162.184 16.7361C162.205 16.1873 161.917 15.7254 161.537 15.7145Z" fill="#E0E0E0"/>
<path d="M160.548 13.2096C161.162 13.0194 161.82 13.0216 162.433 13.2158C163.046 13.4101 163.584 13.7871 163.977 14.2964C163.457 13.9782 162.912 13.7037 162.347 13.4759C161.755 13.3424 161.154 13.2534 160.548 13.2096Z" fill="#E0E0E0"/>
<path d="M163.569 18.2684C163.573 18.4521 163.55 18.6353 163.499 18.8118C163.371 19.2946 163.165 19.7534 162.89 20.1703C162.496 20.7976 161.976 21.3361 161.363 21.7515C160.614 22.2819 159.73 22.589 158.813 22.6371C157.897 22.6852 156.985 22.4723 156.185 22.0232C155.53 21.6718 154.955 21.1889 154.495 20.605C154.188 20.2153 153.946 19.7786 153.778 19.3117C153.702 19.1402 153.659 18.9558 153.653 18.7683C153.914 19.3726 154.251 19.9406 154.658 20.4583C155.108 20.9996 155.662 21.4449 156.288 21.7678C157.048 22.1794 157.906 22.3733 158.769 22.3282C159.632 22.2832 160.466 22.0009 161.178 21.5124C161.773 21.1264 162.285 20.6258 162.684 20.0399C163.053 19.4892 163.35 18.894 163.569 18.2684Z" fill="#E0E0E0"/>
<path d="M20.7149 131.183H22.1548L25.3282 126.955V124.179C25.3282 124.179 27.5723 124.048 27.3115 127.683C27.0507 131.319 27.3115 130.4 27.3115 130.4C27.3115 130.4 32.0769 130.4 32.4736 130.813C32.7616 131.101 32.892 135.633 32.9409 138.089C32.9647 138.693 32.7832 139.287 32.426 139.775C32.0688 140.262 31.5569 140.614 30.9739 140.773C30.7958 140.815 30.6135 140.837 30.4305 140.839C29.3003 140.811 23.2416 139.877 23.2416 139.877H20.7149V131.183Z" fill="#F0F0F0"/>
<path d="M16.5579 130.406L17.4491 139.909H19.9377V130.596L16.5579 130.406Z" fill="#F0F0F0"/>
<path d="M220.488 48.5455C220.146 48.1785 219.673 47.9599 219.172 47.9366C218.67 47.9132 218.179 48.0869 217.804 48.4205C217.431 48.7188 217.129 49.0954 216.917 49.5235C216.706 49.9517 216.591 50.421 216.581 50.8984C216.493 50.4205 216.302 49.9677 216.02 49.5716C215.738 49.1755 215.374 48.8457 214.951 48.6053C214.532 48.3223 214.018 48.2139 213.52 48.3032C213.022 48.3925 212.578 48.6724 212.283 49.0835C211.965 49.6475 211.868 50.3102 212.012 50.9418C212.106 51.5792 212.373 52.1786 212.783 52.6752C214.288 54.2727 215.065 54.5281 216.929 55.6095C218.625 54.2945 219.173 53.9793 220.445 52.1699C220.788 51.6236 220.976 50.9944 220.988 50.3495C221.049 49.7072 220.871 49.065 220.488 48.5455Z" fill="#F0F0F0"/>
<path d="M130.95 195.155L74.3953 194.889C72.7778 194.882 71.1775 194.557 69.6857 193.932C68.194 193.307 66.8399 192.394 65.701 191.246C64.5621 190.097 63.6607 188.736 63.0482 187.239C62.4356 185.742 62.124 184.139 62.1312 182.521L62.7343 40.7371C62.753 37.4724 64.0664 34.3485 66.3861 32.0512C68.7058 29.7539 71.8423 28.4709 75.1071 28.4839L131.662 28.7447C134.929 28.7606 138.055 30.0727 140.355 32.3927C142.655 34.7127 143.939 37.8509 143.926 41.1175L143.328 182.885C143.313 186.153 142 189.281 139.679 191.582C137.358 193.883 134.218 195.168 130.95 195.155Z" fill="#263238"/>
<path d="M131.581 33.6244L120.615 33.5755C120.257 33.5812 119.904 33.6574 119.576 33.7999C119.248 33.9424 118.951 34.1483 118.703 34.4058C118.454 34.6633 118.259 34.9673 118.129 35.3004C117.998 35.6335 117.934 35.9891 117.942 36.3468V38.3355C117.949 38.6932 117.885 39.0488 117.755 39.3819C117.624 39.715 117.429 40.019 117.181 40.2765C116.932 40.534 116.635 40.7399 116.307 40.8824C115.979 41.0249 115.626 41.1011 115.268 41.1068L93.8808 41.009C93.5226 41.0005 93.1696 40.9213 92.8421 40.7759C92.5146 40.6304 92.2191 40.4217 91.9726 40.1616C91.7262 39.9015 91.5336 39.5952 91.406 39.2603C91.2784 38.9255 91.2183 38.5687 91.2291 38.2106V36.2218C91.24 35.8636 91.1799 35.5068 91.0523 35.172C90.9247 34.8372 90.7321 34.5309 90.4856 34.2708C90.2391 34.0107 89.9437 33.8019 89.6162 33.6565C89.2887 33.511 88.9357 33.4318 88.5774 33.4234H84.7194L75.1397 33.3745C74.0065 33.3695 72.8834 33.5877 71.8346 34.0167C70.7858 34.4458 69.8318 35.0772 69.027 35.8749C68.2222 36.6726 67.5824 37.6211 67.1441 38.6661C66.7059 39.7111 66.4777 40.8321 66.4727 41.9653L65.8859 180.353C65.8772 182.641 66.7771 184.839 68.3879 186.464C69.9987 188.089 72.1887 189.009 74.4767 189.02L130.918 189.281C132.051 189.286 133.174 189.068 134.223 188.639C135.271 188.21 136.225 187.578 137.03 186.781C137.835 185.983 138.475 185.034 138.913 183.989C139.351 182.944 139.579 181.823 139.584 180.69L140.171 42.3022C140.177 41.1683 139.959 40.0444 139.531 38.9947C139.102 37.9449 138.471 36.9899 137.673 36.1841C136.875 35.3783 135.927 34.7375 134.881 34.2983C133.836 33.8591 132.714 33.6301 131.581 33.6244Z" fill="white"/>
<path d="M100.559 171.806C100.559 172.04 100.49 172.269 100.359 172.464C100.229 172.659 100.044 172.81 99.8278 172.9C99.6113 172.99 99.3731 173.013 99.1434 172.968C98.9136 172.922 98.7025 172.809 98.5368 172.643C98.3712 172.478 98.2583 172.267 98.2126 172.037C98.1669 171.807 98.1904 171.569 98.2801 171.352C98.3697 171.136 98.5215 170.951 98.7163 170.821C98.9111 170.691 99.1402 170.621 99.3744 170.621C99.6882 170.623 99.9886 170.748 100.21 170.97C100.432 171.192 100.558 171.492 100.559 171.806Z" fill="#455A64"/>
<path d="M105.058 171.806C105.058 172.04 104.989 172.269 104.859 172.464C104.728 172.659 104.543 172.81 104.327 172.9C104.11 172.99 103.872 173.013 103.643 172.968C103.413 172.922 103.202 172.809 103.036 172.643C102.87 172.478 102.758 172.267 102.712 172.037C102.666 171.807 102.69 171.569 102.779 171.352C102.869 171.136 103.021 170.951 103.216 170.821C103.41 170.691 103.639 170.621 103.874 170.621C104.187 170.623 104.488 170.748 104.71 170.97C104.932 171.192 105.057 171.492 105.058 171.806Z" fill="#455A64"/>
<path d="M109.557 171.806C109.557 172.04 109.488 172.269 109.358 172.464C109.228 172.659 109.043 172.81 108.826 172.9C108.61 172.99 108.372 173.013 108.142 172.968C107.912 172.922 107.701 172.809 107.535 172.643C107.37 172.478 107.257 172.267 107.211 172.037C107.165 171.807 107.189 171.569 107.278 171.352C107.368 171.136 107.52 170.951 107.715 170.821C107.91 170.691 108.139 170.621 108.373 170.621C108.687 170.623 108.987 170.748 109.209 170.97C109.431 171.192 109.556 171.492 109.557 171.806Z" fill="#455A64"/>
<path d="M76.9873 72.2315C76.9873 72.2315 76.9873 72.1337 76.9873 71.9327C77.0288 71.1443 77.3072 70.3868 77.786 69.7592C78.1826 69.2189 78.7073 68.7857 79.3129 68.4985C80.0853 68.1552 80.9326 68.0149 81.7744 68.091H92.0552L135.526 68.1779H135.846L135.623 68.4116L130.054 74.2692L130.092 74.1768V83.8762C130.131 84.5226 130.083 85.1713 129.95 85.8052C129.784 86.4402 129.469 87.0267 129.032 87.5168C128.604 88.0057 128.068 88.3888 127.467 88.6362C126.869 88.8713 126.229 88.9804 125.587 88.9568H107.851L84.1001 88.9079H81.6006C80.8006 88.9692 79.9982 88.8252 79.2695 88.4895C78.6067 88.1691 78.0405 87.6792 77.6282 87.0694C77.216 86.4596 76.9723 85.7516 76.9221 85.0173C76.9221 82.3004 76.9221 80.0127 76.9221 78.1163C76.9221 76.22 76.9221 74.7637 76.9492 73.7693C76.9492 73.2748 76.9492 72.8999 76.9492 72.6336C76.9492 72.3674 76.9492 72.2478 76.9492 72.2478C76.9492 72.2478 76.9492 72.3783 76.9492 72.6336C76.9492 72.889 76.9492 73.2748 76.9492 73.7693C76.9492 74.7746 76.9492 76.2417 76.9492 78.1163C76.9492 79.991 76.9492 82.3275 76.9873 85.0064C77.0394 85.711 77.2769 86.3892 77.6758 86.9723C78.0747 87.5554 78.6208 88.0226 79.2586 88.3265C79.9623 88.6481 80.7372 88.7829 81.5082 88.7177H84.1001L107.878 88.6905H121.919H125.603C126.208 88.7153 126.812 88.6135 127.375 88.3917C127.937 88.1601 128.439 87.8033 128.842 87.3484C129.247 86.8907 129.538 86.3431 129.69 85.7508C129.818 85.1402 129.864 84.5152 129.826 83.8925V74.1279L129.864 74.0899L135.439 68.2323L135.542 68.4659L92.0715 68.2812L84.7685 68.2431H81.7853C80.9623 68.1621 80.1323 68.2911 79.3727 68.6181C78.7767 68.8933 78.2578 69.3114 77.8621 69.8352C77.5691 70.2175 77.3448 70.6477 77.1992 71.1068C77.0939 71.4743 77.023 71.8509 76.9873 72.2315Z" fill="#455A64"/>
<path d="M123.343 75.7091L82.7144 75.5189L82.7198 74.2692L123.343 74.4594V75.7091Z" fill="#455A64"/>
<path d="M123.343 79.8171L82.7144 79.6269L82.7198 78.3771L123.343 78.5673V79.8171Z" fill="#455A64"/>
<path d="M107.265 82.4885L107.258 83.7383L123.331 83.8168L123.338 82.5671L107.265 82.4885Z" fill="#455A64"/>
<path d="M132.222 99.7483V112.246C132.222 113.33 131.791 114.37 131.025 115.137C130.259 115.904 129.22 116.336 128.136 116.338H83.3611C82.2759 116.338 81.2352 115.907 80.4679 115.139C79.7005 114.372 79.2694 113.331 79.2694 112.246V101.688L73.6998 95.8305L128.114 95.662C128.652 95.6592 129.186 95.7628 129.684 95.9668C130.183 96.1709 130.636 96.4714 131.017 96.8512C131.399 97.2309 131.702 97.6823 131.909 98.1795C132.115 98.6767 132.222 99.2098 132.222 99.7483Z" fill="#47D163"/>
<path d="M85.8716 103.226L126.5 103.036L126.495 101.786L85.8661 101.976L85.8716 103.226Z" fill="white"/>
<path d="M85.8716 107.334L126.5 107.144L126.495 105.899L85.8661 106.084L85.8716 107.334Z" fill="white"/>
<path d="M101.931 110.013L85.8578 110.091L85.8639 111.341L101.937 111.263L101.931 110.013Z" fill="white"/>
<path d="M107.851 51.9145C108.245 51.7427 108.579 51.4579 108.811 51.0961C109.044 50.7344 109.163 50.312 109.155 49.8823C109.17 49.6033 109.127 49.3243 109.03 49.0623C108.933 48.8003 108.784 48.5607 108.592 48.3582C108.399 48.1556 108.168 47.9944 107.911 47.8841C107.654 47.7739 107.378 47.7171 107.099 47.7171C106.819 47.7171 106.543 47.7739 106.286 47.8841C106.029 47.9944 105.798 48.1556 105.605 48.3582C105.413 48.5607 105.264 48.8003 105.167 49.0623C105.07 49.3243 105.028 49.6033 105.042 49.8823C105.031 50.3153 105.15 50.7418 105.383 51.1068C105.617 51.4718 105.954 51.7587 106.351 51.9308C103.184 52.409 103.325 55.854 103.325 55.854L110.818 55.8866C110.818 55.8866 110.992 52.3927 107.851 51.9145Z" fill="#47D163"/>
<path opacity="0.5" d="M107.851 51.9145C108.245 51.7427 108.579 51.4579 108.811 51.0961C109.044 50.7344 109.163 50.312 109.155 49.8823C109.17 49.6033 109.127 49.3243 109.03 49.0623C108.933 48.8003 108.784 48.5607 108.592 48.3582C108.399 48.1556 108.168 47.9944 107.911 47.8841C107.654 47.7739 107.378 47.7171 107.099 47.7171C106.819 47.7171 106.543 47.7739 106.286 47.8841C106.029 47.9944 105.798 48.1556 105.605 48.3582C105.413 48.5607 105.264 48.8003 105.167 49.0623C105.07 49.3243 105.028 49.6033 105.042 49.8823C105.031 50.3153 105.15 50.7418 105.383 51.1068C105.617 51.4718 105.954 51.7587 106.351 51.9308C103.184 52.409 103.325 55.854 103.325 55.854L110.818 55.8866C110.818 55.8866 110.992 52.3927 107.851 51.9145Z" fill="white"/>
<path d="M103.738 51.9146C104.13 51.74 104.463 51.4548 104.696 51.0938C104.928 50.7328 105.051 50.3118 105.047 49.8823C105.068 49.5993 105.03 49.3151 104.936 49.0474C104.842 48.7797 104.693 48.5343 104.5 48.3265C104.307 48.1187 104.073 47.9529 103.813 47.8396C103.552 47.7263 103.272 47.6678 102.988 47.6678C102.704 47.6678 102.423 47.7263 102.163 47.8396C101.903 47.9529 101.669 48.1187 101.476 48.3265C101.283 48.5343 101.134 48.7797 101.04 49.0474C100.946 49.3151 100.908 49.5993 100.929 49.8823C100.918 50.3154 101.037 50.7418 101.27 51.1068C101.503 51.4718 101.841 51.7588 102.238 51.9309C99.0702 52.409 99.2115 55.8541 99.2115 55.8541L106.705 55.8867C106.705 55.8867 106.879 52.3927 103.738 51.9146Z" fill="#47D163"/>
<path d="M115.196 57.4087L95.053 57.3173L95.0416 59.8168L115.185 59.9082L115.196 57.4087Z" fill="#47D163"/>
<path opacity="0.3" d="M115.196 57.4087L95.053 57.3173L95.0416 59.8168L115.185 59.9082L115.196 57.4087Z" fill="white"/>
<path d="M77.9272 128.205C77.9176 128.107 77.9176 128.009 77.9272 127.912C77.9601 127.618 78.0545 127.335 78.2044 127.08C78.4534 126.658 78.8358 126.332 79.2911 126.151C79.9206 125.979 80.5759 125.922 81.2256 125.983H93.6853L135.64 126.07H135.96L135.721 126.292L130.233 132.183L130.271 132.085V136.024C130.271 136.318 130.271 136.568 130.271 136.894C130.249 137.352 130.09 137.793 129.815 138.16C129.54 138.527 129.161 138.803 128.728 138.953C128.443 139.05 128.143 139.094 127.842 139.083H121.99H109.324L87.9037 139.04H80.5735C80.2591 139.057 79.9438 139.039 79.6335 138.986C79.1959 138.891 78.7967 138.667 78.487 138.344C78.1772 138.02 77.9709 137.612 77.8946 137.171C77.8625 136.902 77.8516 136.631 77.862 136.361C77.862 135.323 77.862 134.378 77.862 133.525C77.862 131.824 77.862 130.504 77.8892 129.591C77.8892 129.151 77.8892 128.814 77.8892 128.569C77.8892 128.325 77.8892 128.221 77.8892 128.221C77.8892 128.221 77.8892 128.341 77.8892 128.569C77.8892 128.797 77.8892 129.151 77.8892 129.591C77.8892 130.504 77.8892 131.824 77.9164 133.525C77.9164 134.378 77.9164 135.323 77.9164 136.361C77.9072 136.623 77.9199 136.884 77.9544 137.144C78.0259 137.556 78.2194 137.938 78.51 138.239C78.8007 138.54 79.175 138.747 79.5846 138.834C79.8848 138.879 80.1888 138.893 80.492 138.877H83.5567H87.9037L109.345 138.844H127.858C128.126 138.854 128.393 138.816 128.646 138.73C129.156 138.552 129.574 138.178 129.809 137.692C129.925 137.451 129.992 137.189 130.005 136.921C130.005 136.649 130.005 136.35 130.005 136.068V132.074L130.043 132.036L135.542 126.156L135.64 126.39L93.6907 126.211L81.231 126.129C80.5938 126.059 79.949 126.107 79.3292 126.271C78.9774 126.41 78.668 126.638 78.4317 126.934C78.1953 127.229 78.0402 127.581 77.9816 127.955C77.9678 128.039 77.9497 128.123 77.9272 128.205Z" fill="#455A64"/>
<path d="M125.163 131.498L84.5348 131.313L84.5403 130.063L125.169 130.254L125.163 131.498Z" fill="#455A64"/>
<path d="M108.685 134.187L108.679 135.437L125.164 135.518L125.171 134.268L108.685 134.187Z" fill="#455A64"/>
<path d="M130.793 150.494V159.053C130.793 159.629 130.564 160.182 130.156 160.59C129.748 160.997 129.196 161.226 128.619 161.226H80.7691C80.1927 161.226 79.6398 160.997 79.2322 160.59C78.8246 160.182 78.5956 159.629 78.5956 159.053V154.374L73.1021 148.495L128.619 148.321C129.196 148.321 129.748 148.55 130.156 148.958C130.564 149.365 130.793 149.918 130.793 150.494Z" fill="#47D163"/>
<path d="M83.5621 153.787L124.191 153.603L124.185 152.353L83.5567 152.543L83.5621 153.787Z" fill="white"/>
<path d="M83.5621 157.808L124.191 157.618L124.185 156.374L83.5567 156.559L83.5621 157.808Z" fill="white"/>
<path d="M196.281 47.8989C199.801 47.8989 202.655 45.0453 202.655 41.5251C202.655 38.0049 199.801 35.1512 196.281 35.1512C192.761 35.1512 189.907 38.0049 189.907 41.5251C189.907 45.0453 192.761 47.8989 196.281 47.8989Z" fill="#47D163"/>
<path opacity="0.5" d="M196.281 47.8989C199.801 47.8989 202.655 45.0453 202.655 41.5251C202.655 38.0049 199.801 35.1512 196.281 35.1512C192.761 35.1512 189.907 38.0049 189.907 41.5251C189.907 45.0453 192.761 47.8989 196.281 47.8989Z" fill="white"/>
<path d="M194.167 39.6993C194.406 39.6993 194.623 39.9547 194.645 40.3025C194.667 40.6503 194.488 40.9491 194.243 40.96C193.999 40.9708 193.787 40.7046 193.765 40.3568C193.743 40.0091 193.923 39.7102 194.167 39.6993Z" fill="#263238"/>
<path d="M194.759 38.0963C194.759 38.1887 194.216 38.1615 193.673 38.368C193.129 38.5745 192.689 38.9114 192.624 38.8462C192.559 38.781 192.89 38.3028 193.564 38.0637C194.238 37.8247 194.787 38.0148 194.759 38.0963Z" fill="#263238"/>
<path d="M199.378 40.6937C199.307 40.7481 198.965 40.3786 198.416 40.3242C197.867 40.2699 197.454 40.547 197.4 40.4818C197.346 40.4166 197.444 40.3242 197.623 40.1992C197.871 40.0437 198.163 39.9749 198.454 40.0036C198.745 40.0352 199.015 40.1656 199.22 40.3731C199.373 40.5361 199.411 40.6665 199.378 40.6937Z" fill="#263238"/>
<path d="M199.927 39.6287C199.878 39.7048 199.383 39.4385 198.672 39.4168C197.96 39.395 197.444 39.6124 197.4 39.5254C197.564 39.3566 197.766 39.2296 197.989 39.1549C198.212 39.0802 198.45 39.0601 198.682 39.0962C199.476 39.1233 199.981 39.5689 199.927 39.6287Z" fill="#263238"/>
<path d="M199.476 41.4001C199.479 41.8406 199.338 42.27 199.074 42.6227C198.796 43.0875 198.406 43.475 197.939 43.7495C197.472 44.024 196.944 44.1766 196.403 44.1934C195.862 44.2102 195.325 44.0905 194.842 43.8455C194.359 43.6004 193.946 43.2379 193.64 42.7911C193.351 42.4582 193.184 42.0364 193.167 41.5957C193.354 41.9754 193.572 42.3389 193.819 42.6825C194.122 43.0701 194.512 43.3809 194.958 43.5896C195.403 43.7984 195.891 43.8991 196.383 43.8838C196.875 43.8684 197.356 43.7374 197.788 43.5013C198.219 43.2652 198.589 42.9307 198.867 42.5249C199.096 42.1646 199.3 41.7888 199.476 41.4001Z" fill="#263238"/>
<path d="M17.9273 154.271C17.8728 156.043 17.2941 157.759 16.2644 159.202C15.2348 160.646 13.8003 161.751 12.1424 162.379C10.4845 163.007 8.67761 163.13 6.95009 162.731C5.22256 162.333 3.65199 161.431 2.4369 160.14C1.22181 158.849 0.416757 157.227 0.123505 155.478C-0.169746 153.73 0.061971 151.934 0.789364 150.317C1.51676 148.7 2.70717 147.335 4.21012 146.395C5.71308 145.454 7.4611 144.981 9.23322 145.033C10.4108 145.069 11.5699 145.335 12.6443 145.819C13.7186 146.302 14.6872 146.992 15.4946 147.85C16.3021 148.708 16.9325 149.717 17.3499 150.819C17.7673 151.92 17.9635 153.093 17.9273 154.271Z" fill="#47D163"/>
<path opacity="0.5" d="M17.9273 154.271C17.8728 156.043 17.2941 157.759 16.2644 159.202C15.2348 160.646 13.8003 161.751 12.1424 162.379C10.4845 163.007 8.67761 163.13 6.95009 162.731C5.22256 162.333 3.65199 161.431 2.4369 160.14C1.22181 158.849 0.416757 157.227 0.123505 155.478C-0.169746 153.73 0.061971 151.934 0.789364 150.317C1.51676 148.7 2.70717 147.335 4.21012 146.395C5.71308 145.454 7.4611 144.981 9.23322 145.033C10.4108 145.069 11.5699 145.335 12.6443 145.819C13.7186 146.302 14.6872 146.992 15.4946 147.85C16.3021 148.708 16.9325 149.717 17.3499 150.819C17.7673 151.92 17.9635 153.093 17.9273 154.271Z" fill="white"/>
<path d="M7.20092 151.532C7.04239 151.326 6.80945 151.189 6.55167 151.151C6.2939 151.114 6.03164 151.178 5.82073 151.331C5.61665 151.469 5.44455 151.649 5.31611 151.859C5.18767 152.069 5.10588 152.304 5.0763 152.548C5.05349 152.299 4.97769 152.058 4.85398 151.841C4.73028 151.623 4.56153 151.435 4.35904 151.288C4.15544 151.125 3.89687 151.046 3.63689 151.068C3.37691 151.09 3.13546 151.212 2.96256 151.407C2.77276 151.682 2.69144 152.017 2.73434 152.347C2.75263 152.679 2.85959 153 3.04406 153.277C3.59588 153.967 4.27232 154.547 5.03827 154.988C5.79336 154.589 6.46335 154.046 7.01073 153.391C7.21045 153.126 7.33611 152.813 7.3748 152.483C7.43803 152.156 7.37598 151.816 7.20092 151.532Z" fill="#47D163"/>
<path d="M15.0909 151.755C14.9325 151.548 14.699 151.411 14.4409 151.375C14.1827 151.338 13.9205 151.405 13.7107 151.559C13.5052 151.695 13.3319 151.875 13.2033 152.085C13.0747 152.296 12.9938 152.532 12.9663 152.777C12.9435 152.527 12.8677 152.286 12.744 152.069C12.6203 151.851 12.4515 151.663 12.2491 151.516C12.046 151.351 11.7871 151.272 11.5267 151.294C11.2664 151.317 11.0247 151.439 10.8526 151.636C10.6618 151.909 10.5804 152.245 10.6243 152.576C10.6399 152.908 10.7471 153.229 10.9341 153.505C11.4859 154.195 12.1623 154.776 12.9283 155.216C13.681 154.814 14.3504 154.272 14.9007 153.619C15.1007 153.352 15.2263 153.037 15.2648 152.706C15.327 152.378 15.265 152.039 15.0909 151.755Z" fill="#47D163"/>
<path d="M11.874 156.205C11.7858 156.947 11.4199 157.628 10.8501 158.111C10.2803 158.594 9.54875 158.843 8.80256 158.809C8.05637 158.774 7.35088 158.459 6.82795 157.925C6.30502 157.392 6.00342 156.68 5.9838 155.934L11.874 156.205Z" fill="white"/>
<path d="M176.801 211.559L175.714 205.821L165.417 207.647L166.911 216.249L167.558 216.178C170.432 215.836 182.099 214.053 183.892 213.113C185.919 212.065 176.801 211.559 176.801 211.559Z" fill="#47D163"/>
<path d="M184.082 212.543C184.082 212.641 180.278 213.429 175.518 214.303C170.758 215.178 166.911 215.809 166.895 215.711C166.879 215.613 170.699 214.831 175.453 213.956C180.208 213.081 184.049 212.451 184.082 212.543Z" fill="#263238"/>
<path d="M177.197 212.69C177.105 212.657 177.121 212.342 177.29 212.005C177.458 211.668 177.692 211.462 177.773 211.511C177.855 211.559 177.773 211.842 177.605 212.157C177.436 212.472 177.29 212.728 177.197 212.69Z" fill="#263238"/>
<path d="M177.926 212.956C177.828 212.956 177.811 212.592 177.926 212.195C178.04 211.798 178.29 211.538 178.377 211.581C178.463 211.625 178.377 211.945 178.262 212.309C178.148 212.673 178.023 212.972 177.926 212.956Z" fill="#263238"/>
<path d="M169.954 215.102C169.916 215.14 169.737 215.015 169.465 214.803C169.128 214.523 168.764 214.277 168.378 214.07C168.028 213.878 167.636 213.777 167.237 213.776C166.917 213.776 166.721 213.88 166.694 213.831C166.667 213.782 166.835 213.619 167.205 213.526C167.682 213.431 168.178 213.506 168.606 213.738C169.02 213.96 169.388 214.257 169.693 214.613C169.889 214.863 170.003 215.07 169.954 215.102Z" fill="#263238"/>
<path d="M177.018 211.603C177.083 211.674 176.942 211.907 176.67 212.07C176.398 212.233 176.127 212.244 176.094 212.152C176.062 212.059 176.252 211.907 176.491 211.76C176.73 211.614 176.964 211.538 177.018 211.603Z" fill="#263238"/>
<path d="M176.768 211.087C176.768 211.184 176.534 211.315 176.187 211.385C175.839 211.456 175.551 211.429 175.54 211.331C175.529 211.233 175.79 211.103 176.116 211.038C176.442 210.973 176.741 210.994 176.768 211.087Z" fill="#263238"/>
<path d="M189.19 150.891C186 144.452 168.905 119.543 168.905 119.543L159.782 120.5V120.445L149.572 121.565L143.942 122.184L164.325 211.206L178.42 210.951L175.029 194.481C177.36 188.64 190.956 154.456 189.19 150.891ZM174.649 154.733L169.612 168.257L163.906 140.545L174.649 154.733Z" fill="#263238"/>
<path d="M163.341 78.4259C163.211 77.4967 163.711 73.6333 163.711 73.6333C163.711 73.6333 167.259 73.3725 167.59 69.8731C167.922 66.3738 167.96 58.272 167.96 58.272L161.619 54.9139L154.354 60.0543L152.474 64.9447L154.951 71.0197L154.875 73.0302V77.6326L163.341 78.4259Z" fill="#FFBE9D"/>
<path d="M167.487 64.1404C167.485 64.2298 167.456 64.3165 167.405 64.3896C167.353 64.4626 167.281 64.5186 167.197 64.5506C167.114 64.5825 167.023 64.5889 166.936 64.5689C166.848 64.5489 166.769 64.5035 166.708 64.4384C166.647 64.3733 166.606 64.2914 166.591 64.2032C166.577 64.115 166.589 64.0244 166.626 63.943C166.662 63.8616 166.723 63.793 166.799 63.7459C166.875 63.6988 166.963 63.6754 167.052 63.6786C167.111 63.68 167.17 63.6931 167.223 63.7171C167.277 63.7412 167.326 63.7757 167.366 63.8186C167.407 63.8616 167.438 63.9122 167.459 63.9674C167.48 64.0227 167.489 64.0815 167.487 64.1404Z" fill="#263238"/>
<path d="M167.52 63.6678C167.46 63.7275 167.134 63.4341 166.656 63.3906C166.178 63.3472 165.803 63.57 165.754 63.5047C165.705 63.4395 165.792 63.3689 165.955 63.2657C166.173 63.1339 166.429 63.0767 166.683 63.1026C166.935 63.1239 167.174 63.2269 167.362 63.3961C167.503 63.5319 167.547 63.646 167.52 63.6678Z" fill="#263238"/>
<path d="M161.803 63.5917C161.875 63.6444 161.93 63.7172 161.961 63.801C161.991 63.8848 161.996 63.9758 161.975 64.0624C161.954 64.1491 161.908 64.2276 161.842 64.2879C161.777 64.3483 161.694 64.3878 161.606 64.4014C161.518 64.4151 161.428 64.4024 161.347 64.3648C161.266 64.3272 161.198 64.2664 161.152 64.1902C161.105 64.114 161.083 64.0258 161.087 63.9367C161.09 63.8476 161.12 63.7616 161.173 63.6896C161.208 63.6417 161.252 63.6013 161.303 63.5705C161.353 63.5397 161.409 63.5192 161.468 63.5101C161.527 63.501 161.586 63.5035 161.644 63.5176C161.701 63.5316 161.756 63.5568 161.803 63.5917Z" fill="#263238"/>
<path d="M162.157 63.4993C162.097 63.5536 161.776 63.2602 161.293 63.2221C160.809 63.1841 160.439 63.4015 160.391 63.3308C160.342 63.2602 160.429 63.2004 160.592 63.0972C160.81 62.965 161.065 62.906 161.32 62.9287C161.574 62.9515 161.815 63.0564 162.004 63.2276C162.146 63.358 162.189 63.4721 162.157 63.4993Z" fill="#263238"/>
<path d="M163.77 67.6398C164.031 67.5818 164.297 67.5563 164.564 67.5638C164.689 67.5638 164.808 67.5638 164.841 67.4605C164.857 67.3253 164.837 67.1882 164.781 67.0639C164.689 66.7433 164.591 66.4064 164.482 66.0532C164.2 65.1921 163.982 64.3112 163.83 63.4178C163.951 63.6549 164.046 63.9045 164.113 64.1622C164.265 64.6295 164.466 65.2761 164.656 65.9988C164.754 66.352 164.852 66.6944 164.939 67.015C165.007 67.1766 165.019 67.3567 164.971 67.5257C164.952 67.568 164.922 67.6049 164.885 67.6333C164.848 67.6617 164.805 67.6807 164.759 67.6888C164.689 67.6989 164.618 67.6989 164.547 67.6888C164.287 67.7032 164.027 67.6868 163.77 67.6398Z" fill="#263238"/>
<path d="M162.162 68.0419C161.678 67.705 163.482 68.895 164.471 68.9222C164.287 69.1655 164.024 69.3385 163.728 69.4126C163.432 69.4867 163.119 69.4575 162.841 69.3297C161.836 68.857 162.162 68.0419 162.162 68.0419Z" fill="white"/>
<path d="M163.711 73.6333C162.046 73.5107 160.451 72.9149 159.114 71.9163C159.114 71.9163 160.081 74.5245 163.607 74.4919L163.711 73.6333Z" fill="#EB996E"/>
<path d="M155.364 65.9228C155.364 65.9228 155.315 65.9608 155.228 66.0097C155.106 66.0671 154.966 66.0768 154.837 66.0369C154.637 65.9268 154.469 65.7649 154.353 65.5679C154.236 65.371 154.174 65.1464 154.174 64.9175C154.15 64.6616 154.183 64.4035 154.272 64.1622C154.295 64.0675 154.34 63.9797 154.405 63.9067C154.469 63.8338 154.55 63.7778 154.642 63.7438C154.7 63.7232 154.763 63.7239 154.821 63.7458C154.879 63.7677 154.927 63.8094 154.957 63.8633C155 63.9449 154.984 64.0101 155 64.0101C155.017 64.0101 155.065 63.9557 155.033 63.8362C155.012 63.763 154.966 63.6996 154.902 63.6569C154.86 63.6276 154.812 63.6072 154.762 63.5969C154.711 63.5866 154.659 63.5867 154.609 63.5971C154.488 63.6286 154.377 63.6907 154.287 63.7772C154.196 63.8637 154.13 63.972 154.093 64.0916C153.982 64.3595 153.937 64.6503 153.962 64.9392C153.966 65.2063 154.047 65.4666 154.197 65.6879C154.346 65.9091 154.558 66.0814 154.805 66.1836C154.886 66.2024 154.97 66.2024 155.051 66.1836C155.132 66.1648 155.208 66.1276 155.272 66.0749C155.364 65.9771 155.375 65.9282 155.364 65.9228Z" fill="#EB996E"/>
<path d="M168.867 58.8534C168.676 58.9176 168.477 58.956 168.275 58.9675C168.936 58.6208 169.479 58.0855 169.835 57.4298C170.095 56.9767 170.232 56.4634 170.232 55.9409C170.232 55.4184 170.095 54.9051 169.835 54.452C169.554 54.0138 169.122 53.6941 168.621 53.5538C168.12 53.4135 167.585 53.4625 167.118 53.6913C167.298 53.3175 167.336 52.891 167.225 52.4911C167.114 52.0913 166.861 51.7454 166.515 51.5178C166.154 51.304 165.75 51.174 165.332 51.1373C164.915 51.1006 164.494 51.1582 164.102 51.3059C163.319 51.6074 162.587 52.0251 161.928 52.5448C161.879 52.2637 161.763 51.9985 161.59 51.7716C161.417 51.5446 161.192 51.3626 160.934 51.2407C160.415 50.9997 159.834 50.9257 159.271 51.0288C158.454 51.1688 157.699 51.5566 157.109 52.1398C156.519 52.7229 156.122 53.4731 155.973 54.289C155.716 54.026 155.396 53.8334 155.044 53.7298C154.691 53.6262 154.318 53.6151 153.96 53.6975C153.602 53.7799 153.271 53.9531 152.999 54.2004C152.728 54.4477 152.524 54.7608 152.408 55.1095C152.411 55.1348 152.411 55.1603 152.408 55.1856C152.083 55.3269 151.809 55.5662 151.626 55.8703C151.471 56.1298 151.376 56.4202 151.347 56.7208C151.318 57.0214 151.356 57.3248 151.457 57.6091C151.666 58.1677 152.046 58.6454 152.544 58.973C152.735 59.1071 152.904 59.2703 153.044 59.4566C153.152 59.6191 153.217 59.8058 153.234 59.9999C153.185 61.1736 152.588 62.2821 152.294 63.4341C151.892 65.0316 152.778 67.2106 153.289 68.7755C153.799 70.3405 153.979 70.949 154.973 71.074L155.125 66.8683C154.039 67.7594 152.588 64.6947 153.539 63.4721C154.49 62.2495 155.5 62.6679 155.674 63.4395C155.741 63.7361 155.827 64.0282 155.929 64.3144H157.016L156.897 63.3961C156.897 63.3961 156.674 59.3153 158.625 59.049C159.134 58.941 159.665 59.0387 160.103 59.3207C160.731 59.5738 161.412 59.6689 162.086 59.5978C162.781 59.5978 163.716 58.8045 163.716 58.1144C164.114 58.5787 164.618 58.9402 165.186 59.1682C165.754 59.3962 166.368 59.4839 166.976 59.424C167.291 59.391 167.6 59.3161 167.895 59.2012C168.262 59.303 168.652 59.2935 169.014 59.174C169.387 59.0529 169.713 58.8195 169.949 58.5057C170.123 58.2611 170.155 58.0764 170.123 58.0601C169.765 58.41 169.337 58.6803 168.867 58.8534ZM152.675 58.723C152.232 58.4152 151.894 57.979 151.707 57.4732C151.619 57.228 151.585 56.9667 151.606 56.7071C151.628 56.4474 151.705 56.1954 151.832 55.9681C151.947 55.75 152.113 55.5634 152.316 55.4247C152.131 56.6582 152.935 57.9079 153.147 59.1957C153.017 59.0206 152.865 58.8619 152.696 58.723H152.675Z" fill="#47D163"/>
<path d="M187.549 63.9557V70.9599C187.549 71.7222 187.852 72.4534 188.391 72.9925C188.93 73.5315 189.661 73.8344 190.423 73.8344H202.557V77.8391L204.73 74.0082C205.374 73.9615 205.977 73.6727 206.416 73.1999C206.856 72.7271 207.1 72.1054 207.099 71.4598V63.9557C207.099 63.5755 207.023 63.1991 206.876 62.8485C206.728 62.4979 206.513 62.18 206.242 61.9131C205.971 61.6463 205.65 61.4358 205.297 61.294C204.945 61.1521 204.567 61.0816 204.187 61.0867H190.423C189.662 61.0867 188.931 61.3888 188.392 61.9267C187.854 62.4646 187.55 63.1943 187.549 63.9557Z" fill="#47D163"/>
<path d="M194.151 67.83C194.151 68.0643 194.081 68.2933 193.951 68.4881C193.821 68.6829 193.636 68.8348 193.42 68.9244C193.203 69.0141 192.965 69.0375 192.735 68.9918C192.505 68.9461 192.294 68.8333 192.129 68.6676C191.963 68.502 191.85 68.2909 191.804 68.0611C191.759 67.8313 191.782 67.5932 191.872 67.3767C191.961 67.1602 192.113 66.9752 192.308 66.8451C192.503 66.7149 192.732 66.6454 192.966 66.6454C193.28 66.6454 193.582 66.7702 193.804 66.9924C194.026 67.2145 194.151 67.5159 194.151 67.83Z" fill="white"/>
<path d="M198.65 67.83C198.65 68.0643 198.58 68.2933 198.45 68.4881C198.32 68.6829 198.135 68.8348 197.919 68.9244C197.702 69.0141 197.464 69.0375 197.234 68.9918C197.004 68.9461 196.793 68.8333 196.628 68.6676C196.462 68.502 196.349 68.2909 196.304 68.0611C196.258 67.8313 196.281 67.5932 196.371 67.3767C196.461 67.1602 196.612 66.9752 196.807 66.8451C197.002 66.7149 197.231 66.6454 197.465 66.6454C197.78 66.6454 198.081 66.7702 198.303 66.9924C198.525 67.2145 198.65 67.5159 198.65 67.83Z" fill="white"/>
<path d="M203.149 67.83C203.149 68.0643 203.08 68.2933 202.949 68.4881C202.819 68.6829 202.634 68.8348 202.418 68.9244C202.201 69.0141 201.963 69.0375 201.733 68.9918C201.504 68.9461 201.293 68.8333 201.127 68.6676C200.961 68.502 200.848 68.2909 200.803 68.0611C200.757 67.8313 200.78 67.5932 200.87 67.3767C200.96 67.1602 201.112 66.9752 201.306 66.8451C201.501 66.7149 201.73 66.6454 201.965 66.6454C202.279 66.6454 202.58 66.7702 202.802 66.9924C203.024 67.2145 203.149 67.5159 203.149 67.83Z" fill="white"/>
<path d="M197.123 84.7726C196.878 84.2292 181.446 97.8517 178.371 98.319L169.373 86.5929C169.373 86.5929 167.503 83.6315 163.488 78.5563C160.901 75.296 153.756 75.959 151.876 79.9528C148.686 86.7288 148.577 95.7108 146.111 110.143L144.024 122.385C144.024 122.385 147.105 122.021 147.094 122.048L169.003 119.772L169.546 105.1C173.894 109.491 175.219 110.409 177.474 110.061C183.142 109.181 202.97 91.3475 202.97 91.3475C202.97 91.3475 197.362 85.3268 197.123 84.7726Z" fill="#455A64"/>
<path d="M200.296 93.8416C199.9 93.6008 199.536 93.3124 199.21 92.983C197.514 91.4778 196.037 89.7441 194.819 87.8318C194.544 87.449 194.32 87.0327 194.151 86.5929C194.445 86.9455 194.712 87.3197 194.95 87.7123C195.449 88.4132 196.161 89.3696 197.014 90.3694C197.867 91.3692 198.693 92.2223 199.307 92.8309C199.664 93.1399 199.995 93.4779 200.296 93.8416Z" fill="#263238"/>
<path d="M177.496 102.965C177.589 101.389 177.867 99.8302 178.322 98.3191C178.236 99.8955 177.959 101.456 177.496 102.965Z" fill="#263238"/>
<path d="M179.463 102.481C179.145 101.843 178.913 101.165 178.773 100.465C178.54 99.792 178.399 99.09 178.355 98.3788C178.67 99.0184 178.902 99.6959 179.045 100.395C179.275 101.069 179.415 101.77 179.463 102.481Z" fill="#263238"/>
<path opacity="0.2" d="M157.913 89.7065L169.318 111.268L169.574 104.872L157.913 89.7065Z" fill="black"/>
<path d="M157.174 88.6577C157.373 88.8594 157.555 89.0775 157.717 89.3098L159.076 91.1301C160.222 92.6733 161.825 94.787 163.624 97.1073L168.242 103.025L169.628 104.829C169.807 105.043 169.967 105.272 170.106 105.513C169.909 105.324 169.727 105.118 169.563 104.899C169.188 104.443 168.699 103.856 168.107 103.15C166.889 101.661 165.221 99.5959 163.423 97.2811C161.624 94.9664 160.043 92.8254 158.934 91.2551C158.391 90.4672 157.94 89.826 157.646 89.375C157.467 89.1507 157.309 88.9106 157.174 88.6577Z" fill="#263238"/>
<path d="M157.532 95.3956C157.439 95.1852 157.372 94.9645 157.331 94.7381C157.223 94.3089 157.081 93.6948 156.913 92.9395L157.081 93.0211L154.837 94.2328L154.685 94.3143L154.636 94.1459C154.555 93.8524 154.468 93.5427 154.375 93.2275L153.984 91.8202L154.185 91.9017L151.974 93.146L151.838 93.2221V93.07C151.709 92.3995 151.633 91.72 151.61 91.0377C151.806 91.692 151.952 92.3605 152.044 93.0374L151.887 92.9613L154.06 91.6626L154.212 91.5702L154.261 91.7441C154.386 92.1951 154.522 92.6679 154.658 93.1515C154.75 93.4666 154.837 93.7764 154.919 94.0698L154.718 93.9883L156.984 92.8091L157.119 92.7331L157.147 92.8852C157.288 93.6405 157.402 94.2654 157.467 94.7001C157.518 94.9283 157.54 95.162 157.532 95.3956Z" fill="#263238"/>
<path d="M160.211 83.2077C159.995 83.1247 159.79 83.0132 159.603 82.8762C159.228 82.6425 158.701 82.3002 158.059 81.8764L158.233 81.8166C158.005 82.5393 157.75 83.3652 157.473 84.2509L157.418 84.4194L157.266 84.3324L156.44 83.8488L155.18 83.1098L155.381 83.0283L154.658 85.4627L154.614 85.6094L154.495 85.517C153.937 85.1231 153.41 84.6871 152.919 84.2129C153.513 84.5492 154.082 84.9288 154.62 85.3486L154.457 85.4029C154.647 84.6856 154.87 83.8597 155.114 82.9577L155.163 82.7838L155.315 82.8762L156.581 83.6043L157.407 84.0879L157.206 84.164L158 81.7351L158.054 81.5884L158.179 81.6753C158.804 82.1209 159.315 82.4904 159.668 82.7621C159.867 82.8876 160.049 83.0373 160.211 83.2077Z" fill="#263238"/>
<path d="M168.215 87.3972C168.024 87.2659 167.851 87.1107 167.699 86.9353C167.384 86.6256 166.938 86.1746 166.406 85.6203H166.591C166.21 86.2778 165.775 87.0222 165.314 87.8319L165.227 87.9786L165.096 87.8591L164.395 87.2124L163.309 86.218L163.526 86.18C163.069 87.0005 162.651 87.7449 162.287 88.3916L162.211 88.5274L162.113 88.4133C161.656 87.902 161.238 87.3571 160.863 86.7832C161.37 87.2404 161.842 87.7344 162.276 88.2612H162.102L163.281 86.017L163.368 85.8594L163.499 85.979L164.585 86.9733L165.281 87.6254H165.069L166.384 85.4519L166.466 85.3215L166.569 85.4356C167.112 85.979 167.503 86.4789 167.786 86.8158C167.955 86.9887 168.1 87.1844 168.215 87.3972Z" fill="#E0E0E0"/>
<path d="M189.32 101.118C189.32 101.118 189.135 100.944 188.864 100.601C188.592 100.259 188.206 99.7536 187.75 99.1342H187.934L186.391 101.166L186.283 101.302L186.174 101.172L185.554 100.438L184.625 99.3189H184.843L183.337 101.357L183.245 101.482L183.164 101.357C182.775 100.796 182.428 100.207 182.126 99.596C182.571 100.107 182.976 100.652 183.337 101.226H183.164C183.593 100.623 184.082 99.9221 184.62 99.1505L184.723 99.0092L184.837 99.145L185.777 100.264L186.391 100.998H186.174L187.755 98.9983L187.853 98.8734L187.94 98.9983C188.38 99.6341 188.733 100.156 188.978 100.525C189.113 100.71 189.228 100.908 189.32 101.118Z" fill="#263238"/>
<path d="M176.252 100.02C176.057 99.9082 175.874 99.7752 175.708 99.6232C175.361 99.3516 174.866 98.9549 174.274 98.4713L174.453 98.4278L173.421 100.753L173.356 100.911L173.214 100.808L172.437 100.264L171.258 99.395L171.47 99.3353C171.111 100.205 170.785 100.965 170.497 101.677L170.438 101.824L170.329 101.715C169.815 101.268 169.337 100.781 168.9 100.259C169.456 100.653 169.981 101.089 170.47 101.563L170.302 101.601C170.568 100.906 170.878 100.107 171.215 99.2375L171.28 99.069L171.421 99.1722L172.606 100.031L173.377 100.574L173.165 100.634L174.22 98.3083L174.285 98.167L174.399 98.2648C174.975 98.7756 175.448 99.194 175.774 99.4928C176.1 99.7917 176.268 99.9982 176.252 100.02Z" fill="#E0E0E0"/>
<path d="M194.95 96.9497C194.876 96.7316 194.828 96.5054 194.808 96.2759C194.743 95.8358 194.656 95.1892 194.558 94.4502L194.721 94.5426L192.374 95.5532L192.216 95.6184L192.184 95.45C192.129 95.1457 192.07 94.8305 192.01 94.5099C191.917 94.01 191.831 93.5319 191.749 93.07L191.939 93.1678L189.63 94.2328L189.489 94.2926V94.1405C189.422 93.4615 189.409 92.7783 189.451 92.0974C189.585 92.7673 189.667 93.4468 189.695 94.1296L189.548 94.0372L191.836 92.9505L191.994 92.8689L192.026 93.0483C192.113 93.5101 192.205 93.9883 192.298 94.4828C192.358 94.8088 192.412 95.124 192.466 95.4228L192.276 95.3196L194.64 94.3578L194.787 94.298V94.4502C194.857 95.2163 194.911 95.8467 194.939 96.2868C194.967 96.5067 194.971 96.7291 194.95 96.9497Z" fill="#E0E0E0"/>
<path d="M168.9 91.1573C168.722 91.2982 168.529 91.4185 168.324 91.5159C167.943 91.7333 167.389 92.0593 166.694 92.4016L166.726 92.2169L168.503 94.0481L168.623 94.173L168.476 94.2654L167.661 94.7599L166.411 95.5206V95.3033L168.204 97.0964L168.313 97.2105L168.172 97.2703C167.56 97.5726 166.926 97.827 166.275 98.031C166.854 97.6682 167.459 97.3486 168.085 97.0747L168.058 97.2486L166.221 95.4989L166.091 95.3793L166.243 95.287L167.492 94.5208L168.308 94.0263V94.2382C167.672 93.5645 167.08 92.9287 166.563 92.3745L166.455 92.2603L166.596 92.1951C167.286 91.8582 167.857 91.5811 168.253 91.4018C168.457 91.2919 168.674 91.2096 168.9 91.1573Z" fill="#263238"/>
<path d="M178.871 102.965C178.693 103.113 178.498 103.239 178.29 103.34C177.909 103.557 177.355 103.883 176.659 104.22L176.687 104.041L178.469 105.872L178.588 105.992L178.442 106.084L177.627 106.584L176.371 107.339L176.399 107.127L178.192 108.92L178.3 109.029L178.159 109.089C177.546 109.39 176.913 109.646 176.263 109.855C176.852 109.493 177.468 109.175 178.105 108.904L178.072 109.078L176.241 107.328L176.111 107.203L176.263 107.111L177.507 106.35L178.328 105.85L178.3 106.068L176.556 104.204L176.447 104.09L176.583 104.025C177.273 103.682 177.844 103.411 178.246 103.226C178.442 103.112 178.652 103.025 178.871 102.965Z" fill="#E0E0E0"/>
<path d="M159.087 102.807C158.995 102.594 158.928 102.372 158.885 102.145C158.777 101.715 158.635 101.101 158.467 100.351L158.636 100.427L156.37 101.65L156.217 101.737L156.174 101.569C156.087 101.27 156 100.96 155.913 100.645C155.777 100.161 155.641 99.6884 155.516 99.2374L155.718 99.3189L153.511 100.563L153.376 100.639V100.487C153.251 99.818 153.175 99.1406 153.147 98.4604C153.345 99.1124 153.491 99.7793 153.582 100.455L153.424 100.379L155.598 99.0798L155.75 98.9929L155.799 99.1614C155.924 99.6124 156.06 100.085 156.201 100.569L156.457 101.492L156.256 101.406L158.521 100.226L158.657 100.156L158.69 100.302C158.831 101.058 158.94 101.683 159.01 102.117C159.063 102.344 159.089 102.575 159.087 102.807Z" fill="#E0E0E0"/>
<path d="M168.139 107.937C168.047 107.724 167.979 107.502 167.938 107.274C167.829 106.845 167.688 106.231 167.52 105.481L167.688 105.557L165.449 106.779L165.297 106.866L165.248 106.698C165.161 106.399 165.075 106.089 164.988 105.78C164.852 105.291 164.721 104.818 164.591 104.367L164.792 104.448L162.586 105.693L162.45 105.769V105.622C162.325 104.951 162.249 104.272 162.222 103.59C162.419 104.242 162.564 104.909 162.656 105.584L162.499 105.513L164.672 104.215L164.825 104.122L164.873 104.296C165.004 104.747 165.134 105.215 165.276 105.698L165.531 106.622L165.335 106.535L167.596 105.356L167.737 105.285L167.764 105.432C167.906 106.187 168.014 106.812 168.085 107.247C168.134 107.473 168.152 107.705 168.139 107.937Z" fill="#263238"/>
<path d="M154.854 119.228C154.761 119.018 154.693 118.797 154.652 118.571C154.544 118.142 154.403 117.528 154.234 116.778L154.403 116.854L152.164 118.076L152.012 118.158L151.963 117.989C151.876 117.696 151.789 117.386 151.702 117.071L151.311 115.664L151.506 115.745L149.306 117.011L149.17 117.087V116.935C149.045 116.264 148.968 115.585 148.942 114.903C149.138 115.557 149.284 116.226 149.376 116.903L149.219 116.827L151.392 115.528L151.544 115.436L151.593 115.609C151.724 116.06 151.854 116.533 151.995 117.017L152.251 117.935L152.055 117.854L154.316 116.674L154.457 116.598L154.484 116.751C154.625 117.506 154.734 118.131 154.805 118.565C154.853 118.783 154.869 119.006 154.854 119.228Z" fill="#E0E0E0"/>
<path d="M155.114 107.377C154.908 107.272 154.717 107.14 154.544 106.986C154.191 106.725 153.691 106.334 153.093 105.85L153.272 105.807L152.289 108.165L152.224 108.323L152.082 108.219C151.827 108.046 151.566 107.855 151.3 107.676L150.115 106.823L150.322 106.763L149.376 109.116L149.317 109.257L149.208 109.154C148.691 108.709 148.206 108.228 147.757 107.714C148.321 108.099 148.853 108.528 149.349 108.996L149.181 109.04C149.436 108.344 149.724 107.54 150.066 106.665L150.126 106.497L150.273 106.6L151.479 107.437L152.256 107.98L152.05 108.035L153.077 105.698L153.142 105.557L153.256 105.655C153.837 106.16 154.316 106.573 154.642 106.872C154.819 107.021 154.977 107.191 155.114 107.377Z" fill="#263238"/>
<path d="M159.853 107.698C159.689 107.858 159.507 107.996 159.309 108.111C158.945 108.355 158.413 108.698 157.761 109.105V108.92L159.668 110.621L159.793 110.741L159.652 110.839L158.875 111.382L157.679 112.224V112.012L159.63 113.686L159.744 113.789L159.614 113.86C159.023 114.203 158.407 114.501 157.771 114.751C158.324 114.347 158.905 113.984 159.51 113.664V113.838L157.554 112.208L157.418 112.094L157.565 111.991L158.755 111.143L159.532 110.599V110.817L157.663 109.083L157.549 108.975L157.679 108.899C158.342 108.513 158.891 108.198 159.282 107.986C159.46 107.866 159.651 107.77 159.853 107.698Z" fill="#263238"/>
<path d="M165.064 111.404C164.962 111.611 164.834 111.805 164.683 111.98C164.422 112.338 164.037 112.838 163.564 113.447L163.52 113.267L165.89 114.218L166.047 114.278L165.949 114.425L165.406 115.213L164.569 116.414L164.504 116.202L166.868 117.115L167.014 117.174L166.911 117.283C166.476 117.809 166 118.299 165.488 118.75C165.871 118.186 166.294 117.65 166.754 117.147L166.797 117.316L164.412 116.462L164.243 116.403L164.346 116.256C164.607 115.87 164.89 115.468 165.172 115.05C165.363 114.783 165.542 114.506 165.716 114.267L165.776 114.474L163.434 113.479L163.292 113.42L163.39 113.3C163.885 112.708 164.292 112.213 164.586 111.898C164.879 111.583 165.064 111.387 165.064 111.404Z" fill="#E0E0E0"/>
<path d="M162.108 120.261C162.108 120.261 162.108 120.32 162.167 120.44C162.227 120.56 162.26 120.75 162.325 120.983C162.455 121.456 162.651 122.157 162.868 123.065C163.086 123.972 163.363 125.08 163.553 126.401C163.683 127.121 163.586 127.863 163.276 128.525C162.932 129.26 162.461 129.928 161.885 130.498V130.406C163.309 137.165 165.303 146.636 167.514 157.113C169.661 167.437 171.579 176.756 172.948 183.521C173.627 186.901 174.165 189.639 174.518 191.536C174.698 192.481 174.828 193.22 174.91 193.709C174.969 193.962 174.998 194.221 174.997 194.481C174.997 194.481 174.953 194.22 174.855 193.72C174.758 193.22 174.6 192.476 174.41 191.547C174.013 189.639 173.448 186.912 172.752 183.548C171.34 176.783 169.4 167.459 167.253 157.162C165.08 146.674 163.113 137.198 161.711 130.438V130.384L161.749 130.346C162.901 129.188 163.678 127.727 163.379 126.412C163.205 125.102 162.939 123.983 162.738 123.075C162.537 122.168 162.363 121.483 162.244 120.989L162.113 120.445C162.104 120.384 162.102 120.322 162.108 120.261Z" fill="#455A64"/>
<path d="M150.664 121.565C150.664 121.565 150.751 121.684 150.833 121.934C150.949 122.286 151.018 122.651 151.039 123.021C151.129 124.262 150.754 125.493 149.988 126.474C149.222 127.455 148.119 128.116 146.893 128.33C146.535 128.397 146.17 128.418 145.806 128.395C145.671 128.397 145.536 128.373 145.41 128.324C145.41 128.27 145.986 128.324 146.871 128.134C148.026 127.88 149.056 127.231 149.784 126.298C150.511 125.366 150.889 124.209 150.854 123.026C150.82 122.536 150.756 122.048 150.664 121.565Z" fill="#455A64"/>
<path d="M159.766 122.146C159.766 122.146 159.766 122.065 159.896 121.994C159.977 121.947 160.067 121.917 160.161 121.904C160.254 121.892 160.349 121.899 160.439 121.923C160.58 121.958 160.707 122.034 160.804 122.142C160.901 122.249 160.963 122.383 160.983 122.527C161.009 122.706 160.975 122.89 160.885 123.048C160.795 123.206 160.655 123.329 160.487 123.399C160.319 123.468 160.133 123.479 159.958 123.43C159.783 123.382 159.629 123.276 159.521 123.13C159.432 123.017 159.377 122.881 159.36 122.738C159.344 122.595 159.368 122.45 159.429 122.32C159.652 121.88 160.01 121.869 159.999 121.902C159.988 121.934 159.738 122.032 159.619 122.391C159.584 122.487 159.575 122.592 159.593 122.693C159.611 122.794 159.656 122.888 159.722 122.967C159.803 123.058 159.909 123.124 160.027 123.156C160.145 123.188 160.269 123.184 160.385 123.146C160.494 123.094 160.584 123.01 160.645 122.905C160.705 122.8 160.732 122.68 160.722 122.559C160.715 122.458 160.677 122.362 160.614 122.282C160.551 122.203 160.466 122.144 160.369 122.114C160.169 122.06 159.958 122.071 159.766 122.146Z" fill="#455A64"/>
<path d="M171.253 123.353C170.943 123.571 170.577 123.697 170.199 123.717C169.285 123.854 168.353 123.654 167.576 123.154C166.799 122.654 166.23 121.888 165.977 121C165.846 120.653 165.81 120.278 165.873 119.913C165.922 119.913 165.933 120.337 166.161 120.962C166.449 121.778 166.999 122.475 167.726 122.945C168.453 123.415 169.315 123.631 170.177 123.559C170.84 123.472 171.236 123.309 171.253 123.353Z" fill="#455A64"/>
<path d="M177.219 206.43C177.042 206.479 176.859 206.501 176.676 206.495L175.198 206.577L170.307 206.81L165.417 207.066L163.933 207.125C163.753 207.151 163.57 207.151 163.39 207.125C163.565 207.066 163.748 207.033 163.933 207.028C164.276 206.984 164.781 206.93 165.406 206.875C166.65 206.761 168.378 206.636 170.296 206.539C172.215 206.441 173.937 206.397 175.187 206.392C175.812 206.392 176.317 206.392 176.67 206.392C176.854 206.379 177.039 206.392 177.219 206.43Z" fill="#455A64"/>
<path d="M152.414 127.765C152.49 127.765 156.761 145.387 161.972 167.16C167.183 188.933 171.329 206.609 171.253 206.626C171.177 206.642 166.906 189.009 161.695 167.225C156.484 145.441 152.338 127.781 152.414 127.765Z" fill="#455A64"/>
<path d="M166.319 128.466C166.356 128.502 166.389 128.542 166.417 128.585L166.683 128.938L167.694 130.324L171.356 135.437L176.763 143.045L179.941 147.549C181.028 149.114 182.115 150.869 182.403 152.934C182.691 154.999 182.088 156.993 181.463 158.781C180.838 160.569 180.153 162.307 179.523 163.943C178.251 167.203 177.045 170.148 175.996 172.588C174.948 175.028 174.062 176.99 173.443 178.337L172.709 179.886L172.513 180.282C172.464 180.369 172.443 180.418 172.437 180.413C172.447 180.364 172.463 180.316 172.486 180.272C172.53 180.163 172.589 180.027 172.66 179.859L173.339 178.294C173.932 176.93 174.79 174.957 175.812 172.512C176.833 170.067 178.023 167.133 179.278 163.851C179.903 162.221 180.55 160.487 181.197 158.689C181.843 156.89 182.408 154.961 182.126 152.972C181.843 150.983 180.773 149.266 179.713 147.707L176.551 143.197L171.193 135.53L167.601 130.362L166.639 128.949C166.536 128.797 166.455 128.678 166.395 128.58C166.335 128.482 166.313 128.466 166.319 128.466Z" fill="#455A64"/>
<path d="M193.933 85.3268L206.067 76.4697L206.665 77.4206L194.607 86.3864L193.933 85.3268Z" fill="#263238"/>
<path d="M196.933 85.0552C196.933 85.0552 198.563 80.8168 198.927 79.9148C199.291 79.0128 199.911 77.4424 200.144 77.4098C200.378 77.3772 201.231 77.5076 200.117 80.2028C199.003 82.898 201.427 81.2515 201.427 81.2515L203.763 79.5779C203.763 79.5779 205.611 85.0987 204.562 86.7614C203.736 88.0058 202.81 89.1799 201.791 90.2716L196.933 85.0552Z" fill="#FFBE9D"/>
<path d="M42.939 155.309C43.0966 154.39 42.7489 151.032 42.7489 151.032C42.7489 151.032 39.2278 150.657 39.0158 147.169C38.8039 143.68 39.0158 135.628 39.0158 135.628L45.4277 132.492L52.4917 137.834L51.4049 155.292L42.939 155.309Z" fill="#B78876"/>
<path d="M39.9885 141.464C39.9885 141.582 40.0355 141.695 40.119 141.779C40.2026 141.862 40.3159 141.909 40.4341 141.909C40.5523 141.909 40.6656 141.862 40.7492 141.779C40.8327 141.695 40.8797 141.582 40.8797 141.464C40.8797 141.405 40.8681 141.347 40.8457 141.293C40.8234 141.239 40.7905 141.19 40.7492 141.148C40.7078 141.107 40.6587 141.074 40.6046 141.052C40.5505 141.029 40.4926 141.018 40.4341 141.018C40.3756 141.018 40.3176 141.029 40.2636 141.052C40.2095 141.074 40.1604 141.107 40.119 141.148C40.0776 141.19 40.0448 141.239 40.0224 141.293C40 141.347 39.9885 141.405 39.9885 141.464Z" fill="#263238"/>
<path d="M39.3364 141.143C39.3908 141.197 39.7222 140.92 40.2004 140.893C40.6786 140.866 41.0427 141.099 41.097 141.034C41.1513 140.969 41.059 140.898 40.9014 140.79C40.6892 140.65 40.4375 140.584 40.1841 140.6C39.9306 140.617 39.6891 140.714 39.494 140.877C39.3527 141.002 39.3038 141.116 39.3364 141.143Z" fill="#263238"/>
<path d="M45.6343 141.828C45.8803 141.828 46.0798 141.628 46.0798 141.382C46.0798 141.136 45.8803 140.936 45.6343 140.936C45.3882 140.936 45.1887 141.136 45.1887 141.382C45.1887 141.628 45.3882 141.828 45.6343 141.828Z" fill="#263238"/>
<path d="M44.5312 141.056C44.591 141.116 44.917 140.833 45.4006 140.811C45.8842 140.79 46.2428 141.018 46.2917 140.953C46.3406 140.888 46.2591 140.817 46.1016 140.708C45.889 140.57 45.6376 140.503 45.3843 140.518C45.1303 140.533 44.8881 140.63 44.6942 140.795C44.5475 140.92 44.504 141.034 44.5312 141.056Z" fill="#263238"/>
<path d="M42.8793 145.071C42.622 145.005 42.3571 144.972 42.0914 144.974C41.9718 144.974 41.8523 144.947 41.8251 144.86C41.8101 144.725 41.8346 144.589 41.8957 144.468L42.2218 143.474C42.5331 142.628 42.7784 141.76 42.9553 140.877C42.5901 141.7 42.2832 142.548 42.037 143.414C41.9229 143.762 41.8197 144.099 41.7218 144.414C41.6473 144.572 41.63 144.75 41.6729 144.919C41.6913 144.962 41.7196 145.001 41.7554 145.031C41.7913 145.061 41.8338 145.082 41.8794 145.093C41.9479 145.103 42.0175 145.103 42.0859 145.093C42.3503 145.118 42.6166 145.111 42.8793 145.071Z" fill="#263238"/>
<path d="M44.4714 145.528C43.7678 145.973 42.9692 146.247 42.1403 146.327C42.3168 146.571 42.5706 146.748 42.8606 146.83C43.1506 146.912 43.4597 146.894 43.7379 146.778C44.7648 146.349 44.4714 145.528 44.4714 145.528Z" fill="white"/>
<path d="M42.7488 151.033C44.4081 150.963 46.0127 150.42 47.373 149.468C47.373 149.468 46.3243 152.032 42.8249 151.891L42.7488 151.033Z" fill="#A36957"/>
<path d="M57.1158 140.42C57.1158 140.42 58.5395 148.468 51.7418 149.919L51.9429 140.225L57.1158 140.42Z" fill="#263238"/>
<path d="M56.8931 138.638C56.4688 136.916 55.6753 135.306 54.5674 133.921C55.5455 134.329 56.1975 134.736 56.3334 134.606C56.4692 134.476 56.2193 134.231 55.79 133.867C55.2325 133.411 54.595 133.063 53.9099 132.84L53.5893 132.753C54.0378 132.574 54.4475 132.311 54.7956 131.976C55.2124 131.586 55.5006 131.078 55.622 130.52C55.7433 129.962 55.692 129.38 55.4748 128.852C55.2294 128.403 54.8563 128.036 54.4027 127.799C53.949 127.562 53.4352 127.465 52.9264 127.52C52.4209 127.592 51.9392 127.781 51.5201 128.073C51.1011 128.364 50.7564 128.75 50.5138 129.199C50.3967 129.414 50.3003 129.64 50.2258 129.873C50.2423 129.487 50.2822 129.102 50.3453 128.721C50.5627 127.379 51.0626 126.374 50.9811 126.33C50.4657 127.013 50.1446 127.822 50.0519 128.672C50.0519 128.803 50.0193 128.928 50.003 129.053C49.8963 128.705 49.7656 128.366 49.6118 128.037C49.2803 127.336 48.9652 126.95 48.8728 127.01C48.6826 127.102 49.302 128.575 49.5574 130.563C48.9462 130.36 48.31 130.241 47.6665 130.21C46.4819 130.21 44.5149 129.667 41.7328 131.9C40.7908 132.501 39.9766 133.282 39.3365 134.199C38.4171 135.544 37.8988 137.123 37.8422 138.752C37.8254 139.241 37.8563 139.731 37.9346 140.214C37.9512 140.392 37.9971 140.567 38.0704 140.73C38.1247 140.73 37.9672 139.975 38.0704 138.763C38.1315 137.865 38.3313 136.981 38.6627 136.144C38.2487 137.593 38.3407 139.139 38.9235 140.529L45.1452 139.556C44.7431 138.192 45.0365 136.03 45.2267 134.97C46.3135 140.051 50.6877 142.49 50.6877 142.49L57.2354 141.464C57.143 140.871 57.0343 139.17 56.8931 138.638Z" fill="#263238"/>
<path d="M71.9555 216.461C72.1566 216.559 88.208 219.721 87.6157 217.548C87.0235 215.374 72.0968 211.962 72.0968 211.962L71.9555 216.461Z" fill="#47D163"/>
<path d="M79.2532 215.043C79.3293 215.043 79.4434 215.412 79.4379 215.896C79.4325 216.379 79.3184 216.76 79.2423 216.749C79.1662 216.738 79.1499 216.358 79.1554 215.896C79.1608 215.434 79.1771 215.048 79.2532 215.043Z" fill="#263238"/>
<path d="M78.4 214.749C78.4707 214.749 78.612 215.178 78.5576 215.744C78.5033 216.309 78.3022 216.722 78.2316 216.694C78.1609 216.667 78.2316 216.243 78.2751 215.716C78.3185 215.189 78.3185 214.76 78.4 214.749Z" fill="#263238"/>
<path d="M77.3621 214.662C77.4382 214.662 77.5468 215.086 77.5577 215.629C77.5686 216.173 77.4762 216.607 77.4001 216.602C77.324 216.597 77.286 216.167 77.2751 215.635C77.2643 215.102 77.286 214.668 77.3621 214.662Z" fill="#263238"/>
<path d="M75.406 213.092C75.4902 213.088 75.5746 213.097 75.656 213.119C75.819 213.119 76.0581 213.195 76.3624 213.266C76.9764 213.396 77.8621 213.608 78.9434 213.907C80.0247 214.206 81.3071 214.581 82.709 215.059C83.41 215.298 84.1544 215.542 84.8826 215.863C85.6719 216.181 86.3972 216.64 87.0235 217.216C87.1212 217.294 87.2009 217.392 87.2571 217.504C87.2916 217.583 87.2968 217.672 87.272 217.755C87.2471 217.837 87.1937 217.908 87.1213 217.955C86.912 218.064 86.6775 218.114 86.4421 218.102C86.0236 218.134 85.6107 218.151 85.2086 218.162C84.3989 218.162 83.6165 218.162 82.8721 218.102C81.3886 218.009 80.0628 217.825 78.9543 217.651C77.8458 217.477 76.9546 217.303 76.3406 217.178L75.6342 217.031C75.5497 217.02 75.4673 216.996 75.3897 216.961C75.7145 216.971 76.0379 217.008 76.3569 217.069L78.9814 217.45C80.0682 217.602 81.4158 217.765 82.8884 217.846C83.6273 217.884 84.3989 217.906 85.2031 217.884C85.5998 217.884 86.0128 217.857 86.4203 217.825C86.6072 217.835 86.7938 217.8 86.9637 217.721C87.0126 217.683 87.018 217.662 87.0017 217.613C86.9564 217.539 86.8995 217.473 86.8333 217.417C86.2297 216.865 85.5323 216.425 84.7739 216.118C84.0458 215.803 83.3068 215.575 82.6004 215.303C81.2039 214.82 79.9324 214.418 78.8619 214.097C77.7914 213.777 76.9112 213.554 76.308 213.369C76.0016 213.296 75.7003 213.204 75.406 213.092Z" fill="#263238"/>
<path d="M83.9317 215.477C84.0077 215.504 83.8502 216.113 83.9317 216.863C84.0132 217.613 84.2197 218.194 84.1436 218.232C83.8542 217.838 83.6827 217.37 83.6491 216.882C83.6154 216.395 83.7209 215.907 83.9534 215.477H83.9317Z" fill="#263238"/>
<path d="M18.8946 213.282C18.6718 213.282 2.47365 215.515 3.72886 217.336C4.98407 219.156 20.2204 217.558 20.2204 217.558L18.8946 213.282Z" fill="#47D163"/>
<path d="M12.4283 217.004C12.3631 217.037 12.1294 216.711 11.9773 216.254C11.8251 215.798 11.8306 215.407 11.8849 215.407C11.9393 215.407 12.0968 215.749 12.2435 216.189C12.3903 216.629 12.4989 216.966 12.4283 217.004Z" fill="#263238"/>
<path d="M13.3358 216.999C13.2706 217.037 12.9935 216.662 12.8576 216.113C12.7218 215.564 12.7816 215.102 12.8576 215.102C12.9337 215.102 13.0043 215.532 13.1348 216.042C13.2652 216.553 13.4064 216.961 13.3358 216.999Z" fill="#263238"/>
<path d="M14.341 216.743C14.2704 216.776 14.0313 216.401 13.8411 215.89C13.6509 215.38 13.5966 214.939 13.6726 214.918C13.7487 214.896 13.9226 215.298 14.1073 215.792C14.2921 216.287 14.4116 216.711 14.341 216.743Z" fill="#263238"/>
<path d="M16.721 217.58C16.6427 217.611 16.5603 217.629 16.4765 217.635L15.7592 217.727C15.1343 217.803 14.2323 217.89 13.113 217.961C11.9936 218.031 10.6569 218.091 9.17345 218.102C8.42902 218.102 7.65199 218.102 6.83692 218.053C5.9877 218.016 5.15288 217.821 4.37541 217.477C4.25607 217.435 4.14687 217.368 4.05481 217.281C4.00097 217.215 3.97156 217.133 3.97156 217.048C3.97156 216.963 4.00097 216.88 4.05481 216.814C4.21477 216.64 4.4198 216.514 4.6471 216.45C5.0329 216.282 5.41326 216.135 5.79363 215.988C6.55436 215.711 7.30422 215.483 8.02148 215.282C9.45601 214.885 10.771 214.63 11.874 214.434C12.9771 214.238 13.8791 214.108 14.4986 214.027L15.2158 213.934C15.2986 213.921 15.383 213.921 15.4658 213.934C15.1549 214.03 14.8369 214.101 14.5149 214.146L11.9121 214.641C10.8253 214.863 9.51035 215.14 8.10843 215.543C7.3966 215.749 6.6576 215.977 5.93491 216.26C5.55998 216.407 5.17961 216.553 4.79924 216.716C4.62202 216.767 4.45981 216.861 4.3265 216.988C4.2939 217.042 4.2939 217.059 4.3265 217.102C4.3945 217.158 4.47171 217.202 4.55472 217.232C5.30301 217.556 6.10403 217.74 6.91842 217.776C7.71176 217.841 8.49423 217.836 9.23322 217.841C10.7112 217.841 12.0425 217.808 13.1619 217.765C14.2812 217.722 15.1832 217.656 15.8081 217.618C16.1112 217.585 16.4162 217.573 16.721 217.58Z" fill="#263238"/>
<path d="M7.86933 218.124C7.78239 218.124 7.73892 217.499 7.43463 216.809C7.13034 216.118 6.72823 215.64 6.78801 215.586C6.84778 215.532 7.38029 215.939 7.69545 216.673C7.93755 217.116 7.99981 217.636 7.86933 218.124Z" fill="#263238"/>
<path d="M69.1191 193.617H60.876L30.4467 194.405L21.7527 193.28C20.3997 192.981 19.5085 192.856 19.2205 192.949C18.0527 193.436 17.0293 194.214 16.2482 195.209C12.9336 199.165 15.0202 205.262 20.0084 206.62L24.6924 207.892L14.4442 211.185L17.9055 221.009C17.9055 221.009 33.2071 217.7 48.0468 214.206L71.7925 220.629L75.2158 209.603L71.1894 208.294C73.7161 207.522 75.3136 206.914 75.5364 206.544C77.0307 204.229 79.6769 193.465 69.081 193.628" fill="#455A64"/>
<path opacity="0.2" d="M71.0589 208.332L53.41 215.64L48.074 214.195L71.0589 208.332Z" fill="black"/>
<path opacity="0.2" d="M24.7685 194.443L47.3622 200.915L64.5711 195.046L24.7685 194.443Z" fill="black"/>
<path d="M21.5517 220.297C21.2631 219.85 21.021 219.375 20.829 218.879C20.4269 217.982 19.9052 216.705 19.3945 215.314C18.8837 213.923 18.4653 212.597 18.199 211.663C18.0271 211.16 17.9051 210.641 17.835 210.114C18.0563 210.595 18.238 211.093 18.3783 211.603C18.6935 212.532 19.1336 213.815 19.6444 215.217C20.1552 216.618 20.6497 217.885 21.0029 218.797C21.2237 219.283 21.4072 219.784 21.5517 220.297Z" fill="#263238"/>
<path d="M76.02 197.279C75.976 197.306 75.9284 197.326 75.8787 197.339L75.4549 197.497L73.8247 198.073L67.7987 200.121C62.6855 201.828 55.6106 204.137 47.7697 206.598C39.9287 209.06 32.7996 211.206 27.632 212.728L21.5027 214.499L19.8345 214.961L19.3944 215.075C19.3451 215.091 19.2939 215.1 19.2422 215.102L19.389 215.048L19.8182 214.907L21.4484 214.391L27.5505 212.532C32.7072 210.967 39.82 208.788 47.6556 206.327C55.4911 203.865 62.5768 201.588 67.7009 199.931L73.7758 197.97L75.4331 197.426L75.8624 197.296C75.9139 197.283 75.967 197.277 76.02 197.279Z" fill="#263238"/>
<path d="M59.5665 196.883C59.4569 196.945 59.3401 196.995 59.2187 197.03L58.208 197.399C57.3278 197.714 56.0345 198.16 54.4587 198.698C51.2854 199.784 46.8894 201.219 42.0262 202.778C37.1629 204.338 32.7398 205.713 29.5285 206.68C27.8983 207.164 26.6214 207.544 25.7248 207.799L24.6869 208.087C24.5658 208.123 24.4423 208.15 24.3174 208.169C24.4295 208.11 24.548 208.064 24.6706 208.033L25.6922 207.696L29.4959 206.49L41.961 202.512L54.4152 198.508L58.1917 197.296L59.2242 196.975C59.3346 196.932 59.4494 196.901 59.5665 196.883Z" fill="#263238"/>
<path d="M47.2481 200.877C47.2481 200.953 42.1784 199.573 35.9675 197.796C29.7567 196.019 24.7467 194.535 24.7685 194.443C24.7902 194.351 29.8382 195.747 36.0436 197.524C42.249 199.301 47.2698 200.801 47.2481 200.877Z" fill="#263238"/>
<path d="M71.923 208.854C71.3661 210.687 70.7168 212.492 69.9777 214.26C68.8311 217.216 67.8422 219.585 67.7715 219.558C68.327 217.726 68.9763 215.923 69.7168 214.157C70.8634 211.201 71.8523 208.826 71.923 208.854Z" fill="#263238"/>
<path d="M69.8037 213.407C68.3049 213.148 66.8225 212.802 65.3643 212.369C63.8896 212.021 62.4378 211.582 61.0173 211.054C62.5164 211.312 63.9988 211.658 65.4567 212.092C66.9314 212.44 68.3832 212.88 69.8037 213.407Z" fill="#263238"/>
<path d="M36.0056 204.398C35.7209 204.363 35.4393 204.307 35.1633 204.229L32.892 203.686C30.9793 203.197 28.3331 202.534 25.4477 201.665C22.9744 200.938 20.5512 200.05 18.1936 199.007C17.297 198.594 16.5635 198.236 16.0961 197.97C15.8361 197.847 15.5886 197.7 15.3571 197.529C15.6283 197.623 15.8917 197.737 16.1451 197.872C16.645 198.105 17.3677 198.415 18.2751 198.823C20.6458 199.808 23.0673 200.665 25.5292 201.393C28.4091 202.262 31.0445 202.952 32.9463 203.49L35.1905 204.137C35.4702 204.196 35.7433 204.284 36.0056 204.398Z" fill="#263238"/>
<path d="M52.709 154.825H52.0407L51.9429 152.51L42.7652 153.054C42.7652 153.054 42.8575 154.141 42.8521 154.896C37.201 155.439 28.1428 158.341 27.9255 171.061L35.1742 171.23C34.5601 177.066 34.6308 180.549 34.0385 182.739C33.0278 186.358 29.8273 193.997 30.4685 194.383C31.1097 194.769 60.8543 195.318 62.2725 194.546C63.6907 193.775 61.1097 183.804 60.463 181.098C60.0555 179.37 59.9686 175.414 59.9577 172.355L68.2823 171.98C68.2823 171.98 68.8854 154.776 52.709 154.825Z" fill="#47D163"/>
<path d="M51.9917 154.733C51.5532 154.862 51.1008 154.939 50.6441 154.961C49.8019 155.059 48.6391 155.151 47.3512 155.178C46.0634 155.206 44.9006 155.178 44.0584 155.102C43.6005 155.095 43.1449 155.036 42.6999 154.928C43.1526 154.875 43.6094 154.866 44.0638 154.901C44.906 154.901 46.0634 154.901 47.3241 154.901C48.5847 154.901 49.7639 154.814 50.5844 154.771C51.0512 154.713 51.5225 154.7 51.9917 154.733Z" fill="#263238"/>
<path d="M44.4334 152.978C44.5149 152.978 44.5746 153.423 44.5746 153.972C44.5746 154.521 44.5149 154.972 44.4334 154.972C44.3519 154.972 44.2921 154.526 44.2921 153.972C44.2921 153.418 44.3301 152.978 44.4334 152.978Z" fill="#263238"/>
<path d="M46.8622 152.804C46.9383 152.804 47.0144 153.293 47.0307 153.891C47.0804 154.256 47.0431 154.629 46.922 154.977C46.8405 154.977 46.7644 154.488 46.7481 153.891C46.6967 153.524 46.7359 153.151 46.8622 152.804Z" fill="#263238"/>
<path d="M49.3944 152.717C49.4705 152.717 49.5792 153.195 49.59 153.804C49.6009 154.412 49.5194 154.89 49.4379 154.89C49.3193 154.541 49.2749 154.171 49.3075 153.804C49.3238 153.217 49.3238 152.722 49.3944 152.717Z" fill="#263238"/>
<path d="M51.2311 152.63C51.3126 152.63 51.3669 153.108 51.443 153.69C51.5191 154.271 51.5788 154.749 51.5028 154.776C51.4267 154.804 51.2365 154.336 51.1659 153.728C51.0952 153.119 51.155 152.625 51.2311 152.63Z" fill="#263238"/>
<path d="M36.3207 171.094C36.1745 170.196 36.1198 169.286 36.1577 168.377C36.1001 167.47 36.1401 166.559 36.2772 165.66C36.4208 166.558 36.4754 167.468 36.4402 168.377C36.4908 169.285 36.4508 170.195 36.3207 171.094Z" fill="#263238"/>
<path d="M59.648 172.001C59.4279 171.037 59.297 170.055 59.2568 169.067C59.1258 168.086 59.0912 167.094 59.1536 166.106C59.5024 168.051 59.6679 170.025 59.648 172.001Z" fill="#263238"/>
<path d="M36.3206 171.094C35.9064 171.149 35.4877 171.162 35.0709 171.132H32.0768H29.0774C28.6624 171.162 28.2454 171.149 27.833 171.094C28.2378 170.99 28.654 170.937 29.0719 170.936C29.8381 170.877 30.9031 170.833 32.0768 170.839C33.2505 170.844 34.3156 170.882 35.0817 170.942C35.4993 170.943 35.9151 170.994 36.3206 171.094Z" fill="#263238"/>
<path d="M68.266 172.002C66.7944 172.145 65.3151 172.192 63.8374 172.143C62.3579 172.192 60.8768 172.145 59.4034 172.002C60.877 171.862 62.3579 171.814 63.8374 171.86C65.3151 171.814 66.7942 171.862 68.266 172.002Z" fill="#263238"/>
<path d="M67.9019 172.072C67.9019 172.072 70.0755 192.357 63.8592 194.351C57.6429 196.345 45.3843 186.901 45.3843 186.901L48.9162 179.75C48.9162 179.75 57.0669 185.412 58.8275 184.135C60.588 182.858 59.6697 172.072 59.6697 172.072H67.9019Z" fill="#B78876"/>
<path d="M28.0287 171.094C28.0287 171.094 25.8171 191.172 32.028 193.172C38.2388 195.171 50.5029 185.716 50.5029 185.716L46.9655 178.566C46.9655 178.566 38.7659 183.809 37.0651 182.483C36.0816 181.712 36.0544 171.197 36.0544 171.197C33.1636 171.072 30.4848 170.947 28.0287 171.094Z" fill="#B78876"/>
<path d="M64.0332 175.278L59.9089 195.492C59.9089 195.492 34.5657 195.296 34.3049 195.22C34.044 195.144 31.588 175.278 31.588 175.278H64.0332Z" fill="#263238"/>
<path d="M45.8299 185.521C45.8092 185.825 45.8805 186.129 46.0346 186.392C46.1887 186.656 46.4184 186.867 46.694 186.998C46.9695 187.129 47.2782 187.174 47.5798 187.128C47.8814 187.081 48.162 186.945 48.3852 186.737C48.6085 186.529 48.764 186.258 48.8315 185.961C48.8991 185.663 48.8756 185.352 48.7641 185.068C48.6526 184.784 48.4583 184.54 48.2063 184.368C47.9544 184.196 47.6565 184.103 47.3513 184.102C46.962 184.091 46.5838 184.233 46.2989 184.499C46.014 184.764 45.8454 185.132 45.8299 185.521Z" fill="white"/>
<path d="M51.155 141.17C51.3845 141.028 51.6457 140.945 51.915 140.929C52.1843 140.913 52.4535 140.964 52.6982 141.078C53.0109 141.33 53.2166 141.691 53.2742 142.088C53.3471 142.41 53.3433 142.745 53.2631 143.065C53.1828 143.385 53.0284 143.681 52.8124 143.93C52.587 144.171 52.2858 144.327 51.9592 144.371C51.6326 144.416 51.3007 144.346 51.0192 144.175" fill="#B78876"/>
<path d="M51.8071 143.621C51.8071 143.577 51.9809 143.55 52.182 143.398C52.3147 143.312 52.422 143.192 52.4927 143.051C52.5634 142.909 52.5949 142.751 52.5841 142.594C52.5686 142.438 52.5129 142.289 52.4224 142.161C52.3318 142.034 52.2097 141.932 52.0679 141.866C51.8397 141.757 51.6658 141.762 51.6603 141.719C51.6549 141.675 51.8342 141.594 52.1385 141.67C52.3372 141.729 52.5137 141.846 52.6453 142.006C52.7769 142.166 52.8575 142.362 52.8768 142.568C52.8961 142.775 52.8532 142.982 52.7535 143.164C52.6539 143.346 52.5022 143.493 52.3178 143.588C52.0027 143.708 51.8071 143.68 51.8071 143.621Z" fill="#A36957"/>
</svg>
