<svg width="203" height="222" viewBox="0 0 203 222" fill="none" xmlns="http://www.w3.org/2000/svg">
<path d="M101.271 222C157.201 222 202.542 216.852 202.542 210.502C202.542 204.152 157.201 199.004 101.271 199.004C45.3405 199.004 0 204.152 0 210.502C0 216.852 45.3405 222 101.271 222Z" fill="#F5F5F5"/>
<path d="M172.852 5.35548L106.42 0.603725C101.759 0.270297 97.7153 3.86139 97.389 8.62465L86.7581 163.811C86.4318 168.574 89.9461 172.706 94.6076 173.039L161.039 177.791C165.701 178.124 169.744 174.533 170.071 169.77L180.701 14.5839C181.028 9.82059 177.513 5.68891 172.852 5.35548Z" fill="#263238"/>
<path d="M177.32 37.3778L176.197 37.2917C175.325 37.2248 174.565 37.8932 174.499 38.7846L172.969 59.6294C172.903 60.5208 173.557 61.2976 174.43 61.3644L175.553 61.4505C176.425 61.5174 177.185 60.849 177.251 59.9577L178.781 39.1128C178.847 38.2214 178.192 37.4446 177.32 37.3778Z" fill="#263238"/>
<path d="M96.0654 30.292L94.7701 30.1994C93.942 30.1401 93.2237 30.7781 93.1657 31.6243L92.568 40.3496C92.51 41.1958 93.1344 41.9298 93.9625 41.989L95.2577 42.0817C96.0858 42.1409 96.8041 41.503 96.8621 40.6568L97.4598 31.9314C97.5178 31.0852 96.8935 30.3512 96.0654 30.292Z" fill="#263238"/>
<path d="M93.7961 46.604L92.5045 46.505C91.6787 46.4417 90.9591 47.0744 90.8971 47.9182L90.2584 56.6191C90.1964 57.463 90.8156 58.1983 91.6414 58.2616L92.9331 58.3606C93.7588 58.4239 94.4785 57.7912 94.5404 56.9474L95.1792 48.2465C95.2411 47.4027 94.6219 46.6673 93.7961 46.604Z" fill="#263238"/>
<path d="M157.643 178.388L91.387 173.317C89.1558 173.144 87.0829 172.074 85.6232 170.341C84.1636 168.608 83.4364 166.354 83.6013 164.074L94.956 9.31219C95.1358 7.04005 96.1878 4.93281 97.8826 3.45041C99.5773 1.968 101.777 1.23079 104.002 1.39967L170.258 6.43491C172.487 6.60961 174.559 7.68076 176.017 9.41349C177.475 11.1462 178.201 13.3991 178.036 15.6782L166.681 170.44C166.51 172.717 165.463 174.832 163.769 176.322C162.075 177.812 159.872 178.555 157.643 178.388Z" fill="#47D163"/>
<path opacity="0.9" d="M165.457 169.138L85.0092 162.981C84.9099 162.981 84.8115 162.96 84.7206 162.919C84.6298 162.878 84.5484 162.818 84.4819 162.743C84.4154 162.667 84.3653 162.578 84.3348 162.482C84.3044 162.385 84.2943 162.283 84.3052 162.182L95.3854 11.5924C95.3848 11.4909 95.4052 11.3904 95.4453 11.2976C95.4855 11.2047 95.5444 11.1216 95.6182 11.0536C95.692 10.9857 95.779 10.9345 95.8736 10.9034C95.9681 10.8722 96.0681 10.8619 96.1668 10.8731L176.607 17.0377C176.707 17.0371 176.805 17.0579 176.896 17.0989C176.987 17.1399 177.068 17.2001 177.134 17.2755C177.201 17.3509 177.251 17.4399 177.282 17.5365C177.312 17.6331 177.322 17.7352 177.311 17.8361L166.231 168.455C166.227 168.552 166.203 168.648 166.161 168.736C166.119 168.824 166.06 168.903 165.988 168.967C165.915 169.031 165.831 169.079 165.739 169.108C165.648 169.138 165.552 169.148 165.457 169.138Z" fill="white"/>
<path opacity="0.2" d="M128.851 7.26215L144.824 8.48499C145.1 8.50707 145.356 8.63967 145.537 8.8539C145.717 9.06812 145.808 9.34662 145.788 9.62871C145.765 9.90934 145.634 10.1693 145.425 10.3524C145.215 10.5354 144.944 10.6269 144.669 10.607L128.696 9.38414C128.42 9.36207 128.164 9.22947 127.984 9.01524C127.803 8.80101 127.713 8.52251 127.732 8.24042C127.755 7.95979 127.886 7.69983 128.095 7.51677C128.305 7.3337 128.576 7.24223 128.851 7.26215Z" fill="black"/>
<path d="M167.921 24.4778L103.676 19.5533C101.893 19.4166 100.339 20.7831 100.205 22.6054L94.3325 102.599C94.1987 104.422 95.536 106.01 97.3194 106.146L161.564 111.071C163.348 111.208 164.902 109.841 165.036 108.019L170.908 28.025C171.042 26.2027 169.705 24.6145 167.921 24.4778Z" fill="white"/>
<path d="M132.985 25.8004C142.284 24.39 142.209 36.8077 152.023 31.6873C158.248 28.4373 155.651 41.6827 161.397 43.318C167.143 44.9532 172.805 50.697 170.265 56.451C167.725 62.205 171.605 68.327 177.97 71.0251C186.838 74.7964 187.963 70.3301 185.882 86.7132C183.801 103.096 149.052 130.487 132.179 117.773C115.306 105.059 134.054 96.4736 127.492 86.9381C122.28 79.3853 110.497 83.3201 115.053 72.3538C119.365 61.97 124.164 60.3756 116.702 52.7717C109.241 45.1678 119.993 27.7627 132.985 25.8004Z" fill="#263238"/>
<path d="M145.415 77.1778C145.565 77.3822 145.846 77.7705 146.099 78.0772L146.886 79.0992C147.439 79.7431 148.002 80.3869 148.592 81.0104C149.782 82.2758 151.034 83.4699 152.342 84.5875C154.94 86.8308 157.746 88.7729 160.713 90.3824L161.2 90.6481C161.321 90.6927 161.448 90.7101 161.575 90.6992C162.154 90.6438 162.721 90.4849 163.253 90.2291C164.69 89.5358 166.054 88.6757 167.321 87.6638C168.724 86.6059 170.076 85.4699 171.371 84.2604C172.693 83.0544 174.014 81.7667 175.28 80.5096L177.914 82.9216C175.797 86.2644 173.355 89.3484 170.63 92.1198C169.16 93.6129 167.53 94.9066 165.775 95.9728C164.713 96.6075 163.564 97.0494 162.372 97.281C161.615 97.4196 160.842 97.4196 160.085 97.281C159.659 97.2099 159.241 97.09 158.838 96.9233L158.604 96.8211L158.435 96.7496L158.107 96.5963C156.328 95.8188 154.599 94.9105 152.933 93.8777C152.089 93.3871 151.292 92.8046 150.467 92.2629C149.642 91.7212 148.874 91.0978 148.124 90.4539C146.571 89.221 145.099 87.8721 143.718 86.4169C143.024 85.681 142.349 84.9247 141.693 84.1378C141.375 83.729 141.046 83.3406 140.756 82.9216C140.465 82.5025 140.156 82.1039 139.818 81.5316L145.415 77.1778Z" fill="#8A554A"/>
<path d="M137.803 72.129C144.205 71.6691 151.742 81.6339 152.042 82.012L146.877 93.4383C146.877 93.4383 133.875 86.0593 133.266 82.012C132.657 77.8013 133.632 72.4356 137.803 72.129Z" fill="#47D163"/>
<path opacity="0.5" d="M137.803 72.129C144.205 71.6691 151.742 81.6339 152.042 82.012L146.877 93.4383C146.877 93.4383 133.875 86.0593 133.266 82.012C132.657 77.8013 133.632 72.4356 137.803 72.129Z" fill="white"/>
<path d="M175.674 79.7839L180.642 76.4623L180.792 84.2093C180.792 84.2093 176.152 85.5686 173.958 83.6369L174.155 82.2572C174.232 81.7507 174.407 81.2679 174.669 80.8413C174.931 80.4147 175.273 80.0542 175.674 79.7839Z" fill="#8A554A"/>
<path d="M186.791 76.8406L185.919 82.6151L180.792 84.2401L180.642 76.4931L186.791 76.8406Z" fill="#8A554A"/>
<path d="M101.526 38.2284L100.945 30.2668L107.338 33.6395C107.338 33.6395 107.029 39.0562 102.857 39.2913L101.526 38.2284Z" fill="#8A554A"/>
<path d="M101.011 26.1377L106.485 24.8091L107.338 33.6394L100.945 30.2667L101.011 26.1377Z" fill="#8A554A"/>
<path d="M107.169 69.9316C107.004 69.9442 106.838 69.9442 106.672 69.9316H106.372H105.857C105.529 69.9316 105.257 69.8396 104.966 69.7885C104.413 69.6659 103.907 69.5228 103.41 69.3593C102.476 69.0466 101.562 68.6676 100.673 68.2248C99.0177 67.3696 97.4173 66.393 95.8831 65.3018C94.4114 64.2083 92.9678 63.0943 91.6273 61.878L90.5118 60.856C89.8144 60.2059 89.271 59.382 88.9276 58.4543C88.6269 57.6184 88.4834 56.7252 88.5058 55.8276C88.5234 55.1162 88.6178 54.4096 88.787 53.7223C89.3683 51.6287 90.2786 49.661 91.4773 47.9069C92.4986 46.3242 93.6167 44.8184 94.8238 43.3998C97.141 40.6278 99.6479 38.0517 102.323 35.6937L104.695 38.4123C102.595 41.1207 100.533 43.9619 98.6671 46.8134C97.7297 48.2544 96.8673 49.6955 96.1174 51.1468C95.4133 52.413 94.8976 53.7927 94.5895 55.2349C94.4863 55.7765 94.5895 56.0832 94.5895 55.8787C94.5615 55.7954 94.5237 55.7164 94.477 55.6437L95.4144 56.2875C96.7455 57.2551 98.0859 58.1681 99.4358 59.0266C100.741 59.8654 102.093 60.613 103.485 61.2648C104.16 61.5714 104.807 61.8474 105.435 62.062C105.744 62.1642 106.044 62.2562 106.307 62.3175L106.654 62.3891H106.766H106.579L107.169 69.9316Z" fill="#8A554A"/>
<path d="M124.089 66.2829C122.871 63.4213 102.782 59.2718 102.782 59.2718L100.064 71.9143C100.064 71.9143 106.513 76.7996 111.191 78.3326C114.94 79.5488 125.486 69.5636 124.089 66.2829Z" fill="#47D163"/>
<path opacity="0.5" d="M124.089 66.2829C122.871 63.4213 102.782 59.2718 102.782 59.2718L100.064 71.9143C100.064 71.9143 106.513 76.7996 111.191 78.3326C114.94 79.5488 125.486 69.5636 124.089 66.2829Z" fill="white"/>
<path d="M144.365 74.4183C144.365 74.4183 147.111 76.6668 128.973 116.025L102.642 107.011C106.447 95.4721 108.538 88.2668 110.319 62.5424C114.247 62.9699 118.142 63.7112 121.971 64.7602C126.031 65.8414 130.023 67.2069 133.922 68.8483C138.881 71.1274 144.365 74.4183 144.365 74.4183Z" fill="#47D163"/>
<path opacity="0.5" d="M144.365 74.4183C144.365 74.4183 147.111 76.6668 128.973 116.025L102.642 107.011C106.447 95.4721 108.538 88.2668 110.319 62.5424C114.247 62.9699 118.142 63.7112 121.971 64.7602C126.031 65.8414 130.023 67.2069 133.922 68.8483C138.881 71.1274 144.365 74.4183 144.365 74.4183Z" fill="white"/>
<path d="M139.425 71.6078L138.487 71.1479C138.44 72.4515 138.006 73.703 137.25 74.7147C134.438 78.4349 129.32 76.677 127.632 76.0945C125.459 75.4026 123.429 74.261 121.652 72.732C121.483 72.5889 121.324 72.4356 121.174 72.2823C120.126 71.3408 119.278 70.1622 118.689 68.8281C118.099 67.494 117.783 66.0363 117.762 64.5558V63.7279V63.1249L116.824 62.8388V63.544V64.566C116.842 66.1833 117.179 67.7775 117.813 69.2397C118.447 70.7019 119.363 71.9977 120.499 73.0386L121.033 73.5598C122.908 75.1661 125.046 76.3696 127.332 77.1063C129.16 77.7297 134.757 79.6511 137.944 75.3995C138.775 74.3262 139.291 73.0051 139.425 71.6078Z" fill="white"/>
<path d="M127.351 50.4824C126.901 54.9385 125.476 62.8796 121.943 64.7908C121.943 64.7908 121.764 69.4104 128.917 71.853C136.772 74.541 133.894 68.8891 133.894 68.8891C129.929 66.3034 131.035 62.8694 132.723 59.8646L127.351 50.4824Z" fill="#8A554A"/>
<path opacity="0.2" d="M129.545 54.3048L132.722 59.8238C132.319 60.5225 131.971 61.2576 131.682 62.0211C130.126 61.1933 128.111 58.7506 128.476 56.819C128.69 55.9175 129.052 55.0657 129.545 54.3048Z" fill="black"/>
<path d="M125.701 42.2653C125.345 49.6137 125.055 52.7104 128.036 56.8803C132.535 63.1351 140.878 61.9904 143.24 54.918C145.358 48.5508 145.583 37.6151 139.331 33.8949C137.959 33.0696 136.416 32.6404 134.849 32.648C133.281 32.6556 131.742 33.0998 130.377 33.9384C129.011 34.777 127.865 35.9822 127.047 37.4395C126.228 38.8969 125.765 40.558 125.701 42.2653Z" fill="#8A554A"/>
<path d="M124.024 48.1011C125.064 53.4872 131.195 46.2103 135.094 39.0153C137.672 40.906 148.218 43.5326 147.993 40.395C147.693 35.5813 138.234 25.5143 129.742 30.9413C121.699 36.1229 122.664 41.1104 124.024 48.1011Z" fill="#263238"/>
<path d="M123.967 48.7245C123.964 50.1471 124.476 51.5134 125.392 52.5265C126.611 53.8551 128.064 52.8842 128.429 51.1467C128.767 49.5728 128.523 46.9973 126.957 46.3228C126.612 46.1804 126.24 46.1346 125.874 46.1895C125.508 46.2444 125.161 46.3983 124.863 46.6371C124.566 46.8758 124.328 47.1919 124.172 47.5565C124.015 47.9212 123.945 48.3227 123.967 48.7245Z" fill="#8A554A"/>
<path d="M102.707 105.181L100.776 107.379C100.626 107.552 100.776 107.828 101.095 107.931L128.701 117.384C128.945 117.466 129.179 117.384 129.235 117.252L130.22 114.758C130.285 114.584 130.117 114.369 129.863 114.277L103.195 105.151C103.118 105.11 103.033 105.091 102.947 105.096C102.862 105.102 102.779 105.131 102.707 105.181Z" fill="#47D163"/>
<path d="M105.351 109.658L104.638 109.423C104.498 109.372 104.413 109.249 104.451 109.157L105.744 105.938C105.744 105.835 105.932 105.805 106.072 105.856L106.785 106.091C106.926 106.091 107.01 106.265 106.972 106.357L105.679 109.576C105.641 109.678 105.491 109.709 105.351 109.658Z" fill="#263238"/>
<path d="M126.62 116.945L125.908 116.7C125.758 116.648 125.673 116.536 125.711 116.444L127.014 113.214C127.014 113.123 127.201 113.082 127.342 113.133L128.054 113.378C128.195 113.378 128.279 113.542 128.242 113.634L126.948 116.863C126.911 116.955 126.761 116.996 126.62 116.945Z" fill="#263238"/>
<path d="M115.981 113.306L115.268 113.061C115.128 113.01 115.043 112.898 115.081 112.795L116.374 109.576C116.374 109.484 116.562 109.443 116.702 109.494L117.415 109.74C117.565 109.74 117.649 109.903 117.612 109.995L116.309 113.225C116.243 113.317 116.131 113.358 115.981 113.306Z" fill="#263238"/>
<path d="M135.628 45.5665C135.563 46.1593 135.806 46.6805 136.163 46.7214C136.519 46.7623 136.856 46.3228 136.922 45.6994C136.988 45.0759 136.744 44.5854 136.388 44.5445C136.031 44.5036 135.694 44.9737 135.628 45.5665Z" fill="#263238"/>
<path d="M141.787 46.333C141.721 46.9258 141.956 47.447 142.312 47.4879C142.668 47.5288 143.015 47.0893 143.071 46.4659C143.127 45.8424 142.893 45.3519 142.537 45.311C142.181 45.2701 141.843 45.7402 141.787 46.333Z" fill="#263238"/>
<path d="M142.378 45.3519L143.727 45.1066C143.727 45.1066 142.94 46.1389 142.378 45.3519Z" fill="#263238"/>
<path d="M140.053 47.1506C140.391 48.5852 140.912 49.9612 141.6 51.2387C141.298 51.418 140.964 51.5244 140.621 51.5509C140.278 51.5773 139.934 51.5231 139.612 51.392L140.053 47.1506Z" fill="#632D0F"/>
<path d="M137.475 53.4361C137.517 53.4361 137.558 53.4178 137.588 53.3852C137.618 53.3526 137.634 53.3084 137.634 53.2623C137.634 53.2162 137.618 53.1721 137.588 53.1395C137.558 53.1069 137.517 53.0886 137.475 53.0886C136.797 53.0193 136.143 52.7769 135.566 52.381C134.99 51.985 134.507 51.4467 134.157 50.8095C134.135 50.7707 134.101 50.7419 134.061 50.7287C134.022 50.7155 133.979 50.7188 133.941 50.7379C133.922 50.7478 133.905 50.7617 133.89 50.7789C133.876 50.7961 133.865 50.8163 133.858 50.8382C133.851 50.8601 133.848 50.8833 133.85 50.9065C133.851 50.9296 133.857 50.9522 133.866 50.973C134.237 51.6653 134.755 52.2503 135.377 52.6789C135.998 53.1076 136.705 53.3672 137.438 53.4361H137.475Z" fill="#263238"/>
<path d="M135.469 41.7442C135.544 41.7186 135.607 41.6641 135.647 41.5909C135.85 41.2103 136.134 40.8883 136.475 40.6518C136.816 40.4153 137.204 40.2712 137.606 40.2316C137.683 40.2173 137.752 40.1741 137.802 40.1096C137.852 40.0451 137.879 39.9634 137.879 39.879C137.879 39.7945 137.852 39.7128 137.802 39.6483C137.752 39.5838 137.683 39.5406 137.606 39.5264C137.096 39.571 136.604 39.7484 136.17 40.0436C135.736 40.3389 135.374 40.7433 135.113 41.2229C135.09 41.2618 135.075 41.3051 135.069 41.3503C135.062 41.3956 135.063 41.4419 135.073 41.4865C135.082 41.5312 135.1 41.5733 135.124 41.6105C135.149 41.6477 135.18 41.6793 135.216 41.7033C135.253 41.7294 135.295 41.7465 135.338 41.7536C135.382 41.7607 135.427 41.7574 135.469 41.7442Z" fill="#263238"/>
<path d="M145.058 43.6451C145.106 43.6317 145.148 43.6032 145.18 43.5633C145.24 43.4964 145.274 43.4065 145.274 43.3129C145.274 43.2193 145.24 43.1294 145.18 43.0625C144.813 42.6757 144.366 42.3896 143.877 42.2279C143.388 42.0662 142.871 42.0335 142.368 42.1325C142.287 42.1587 142.217 42.2175 142.174 42.2971C142.131 42.3767 142.116 42.4711 142.134 42.5617C142.156 42.6519 142.209 42.7291 142.283 42.7768C142.357 42.8245 142.444 42.8391 142.528 42.8172C142.926 42.7453 143.335 42.7763 143.721 42.9076C144.107 43.039 144.459 43.267 144.749 43.5735C144.789 43.6167 144.839 43.6465 144.894 43.6592C144.949 43.6719 145.006 43.667 145.058 43.6451Z" fill="#263238"/>
<path d="M136.228 44.5853L137.578 44.34C137.578 44.34 136.791 45.3722 136.228 44.5853Z" fill="#263238"/>
<path d="M86.9375 31.445L20.6824 36.393C16.0334 36.7402 12.54 40.8728 12.8797 45.6233L23.9496 200.397C24.2893 205.147 28.3336 208.717 32.9827 208.37L99.2378 203.422C103.887 203.075 107.38 198.942 107.04 194.191L95.9706 39.4181C95.6309 34.6675 91.5866 31.0978 86.9375 31.445Z" fill="#263238"/>
<path d="M96.9819 61.0772L95.8585 61.1611C94.9861 61.2263 94.3306 62.0018 94.3943 62.8932L95.8854 83.7411C95.9492 84.6326 96.7081 85.3024 97.5805 85.2373L98.7039 85.1534C99.5763 85.0882 100.232 84.3127 100.168 83.4213L98.677 62.5734C98.6132 61.6819 97.8543 61.0121 96.9819 61.0772Z" fill="#263238"/>
<path d="M14.5839 67.2381L13.2921 67.3345C12.4662 67.3962 11.8456 68.1304 11.906 68.9743L12.5284 77.6765C12.5887 78.5204 13.3072 79.1545 14.1331 79.0928L15.4249 78.9964C16.2508 78.9347 16.8714 78.2006 16.8111 77.3566L16.1887 68.6545C16.1283 67.8105 15.4098 67.1764 14.5839 67.2381Z" fill="#263238"/>
<path d="M15.6964 82.7735L14.4045 82.87C13.5786 82.9317 12.9581 83.6658 13.0184 84.5098L13.6403 93.2047C13.7007 94.0487 14.4191 94.6828 15.245 94.6211L16.5368 94.5247C17.3627 94.463 17.9833 93.7288 17.923 92.8849L17.3011 84.1899C17.2407 83.346 16.5223 82.7119 15.6964 82.7735Z" fill="#263238"/>
<path d="M97.829 203.552L31.5662 208.501C30.4574 208.586 29.343 208.447 28.2869 208.091C27.2309 207.735 26.254 207.17 25.4123 206.427C24.5705 205.685 23.8805 204.78 23.3819 203.764C22.8832 202.749 22.5857 201.643 22.5063 200.509L11.4684 45.7259C11.3095 43.4469 12.0412 41.1965 13.5033 39.468C14.9653 37.7394 17.0384 36.6736 19.2682 36.5042L85.531 31.5553C86.6376 31.474 87.749 31.6162 88.8018 31.9738C89.8546 32.3314 90.8281 32.8974 91.6668 33.6395C92.5054 34.3816 93.1929 35.2853 93.6898 36.2989C94.1866 37.3125 94.4833 38.4162 94.5627 39.5469L105.629 194.33C105.788 196.609 105.056 198.86 103.594 200.588C102.132 202.317 100.059 203.383 97.829 203.552Z" fill="#47D163"/>
<path opacity="0.9" d="M93.3533 41.1124L12.8952 47.1211C12.4958 47.1509 12.1957 47.5059 12.2249 47.914L22.9976 198.534C23.0268 198.942 23.3743 199.248 23.7736 199.218L104.232 193.21C104.631 193.18 104.931 192.825 104.902 192.417L94.1293 41.7974C94.1001 41.3893 93.7527 41.0826 93.3533 41.1124Z" fill="white"/>
<path opacity="0.2" d="M44.6948 38.5974L60.6745 37.4105C60.9487 37.3906 61.2194 37.4823 61.4278 37.6656C61.6361 37.8488 61.7651 38.1087 61.7867 38.3888C61.8061 38.6701 61.7154 38.9478 61.5346 39.1609C61.3538 39.374 61.0976 39.505 60.8223 39.5253L44.8497 40.7194C44.5748 40.7393 44.3032 40.6478 44.0937 40.4647C43.8843 40.2817 43.7538 40.0217 43.7304 39.7411C43.7128 39.4594 43.804 39.182 43.9843 38.9682C44.1645 38.7544 44.4196 38.6213 44.6948 38.5974Z" fill="black"/>
<path d="M85.8576 50.3639L21.4321 54.9722C19.6437 55.1001 18.2954 56.6852 18.4206 58.5127L23.9159 138.731C24.0411 140.559 25.5924 141.936 27.3807 141.809L91.8063 137.2C93.5947 137.072 94.9429 135.487 94.8178 133.66L89.3224 53.4412C89.1973 51.6137 87.646 50.236 85.8576 50.3639Z" fill="white"/>
<path d="M51.1849 123.793L50.1149 125.49L49.0308 127.094C48.2987 128.149 47.5572 129.197 46.8063 130.238C45.2787 132.288 43.6948 134.302 42.0405 136.259C40.3863 138.215 38.6405 140.107 36.8595 141.97C35.9537 142.891 35.0292 143.792 34.0859 144.675L33.2482 145.466C32.6453 146.018 31.958 146.465 31.2138 146.789C30.6456 147.031 30.0453 147.183 29.4328 147.243C28.7079 147.314 27.9763 147.24 27.2787 147.027C26.6589 146.835 26.0739 146.541 25.547 146.156C25.1587 145.866 24.8023 145.533 24.484 145.164C24.0476 144.657 23.6784 144.093 23.3859 143.488C23.1608 143.05 22.9678 142.595 22.8086 142.128C22.5446 141.364 22.3306 140.583 22.168 139.79C21.8811 138.418 21.6743 137.03 21.5486 135.633C21.3163 132.95 21.2177 130.367 21.2318 127.799C21.2459 122.7 21.5539 117.605 22.154 112.543L27.1661 112.658C27.6166 117.556 28.0531 122.52 28.6444 127.339C28.9541 129.749 29.2639 132.151 29.7285 134.41C29.9312 135.485 30.1873 136.548 30.4958 137.597C30.6213 138.02 30.7765 138.433 30.9604 138.834C31.0131 138.95 31.0768 139.061 31.1504 139.165C31.1927 139.222 31.2208 139.201 31.0871 139.028C30.9737 138.892 30.8435 138.771 30.6999 138.668C30.4246 138.462 30.1177 138.304 29.7918 138.201C29.3493 138.052 28.8795 138.007 28.4176 138.069C27.9557 138.131 27.5134 138.299 27.1238 138.56L27.2646 138.395L27.5603 138.057L28.7289 136.733L29.8763 135.381C31.4039 133.576 32.8751 131.705 34.3393 129.814C35.8036 127.922 37.2115 125.994 38.563 124.059C39.267 123.095 39.9709 122.117 40.6749 121.139L42.6459 118.261L51.1849 123.793Z" fill="#F4B9A6"/>
<path d="M33.2834 130.461L43.5329 138.891C43.5329 138.891 43.9553 138.453 44.6522 137.69C45.159 137.122 45.8137 136.381 46.574 135.532C50.854 130.583 58.0906 121.448 57.3866 116.945C56.2955 109.953 49.4813 110.982 43.5892 114.377C40.8508 117.974 37.4649 123.34 35.6487 126.361C35.0503 127.361 34.5505 128.231 34.1563 128.907C33.6002 129.871 33.2834 130.461 33.2834 130.461Z" fill="#263238"/>
<path opacity="0.8" d="M34.1563 128.886L44.6522 137.69C45.159 137.122 45.8137 136.381 46.574 135.532L35.6487 126.361C35.0503 127.339 34.5505 128.224 34.1563 128.886Z" fill="white"/>
<path d="M27.152 114.06L27.2928 105.429L23.3295 105.767C22.8179 105.811 22.3241 105.98 21.8887 106.258C21.4533 106.536 21.0889 106.916 20.8255 107.366C20.5622 107.817 20.4074 108.325 20.374 108.848C20.3406 109.372 20.4295 109.896 20.6334 110.377C21.6752 112.866 23.0831 115.513 24.2939 115.413L27.152 114.06Z" fill="#F4B9A6"/>
<path d="M26.075 97.6167L24.8431 97.1852L24.7445 106.486L27.2998 105.443L26.075 97.6167Z" fill="#F4B9A6"/>
<path d="M22.8227 97.1276L21.633 97.1564L22.8156 107.407L25.3639 106.356L22.8227 97.1276Z" fill="#F4B9A6"/>
<path d="M19.8168 106.241L19.3452 109.111L22.4496 111.629L23.4844 105.098L19.8168 106.241Z" fill="#F4B9A6"/>
<path d="M65.6933 168.865L98.075 153.522C96.9627 150.458 91.9295 141.164 86.8681 128.684C83.0621 119.462 80.0404 109.922 77.8364 100.17C77.6815 99.4511 77.5337 98.7317 77.3859 97.9621C77.3859 97.9621 75.5838 98.3937 73.0777 99.1561C70.9659 99.7891 68.4035 100.652 65.9467 101.674C61.2416 103.579 56.6468 105.758 52.1845 108.198C50.1641 109.399 48.2564 110.737 46.757 111.845C44.8493 113.284 43.5892 114.355 43.5892 114.355C43.5892 114.355 44.2861 136.733 65.6933 168.865Z" fill="#263238"/>
<path opacity="0.2" d="M86.8751 128.684C83.0619 119.465 80.0399 109.924 77.8435 100.17C75.5908 101.005 71.9866 102.976 72.9932 106.838C74.0773 110.96 79.005 119.628 86.8751 128.684Z" fill="black"/>
<path d="M81.0534 101.026C82.1516 101.746 83.0879 102.371 84.0663 103.084C85.0448 103.796 85.9811 104.486 86.9244 105.242C88.8016 106.68 90.6295 108.21 92.4081 109.831C94.1751 111.449 95.9279 113.118 97.5611 114.931C99.2603 116.747 100.834 118.682 102.27 120.721L102.545 121.103L102.679 121.297L102.897 121.621C103.178 122.054 103.428 122.509 103.643 122.98C103.997 123.772 104.27 124.599 104.46 125.447C104.766 126.865 104.931 128.311 104.953 129.763C104.992 132.297 104.816 134.829 104.425 137.33C104.059 139.747 103.58 142.1 103.017 144.416C102.454 146.732 101.785 148.983 100.961 151.278L96.0828 150.113C96.4418 145.646 96.7867 141.071 96.7867 136.697C96.809 134.586 96.6891 132.476 96.4277 130.382C96.319 129.515 96.1257 128.662 95.8505 127.835C95.7619 127.564 95.6438 127.303 95.4985 127.059C95.4492 126.994 95.407 126.929 95.3859 126.929L95.2591 126.785L95.0057 126.49L94.0061 125.318L92.908 124.138C92.204 123.376 91.4367 122.628 90.6764 121.887C89.1418 120.448 87.5157 119.009 85.8614 117.571C84.2071 116.132 82.4895 114.837 80.7578 113.507C79.899 112.845 79.0284 112.193 78.1461 111.55L75.5626 109.701L81.0534 101.026Z" fill="#F4B9A6"/>
<path d="M74.4575 113.032C77.9125 116.605 81.5699 119.968 85.4109 123.102C86.2627 123.822 87.03 124.44 87.6565 124.944C88.7547 125.836 89.4375 126.382 89.4375 126.382L98.5889 113.622C98.5889 113.622 98.1947 113.168 97.5118 112.42C96.9979 111.852 96.3222 111.104 95.5197 110.262C90.7821 105.285 81.7856 96.6456 77.4211 97.9764C70.8532 99.9473 68.5724 106.709 74.4575 113.032Z" fill="#263238"/>
<path opacity="0.8" d="M85.4109 123.109C86.2627 123.829 87.03 124.447 87.6565 124.951L97.5118 112.413C96.9979 111.845 96.3221 111.097 95.5196 110.255L85.4109 123.109Z" fill="white"/>
<path opacity="0.8" d="M48.7773 115.665C50.4316 117.564 53.6064 119.65 59.2802 118.801L60.7726 118.578L61.9904 117.707C71.3882 110.975 72.613 103.566 72.7609 102.149L73.0777 99.1561C70.9658 99.7891 68.4034 100.652 65.9466 101.674C61.2416 103.579 56.6467 105.758 52.1844 108.198C50.1641 109.399 48.2564 110.737 46.757 111.845C47.1355 113.259 47.8267 114.566 48.7773 115.665Z" fill="white"/>
<path d="M58.3722 112.399C65.9044 107.004 66.4958 101.429 66.4958 101.429C62.1242 99.825 59.5337 91.0278 58.4989 86.0141L56.2322 90.8767L53.1489 97.5088C53.6059 98.1288 54.0244 98.7775 54.4019 99.451C55.9365 102.105 56.38 104.968 52.818 107.831C52.818 107.838 51.3749 113.478 58.3722 112.399Z" fill="#F4B9A6"/>
<path opacity="0.2" d="M53.1489 97.5376C53.6049 98.1483 54.0234 98.7873 54.4019 99.451C56.0984 98.1778 57.6753 94.9624 57.0487 92.8836C56.8474 92.1937 56.5736 91.528 56.2322 90.8983L53.1489 97.5376Z" fill="black"/>
<path d="M38.7038 76.2314C36.592 79.2309 39.6401 88.3735 44.2651 87.9994C48.89 87.6254 42.7164 70.5631 38.7038 76.2314Z" fill="#263238"/>
<path d="M57.0558 78.7994C58.506 85.4243 59.6816 89.2151 57.45 93.6102C56.7395 95.0458 55.6585 96.2556 54.3238 97.109C52.9891 97.9623 51.4516 98.4267 49.8774 98.4519C48.3032 98.477 46.7522 98.0621 45.3921 97.2519C44.0319 96.4416 42.9144 95.2669 42.1602 93.8547C39.1614 88.467 37.2959 78.5404 42.7163 73.9008C43.8645 72.8651 45.2589 72.156 46.7598 71.8446C48.2607 71.5333 49.8153 71.6306 51.2678 72.1268C52.7203 72.623 54.0196 73.5006 55.0355 74.6717C56.0514 75.8429 56.7481 77.2663 57.0558 78.7994Z" fill="#F4B9A6"/>
<path d="M46.8133 66.9593C51.3256 67.6787 57.4993 59.2986 61.1809 69.592C64.6303 69.5345 64.8274 74.3108 64.039 77.7779C62.9408 82.5973 60.829 85.6041 58.1399 84.8992C55.9858 84.8344 52.4449 80.1157 52.5083 76.1451C48.9885 75.6128 36.592 85.3236 33.5016 77.6988C30.1156 69.2899 43.7441 64.2547 49.242 63.9022C45.7926 64.9956 44.1313 66.5493 46.8133 66.9593Z" fill="#263238"/>
<path d="M61.2654 84.4388C60.8474 86.0664 59.8895 87.4953 58.5552 88.4814C56.8446 89.6827 55.6338 88.1218 55.8028 85.9782C55.9576 84.0504 57.0347 81.094 58.9002 80.7559C60.7656 80.4178 61.7934 82.3888 61.2654 84.4388Z" fill="#F4B9A6"/>
<path d="M48.0382 83.7986C48.186 84.3309 48.0382 84.8488 47.7003 84.9639C47.3624 85.079 46.9963 84.7337 46.8274 84.2086C46.6585 83.6835 46.8274 83.1584 47.1583 83.0433C47.4891 82.9282 47.8904 83.2735 48.0382 83.7986Z" fill="#263238"/>
<path d="M42.2236 85.7336C42.3785 86.2587 42.2236 86.7838 41.8927 86.8917C41.5619 86.9996 41.1888 86.6687 41.0128 86.1724C40.8368 85.676 41.0128 85.1221 41.3507 85.0142C41.6886 84.9063 42.1039 85.2013 42.2236 85.7336Z" fill="#263238"/>
<path d="M44.1665 85.3811C44.1665 85.3811 43.8638 88.8195 42.998 90.7185C44.1525 91.2939 45.5815 90.3804 45.5815 90.3804L44.1665 85.3811Z" fill="#ED847E"/>
<path d="M48.0734 91.1069C48.6424 90.8452 49.1538 90.4688 49.5772 90.0004C50.0005 89.532 50.327 88.9811 50.5372 88.3807C50.5437 88.3604 50.546 88.339 50.5442 88.3177C50.5423 88.2965 50.5363 88.2758 50.5264 88.257C50.5166 88.2382 50.5031 88.2216 50.4868 88.2082C50.4705 88.1949 50.4517 88.185 50.4316 88.1793C50.4117 88.1727 50.3908 88.1702 50.3699 88.1721C50.3491 88.174 50.3289 88.1802 50.3105 88.1903C50.2921 88.2003 50.2759 88.2141 50.2628 88.2308C50.2497 88.2474 50.2401 88.2666 50.2345 88.2872C50.0015 88.9344 49.6267 89.5186 49.1386 89.9949C48.6505 90.4712 48.0622 90.827 47.4187 91.035C47.3795 91.0483 47.3471 91.0771 47.3286 91.1148C47.3101 91.1526 47.3071 91.1963 47.3201 91.2364C47.3332 91.2765 47.3613 91.3096 47.3983 91.3285C47.4352 91.3473 47.478 91.3505 47.5172 91.3371C47.7071 91.2723 47.8929 91.1954 48.0734 91.1069Z" fill="#263238"/>
<path d="M49.263 81.2738C49.3092 81.2488 49.3499 81.2145 49.3827 81.1731C49.4073 81.1386 49.425 81.0996 49.4348 81.0581C49.4445 81.0167 49.4462 80.9737 49.4397 80.9315C49.4331 80.8894 49.4185 80.8491 49.3967 80.8127C49.3748 80.7764 49.3461 80.7449 49.3123 80.7199C48.9167 80.4115 48.4528 80.2075 47.9617 80.1259C47.4706 80.0444 46.9673 80.0878 46.4965 80.2523C46.4531 80.2639 46.4126 80.2848 46.3776 80.3136C46.3427 80.3424 46.3142 80.3785 46.2939 80.4194C46.2736 80.4603 46.2621 80.5052 46.2601 80.551C46.2581 80.5968 46.2656 80.6425 46.2822 80.6851C46.2988 80.7278 46.324 80.7663 46.3563 80.7982C46.3885 80.8301 46.427 80.8546 46.4693 80.8701C46.5115 80.8856 46.5565 80.8918 46.6012 80.8882C46.646 80.8847 46.6895 80.8714 46.7288 80.8494C47.1011 80.7276 47.4967 80.7 47.8817 80.7689C48.2668 80.8378 48.6296 81.0012 48.9392 81.245C48.9856 81.2793 49.0402 81.3 49.0972 81.3051C49.1543 81.3101 49.2116 81.2993 49.263 81.2738Z" fill="#263238"/>
<path d="M39.1895 84.5107C39.2355 84.4868 39.2753 84.4522 39.3059 84.4098C39.3364 84.3673 39.3569 84.3181 39.3655 84.2662C39.4213 83.857 39.5675 83.4662 39.7932 83.1235C40.0188 82.7807 40.3179 82.495 40.6678 82.288C40.7099 82.2733 40.7485 82.2497 40.781 82.2187C40.8136 82.1877 40.8394 82.15 40.8568 82.1082C40.8741 82.0663 40.8827 82.0212 40.8818 81.9757C40.881 81.9303 40.8708 81.8855 40.8519 81.8444C40.833 81.8032 40.8058 81.7666 40.7722 81.7368C40.7385 81.7071 40.6991 81.685 40.6565 81.6719C40.6139 81.6588 40.569 81.655 40.5249 81.6608C40.4808 81.6665 40.4383 81.6817 40.4003 81.7054C39.9543 81.954 39.5716 82.306 39.283 82.7333C38.9945 83.1606 38.8081 83.6512 38.739 84.1655C38.7268 84.2493 38.7472 84.3347 38.7959 84.4033C38.8446 84.4719 38.9177 84.5182 38.9995 84.5323C39.0635 84.544 39.1295 84.5365 39.1895 84.5107Z" fill="#263238"/>
<path d="M97.0683 147.919L90.5497 149.703L96.8853 155.364C96.8853 155.364 102.376 152.724 100.806 149.947L97.0683 147.919Z" fill="#F4B9A6"/>
<path d="M87.6777 155.414L93.1262 159.838L96.8853 155.364L90.5498 149.703L87.6777 155.414Z" fill="#F4B9A6"/>
</svg>
