<svg width="174" height="129" viewBox="0 0 174 129" fill="none" xmlns="http://www.w3.org/2000/svg">
<path d="M173.126 113.363H0V113.45H173.126V113.363Z" fill="#EBEBEB"/>
<path d="M111.327 118.19H99.8594V118.277H111.327V118.19Z" fill="#EBEBEB"/>
<path d="M143.962 117.252H140.953V117.338H143.962V117.252Z" fill="#EBEBEB"/>
<path d="M137.32 115.721H113.457V115.808H137.32V115.721Z" fill="#EBEBEB"/>
<path d="M77.9553 117.764H67.4639V117.851H77.9553V117.764Z" fill="#EBEBEB"/>
<path d="M64.3823 117.764H57.7273V117.851H64.3823V117.764Z" fill="#EBEBEB"/>
<path d="M34.3829 116.303H18.1644V116.389H34.3829V116.303Z" fill="#EBEBEB"/>
<path d="M82.062 97.9204H15.204C14.6802 97.9194 14.1782 97.7107 13.8082 97.3401C13.4382 96.9694 13.2303 96.467 13.2303 95.9433V1.95982C13.2349 1.43907 13.4447 0.941139 13.8143 0.574194C14.1838 0.207248 14.6832 0.000922599 15.204 3.05176e-05H82.062C82.5863 3.05176e-05 83.0892 0.208332 83.46 0.579111C83.8308 0.94989 84.0391 1.45277 84.0391 1.97713V95.9433C84.0391 96.4676 83.8308 96.9705 83.46 97.3413C83.0892 97.7121 82.5863 97.9204 82.062 97.9204ZM15.204 0.0692814C14.7032 0.0701986 14.2232 0.269784 13.8694 0.62423C13.5156 0.978676 13.3169 1.45902 13.3169 1.95982V95.9433C13.3169 96.4441 13.5156 96.9244 13.8694 97.2788C14.2232 97.6333 14.7032 97.8329 15.204 97.8338H82.062C82.5631 97.8329 83.0434 97.6334 83.3978 97.2791C83.7521 96.9247 83.9516 96.4444 83.9525 95.9433V1.95982C83.9516 1.4587 83.7521 0.978366 83.3978 0.624019C83.0434 0.269672 82.5631 0.0701967 82.062 0.0692814H15.204Z" fill="#EBEBEB"/>
<path d="M156.96 97.9204H90.0984C89.5744 97.9194 89.072 97.7109 88.7014 97.3403C88.3309 96.9697 88.1223 96.4673 88.1213 95.9433V1.95982C88.1268 1.43875 88.3374 0.940826 88.7075 0.573977C89.0776 0.207127 89.5773 0.000912871 90.0984 3.05176e-05H156.96C157.48 0.00183259 157.979 0.208561 158.347 0.575409C158.716 0.942256 158.926 1.43966 158.93 1.95982V95.9433C158.93 96.4664 158.723 96.9683 158.353 97.3388C157.984 97.7094 157.483 97.9185 156.96 97.9204ZM90.0984 0.0692814C89.5973 0.0701967 89.117 0.269672 88.7626 0.624019C88.4083 0.978366 88.2088 1.4587 88.2079 1.95982V95.9433C88.2088 96.4444 88.4083 96.9247 88.7626 97.2791C89.117 97.6334 89.5973 97.8329 90.0984 97.8338H156.96C157.461 97.8329 157.941 97.6334 158.296 97.2791C158.65 96.9247 158.85 96.4444 158.85 95.9433V1.95982C158.85 1.4587 158.65 0.978366 158.296 0.624019C157.941 0.269672 157.461 0.0701967 156.96 0.0692814H90.0984Z" fill="#EBEBEB"/>
<path d="M151.894 39.5109C151.893 39.1329 151.743 38.7706 151.475 38.5032C151.208 38.2359 150.846 38.0853 150.468 38.0844H106.03C105.652 38.0853 105.289 38.2359 105.022 38.5032C104.755 38.7706 104.604 39.1329 104.603 39.5109V44.1023H151.894V39.5109Z" fill="#E6E6E6"/>
<path d="M141.437 41.0933C141.438 41.3073 141.375 41.5166 141.257 41.6948C141.138 41.873 140.97 42.012 140.772 42.0942C140.575 42.1764 140.357 42.1981 140.147 42.1565C139.937 42.1149 139.745 42.012 139.593 41.8607C139.442 41.7094 139.339 41.5166 139.297 41.3067C139.256 41.0968 139.278 40.8793 139.36 40.6818C139.442 40.4842 139.581 40.3155 139.759 40.1971C139.937 40.0787 140.147 40.0158 140.361 40.0165C140.646 40.0174 140.919 40.1311 141.121 40.3329C141.323 40.5346 141.437 40.808 141.437 41.0933Z" fill="white"/>
<path d="M145.26 41.0934C145.261 41.3072 145.198 41.5164 145.08 41.6945C144.961 41.8726 144.793 42.0116 144.595 42.0939C144.398 42.1762 144.181 42.1981 143.971 42.1568C143.761 42.1155 143.568 42.0129 143.417 41.8619C143.266 41.711 143.162 41.5185 143.12 41.3089C143.078 41.0992 143.1 40.8818 143.181 40.6842C143.263 40.4866 143.401 40.3177 143.579 40.1988C143.757 40.08 143.966 40.0165 144.18 40.0165C144.466 40.0165 144.74 40.1298 144.942 40.3317C145.145 40.5335 145.259 40.8074 145.26 41.0934Z" fill="white"/>
<path d="M148.002 42.1737C148.599 42.1737 149.083 41.69 149.083 41.0933C149.083 40.4967 148.599 40.013 148.002 40.013C147.406 40.013 146.922 40.4967 146.922 41.0933C146.922 41.69 147.406 42.1737 148.002 42.1737Z" fill="white"/>
<path d="M106.03 75.0296H150.468C150.846 75.0287 151.208 74.8781 151.475 74.6108C151.743 74.3434 151.893 73.9811 151.894 73.6031V44.1023H104.603V73.6031C104.604 73.9811 104.755 74.3434 105.022 74.6108C105.289 74.8781 105.652 75.0287 106.03 75.0296Z" fill="#F0F0F0"/>
<path d="M155.502 50.3106C155.501 49.9325 155.351 49.5702 155.083 49.3029C154.816 49.0355 154.454 48.8849 154.076 48.884H109.638C109.26 48.8849 108.897 49.0355 108.63 49.3029C108.363 49.5702 108.212 49.9325 108.211 50.3106V54.9019H155.502V50.3106Z" fill="#F0F0F0"/>
<path d="M145.049 51.893C145.049 52.1066 144.985 52.3155 144.867 52.4931C144.748 52.6708 144.579 52.8093 144.382 52.891C144.185 52.9728 143.967 52.9942 143.758 52.9525C143.548 52.9108 143.356 52.8079 143.205 52.6569C143.054 52.5058 142.951 52.3133 142.909 52.1037C142.867 51.8942 142.889 51.6769 142.97 51.4795C143.052 51.2821 143.191 51.1134 143.368 50.9947C143.546 50.876 143.755 50.8127 143.968 50.8127C144.255 50.8127 144.53 50.9265 144.732 51.1291C144.935 51.3317 145.049 51.6064 145.049 51.893Z" fill="#E6E6E6"/>
<path d="M148.868 51.893C148.868 52.1068 148.805 52.3158 148.686 52.4935C148.567 52.6712 148.398 52.8097 148.2 52.8914C148.003 52.973 147.785 52.9942 147.576 52.9523C147.366 52.9103 147.173 52.8071 147.023 52.6556C146.872 52.5042 146.769 52.3114 146.728 52.1016C146.686 51.8918 146.708 51.6745 146.791 51.4771C146.873 51.2798 147.012 51.1113 147.19 50.993C147.368 50.8748 147.577 50.812 147.791 50.8127C148.077 50.8136 148.351 50.9278 148.553 51.1303C148.755 51.3328 148.868 51.607 148.868 51.893Z" fill="#E6E6E6"/>
<path d="M152.698 51.893C152.698 52.1068 152.634 52.3158 152.515 52.4935C152.396 52.6712 152.227 52.8097 152.03 52.8914C151.832 52.973 151.615 52.9942 151.405 52.9523C151.196 52.9103 151.003 52.8071 150.852 52.6556C150.701 52.5042 150.599 52.3114 150.557 52.1016C150.516 51.8918 150.538 51.6745 150.62 51.4771C150.702 51.2798 150.841 51.1113 151.02 50.993C151.198 50.8748 151.407 50.812 151.621 50.8127C151.907 50.8136 152.181 50.9278 152.382 51.1303C152.584 51.3328 152.698 51.607 152.698 51.893Z" fill="#E6E6E6"/>
<path d="M109.638 85.8292H154.083C154.461 85.8283 154.823 85.6777 155.09 85.4104C155.358 85.1431 155.508 84.7807 155.509 84.4027V54.9019H108.211V84.4027C108.212 84.7807 108.363 85.1431 108.63 85.4104C108.897 85.6777 109.26 85.8283 109.638 85.8292Z" fill="#FAFAFA"/>
<path d="M17.1949 6.37456C17.1968 6.01638 17.3401 5.67343 17.5937 5.42048C17.8473 5.16753 18.1906 5.02508 18.5488 5.02417H76.8682C77.2264 5.02508 77.5697 5.16753 77.8233 5.42048C78.0769 5.67343 78.2202 6.01638 78.222 6.37456V10.7339H17.1949V6.37456Z" fill="#E0E0E0"/>
<path d="M28.1366 9.00261C27.9167 9.00261 27.7018 8.93742 27.5191 8.81529C27.3363 8.69316 27.1938 8.51957 27.1097 8.31648C27.0256 8.11338 27.0036 7.8899 27.0464 7.6743C27.0893 7.45869 27.1952 7.26065 27.3506 7.10521C27.5061 6.94976 27.7041 6.84391 27.9197 6.80102C28.1353 6.75813 28.3588 6.78015 28.5619 6.86427C28.765 6.94839 28.9386 7.09086 29.0607 7.27364C29.1828 7.45642 29.248 7.67131 29.248 7.89114C29.248 8.18592 29.1309 8.46862 28.9225 8.67707C28.714 8.88551 28.4313 9.00261 28.1366 9.00261ZM28.1366 6.95625C27.9517 6.95625 27.7709 7.01108 27.6172 7.11381C27.4634 7.21653 27.3436 7.36254 27.2728 7.53337C27.2021 7.7042 27.1836 7.89217 27.2196 8.07352C27.2557 8.25487 27.3448 8.42145 27.4755 8.5522C27.6062 8.68294 27.7728 8.77198 27.9542 8.80805C28.1355 8.84413 28.3235 8.82561 28.4943 8.75486C28.6651 8.6841 28.8112 8.56427 28.9139 8.41053C29.0166 8.25679 29.0714 8.07604 29.0714 7.89114C29.0733 7.7672 29.0505 7.64415 29.0043 7.52912C28.9581 7.41409 28.8896 7.30939 28.8026 7.2211C28.7156 7.13282 28.6119 7.06271 28.4975 7.01487C28.3832 6.96702 28.2605 6.94239 28.1366 6.9424V6.95625Z" fill="white"/>
<path d="M24.5112 9.00261C24.292 9.00259 24.0777 8.93774 23.8952 8.81621C23.7127 8.69468 23.5703 8.5219 23.4858 8.31962C23.4012 8.11733 23.3784 7.89456 23.4202 7.67934C23.462 7.46413 23.5665 7.26607 23.7205 7.11009C23.8746 6.95411 24.0713 6.84717 24.286 6.80274C24.5007 6.7583 24.7237 6.77834 24.9271 6.86035C25.1304 6.94235 25.3049 7.08265 25.4287 7.2636C25.5525 7.44455 25.62 7.65807 25.6227 7.87729C25.6245 8.02441 25.5971 8.17043 25.5421 8.30688C25.4871 8.44333 25.4055 8.5675 25.3021 8.67218C25.1987 8.77687 25.0756 8.85998 24.9398 8.9167C24.804 8.97342 24.6584 9.00262 24.5112 9.00261ZM24.5112 6.95625C24.3263 6.95625 24.1456 7.01108 23.9918 7.11381C23.8381 7.21653 23.7183 7.36254 23.6475 7.53337C23.5767 7.7042 23.5582 7.89217 23.5943 8.07352C23.6304 8.25487 23.7194 8.42145 23.8502 8.5522C23.9809 8.68294 24.1475 8.77198 24.3288 8.80806C24.5102 8.84413 24.6982 8.82562 24.869 8.75486C25.0398 8.6841 25.1858 8.56427 25.2886 8.41053C25.3913 8.25679 25.4461 8.07604 25.4461 7.89114C25.4479 7.76721 25.4251 7.64415 25.379 7.52912C25.3328 7.41409 25.2642 7.30939 25.1772 7.2211C25.0902 7.13282 24.9866 7.06271 24.8722 7.01487C24.7579 6.96702 24.6352 6.94239 24.5112 6.9424V6.95625Z" fill="white"/>
<path d="M20.8859 9.00261C20.6661 9.00261 20.4512 8.93742 20.2684 8.81529C20.0857 8.69316 19.9432 8.51957 19.8591 8.31648C19.775 8.11338 19.7529 7.8899 19.7958 7.6743C19.8387 7.45869 19.9446 7.26065 20.1 7.10521C20.2555 6.94976 20.4535 6.84391 20.6691 6.80102C20.8847 6.75813 21.1082 6.78015 21.3113 6.86427C21.5144 6.94839 21.688 7.09086 21.8101 7.27364C21.9322 7.45642 21.9974 7.67131 21.9974 7.89114C21.9974 8.18592 21.8803 8.46862 21.6719 8.67707C21.4634 8.88551 21.1807 9.00261 20.8859 9.00261ZM20.8859 6.95625C20.701 6.95625 20.5203 7.01108 20.3666 7.11381C20.2128 7.21653 20.093 7.36254 20.0222 7.53337C19.9515 7.7042 19.933 7.89217 19.969 8.07352C20.0051 8.25487 20.0941 8.42145 20.2249 8.5522C20.3556 8.68294 20.5222 8.77198 20.7036 8.80805C20.8849 8.84413 21.0729 8.82561 21.2437 8.75486C21.4145 8.6841 21.5605 8.56427 21.6633 8.41053C21.766 8.25679 21.8208 8.07604 21.8208 7.89114C21.8227 7.7672 21.7998 7.64415 21.7537 7.52912C21.7075 7.41409 21.6389 7.30939 21.552 7.2211C21.465 7.13282 21.3613 7.06271 21.2469 7.01487C21.1326 6.96702 21.0099 6.94239 20.8859 6.9424V6.95625Z" fill="white"/>
<path d="M18.5488 46.9381H76.8682C77.227 46.9372 77.5708 46.7942 77.8245 46.5405C78.0782 46.2868 78.2211 45.943 78.222 45.5842V10.7339H17.1949V45.5842C17.1959 45.943 17.3388 46.2868 17.5925 46.5405C17.8462 46.7942 18.19 46.9372 18.5488 46.9381Z" fill="#EBEBEB"/>
<path d="M31.8242 15.5156C31.826 15.1575 31.9693 14.8145 32.2229 14.5616C32.4765 14.3086 32.8198 14.1662 33.178 14.1653H91.487C91.8452 14.1662 92.1885 14.3086 92.4421 14.5616C92.6957 14.8145 92.839 15.1575 92.8409 15.5156V19.8715H31.8242V15.5156Z" fill="#FAFAFA"/>
<path d="M42.7657 18.1298C42.5459 18.1298 42.331 18.0646 42.1482 17.9425C41.9654 17.8204 41.823 17.6468 41.7388 17.4437C41.6547 17.2406 41.6327 17.0171 41.6756 16.8015C41.7185 16.5859 41.8243 16.3879 41.9798 16.2324C42.1352 16.077 42.3333 15.9711 42.5489 15.9282C42.7645 15.8854 42.988 15.9074 43.191 15.9915C43.3941 16.0756 43.5677 16.2181 43.6899 16.4009C43.812 16.5836 43.8772 16.7985 43.8772 17.0184C43.8772 17.3131 43.7601 17.5959 43.5516 17.8043C43.3432 18.0127 43.0605 18.1298 42.7657 18.1298ZM42.7657 16.0835C42.5808 16.0835 42.4001 16.1383 42.2463 16.241C42.0926 16.3438 41.9727 16.4898 41.902 16.6606C41.8312 16.8314 41.8127 17.0194 41.8488 17.2007C41.8849 17.3821 41.9739 17.5487 42.1046 17.6794C42.2354 17.8102 42.402 17.8992 42.5833 17.9353C42.7647 17.9714 42.9526 17.9528 43.1235 17.8821C43.2943 17.8113 43.4403 17.6915 43.543 17.5378C43.6458 17.384 43.7006 17.2033 43.7006 17.0184C43.7006 16.7704 43.6021 16.5326 43.4268 16.3573C43.2514 16.182 43.0137 16.0835 42.7657 16.0835Z" fill="#E6E6E6"/>
<path d="M39.1265 18.1298C38.9067 18.1298 38.6918 18.0646 38.509 17.9425C38.3263 17.8204 38.1838 17.6468 38.0997 17.4437C38.0156 17.2406 37.9935 17.0171 38.0364 16.8015C38.0793 16.5859 38.1852 16.3879 38.3406 16.2324C38.4961 16.077 38.6941 15.9711 38.9097 15.9282C39.1253 15.8854 39.3488 15.9074 39.5519 15.9915C39.755 16.0756 39.9286 16.2181 40.0507 16.4009C40.1728 16.5836 40.238 16.7985 40.238 17.0184C40.238 17.3131 40.1209 17.5959 39.9125 17.8043C39.704 18.0127 39.4213 18.1298 39.1265 18.1298ZM39.1265 16.0835C38.9416 16.0835 38.7609 16.1383 38.6072 16.241C38.4534 16.3438 38.3336 16.4898 38.2628 16.6606C38.1921 16.8314 38.1736 17.0194 38.2096 17.2007C38.2457 17.3821 38.3347 17.5487 38.4655 17.6794C38.5962 17.8102 38.7628 17.8992 38.9442 17.9353C39.1255 17.9714 39.3135 17.9528 39.4843 17.8821C39.6551 17.8113 39.8011 17.6915 39.9039 17.5378C40.0066 17.384 40.0614 17.2033 40.0614 17.0184C40.0614 16.7704 39.9629 16.5326 39.7876 16.3573C39.6123 16.182 39.3745 16.0835 39.1265 16.0835Z" fill="#E6E6E6"/>
<path d="M35.5152 18.1298C35.2953 18.1298 35.0804 18.0646 34.8977 17.9425C34.7149 17.8204 34.5724 17.6468 34.4883 17.4437C34.4042 17.2406 34.3822 17.0171 34.425 16.8015C34.4679 16.5859 34.5738 16.3879 34.7292 16.2324C34.8847 16.077 35.0827 15.9711 35.2983 15.9282C35.5139 15.8854 35.7374 15.9074 35.9405 15.9915C36.1436 16.0756 36.3172 16.2181 36.4393 16.4009C36.5614 16.5836 36.6266 16.7985 36.6266 17.0184C36.6266 17.3131 36.5095 17.5959 36.3011 17.8043C36.0926 18.0127 35.8099 18.1298 35.5152 18.1298ZM35.5152 16.0835C35.3303 16.0835 35.1495 16.1383 34.9958 16.241C34.842 16.3438 34.7222 16.4898 34.6514 16.6606C34.5807 16.8314 34.5622 17.0194 34.5982 17.2007C34.6343 17.3821 34.7234 17.5487 34.8541 17.6794C34.9848 17.8102 35.1514 17.8992 35.3328 17.9353C35.5141 17.9714 35.7021 17.9528 35.8729 17.8821C36.0438 17.8113 36.1898 17.6915 36.2925 17.5378C36.3952 17.384 36.45 17.2033 36.45 17.0184C36.45 16.7704 36.3515 16.5326 36.1762 16.3573C36.0009 16.182 35.7631 16.0835 35.5152 16.0835Z" fill="#E6E6E6"/>
<path d="M33.178 62.9523H91.487C91.8458 62.9514 92.1896 62.8085 92.4433 62.5548C92.697 62.3011 92.8399 61.9572 92.8409 61.5985V19.8715H31.8242V61.5985C31.8251 61.9572 31.968 62.3011 32.2217 62.5548C32.4754 62.8085 32.8192 62.9514 33.178 62.9523Z" fill="#F5F5F5"/>
<path d="M120.877 22.9532H100.31C100.061 22.9532 99.8594 23.1547 99.8594 23.4033V26.7792C99.8594 27.0278 100.061 27.2294 100.31 27.2294H120.877C121.126 27.2294 121.327 27.0278 121.327 26.7792V23.4033C121.327 23.1547 121.126 22.9532 120.877 22.9532Z" fill="#E6E6E6"/>
<path d="M136.161 15.7026L100.31 15.9277C100.19 15.9277 100.076 15.9751 99.9912 16.0595C99.9068 16.1439 99.8594 16.2584 99.8594 16.3778V19.7572C99.8612 19.8763 99.9098 19.9899 99.9947 20.0735C100.08 20.1571 100.194 20.2039 100.313 20.2039L136.164 19.9788C136.283 19.9779 136.396 19.9301 136.48 19.8458C136.564 19.7614 136.611 19.6475 136.611 19.5287V16.1493C136.611 16.0903 136.599 16.0319 136.576 15.9775C136.554 15.9231 136.52 15.8737 136.479 15.8322C136.437 15.7907 136.387 15.7578 136.333 15.7356C136.278 15.7133 136.219 15.7021 136.161 15.7026Z" fill="#F0F0F0"/>
<path d="M128.301 8.67371H100.31C100.061 8.67371 99.8594 8.87523 99.8594 9.12383V12.4998C99.8594 12.7484 100.061 12.9499 100.31 12.9499H128.301C128.549 12.9499 128.751 12.7484 128.751 12.4998V9.12383C128.751 8.87523 128.549 8.67371 128.301 8.67371Z" fill="#F0F0F0"/>
<path d="M28.3997 77.945H21.2703C21.1498 77.945 21.0522 78.0427 21.0522 78.1632V80.5662C21.0522 80.6867 21.1498 80.7843 21.2703 80.7843H28.3997C28.5201 80.7843 28.6178 80.6867 28.6178 80.5662V78.1632C28.6178 78.0427 28.5201 77.945 28.3997 77.945Z" fill="#E6E6E6"/>
<path d="M33.8462 73.2568L21.2115 73.4057C21.1214 73.4057 21.0522 73.5407 21.0522 73.7034V75.9472C21.0522 76.1099 21.1249 76.2449 21.2115 76.2449L33.8497 76.0926C33.9363 76.0926 34.009 75.9575 34.009 75.7948V73.5511C34.0055 73.4057 33.9328 73.2568 33.8462 73.2568Z" fill="#F0F0F0"/>
<path d="M31.0173 68.7209H21.2703C21.1498 68.7209 21.0522 68.8185 21.0522 68.939V71.342C21.0522 71.4625 21.1498 71.5601 21.2703 71.5601H31.0173C31.1378 71.5601 31.2355 71.4625 31.2355 71.342V68.939C31.2355 68.8185 31.1378 68.7209 31.0173 68.7209Z" fill="#F0F0F0"/>
<path d="M33.8462 87.0965L21.2115 87.2558C21.1214 87.2558 21.0522 87.3908 21.0522 87.5536V89.7973C21.0522 89.96 21.1249 90.0951 21.2115 90.0951L33.8497 89.9427C33.9363 89.9427 34.009 89.8077 34.009 89.6449V87.4012C34.0055 87.2316 33.9328 87.0965 33.8462 87.0965Z" fill="#F0F0F0"/>
<path d="M31.0173 82.5606H21.2703C21.1498 82.5606 21.0522 82.6583 21.0522 82.7787V85.1817C21.0522 85.3022 21.1498 85.3999 21.2703 85.3999H31.0173C31.1378 85.3999 31.2355 85.3022 31.2355 85.1817V82.7787C31.2355 82.6583 31.1378 82.5606 31.0173 82.5606Z" fill="#F0F0F0"/>
<path d="M86.5633 129C123.641 129 153.698 127.245 153.698 125.08C153.698 122.916 123.641 121.161 86.5633 121.161C49.4856 121.161 19.4283 122.916 19.4283 125.08C19.4283 127.245 49.4856 129 86.5633 129Z" fill="#F5F5F5"/>
<path d="M152.144 9.73318H86.7502V74.801H152.144V9.73318Z" fill="#47D163"/>
<path opacity="0.1" d="M108.097 12.9706H86.7502V25.2176H108.097V12.9706Z" fill="black"/>
<path opacity="0.2" d="M108.097 37.4646H86.7502V49.7115H108.097V37.4646Z" fill="black"/>
<path opacity="0.1" d="M108.097 49.7115H86.7502V61.9585H108.097V49.7115Z" fill="black"/>
<path d="M108.097 12.9706H151.06V72.3669C151.06 72.7875 150.893 73.1908 150.595 73.4882C150.298 73.7856 149.894 73.9527 149.474 73.9527H109.683C109.262 73.9527 108.859 73.7856 108.561 73.4882C108.264 73.1908 108.097 72.7875 108.097 72.3669V12.9706Z" fill="white"/>
<path opacity="0.3" d="M152.144 9.73318H86.7502V12.9706H152.144V9.73318Z" fill="black"/>
<path opacity="0.8" d="M89.2986 12.0115C89.662 12.0115 89.9565 11.717 89.9565 11.3536C89.9565 10.9903 89.662 10.6957 89.2986 10.6957C88.9353 10.6957 88.6407 10.9903 88.6407 11.3536C88.6407 11.717 88.9353 12.0115 89.2986 12.0115Z" fill="#47D163"/>
<path opacity="0.8" d="M92.3006 12.0115C92.664 12.0115 92.9585 11.717 92.9585 11.3536C92.9585 10.9903 92.664 10.6957 92.3006 10.6957C91.9373 10.6957 91.6428 10.9903 91.6428 11.3536C91.6428 11.717 91.9373 12.0115 92.3006 12.0115Z" fill="#47D163"/>
<path opacity="0.8" d="M95.2992 12.0115C95.6626 12.0115 95.9571 11.717 95.9571 11.3536C95.9571 10.9903 95.6626 10.6957 95.2992 10.6957C94.9359 10.6957 94.6414 10.9903 94.6414 11.3536C94.6414 11.717 94.9359 12.0115 95.2992 12.0115Z" fill="#47D163"/>
<path opacity="0.2" d="M137.438 19.0751H112.401C111.856 19.0751 111.414 19.5169 111.414 20.0619V39.7429C111.414 40.2879 111.856 40.7297 112.401 40.7297H137.438C137.983 40.7297 138.425 40.2879 138.425 39.7429V20.0619C138.425 19.5169 137.983 19.0751 137.438 19.0751Z" fill="#47D163"/>
<path opacity="0.2" d="M147.722 17.3542H128.491C128.072 17.3542 127.733 17.6937 127.733 18.1125V33.2299C127.733 33.6487 128.072 33.9882 128.491 33.9882H147.722C148.141 33.9882 148.48 33.6487 148.48 33.2299V18.1125C148.48 17.6937 148.141 17.3542 147.722 17.3542Z" fill="#47D163"/>
<path opacity="0.2" d="M136.964 47.7171H117.733C117.314 47.7171 116.975 48.0566 116.975 48.4754V63.5928C116.975 64.0116 117.314 64.3511 117.733 64.3511H136.964C137.383 64.3511 137.722 64.0116 137.722 63.5928V48.4754C137.722 48.0566 137.383 47.7171 136.964 47.7171Z" fill="#47D163"/>
<path opacity="0.7" d="M152.144 9.73318H86.7502V74.801H152.144V9.73318Z" fill="white"/>
<path d="M146.14 15.7372H80.7462V80.805H146.14V15.7372Z" fill="#47D163"/>
<path opacity="0.1" d="M102.093 18.9747H80.7462V31.2216H102.093V18.9747Z" fill="black"/>
<path opacity="0.2" d="M102.093 43.4651H80.7462V55.7121H102.093V43.4651Z" fill="black"/>
<path opacity="0.1" d="M102.093 55.7121H80.7462V67.9591H102.093V55.7121Z" fill="black"/>
<path d="M102.093 18.9747H145.056V78.3674C145.056 78.788 144.889 79.1914 144.591 79.4888C144.294 79.7862 143.891 79.9533 143.47 79.9533H103.682C103.261 79.9533 102.858 79.7862 102.561 79.4888C102.263 79.1914 102.096 78.788 102.096 78.3674V18.9747H102.093Z" fill="white"/>
<path opacity="0.3" d="M146.14 15.7372H80.7462V18.9746H146.14V15.7372Z" fill="black"/>
<path opacity="0.8" d="M83.2946 18.0121C83.6579 18.0121 83.9525 17.7175 83.9525 17.3542C83.9525 16.9909 83.6579 16.6963 83.2946 16.6963C82.9313 16.6963 82.6367 16.9909 82.6367 17.3542C82.6367 17.7175 82.9313 18.0121 83.2946 18.0121Z" fill="#47D163"/>
<path opacity="0.8" d="M86.2966 18.0121C86.6599 18.0121 86.9545 17.7175 86.9545 17.3542C86.9545 16.9909 86.6599 16.6963 86.2966 16.6963C85.9333 16.6963 85.6387 16.9909 85.6387 17.3542C85.6387 17.7175 85.9333 18.0121 86.2966 18.0121Z" fill="#47D163"/>
<path opacity="0.8" d="M89.2986 18.0121C89.662 18.0121 89.9565 17.7175 89.9565 17.3542C89.9565 16.9909 89.662 16.6963 89.2986 16.6963C88.9353 16.6963 88.6407 16.9909 88.6407 17.3542C88.6407 17.7175 88.9353 18.0121 89.2986 18.0121Z" fill="#47D163"/>
<path opacity="0.2" d="M131.438 25.0791H106.4C105.855 25.0791 105.413 25.5209 105.413 26.0659V45.7469C105.413 46.2919 105.855 46.7338 106.4 46.7338H131.438C131.983 46.7338 132.424 46.2919 132.424 45.7469V26.0659C132.424 25.5209 131.983 25.0791 131.438 25.0791Z" fill="#47D163"/>
<path opacity="0.2" d="M142.036 42.1875H122.806C122.387 42.1875 122.047 42.527 122.047 42.9458V58.0632C122.047 58.482 122.387 58.8215 122.806 58.8215H142.036C142.455 58.8215 142.795 58.482 142.795 58.0632V42.9458C142.795 42.527 142.455 42.1875 142.036 42.1875Z" fill="#47D163"/>
<path opacity="0.2" d="M130.963 53.7212H111.732C111.314 53.7212 110.974 54.0607 110.974 54.4795V69.5969C110.974 70.0157 111.314 70.3552 111.732 70.3552H130.963C131.382 70.3552 131.722 70.0157 131.722 69.5969V54.4795C131.722 54.0607 131.382 53.7212 130.963 53.7212Z" fill="#47D163"/>
<path opacity="0.5" d="M146.14 15.7372H80.7462V80.805H146.14V15.7372Z" fill="white"/>
<path d="M140.139 21.7378H74.7456V86.8056H140.139V21.7378Z" fill="#47D163"/>
<path opacity="0.1" d="M96.0921 24.9752H74.7456V37.2222H96.0921V24.9752Z" fill="black"/>
<path opacity="0.2" d="M96.0921 49.4691H74.7456V61.7161H96.0921V49.4691Z" fill="black"/>
<path opacity="0.1" d="M96.0921 61.7162H74.7456V73.9631H96.0921V61.7162Z" fill="black"/>
<path d="M96.0921 24.9752H139.055V84.3714C139.055 84.792 138.888 85.1954 138.591 85.4928C138.293 85.7902 137.89 85.9573 137.469 85.9573H97.6779C97.2574 85.9573 96.854 85.7902 96.5566 85.4928C96.2592 85.1954 96.0921 84.792 96.0921 84.3714V24.9752Z" fill="white"/>
<path opacity="0.3" d="M140.139 21.7378H74.7456V24.9752H140.139V21.7378Z" fill="black"/>
<path opacity="0.8" d="M77.294 24.0161C77.6574 24.0161 77.9519 23.7216 77.9519 23.3582C77.9519 22.9949 77.6574 22.7003 77.294 22.7003C76.9307 22.7003 76.6362 22.9949 76.6362 23.3582C76.6362 23.7216 76.9307 24.0161 77.294 24.0161Z" fill="#47D163"/>
<path opacity="0.8" d="M80.9539 23.3582C80.9546 23.4892 80.9164 23.6174 80.8441 23.7266C80.7719 23.8358 80.6688 23.9211 80.5481 23.9717C80.4273 24.0223 80.2942 24.0359 80.1657 24.0108C80.0372 23.9856 79.919 23.9229 79.8262 23.8306C79.7333 23.7382 79.67 23.6204 79.6442 23.492C79.6184 23.3636 79.6313 23.2305 79.6812 23.1094C79.7312 22.9884 79.8159 22.8849 79.9248 22.8121C80.0336 22.7392 80.1616 22.7004 80.2926 22.7004C80.3792 22.6999 80.4652 22.7166 80.5454 22.7494C80.6256 22.7823 80.6985 22.8307 80.76 22.8918C80.8214 22.953 80.8702 23.0256 80.9035 23.1057C80.9368 23.1857 80.9539 23.2716 80.9539 23.3582Z" fill="#47D163"/>
<path opacity="0.8" d="M83.2946 24.0161C83.6579 24.0161 83.9525 23.7216 83.9525 23.3582C83.9525 22.9949 83.6579 22.7003 83.2946 22.7003C82.9313 22.7003 82.6367 22.9949 82.6367 23.3582C82.6367 23.7216 82.9313 24.0161 83.2946 24.0161Z" fill="#47D163"/>
<path opacity="0.2" d="M110.23 20.1415H72.6092C71.7908 20.1415 71.1273 20.805 71.1273 21.6235V51.197C71.1273 52.0154 71.7908 52.6789 72.6092 52.6789H110.23C111.048 52.6789 111.712 52.0154 111.712 51.197V21.6235C111.712 20.805 111.048 20.1415 110.23 20.1415Z" fill="#47D163"/>
<path opacity="0.2" d="M130.579 36.038H101.684C101.055 36.038 100.545 36.548 100.545 37.1772V59.8914C100.545 60.5205 101.055 61.0306 101.684 61.0306H130.579C131.208 61.0306 131.718 60.5205 131.718 59.8914V37.1772C131.718 36.548 131.208 36.038 130.579 36.038Z" fill="#47D163"/>
<path opacity="0.2" d="M141.008 66.9065H112.113C111.484 66.9065 110.974 67.4165 110.974 68.0456V90.7598C110.974 91.389 111.484 91.899 112.113 91.899H141.008C141.637 91.899 142.147 91.389 142.147 90.7598V68.0456C142.147 67.4165 141.637 66.9065 141.008 66.9065Z" fill="#47D163"/>
<path d="M55.5217 39.1819L53.0079 44.4554C52.1769 46.2143 51.3632 47.9837 50.6395 49.7357L50.3798 50.3901C50.3417 50.4905 50.3313 50.5113 50.3036 50.5979C50.2759 50.6845 50.2552 50.7537 50.2344 50.8507C50.1431 51.2644 50.0749 51.6828 50.0301 52.1041C49.9332 53.0078 49.8778 53.9635 49.8431 54.9226C49.7739 56.8443 49.7566 58.8145 49.7323 60.7639L47.8349 60.9751C47.4009 59.0073 47.0864 57.015 46.8931 55.0091C46.7891 53.9737 46.7405 52.9335 46.7476 51.8929C46.7496 51.33 46.7889 50.7678 46.8654 50.2101C46.8827 50.0647 46.9173 49.8985 46.9519 49.7392C46.9865 49.5799 47.0454 49.3687 47.0835 49.2371L47.3224 48.4996C47.9699 46.5502 48.7247 44.6908 49.5177 42.8591C50.3106 41.0275 51.1589 39.2304 52.073 37.4403L55.5217 39.1819Z" fill="#FFC3BD"/>
<path d="M49.7046 60.1683L50.591 61.8269L47.7621 62.6163C47.7621 62.6163 47.222 61.2833 47.8625 60.2341L49.7046 60.1683Z" fill="#FFC3BD"/>
<path d="M51.6783 64.2195L49.0744 64.4237L47.7621 62.6163L50.591 61.8268L51.6783 64.2195Z" fill="#FFC3BD"/>
<path d="M63.9945 25.4911C64.036 25.6919 64.1745 25.8373 64.3061 25.8062C64.4377 25.775 64.5104 25.595 64.4723 25.3941C64.4342 25.1933 64.2922 25.0479 64.1607 25.079C64.0291 25.1102 63.9529 25.2764 63.9945 25.4911Z" fill="#263238"/>
<path d="M64.1572 25.8373C64.5217 26.4027 64.9621 26.9154 65.4661 27.3609C65.3494 27.4872 65.2065 27.5865 65.0474 27.6517C64.8883 27.7169 64.7168 27.7464 64.545 27.7383L64.1572 25.8373Z" fill="#ED847E"/>
<path d="M63.018 24.525C63.0518 24.5243 63.0841 24.5107 63.1081 24.4869C63.207 24.3725 63.3318 24.2833 63.4721 24.2267C63.6124 24.1701 63.7642 24.1477 63.9148 24.1614C63.9465 24.167 63.9791 24.1596 64.0054 24.1411C64.0317 24.1226 64.0496 24.0944 64.0551 24.0628C64.0606 24.0311 64.0533 23.9985 64.0348 23.9722C64.0163 23.9459 63.9881 23.928 63.9564 23.9225C63.764 23.9 63.5689 23.9244 63.388 23.9937C63.2071 24.0631 63.0457 24.1753 62.9176 24.3207C62.9015 24.3378 62.8907 24.3593 62.8865 24.3824C62.8824 24.4056 62.8851 24.4295 62.8942 24.4511C62.9034 24.4728 62.9187 24.4913 62.9382 24.5044C62.9578 24.5175 62.9807 24.5247 63.0042 24.525H63.018Z" fill="#263238"/>
<path d="M58.2675 28.32C58.631 30.1794 58.9981 33.5899 57.6962 34.8295C57.6962 34.8295 58.2052 36.7201 61.6608 36.7201C65.4695 36.7201 63.4786 34.833 63.4786 34.833C61.4011 34.3344 61.4565 32.797 61.8166 31.3497L58.2675 28.32Z" fill="#FFC3BD"/>
<path d="M56.8305 35.4908C56.5293 34.9507 56.1934 34.3344 56.8859 34.1439C57.6442 33.9292 61.8096 33.7146 63.2466 34.1128C64.6835 34.5109 64.2853 35.6016 64.2853 35.6016L56.8305 35.4908Z" fill="#263238"/>
<path d="M46.0898 119.935C46.3037 119.985 46.529 119.949 46.7165 119.835C46.7499 119.795 46.7704 119.747 46.7754 119.695C46.7803 119.644 46.7695 119.592 46.7442 119.547C46.7284 119.51 46.7048 119.476 46.6749 119.449C46.645 119.421 46.6096 119.401 46.5711 119.388C46.2248 119.26 45.463 119.665 45.4284 119.682C45.4185 119.688 45.4102 119.696 45.4047 119.705C45.3992 119.715 45.3966 119.726 45.3973 119.738C45.3981 119.749 45.4026 119.761 45.41 119.77C45.4174 119.779 45.4274 119.786 45.4388 119.79C45.6505 119.859 45.8685 119.908 46.0898 119.935ZM46.4602 119.485L46.533 119.502C46.5556 119.509 46.5764 119.521 46.5938 119.538C46.6111 119.554 46.6247 119.574 46.6334 119.596C46.6784 119.7 46.6334 119.738 46.6334 119.751C46.5087 119.88 45.9928 119.828 45.6223 119.72C45.8807 119.581 46.1669 119.5 46.4602 119.485Z" fill="#47D163"/>
<path d="M45.4527 119.803C45.4616 119.807 45.4715 119.807 45.4804 119.803C45.7574 119.689 46.3252 119.191 46.301 118.903C46.2972 118.858 46.2778 118.816 46.2462 118.784C46.2146 118.751 46.1728 118.731 46.1279 118.727C46.0831 118.715 46.0364 118.713 45.9909 118.722C45.9454 118.73 45.9023 118.748 45.8647 118.775C45.5462 118.983 45.4042 119.707 45.4007 119.738C45.399 119.748 45.4 119.758 45.4037 119.768C45.4073 119.778 45.4135 119.786 45.4215 119.793C45.4256 119.797 45.4305 119.8 45.4359 119.802C45.4413 119.804 45.447 119.804 45.4527 119.803ZM46.0309 118.914H46.0551C46.1313 118.938 46.1313 118.972 46.1313 118.99C46.1313 119.159 45.7366 119.516 45.4388 119.661C45.5083 119.38 45.6617 119.127 45.8786 118.934C45.9006 118.919 45.9254 118.909 45.9516 118.903C45.9778 118.898 46.0047 118.898 46.0309 118.903V118.914Z" fill="#47D163"/>
<path d="M64.4619 122.359C64.7874 122.359 65.1025 122.314 65.2063 122.165C65.2344 122.127 65.2496 122.081 65.2496 122.033C65.2496 121.986 65.2344 121.94 65.2063 121.902C65.1641 121.831 65.0956 121.78 65.0159 121.76C64.5935 121.646 63.7036 122.154 63.6655 122.175C63.6541 122.179 63.6442 122.187 63.6372 122.197C63.6303 122.207 63.6265 122.219 63.6265 122.231C63.6265 122.243 63.6303 122.255 63.6372 122.265C63.6442 122.274 63.6541 122.282 63.6655 122.286C63.9283 122.333 64.1948 122.358 64.4619 122.359ZM64.8635 121.864C64.9026 121.858 64.9422 121.858 64.9813 121.864C65.0056 121.868 65.0287 121.878 65.049 121.893C65.0693 121.907 65.0863 121.925 65.099 121.947C65.1405 122.023 65.1267 122.061 65.099 122.082C64.9813 122.245 64.3372 122.248 63.8663 122.182C64.1761 122.018 64.5148 121.916 64.8635 121.881V121.864Z" fill="#47D163"/>
<path d="M63.7105 122.286C64.0152 122.148 64.6246 121.594 64.5796 121.31C64.5796 121.244 64.5208 121.157 64.3546 121.14C64.2928 121.133 64.2303 121.139 64.1708 121.157C64.1113 121.174 64.056 121.204 64.0083 121.244C63.6863 121.51 63.617 122.196 63.6136 122.224C63.6132 122.234 63.6151 122.245 63.6193 122.254C63.6235 122.264 63.6298 122.272 63.6378 122.279C63.6485 122.286 63.6607 122.29 63.6733 122.291C63.686 122.293 63.6987 122.291 63.7105 122.286ZM64.3303 121.247H64.3649C64.4757 121.247 64.4827 121.303 64.4827 121.317C64.5104 121.486 64.0983 121.919 63.7902 122.109C63.8228 121.818 63.9436 121.544 64.1364 121.323C64.1877 121.284 64.2489 121.26 64.313 121.254L64.3303 121.247Z" fill="#47D163"/>
<path d="M60.8955 122.227H63.4405L63.6932 116.337H61.1483L60.8955 122.227Z" fill="#FFC3BD"/>
<path d="M42.5614 119.419L45.089 119.693L46.9969 113.976L44.4693 113.702L42.5614 119.419Z" fill="#FFC3BD"/>
<path d="M45.3003 119.419L42.461 119.111C42.4108 119.106 42.3602 119.118 42.3175 119.145C42.2748 119.172 42.2424 119.212 42.2256 119.26L41.4846 121.455C41.4665 121.508 41.4608 121.565 41.4678 121.621C41.4748 121.676 41.4944 121.73 41.5251 121.777C41.5558 121.824 41.5968 121.863 41.6449 121.892C41.6931 121.921 41.7472 121.938 41.8031 121.943C42.7969 122.037 43.2851 122.03 44.5351 122.165C45.3037 122.248 46.8792 122.511 47.9422 122.615C49.0052 122.719 49.2545 121.697 48.8321 121.555C46.9277 120.918 46.2594 120.25 45.695 119.62C45.5921 119.507 45.4518 119.436 45.3003 119.419Z" fill="#263238"/>
<path d="M63.4231 121.933H60.6531C60.6029 121.933 60.5541 121.95 60.515 121.981C60.4758 122.013 60.4488 122.057 60.4384 122.106L59.9364 124.367C59.9238 124.422 59.9238 124.478 59.9363 124.533C59.9487 124.587 59.9734 124.638 60.0083 124.682C60.0433 124.726 60.0877 124.761 60.1382 124.785C60.1887 124.809 60.244 124.821 60.2999 124.821C61.3041 124.803 62.7514 124.744 64.0118 124.744C65.4834 124.744 66.7541 124.824 68.4819 124.824C69.5207 124.824 69.815 123.768 69.3787 123.671C67.3877 123.238 65.7638 123.19 64.0464 122.13C63.8611 122.008 63.6452 121.939 63.4231 121.933Z" fill="#263238"/>
<path d="M67.2146 36.1315C67.9348 36.3565 68.7416 36.6024 69.5137 36.824C70.2859 37.0456 71.0788 37.236 71.8648 37.4057C73.3947 37.766 74.9528 37.9942 76.5219 38.0878C76.8958 38.0878 77.2663 38.112 77.623 38.0878H77.8411C77.8861 38.0878 77.9623 38.0878 78.0246 38.0705C78.1631 38.0497 78.3224 38.0151 78.4886 37.9735C79.2257 37.7708 79.9486 37.5198 80.6527 37.2221C82.1416 36.6127 83.6685 35.8995 85.1782 35.2104L86.2343 36.7997C84.9219 37.9593 83.5108 39.002 82.0169 39.916C81.228 40.4082 80.3972 40.8299 79.5343 41.1764C79.2879 41.2744 79.0358 41.3577 78.7794 41.4257C78.634 41.4603 78.5024 41.4949 78.3397 41.5226L78.1077 41.5607L77.9277 41.5815C77.4429 41.6438 76.9685 41.668 76.4976 41.6819C74.6828 41.6974 72.8713 41.5233 71.0926 41.1625C70.2235 40.9894 69.3614 40.8163 68.513 40.567C67.6647 40.3176 66.8406 40.0995 65.9577 39.781L67.2146 36.1315Z" fill="#FFC3BD"/>
<path d="M53.1394 35.4078C50.7572 35.9514 48.3473 42.9249 48.3473 42.9249L53.2537 46.4429C53.2537 46.4429 54.6387 43.1985 55.9718 40.3592C57.3845 37.3953 55.5771 34.8468 53.1394 35.4078Z" fill="#47D163"/>
<path opacity="0.3" d="M53.1394 35.4078C50.7572 35.9514 48.3473 42.9249 48.3473 42.9249L53.2537 46.4429C53.2537 46.4429 54.6387 43.1985 55.9718 40.3592C57.3845 37.3953 55.5771 34.8468 53.1394 35.4078Z" fill="black"/>
<path d="M67.3912 35.5359C67.3912 35.5359 70.0989 38.5968 67.5401 57.523H53.9358C53.8424 55.4454 55.1547 45.2483 53.1395 35.4078C54.6442 35.1163 56.1663 34.9231 57.6962 34.8295C59.622 34.7169 61.5527 34.7169 63.4786 34.8295C64.7991 34.9636 66.1072 35.1997 67.3912 35.5359Z" fill="#47D163"/>
<path opacity="0.3" d="M67.3912 35.5359C67.3912 35.5359 70.0989 38.5968 67.5401 57.523H53.9358C53.8424 55.4454 55.1547 45.2483 53.1395 35.4078C54.6442 35.1163 56.1663 34.9231 57.6962 34.8295C59.622 34.7169 61.5527 34.7169 63.4786 34.8295C64.7991 34.9636 66.1072 35.1997 67.3912 35.5359Z" fill="black"/>
<path opacity="0.3" d="M67.3912 35.5359C67.3912 35.5359 67.0865 35.4528 66.5914 35.3385C65.0956 35.4943 64.3684 37.2152 64.7701 39.0019C65.0679 40.3315 66.9999 42.1493 68.6412 43.5031C68.6031 36.907 67.3912 35.5359 67.3912 35.5359Z" fill="black"/>
<path d="M64.0568 39.4416C65.2722 41.5468 71.9167 43.5967 71.9167 43.5967L74.1466 37.6203C74.1466 37.6203 70.3378 36.5816 67.3843 35.5428C63.7313 34.2305 62.7307 37.1286 64.0568 39.4416Z" fill="#47D163"/>
<path opacity="0.3" d="M64.0568 39.4416C65.2722 41.5468 71.9167 43.5967 71.9167 43.5967L74.1466 37.6203C74.1466 37.6203 70.3378 36.5816 67.3843 35.5428C63.7313 34.2305 62.7307 37.1286 64.0568 39.4416Z" fill="black"/>
<path d="M84.7454 35.7886L85.1678 33.1398L87.5154 33.8115C87.5154 33.8115 87.8616 36.1695 86.1511 36.8655L84.7454 35.7886Z" fill="#FFC3BD"/>
<path d="M86.1789 30.8026L88.1595 32.4681L87.5154 33.8115L85.1678 33.1398L86.1789 30.8026Z" fill="#FFC3BD"/>
<path opacity="0.2" d="M63.6898 116.337L63.5617 119.374H61.0167L61.1448 116.337H63.6898Z" fill="black"/>
<path opacity="0.2" d="M44.4692 113.702L46.9969 113.979L46.0135 116.926L43.4824 116.649L44.4692 113.702Z" fill="black"/>
<path d="M57.201 26.426C57.8554 28.867 58.1151 30.3282 59.6247 31.3393C61.8892 32.8663 64.7077 31.1142 64.7943 28.5312C64.8739 26.2044 63.7936 22.6068 61.176 22.1151C60.5999 22.008 60.0062 22.0487 59.4502 22.2336C58.8943 22.4184 58.3943 22.7413 57.9971 23.172C57.6 23.6027 57.3186 24.1272 57.1794 24.6963C57.0401 25.2654 57.0475 25.8605 57.201 26.426Z" fill="#FFC3BD"/>
<path d="M62.9384 19.0923C62.9227 19.2566 62.8704 19.4153 62.7853 19.5567C62.7002 19.6981 62.5845 19.8187 62.4467 19.9095C62.3324 18.6284 61.8234 17.3957 60.6843 16.7932C60.8712 17.3368 60.338 18.199 59.5555 19.0785C59.4685 18.7565 59.3159 18.4558 59.1074 18.1955C58.8989 17.9351 58.6388 17.7206 58.3436 17.5654C57.8242 19.5771 56.1622 19.9095 54.843 21.1491C54.5574 21.4298 54.3628 21.7899 54.2844 22.1825C54.206 22.5752 54.2474 22.9824 54.4032 23.3512C54.057 23.1954 53.6449 23.2335 53.3472 24.0091C53.6329 23.8284 53.9615 23.7268 54.2994 23.7148C54.0639 23.9364 53.8804 24.3208 54.0154 25.1864C54.2509 26.651 57.2598 31.0034 59.1608 30.7853C61.2383 30.5464 61.6192 28.1399 61.6676 25.9689L61.7473 25.9274C63.1877 25.1621 64.9674 21.0694 62.9384 19.0923Z" fill="#263238"/>
<path d="M60.6808 26.4675C60.941 27.0383 61.3813 27.5078 61.9343 27.804C62.6683 28.1849 63.0769 27.6275 62.9141 26.8969C62.7653 26.2355 62.2216 25.2452 61.4495 25.1656C60.6774 25.086 60.3761 25.775 60.6808 26.4675Z" fill="#FFC3BD"/>
<path d="M62.7168 57.5229C62.7168 57.5229 59.829 76.9616 58.2432 84.2467C56.5119 92.2106 47.3812 116.639 47.3812 116.639L42.8003 115.797C42.8003 115.797 49.6215 92.865 50.6118 84.9808C51.6886 76.411 53.9358 57.5368 53.9358 57.5368L62.7168 57.5229Z" fill="#47D163"/>
<path opacity="0.2" d="M60.892 64.448C57.5541 65.1024 57.9073 77.5502 58.309 83.9524C59.2715 79.4269 60.6808 70.7186 61.6434 64.538C61.4105 64.4233 61.1454 64.3915 60.892 64.448Z" fill="black"/>
<path d="M67.54 57.5229C67.54 57.5229 67.8863 76.5426 67.6162 84.2987C67.3288 92.3664 64.4999 118.785 64.4999 118.785H60.1995C60.1995 118.785 60.0402 92.8373 59.8532 84.915C59.6455 76.276 58.5998 57.5229 58.5998 57.5229H67.54Z" fill="#47D163"/>
<path opacity="0.2" d="M63.7833 115.666L63.5963 115.645C64.3546 108.336 66.1482 90.649 66.3663 84.3091C66.5983 77.8134 66.3871 63.2984 66.3179 59.0049L66.5048 58.9841C66.5741 63.2777 66.7853 77.7995 66.5533 84.3056C66.3352 90.6559 64.5416 108.353 63.7833 115.666Z" fill="black"/>
<path d="M48.4235 115.087C48.4442 115.087 47.6271 116.76 47.6271 116.76L42.4714 115.811L42.8557 114.256L48.4235 115.087Z" fill="#47D163"/>
<path opacity="0.5" d="M48.4235 115.087C48.4442 115.087 47.6271 116.76 47.6271 116.76L42.4714 115.811L42.8557 114.256L48.4235 115.087Z" fill="black"/>
<path d="M65.3379 117.068C65.3587 117.068 65.0955 118.858 65.0955 118.858H59.8533L59.7113 117.262L65.3379 117.068Z" fill="#47D163"/>
<path opacity="0.5" d="M65.3379 117.068C65.3587 117.068 65.0955 118.858 65.0955 118.858H59.8533L59.7113 117.262L65.3379 117.068Z" fill="black"/>
</svg>
