<svg width="189" height="189" viewBox="0 0 189 189" fill="none" xmlns="http://www.w3.org/2000/svg">
<path d="M27.6491 175.45C64.5715 193.044 124.403 193.044 161.326 175.45C198.248 157.855 198.202 129.354 161.326 111.76C124.449 94.1652 64.5899 94.1698 27.686 111.76C-9.21791 129.35 -9.22713 157.864 27.6491 175.45Z" fill="#EBEBEB"/>
<path d="M146.612 44.6774L148.308 43.3729V39.6392C148.308 36.6844 150.664 33.2503 153.227 31.7707C155.789 30.291 157.868 31.4895 157.868 34.4488V34.9881C158.407 34.1133 159.143 33.3762 160.016 32.8355C161.86 31.7707 163.358 32.6327 163.358 34.7623V35.0112L166.751 33.0521C167.963 32.3515 168.95 32.9185 168.95 34.3198C168.908 35.0825 168.687 35.8247 168.305 36.4862C167.923 37.1477 167.391 37.7099 166.751 38.1272L146.612 49.7525C145.4 50.4531 144.413 49.8861 144.413 48.4848C144.455 47.7221 144.676 46.9799 145.058 46.3184C145.44 45.6569 145.972 45.0947 146.612 44.6774Z" fill="#EBEBEB"/>
<path d="M24.6805 148.715L77.5657 179.239C78.1869 179.555 78.874 179.719 79.5708 179.719C80.2677 179.719 80.9548 179.555 81.576 179.239L164.05 131.627C165.156 130.986 165.156 129.954 164.05 129.322L111.165 98.7795C110.544 98.4638 109.858 98.2992 109.162 98.2992C108.466 98.2992 107.779 98.4638 107.159 98.7795L24.6805 146.41C23.5743 147.037 23.5743 148.069 24.6805 148.715Z" fill="#E0E0E0"/>
<path d="M26.3447 141.339L77.7318 171.011C78.3597 171.329 79.0537 171.495 79.7577 171.495C80.4616 171.495 81.1557 171.329 81.7836 171.011L163.257 123.98C164.377 123.334 164.377 122.288 163.257 121.643L111.865 91.9711C111.237 91.6528 110.543 91.487 109.839 91.487C109.135 91.487 108.441 91.6528 107.814 91.9711L26.3447 139.034C25.2246 139.657 25.2246 140.703 26.3447 141.339Z" fill="#37474F"/>
<path d="M77.7317 171.02L26.3446 141.339C25.3443 140.763 25.2383 139.864 26.0265 139.219C25.5257 139.616 25.1144 140.114 24.8197 140.682C24.525 141.249 24.3535 141.872 24.3164 142.51V144.414C24.3548 145.117 24.5584 145.802 24.9108 146.412C25.2632 147.023 25.7544 147.541 26.3446 147.926L77.7317 177.593C78.3555 177.925 79.0536 178.091 79.7598 178.077V171.504C79.0536 171.518 78.3555 171.351 77.7317 171.02Z" fill="#455A64"/>
<path d="M163.257 130.562C163.846 130.178 164.337 129.66 164.688 129.05C165.04 128.441 165.243 127.757 165.28 127.054V125.15C165.244 124.512 165.072 123.889 164.777 123.322C164.483 122.755 164.071 122.256 163.57 121.859C164.358 122.505 164.257 123.403 163.257 123.98L81.7833 171.02C81.1609 171.351 80.4645 171.517 79.7598 171.504V178.086C80.4645 178.1 81.1609 177.933 81.7833 177.602L163.257 130.562Z" fill="#263238"/>
<path d="M53.9234 155.043C54.7953 155.487 55.7595 155.718 56.7376 155.718C57.7156 155.718 58.6799 155.487 59.5517 155.043C61.1051 154.121 61.1051 152.693 59.5517 151.794C58.6791 151.353 57.7152 151.123 56.7376 151.123C55.76 151.123 54.796 151.353 53.9234 151.794C52.3885 152.693 52.3885 154.149 53.9234 155.043Z" fill="#263238"/>
<path d="M85.7291 164.723L36.5408 136.306C35.8725 135.918 35.8725 135.287 36.5408 134.9L100.613 97.8943C100.99 97.7036 101.406 97.6042 101.828 97.6042C102.25 97.6042 102.666 97.7036 103.043 97.8943L152.231 126.312C152.904 126.699 152.904 127.326 152.231 127.695L88.1584 164.705C87.7833 164.898 87.368 165.001 86.946 165.004C86.5239 165.007 86.1071 164.911 85.7291 164.723Z" fill="white"/>
<path d="M133.843 108.893C134.064 109.004 134.308 109.062 134.556 109.062C134.803 109.062 135.047 109.004 135.268 108.893C135.345 108.855 135.409 108.796 135.454 108.723C135.499 108.65 135.523 108.566 135.523 108.48C135.523 108.394 135.499 108.31 135.454 108.238C135.409 108.165 135.345 108.106 135.268 108.068C135.047 107.956 134.803 107.898 134.556 107.898C134.308 107.898 134.064 107.956 133.843 108.068C133.447 108.294 133.447 108.662 133.843 108.893Z" fill="#263238"/>
<path d="M136.12 115.355C136.562 115.578 137.05 115.694 137.545 115.694C138.04 115.694 138.527 115.578 138.969 115.355C139.757 114.894 139.757 114.161 138.969 113.71C138.528 113.485 138.04 113.367 137.545 113.367C137.05 113.367 136.562 113.485 136.12 113.71C135.332 114.143 135.332 114.899 136.12 115.355Z" fill="#263238"/>
<path d="M134.129 112.488C134.655 112.189 134.627 111.682 134.065 111.359L124.689 105.943C124.388 105.783 124.053 105.696 123.712 105.69C123.37 105.683 123.032 105.757 122.725 105.906C122.2 106.21 122.227 106.717 122.79 107.04L132.166 112.456C132.467 112.615 132.802 112.701 133.144 112.707C133.485 112.712 133.822 112.638 134.129 112.488Z" fill="#263238"/>
<path d="M99.7836 105.537C99.1106 105.924 99.1106 106.551 99.7836 106.92L137.259 128.562C137.636 128.752 138.053 128.852 138.476 128.852C138.899 128.852 139.316 128.752 139.693 128.562L147.99 123.782L108.081 100.734L99.7836 105.537Z" fill="#EBEBEB"/>
<path d="M100.06 109.294L97.0686 107.57C96.9437 107.506 96.8055 107.473 96.6653 107.473C96.5251 107.473 96.3869 107.506 96.2619 107.57L94.3766 108.658C94.1508 108.787 94.1508 108.994 94.3766 109.119L94.6348 109.271L93.6806 109.778C93.57 109.838 93.5792 109.875 93.7082 109.865L95.3861 109.704L97.3682 110.847C97.4945 110.909 97.6332 110.941 97.7739 110.941C97.9145 110.941 98.0532 110.909 98.1795 110.847L100.06 109.759C100.107 109.741 100.148 109.71 100.177 109.668C100.206 109.626 100.221 109.577 100.221 109.527C100.221 109.476 100.206 109.427 100.177 109.385C100.148 109.344 100.107 109.312 100.06 109.294Z" fill="#EBEBEB"/>
<path d="M100.941 113.793L100.719 113.332C100.434 112.728 100.258 111.907 101.088 111.433C101.402 111.273 101.75 111.19 102.102 111.19C102.455 111.19 102.802 111.273 103.116 111.433C103.55 111.682 103.646 112.055 103.407 112.355C103.945 112.207 104.519 112.266 105.015 112.52C105.139 112.56 105.246 112.638 105.322 112.743C105.398 112.848 105.439 112.974 105.439 113.104C105.439 113.233 105.398 113.359 105.322 113.464C105.246 113.569 105.139 113.647 105.015 113.687C104.204 114.148 102.784 114.065 101.738 113.903L100.941 113.793Z" fill="#EBEBEB"/>
<path d="M59.8697 129.981L97.3498 151.623C97.7271 151.814 98.144 151.913 98.5668 151.913C98.9895 151.913 99.4064 151.814 99.7837 151.623L128.971 134.766C129.64 134.379 129.64 133.752 128.971 133.383L91.4911 111.723C91.1138 111.532 90.697 111.433 90.2742 111.433C89.8514 111.433 89.4346 111.532 89.0573 111.723L59.8697 128.58C59.1967 128.967 59.1967 129.594 59.8697 129.981Z" fill="#EBEBEB"/>
<path d="M60.1557 132.337L57.1502 130.608C57.024 130.546 56.8852 130.514 56.7446 130.514C56.604 130.514 56.4652 130.546 56.339 130.608L54.4537 131.696C54.4079 131.715 54.3687 131.747 54.3411 131.788C54.3135 131.829 54.2988 131.877 54.2988 131.926C54.2988 131.976 54.3135 132.024 54.3411 132.065C54.3687 132.106 54.4079 132.138 54.4537 132.157L54.7164 132.309L53.7622 132.812C53.647 132.871 53.6608 132.913 53.7622 132.899L55.4401 132.742L57.4222 133.886C57.5485 133.947 57.6872 133.98 57.8278 133.98C57.9685 133.98 58.1072 133.947 58.2335 133.886L60.1188 132.793C60.1667 132.779 60.2093 132.752 60.2409 132.713C60.2726 132.675 60.2917 132.627 60.2957 132.578C60.2997 132.528 60.2884 132.478 60.2634 132.435C60.2384 132.392 60.2008 132.358 60.1557 132.337Z" fill="#EBEBEB"/>
<path d="M61.0128 136.831L60.7962 136.37C60.5058 135.766 60.3352 134.946 61.1649 134.466C61.4785 134.307 61.8251 134.224 62.1767 134.224C62.5283 134.224 62.875 134.307 63.1885 134.466C63.6495 134.72 63.7232 135.093 63.4789 135.388C64.019 135.246 64.5923 135.305 65.0922 135.554C65.2148 135.596 65.3214 135.674 65.3968 135.779C65.4723 135.884 65.5129 136.01 65.5129 136.14C65.5129 136.269 65.4723 136.395 65.3968 136.5C65.3214 136.605 65.2148 136.684 65.0922 136.725C64.281 137.186 62.8612 137.103 61.8103 136.942L61.0128 136.831Z" fill="#EBEBEB"/>
<path d="M49.1526 134.766C49.5299 134.575 49.9468 134.476 50.3696 134.476C50.7923 134.476 51.2092 134.575 51.5865 134.766L89.062 156.403C89.735 156.79 89.735 157.422 89.062 157.809L81.4148 162.225L41.5146 139.177L49.1526 134.766Z" fill="#EBEBEB"/>
<path d="M90.7997 129.783L69.4668 135.513L97.3591 151.618C97.7364 151.809 98.1532 151.909 98.576 151.909C98.9988 151.909 99.4156 151.809 99.7929 151.618L100.397 151.268L112.432 133.609L86.8724 138.624L90.7997 129.783Z" fill="#E0E0E0"/>
<path d="M101.305 117.393L91.4912 111.723C91.1139 111.532 90.6971 111.433 90.2743 111.433C89.8515 111.433 89.4346 111.532 89.0574 111.723L78.0867 118.061C78.5891 119.015 79.6263 119.905 81.1981 120.675C85.8076 122.878 93.312 122.878 97.9353 120.675C99.8713 119.753 100.991 118.591 101.305 117.393Z" fill="#E0E0E0"/>
<path opacity="0.2" d="M148.631 115.397L99.438 86.9836C99.0616 86.7928 98.6455 86.6934 98.2234 86.6934C97.8014 86.6934 97.3853 86.7928 97.0088 86.9836L32.9363 123.989C32.268 124.376 32.268 125.003 32.9363 125.372L43.3354 131.364L82.1431 153.78C82.5196 153.971 82.9357 154.07 83.3577 154.07C83.7797 154.07 84.1958 153.971 84.5723 153.78L142.247 120.458L148.626 116.77C149.304 116.415 149.304 115.784 148.631 115.397Z" fill="white"/>
<path d="M148.751 115.194L108.076 91.6853L99.5577 86.7808C99.1454 86.5696 98.6888 86.4595 98.2255 86.4595C97.7623 86.4595 97.3057 86.5696 96.8934 86.7808L32.8209 123.786C32.6383 123.856 32.4813 123.98 32.3705 124.142C32.2597 124.303 32.2004 124.494 32.2004 124.69C32.2004 124.885 32.2597 125.076 32.3705 125.238C32.4813 125.399 32.6383 125.523 32.8209 125.593L43.22 131.585L82.0415 154.015C82.4536 154.227 82.9103 154.338 83.3736 154.338C83.837 154.338 84.2937 154.227 84.7058 154.015L142.376 120.693L148.76 117.005C148.942 116.934 149.099 116.81 149.209 116.648C149.319 116.486 149.378 116.295 149.378 116.1C149.378 115.904 149.319 115.713 149.209 115.551C149.099 115.39 148.942 115.265 148.76 115.194H148.751ZM148.516 116.6L142.131 120.287L84.4615 153.61C84.1201 153.78 83.7437 153.869 83.3621 153.869C82.9805 153.869 82.6042 153.78 82.2627 153.61L43.4551 131.198L33.0606 125.206C32.9496 125.177 32.8511 125.113 32.7808 125.022C32.7106 124.932 32.6724 124.82 32.6724 124.706C32.6724 124.591 32.7106 124.48 32.7808 124.389C32.8511 124.299 32.9496 124.234 33.0606 124.206L97.1331 87.2002C97.4748 87.0308 97.8511 86.9427 98.2325 86.9427C98.6139 86.9427 98.9901 87.0308 99.3318 87.2002L107.855 92.1094L148.529 115.618C148.64 115.646 148.739 115.711 148.809 115.802C148.879 115.892 148.918 116.003 148.918 116.118C148.918 116.233 148.879 116.344 148.809 116.435C148.739 116.525 148.64 116.59 148.529 116.618L148.516 116.6Z" fill="white"/>
<path d="M126.556 0.167734C127.234 -0.224076 127.787 0.0939804 127.787 0.877601V91.4964C127.763 91.9236 127.639 92.3393 127.425 92.71C127.212 93.0807 126.914 93.396 126.556 93.6306L91.1916 114.051L87.0431 127.879C86.6697 129.133 85.9229 129.188 85.379 127.995L81.5808 119.61L71.2554 125.57C70.5778 125.962 70.0247 125.644 70.0247 124.86V34.2414C70.0477 33.814 70.1712 33.398 70.385 33.0272C70.5988 32.6564 70.897 32.3412 71.2554 32.1072L126.556 0.167734Z" fill="#47D163"/>
<path d="M122.039 70.122C121.996 70.7087 121.816 71.2772 121.513 71.7811C121.209 72.2849 120.791 72.7099 120.292 73.0214L100.862 84.241C99.8991 84.7941 99.1155 84.4023 99.1155 83.356C99.1591 82.7696 99.34 82.2017 99.6434 81.6981C99.9469 81.1944 100.364 80.7692 100.862 80.4566L120.301 69.2416C121.26 68.6838 122.039 69.0802 122.039 70.122Z" fill="white"/>
<path d="M118.457 81.3278C118.414 81.9143 118.233 82.4823 117.929 82.986C117.626 83.4897 117.208 83.9149 116.71 84.2272L100.572 93.5569C99.6086 94.1146 98.8296 93.7182 98.8296 92.6719C98.872 92.0863 99.0519 91.5191 99.3546 91.0161C99.6573 90.5131 100.074 90.0886 100.572 89.7771L116.728 80.4474C117.692 79.8896 118.457 80.2861 118.457 81.3278Z" fill="white"/>
<path d="M89.3479 97.2675L89.3065 96.7235C88.426 98.9453 87.0985 100.54 85.6188 101.393C83.0052 102.905 80.6682 101.564 80.6682 97.5625C80.6682 93.7919 82.512 89.6571 85.3837 88.0115C87.269 86.9237 88.5551 87.7257 88.7671 88.2005V87.2786C88.7671 86.7669 89.288 86.0525 89.9241 85.6837C90.5603 85.3149 91.0857 85.6514 91.0857 86.4397V94.9903C91.0857 96.0782 91.4914 96.2995 92.0676 95.963C93.1185 95.3591 94.0865 92.7732 94.0865 89.8277C94.0865 84.1395 91.1042 81.489 86.3471 84.2363C81.8897 86.8084 78.3542 93.3079 78.3542 98.9868C78.3542 104.56 81.6961 106.685 86.0706 104.163C87.3269 103.383 88.4401 102.393 89.3618 101.236C89.8596 100.628 90.4035 100.443 90.6432 100.877C90.8829 101.31 90.7354 102.204 90.2422 102.813C89.076 104.276 87.6739 105.535 86.0936 106.537C80.6498 109.676 76.5334 106.938 76.5334 100.052C76.5334 93.0175 80.8434 85.1306 86.3702 81.9362C91.897 78.7418 95.9488 81.5812 95.9488 88.6983C95.9488 93.0129 94.2571 96.7927 91.8555 98.1755C90.528 98.9038 89.583 98.7333 89.3479 97.2675ZM83.1758 95.9722C83.1758 98.1755 84.2452 99.3832 85.877 98.4429C87.5087 97.5025 88.6427 95.0871 88.6427 92.8607C88.6427 90.7173 87.5502 89.6341 85.8539 90.6113C84.2452 91.524 83.1758 93.861 83.1758 95.9722Z" fill="white"/>
<path d="M98.8939 29.3277C108.44 23.7962 116.175 28.2859 116.175 39.3073C116.175 50.3287 108.44 63.7378 98.8939 69.2416C89.3476 74.7454 81.6128 70.2834 81.6128 59.262C81.6128 48.2406 89.3476 34.8591 98.8939 29.3277Z" fill="white"/>
<path d="M98.8939 29.3277C108.44 23.7962 116.175 28.2859 116.175 39.3073C116.175 50.3287 108.44 63.7378 98.8939 69.2416C89.3476 74.7454 81.6128 70.2834 81.6128 59.262C81.6128 48.2406 89.3476 34.8591 98.8939 29.3277Z" fill="#F5F5F5"/>
<path d="M92.5928 43.9629C91.8008 44.0998 91.0933 44.5395 90.6199 45.189C89.7718 46.2815 89.9469 47.8395 90.6199 51.3474L93.2427 50.9463L92.5928 43.9629Z" fill="#263238"/>
<path d="M107.878 38.8002C108.467 38.6428 109.023 38.3805 109.519 38.0258C110.326 37.3482 110.533 38.2102 110.091 39.1228C109.797 39.7735 109.377 40.3594 108.856 40.8468C108.335 41.3342 107.722 41.7134 107.053 41.9623C107.025 41.8517 106.297 40.1185 106.297 40.1185L107.878 38.8002Z" fill="#263238"/>
<path d="M94.1001 62.0553C94.1001 62.0553 89.214 65.2082 88.1538 66.3191C87.0936 67.43 86.6557 70.8918 86.2639 75.1279C86.2639 75.1279 91.8276 77.4742 100.553 73.1551C109.279 68.8359 110.068 65.4203 110.068 65.4203C110.068 65.4203 108.938 60.2898 108.519 58.8655C107.989 57.0632 106.965 55.7633 101.014 58.4645L94.1001 62.0553Z" fill="#263238"/>
<path d="M93.8235 50.7943C93.4316 51.1308 92.8785 50.5315 92.3991 50.1582C91.9197 49.7848 90.3525 49.5175 89.5689 51.3751C88.7852 53.2327 90.583 55.012 91.6431 55.4684C92.0059 55.6209 92.4051 55.6646 92.7922 55.5942C93.1794 55.5239 93.5377 55.3424 93.8235 55.0719L94.1 62.0554C94.1 62.0554 95.4829 64.4477 99.2627 63.9499C103.043 63.4521 102.254 59.6538 101.019 58.4646V57.0264C101.019 57.0264 102.969 56.8973 103.886 56.4087C104.379 56.146 105.55 54.4128 106.306 52.6243C107.865 49.3297 108.22 45.5933 107.311 42.0638C105.96 36.6799 99.7882 38.1596 96.1098 41.46C92.4314 44.7604 93.8235 50.7943 93.8235 50.7943Z" fill="#FFA8A7"/>
<path d="M108.943 33.3979C108.611 32.3101 108.408 32.5037 105.739 34.3797C103.701 35.8149 101.426 36.8806 99.0185 37.528C97.1378 38.0996 94.5657 38.5514 93.2428 40.2938C92.6738 41.0431 92.3836 41.9673 92.4223 42.9074C92.3101 42.8034 92.1739 42.7289 92.0258 42.6907C91.3759 42.5156 90.5784 42.9903 90.2419 43.7555L92.5467 44.3686C92.3669 45.6961 91.8507 49.794 92.413 50.1535C92.897 50.4624 93.6392 51.4995 93.8374 51.4442C94.4965 51.2552 94.7593 48.3328 95.1188 46.5627C95.5106 44.5484 95.6628 43.797 96.3864 43.714C98.7369 43.3435 101.05 42.7682 103.301 41.9947C105.79 41.0221 106.504 40.197 106.504 40.197L107.832 39.3534C108.424 38.4942 108.83 37.5199 109.021 36.4939C109.212 35.4678 109.186 34.413 108.943 33.3979Z" fill="#263238"/>
<path d="M101.01 57.0264C101.01 57.0264 97.5202 57.2614 96.3033 56.9388C95.6023 56.7718 94.9958 56.3343 94.6162 55.7219C94.7887 56.3627 95.1182 56.9505 95.575 57.432C96.4646 58.3539 101.01 57.9575 101.01 57.9575V57.0264Z" fill="#F28F8F"/>
<path d="M100.12 52.9745L101.715 53.1451C101.649 53.3817 101.508 53.5901 101.312 53.7384C101.116 53.8866 100.877 53.9665 100.632 53.9656C100.189 53.9195 99.9633 53.477 100.12 52.9745Z" fill="#F28F8F"/>
<path d="M102.425 46.7517L102.655 50.8957L104.854 49.5635L102.425 46.7517Z" fill="#F28F8F"/>
<path d="M100.171 48.2268C100.166 48.4341 100.097 48.6348 99.9718 48.8003C99.8468 48.9658 99.6729 49.0877 99.4747 49.1487C99.3919 49.1771 99.3033 49.1845 99.2169 49.1703C99.1304 49.1561 99.0489 49.1207 98.9795 49.0673C98.9101 49.0139 98.855 48.9441 98.8191 48.8642C98.7833 48.7843 98.7678 48.6967 98.7741 48.6094C98.7795 48.4017 98.85 48.2009 98.9757 48.0355C99.1015 47.87 99.276 47.7483 99.4747 47.6875C99.5573 47.6588 99.6458 47.6512 99.7321 47.6653C99.8184 47.6795 99.8997 47.715 99.9689 47.7685C100.038 47.8221 100.093 47.892 100.128 47.9721C100.163 48.0521 100.178 48.1396 100.171 48.2268Z" fill="#263238"/>
<path d="M99.4286 45.779L97.9351 47.0052C97.8384 46.7829 97.8204 46.5344 97.8841 46.3005C97.9478 46.0667 98.0894 45.8616 98.2854 45.7191C98.3589 45.6377 98.4496 45.5738 98.551 45.5319C98.6523 45.49 98.7617 45.4713 98.8712 45.477C98.9807 45.4828 99.0876 45.5129 99.184 45.5651C99.2804 45.6173 99.364 45.6904 99.4286 45.779Z" fill="#263238"/>
<path d="M106.408 44.4884L105.025 43.8062C105.129 43.5928 105.306 43.4244 105.525 43.332C105.744 43.2396 105.988 43.2296 106.214 43.3037C106.308 43.3658 106.388 43.4466 106.45 43.5413C106.511 43.6359 106.552 43.7423 106.57 43.8536C106.589 43.9649 106.584 44.0788 106.556 44.1881C106.527 44.2973 106.477 44.3996 106.408 44.4884Z" fill="#263238"/>
<path d="M106.011 46.4612C106.005 46.6682 105.935 46.8682 105.81 47.0334C105.686 47.1986 105.513 47.3209 105.315 47.3831C105.232 47.4115 105.144 47.4189 105.057 47.4047C104.971 47.3905 104.889 47.3551 104.82 47.3017C104.75 47.2483 104.695 47.1785 104.659 47.0986C104.624 47.0187 104.608 46.9312 104.614 46.8438C104.62 46.6361 104.69 46.4353 104.816 46.2699C104.942 46.1044 105.116 45.9827 105.315 45.9219C105.398 45.8932 105.486 45.8856 105.572 45.8998C105.659 45.9139 105.74 45.9494 105.809 46.0029C105.878 46.0565 105.933 46.1265 105.968 46.2065C106.003 46.2865 106.018 46.3741 106.011 46.4612Z" fill="#263238"/>
</svg>
