<svg width="222" height="220" viewBox="0 0 222 220" fill="none" xmlns="http://www.w3.org/2000/svg">
<path d="M76.1661 2.99367C74.4232 0.368381 70.763 0.0579212 68.2194 1.73005C65.6758 3.40217 64.4068 5.48824 63.7749 8.71267C63.6739 7.26929 63.2619 5.86484 62.5672 4.59565C61.8724 3.32646 60.9113 2.22256 59.7499 1.35967C57.3424 -0.530319 53.6442 -0.541212 51.6616 1.90434C50.5164 3.47501 50.0085 5.42104 50.24 7.351C50.4034 9.27367 50.8609 11.2835 51.9666 12.7595C55.9154 18.0156 58.1485 19.0123 63.3447 22.8522C68.7913 19.4807 70.556 18.6583 74.9188 13.7672C76.1443 12.3946 76.7707 10.4284 77.0975 8.52748C77.4908 6.63133 77.1584 4.65663 76.1661 2.99367Z" fill="#EBEBEB"/>
<path d="M15.2289 24.0341C15.66 23.5587 15.9415 22.9668 16.0384 22.3324C16.1352 21.6979 16.0431 21.049 15.7736 20.4666C15.6333 20.065 15.4116 19.6967 15.1224 19.3848C14.8331 19.073 14.4826 18.8242 14.0927 18.6541C13.7028 18.4841 13.282 18.3964 12.8566 18.3966C12.4312 18.3968 12.0105 18.4849 11.6208 18.6553C11.231 18.8257 10.8807 19.0748 10.5918 19.3869C10.3028 19.6991 10.0814 20.0676 9.94155 20.4693C9.80166 20.871 9.74627 21.2972 9.77884 21.7214C9.81142 22.1455 9.93126 22.5583 10.1308 22.9339C10.3803 23.5319 10.8019 24.0423 11.3421 24.4002C11.8823 24.758 12.5167 24.9472 13.1646 24.9437C9.11776 27.5091 11.3999 32.1333 11.3999 32.1333L21.6614 27.6507C21.6614 27.6507 19.8096 22.7869 15.2289 24.0341Z" fill="#F5F5F5"/>
<path d="M197.093 102.221C198.343 102.054 199.516 101.525 200.468 100.698C201.419 99.8713 202.107 98.7835 202.447 97.5695C203.46 94.1544 201.684 90.6195 198.482 89.6718C195.279 88.7241 191.87 90.723 190.857 94.1381C190.479 95.3516 190.468 96.6498 190.827 97.8691C191.185 99.0884 191.897 100.174 192.872 100.99C183.553 99.7372 181.129 109.558 181.129 109.558L202.218 115.805C202.218 115.805 205.557 106.137 197.093 102.221Z" fill="#E0E0E0"/>
<path d="M116.945 172.766C116.945 172.257 116.845 171.754 116.65 171.284C116.455 170.814 116.169 170.387 115.809 170.028C115.449 169.668 115.021 169.384 114.55 169.19C114.08 168.996 113.576 168.898 113.067 168.899L29.9784 169.024C29.4697 169.024 28.9659 169.125 28.496 169.32C28.0261 169.515 27.5993 169.8 27.2401 170.161C26.8808 170.521 26.5962 170.949 26.4025 171.419C26.2088 171.889 26.1099 172.393 26.1113 172.902L26.1494 198.447C26.1501 198.956 26.251 199.459 26.4463 199.929C26.6416 200.398 26.9274 200.825 27.2875 201.184C27.6476 201.543 28.0749 201.828 28.5451 202.022C29.0152 202.215 29.5189 202.315 30.0274 202.314L102.223 202.205L111.793 211.9V202.194H113.133C113.641 202.194 114.145 202.094 114.615 201.899C115.085 201.704 115.512 201.418 115.871 201.058C116.23 200.698 116.515 200.27 116.709 199.8C116.902 199.329 117.001 198.825 117 198.316L116.945 172.766Z" fill="#EBEBEB"/>
<path d="M40.436 199.057H40.5232L40.3543 196.334L40.436 199.057Z" fill="#F5F5F5"/>
<path d="M44.0145 171.726C41.0511 171.729 38.1662 172.679 35.7808 174.437C33.3955 176.196 31.6346 178.671 30.7551 181.501C29.8757 184.331 29.9237 187.368 30.8922 190.168C31.8607 192.969 33.6989 195.387 36.1387 197.069C35.4449 193.244 35.0804 189.366 35.0493 185.479H34.9785C34.9785 185.25 35.0384 184.907 35.0711 184.553C35.1055 184.116 35.1618 183.682 35.24 183.251C36.8195 176.535 42.5167 175.184 43.6496 175.163C44.8642 175.163 46.9721 174.416 50.1311 177.657C51.0305 178.517 51.6556 179.624 51.928 180.838C52.2003 182.052 52.1076 183.32 51.6617 184.482C51.7216 186.66 51.7597 189.073 51.6998 190.588C51.5691 193.79 48.4318 194.193 48.4318 194.193C48.4318 194.193 48.2793 196.949 48.2357 198.883C51.4046 197.884 54.111 195.783 55.8645 192.961C57.618 190.139 58.3026 186.782 57.7942 183.499C57.2858 180.215 55.6181 177.223 53.0932 175.063C50.5684 172.903 47.3534 171.719 44.0309 171.726H44.0145Z" fill="#F5F5F5"/>
<path d="M48.361 194.983C45.2346 195.174 44.2542 192.837 44.2542 192.837C45.4789 193.686 46.9256 194.158 48.4154 194.193C48.4154 194.193 51.5581 193.79 51.6834 190.588C51.7433 189.073 51.6834 186.639 51.6453 184.482L51.1006 184.008L46.5527 182.881C46.8904 181.612 46.3293 180.054 46.008 179.329L45.9753 179.302C45.1583 184.112 40.0167 184.711 40.0167 184.711L40.3598 196.361L40.5287 199.084C43.0618 199.741 45.7283 199.673 48.2248 198.888C48.2684 196.955 48.4209 194.199 48.4209 194.199L48.361 194.983ZM45.9426 185.893C45.8615 185.896 45.7812 185.875 45.712 185.832C45.6428 185.79 45.588 185.727 45.5544 185.653C45.5208 185.579 45.51 185.497 45.5235 185.417C45.5369 185.337 45.5739 185.263 45.6298 185.204C45.6857 185.145 45.7578 185.104 45.8371 185.086C45.9164 185.068 45.9992 185.074 46.0749 185.104C46.1505 185.133 46.2157 185.185 46.262 185.252C46.3083 185.318 46.3336 185.397 46.3348 185.479C46.3362 185.532 46.3272 185.584 46.3083 185.634C46.2894 185.683 46.2609 185.728 46.2245 185.767C46.1881 185.805 46.1444 185.836 46.0961 185.858C46.0477 185.879 45.9956 185.891 45.9426 185.893ZM50.5723 185.806C50.4911 185.809 50.4108 185.788 50.3417 185.745C50.2725 185.702 50.2176 185.64 50.184 185.566C50.1505 185.492 50.1397 185.41 50.1531 185.33C50.1666 185.25 50.2036 185.175 50.2594 185.116C50.3153 185.057 50.3875 185.016 50.4668 184.999C50.5461 184.981 50.6288 184.987 50.7045 185.017C50.7802 185.046 50.8454 185.098 50.8917 185.165C50.938 185.231 50.9633 185.31 50.9645 185.392C50.9666 185.445 50.9582 185.498 50.9395 185.547C50.9208 185.597 50.8924 185.643 50.8558 185.681C50.8193 185.72 50.7753 185.751 50.7266 185.772C50.6779 185.793 50.6255 185.805 50.5723 185.806ZM49.935 184.64C50.1208 184.509 50.3452 184.444 50.5723 184.455C50.8001 184.464 51.0185 184.548 51.1932 184.694C51.3239 184.809 51.3675 184.912 51.3403 184.934C51.313 184.956 50.9917 184.738 50.5614 184.722C50.1311 184.705 49.8098 184.923 49.7662 184.869C49.7226 184.814 49.8207 184.749 49.935 184.64ZM48.0559 184.874C48.4028 185.623 48.6941 186.397 48.9274 187.189L49.227 188.104C49.2938 188.249 49.311 188.411 49.276 188.567C49.2602 188.607 49.2352 188.642 49.203 188.671C49.1708 188.699 49.1324 188.72 49.0908 188.73C49.0295 188.74 48.967 188.74 48.9056 188.73C48.6694 188.753 48.4313 188.743 48.1976 188.703C48.4258 188.635 48.6621 188.599 48.9002 188.594C49.0091 188.594 49.1126 188.567 49.1344 188.491C49.1433 188.368 49.1189 188.246 49.0636 188.137L48.7531 187.227C48.4616 186.461 48.2286 185.675 48.0559 184.874ZM48.8784 189.863C48.7287 190.09 48.5057 190.257 48.2468 190.339C47.988 190.42 47.709 190.41 47.4568 190.31C47.3374 190.28 47.2251 190.227 47.1264 190.153C47.0277 190.08 46.9445 189.987 46.8817 189.882C46.8189 189.776 46.7777 189.658 46.7605 189.537C46.7433 189.415 46.7504 189.291 46.7814 189.172C46.3402 188.883 48.0015 189.88 48.8784 189.863ZM45.1638 184.749C45.3523 184.62 45.5783 184.556 45.8065 184.569C46.0328 184.577 46.2498 184.662 46.4219 184.809C46.5527 184.918 46.5962 185.021 46.5744 185.048C46.5527 185.076 46.2259 184.847 45.7956 184.836C45.3653 184.825 45.0439 185.038 44.9949 184.978C44.9459 184.918 45.0276 184.831 45.1638 184.749Z" fill="#EBEBEB"/>
<path d="M50.556 184.988C50.4476 184.988 50.3437 185.031 50.2671 185.108C50.1905 185.185 50.1475 185.289 50.1475 185.397C50.1475 185.505 50.1905 185.609 50.2671 185.686C50.3437 185.762 50.4476 185.805 50.556 185.805C50.6091 185.805 50.6616 185.793 50.7103 185.772C50.759 185.751 50.8029 185.72 50.8395 185.681C50.8761 185.643 50.9045 185.597 50.9232 185.547C50.9418 185.498 50.9503 185.445 50.9481 185.391C50.9482 185.286 50.9072 185.185 50.834 185.11C50.7607 185.035 50.661 184.991 50.556 184.988Z" fill="#E0E0E0"/>
<path d="M50.5614 184.749C50.9917 184.749 51.2912 185.016 51.3403 184.961C51.3893 184.907 51.3403 184.836 51.1932 184.721C51.0185 184.575 50.8001 184.491 50.5723 184.482C50.3452 184.471 50.1208 184.536 49.935 184.667C49.7934 184.77 49.7444 184.869 49.7662 184.896C49.788 184.923 50.1311 184.7 50.5614 184.749Z" fill="#E0E0E0"/>
<path d="M45.9262 185.076C45.8452 185.076 45.766 185.1 45.6987 185.145C45.6314 185.19 45.5791 185.254 45.5483 185.329C45.5176 185.404 45.5098 185.486 45.526 185.566C45.5422 185.645 45.5817 185.718 45.6394 185.775C45.697 185.832 45.7703 185.87 45.8499 185.885C45.9295 185.901 46.0118 185.892 46.0864 185.86C46.1609 185.828 46.2243 185.775 46.2686 185.707C46.3128 185.639 46.3358 185.56 46.3347 185.479C46.3333 185.371 46.2896 185.269 46.2132 185.193C46.1367 185.118 46.0336 185.076 45.9262 185.076Z" fill="#E0E0E0"/>
<path d="M45.7956 184.814C46.2259 184.814 46.5254 185.081 46.5744 185.027C46.6235 184.972 46.5744 184.896 46.4219 184.787C46.2497 184.64 46.0328 184.555 45.8065 184.547C45.5783 184.535 45.3523 184.598 45.1638 184.727C45.0276 184.831 44.9731 184.929 44.9949 184.956C45.0167 184.983 45.3653 184.792 45.7956 184.814Z" fill="#E0E0E0"/>
<path d="M49.0636 188.158C49.1189 188.268 49.1433 188.39 49.1344 188.512C49.1344 188.589 49.0091 188.611 48.9002 188.616C48.6621 188.621 48.4258 188.657 48.1975 188.725C48.4313 188.765 48.6694 188.774 48.9056 188.752C48.967 188.762 49.0295 188.762 49.0908 188.752C49.1324 188.741 49.1708 188.721 49.203 188.693C49.2352 188.664 49.2602 188.629 49.276 188.589C49.311 188.433 49.2938 188.27 49.227 188.126L48.9274 187.211C48.6941 186.419 48.4028 185.645 48.0559 184.896C48.2275 185.704 48.4605 186.498 48.7531 187.271L49.0636 188.158Z" fill="#E0E0E0"/>
<path d="M47.4568 190.31C47.709 190.41 47.988 190.42 48.2468 190.339C48.5057 190.257 48.7287 190.09 48.8784 189.863C48.0015 189.863 46.3402 188.883 46.7814 189.171C46.7504 189.291 46.7433 189.415 46.7605 189.537C46.7777 189.658 46.8189 189.776 46.8817 189.882C46.9445 189.987 47.0277 190.08 47.1264 190.153C47.2251 190.227 47.3374 190.28 47.4568 190.31Z" fill="white"/>
<path d="M44.2542 192.837C44.2542 192.837 45.2346 195.174 48.3609 194.983L48.4154 194.193C46.9256 194.158 45.4789 193.686 44.2542 192.837Z" fill="#E0E0E0"/>
<path d="M40.0166 184.711C40.0166 184.711 45.1583 184.112 45.9753 179.302L46.0079 179.329C46.3239 180.054 46.8849 181.612 46.5526 182.881L51.1441 184.008L51.6888 184.482C52.1291 183.319 52.2162 182.052 51.939 180.84C51.6619 179.628 51.0329 178.524 50.1311 177.668C46.972 174.427 44.8641 175.152 43.6495 175.174C42.5166 175.174 36.8194 176.546 35.2399 183.262C35.1618 183.693 35.1054 184.127 35.071 184.564C35.0384 184.918 35.0057 185.261 34.9785 185.49H35.0493C35.0804 189.377 35.4448 193.255 36.1386 197.08C37.4467 197.984 38.9003 198.656 40.436 199.068L40.3543 196.372L40.0166 184.711Z" fill="#E0E0E0"/>
<path d="M62.9693 181.164L106.657 181.095L106.653 178.688L62.9655 178.756L62.9693 181.164Z" fill="#F5F5F5"/>
<path d="M62.9814 187.362L106.669 187.293L106.665 184.886L62.9776 184.955L62.9814 187.362Z" fill="#F5F5F5"/>
<path d="M85.02 193.343L106.676 193.309L106.672 190.901L85.0163 190.935L85.02 193.343Z" fill="#F5F5F5"/>
<path d="M181.886 75.8156C181.514 75.4922 181.031 75.3271 180.539 75.3556C180.048 75.3841 179.587 75.6039 179.255 75.9681C178.926 76.2996 178.672 76.6988 178.512 77.138C178.352 77.5772 178.29 78.0459 178.329 78.5117C178.196 78.0576 177.966 77.6378 177.655 77.2814C177.343 76.925 176.958 76.6404 176.526 76.4474C176.088 76.2175 175.578 76.1668 175.104 76.306C174.629 76.4453 174.227 76.7635 173.983 77.1936C173.729 77.7743 173.701 78.4293 173.907 79.0291C174.063 79.6495 174.387 80.2149 174.843 80.6631C176.477 82.0629 177.256 82.2263 179.201 83.0869C180.715 81.6217 181.211 81.235 182.262 79.3668C182.534 78.7994 182.647 78.1687 182.589 77.5422C182.583 76.8981 182.332 76.2805 181.886 75.8156Z" fill="#F5F5F5"/>
<path d="M51.2858 27.4982L52.0047 28.9525L53.6115 29.1867L52.4514 30.3196L52.7237 31.9209L51.2858 31.1638L49.8533 31.9209L50.1256 30.3196L48.9655 29.1867L50.5723 28.9525L51.2858 27.4982Z" fill="#E0E0E0"/>
<path d="M24.6407 61.9102L25.9425 64.5464L28.8455 64.9658L26.7431 67.0137L27.2388 69.9059L24.6407 68.5388L22.0426 69.9059L22.5437 67.0137L20.4413 64.9658L23.3444 64.5464L24.6407 61.9102Z" fill="#E0E0E0"/>
<path d="M43.1539 63.7021L43.5134 64.4266L44.3141 64.5464L43.7367 65.1074L43.8729 65.908L43.1539 65.5322L42.435 65.908L42.5766 65.1074L41.9938 64.5464L42.7944 64.4266L43.1539 63.7021Z" fill="#E0E0E0"/>
<path d="M163.798 199.09C152.577 191.252 150.034 176.704 150.475 163.627C150.551 161.448 150.312 159.139 151.346 157.227C152.381 155.315 154.811 154.002 156.793 154.917C158.427 155.685 159.119 157.57 160.028 159.128C161.237 161.213 163.013 162.912 165.148 164.03C166.537 164.749 168.258 165.19 169.625 164.433C171.51 163.398 171.733 160.794 171.717 158.621C171.695 154.576 171.672 150.529 171.646 146.481C171.646 144.302 171.646 142.096 172.3 140.037C172.953 137.978 174.478 136.061 176.532 135.478C178.585 134.895 181.151 136.094 181.586 138.202C181.772 139.084 181.586 140.004 181.652 140.925C181.717 141.845 182.131 142.826 182.986 143.076C183.841 143.327 184.724 142.717 185.372 142.08C187.61 139.901 189.13 137.063 190.552 134.258C191.973 131.453 193.351 128.572 195.388 126.181C197.425 123.79 200.236 121.894 203.34 121.72C206.445 121.546 209.767 123.463 210.552 126.513C211.336 129.563 209.555 132.684 207.61 135.157C204.728 138.833 201.328 142.073 197.518 144.776C196.837 145.266 196.091 145.789 195.829 146.595C195.361 148.038 196.733 149.476 198.161 149.956C199.795 150.5 201.532 150.326 203.226 150.5C204.92 150.674 206.755 151.448 207.393 153.049C208.286 155.266 206.429 157.592 204.604 159.117C200.945 162.165 196.788 164.56 192.316 166.197C190.715 166.786 189.048 167.287 187.747 168.42C186.445 169.553 185.682 171.492 186.461 173.022C187.24 174.553 189.239 175.043 190.911 174.732C192.583 174.422 194.081 173.512 195.677 172.913C198.656 171.786 202.512 171.993 204.424 174.547C205.677 176.241 205.791 178.605 205.154 180.626C204.517 182.646 203.231 184.384 201.886 185.991C197.104 191.601 190.993 196.116 184.059 198.518C177.126 200.92 170.726 201.568 163.847 199.063" fill="#47D163"/>
<path d="M163.623 208.785C164.232 202.722 165.42 196.73 167.169 190.893C169.342 183.768 171.92 176.774 174.892 169.945L177.202 164.558C177.964 162.793 178.716 161.04 179.56 159.373C181.187 156.175 182.989 153.069 184.958 150.07C186.821 147.194 188.689 144.531 190.459 142.053C192.229 139.574 193.923 137.308 195.557 135.299C198.119 132.12 200.929 129.149 203.961 126.415C205.05 125.446 205.889 124.721 206.472 124.236L207.142 123.692C207.214 123.624 207.295 123.565 207.382 123.518C207.318 123.591 207.246 123.659 207.169 123.719L206.532 124.291C205.96 124.792 205.127 125.533 204.07 126.519C201.092 129.297 198.324 132.294 195.791 135.484C194.157 137.494 192.523 139.77 190.742 142.249C188.961 144.727 187.131 147.396 185.295 150.272C183.342 153.258 181.552 156.349 179.936 159.531C179.097 161.192 178.351 162.924 177.594 164.7L175.29 170.081C172.322 176.895 169.738 183.871 167.55 190.974C165.789 196.787 164.578 202.752 163.934 208.79" fill="#263238"/>
<path d="M179.674 159.357C179.572 159.056 179.501 158.746 179.462 158.431C179.348 157.831 179.211 156.96 179.059 155.876C178.754 153.697 178.433 150.713 178.089 147.407C177.746 144.1 177.381 141.11 177.044 138.959C176.875 137.869 176.733 137.014 176.624 136.415C176.549 136.105 176.509 135.787 176.504 135.467C176.627 135.762 176.718 136.069 176.777 136.383C176.929 136.971 177.12 137.837 177.321 138.91C177.73 141.056 178.144 144.051 178.487 147.363C178.83 150.675 179.113 153.583 179.342 155.843C179.451 156.862 179.544 157.717 179.615 158.409C179.67 158.722 179.69 159.039 179.674 159.357Z" fill="#263238"/>
<path d="M207.589 154.139C207.23 154.218 206.866 154.263 206.499 154.275C205.78 154.34 204.745 154.422 203.466 154.574C200.911 154.847 197.392 155.353 193.536 156.078C189.68 156.802 186.216 157.625 183.732 158.289C182.485 158.61 181.483 158.894 180.791 159.09C180.437 159.213 180.072 159.302 179.702 159.357C180.036 159.184 180.386 159.043 180.747 158.937C181.428 158.698 182.42 158.393 183.656 158.011C186.134 157.281 189.598 156.421 193.46 155.68C197.322 154.939 200.867 154.493 203.438 154.286C204.724 154.177 205.769 154.133 206.488 154.117C206.855 154.091 207.223 154.099 207.589 154.139Z" fill="#263238"/>
<path d="M167.518 190.375C167.518 190.375 167.436 190.266 167.321 190.038C167.207 189.809 167.038 189.433 166.848 189.03C166.434 188.148 165.873 186.851 165.214 185.261C163.868 182.064 162.147 177.587 160.312 172.625C158.476 167.663 156.798 163.169 155.524 159.95C154.898 158.382 154.38 157.096 153.999 156.138C153.835 155.724 153.699 155.38 153.59 155.097C153.534 154.98 153.494 154.855 153.471 154.727C153.548 154.831 153.612 154.944 153.661 155.065C153.792 155.337 153.95 155.669 154.14 156.078C154.549 156.955 155.11 158.256 155.774 159.841C157.12 163.038 158.841 167.516 160.676 172.483C162.512 177.45 164.184 181.933 165.464 185.152C166.09 186.721 166.602 188.006 166.989 188.965C167.153 189.379 167.289 189.722 167.398 190.005C167.451 190.124 167.491 190.248 167.518 190.375Z" fill="#263238"/>
<path d="M204.609 178.42C204.494 178.488 204.369 178.54 204.239 178.572L203.15 178.937L199.174 180.223C195.824 181.312 191.205 182.864 186.102 184.58C180.998 186.296 176.374 187.848 172.991 188.839C171.303 189.351 169.936 189.749 168.983 190.005L167.893 190.294C167.769 190.336 167.638 190.36 167.507 190.364C167.621 190.298 167.744 190.246 167.872 190.212L168.961 189.852L172.915 188.561C176.27 187.472 180.884 185.92 185.987 184.204C191.091 182.488 195.72 180.963 199.097 179.945C200.786 179.433 202.158 179.035 203.111 178.779L204.201 178.491C204.334 178.452 204.471 178.428 204.609 178.42Z" fill="#263238"/>
<path d="M210.938 14.3064V21.3489C210.938 22.1145 210.634 22.8488 210.093 23.3902C209.551 23.9315 208.817 24.2357 208.052 24.2357H195.906V28.2499L193.727 24.41C193.082 24.3631 192.478 24.0736 192.037 23.5997C191.597 23.1258 191.352 22.5026 191.352 21.8555V14.3064C191.352 13.5422 191.656 12.8094 192.196 12.269C192.736 11.7287 193.469 11.4251 194.233 11.4251H208.052C208.43 11.4244 208.806 11.4984 209.156 11.6429C209.506 11.7874 209.824 11.9995 210.093 12.2671C210.361 12.5347 210.573 12.8526 210.719 13.2025C210.864 13.5524 210.938 13.9276 210.938 14.3064Z" fill="#455A64"/>
<path d="M205.503 19.3772C206.158 19.3772 206.69 18.8456 206.69 18.1899C206.69 17.5341 206.158 17.0025 205.503 17.0025C204.847 17.0025 204.315 17.5341 204.315 18.1899C204.315 18.8456 204.847 19.3772 205.503 19.3772Z" fill="#263238"/>
<path d="M200.993 19.3772C201.648 19.3772 202.18 18.8456 202.18 18.1899C202.18 17.5341 201.648 17.0025 200.993 17.0025C200.337 17.0025 199.805 17.5341 199.805 18.1899C199.805 18.8456 200.337 19.3772 200.993 19.3772Z" fill="#263238"/>
<path d="M195.301 18.1899C195.303 18.4242 195.375 18.6527 195.506 18.8465C195.638 19.0404 195.824 19.1908 196.042 19.279C196.259 19.3672 196.497 19.3892 196.727 19.3422C196.956 19.2951 197.167 19.1812 197.332 19.0147C197.497 18.8482 197.609 18.6367 197.654 18.4066C197.699 18.1766 197.675 17.9384 197.584 17.7221C197.494 17.5058 197.342 17.321 197.147 17.191C196.952 17.061 196.723 16.9916 196.488 16.9916C196.331 16.9909 196.176 17.0214 196.031 17.0815C195.886 17.1416 195.754 17.23 195.643 17.3416C195.533 17.4531 195.446 17.5856 195.387 17.7313C195.328 17.8769 195.299 18.0328 195.301 18.1899Z" fill="#263238"/>
<path d="M46.6016 40.9896C46.5969 41.067 46.5841 41.1436 46.5635 41.2184C46.5308 41.3872 46.4818 41.616 46.4219 41.9047C46.2912 42.5256 46.106 43.4188 45.8772 44.5572C45.3761 46.8829 44.6572 50.2163 43.7803 54.3013V54.4047L43.6713 54.3775L40.0112 53.5823C38.3772 53.4897 36.7432 53.3808 34.9567 53.2501C33.1702 53.1193 31.3564 52.9995 29.461 52.7326C28.9597 52.668 28.4772 52.5 28.044 52.2394C27.6109 51.9788 27.2366 51.6311 26.9446 51.2184C26.3502 50.3683 26.0674 49.339 26.144 48.3045C26.1968 47.792 26.2952 47.2853 26.4381 46.7903C26.5579 46.2947 26.6832 45.799 26.803 45.2979L27.5765 42.2696C27.8815 41.0931 28.1974 39.9384 28.5351 38.8001C28.7094 38.2282 28.8837 37.6672 29.0797 37.117C29.1288 36.9754 29.205 36.8393 29.2704 36.6976C29.3209 36.6162 29.3833 36.5428 29.4556 36.4798C29.5385 36.4416 29.6266 36.4159 29.717 36.4035C30.014 36.3736 30.3133 36.3736 30.6103 36.4035C32.8302 36.6493 35.0343 37.0221 37.2116 37.5201H37.3042V37.6181C37.3015 37.6453 37.3015 37.6727 37.3042 37.6998C37.3042 37.6998 37.3042 37.6998 37.2279 37.6563C37.1517 37.6127 37.1517 37.6889 37.1517 37.6563C37.1658 37.6324 37.1768 37.6067 37.1844 37.58C37.2272 37.4604 37.2635 37.3386 37.2933 37.2151C37.3587 36.9591 37.4131 36.7031 37.4621 36.4471C37.5602 35.9351 37.6528 35.4286 37.7345 34.922C37.8552 33.9295 38.0371 32.9455 38.2791 31.9754C38.5454 31.0504 39.0377 30.2062 39.7116 29.5189C40.0391 29.1922 40.4418 28.9508 40.8843 28.8159C41.3268 28.6811 41.7957 28.6569 42.2498 28.7455H42.3533L42.326 28.8545L41.3783 33.0756V33.0211C42.7999 36.3872 43.8674 38.9308 44.5319 40.5049H44.4992L46.1006 40.8861L46.4873 40.9787L46.6071 41.0169H46.4709L46.0679 40.9406L44.4829 40.6138C43.8021 39.0506 42.6964 36.5234 41.2149 33.1682V33.141C41.4981 31.8501 41.8031 30.4449 42.1354 28.9089L42.2116 29.0342C41.7951 28.9594 41.3666 28.9872 40.9632 29.1154C40.5599 29.2435 40.1938 29.468 39.8968 29.7695C39.2756 30.4545 38.8356 31.2839 38.6168 32.1824C38.3771 33.1456 38.1952 34.1223 38.0722 35.1072C37.9905 35.6138 37.9088 36.1257 37.8053 36.6432C37.7563 36.8992 37.7018 37.1878 37.6364 37.4166C37.6059 37.5512 37.5677 37.684 37.5221 37.8142C37.5221 37.8469 37.5221 37.885 37.4785 37.9231C37.4663 37.9447 37.4517 37.9648 37.4349 37.9831C37.4183 38.0096 37.3949 38.0312 37.3671 38.0456C37.3393 38.0599 37.3082 38.0666 37.277 38.0648C37.1517 38.0266 37.1626 37.9722 37.1354 37.9504C37.1081 37.9286 37.1354 37.8959 37.1354 37.8796V37.7597L37.2388 37.8796C35.0818 37.3969 32.8998 37.0332 30.7028 36.7902C30.4239 36.763 30.143 36.763 29.8641 36.7902C29.8109 36.7951 29.7592 36.8098 29.7116 36.8338C29.6786 36.8688 29.6494 36.9072 29.6244 36.9482C29.5598 37.0722 29.5016 37.1995 29.4501 37.3295C29.2377 37.8741 29.0634 38.4188 28.9054 38.9635C28.5677 40.0909 28.2573 41.2511 27.9468 42.4221C27.6908 43.4406 27.4022 44.4482 27.1789 45.445C27.0536 45.9461 26.9338 46.4472 26.8085 46.9428C26.672 47.4224 26.5755 47.9125 26.5198 48.408C26.4499 49.3744 26.7132 50.3355 27.266 51.1313C27.5341 51.5142 27.8787 51.8373 28.2781 52.0801C28.6775 52.323 29.123 52.4802 29.5863 52.542C31.4545 52.8089 33.2955 52.9287 35.0329 53.0867L40.082 53.4352L43.7367 54.2522L43.6114 54.3339C44.5265 50.2871 45.2781 46.9864 45.7901 44.677C46.057 43.5387 46.264 42.64 46.4056 42.0136C46.4764 41.7195 46.5363 41.4689 46.5744 41.3164C46.5736 41.2069 46.5827 41.0975 46.6016 40.9896Z" fill="#263238"/>
<path d="M52.9252 41.1693C52.803 41.1628 52.6812 41.1501 52.5603 41.1312L51.5581 40.995L47.9143 40.4504L48.0232 40.3741C47.2825 43.7783 46.2149 48.6639 45.033 54.0997L44.9186 54.5736L44.8097 54.4047L48.4372 55.2108L48.2738 55.3034C49.5755 51.2838 50.7193 47.7707 51.5418 45.2217C51.9557 43.9798 52.288 42.9722 52.5276 42.2423C52.642 41.9155 52.7291 41.6486 52.8054 41.4362C52.8313 41.3364 52.8678 41.2396 52.9143 41.1476C52.898 41.2365 52.8743 41.324 52.8435 41.409L52.6148 42.1988C52.3915 42.9232 52.0701 43.9254 51.7106 45.1672C50.91 47.7489 49.8043 51.311 48.5352 55.3906L48.5025 55.5104H48.3773L44.7498 54.7097L44.6082 54.6771L44.6409 54.5409L44.7443 54.0616L47.8217 40.3578V40.2652H47.9089L51.6017 40.9079L52.5712 41.0876C52.6911 41.1061 52.8094 41.1334 52.9252 41.1693Z" fill="#263238"/>
<path d="M174.56 21.7847L176.417 25.5483L180.573 26.1474L177.567 29.0777L178.275 33.2172L174.56 31.2619L170.845 33.2172L171.554 29.0777L168.547 26.1474L172.703 25.5483L174.56 21.7847Z" fill="#47D163"/>
<path d="M205.486 80.2055L206.412 82.0846L208.493 82.3896L206.99 83.8548L207.344 85.9191L205.486 84.9441L203.629 85.9191L203.983 83.8548L202.48 82.3896L204.56 82.0846L205.486 80.2055Z" fill="#47D163"/>
<path d="M30.3434 124.514L31.2748 126.399L33.35 126.698L31.8467 128.163L32.2007 130.233L30.3434 129.258L28.4861 130.233L28.8401 128.163L27.3368 126.698L29.4175 126.399L30.3434 124.514Z" fill="#47D163"/>
<path d="M150.328 219.537L81.6183 219.983C79.6537 219.997 77.7056 219.623 75.8855 218.884C74.0653 218.145 72.4086 217.054 71.0101 215.674C69.6115 214.294 68.4985 212.652 67.7347 210.842C66.9708 209.032 66.5711 207.089 66.5582 205.125L65.3545 32.8741C65.3284 28.904 66.8802 25.086 69.6686 22.2598C72.457 19.4336 76.2538 17.8305 80.2239 17.8032L148.95 17.3511C150.916 17.3404 152.864 17.7171 154.684 18.4597C156.504 19.2024 158.16 20.2965 159.557 21.6794C160.955 23.0623 162.065 24.707 162.827 26.5194C163.588 28.3319 163.984 30.2765 163.994 32.2423L165.197 204.493C165.216 208.458 163.661 212.269 160.874 215.09C158.086 217.91 154.293 219.509 150.328 219.537Z" fill="#263238"/>
<path d="M148.901 23.2987L135.578 23.3859C135.144 23.3985 134.716 23.4969 134.319 23.6752C133.922 23.8535 133.565 24.1083 133.267 24.4251C132.969 24.7418 132.736 25.1142 132.582 25.5209C132.429 25.9277 132.356 26.3608 132.37 26.7955V29.2084C132.395 30.0858 132.071 30.9373 131.468 31.5756C130.866 32.2139 130.034 32.5869 129.157 32.6125L103.198 32.7868C102.762 32.7818 102.332 32.6909 101.932 32.5191C101.531 32.3473 101.169 32.0981 100.865 31.7858C100.562 31.4735 100.323 31.1043 100.162 30.6994C100.002 30.2944 99.9227 29.8618 99.93 29.4262V27.0134C99.9416 26.1345 99.604 25.287 98.9912 24.6569C98.3785 24.0268 97.5408 23.6657 96.662 23.6528L91.9778 23.68L80.322 23.7617C78.9451 23.7695 77.5833 24.0488 76.3145 24.5834C75.0457 25.1181 73.8947 25.8976 72.9275 26.8775C71.9602 27.8574 71.1957 29.0184 70.6775 30.2941C70.1594 31.5697 69.8979 32.935 69.908 34.3119L71.079 202.439C71.0882 203.816 71.3685 205.177 71.9037 206.444C72.4389 207.712 73.2186 208.862 74.1983 209.829C75.178 210.795 76.3385 211.559 77.6135 212.077C78.8884 212.596 80.253 212.857 81.6292 212.848L150.197 212.401C151.574 212.392 152.936 212.112 154.204 211.576C155.473 211.041 156.623 210.261 157.59 209.28C158.557 208.3 159.322 207.139 159.84 205.864C160.359 204.588 160.621 203.223 160.611 201.846L159.44 33.7182C159.423 30.9393 158.303 28.281 156.327 26.3273C154.351 24.3735 151.68 23.2842 148.901 23.2987Z" fill="#FAFAFA"/>
<path d="M129.435 209.128L130.399 209.275V209.215L129.026 209.068L129.435 209.128Z" fill="#B78876"/>
<path d="M113.808 212.63C113.808 212.494 113.775 212.352 113.764 212.222C113.654 211.057 113.64 209.886 113.721 208.72C113.754 208.311 113.797 207.99 113.835 207.777C113.849 207.674 113.869 207.572 113.895 207.472C111.858 207.254 110.017 207.069 108.514 206.928L105.486 206.623L105.959 212.69L113.808 212.63Z" fill="#B78876"/>
<path d="M118.993 208.033C117.212 207.832 115.518 207.641 113.939 207.489C113.939 207.592 113.906 208.033 113.89 208.747C113.863 209.904 113.916 211.061 114.048 212.211C114.048 212.352 114.086 212.5 114.108 212.641L131.297 212.527C130.785 210.893 130.475 209.869 130.426 209.645C130.422 209.587 130.422 209.529 130.426 209.471L129.44 209.346C126.738 208.976 123.051 208.507 118.993 208.033Z" fill="#B78876"/>
<path d="M113.868 208.714C113.868 207.995 113.928 207.559 113.917 207.456C113.89 207.556 113.87 207.658 113.857 207.761C113.819 207.973 113.775 208.305 113.743 208.703C113.661 209.87 113.676 211.041 113.786 212.205C113.786 212.336 113.819 212.478 113.83 212.614H114.091C114.091 212.472 114.048 212.325 114.031 212.184C113.897 211.032 113.843 209.873 113.868 208.714Z" fill="#A36957"/>
<path d="M92.3046 110.053L89.5432 106.916L89.8101 106.644C87.8003 108.19 86.3079 109.133 86.1771 108.637C83.7643 99.8298 84.0584 88.4845 84.2872 84.1598C84.5214 83.7785 84.7828 83.3591 85.0987 82.9016C85.4662 82.3699 85.9189 81.9025 86.4386 81.5182C87.0663 81.0141 87.761 80.5999 88.5029 80.2872C89.2055 80.0639 89.2981 79.1162 88.6717 78.9038C88.0454 78.6914 86.09 79.2524 84.3144 80.8319C82.5388 82.4114 83.1706 78.7622 83.383 77.4332C83.5954 76.1042 84.0475 71.9484 83.688 71.5671C83.1434 71.0224 82.4516 71.4854 82.2719 72.8253C82.0922 74.1652 81.2752 78.1358 80.5725 78.0051C79.8699 77.8744 81.0464 71.1042 81.0464 71.1042C81.0464 71.1042 81.5311 69.6935 80.725 69.5192C79.2762 69.2087 78.5464 76.4855 78.5191 77.1826C78.4865 77.6619 77.7185 77.553 77.7838 77.0356C77.8492 76.5181 79.1019 70.298 77.6259 69.9549C76.4984 69.7044 76.9941 75.9462 76.0191 77.1064C75.0442 78.2665 76.1281 72.3242 75.0333 72.1227C74.6302 72.0464 74.3143 72.0519 74.1836 75.5377C74.211 78.347 74.3928 81.1526 74.7283 83.9419C74.0365 93.5335 72.9799 122.869 86.1663 121.491C91.5802 120.947 95.4964 119.062 98.3123 116.872L92.4408 110.195L92.3046 110.053Z" fill="#B78876"/>
<path d="M122.899 144.547L133.906 144.868C133.955 141.513 134.004 138.245 134.053 135.097C133.992 134.947 133.94 134.795 133.895 134.639V134.155C130.725 134.078 127.087 133.991 123.149 133.888C123.055 137.326 122.971 140.88 122.899 144.547Z" fill="#455A64"/>
<path d="M117.087 133.73L110.769 133.55C110.638 136.982 110.507 140.549 110.377 144.204L116.199 144.356L122.615 144.531C122.691 140.865 122.784 137.303 122.882 133.872L117.087 133.73Z" fill="#455A64"/>
<path d="M133.438 188.834L122.675 188.561C122.675 189.493 122.675 190.413 122.702 191.285C122.746 194.308 122.784 196.987 122.817 199.286L133.547 199.607C133.519 197.559 133.47 195.25 133.46 192.663C133.449 191.459 133.443 190.195 133.438 188.834Z" fill="#455A64"/>
<path d="M133.775 205.054C133.775 206.503 133.814 207.636 133.825 208.414C133.825 208.79 133.825 209.084 133.825 209.291C133.825 209.498 133.825 209.591 133.825 209.591C133.825 209.591 134.74 205.746 135.905 199.885L133.726 199.836C133.699 201.868 133.748 203.621 133.775 205.054Z" fill="#455A64"/>
<path d="M133.661 192.69C133.661 195.261 133.694 197.592 133.71 199.64L135.943 199.711C136.564 196.584 137.256 192.902 137.92 188.926L133.656 188.839C133.656 190.172 133.657 191.455 133.661 192.69Z" fill="#455A64"/>
<path d="M133.77 208.42C133.77 207.636 133.71 206.508 133.667 205.054C133.623 203.6 133.579 201.868 133.552 199.836C130.557 199.771 126.896 199.684 122.817 199.58C122.817 201.165 122.86 202.57 122.877 203.752C122.877 205.217 122.915 206.35 122.926 207.14C122.926 207.516 122.926 207.81 122.926 208.017V208.229C125.241 208.523 127.316 208.818 129.021 209.068L130.393 209.215L133.819 209.591C133.819 209.591 133.819 209.488 133.819 209.291C133.819 209.095 133.786 208.796 133.77 208.42Z" fill="#455A64"/>
<path d="M138.83 145.021C136.722 138.125 135.175 137.096 134.331 135.653C134.293 138.632 134.249 141.715 134.2 144.879L138.83 145.021Z" fill="#455A64"/>
<path d="M122.436 155.756L115.29 155.566L109.952 155.424C109.805 159.095 109.669 162.652 109.538 166.072L114.396 166.203L122.359 166.421C122.37 162.962 122.397 159.422 122.436 155.756Z" fill="#455A64"/>
<path d="M134.086 151.894C134.064 153.213 134.044 154.52 134.026 155.816L140.818 156.039C140.73 153.47 140.385 150.915 139.789 148.414C139.478 147.216 139.179 146.154 138.884 145.195L134.195 145.092C134.162 147.33 134.124 149.59 134.086 151.894Z" fill="#455A64"/>
<path d="M122.61 144.819L116.188 144.65L110.366 144.492C110.322 145.665 110.279 146.844 110.235 148.027C110.144 150.442 110.052 152.815 109.957 155.146L115.295 155.282L122.441 155.478C122.463 153.757 122.486 152.018 122.512 150.26C122.544 148.427 122.577 146.613 122.61 144.819Z" fill="#455A64"/>
<path d="M133.732 156.029C130.556 155.958 126.815 155.865 122.719 155.762C122.675 159.427 122.648 162.989 122.632 166.426C126.727 166.541 130.448 166.65 133.574 166.748C133.617 163.294 133.699 159.694 133.732 156.029Z" fill="#455A64"/>
<path d="M133.901 145.092C130.698 145.021 126.962 144.928 122.893 144.825C122.86 146.618 122.828 148.434 122.795 150.271C122.766 152.032 122.742 153.774 122.724 155.495L133.737 155.816C133.737 154.514 133.775 153.212 133.803 151.894C133.835 149.585 133.868 147.325 133.901 145.092Z" fill="#455A64"/>
<path d="M134.113 95.3527C134.14 96.137 134.173 97.2645 134.217 98.7187C134.217 99.2144 134.249 99.7699 134.26 100.353C134.26 100.538 134.287 100.718 134.293 100.897L141.374 101.11C140.153 97.5967 137.436 95.3254 134.505 93.8821C134.396 94.1286 134.257 94.3609 134.091 94.5738C134.091 94.7699 134.102 95.0259 134.113 95.3527Z" fill="#455A64"/>
<path d="M134.059 95.3581C134.059 95.0476 134.059 94.8134 134.059 94.6064C134.026 94.65 133.993 94.699 133.955 94.7426C133.905 94.7962 133.853 94.8471 133.797 94.8951C133.485 95.587 133.03 96.205 132.463 96.7089C133.287 97.4583 133.867 98.4371 134.13 99.5193C134.13 99.247 134.13 98.9747 134.13 98.7187C134.086 97.2699 134.07 96.137 134.059 95.3581Z" fill="#455A64"/>
<path d="M111.395 110.778L101.918 110.505C101.798 111.595 101.667 112.684 101.542 113.773C101.433 114.765 101.324 115.739 101.215 116.693C101.301 118.563 101.704 120.405 102.408 122.139L110.949 122.352C111.106 118.174 111.259 114.291 111.395 110.778Z" fill="#455A64"/>
<path d="M123.944 110.838L127.757 110.941C127.945 110.899 128.136 110.87 128.329 110.854C128.242 110.729 128.204 110.62 128.242 110.592C128.253 110.586 128.266 110.582 128.28 110.582C128.293 110.582 128.306 110.586 128.318 110.592C127.869 110.155 127.609 109.558 127.593 108.931C127.593 107.64 128.487 106.497 129.331 105.445C128.529 104.105 128.167 102.547 128.296 100.99L124.402 100.892C124.293 103.261 124.162 106.055 124.015 109.225C123.993 109.754 123.971 110.293 123.944 110.838Z" fill="#455A64"/>
<path d="M117.991 122.815L111.166 122.657C111.047 126.034 110.916 129.596 110.774 133.311L117.098 133.474L122.888 133.632C122.997 129.912 123.111 126.344 123.236 122.978L117.991 122.815Z" fill="#455A64"/>
<path d="M134.179 93.7133C134.179 93.8385 134.119 93.9584 134.086 94.0782C134.151 93.9683 134.207 93.8536 134.255 93.735L134.179 93.7133Z" fill="#455A64"/>
<path d="M120.551 121.126C119.323 120.961 118.159 120.478 117.174 119.726C116.877 119.502 116.602 119.25 116.352 118.975C116.254 118.88 116.173 118.77 116.112 118.648C116.15 118.61 116.537 119.046 117.294 119.563C118.161 120.168 119.146 120.582 120.184 120.778C121.222 120.974 122.29 120.948 123.318 120.701C123.454 117.259 123.59 114.04 123.726 111.104L117.098 110.936L111.602 110.783C111.471 114.296 111.33 118.18 111.177 122.352L117.997 122.532L123.247 122.673C123.247 122.09 123.291 121.518 123.312 120.947C122.412 121.185 121.474 121.246 120.551 121.126Z" fill="#455A64"/>
<path d="M134.282 101.251C134.282 102.112 134.32 103.038 134.336 104.035C134.364 106.11 134.413 108.474 134.424 111.083V111.137C138.116 111.252 141.134 111.35 143.176 111.426C142.91 109.438 142.496 106.725 141.864 103.005C141.763 102.432 141.625 101.866 141.45 101.311L134.293 101.148C134.292 101.183 134.288 101.217 134.282 101.251Z" fill="#455A64"/>
<path d="M134.244 115.81C134.244 114.263 134.244 112.777 134.244 111.36L130.094 111.262C129.913 111.291 129.729 111.291 129.549 111.262H129.14C129.179 111.311 129.2 111.35 129.184 111.371C129.168 111.393 129.042 111.371 128.89 111.322C128.902 111.356 128.911 111.391 128.917 111.426C128.971 111.483 129.021 111.545 129.064 111.611C129.332 112.024 129.484 112.502 129.506 112.994C129.527 113.487 129.416 113.976 129.184 114.411C129.113 114.54 129.027 114.66 128.928 114.77C128.852 114.841 128.803 114.874 128.792 114.863C128.781 114.852 128.792 114.797 128.835 114.705C128.879 114.612 128.939 114.487 129.004 114.323C129.165 113.903 129.239 113.455 129.222 113.005C129.204 112.692 129.144 112.382 129.042 112.085C129.15 113.024 128.964 113.972 128.509 114.801C128.054 115.629 127.354 116.296 126.504 116.709L126.777 115.435C126.593 115.641 126.368 115.807 126.117 115.923C125.866 116.038 125.593 116.1 125.317 116.104C125.377 115.527 125.539 114.964 125.796 114.443L124.81 114.841C124.787 113.815 125.164 112.821 125.861 112.068C126.205 111.708 126.616 111.417 127.071 111.213L123.966 111.132C123.846 114.051 123.721 117.243 123.601 120.658C123.792 120.609 123.971 120.554 124.146 120.494C125.012 120.195 125.502 119.874 125.524 119.917C125.546 119.961 125.426 120.032 125.208 120.173C124.894 120.374 124.562 120.546 124.217 120.685C124.031 120.761 123.824 120.832 123.601 120.903C123.601 121.497 123.558 122.09 123.541 122.7L134.091 123.005L134.184 116.099C131.09 115.827 128.819 115.582 128.824 115.516C128.83 115.451 131.112 115.576 134.244 115.81Z" fill="#455A64"/>
<path d="M134.451 115.827L136.085 115.963C140.104 116.301 143.356 116.633 143.351 116.714C143.213 116.733 143.074 116.733 142.937 116.714L143.623 116.764C143.623 116.764 143.846 116.377 143.193 111.54C141.15 111.507 138.127 111.442 134.424 111.355C134.44 112.782 134.445 114.274 134.451 115.827Z" fill="#455A64"/>
<path d="M111.613 110.505L117.109 110.647L123.737 110.832C123.765 110.287 123.792 109.743 123.814 109.198C123.966 106.034 124.113 103.239 124.238 100.87L121.76 100.805L111.956 100.532C111.885 102.591 111.804 104.928 111.717 107.51C111.689 108.495 111.651 109.487 111.613 110.505Z" fill="#455A64"/>
<path d="M103.198 100.08C105.742 100.135 108.645 100.206 111.825 100.287C111.907 98.3374 111.978 96.6435 112.038 95.2546C112.098 93.8657 112.152 92.6892 112.19 91.9158V91.4528C109.407 91.4179 106.647 91.9556 104.08 93.0324C103.933 94.1707 103.748 95.6359 103.536 97.3897C103.432 98.2121 103.312 99.1217 103.198 100.08Z" fill="#455A64"/>
<path d="M110.938 122.619L102.528 122.379C102.603 122.538 102.686 122.692 102.779 122.842L106.853 129.574L106.188 133.169L110.545 133.278C110.665 129.563 110.823 126.001 110.938 122.619Z" fill="#455A64"/>
<path d="M123.16 133.615L133.906 133.92L134.042 123.218C130.9 123.147 127.327 123.054 123.487 122.956C123.351 126.322 123.263 129.89 123.16 133.615Z" fill="#455A64"/>
<path d="M109.952 148.016C110.003 146.829 110.048 145.651 110.088 144.482L103.841 144.307C102.862 147.805 102.071 151.352 101.471 154.934L109.69 155.135C109.777 152.804 109.865 150.431 109.952 148.016Z" fill="#455A64"/>
<path d="M128.204 91.8015C127.234 91.6005 126.254 91.4532 125.268 91.3603C125.103 91.4078 124.933 91.4317 124.761 91.4311C124.429 91.4311 123.955 91.4801 123.361 91.4965C122.18 91.54 120.551 91.5564 118.748 91.5509L114.135 91.5182C113.046 91.5182 112.376 91.5182 112.25 91.4638C112.25 91.5999 112.25 91.7525 112.25 91.9213C112.25 92.6947 112.196 93.8167 112.152 95.2601C112.109 96.7035 112.043 98.3429 111.978 100.287L121.782 100.543L124.271 100.609C124.353 99.1654 124.429 97.8854 124.494 96.7961C124.587 95.3364 124.658 94.2035 124.707 93.4191C124.734 93.0379 124.756 92.7492 124.767 92.5422C124.778 92.3353 124.799 92.2427 124.799 92.2427C124.799 92.2427 124.799 92.3461 124.799 92.5422C124.799 92.7383 124.799 93.0433 124.761 93.4191C124.729 94.2035 124.674 95.3418 124.603 96.8015C124.554 97.8908 124.494 99.1708 124.429 100.614L128.34 100.723C128.5 99.2706 129.067 97.8927 129.974 96.747C129.303 96.1252 128.793 95.3512 128.485 94.4904C128.177 93.6297 128.08 92.7074 128.204 91.8015Z" fill="#455A64"/>
<path d="M134.244 111.083C134.244 108.474 134.211 106.11 134.2 104.04C134.2 103.387 134.2 102.776 134.2 102.183C133.929 103.469 133.223 104.623 132.201 105.451C132.482 106.151 132.604 106.905 132.56 107.658C132.516 108.411 132.306 109.145 131.945 109.808C131.69 110.313 131.297 110.736 130.812 111.028L134.26 111.132L134.244 111.083Z" fill="#455A64"/>
<path d="M108.53 206.715C111.215 206.933 114.919 207.26 119.004 207.755C120.36 207.908 121.667 208.071 122.92 208.229C122.92 208.178 122.92 208.108 122.92 208.017C122.92 207.81 122.92 207.516 122.888 207.14C122.86 206.356 122.828 205.217 122.784 203.758C122.746 202.576 122.713 201.165 122.675 199.58L113.002 199.329L108.252 199.199C108.252 199.743 108.203 200.288 108.187 200.778C108.122 202.222 108.067 203.344 108.035 204.117C108.013 204.48 107.996 204.769 107.985 204.983C107.985 205.179 107.958 205.277 107.958 205.277C107.958 205.277 107.958 205.179 107.958 204.983C107.958 204.787 107.958 204.487 107.958 204.117C107.985 203.338 108.018 202.216 108.062 200.778C108.062 200.288 108.094 199.754 108.111 199.193L103.672 199.073C104.402 204.482 104.587 206.416 104.587 206.416L105.164 206.475H105.36C106.101 206.535 107.185 206.606 108.53 206.715Z" fill="#455A64"/>
<path d="M110.513 133.55L106.155 133.43L104.609 141.72C104.423 142.308 104.184 143.098 103.911 144.062L110.099 144.215C110.24 140.549 110.382 136.987 110.513 133.55Z" fill="#455A64"/>
<path d="M133.699 177.902C133.667 181.748 133.645 185.353 133.645 188.643L137.931 188.785C138.509 185.353 139.059 181.704 139.527 178.017C138.057 177.995 136.085 177.957 133.699 177.902Z" fill="#455A64"/>
<path d="M108.1 198.91C108.192 196.187 108.312 192.663 108.454 188.496V188.202L102.109 188.017C102.779 192.559 103.274 196.089 103.639 198.785L108.1 198.91Z" fill="#455A64"/>
<path d="M133.46 177.897C130.399 177.831 126.711 177.744 122.61 177.641C122.61 181.481 122.642 185.054 122.67 188.316C126.782 188.431 130.448 188.54 133.438 188.638C133.427 185.348 133.432 181.742 133.46 177.897Z" fill="#455A64"/>
<path d="M108.89 176.998C109.009 173.648 109.14 170.086 109.282 166.344L100.246 166.089C100.065 169.655 100.147 173.231 100.491 176.786L108.89 176.998Z" fill="#455A64"/>
<path d="M108.487 187.93C108.606 184.716 108.737 181.149 108.879 177.276L100.518 177.042C100.616 177.984 100.731 178.926 100.878 179.869C101.319 182.788 101.711 185.408 102.06 187.766L108.487 187.93Z" fill="#455A64"/>
<path d="M113.492 177.401L109.102 177.281C108.95 181.154 108.813 184.722 108.688 187.935L112.599 188.039L122.457 188.311C122.414 185.043 122.381 181.47 122.365 177.635L113.492 177.401Z" fill="#455A64"/>
<path d="M122.463 188.561L112.588 188.305L108.677 188.197C108.677 188.295 108.677 188.398 108.677 188.496C108.503 192.657 108.361 196.17 108.247 198.905L112.991 199.03L122.664 199.291C122.61 196.993 122.561 194.319 122.512 191.301C122.49 190.435 122.474 189.515 122.463 188.561Z" fill="#455A64"/>
<path d="M134.021 156.034C133.966 159.716 133.912 163.3 133.863 166.758C136.679 166.846 138.993 166.922 140.633 166.982C140.896 163.386 140.96 159.778 140.823 156.176L134.021 156.034Z" fill="#455A64"/>
<path d="M133.857 166.965C133.819 169.498 133.781 171.965 133.748 174.351C133.748 175.489 133.748 176.6 133.716 177.701C136.096 177.772 138.073 177.842 139.554 177.897C140.012 174.275 140.388 170.625 140.644 167.101C138.982 167.08 136.673 167.031 133.857 166.965Z" fill="#455A64"/>
<path d="M122.354 166.693L114.391 166.486L109.527 166.355C109.38 170.092 109.244 173.654 109.113 177.004L113.47 177.118L122.332 177.363C122.348 173.992 122.343 170.419 122.354 166.693Z" fill="#455A64"/>
<path d="M109.287 166.067C109.418 162.646 109.549 159.084 109.679 155.413L101.428 155.179C100.835 158.709 100.444 162.269 100.257 165.843L109.287 166.067Z" fill="#455A64"/>
<path d="M133.569 166.96C130.448 166.889 126.728 166.802 122.626 166.698C122.626 170.424 122.626 173.997 122.626 177.369L133.476 177.69C133.476 176.601 133.476 175.484 133.503 174.346C133.509 171.965 133.536 169.498 133.569 166.96Z" fill="#455A64"/>
<path d="M102.964 100.075C103.094 99.1054 103.22 98.1958 103.339 97.3516C103.579 95.6359 103.792 94.198 103.96 93.0923C101.957 93.9643 100.17 95.2659 98.7262 96.9049C97.7839 97.9943 96.8961 98.991 96.0627 99.9224C97.8002 99.9605 100.148 100.01 102.964 100.075Z" fill="#455A64"/>
<path d="M101.264 113.746C101.391 112.657 101.517 111.567 101.64 110.478C97.9147 110.364 94.761 110.266 92.4353 110.184L98.2959 116.883L98.8134 117.466L101.101 115.07C101.161 114.628 101.21 114.187 101.264 113.746Z" fill="#455A64"/>
<path d="M92.3046 110.053C94.6466 110.097 97.8656 110.168 101.673 110.26C102.109 106.578 102.544 103.18 102.936 100.287C100.072 100.2 97.6913 100.124 95.9538 100.059C92.7784 103.599 90.5399 105.903 89.81 106.644L89.5431 106.916L92.3046 110.053Z" fill="#455A64"/>
<path d="M101.951 110.266C104.81 110.331 108.002 110.413 111.406 110.5C111.444 109.481 111.482 108.479 111.52 107.521C111.629 104.939 111.727 102.619 111.809 100.549L103.165 100.326C102.8 103.19 102.381 106.584 101.951 110.266Z" fill="#455A64"/>
<path d="M122.719 155.762H122.436C122.397 159.427 122.37 162.989 122.359 166.426H122.632C122.648 162.989 122.675 159.427 122.719 155.762Z" fill="#263238"/>
<path d="M123.312 120.947C123.312 121.518 123.269 122.09 123.247 122.673H123.498C123.498 122.063 123.536 121.469 123.558 120.876L123.312 120.947Z" fill="#263238"/>
<path d="M123.236 122.951C123.111 126.317 122.997 129.885 122.888 133.605H123.16C123.263 129.879 123.372 126.312 123.487 122.945L123.236 122.951Z" fill="#263238"/>
<path d="M122.882 133.882C122.784 137.314 122.692 140.876 122.615 144.542H122.898C122.975 140.874 123.06 137.321 123.154 133.882H122.882Z" fill="#263238"/>
<path d="M124.745 93.4192C124.745 93.0433 124.772 92.7492 124.783 92.5422C124.794 92.3353 124.783 92.2427 124.783 92.2427C124.783 92.2427 124.783 92.3407 124.75 92.5422C124.718 92.7438 124.718 93.0379 124.69 93.4192C124.641 94.2035 124.571 95.3364 124.478 96.7961C124.413 97.8854 124.336 99.1654 124.255 100.609H124.44C124.505 99.1654 124.565 97.8854 124.614 96.7961C124.658 95.3418 124.712 94.2035 124.745 93.4192Z" fill="#263238"/>
<path d="M123.737 110.832H123.944C123.971 110.287 123.993 109.743 124.015 109.198C124.162 106.028 124.293 103.234 124.402 100.865H124.238C124.113 103.234 123.966 106.028 123.814 109.193C123.792 109.743 123.764 110.287 123.737 110.832Z" fill="#263238"/>
<path d="M122.893 144.825H122.61C122.577 146.618 122.544 148.434 122.512 150.271C122.486 152.032 122.463 153.772 122.441 155.489H122.724C122.746 153.768 122.77 152.027 122.795 150.266C122.828 148.432 122.86 146.618 122.893 144.825Z" fill="#263238"/>
<path d="M123.318 120.701L123.568 120.636C123.688 117.221 123.813 114.029 123.933 111.11H123.726C123.59 114.04 123.454 117.259 123.318 120.701Z" fill="#263238"/>
<path d="M122.626 166.698H122.354C122.354 170.424 122.354 173.997 122.354 177.369H122.604C122.604 173.997 122.61 170.424 122.626 166.698Z" fill="#263238"/>
<path d="M122.365 177.635C122.365 181.448 122.414 185.048 122.457 188.311H122.67C122.642 185.043 122.621 181.475 122.61 177.635H122.365Z" fill="#263238"/>
<path d="M122.926 207.14C122.926 206.35 122.898 205.217 122.877 203.752C122.877 202.57 122.839 201.165 122.817 199.58H122.659C122.697 201.165 122.73 202.576 122.768 203.758C122.811 205.217 122.844 206.356 122.871 207.14C122.871 207.516 122.898 207.81 122.904 208.017C122.904 208.108 122.904 208.179 122.904 208.229V208.017C122.931 207.81 122.931 207.516 122.926 207.14Z" fill="#263238"/>
<path d="M122.675 188.561H122.463C122.463 189.498 122.49 190.419 122.501 191.285C122.55 194.302 122.599 196.977 122.653 199.275H122.817C122.784 196.977 122.746 194.297 122.702 191.274C122.691 190.435 122.681 189.515 122.675 188.561Z" fill="#263238"/>
<path d="M134.2 144.879C134.249 141.715 134.293 138.632 134.331 135.653C134.226 135.478 134.133 135.296 134.053 135.108C134.004 138.256 133.955 141.524 133.906 144.879H134.2Z" fill="#263238"/>
<path d="M134.195 145.097H133.901C133.868 147.33 133.835 149.591 133.803 151.894C133.775 153.213 133.754 154.514 133.737 155.816H134.026C134.026 154.52 134.046 153.213 134.086 151.894C134.124 149.591 134.162 147.33 134.195 145.097Z" fill="#263238"/>
<path d="M134.244 111.083V111.132H134.445V111.077C134.445 108.468 134.385 106.104 134.358 104.029C134.358 103.032 134.326 102.107 134.304 101.246C134.288 101.559 134.248 101.87 134.184 102.177C134.184 102.771 134.184 103.381 134.184 104.035C134.189 106.11 134.244 108.495 134.244 111.083Z" fill="#263238"/>
<path d="M134.244 115.81H134.467C134.467 114.258 134.467 112.766 134.44 111.35H134.244C134.244 112.777 134.244 114.264 134.244 115.81Z" fill="#263238"/>
<path d="M134.113 95.3527C134.113 95.0259 134.113 94.7699 134.086 94.5684L134.053 94.6065C134.053 94.8026 134.053 95.0477 134.053 95.3581C134.053 96.137 134.053 97.2699 134.102 98.7187C134.102 98.9747 134.102 99.2634 134.102 99.5194C134.167 99.7847 134.215 100.054 134.244 100.325C134.244 99.7536 134.244 99.198 134.2 98.6915C134.173 97.2645 134.14 96.137 134.113 95.3527Z" fill="#263238"/>
<path d="M134.021 156.034H133.732C133.672 159.71 133.617 163.3 133.574 166.753H133.863C133.912 163.3 133.966 159.694 134.021 156.034Z" fill="#263238"/>
<path d="M133.824 208.414C133.824 207.636 133.797 206.503 133.775 205.054C133.754 203.605 133.721 201.868 133.71 199.836H133.552C133.552 201.868 133.623 203.621 133.667 205.054C133.71 206.486 133.748 207.636 133.77 208.42C133.77 208.796 133.797 209.084 133.803 209.291C133.808 209.498 133.803 209.591 133.803 209.591C133.803 209.591 133.803 209.487 133.803 209.291C133.803 209.095 133.83 208.79 133.824 208.414Z" fill="#263238"/>
<path d="M133.699 177.902H133.449C133.421 181.748 133.416 185.353 133.449 188.643H133.667C133.656 185.353 133.699 181.748 133.699 177.902Z" fill="#263238"/>
<path d="M133.656 188.839H133.438C133.438 190.174 133.438 191.465 133.438 192.695C133.438 195.266 133.498 197.597 133.525 199.64H133.688C133.688 197.587 133.634 195.283 133.639 192.69C133.65 191.459 133.656 190.175 133.656 188.839Z" fill="#263238"/>
<path d="M133.857 166.965H133.568C133.536 169.498 133.509 171.971 133.487 174.351C133.487 175.489 133.487 176.6 133.46 177.695H133.716C133.716 176.606 133.716 175.484 133.748 174.346C133.781 171.965 133.819 169.498 133.857 166.965Z" fill="#263238"/>
<path d="M109.952 155.424H109.679C109.549 159.095 109.418 162.657 109.287 166.078H109.538C109.669 162.652 109.805 159.095 109.952 155.424Z" fill="#263238"/>
<path d="M111.406 110.5H111.613C111.651 109.481 111.689 108.479 111.722 107.526C111.809 104.944 111.891 102.624 111.962 100.549H111.809C111.727 102.608 111.629 104.939 111.52 107.521C111.482 108.496 111.444 109.481 111.406 110.5Z" fill="#263238"/>
<path d="M110.513 133.55C110.382 136.987 110.24 140.549 110.099 144.204H110.377C110.507 140.549 110.638 136.982 110.769 133.55H110.513Z" fill="#263238"/>
<path d="M110.938 122.619C110.807 126.001 110.665 129.563 110.524 133.278H110.774C110.916 129.563 111.047 126.001 111.166 122.624L110.938 122.619Z" fill="#263238"/>
<path d="M112.032 95.2546C111.972 96.6435 111.902 98.3374 111.82 100.287H111.967C112.032 98.3429 112.092 96.649 112.141 95.2601C112.19 93.8712 112.218 92.6947 112.239 91.9213C112.239 91.7524 112.239 91.5999 112.239 91.4637H112.212V91.9267C112.147 92.7001 112.098 93.7895 112.032 95.2546Z" fill="#263238"/>
<path d="M111.395 110.778C111.259 114.291 111.106 118.174 110.948 122.346H111.177C111.33 118.174 111.471 114.291 111.602 110.778H111.395Z" fill="#263238"/>
<path d="M110.366 144.492H110.088C110.044 145.665 109.999 146.844 109.952 148.027C109.865 150.442 109.777 152.815 109.69 155.146H109.957C110.052 152.811 110.144 150.438 110.235 148.027C110.264 146.84 110.308 145.662 110.366 144.492Z" fill="#263238"/>
<path d="M108.677 188.213H108.476V188.507C108.334 192.674 108.214 196.187 108.122 198.921H108.247C108.361 196.198 108.503 192.674 108.677 188.512C108.672 188.414 108.672 188.311 108.677 188.213Z" fill="#263238"/>
<path d="M108.879 177.276C108.737 181.149 108.606 184.716 108.487 187.93H108.688C108.813 184.716 108.95 181.149 109.102 177.276H108.879Z" fill="#263238"/>
<path d="M109.282 166.344C109.14 170.086 109.009 173.648 108.89 176.998H109.113C109.244 173.648 109.38 170.086 109.527 166.35L109.282 166.344Z" fill="#263238"/>
<path d="M108.051 200.778C108.007 202.216 107.975 203.338 107.947 204.117C107.947 204.48 107.947 204.769 107.947 204.983C107.947 205.179 107.947 205.277 107.947 205.277C107.947 205.277 107.947 205.179 107.975 204.983C108.002 204.787 107.975 204.487 108.024 204.117C108.056 203.344 108.111 202.222 108.176 200.778C108.176 200.294 108.22 199.754 108.242 199.199H108.1C108.1 199.754 108.067 200.288 108.051 200.778Z" fill="#263238"/>
<path d="M102.964 100.075H103.198C103.318 99.1164 103.438 98.2068 103.541 97.3517C103.77 95.6142 103.955 94.149 104.086 92.9943L103.95 93.0542C103.781 94.1436 103.568 95.5978 103.329 97.3135C103.198 98.1959 103.094 99.1055 102.964 100.075Z" fill="#263238"/>
<path d="M101.918 110.505H101.64C101.517 111.562 101.391 112.651 101.264 113.773C101.21 114.214 101.161 114.656 101.112 115.097L101.166 115.042C101.166 115.042 101.166 115.723 101.215 116.72C101.324 115.767 101.433 114.792 101.542 113.8C101.667 112.668 101.798 111.573 101.918 110.505Z" fill="#263238"/>
<path d="M103.165 100.326H102.931C102.539 103.223 102.103 106.616 101.667 110.298H101.951C102.381 106.584 102.8 103.19 103.165 100.326Z" fill="#263238"/>
<path d="M134.293 101.148L141.45 101.311L141.368 101.104L134.287 100.892C134.293 100.974 134.298 101.061 134.293 101.148Z" fill="#263238"/>
<path d="M102.931 100.287H103.165L111.809 100.538H111.962L121.766 100.81L124.244 100.876H124.407L128.302 100.974C128.302 100.881 128.302 100.788 128.329 100.701L124.418 100.592H124.26L121.771 100.527L111.967 100.271H111.82C108.65 100.189 105.736 100.119 103.192 100.064H102.964C100.148 99.9987 97.8002 99.9497 96.0628 99.9224L95.9484 100.048C97.6859 100.124 100.066 100.2 102.931 100.287Z" fill="#263238"/>
<path d="M117.098 110.936L123.726 111.104H123.933L127.038 111.186C127.269 111.079 127.51 110.995 127.757 110.936L123.944 110.832H123.737L117.109 110.674L111.613 110.532H111.406C108.002 110.445 104.81 110.364 101.951 110.298H101.667C97.8548 110.206 94.6413 110.135 92.2992 110.091L92.4354 110.244C94.7611 110.326 97.9147 110.424 101.64 110.538H101.918L111.395 110.81H111.602L117.098 110.936Z" fill="#263238"/>
<path d="M129.108 111.219H129.516C129.305 111.178 129.102 111.107 128.912 111.006C128.983 111.071 129.049 111.142 129.108 111.219Z" fill="#263238"/>
<path d="M134.244 111.132L130.796 111.028C130.647 111.113 130.488 111.179 130.322 111.224C130.247 111.242 130.171 111.255 130.094 111.262L134.244 111.36H134.445C138.149 111.447 141.172 111.513 143.215 111.546V111.42C141.172 111.344 138.155 111.246 134.462 111.132H134.244Z" fill="#263238"/>
<path d="M111.166 122.657L117.991 122.842L123.236 122.978H123.487C127.327 123.076 130.9 123.169 134.042 123.24V123.005L123.498 122.657H123.247L117.997 122.515L111.177 122.335H110.949L102.408 122.112C102.446 122.199 102.484 122.275 102.528 122.357L110.938 122.597L111.166 122.657Z" fill="#263238"/>
<path d="M110.769 133.55L117.087 133.719L122.882 133.871H123.155C127.092 133.975 130.731 134.062 133.901 134.138V133.904L123.155 133.599H122.882L117.092 133.441L110.769 133.278H110.518L106.161 133.169L106.112 133.43L110.469 133.55H110.769Z" fill="#263238"/>
<path d="M110.366 144.492L116.188 144.65L122.61 144.819H122.893C126.962 144.923 130.698 145.015 133.901 145.086H134.195L138.884 145.19C138.884 145.13 138.852 145.07 138.83 145.01L134.2 144.868H133.906L122.899 144.547H122.615L116.199 144.373L110.377 144.22H110.099L103.911 144.068C103.884 144.149 103.862 144.236 103.841 144.324L110.088 144.498L110.366 144.492Z" fill="#263238"/>
<path d="M109.952 155.424L115.289 155.566L122.436 155.756H122.719C126.815 155.86 130.556 155.952 133.732 156.023H134.021L140.823 156.165C140.821 156.119 140.821 156.074 140.823 156.029L134.031 155.805H133.743L122.73 155.484H122.446L115.3 155.288L109.963 155.152H109.696L101.477 154.95C101.477 155.032 101.45 155.113 101.433 155.195L109.685 155.429L109.952 155.424Z" fill="#263238"/>
<path d="M109.282 166.344H109.527L114.391 166.475L122.354 166.682H122.626C126.728 166.786 130.448 166.873 133.569 166.944H133.857C136.673 167.009 138.983 167.058 140.627 167.08V166.96C138.993 166.9 136.673 166.824 133.857 166.737H133.569C130.442 166.639 126.722 166.53 122.626 166.415H122.354L114.391 166.197L109.532 166.067H109.282L100.251 165.843C100.251 165.925 100.251 166.007 100.251 166.088L109.282 166.344Z" fill="#263238"/>
<path d="M108.879 177.276H109.102L113.492 177.396L122.365 177.63H122.61C126.711 177.733 130.399 177.821 133.46 177.886H133.699C136.074 177.94 138.057 177.978 139.527 178V177.88C138.051 177.826 136.069 177.755 133.688 177.684H133.432L122.583 177.363H122.332L113.498 177.123L109.14 177.009H108.917L100.475 176.786C100.475 176.873 100.475 176.954 100.502 177.042L108.879 177.276Z" fill="#263238"/>
<path d="M108.476 188.207H108.677L112.588 188.316L122.463 188.572H122.675L133.438 188.823H133.656L137.92 188.91C137.923 188.863 137.923 188.816 137.92 188.768L133.634 188.627H133.416C130.426 188.529 126.76 188.42 122.648 188.305H122.436L112.577 188.033L108.666 187.93H108.465L102.038 187.766L102.076 188.033L108.476 188.207Z" fill="#263238"/>
<path d="M108.1 199.193H108.225L112.975 199.324L122.659 199.575H122.806C126.885 199.678 130.546 199.765 133.541 199.831H133.699L135.878 199.88C135.878 199.82 135.878 199.765 135.916 199.705L133.683 199.635H133.52L122.79 199.313H122.626L113.002 199.046L108.258 198.921H108.1L103.617 198.807L103.65 199.079L108.1 199.193Z" fill="#263238"/>
<path d="M114.135 91.5183L118.748 91.5509C120.551 91.5509 122.18 91.5509 123.361 91.4965C123.955 91.4965 124.451 91.4529 124.761 91.4311C124.933 91.4317 125.103 91.4079 125.268 91.3603C125.154 91.3291 125.036 91.3181 124.919 91.3276V91.3549L114.364 91.3113H114.129C113.536 91.3113 113.04 91.3549 112.73 91.3821C112.557 91.3802 112.384 91.4021 112.218 91.4474H112.245C112.376 91.4965 113.067 91.5074 114.135 91.5183Z" fill="#263238"/>
<path d="M120.589 120.843C119.406 120.68 118.277 120.242 117.294 119.563C116.537 119.046 116.15 118.61 116.112 118.648C116.173 118.77 116.254 118.88 116.352 118.975C116.602 119.25 116.877 119.502 117.174 119.726C118.035 120.387 119.037 120.84 120.101 121.051C121.165 121.263 122.264 121.227 123.312 120.946L123.558 120.881C123.781 120.81 123.988 120.74 124.173 120.663C124.519 120.524 124.851 120.352 125.164 120.151C125.382 120.01 125.491 119.912 125.48 119.895C125.469 119.879 124.968 120.173 124.102 120.473C123.939 120.533 123.759 120.587 123.558 120.636L123.307 120.701C122.417 120.911 121.496 120.959 120.589 120.843Z" fill="#263238"/>
<path d="M143.351 116.714C143.351 116.633 140.083 116.301 136.085 115.963L134.451 115.827H134.228C131.112 115.582 128.781 115.445 128.781 115.511C128.781 115.576 131.047 115.821 134.14 116.094L136.047 116.262C139.228 116.529 141.929 116.714 142.92 116.742C143.064 116.752 143.209 116.743 143.351 116.714Z" fill="#263238"/>
<path d="M125.088 88.0978C125.415 89.3342 126.766 90.3963 128.716 90.1675C128.459 90.6813 128.286 91.233 128.204 91.8015C128.079 92.7065 128.173 93.6282 128.48 94.489C128.786 95.3497 129.295 96.1242 129.963 96.7471C129.056 97.8927 128.489 99.2707 128.329 100.723C128.329 100.81 128.329 100.903 128.302 100.995C128.173 102.552 128.535 104.11 129.336 105.451C128.492 106.502 127.61 107.629 127.599 108.937C127.614 109.564 127.874 110.16 128.323 110.598C128.482 110.679 128.628 110.782 128.759 110.903L128.917 111.039C129.107 111.139 129.311 111.211 129.522 111.252C129.702 111.28 129.886 111.28 130.066 111.252C130.143 111.244 130.22 111.231 130.295 111.213C130.461 111.168 130.62 111.103 130.769 111.017C131.253 110.725 131.646 110.302 131.902 109.797C132.262 109.134 132.472 108.4 132.516 107.647C132.561 106.894 132.438 106.14 132.158 105.44C133.179 104.612 133.885 103.458 134.157 102.172C134.221 101.865 134.261 101.554 134.277 101.241C134.279 101.206 134.279 101.172 134.277 101.137C134.277 101.05 134.277 100.963 134.277 100.881C134.277 100.696 134.277 100.516 134.244 100.336C134.217 100.06 134.172 99.7847 134.108 99.514C133.845 98.4318 133.265 97.4529 132.441 96.7035C133.009 96.1997 133.463 95.5816 133.775 94.8898C133.482 95.1853 133.134 95.4219 132.752 95.5869C132.451 95.7171 132.13 95.7928 131.804 95.8102C131.715 95.8192 131.626 95.8192 131.537 95.8102C131.477 95.8102 131.444 95.8102 131.444 95.8102C131.444 95.8102 131.477 95.8102 131.537 95.7776C131.597 95.7449 131.679 95.7776 131.787 95.7285C132.548 95.5824 133.236 95.1808 133.737 94.5902C133.865 94.4387 133.976 94.2744 134.07 94.1C134.102 93.9802 134.14 93.8603 134.162 93.7351C134.317 92.9804 134.317 92.2021 134.162 91.4475C133.98 91.0387 133.721 90.6689 133.4 90.3581C133.073 90.0848 132.719 89.8458 132.343 89.6446C132.343 89.6446 132.376 89.6446 132.436 89.6446C132.523 89.659 132.609 89.6828 132.692 89.7154C133.001 89.8255 133.287 89.9917 133.536 90.2056C133.679 90.3257 133.81 90.4588 133.928 90.6032C133.658 89.849 133.218 89.167 132.643 88.6098C133.223 87.2641 133.449 85.7922 133.299 84.3345C133.149 82.8767 132.629 81.4815 131.787 80.2818C130.976 83.784 129.07 87.1392 125.088 88.0978ZM131.335 96.8723C131.335 96.9486 131.025 96.9377 130.682 96.9704C130.339 97.0031 130.05 97.0466 130.023 96.9704C129.995 96.8941 130.262 96.7089 130.66 96.6817C131.058 96.6545 131.357 96.7961 131.335 96.8723ZM130.344 105.489C129.799 105.402 129.304 105.396 129.293 105.315C129.631 105.149 130.018 105.111 130.382 105.206C130.992 105.298 131.428 105.554 131.395 105.625C131.363 105.696 130.911 105.571 130.344 105.489ZM130.034 88.9638C130.394 88.8111 130.796 88.788 131.172 88.8984C131.172 88.9801 130.687 89.0673 130.11 89.2361C129.533 89.405 129.075 89.5901 129.021 89.5193C128.966 89.4485 129.418 89.1381 130.034 88.9638Z" fill="#263238"/>
<path d="M116.559 65.5268C116.762 66.3898 117.084 67.2203 117.517 67.9941C117.769 68.451 118.061 68.8848 118.389 69.2904C118.737 69.7288 119.125 70.1337 119.549 70.4996C119.978 70.8579 120.437 71.1786 120.921 71.4582C121.376 71.7162 121.851 71.9348 122.343 72.1118C123.176 72.4121 124.047 72.5954 124.93 72.6565H125.17V70.8264C125.17 70.8264 117.822 70.1837 116.275 63.4298C116.275 63.5115 116.275 63.6096 116.275 63.7239C116.314 64.3323 116.409 64.9358 116.559 65.5268Z" fill="#B78876"/>
<path d="M124.925 91.3275L125.05 88.1086H125.012L125.121 77.1118V77.0845C125.071 76.5547 125.083 76.0209 125.159 75.4941L125.186 72.8634H124.941C122.899 72.773 120.945 72.0066 119.385 70.6847C118.951 70.306 118.551 69.8885 118.193 69.4374C117.858 69.0165 117.563 68.5663 117.31 68.0921C116.875 67.294 116.562 66.4346 116.384 65.5431C116.258 64.9451 116.202 64.3347 116.215 63.7239C116.217 63.5582 116.228 63.3927 116.248 63.2282C116.25 63.2138 116.25 63.1991 116.248 63.1846C116.248 63.1846 116.248 63.1846 116.248 63.1574L116.205 63.201C115.774 64.2903 115.023 66.5834 115.573 68.4298L108.895 70.2762L108.154 70.9897C108.154 74.1488 108.203 77.7218 108.361 79.9331C108.688 84.6227 113.307 85.0748 113.307 85.0748C115.49 84.9541 117.59 84.1967 119.347 82.8961C119.347 82.8961 118.007 86.3602 113.421 86.2131L113.307 85.0584C113.307 85.0584 113.683 90.0149 113.645 91.2622H114.391L124.946 91.3058L124.925 91.3275ZM109.767 72.9124C109.608 72.9124 109.455 72.8493 109.343 72.7369C109.231 72.6245 109.167 72.4722 109.167 72.3133C109.167 72.1544 109.231 72.002 109.343 71.8896C109.455 71.7772 109.608 71.7141 109.767 71.7141C109.925 71.7141 110.078 71.7772 110.19 71.8896C110.303 72.002 110.366 72.1544 110.366 72.3133C110.366 72.4722 110.303 72.6245 110.19 72.7369C110.078 72.8493 109.925 72.9124 109.767 72.9124ZM110.91 71.5017C110.845 71.5888 110.366 71.2729 109.739 71.322C109.113 71.371 108.677 71.7468 108.601 71.6705C108.525 71.5943 108.601 71.4854 108.813 71.3111C109.066 71.0775 109.391 70.9372 109.734 70.9135C110.066 70.8859 110.398 70.9703 110.676 71.1531C110.861 71.322 110.943 71.4581 110.91 71.5017ZM112.06 77.1335C111.999 77.1186 111.943 77.0896 111.895 77.049C111.848 77.0083 111.811 76.957 111.787 76.8993C111.729 76.6727 111.748 76.4331 111.842 76.2185C111.967 75.7882 112.098 75.3361 112.239 74.8623C112.546 73.6943 112.939 72.551 113.416 71.4418C113.201 72.6327 112.895 73.8054 112.501 74.9494C112.354 75.4179 112.212 75.8645 112.081 76.2948C111.997 76.4631 111.967 76.6532 111.994 76.8394C112.027 76.9538 112.179 76.9756 112.343 76.9865C112.69 76.9826 113.036 77.0247 113.372 77.1118C113.032 77.1832 112.684 77.2071 112.337 77.1826C112.243 77.179 112.15 77.1625 112.06 77.1335ZM114.521 79.3721C114.158 79.5298 113.75 79.5575 113.369 79.4503C112.987 79.3432 112.653 79.1079 112.425 78.7839C113.71 78.7839 116.096 77.237 115.464 77.6946C115.464 77.6782 115.861 78.773 114.521 79.3721ZM116.553 72.8361C116.394 72.8361 116.242 72.773 116.129 72.6607C116.017 72.5483 115.954 72.3959 115.954 72.237C115.954 72.0781 116.017 71.9257 116.129 71.8133C116.242 71.701 116.394 71.6379 116.553 71.6379C116.712 71.6379 116.864 71.701 116.977 71.8133C117.089 71.9257 117.152 72.0781 117.152 72.237C117.152 72.3959 117.089 72.5483 116.977 72.6607C116.864 72.773 116.712 72.8361 116.553 72.8361ZM117.904 71.4581C117.839 71.5453 117.359 71.2294 116.733 71.2784C116.106 71.3274 115.671 71.7032 115.594 71.627C115.518 71.5507 115.622 71.4363 115.807 71.2675C116.056 71.0447 116.372 70.9106 116.706 70.8862C117.038 70.8632 117.369 70.9492 117.648 71.1313C117.849 71.2457 117.931 71.3873 117.904 71.4581Z" fill="#B78876"/>
<path d="M109.734 71.7141C109.615 71.7131 109.498 71.7474 109.399 71.8128C109.3 71.8783 109.222 71.9718 109.176 72.0815C109.13 72.1912 109.118 72.3121 109.141 72.4288C109.164 72.5455 109.221 72.6528 109.305 72.7369C109.389 72.821 109.496 72.8782 109.613 72.9011C109.73 72.9241 109.851 72.9117 109.96 72.8657C110.07 72.8197 110.163 72.7421 110.229 72.6427C110.294 72.5434 110.329 72.4268 110.328 72.3078C110.328 72.1504 110.265 71.9994 110.154 71.888C110.042 71.7767 109.891 71.7141 109.734 71.7141Z" fill="#263238"/>
<path d="M110.654 71.175C110.385 70.9891 110.061 70.8973 109.734 70.9135C109.401 70.936 109.085 71.0681 108.835 71.2893C108.645 71.4636 108.59 71.6161 108.623 71.6488C108.656 71.6815 109.129 71.3438 109.761 71.3002C110.393 71.2567 110.851 71.5671 110.932 71.48C111.014 71.3928 110.861 71.322 110.654 71.175Z" fill="#263238"/>
<path d="M116.542 71.6435C116.423 71.6413 116.306 71.6747 116.206 71.7395C116.106 71.8042 116.027 71.8974 115.98 72.0069C115.934 72.1165 115.921 72.2376 115.943 72.3547C115.965 72.4718 116.022 72.5795 116.106 72.6642C116.19 72.7489 116.297 72.8066 116.414 72.83C116.531 72.8534 116.652 72.8414 116.762 72.7955C116.872 72.7497 116.966 72.6721 117.031 72.5726C117.097 72.4731 117.132 72.3563 117.13 72.2372C117.13 72.0806 117.069 71.9305 116.959 71.8193C116.848 71.7081 116.699 71.6449 116.542 71.6435Z" fill="#263238"/>
<path d="M117.642 71.1041C117.363 70.922 117.033 70.836 116.7 70.859C116.367 70.8834 116.051 71.0175 115.802 71.2403C115.616 71.4091 115.556 71.5616 115.589 71.5998C115.622 71.6379 116.096 71.2947 116.727 71.2512C117.359 71.2076 117.817 71.5181 117.898 71.4309C117.98 71.3438 117.849 71.2457 117.642 71.1041Z" fill="#263238"/>
<path d="M112.343 76.9593C112.179 76.9593 112.027 76.9266 111.994 76.8123C111.967 76.6261 111.997 76.436 112.081 76.2676C112.212 75.8373 112.354 75.3907 112.501 74.9223C112.895 73.7782 113.201 72.6055 113.416 71.4146C112.939 72.5238 112.546 73.6672 112.239 74.8351C112.098 75.309 111.967 75.7611 111.842 76.1913C111.748 76.4059 111.729 76.6455 111.787 76.8722C111.811 76.9298 111.848 76.9811 111.896 77.0218C111.943 77.0625 111.999 77.0914 112.06 77.1064C112.152 77.1189 112.245 77.1189 112.337 77.1064C112.684 77.1309 113.032 77.107 113.372 77.0356C113.034 76.965 112.688 76.9393 112.343 76.9593Z" fill="#263238"/>
<path d="M112.425 78.7839C112.653 79.1079 112.987 79.3432 113.369 79.4504C113.75 79.5575 114.158 79.5299 114.522 79.3722C115.861 78.773 115.464 77.6782 115.464 77.6782C116.096 77.2371 113.71 78.773 112.425 78.7839Z" fill="white"/>
<path d="M119.326 82.9397C117.568 84.2403 115.468 84.9977 113.285 85.1184L113.4 86.2731C117.986 86.4038 119.326 82.9397 119.326 82.9397Z" fill="#A36957"/>
<path d="M115.551 68.4571C115.006 66.6107 115.752 64.3013 116.183 63.2283L116.226 63.1847C116.226 63.1847 116.226 63.1847 116.226 63.212C116.229 63.169 116.238 63.1267 116.254 63.0867C116.254 63.0867 116.254 63.1466 116.254 63.2555C116.254 63.3645 116.254 63.3808 116.254 63.4571C117.8 70.2109 125.148 70.8536 125.148 70.8536V72.6837C125.666 72.7131 126.185 72.7003 126.7 72.6456C126.913 72.6456 127.076 72.5966 127.19 72.5857C127.305 72.5748 127.365 72.5857 127.365 72.5857C127.313 72.6128 127.258 72.633 127.201 72.6456C127.042 72.6905 126.88 72.7269 126.717 72.7545C126.197 72.8466 125.67 72.8867 125.143 72.8743L125.115 75.5051C125.148 75.3354 125.192 75.168 125.246 75.004C125.35 74.6658 125.543 74.3616 125.805 74.1232C126.066 73.8847 126.387 73.7205 126.733 73.6478C127.139 73.6176 127.541 73.7374 127.865 73.9843C128.188 74.2313 128.409 74.5883 128.487 74.9876C128.545 75.3906 128.482 75.8019 128.307 76.1693C128.131 76.5367 127.851 76.8439 127.501 77.0519C127.006 77.3344 126.431 77.4436 125.867 77.3624C125.867 77.3951 125.867 77.4168 125.867 77.4495C125.822 77.7138 125.877 77.9853 126.019 78.2121C126.104 78.3477 126.218 78.463 126.353 78.5496C126.487 78.6363 126.639 78.6923 126.798 78.7137C126.956 78.735 127.118 78.7211 127.27 78.673C127.423 78.6249 127.563 78.5438 127.681 78.4354C127.88 78.2562 128.006 78.0099 128.035 77.7436C128.042 77.4851 128.005 77.2273 127.926 76.9811C127.926 76.9811 128.231 77.199 128.236 77.7545C128.231 78.0833 128.096 78.3967 127.86 78.626C127.719 78.7701 127.545 78.8792 127.354 78.9447C127.163 79.0101 126.959 79.0302 126.759 79.0032C126.559 78.9763 126.367 78.903 126.2 78.7894C126.033 78.6757 125.895 78.5246 125.796 78.3482C125.714 78.2071 125.661 78.0512 125.64 77.8896C125.618 77.7279 125.629 77.5635 125.671 77.406C125.669 77.3824 125.669 77.3587 125.671 77.3351C125.485 77.3013 125.303 77.2502 125.126 77.1826L125.072 77.1227L124.963 88.1195H125.001H125.039C129.021 87.1609 130.9 83.8058 131.771 80.2981C131.826 80.0639 131.88 79.8297 131.929 79.5955C131.896 79.6609 131.864 79.7371 131.826 79.8025C131.585 80.2742 131.304 80.7243 130.987 81.1478C130.88 81.3132 130.75 81.4619 130.6 81.589C130.557 81.5563 131.079 80.9082 131.646 79.7153C131.829 79.333 131.989 78.9401 132.125 78.5389C132.422 76.5455 132.531 74.5287 132.452 72.5149V72.1935C132.255 71.3515 131.962 70.5347 131.58 69.7588C130.992 68.5715 130.464 67.9342 130.491 67.9015C130.64 68.026 130.77 68.1709 130.878 68.3318C131.203 68.7517 131.493 69.1981 131.744 69.6663C132.001 70.1464 132.221 70.6452 132.403 71.1586V70.614C132.403 70.5813 132.403 70.5377 132.403 70.4615C132.334 69.8229 132.233 69.1884 132.098 68.5606C129.5 58.7947 121.096 57.0572 119.44 57.0736C117.659 57.0736 114.538 56.1204 110.05 61.0061C105.562 65.8917 108.1 71.0279 108.1 71.0279L108.841 70.3144L115.551 68.4571Z" fill="#263238"/>
<path d="M128.574 111.121C128.479 111.045 128.397 110.955 128.329 110.854C128.136 110.87 127.945 110.899 127.757 110.941C127.025 111.116 126.357 111.494 125.829 112.03C125.132 112.783 124.755 113.777 124.778 114.803L125.763 114.405C125.506 114.926 125.344 115.489 125.284 116.066C125.56 116.062 125.833 116 126.084 115.884C126.335 115.769 126.56 115.603 126.744 115.396L126.471 116.671C127.321 116.258 128.022 115.591 128.476 114.763C128.931 113.934 129.117 112.985 129.01 112.047C128.967 111.92 128.916 111.796 128.857 111.676C128.705 111.36 128.568 111.186 128.601 111.132C128.634 111.077 128.737 111.192 128.884 111.366C128.879 111.331 128.869 111.296 128.857 111.262C128.758 111.226 128.663 111.178 128.574 111.121Z" fill="#263238"/>
<path d="M128.253 110.592C128.214 110.62 128.253 110.729 128.34 110.854C128.408 110.955 128.49 111.045 128.585 111.121C128.672 111.192 128.767 111.252 128.868 111.3C129.021 111.371 129.14 111.393 129.162 111.35C129.184 111.306 129.162 111.29 129.119 111.241C129.059 111.168 128.994 111.1 128.922 111.039L128.765 110.903C128.634 110.782 128.487 110.679 128.329 110.598C128.318 110.59 128.305 110.586 128.291 110.585C128.278 110.584 128.265 110.587 128.253 110.592Z" fill="#47D163"/>
<path d="M130.382 105.227C130.018 105.132 129.631 105.171 129.293 105.336C129.293 105.418 129.778 105.424 130.344 105.511C130.911 105.598 131.363 105.723 131.395 105.647C131.428 105.571 130.976 105.298 130.382 105.227Z" fill="#47D163"/>
<path d="M130.023 96.9759C130.05 97.0467 130.339 96.9759 130.682 96.9759C131.025 96.9759 131.319 96.9758 131.335 96.8778C131.352 96.7798 131.058 96.6599 130.66 96.6926C130.262 96.7253 129.99 96.905 130.023 96.9759Z" fill="#47D163"/>
<path d="M130.11 89.2361C130.687 89.0673 131.172 88.9801 131.172 88.8984C130.796 88.788 130.394 88.8111 130.034 88.9638C129.418 89.1381 128.999 89.454 129.037 89.5084C129.075 89.5629 129.533 89.3995 130.11 89.2361Z" fill="#47D163"/>
<path d="M126.738 72.7544C126.902 72.7268 127.064 72.6905 127.223 72.6455C127.28 72.6329 127.335 72.6128 127.387 72.5856C127.387 72.5856 127.321 72.5856 127.212 72.5856C127.103 72.5856 126.934 72.6291 126.722 72.6455C126.206 72.7002 125.687 72.713 125.17 72.6836H124.93C124.047 72.6226 123.176 72.4393 122.343 72.139C121.851 71.962 121.376 71.7433 120.921 71.4854C120.437 71.2058 119.978 70.885 119.549 70.5267C119.125 70.1608 118.737 69.756 118.389 69.3176C118.061 68.912 117.769 68.4782 117.517 68.0213C117.084 67.2475 116.762 66.417 116.559 65.5539C116.42 64.971 116.334 64.3767 116.303 63.7783C116.303 63.6639 116.303 63.5659 116.303 63.4842C116.303 63.4025 116.303 63.3372 116.303 63.2827C116.303 63.2282 116.303 63.1138 116.303 63.1138C116.287 63.1539 116.278 63.1962 116.275 63.2391C116.278 63.2535 116.278 63.2683 116.275 63.2827C116.255 63.4472 116.245 63.6126 116.243 63.7783C116.229 64.3892 116.286 64.9996 116.412 65.5975C116.59 66.4891 116.902 67.3485 117.337 68.1465C117.59 68.6207 117.886 69.071 118.22 69.4919C118.579 69.943 118.978 70.3605 119.413 70.7392C119.854 71.112 120.33 71.4421 120.834 71.725C122.101 72.436 123.517 72.839 124.968 72.9015H125.213C125.725 72.9017 126.236 72.8525 126.738 72.7544Z" fill="#263238"/>
<path d="M130.932 68.31C130.824 68.1491 130.694 68.0042 130.546 67.8797C130.502 67.9124 131.03 68.5496 131.635 69.737C132.017 70.5129 132.309 71.3297 132.506 72.1717C132.71 73.0009 132.818 73.8506 132.828 74.7044C132.83 76.002 132.615 77.2908 132.191 78.517C132.054 78.9183 131.894 79.3112 131.711 79.6935C131.167 80.8863 130.622 81.5345 130.665 81.5672C130.815 81.44 130.946 81.2914 131.052 81.126C131.37 80.7024 131.65 80.2523 131.891 79.7807C131.929 79.7153 131.962 79.639 131.994 79.5737C133.183 77.1727 133.433 74.4152 132.697 71.8394C132.632 71.5943 132.55 71.3601 132.474 71.1368C132.292 70.6234 132.072 70.1245 131.815 69.6444C131.558 69.1757 131.263 68.7293 130.932 68.31Z" fill="#263238"/>
<path d="M133.568 90.2002C133.32 89.9862 133.033 89.8201 132.724 89.71C132.642 89.6773 132.556 89.6536 132.468 89.6392C132.408 89.6392 132.376 89.6392 132.376 89.6392C132.751 89.8403 133.105 90.0794 133.432 90.3527C133.754 90.6634 134.013 91.0333 134.195 91.442V91.4801C134.423 91.9925 134.504 92.5583 134.429 93.1141C134.389 93.3363 134.325 93.5536 134.238 93.7623C134.191 93.8808 134.135 93.9955 134.07 94.1054C133.976 94.2799 133.865 94.4441 133.737 94.5956C133.236 95.1862 132.548 95.5878 131.787 95.734C131.678 95.734 131.591 95.7667 131.537 95.783C131.482 95.7993 131.444 95.783 131.444 95.8157C131.444 95.8484 131.477 95.8157 131.537 95.8157C131.626 95.8246 131.715 95.8246 131.804 95.8157C132.13 95.7982 132.451 95.7226 132.751 95.5924C133.134 95.4274 133.482 95.1907 133.775 94.8952C133.831 94.8472 133.883 94.7963 133.933 94.7427C133.972 94.6991 134.004 94.6501 134.037 94.6065L134.07 94.5684C134.235 94.3555 134.374 94.1232 134.484 93.8767C134.59 93.6366 134.665 93.3841 134.707 93.125C134.765 92.6738 134.727 92.2154 134.596 91.7798C134.465 91.3442 134.243 90.9414 133.944 90.5978C133.831 90.4541 133.706 90.321 133.568 90.2002Z" fill="#263238"/>
<path d="M128.601 111.17C128.568 111.202 128.705 111.377 128.857 111.714C128.916 111.834 128.967 111.958 129.01 112.085C129.111 112.382 129.172 112.692 129.189 113.005C129.207 113.455 129.132 113.903 128.972 114.323C128.906 114.487 128.846 114.618 128.803 114.705C128.759 114.792 128.743 114.852 128.759 114.863C128.775 114.874 128.819 114.863 128.895 114.77C128.994 114.66 129.08 114.54 129.151 114.411C129.383 113.976 129.494 113.487 129.473 112.994C129.452 112.502 129.299 112.025 129.031 111.611C128.988 111.545 128.939 111.483 128.884 111.426C128.737 111.219 128.617 111.153 128.601 111.17Z" fill="#263238"/>
<path d="M125.714 77.3351C125.878 76.8613 126.188 76.7142 126.194 76.7415C126.077 76.9382 125.98 77.1462 125.905 77.3624C126.469 77.4436 127.044 77.3344 127.539 77.0519C127.889 76.8439 128.17 76.5367 128.345 76.1693C128.521 75.8019 128.583 75.3906 128.525 74.9876C128.447 74.5883 128.226 74.2313 127.903 73.9843C127.579 73.7374 127.177 73.6176 126.771 73.6478C126.425 73.7205 126.104 73.8847 125.843 74.1232C125.581 74.3616 125.388 74.6658 125.284 75.004C125.23 75.168 125.186 75.3354 125.153 75.5051C125.078 76.0319 125.065 76.5657 125.115 77.0955V77.1227L125.17 77.1826C125.346 77.2502 125.529 77.3013 125.714 77.3351ZM126.804 74.5519C126.924 74.5177 127.051 74.5108 127.174 74.5315C127.297 74.5522 127.415 74.6001 127.517 74.6717C127.631 74.7741 127.719 74.902 127.774 75.045C127.829 75.1879 127.849 75.3419 127.833 75.4942C127.826 75.7861 127.722 76.0675 127.539 76.2948C127.383 76.4824 127.164 76.6064 126.924 76.6434C126.51 76.6924 126.308 76.4746 126.346 76.4473C126.384 76.4201 126.575 76.4964 126.891 76.3983C127.075 76.3282 127.233 76.2023 127.342 76.0383C127.452 75.8743 127.507 75.6803 127.501 75.4833C127.511 75.3858 127.502 75.2872 127.473 75.1935C127.444 75.0998 127.396 75.0131 127.332 74.9386C127.2 74.8387 127.034 74.7938 126.869 74.8133C126.553 74.8515 126.324 74.9441 126.324 74.8896C126.324 74.8351 126.401 74.6717 126.777 74.5519H126.804Z" fill="#B78876"/>
<path d="M126.82 74.7969C126.985 74.7774 127.151 74.8223 127.283 74.9222C127.347 74.9967 127.395 75.0834 127.424 75.1771C127.453 75.2707 127.462 75.3694 127.452 75.4669C127.458 75.6639 127.403 75.8579 127.293 76.0219C127.184 76.1859 127.026 76.3117 126.842 76.3819C126.548 76.4799 126.341 76.3819 126.297 76.4309C126.254 76.4799 126.461 76.676 126.875 76.627C127.115 76.59 127.334 76.4659 127.49 76.2784C127.673 76.0511 127.777 75.7697 127.784 75.4778C127.8 75.3255 127.78 75.1715 127.725 75.0286C127.67 74.8856 127.582 74.7577 127.468 74.6553C127.366 74.5837 127.248 74.5358 127.125 74.5151C127.002 74.4944 126.875 74.5013 126.755 74.5355C126.379 74.6553 126.21 74.8187 126.243 74.8568C126.275 74.895 126.504 74.835 126.82 74.7969Z" fill="#A36957"/>
<path d="M125.714 77.3351C125.712 77.3587 125.712 77.3824 125.714 77.4059C125.672 77.5635 125.662 77.7279 125.683 77.8895C125.705 78.0512 125.758 78.2071 125.84 78.3482C125.938 78.5246 126.077 78.6757 126.244 78.7894C126.411 78.903 126.602 78.9763 126.802 79.0032C127.003 79.0302 127.207 79.0101 127.398 78.9446C127.589 78.8792 127.762 78.7701 127.904 78.626C128.14 78.3967 128.275 78.0833 128.28 77.7545C128.28 77.2099 127.98 76.9539 127.969 76.9811C128.048 77.2273 128.085 77.4851 128.078 77.7436C128.049 78.0099 127.923 78.2562 127.724 78.4354C127.607 78.5438 127.466 78.6249 127.314 78.673C127.161 78.7211 127 78.735 126.841 78.7137C126.683 78.6923 126.531 78.6363 126.396 78.5496C126.262 78.4629 126.148 78.3477 126.063 78.2121C125.92 77.9853 125.866 77.7138 125.911 77.4495C125.911 77.4168 125.911 77.3951 125.911 77.3624C125.986 77.1462 126.082 76.9382 126.199 76.7415C126.199 76.7415 125.878 76.8613 125.714 77.3351Z" fill="#47D163"/>
<path d="M113.895 207.472C115.475 207.641 117.163 207.832 118.95 208.017C123.029 208.491 126.717 208.959 129.385 209.313L130.371 209.439L132.55 209.722L133.411 209.82C133.512 209.834 133.614 209.834 133.716 209.82C133.62 209.787 133.521 209.763 133.421 209.749L132.566 209.596C132.022 209.498 131.275 209.379 130.388 209.242L129.424 209.095L129.015 209.035C127.31 208.785 125.235 208.491 122.92 208.197C121.668 208.039 120.36 207.875 119.004 207.723C114.919 207.249 111.215 206.9 108.53 206.683C107.185 206.574 106.101 206.497 105.349 206.454H105.153L104.483 206.421C104.382 206.41 104.28 206.41 104.178 206.421C104.276 206.451 104.376 206.47 104.478 206.476L105.338 206.574H105.486L108.514 206.879C110.017 207.08 111.858 207.254 113.895 207.472Z" fill="#263238"/>
<path d="M97.8439 90.7557C97.8439 90.7557 90.431 89.3341 79.7773 79.6608C69.1236 69.9876 63.8839 56.8829 62.6149 56.9809C61.3458 57.079 55.7303 54.6661 45.8446 77.8907C35.9589 101.115 40.2563 106.322 42.3533 106.213C44.4502 106.104 58.5789 101.742 67.5005 102.499C76.4222 103.256 87.9854 107.57 87.9854 107.57L97.8439 90.7557Z" fill="#47D163"/>
<path opacity="0.4" d="M97.8439 90.7557C97.8439 90.7557 90.431 89.3341 79.7773 79.6608C69.1236 69.9876 63.8839 56.8829 62.6149 56.9809C61.3458 57.079 55.7303 54.6661 45.8446 77.8907C35.9589 101.115 40.2563 106.322 42.3533 106.213C44.4502 106.104 58.5789 101.742 67.5005 102.499C76.4222 103.256 87.9854 107.57 87.9854 107.57L97.8439 90.7557Z" fill="white"/>
<path d="M113.852 103.866L111.471 108.713L110.382 110.892C109.68 112.328 108.453 113.439 106.954 113.995C105.456 114.552 103.801 114.511 102.332 113.882L86.384 108.833L94.9843 87.5911L111.003 95.5487C112.478 96.2801 113.604 97.564 114.138 99.1214C114.671 100.679 114.568 102.384 113.852 103.866Z" fill="#47D163"/>
<path d="M104.963 111.763L100.208 121.769L97.6695 121.143L81.6182 134.977L76.7707 126.115C76.7707 126.115 86.3623 121.655 88.0616 118.141C89.761 114.628 87.6586 113.898 87.6586 113.898L92.0867 108.577L104.963 111.763Z" fill="#47D163"/>
<path d="M46.7051 79.3395C41.4491 91.9213 39.4284 103.054 42.1953 104.209C44.9622 105.364 51.4546 96.1043 56.7161 83.5116C61.9776 70.9189 63.982 59.8132 61.2586 58.6585C58.5353 57.5038 51.9666 66.7631 46.7051 79.3395Z" fill="#263238"/>
<path d="M115.398 110.729L111.085 109.509L113.59 104.394L116.853 106.3L115.398 110.729Z" fill="#455A64"/>
<path d="M90.5671 110.413L102.277 117.422L103.634 114.568L90.5671 110.413Z" fill="#263238"/>
<path d="M113.59 104.394L111.085 109.509L111.967 109.759L113.977 104.623L113.59 104.394Z" fill="#263238"/>
<path d="M87.0486 107.237C87.0486 107.237 84.0257 106.224 84.1237 106.251C84.2218 106.279 93.492 89.1653 93.492 89.1653L94.2273 89.4975L87.3481 106.671" fill="#263238"/>
<path d="M110.671 105.641C110.611 105.783 108.454 105.015 105.85 103.92C103.247 102.826 101.177 101.834 101.237 101.698C101.297 101.562 103.454 102.324 106.063 103.414C108.672 104.503 110.731 105.5 110.671 105.641Z" fill="#263238"/>
<path d="M111.913 102.608C111.853 102.744 109.897 101.981 107.555 100.908C105.213 99.8353 103.35 98.8495 103.416 98.7297C103.481 98.6098 105.436 99.356 107.773 100.429C110.11 101.502 111.967 102.466 111.913 102.608Z" fill="#263238"/>
<path d="M109.102 108.833C109.102 108.909 108.557 108.806 107.751 108.577C107.343 108.463 106.858 108.321 106.319 108.152C105.78 107.983 105.229 107.711 104.636 107.466C102.267 106.442 100.447 105.429 100.502 105.287C100.556 105.146 102.501 105.93 104.859 106.921C105.447 107.166 105.997 107.466 106.493 107.64C106.989 107.815 107.474 108.011 107.86 108.185C108.645 108.528 109.118 108.762 109.102 108.833Z" fill="#263238"/>
<path d="M58.0668 76.2566C58.0668 76.2566 51.5308 72.444 48.2901 81.2185C45.0493 89.9931 51.8086 91.1968 51.8086 91.1968C54.5872 86.536 56.694 81.5063 58.0668 76.2566Z" fill="#47D163"/>
<path d="M64.5811 65.75C64.5595 66.2993 64.4921 66.8459 64.3795 67.384C64.2053 68.4733 63.9602 69.9875 63.6061 71.8829C63.361 72.8198 63.0941 73.8437 62.8055 74.9385C62.6638 75.4832 62.5113 76.0551 62.3588 76.6379C62.2826 76.932 62.2009 77.2261 62.1192 77.5257C62.0375 77.8252 61.9177 78.1194 61.8142 78.4189C61.3893 79.6226 60.9373 80.8863 60.4743 82.1935C60.3599 82.5203 60.2401 82.8525 60.1203 83.1848C60.0004 83.517 59.837 83.8329 59.6954 84.1652L58.8022 86.1641L57.9035 88.1521C57.751 88.4789 57.6202 88.8112 57.4459 89.1216L56.9394 90.0421L54.9949 93.5443C54.837 93.8221 54.6954 94.089 54.532 94.3668L54.02 95.1293L53.0396 96.5944L51.2749 99.2361C50.093 100.75 49.0962 101.959 48.4208 102.787C48.0905 103.232 47.7263 103.651 47.3315 104.04C47.6017 103.549 47.9171 103.084 48.2738 102.651C48.9274 101.769 49.8533 100.521 50.9971 98.9964L52.691 96.3548L53.6333 94.8787L54.1289 94.1162C54.2869 93.8493 54.4285 93.5715 54.581 93.2938L56.4819 89.797L56.983 88.882C57.1573 88.577 57.2825 88.2447 57.4351 87.9179C57.7237 87.2698 58.0233 86.6107 58.3229 85.9462C58.6224 85.2817 58.922 84.6172 59.2161 83.9691C59.3577 83.6423 59.5211 83.3318 59.6355 82.9996C59.7499 82.6673 59.8752 82.3405 59.995 82.0192C60.4634 80.7229 60.9209 79.4701 61.3566 78.2773C61.4601 77.9832 61.58 77.6891 61.6726 77.395L61.9177 76.518L62.3915 74.835C62.6965 73.7457 62.9852 72.7381 63.2466 71.8121L64.1889 67.3622C64.2731 66.8145 64.4043 66.2751 64.5811 65.75Z" fill="#263238"/>
<path d="M128.928 115.489C128.928 115.489 122.643 127.129 120.954 127.308C111.629 128.278 101.64 125.217 98.138 124.002C97.784 123.594 97.3755 123.109 96.9234 122.515C96.537 121.998 96.2389 121.42 96.041 120.805C95.7674 120.045 95.597 119.252 95.5345 118.447C95.5547 118.293 95.5252 118.137 95.4503 118.002C95.3754 117.866 95.2591 117.758 95.1184 117.694C94.9777 117.629 94.82 117.611 94.6685 117.643C94.5169 117.675 94.3795 117.754 94.2763 117.869C93.8733 118.414 93.7752 120.462 94.7011 122.657C95.6271 124.852 92.3645 123.131 91.1663 122.526C89.968 121.922 86.1662 120.233 85.6869 120.467C84.9898 120.805 85.2076 121.633 86.4222 122.21C87.6368 122.788 91.1499 124.77 90.7796 125.407C90.4092 126.045 84.3688 122.875 84.3688 122.875C84.3688 122.875 83.1815 121.981 82.7348 122.706C81.9669 124.008 88.6662 126.878 89.309 127.134C89.7556 127.314 89.4015 128.016 88.9331 127.804C88.4647 127.592 82.9418 124.503 82.1575 125.821C81.5529 126.834 87.6477 128.24 88.4375 129.525C89.2273 130.81 83.9222 127.978 83.3775 128.98C83.176 129.351 83.078 129.656 86.3569 130.832C88.7552 131.579 91.1938 132.19 93.6608 132.662V132.695C93.6608 132.695 125.143 147.401 133.421 132.809C138.835 123.283 139.342 122.074 141.259 116.693" fill="#B78876"/>
<path d="M1.55776 135.385H62.8926C63.3063 135.387 63.7025 135.552 63.9944 135.845C64.2864 136.138 64.4504 136.535 64.4504 136.949V149.378C64.8589 154.656 64.4504 155.963 58.4318 156.393V162.003L52.9143 156.486H1.55776C1.14462 156.486 0.748398 156.322 0.456264 156.03C0.16413 155.737 9.52283e-06 155.341 9.52283e-06 154.928V136.954C-0.00070699 136.749 0.0390169 136.545 0.116913 136.356C0.19481 136.166 0.309355 135.993 0.454005 135.847C0.598656 135.702 0.770579 135.586 0.959961 135.507C1.14934 135.427 1.35247 135.386 1.55776 135.385Z" fill="#455A64"/>
<path d="M52.6965 141.987H20.2671V143.376H52.6965V141.987Z" fill="#47D163"/>
<path d="M52.6965 144.906H20.2671V146.295H52.6965V144.906Z" fill="#47D163"/>
<path d="M36.7051 148.044H20.2671V149.432H36.7051V148.044Z" fill="#47D163"/>
<path d="M17.4021 141.366H8.34428V150.424H17.4021V141.366Z" fill="#47D163"/>
<path d="M217.186 43.7618C217.186 43.0395 216.899 42.3468 216.388 41.8361C215.877 41.3254 215.185 41.0385 214.462 41.0385L146.592 41.3707C145.869 41.3707 145.177 41.6576 144.666 42.1683C144.155 42.6791 143.868 43.3718 143.868 44.094L143.972 65.5049C143.972 65.8648 144.043 66.2212 144.182 66.5534C144.32 66.8856 144.523 67.187 144.779 67.4402C145.035 67.6935 145.338 67.8935 145.672 68.0288C146.005 68.164 146.362 68.2318 146.722 68.2282H148.193L148.236 76.0659L155.894 68.1901L214.571 67.9014C215.294 67.9014 215.986 67.6145 216.497 67.1037C217.008 66.593 217.295 65.9003 217.295 65.1781L217.186 43.7618Z" fill="#47D163"/>
<path d="M196.619 58.3153C196.575 57.0843 196.619 55.2706 196.619 53.6529C196.254 52.7169 196.174 51.694 196.388 50.7125C196.602 49.7311 197.101 48.8346 197.823 48.1355C200.35 45.4993 202.06 46.0766 203.041 46.0875C204.021 46.0984 208.564 47.1769 209.871 52.5745C209.938 52.922 209.985 53.2729 210.012 53.6257C210.04 53.8926 210.067 54.1704 210.089 54.3338C210.146 55.3012 210.45 56.2379 210.972 57.0548C211.493 57.8718 212.215 58.5419 213.068 59.0016C213.693 57.575 214.01 56.0328 213.999 54.4754C213.992 52.5103 213.468 50.5817 212.482 48.8825C211.495 47.1833 210.079 45.773 208.375 44.793C206.672 43.8129 204.741 43.2973 202.776 43.2978C200.811 43.2983 198.881 43.8149 197.178 44.7959C195.475 45.7768 194.06 47.1878 193.074 48.8875C192.088 50.5873 191.566 52.5162 191.559 54.4812C191.553 56.4463 192.063 58.3786 193.038 60.0847C194.012 61.7909 195.418 63.211 197.115 64.2031C196.586 62.2882 196.418 60.2917 196.619 58.3153Z" fill="#E0E0E0"/>
<path d="M210.094 54.3392V54.3828H210.034C210.034 56.5615 209.789 63.9308 206.151 65.2761C207.683 64.7919 209.094 63.9847 210.289 62.9089C211.483 61.8331 212.432 60.5137 213.073 59.0397C212.216 58.5772 211.491 57.902 210.969 57.0788C210.448 56.2557 210.146 55.3124 210.094 54.3392Z" fill="#263238"/>
<path d="M196.63 58.5822C196.63 58.4951 196.63 58.4079 196.63 58.3153C196.428 60.2935 196.596 62.2919 197.126 64.2086C197.867 64.651 198.659 65.0038 199.484 65.2598C199.44 63.6966 199.299 61.4471 199.299 61.4471C198.589 61.3576 197.933 61.0219 197.445 60.4983C196.957 59.9748 196.669 59.2967 196.63 58.5822Z" fill="#263238"/>
<path d="M206.025 53.7729C206.025 53.7729 201.875 53.3208 201.183 49.4155C200.933 50.0038 200.486 51.2674 200.769 52.2914L197.066 53.2227L196.652 53.6095C196.614 55.2435 196.597 57.0409 196.652 58.2718C196.652 58.3644 196.652 58.4515 196.652 58.5387C196.684 59.2563 196.968 59.9396 197.454 60.4685C197.94 60.9974 198.597 61.3381 199.31 61.4309C200.51 61.4035 201.677 61.0248 202.665 60.3415C202.665 60.3415 201.886 62.2315 199.359 62.0954L199.31 61.4581C199.31 61.4581 199.451 63.6803 199.495 65.2708C200.584 65.61 201.72 65.779 202.861 65.7719C203.823 65.7615 204.78 65.6297 205.709 65.3797L206.025 53.7729ZM200.927 54.4265C200.931 54.3635 200.952 54.3028 200.99 54.2521C201.027 54.2013 201.079 54.1627 201.138 54.141C201.197 54.1194 201.261 54.1156 201.323 54.1302C201.384 54.1449 201.44 54.1772 201.483 54.2233C201.526 54.2694 201.555 54.3271 201.565 54.3893C201.576 54.4515 201.568 54.5154 201.542 54.573C201.516 54.6307 201.475 54.6796 201.421 54.7136C201.368 54.7475 201.306 54.7651 201.243 54.7642C201.2 54.7627 201.158 54.7529 201.119 54.7352C201.08 54.7174 201.045 54.6921 201.015 54.6608C200.986 54.6294 200.963 54.5926 200.948 54.5524C200.933 54.5122 200.926 54.4694 200.927 54.4265ZM200.851 53.8818C200.99 53.7636 201.164 53.6946 201.347 53.6857C201.53 53.6766 201.711 53.7262 201.864 53.8273C201.979 53.909 202.022 53.9907 202 54.0125C201.979 54.0343 201.706 53.8818 201.358 53.8981C201.009 53.9145 200.769 54.1214 200.731 54.0779C200.693 54.0343 200.742 53.9635 200.851 53.8709V53.8818ZM197 53.8328C197.141 53.7138 197.317 53.6448 197.501 53.6367C197.684 53.6271 197.864 53.6789 198.013 53.7838C198.128 53.8655 198.171 53.9417 198.15 53.9635C198.128 53.9853 197.855 53.8328 197.507 53.8491C197.158 53.8654 196.919 54.0724 196.88 54.0289C196.842 53.9853 196.88 53.9145 197 53.8219V53.8328ZM197.185 54.3774C197.187 54.3128 197.207 54.25 197.244 54.1968C197.28 54.1437 197.332 54.1027 197.392 54.079C197.452 54.0552 197.518 54.0498 197.581 54.0635C197.644 54.0772 197.702 54.1093 197.747 54.1557C197.792 54.2022 197.822 54.2609 197.834 54.3245C197.845 54.3881 197.838 54.4537 197.812 54.513C197.786 54.5723 197.744 54.6226 197.689 54.6576C197.635 54.6926 197.571 54.7108 197.507 54.7097C197.421 54.7083 197.339 54.6732 197.279 54.6121C197.219 54.5509 197.185 54.4686 197.185 54.3829V54.3774ZM198.716 57.0626C198.682 57.0557 198.651 57.04 198.625 57.0171C198.599 56.9941 198.58 56.9647 198.569 56.9319C198.539 56.8059 198.553 56.6736 198.607 56.5561C198.678 56.3219 198.76 56.0768 198.841 55.8154C199.025 55.1762 199.256 54.5517 199.533 53.9472C199.399 54.5987 199.217 55.2395 198.988 55.8644C198.901 56.1186 198.819 56.3637 198.743 56.5997C198.697 56.6885 198.678 56.7889 198.689 56.8883C198.689 56.9483 198.787 56.9646 198.879 56.97C199.064 56.9747 199.247 57.004 199.424 57.0572C199.234 57.0793 199.042 57.0793 198.852 57.0572C198.807 57.0665 198.762 57.0702 198.716 57.0681V57.0626ZM200.045 58.3263C199.843 58.4098 199.618 58.4208 199.408 58.3572C199.199 58.2937 199.018 58.1596 198.896 57.9777C199.604 57.9777 200.938 57.1716 200.584 57.433C200.628 57.6234 200.596 57.8233 200.495 57.9908C200.395 58.1582 200.233 58.2804 200.045 58.3317V58.3263Z" fill="#455A64"/>
<path d="M197.834 54.3883C197.834 54.3237 197.815 54.2605 197.779 54.2068C197.743 54.153 197.692 54.1111 197.632 54.0864C197.572 54.0617 197.507 54.0552 197.443 54.0678C197.38 54.0804 197.322 54.1115 197.276 54.1572C197.23 54.2029 197.199 54.2612 197.186 54.3246C197.174 54.388 197.18 54.4537 197.205 54.5134C197.23 54.5731 197.272 54.6241 197.325 54.66C197.379 54.696 197.442 54.7151 197.507 54.7151C197.594 54.7151 197.677 54.6807 197.738 54.6194C197.799 54.5581 197.834 54.475 197.834 54.3883Z" fill="#263238"/>
<path d="M198.15 53.9526C198.15 53.9526 198.15 53.8545 198.013 53.7728C197.864 53.668 197.684 53.6162 197.501 53.6258C197.317 53.6339 197.141 53.7029 197 53.8218C196.891 53.9144 196.859 53.9961 196.88 54.0179C196.902 54.0397 197.164 53.8545 197.507 53.8382C197.85 53.8218 198.117 54.0288 198.15 53.9526Z" fill="#263238"/>
<path d="M201.57 54.4373C201.57 54.352 201.536 54.2703 201.476 54.21C201.416 54.1498 201.334 54.1159 201.249 54.1159C201.164 54.1159 201.082 54.1498 201.022 54.21C200.961 54.2703 200.927 54.352 200.927 54.4373C200.927 54.5225 200.961 54.6042 201.022 54.6645C201.082 54.7248 201.164 54.7586 201.249 54.7586C201.334 54.7586 201.416 54.7248 201.476 54.6645C201.536 54.6042 201.57 54.5225 201.57 54.4373Z" fill="#263238"/>
<path d="M202 54.0288C202 54.0288 202 53.9253 201.864 53.8436C201.711 53.7425 201.53 53.6929 201.347 53.702C201.165 53.7109 200.99 53.7799 200.851 53.8981C200.742 53.9907 200.71 54.0724 200.731 54.0942C200.753 54.1159 201.009 53.9308 201.358 53.9144C201.706 53.8981 201.968 54.0288 202 54.0288Z" fill="#263238"/>
<path d="M199.44 57.0626C199.264 57.0093 199.08 56.98 198.896 56.9754C198.803 56.9754 198.722 56.9754 198.705 56.8937C198.695 56.7942 198.714 56.6939 198.76 56.605C198.836 56.3726 198.918 56.1276 199.005 55.8697C199.233 55.2449 199.415 54.6041 199.549 53.9525C199.272 54.557 199.041 55.1815 198.858 55.8207C198.776 56.0822 198.694 56.3273 198.623 56.5615C198.569 56.6789 198.556 56.8113 198.585 56.9373C198.596 56.9701 198.615 56.9995 198.641 57.0224C198.667 57.0454 198.699 57.0611 198.732 57.068C198.783 57.0752 198.834 57.0752 198.885 57.068C199.07 57.087 199.256 57.0852 199.44 57.0626Z" fill="#263238"/>
<path d="M198.896 57.983C199.018 58.1649 199.199 58.299 199.408 58.3626C199.618 58.4261 199.843 58.4152 200.045 58.3316C200.239 58.2816 200.406 58.1566 200.508 57.984C200.61 57.8114 200.639 57.6054 200.59 57.4111C200.938 57.1769 199.604 57.9939 198.896 57.983Z" fill="white"/>
<path d="M202.643 60.3578C201.655 61.0411 200.489 61.4198 199.288 61.4471L199.337 62.0844C201.864 62.2478 202.643 60.3578 202.643 60.3578Z" fill="#263238"/>
<path d="M210.034 54.3718H210.094V54.3283C210.094 54.1431 210.045 53.8871 210.018 53.6202C209.991 53.2674 209.943 52.9164 209.876 52.569C208.569 47.155 203.961 46.0929 203.046 46.082C202.131 46.0711 200.355 45.4938 197.828 48.13C197.107 48.8291 196.608 49.7255 196.394 50.707C196.18 51.6885 196.26 52.7114 196.625 53.6474L197.038 53.2607L200.742 52.3293C200.459 51.3054 200.906 50.0417 201.156 49.4535C201.848 53.337 205.998 53.8108 205.998 53.8108L205.661 65.4068C205.813 65.3632 205.971 65.3305 206.124 65.2815C209.789 63.9198 210.056 56.5233 210.034 54.3718Z" fill="#263238"/>
<path d="M187.45 49.088L152.178 49.2604L152.187 51.2048L187.46 51.0324L187.45 49.088Z" fill="#263238"/>
<path d="M187.48 54.0879L152.208 54.2603L152.217 56.2048L187.49 56.0324L187.48 54.0879Z" fill="#263238"/>
<path d="M169.71 59.0331L152.226 59.1185L152.236 61.063L169.719 60.9775L169.71 59.0331Z" fill="#263238"/>
</svg>
