<svg width="388" height="224" viewBox="0 0 388 224" fill="none" xmlns="http://www.w3.org/2000/svg">
<path d="M180.402 41.5167H153.727V79.6686H180.402V41.5167Z" fill="#E0E0E0"/>
<path d="M179.066 41.5167H152.392V79.6686H179.066V41.5167Z" fill="#F5F5F5"/>
<path d="M175.753 45.6473H155.706V75.538H175.753V45.6473Z" fill="white"/>
<path d="M175.748 75.5327C175.748 75.5327 175.748 75.4855 175.748 75.391V74.9659C175.748 74.588 175.748 74.0421 175.748 73.3283C175.748 71.8955 175.748 69.8065 175.748 67.1665C175.748 61.9179 175.748 54.4335 175.716 45.6473L175.78 45.7103H155.738L155.812 45.6368C155.812 56.9108 155.812 67.3082 155.812 75.5223L155.754 75.4698H170.349H174.375H175.748H175.397H174.333H170.312H155.685H155.626V75.412C155.626 67.198 155.626 56.8006 155.626 45.5266V45.4531H175.811V45.5214C175.811 54.3285 175.785 61.792 175.78 67.0878C175.78 69.7121 175.78 71.8115 175.78 73.2286C175.78 73.9372 175.78 74.483 175.78 74.8557V75.2703C175.778 75.3587 175.768 75.4466 175.748 75.5327Z" fill="#E0E0E0"/>
<path d="M179.141 41.5167C179.004 41.7576 178.846 41.9859 178.667 42.199C178.359 42.6031 177.918 43.1595 177.418 43.7736C176.918 44.3876 176.444 44.9073 176.098 45.2851C175.919 45.4986 175.721 45.697 175.508 45.8782C175.669 45.6468 175.846 45.4275 176.04 45.2222L177.327 43.6843L178.609 42.1465C178.767 41.9215 178.945 41.7107 179.141 41.5167Z" fill="#E0E0E0"/>
<path d="M175.854 75.4381C176.853 77.001 178.027 78.4482 179.354 79.7524L175.854 75.4381Z" fill="white"/>
<path d="M179.354 79.7525C179.131 79.6 178.926 79.424 178.742 79.2276C178.277 78.7601 177.837 78.2696 177.423 77.758C177.008 77.2538 176.621 76.7282 176.263 76.1834C176.102 75.9622 175.965 75.7247 175.854 75.4749C176.038 75.6771 176.203 75.8948 176.348 76.1257C176.641 76.5351 177.056 77.0914 177.535 77.7003C178.013 78.3091 178.481 78.8182 178.816 79.1909C179.009 79.3648 179.189 79.5525 179.354 79.7525Z" fill="#E0E0E0"/>
<path d="M152.392 79.637L155.881 75.3857L152.392 79.637Z" fill="white"/>
<path d="M155.881 75.3857C155.358 76.1366 154.795 76.8601 154.195 77.5533C153.227 78.729 152.419 79.6527 152.392 79.6527C152.915 78.8994 153.477 78.1741 154.078 77.4798C154.643 76.7523 155.245 76.0533 155.881 75.3857Z" fill="#E0E0E0"/>
<path d="M152.392 41.5167C152.995 42.1512 153.562 42.8189 154.089 43.5164C154.657 44.1884 155.19 44.8892 155.684 45.6158C155.081 44.9812 154.515 44.3136 153.988 43.6161C153.417 42.9461 152.884 42.2452 152.392 41.5167Z" fill="#E0E0E0"/>
<path d="M169.508 51.7146H162.796V70.5202H169.508V51.7146Z" fill="#E0E0E0"/>
<path d="M205.624 115.511C205.794 115.611 205.951 115.731 206.092 115.868C206.379 116.109 206.794 116.466 207.294 116.918C208.304 117.815 209.682 119.064 211.193 120.455C212.703 121.846 214.06 123.122 215.033 124.056C215.517 124.518 215.905 124.901 216.171 125.168C216.318 125.299 216.45 125.445 216.565 125.604C216.393 125.509 216.235 125.391 216.097 125.252C215.804 125.011 215.395 124.649 214.889 124.203C213.884 123.31 212.501 122.061 210.991 120.665C209.48 119.269 208.124 117.999 207.156 117.07C206.666 116.603 206.278 116.225 206.012 115.952C205.864 115.822 205.733 115.674 205.624 115.511Z" fill="#E0E0E0"/>
<path d="M198.911 134.06C199.126 134.192 199.326 134.347 199.507 134.521L201.055 135.86C202.352 136.999 204.129 138.584 206.086 140.353C208.044 142.121 209.81 143.733 211.06 144.908L212.543 146.315C212.738 146.472 212.916 146.648 213.075 146.84C212.863 146.704 212.664 146.549 212.48 146.378L210.932 145.04C209.634 143.901 207.858 142.31 205.9 140.547C203.943 138.783 202.177 137.167 200.932 135.991L199.432 134.616C199.239 134.449 199.065 134.262 198.911 134.06Z" fill="#E0E0E0"/>
<path d="M38.6208 159.2C38.7133 159.102 38.7904 158.991 38.8496 158.87L39.44 157.888C39.9719 157.038 40.642 155.789 41.4824 154.214C43.1685 151.097 45.3652 146.714 47.7162 141.843C50.0671 136.973 52.216 132.574 53.8382 129.425L55.7637 125.699L56.2955 124.68C56.361 124.564 56.4128 124.441 56.4498 124.313C56.36 124.412 56.2831 124.521 56.2211 124.638L55.636 125.62C55.1307 126.475 54.4339 127.719 53.5882 129.294C51.9021 132.417 49.7108 136.799 47.3545 141.67C44.9982 146.541 42.8547 150.934 41.2377 154.088L39.307 157.815L38.7751 158.833C38.7067 158.948 38.6548 159.071 38.6208 159.2Z" fill="#E0E0E0"/>
<path d="M79.3902 10.067V53.3888H16.34L14.0635 10.3715L79.3902 10.067Z" fill="#E0E0E0"/>
<path d="M14.0635 10.3769L14.0635 53.2998L77.1137 53.2998V10.3769L14.0635 10.3769Z" fill="white"/>
<path d="M77.4169 53.5936H13.7656V10.0776H77.4169V53.5936ZM14.3667 53.0005H76.8159V10.6655H14.3667V53.0005Z" fill="#E0E0E0"/>
<path d="M70.2841 15.7042H20.8928V47.9619H70.2841V15.7042Z" fill="white"/>
<path d="M70.2895 15.7041H70.0448H69.3693H66.6567L56.4763 15.7409L20.9194 15.8091L21.0631 15.6674C21.0631 25.5242 21.0631 36.4465 21.0631 47.9252L20.9035 47.7729L70.3001 47.8044L70.1724 47.9252C70.2044 38.1103 70.2256 30.08 70.2416 24.4588C70.2416 21.656 70.2416 19.4674 70.2735 17.9663C70.2735 17.2262 70.2735 16.6541 70.2735 16.2605C70.2735 15.8668 70.2735 15.6674 70.2735 15.6674C70.2735 15.6674 70.2735 15.8563 70.2735 16.2342C70.2735 16.6121 70.2735 17.1842 70.2735 17.919C70.2735 19.4096 70.2735 21.593 70.3054 24.38C70.3054 30.0013 70.3427 38.0788 70.3692 47.9252V48.0511H70.2469L20.8503 48.0826H20.696V47.9252C20.696 36.4465 20.696 25.5242 20.696 15.6674V15.5257H20.8343L56.471 15.5991L66.6194 15.6359H69.2789H69.965L70.2895 15.7041Z" fill="#E0E0E0"/>
<path d="M14.0529 10.2508C14.4334 10.4405 14.7904 10.6729 15.1167 10.9436C15.7656 11.4055 16.6432 12.0563 17.5899 12.8069C18.5367 13.5574 19.3718 14.2607 19.9622 14.7908C20.3002 15.0561 20.6023 15.363 20.8611 15.7041C20.8026 15.7723 19.2654 14.5389 17.3931 13.0431C15.5209 11.5472 14.0103 10.3243 14.0529 10.2508Z" fill="#E0E0E0"/>
<path d="M77.119 10.3715C76.0817 11.3777 74.9725 12.3091 73.8 13.1585C72.6934 14.0891 71.5202 14.9399 70.2896 15.7041C71.3338 14.6992 72.4482 13.7679 73.6245 12.9171C74.7266 11.9877 75.8944 11.137 77.119 10.3715Z" fill="#E0E0E0"/>
<path d="M77.0658 53.3048L70.0396 47.6783L77.0658 53.3048Z" fill="white"/>
<path d="M70.0395 47.6783C71.3018 48.4968 72.5083 49.3962 73.651 50.3709C74.857 51.2694 75.998 52.2497 77.0657 53.3048C75.8019 52.4885 74.5953 51.5889 73.4542 50.6123C71.4969 49.064 69.981 47.7466 70.0395 47.6783Z" fill="#E0E0E0"/>
<path d="M14.0532 53.2997C15.0807 52.3032 16.1792 51.3805 17.3403 50.539C18.4364 49.6194 19.597 48.7776 20.8135 48.0197C19.7887 49.017 18.6919 49.9397 17.5318 50.7804C16.434 51.7001 15.2715 52.542 14.0532 53.2997Z" fill="#E0E0E0"/>
<path d="M30.9243 25.7603V36.5619H62.0027V25.7603H30.9243Z" fill="#E0E0E0"/>
<path d="M223.389 0.000305176C223.218 0.306048 223.016 0.594371 222.788 0.861074C222.394 1.38593 221.841 2.08399 221.192 2.84504C220.543 3.60608 219.963 4.2779 219.522 4.75552C219.304 5.02447 219.061 5.27387 218.799 5.50082C218.988 5.20632 219.203 4.92882 219.442 4.67154L221.064 2.72957C221.676 1.98952 222.235 1.32295 222.687 0.782345C222.898 0.502473 223.133 0.240848 223.389 0.000305176Z" fill="#E0E0E0"/>
<path d="M219.235 42.876C220.496 44.8513 221.979 46.6806 223.655 48.3293L219.235 42.876Z" fill="white"/>
<path d="M223.655 48.3293C223.374 48.1251 223.116 47.8929 222.883 47.6364C222.431 47.1851 221.82 46.5395 221.213 45.7837C220.692 45.1364 220.204 44.4637 219.751 43.7682C219.543 43.4894 219.365 43.1905 219.219 42.876C219.448 43.1342 219.656 43.4097 219.841 43.7C220.213 44.2249 220.735 44.9177 221.341 45.6682C221.947 46.4188 222.532 47.0801 222.963 47.5472C223.212 47.7911 223.444 48.0525 223.655 48.3293Z" fill="#E0E0E0"/>
<path d="M189.577 48.1823L193.991 42.8077L189.577 48.1823Z" fill="white"/>
<path d="M193.991 42.8077C193.332 43.7596 192.622 44.6759 191.864 45.5527C190.64 47.0328 189.619 48.2138 189.582 48.177C190.242 47.2261 190.952 46.3098 191.71 45.432C192.424 44.5188 193.185 43.6429 193.991 42.8077Z" fill="#E0E0E0"/>
<path d="M189.577 0.000305176C190.331 0.805295 191.042 1.64979 191.704 2.53012C192.418 3.36926 193.085 4.24526 193.704 5.15441C192.948 4.35097 192.237 3.50637 191.577 2.62459C190.863 1.78546 190.196 0.909456 189.577 0.000305176Z" fill="#E0E0E0"/>
<path d="M232.091 196.549C232.091 196.628 180.274 196.686 116.378 196.686C52.4822 196.686 0.654785 196.649 0.654785 196.549C0.654785 196.45 52.4556 196.413 116.378 196.413C180.301 196.413 232.091 196.497 232.091 196.549Z" fill="#263238"/>
<path d="M167.077 105.749C167.472 107.334 167.426 108.994 166.944 110.556C166.462 112.117 165.562 113.521 164.338 114.619C162.716 116.036 160.615 116.855 159.126 118.413C158.204 119.45 157.57 120.705 157.286 122.055C157.001 123.405 157.076 124.805 157.503 126.118C157.955 127.422 158.671 128.622 159.606 129.645C160.541 130.668 161.677 131.493 162.945 132.07C164.671 132.866 166.564 133.248 168.468 133.184C170.372 133.12 172.234 132.613 173.902 131.703C178.013 129.409 180.407 124.806 181.013 120.182C181.619 115.558 180.667 110.877 179.417 106.378" fill="#263238"/>
<path d="M218.932 187.285C223.187 186.598 227.176 187.878 231.388 188.797C232.509 189.125 233.691 189.187 234.84 188.981C236.665 188.519 237.963 186.766 238.245 184.929C238.473 183.319 238.094 181.683 237.181 180.331C236.814 179.748 236.315 179.258 235.723 178.898C235.089 178.584 234.395 178.406 233.686 178.373C231.105 178.168 228.515 178.65 226.187 179.769C223.865 180.883 221.759 182.39 219.964 184.22C219.07 185.102 219.336 186.115 218.942 187.301" fill="#263238"/>
<path d="M132.664 119.516C131.982 115.512 132.065 111.418 132.909 107.444C133.266 105.501 133.987 103.641 135.036 101.959C135.394 101.332 135.938 100.828 136.595 100.516C137.072 100.36 137.584 100.337 138.073 100.451C138.562 100.565 139.01 100.811 139.366 101.161C139.82 101.628 140.169 102.185 140.389 102.795C140.609 103.405 140.696 104.054 140.642 104.699C140.548 105.989 140.227 107.254 139.696 108.436C138.052 112.582 135.441 116.025 132.648 119.511" fill="#263238"/>
<path d="M215.107 134.689C216.07 135.367 237.447 180.804 237.447 180.804C235.727 180.079 233.823 179.896 231.995 180.279L230.835 180.583C228.76 181.134 226.792 182.02 225.011 183.207L218.91 187.28C218.669 187.143 218.464 186.951 218.313 186.72C218.162 186.489 218.07 186.226 218.043 185.952V185.779L201.469 157.71L215.107 134.689Z" fill="#47D163"/>
<path d="M134.84 62.3533L140.542 94.3329C142.377 98.6367 163.775 124.712 163.775 124.712L156.7 147.144L128.595 109.223C125.986 106.47 124.566 102.821 124.638 99.0514L125.734 64.8831L134.84 62.3533Z" fill="#FFBE9D"/>
<path d="M165.184 119.699L179.859 120.796L192.656 122.754C192.656 122.754 215.107 128.575 215.107 130.999C215.107 131.808 208.98 151.065 205.533 162.601C204.688 165.403 203.999 168.249 203.469 171.125L215.107 196.549H159.881V173.24C159.881 173.24 156.158 142.625 156.812 138.442C157.466 134.259 165.184 119.699 165.184 119.699Z" fill="#47D163"/>
<path d="M127.877 49.4314C127.964 46.1742 128.302 42.9282 128.888 39.7216C128.968 39.2649 129.159 38.7138 129.622 38.6719C130.196 38.5984 130.489 39.3279 130.563 39.8948C131.074 43.7619 130.91 47.6867 130.079 51.4994" fill="#EB996E"/>
<path d="M134.419 117.149C140.717 111.596 140.93 101.975 140.393 94.3173C140.287 93.758 140.373 93.1802 140.637 92.6744C141.238 91.8294 142.701 92.1496 143.297 92.9999C143.892 93.8501 143.829 94.9681 143.797 95.9968C144.121 95.1255 145.504 95.1308 146.153 95.8026C146.802 96.4744 146.914 97.4874 146.988 98.4269L147.195 100.988L165.594 118.309C165.594 118.309 166.099 116.734 167.45 117.642C168.801 118.55 169.673 120.466 169.673 120.466L156.711 148.383L132.654 119.516C133.116 118.642 133.712 117.844 134.419 117.149Z" fill="#47D163"/>
<path d="M159.387 136.469C157.467 138.885 156.034 141.641 155.163 144.588C154.296 147.555 154.391 150.715 155.435 153.626C156.242 155.64 157.564 157.414 159.273 158.773C160.982 160.133 163.018 161.032 165.184 161.384" fill="#47D163"/>
<path d="M218.932 187.285L218.235 196.549H231.867L235.059 180.147C230.906 179.918 226.81 181.185 223.532 183.711L218.932 187.285Z" fill="#FFBE9D"/>
<path d="M140.829 115.096C140.906 114.842 141.006 114.594 141.127 114.356C141.339 113.894 141.627 113.212 141.951 112.362C142.276 111.512 142.621 110.483 142.946 109.328C143.283 108.068 143.551 106.791 143.749 105.502C143.933 104.213 144.045 102.914 144.084 101.613C144.084 100.411 144.084 99.3297 144.01 98.4217C143.935 97.5137 143.866 96.7841 143.797 96.2802C143.751 96.0184 143.726 95.7534 143.722 95.4877C143.809 95.74 143.869 96.0002 143.903 96.2645C144.041 96.9727 144.142 97.6875 144.206 98.4059C144.31 99.4734 144.355 100.546 144.339 101.618C144.299 104.247 143.913 106.86 143.19 109.391C142.893 110.423 142.538 111.437 142.127 112.43C141.776 113.28 141.462 113.952 141.217 114.404C141.106 114.644 140.976 114.875 140.829 115.096Z" fill="#263238"/>
<path d="M144.834 110.22C145.007 109.769 145.206 109.327 145.43 108.898C146.361 106.768 146.901 104.491 147.025 102.174C147.025 101.692 147.051 101.21 147.105 100.731C147.21 101.207 147.249 101.694 147.222 102.18C147.204 104.534 146.659 106.854 145.626 108.977C145.423 109.426 145.157 109.845 144.834 110.22Z" fill="#263238"/>
<path d="M166.439 124.738C166.397 124.712 166.62 124.371 166.748 123.751C166.897 122.942 166.85 122.109 166.61 121.321C166.357 120.528 166.049 119.753 165.689 119.001C165.521 118.69 165.396 118.358 165.317 118.015C165.528 118.295 165.706 118.598 165.849 118.917C166.27 119.657 166.611 120.438 166.865 121.248C167.119 122.077 167.14 122.959 166.923 123.799C166.857 124.151 166.689 124.477 166.439 124.738Z" fill="#263238"/>
<path d="M163.243 161.709C163.16 161.675 163.081 161.631 163.009 161.578L162.381 161.168C161.849 160.806 161.057 160.276 160.131 159.557C159.037 158.726 158.037 157.781 157.147 156.739C156.053 155.448 155.264 153.933 154.839 152.304C154.433 150.673 154.328 148.984 154.531 147.317C154.694 145.966 154.998 144.634 155.44 143.344C155.733 142.475 156.072 141.622 156.456 140.788C156.594 140.494 156.701 140.263 156.78 140.116C156.816 140.035 156.86 139.957 156.913 139.885C156.813 140.207 156.694 140.522 156.557 140.83C156.318 141.428 155.972 142.3 155.626 143.402C155.218 144.686 154.936 146.006 154.786 147.344C154.601 148.98 154.709 150.636 155.105 152.235C155.519 153.829 156.283 155.312 157.344 156.581C158.215 157.617 159.19 158.563 160.254 159.405C161.158 160.14 161.918 160.691 162.445 161.084L163.041 161.536C163.179 161.641 163.248 161.698 163.243 161.709Z" fill="#263238"/>
<path d="M193.374 166.9C193.3 166.938 193.222 166.967 193.14 166.984C192.98 167.026 192.752 167.105 192.448 167.162C191.591 167.346 190.719 167.449 189.842 167.472C186.919 167.561 184.037 166.783 181.565 165.241C179.094 163.698 177.147 161.461 175.976 158.817C175.619 158.026 175.339 157.204 175.141 156.361C175.066 156.062 175.04 155.836 175.008 155.668C174.99 155.587 174.981 155.504 174.981 155.421C175.09 155.718 175.179 156.021 175.247 156.329C176.094 159.498 177.989 162.297 180.633 164.281C183.277 166.264 186.516 167.319 189.837 167.278C190.705 167.274 191.571 167.2 192.427 167.057C192.74 166.988 193.056 166.936 193.374 166.9Z" fill="#263238"/>
<path d="M201.836 177.129C201.762 177.129 202.464 174.206 203.432 170.647C204.4 167.089 205.198 164.218 205.267 164.239C205.336 164.26 204.64 167.157 203.698 170.716C202.757 174.274 201.911 177.129 201.836 177.129Z" fill="#263238"/>
<path d="M209.256 170.941C209.193 170.978 207.054 167.53 204.469 163.236C201.884 158.943 199.863 155.432 199.932 155.395C200.002 155.358 202.134 158.801 204.719 163.095C207.304 167.388 209.347 170.899 209.256 170.941Z" fill="#263238"/>
<path d="M229.676 179.439C229.676 179.491 228.899 179.554 227.687 179.859C226.978 180.036 226.283 180.262 225.607 180.536C224.782 180.88 223.985 181.287 223.224 181.753C222.473 182.23 221.762 182.766 221.097 183.354C220.554 183.843 220.048 184.369 219.581 184.929C218.783 185.879 218.389 186.545 218.341 186.503C218.405 186.333 218.489 186.171 218.591 186.02C218.838 185.591 219.117 185.18 219.426 184.792C219.881 184.212 220.381 183.668 220.921 183.165C221.59 182.554 222.313 182.002 223.08 181.517C223.855 181.042 224.67 180.635 225.517 180.3C226.207 180.031 226.918 179.818 227.644 179.664C228.13 179.553 228.625 179.48 229.123 179.444C229.306 179.416 229.492 179.414 229.676 179.439Z" fill="#263238"/>
<path d="M232.282 176.279C232.282 176.337 231.426 176.232 230.059 176.347C229.261 176.418 228.471 176.555 227.697 176.757C225.799 177.254 224.025 178.131 222.484 179.334C221.858 179.825 221.275 180.368 220.74 180.956C219.83 181.963 219.405 182.698 219.357 182.672C219.429 182.486 219.523 182.31 219.639 182.147C219.753 181.944 219.881 181.75 220.022 181.564C220.199 181.31 220.389 181.065 220.591 180.83C221.114 180.214 221.694 179.648 222.325 179.14C223.105 178.522 223.946 177.984 224.835 177.533C225.73 177.101 226.668 176.76 227.633 176.515C228.425 176.319 229.233 176.198 230.048 176.153C230.358 176.138 230.669 176.138 230.979 176.153C231.215 176.154 231.451 176.168 231.686 176.195C231.888 176.198 232.088 176.226 232.282 176.279Z" fill="#263238"/>
<g opacity="0.3">
<path opacity="0.3" d="M175.55 156.539C174.301 158.88 175.343 161.735 176.487 164.134C177.375 165.992 178.364 167.876 179.981 169.173C180.776 169.813 181.696 170.285 182.684 170.559C183.672 170.832 184.707 170.901 185.723 170.761C186.739 170.621 187.716 170.275 188.59 169.745C189.465 169.215 190.219 168.513 190.805 167.682C187.414 167.632 184.119 166.571 181.35 164.639C178.582 162.706 176.471 159.993 175.295 156.854" fill="black"/>
</g>
<g opacity="0.3">
<path opacity="0.3" d="M199.969 155.395C199.012 157.647 199.735 160.728 200.735 162.958C201.735 165.189 202.799 167.682 201.996 169.997C201.789 170.407 201.681 170.86 201.682 171.319C201.735 171.771 202.214 172.206 202.645 171.996C202.868 171.842 203.022 171.609 203.076 171.345C203.831 169.099 204.588 166.854 205.347 164.612" fill="black"/>
</g>
<path d="M149.653 125.746C149.739 124.336 149.916 122.934 150.185 121.547C150.366 120.153 150.637 118.771 150.999 117.411C150.918 118.821 150.741 120.224 150.467 121.61C150.288 123.005 150.016 124.386 149.653 125.746Z" fill="#FAFAFA"/>
<path d="M144.052 124.586C143.983 124.628 143.068 123.368 141.802 121.92C140.536 120.471 139.419 119.385 139.472 119.327C140.426 120.015 141.281 120.827 142.015 121.741C142.816 122.598 143.501 123.555 144.052 124.586Z" fill="#FAFAFA"/>
<path d="M148.86 111.065C148.7 111.404 148.498 111.721 148.259 112.01C147.855 112.572 147.265 113.322 146.579 114.11C145.892 114.897 145.233 115.605 144.738 116.088C144.49 116.369 144.206 116.616 143.892 116.823C143.834 116.771 144.999 115.527 146.366 113.931C147.733 112.336 148.797 110.997 148.86 111.065Z" fill="#FAFAFA"/>
<path d="M146.983 104.458C146.903 104.489 146.6 103.823 146.014 103.156C145.429 102.489 144.802 102.106 144.844 102.027C145.398 102.185 145.882 102.519 146.222 102.977C146.631 103.377 146.898 103.896 146.983 104.458Z" fill="#FAFAFA"/>
<path d="M142.132 108.53C141.698 108.732 141.228 108.852 140.749 108.882C140.284 109.002 139.8 109.03 139.324 108.966C140.223 108.644 141.176 108.496 142.132 108.53Z" fill="#FAFAFA"/>
<path d="M154.371 114.362C154.383 113.545 154.324 112.728 154.195 111.921C153.975 111.133 153.685 110.365 153.328 109.627C153.931 110.239 154.327 111.02 154.461 111.863C154.689 112.686 154.657 113.557 154.371 114.362Z" fill="#FAFAFA"/>
<path d="M160.908 121.3C159.927 119.755 158.609 118.444 157.052 117.464C157.931 117.8 158.729 118.316 159.393 118.977C160.058 119.638 160.574 120.43 160.908 121.3Z" fill="#FAFAFA"/>
<path d="M150.413 133.341C148.83 133.926 147.076 133.868 145.536 133.178C145.562 133.099 146.6 133.43 147.967 133.467C149.334 133.503 150.392 133.262 150.413 133.341Z" fill="#FAFAFA"/>
<path d="M155.339 135.834C155.264 135.802 155.679 134.595 156.025 133.062C156.37 131.53 156.525 130.26 156.604 130.27C156.659 131.23 156.555 132.193 156.296 133.12C156.127 134.069 155.804 134.986 155.339 135.834Z" fill="#FAFAFA"/>
<path d="M166.099 136.238C165.258 135.536 164.48 134.763 163.775 133.928C162.996 133.155 162.285 132.32 161.647 131.43C162.485 132.135 163.261 132.91 163.966 133.745C164.744 134.518 165.457 135.351 166.099 136.238Z" fill="#FAFAFA"/>
<path d="M171.109 148.504C170.471 148.047 169.89 147.518 169.375 146.929C168.799 146.4 168.285 145.809 167.844 145.166C168.481 145.622 169.063 146.151 169.577 146.74C170.159 147.264 170.674 147.856 171.109 148.504Z" fill="#FAFAFA"/>
<path d="M161.796 149.674C161.184 150.316 160.464 150.849 159.668 151.249C158.919 151.741 158.087 152.096 157.211 152.298C157.211 152.225 158.275 151.774 159.53 151.034C160.785 150.293 161.743 149.611 161.796 149.674Z" fill="#FAFAFA"/>
<path d="M166.083 161.342C166.003 161.342 166.322 159.946 166.482 158.219C166.641 156.492 166.594 155.07 166.673 155.07C166.869 156.108 166.897 157.171 166.758 158.219C166.705 159.289 166.477 160.343 166.083 161.342Z" fill="#FAFAFA"/>
<path d="M182.204 151.857C181.326 151.327 180.547 150.65 179.901 149.858C179.19 149.125 178.615 148.274 178.205 147.344C178.274 147.296 179.002 148.435 180.109 149.679C181.215 150.923 182.258 151.789 182.204 151.857Z" fill="#FAFAFA"/>
<path d="M188.093 156.807C188.029 156.76 188.837 155.668 189.742 154.267C190.646 152.865 191.311 151.69 191.38 151.726C191.035 152.681 190.56 153.585 189.97 154.414C189.46 155.293 188.828 156.099 188.093 156.807Z" fill="#FAFAFA"/>
<path d="M187.231 144.693C185.415 144.396 183.633 143.921 181.912 143.276C182.829 143.384 183.734 143.577 184.614 143.853C185.513 144.046 186.39 144.327 187.231 144.693Z" fill="#FAFAFA"/>
<path d="M182.939 166.013C182.844 165.186 182.844 164.352 182.939 163.525C182.945 162.693 183.042 161.865 183.226 161.053C183.322 161.88 183.322 162.714 183.226 163.541C183.221 164.373 183.124 165.201 182.939 166.013Z" fill="#FAFAFA"/>
<path d="M186.651 173.314C186.93 172.466 187.154 171.602 187.321 170.726C187.395 169.837 187.409 168.945 187.364 168.055C187.638 168.928 187.717 169.85 187.594 170.756C187.471 171.663 187.149 172.532 186.651 173.303V173.314Z" fill="#FAFAFA"/>
<path d="M177.029 171.702C176.758 169.889 177.118 168.039 178.051 166.454C178.125 166.485 177.636 167.593 177.359 169.047C177.083 170.5 177.109 171.697 177.029 171.702Z" fill="#FAFAFA"/>
<path d="M168.253 175.403C167.386 174.808 166.551 174.169 165.753 173.487C164.899 172.876 164.077 172.223 163.291 171.529C164.247 171.999 165.14 172.585 165.95 173.272C166.799 173.891 167.572 174.606 168.253 175.403Z" fill="#FAFAFA"/>
<path d="M174.194 165.105C172.159 166.379 170.024 167.494 167.812 168.438C168.813 167.758 169.866 167.154 170.96 166.632C171.997 166.042 173.078 165.531 174.194 165.105Z" fill="#FAFAFA"/>
<path d="M192.656 188.214C192.543 188.251 192.428 188.279 192.31 188.298C192.082 188.34 191.747 188.424 191.31 188.482C190.079 188.668 188.833 188.747 187.587 188.718C184.369 188.672 181.198 187.953 178.282 186.609C175.367 185.264 172.773 183.325 170.673 180.919C169.453 179.534 168.408 178.008 167.561 176.374C166.984 175.279 166.507 174.135 166.136 172.957C165.992 172.542 165.923 172.212 165.859 171.991C165.824 171.878 165.801 171.762 165.79 171.645C165.841 171.751 165.882 171.862 165.913 171.975C165.992 172.191 166.078 172.5 166.237 172.925C167.257 175.802 168.828 178.459 170.865 180.751C172.97 183.102 175.54 185.004 178.416 186.34C181.292 187.677 184.415 188.42 187.592 188.524C188.836 188.57 190.08 188.52 191.316 188.377C191.757 188.335 192.092 188.267 192.321 188.246C192.431 188.223 192.544 188.212 192.656 188.214Z" fill="#263238"/>
<path d="M176.763 185.496C176.582 184.663 176.669 183.795 177.013 183.013C177.273 182.2 177.787 181.489 178.481 180.982C178.012 181.653 177.607 182.366 177.274 183.113C177.03 183.89 176.859 184.688 176.763 185.496Z" fill="#FAFAFA"/>
<path d="M172.386 183.69C171.881 184.076 171.417 184.512 171.003 184.992C170.657 185.52 170.365 186.081 170.131 186.666C170.148 186.001 170.375 185.357 170.779 184.824C171.183 184.291 171.744 183.895 172.386 183.69Z" fill="#FAFAFA"/>
<path d="M189.22 193.578C188.349 193.51 187.508 193.235 186.768 192.779C186.027 192.322 185.409 191.696 184.965 190.954C186.122 192.187 187.59 193.092 189.22 193.578Z" fill="#FAFAFA"/>
<path d="M191.837 179.04C191.725 179.811 191.395 180.536 190.884 181.13C190.373 181.725 189.702 182.165 188.949 182.399C189.57 181.976 190.148 181.492 190.672 180.956C191.126 180.358 191.516 179.716 191.837 179.04Z" fill="#FAFAFA"/>
<path d="M199.278 189.878C199.215 189.826 199.917 188.949 200.566 187.742C201.215 186.535 201.56 185.469 201.629 185.496C201.328 187.165 200.502 188.698 199.268 189.878H199.278Z" fill="#FAFAFA"/>
<path d="M209.113 191.3C209.145 191.379 208.177 191.757 207.203 192.55C206.23 193.342 205.645 194.192 205.576 194.124C205.881 193.4 206.384 192.773 207.028 192.313C207.614 191.791 208.336 191.441 209.113 191.3Z" fill="#FAFAFA"/>
<path d="M201.613 178.877C201.528 178.903 201.081 177.371 200.086 175.67C199.092 173.97 198.028 172.773 198.097 172.721C198.389 172.924 198.646 173.172 198.858 173.455C199.977 174.746 200.83 176.24 201.368 177.854C201.502 178.181 201.585 178.526 201.613 178.877Z" fill="#FAFAFA"/>
<path d="M203.081 163.252C201.426 163.816 199.714 164.205 197.975 164.412C199.631 163.849 201.343 163.461 203.081 163.252Z" fill="#FAFAFA"/>
<path d="M198.555 158.581C197.947 158.024 197.402 157.404 196.927 156.733C196.386 156.115 195.913 155.441 195.518 154.723C196.131 155.273 196.677 155.891 197.145 156.566C197.692 157.182 198.165 157.858 198.555 158.581Z" fill="#FAFAFA"/>
<path d="M209.788 155.778C208.065 155.736 206.369 155.339 204.81 154.613C205.652 154.755 206.485 154.946 207.304 155.185C208.144 155.333 208.973 155.531 209.788 155.778Z" fill="#FAFAFA"/>
<path d="M217.767 155.636C217.995 154.894 218.267 154.165 218.58 153.453C218.805 152.707 219.077 151.976 219.394 151.264C219.351 152.05 219.171 152.822 218.862 153.547C218.625 154.302 218.254 155.009 217.767 155.636Z" fill="#FAFAFA"/>
<path d="M215.948 166.302C214.298 165.938 212.808 165.067 211.692 163.814C211.746 163.751 212.586 164.475 213.751 165.152C214.916 165.829 215.974 166.223 215.948 166.302Z" fill="#FAFAFA"/>
<path d="M221.128 165.976C221.235 164.923 221.431 163.88 221.713 162.859C221.906 161.82 222.187 160.8 222.554 159.809C222.255 161.904 221.773 163.969 221.112 165.981L221.128 165.976Z" fill="#FAFAFA"/>
<path d="M216.804 177.901C215.476 176.418 214.29 174.818 213.261 173.119C213.958 173.832 214.589 174.605 215.144 175.429C215.773 176.201 216.329 177.028 216.804 177.901Z" fill="#FAFAFA"/>
<path d="M224.187 173.34C224.112 173.377 223.628 172.427 222.862 171.366C222.096 170.306 221.357 169.535 221.416 169.477C222.085 169.939 222.654 170.528 223.091 171.209C223.599 171.838 223.972 172.563 224.187 173.34Z" fill="#FAFAFA"/>
<path d="M231.112 172.316C230.505 171.614 229.937 170.88 229.41 170.117C228.805 169.415 228.237 168.682 227.708 167.923C229.123 169.154 230.279 170.646 231.112 172.316Z" fill="#FAFAFA"/>
<path d="M229.468 176.846C229.374 176.215 229.159 175.608 228.835 175.056C228.446 174.546 227.965 174.112 227.415 173.775C227.415 173.744 227.66 173.775 227.995 173.938C228.427 174.165 228.793 174.498 229.059 174.904C229.33 175.309 229.492 175.775 229.532 176.258C229.585 176.604 229.516 176.846 229.468 176.846Z" fill="#FAFAFA"/>
<path d="M224.085 183.055C224.043 183.055 224.059 182.913 224.016 182.73C223.966 182.493 223.837 182.281 223.649 182.126C223.453 181.983 223.213 181.91 222.968 181.921C222.777 181.921 222.655 181.969 222.633 181.921C222.612 181.874 222.713 181.78 222.942 181.717C223.092 181.678 223.25 181.674 223.402 181.705C223.554 181.736 223.697 181.801 223.82 181.896C223.942 181.99 224.041 182.111 224.108 182.249C224.175 182.388 224.21 182.539 224.208 182.693C224.202 182.945 224.117 183.065 224.085 183.055Z" fill="#FAFAFA"/>
<path d="M168.748 192.98C167.754 192.602 166.851 192.025 166.097 191.284C165.342 190.543 164.752 189.655 164.365 188.676C165.45 190.447 166.954 191.931 168.748 193.001V192.98Z" fill="#FAFAFA"/>
<path d="M134.893 62.7103C134.036 54.7272 132.489 47.2165 132.068 39.3909C132.085 39.1947 132.06 38.9972 131.995 38.811C131.93 38.6249 131.826 38.4541 131.691 38.3097C131.575 38.2429 131.447 38.2 131.313 38.1837C131.18 38.1674 131.045 38.178 130.916 38.2148C130.787 38.2516 130.668 38.3139 130.564 38.3979C130.46 38.4819 130.375 38.5858 130.313 38.7033C130.081 39.1946 129.989 39.7389 130.047 40.2779C130.056 44.4396 129.337 48.5715 127.92 52.4913C127.01 55.0369 125.792 57.4775 125.111 60.086C124.43 62.6946 125.712 63.5816 126.904 66.0117" fill="#FFBE9D"/>
<path d="M126.92 66.0011C125.866 65.2035 125.049 64.1411 124.554 62.9251C124.059 61.709 123.904 60.384 124.106 59.0888C124.377 57.5142 125.17 56.0866 125.798 54.617C126.425 53.1474 126.909 51.515 126.526 49.9667C126.314 49.3921 126.172 48.7949 126.101 48.1874C126.101 47.5786 126.5 46.8963 127.117 46.8701C127.35 46.8886 127.575 46.9604 127.776 47.0797C127.976 47.199 128.146 47.3626 128.271 47.5576C129.308 48.8225 130.138 52.5175 129.616 55.2783" fill="#FFBE9D"/>
<path d="M129.617 55.2783C129.617 55.2783 129.67 54.8532 129.702 54.0869C129.735 53.006 129.644 51.9249 129.43 50.8643C129.287 50.1337 129.073 49.4184 128.792 48.7281C128.644 48.3525 128.444 47.9992 128.196 47.6784C128.085 47.5062 127.94 47.3582 127.769 47.2436C127.598 47.129 127.405 47.0501 127.202 47.0118C126.993 47.0216 126.793 47.0988 126.632 47.2315C126.472 47.3642 126.36 47.5451 126.314 47.7466C126.2 48.1941 126.229 48.6654 126.399 49.0955C126.577 49.5757 126.702 50.0738 126.771 50.5808C126.822 51.1059 126.803 51.6354 126.712 52.1554C126.34 54.2863 125.191 56.0079 124.585 57.7137C124.286 58.5106 124.126 59.3518 124.112 60.2015C124.108 60.9416 124.22 61.6779 124.441 62.3849C124.763 63.4165 125.308 64.3672 126.037 65.1719C126.569 65.7335 126.915 65.9802 126.899 66.0064C126.804 65.9588 126.714 65.9007 126.633 65.8332C126.393 65.6528 126.167 65.4545 125.957 65.2401C125.18 64.4489 124.597 63.4917 124.255 62.4426C124.013 61.7195 123.887 60.9632 123.883 60.2015C123.887 59.3245 124.044 58.4547 124.346 57.6297C124.931 55.8872 126.064 54.1656 126.415 52.1134C126.505 51.6147 126.525 51.1059 126.473 50.6018C126.409 50.1091 126.29 49.625 126.117 49.1585C125.933 48.6764 125.907 48.1496 126.042 47.6521C126.121 47.4038 126.267 47.1809 126.462 47.0066C126.56 46.9164 126.676 46.847 126.802 46.8028C126.929 46.7586 127.063 46.7404 127.196 46.7494C127.44 46.7812 127.674 46.8636 127.883 46.9911C128.092 47.1187 128.272 47.2885 128.409 47.4894C128.668 47.8368 128.876 48.2185 129.026 48.6231C129.307 49.3281 129.514 50.0597 129.643 50.8065C129.845 51.8826 129.907 52.9795 129.829 54.0711C129.811 54.3673 129.772 54.6619 129.712 54.9529C129.696 55.0653 129.664 55.1749 129.617 55.2783Z" fill="#EB996E"/>
<path d="M199.151 97.9021C199.325 98.6529 199.737 99.3294 200.327 99.8334C200.917 100.337 201.655 100.643 202.432 100.705C203.212 100.743 203.989 100.584 204.689 100.244C205.39 99.9047 205.991 99.3949 206.438 98.7628C207.321 97.4775 207.676 95.9092 207.432 94.375C207.129 92.1654 205.64 90.0397 203.48 89.3836C201.321 88.7275 198.635 89.9085 198.039 92.0499L195.55 95.4772L199.151 97.9021Z" fill="#263238"/>
<path d="M196.209 91.168C196.451 89.2687 196.303 87.3409 195.775 85.4989C195.247 83.657 194.349 81.9385 193.135 80.4454C191.922 78.9523 190.416 77.7151 188.708 76.8071C187 75.8992 185.125 75.339 183.194 75.1599C175.476 74.4356 168.609 80.1093 167.455 87.6777C166.439 94.312 165.567 101.009 165.599 103.423C165.695 110.772 170.04 113.616 171.806 114.446C172.44 114.671 173.096 114.831 173.763 114.923C173.77 114.924 173.776 114.927 173.781 114.93C173.787 114.934 173.791 114.939 173.795 114.944C173.798 114.95 173.8 114.956 173.802 114.962C173.803 114.968 173.802 114.975 173.801 114.981L172.152 123.379C171.402 128.895 174.524 133.818 180.104 134.621C185.683 135.424 190.082 131.188 190.938 125.667L196.209 91.168Z" fill="#FFBE9D"/>
<path d="M168.737 91.9659C168.859 92.1391 169.838 91.6195 171.099 91.8032C172.359 91.9869 173.184 92.7427 173.343 92.6062C173.423 92.5485 173.311 92.2598 172.955 91.9134C172.466 91.462 171.847 91.1706 171.184 91.0789C170.529 90.985 169.861 91.097 169.274 91.399C168.833 91.6352 168.673 91.8872 168.737 91.9659Z" fill="#263238"/>
<path d="M179.928 94.3593C180.05 94.5325 181.034 94.0129 182.289 94.1966C183.545 94.3803 184.38 95.1361 184.539 94.9997C184.614 94.9419 184.507 94.6532 184.146 94.3016C183.657 93.8528 183.041 93.5633 182.38 93.4723C181.725 93.3781 181.057 93.4901 180.47 93.7925C180.04 94.0287 179.869 94.2806 179.928 94.3593Z" fill="#263238"/>
<path d="M175.577 100.227C174.944 99.9279 174.276 99.7076 173.588 99.571C173.269 99.4923 172.976 99.3821 172.955 99.1616C172.976 98.8308 173.098 98.5141 173.306 98.2536L174.614 95.9757C176.439 92.7269 177.806 90.0396 177.678 89.9661C177.55 89.8926 175.955 92.4697 174.13 95.7395L172.859 98.0332C172.605 98.3895 172.481 98.8209 172.508 99.2561C172.542 99.3716 172.601 99.4784 172.681 99.5691C172.761 99.6597 172.86 99.7321 172.971 99.781C173.141 99.8527 173.32 99.9038 173.503 99.9332C174.179 100.117 174.876 100.216 175.577 100.227Z" fill="#263238"/>
<path d="M173.811 114.976C173.811 114.976 178.598 116.067 185.22 113.338C185.22 113.338 182.369 119.4 173.37 117.243L173.811 114.976Z" fill="#EB996E"/>
<path d="M175.668 103.298C175.95 103.042 176.292 102.86 176.664 102.768C177.035 102.676 177.424 102.678 177.795 102.773C178.069 102.839 178.327 102.959 178.553 103.125C178.78 103.291 178.97 103.499 179.114 103.739C179.252 103.969 179.315 104.236 179.293 104.503C179.271 104.77 179.166 105.024 178.992 105.229C178.758 105.424 178.47 105.545 178.165 105.576C177.861 105.607 177.554 105.546 177.285 105.402C176.72 105.112 176.221 104.712 175.817 104.227C175.687 104.108 175.582 103.965 175.508 103.807C175.471 103.731 175.459 103.647 175.472 103.564C175.485 103.482 175.524 103.405 175.583 103.345" fill="#EB996E"/>
<path d="M179.151 101.618C178.949 101.576 178.747 102.925 177.439 103.717C176.13 104.51 174.694 104.148 174.657 104.337C174.625 104.421 174.944 104.646 175.556 104.751C176.354 104.876 177.171 104.72 177.864 104.311C178.53 103.916 179.014 103.282 179.215 102.542C179.348 101.98 179.247 101.623 179.151 101.618Z" fill="#263238"/>
<path d="M180.795 90.3178C180.87 90.6747 182.151 90.6957 183.598 91.0841C185.045 91.4725 186.188 92.0394 186.428 91.7664C186.534 91.6352 186.375 91.2888 185.944 90.8899C185.36 90.3969 184.67 90.0414 183.926 89.8504C183.183 89.6594 182.405 89.638 181.651 89.7877C181.066 89.9242 180.768 90.1499 180.795 90.3178Z" fill="#263238"/>
<path d="M170.008 88.1396C170.184 88.4545 171.099 88.2865 172.136 88.423C173.173 88.5595 174.035 88.8849 174.263 88.6224C174.375 88.4912 174.263 88.1868 173.928 87.8666C173.458 87.4709 172.879 87.2226 172.265 87.1534C171.651 87.0842 171.03 87.1973 170.482 87.4783C170.093 87.7144 169.929 87.9874 170.008 88.1396Z" fill="#263238"/>
<path d="M165.998 86.035C167.535 88.3497 172.418 86.9168 175.364 85.3265C176.904 86.2954 178.765 86.6334 180.553 86.2688C182.341 85.9042 183.914 84.8656 184.938 83.374C186.624 85.4734 190.055 84.7911 191.321 82.403C192.587 80.0149 191.853 76.7241 190.151 74.6351C188.449 72.5462 185.928 71.486 183.449 71.0398C177.572 69.9901 171.173 72.2155 167.657 77.4589C166.035 79.8785 165.062 83.1378 166.024 86.035" fill="#263238"/>
<path d="M182.242 71.8639C182.242 71.9689 180.854 71.7065 178.673 72.0634C175.84 72.5283 173.244 73.9072 171.29 75.9841C169.451 78.1586 168.236 80.779 167.769 83.5735C167.607 84.7385 167.545 85.9148 167.583 87.0901C167.47 86.7867 167.403 86.4682 167.386 86.1453C167.293 85.272 167.307 84.3909 167.429 83.521C167.814 80.6182 169.036 77.8856 170.95 75.6481C172.972 73.4873 175.697 72.0928 178.652 71.7065C179.533 71.5894 180.426 71.5753 181.311 71.6645C181.63 71.6836 181.944 71.7509 182.242 71.8639Z" fill="#455A64"/>
<path d="M174.295 82.655C174.208 82.3892 174.168 82.1103 174.178 81.831C174.15 81.0696 174.231 80.3081 174.418 79.5688C174.702 78.329 175.241 77.1597 176 76.133C176.76 75.1063 177.725 74.2438 178.835 73.5988C179.945 72.9537 181.177 72.5397 182.455 72.3821C183.734 72.2246 185.031 72.3269 186.268 72.6827C187.015 72.8847 187.73 73.1848 188.396 73.575C188.652 73.7066 188.881 73.8847 189.071 74.0998C188.143 73.6666 187.179 73.3153 186.188 73.0501C183.779 72.4446 181.225 72.8032 179.083 74.0479C176.941 75.2926 175.385 77.3224 174.753 79.6948C174.231 81.4478 174.396 82.655 174.295 82.655Z" fill="#455A64"/>
<path d="M188.396 80.1356C187.819 82.19 187.487 84.3037 187.406 86.4339C187.327 88.576 188.002 90.6792 189.316 92.3858C191.369 94.8264 194.794 95.5717 197.954 96.1648C199.644 92.0043 200.153 87.468 199.427 83.0434C199.065 80.8967 198.363 78.708 196.832 77.144C195.693 76.0353 194.213 75.3308 192.625 75.1409C191.037 74.9509 189.43 75.2862 188.055 76.0942" fill="#263238"/>
<path d="M190.151 90.2968C189.321 92.0708 189.38 94.123 189.667 96.0703C189.954 98.0175 190.454 99.9227 190.433 101.875C190.412 103.828 189.784 105.901 188.231 107.124C187.76 107.434 187.318 107.785 186.912 108.173C186.711 108.371 186.577 108.624 186.527 108.899C186.478 109.174 186.515 109.458 186.635 109.711C186.933 110.184 187.832 110.173 187.96 109.633L187.88 109.769C187.801 109.9 187.759 110.049 187.758 110.2C187.756 110.352 187.795 110.502 187.87 110.634C187.946 110.767 188.055 110.877 188.187 110.955C188.32 111.032 188.47 111.074 188.624 111.076C189.168 111.05 189.7 110.915 190.189 110.679C190.677 110.442 191.112 110.109 191.465 109.701C192.481 108.541 192.885 106.982 193.151 105.502C193.97 100.867 193.81 96.0545 195.108 91.5355" fill="#263238"/>
<path d="M172.114 120.733C172.481 122.312 173.187 123.795 174.185 125.08C175.184 126.366 176.45 127.425 177.9 128.184C179.35 128.944 180.948 129.387 182.586 129.484C184.225 129.58 185.865 129.327 187.396 128.743C190.151 127.693 192.374 125.646 194.518 123.646C194.901 125.923 194.796 128.253 194.208 130.487C193.62 132.721 192.562 134.807 191.104 136.612C189.647 138.416 187.82 139.898 185.745 140.961C183.669 142.024 181.39 142.645 179.056 142.783C175.529 142.993 171.742 141.932 169.524 139.219C167.976 137.329 167.354 134.826 167.397 132.396C167.504 129.962 167.974 127.557 168.79 125.258C169.418 123.274 170.412 121.059 172.444 120.508" fill="#47D163"/>
<path d="M197.347 96.3013C199.475 97.4298 200.613 99.7916 201.023 102.122C201.432 104.452 201.225 106.846 201.326 109.202C201.427 111.559 201.884 114.036 203.4 115.868C204.996 117.821 207.522 118.744 209.783 119.936C214.74 122.56 218.825 127.037 220.314 132.401C221.804 137.765 220.453 143.948 216.384 147.806C212.66 151.301 207.288 152.529 202.161 152.529C198.507 152.529 194.491 151.753 192.209 148.934C189.927 146.116 190.082 142.163 190.88 138.689C191.677 135.214 193.14 131.839 193.199 128.276C192.652 130.482 191.701 132.57 190.39 134.438C190.013 134.962 189.369 135.54 188.794 135.235C188.22 134.931 188.396 133.949 188.693 133.293C193.097 123.62 191.566 104.122 194.177 93.4409" fill="#263238"/>
<path d="M193.72 95.2042C193.853 95.1622 198.996 94.2017 198.331 99.2193C197.667 104.237 192.704 102.547 192.715 102.405C192.725 102.264 193.72 95.2042 193.72 95.2042Z" fill="#FFBE9D"/>
<path d="M194.518 100.705C194.518 100.705 194.598 100.773 194.741 100.862C194.94 100.978 195.176 101.014 195.401 100.962C195.965 100.836 196.528 100.049 196.672 99.1513C196.739 98.7217 196.71 98.2828 196.587 97.8654C196.56 97.7024 196.493 97.5482 196.392 97.4165C196.291 97.2848 196.159 97.1794 196.007 97.1096C195.911 97.0763 195.807 97.0752 195.711 97.1065C195.615 97.1379 195.532 97.1999 195.475 97.2828C195.39 97.4141 195.406 97.519 195.379 97.5243C195.353 97.5295 195.284 97.4246 195.348 97.2251C195.393 97.104 195.479 97.002 195.592 96.9364C195.671 96.8895 195.759 96.8593 195.851 96.8475C195.942 96.8358 196.035 96.8428 196.124 96.8682C196.328 96.9361 196.51 97.0542 196.654 97.2112C196.799 97.3683 196.9 97.5592 196.948 97.7657C197.106 98.2284 197.148 98.7217 197.071 99.2038C196.906 100.212 196.257 101.088 195.475 101.204C195.334 101.226 195.189 101.216 195.051 101.175C194.914 101.135 194.788 101.063 194.683 100.967C194.512 100.826 194.502 100.71 194.518 100.705Z" fill="#EB996E"/>
<path d="M166.86 131.545C167.109 131.01 167.397 130.492 167.721 129.997C168.463 128.786 169.077 127.504 169.556 126.171C170.021 124.836 170.178 123.416 170.014 122.014C169.91 121.439 169.775 120.869 169.609 120.308C169.71 120.436 169.787 120.58 169.838 120.733C170.012 121.136 170.137 121.557 170.211 121.988C170.434 123.42 170.301 124.885 169.822 126.255C169.34 127.608 168.691 128.898 167.891 130.097C167.594 130.559 167.36 130.926 167.163 131.173C166.966 131.419 166.876 131.556 166.86 131.545Z" fill="#263238"/>
<path d="M169.45 125.756C169.375 125.756 169.232 125.326 168.774 125.027C168.317 124.728 167.859 124.728 167.849 124.649C167.838 124.57 167.96 124.56 168.168 124.554C168.443 124.557 168.71 124.643 168.934 124.801C169.159 124.956 169.333 125.174 169.434 125.426C169.503 125.62 169.487 125.746 169.45 125.756Z" fill="#FAFAFA"/>
<path d="M172.737 125.746C172.338 125.304 171.9 124.898 171.428 124.533C170.905 124.244 170.352 124.008 169.78 123.83C170.096 123.787 170.419 123.807 170.728 123.889C171.036 123.971 171.325 124.113 171.577 124.308C172.139 124.619 172.556 125.135 172.737 125.746Z" fill="#FAFAFA"/>
<path d="M174.801 136.395C174.813 135.672 174.917 134.952 175.109 134.254C175.212 133.533 175.407 132.827 175.689 132.154C175.677 132.88 175.573 133.601 175.381 134.301C175.277 135.02 175.083 135.724 174.801 136.395Z" fill="#FAFAFA"/>
<path d="M183.098 138.001C182.965 136.494 183.013 134.978 183.242 133.482C183.382 134.989 183.334 136.506 183.098 138.001Z" fill="#FAFAFA"/>
<path d="M13.6859 161.326L5.48413 196.57L22.8291 196.623L30.8393 165.63L13.6859 161.326Z" fill="#B78876"/>
<path d="M98.8627 118.025C97.2139 115.847 95.3204 113.753 94.4534 111.171C94.0332 109.921 93.8683 108.599 93.4215 107.36C92.9747 106.121 92.1609 104.914 90.9163 104.447C89.6717 103.98 88.7249 104.447 87.9164 105.329L81.9646 122.507L85.3953 135.702C88.8207 134.941 93.1077 134.039 96.3097 132.616C99.5116 131.194 101.629 128.916 101.852 125.457C102.006 122.744 100.512 120.209 98.8627 118.025Z" fill="#263238"/>
<path d="M44.7006 114.992C44.7006 114.992 24.01 123.877 21.4251 127.887C18.8401 131.897 10.3298 160.486 10.3298 160.486L32.1373 166.785L31.765 196.549H85.2199L84.7785 144.063L78.0767 115.06C78.0767 115.06 66.274 114.309 65.1783 113.779C64.0826 113.249 44.7006 114.992 44.7006 114.992Z" fill="#47D163"/>
<path d="M118.229 42.2409C118.399 41.039 117.543 39.7163 118.16 38.6614C118.568 38.1177 119.151 37.7272 119.814 37.5539C120.135 37.4091 120.482 37.3288 120.835 37.3177C121.011 37.3149 121.184 37.3632 121.333 37.4565C121.481 37.5498 121.599 37.684 121.67 37.8426C121.709 38.0433 121.691 38.2505 121.619 38.442C121.546 38.6334 121.423 38.8018 121.261 38.929C120.937 39.1804 120.664 39.4903 120.458 39.8423C120.313 40.7062 120.381 41.5917 120.654 42.4246C121.363 44.2573 121.951 46.1332 122.415 48.0406" fill="#B78876"/>
<path d="M113.862 42.6503C113.937 40.829 115.458 33.6542 115.511 31.833C116.761 32.2109 117.484 33.523 117.719 34.7932C117.953 36.0633 117.83 37.3702 118.054 38.6404C118.351 40.3462 119.25 41.884 120.155 43.3641C121.059 44.8442 122.006 46.3505 122.415 48.0301C122.825 49.7096 124.367 54.0764 123.165 55.3361" fill="#B78876"/>
<path d="M113.516 54.9321L106.118 89.6147C105.857 91.1893 78.0764 115.097 78.0764 115.097L83.5602 136.715L119.729 101.797C122.34 99.0417 123.762 95.3914 123.691 91.6197L123.074 59.0785L113.516 54.9321Z" fill="#B78876"/>
<path d="M112.251 42.8708L113.517 54.9425L123.091 59.0994C123.091 59.0994 123.208 58.2439 123.622 54.0607C124.075 49.4525 119.054 47.4738 116.814 44.0884C115.857 42.6346 116.107 39.9578 115.368 36.6407C115.282 36.2576 114.751 33.9377 114.463 32.6938C114.312 32.0025 113.902 31.3932 113.314 30.988C112.878 30.7046 112.389 30.5628 112.033 30.988C111.676 31.4131 112.251 42.8708 112.251 42.8708Z" fill="#B78876"/>
<path d="M118.229 56.937C119.293 56.029 119.548 54.4019 119.149 53.053C118.661 51.7248 117.89 50.515 116.888 49.505C115.888 48.4975 115.048 47.3475 114.394 46.0934C113.99 45.1906 113.798 44.1934 113.33 43.3064C112.862 42.4194 112.07 41.6059 111.07 41.5691C111.873 46.5605 111.851 49.442 113.495 54.911" fill="#B78876"/>
<path d="M112.064 47.269C112.064 47.269 112.027 47.1325 111.969 46.8701C111.91 46.6077 111.809 46.172 111.713 45.7259C111.485 44.6762 111.181 43.3378 110.868 41.8L110.836 41.653H110.99C111.317 41.6412 111.644 41.6936 111.951 41.8071C112.257 41.9206 112.538 42.093 112.777 42.3143C113.507 43.0001 114.027 43.8751 114.277 44.8389C114.489 45.588 114.769 46.3169 115.112 47.0171C115.372 47.477 115.687 47.905 116.048 48.2925C116.18 48.4413 116.288 48.6095 116.367 48.7911C116.222 48.6579 116.087 48.5141 115.963 48.3607C115.567 47.9916 115.224 47.5714 114.942 47.1115C114.566 46.4092 114.26 45.6727 114.027 44.9124C113.78 43.9968 113.283 43.1655 112.591 42.5085C112.16 42.1091 111.587 41.8924 110.995 41.905L111.123 41.7475C111.766 44.9071 112.181 47.2743 112.064 47.269Z" fill="#7C5142"/>
<path d="M116.368 44.1987C115.982 42.5749 115.687 40.9314 115.485 39.2755C115.189 37.6327 114.985 35.9752 114.873 34.3103C115.262 35.9353 115.557 37.5808 115.756 39.2388C116.051 40.8798 116.255 42.5356 116.368 44.1987Z" fill="#7C5142"/>
<path d="M119.415 44.6081C119.415 44.6081 119.452 44.6606 119.484 44.7918H119.404C119.009 43.6688 118.686 42.5224 118.436 41.3592C118.208 40.3463 118.043 39.4225 117.942 38.7349C117.86 38.3753 117.827 38.0062 117.846 37.638C117.926 37.638 118.25 39.2703 118.708 41.312C119.075 42.9443 119.415 44.3194 119.484 44.7813H119.404C119.399 44.6711 119.399 44.6081 119.415 44.6081Z" fill="#7C5142"/>
<path d="M121.303 51.258C121.26 51.258 121.069 50.985 120.686 50.5809C119.674 49.5201 118.301 48.8659 116.83 48.7439C116.522 48.7466 116.215 48.7273 115.91 48.6862C116.204 48.5735 116.52 48.5268 116.835 48.5497C117.602 48.5592 118.357 48.7348 119.047 49.064C119.737 49.3932 120.346 49.868 120.83 50.4549C121.047 50.6835 121.209 50.9582 121.303 51.258Z" fill="#7C5142"/>
<path d="M114.383 55.8873C114.12 55.4357 113.908 54.957 113.75 54.4597C113.313 53.282 112.947 52.0797 112.655 50.8592C112.357 49.6488 112.133 48.422 111.984 47.1852C111.897 46.665 111.865 46.1373 111.889 45.6106C112.022 46.1121 112.118 46.6226 112.176 47.138C112.336 48.0775 112.58 49.3791 112.921 50.812C113.261 52.2448 113.644 53.4992 113.937 54.4125C114.12 54.8933 114.269 55.3861 114.383 55.8873Z" fill="#7C5142"/>
<path d="M71.582 115.721C72.0559 115.005 72.7911 114.496 73.6349 114.301C74.4787 114.106 75.3664 114.238 76.1137 114.671C80.0178 111.522 84.0123 108.468 87.9164 105.334C86.6398 111.633 85.7888 120.413 88.6451 126.176C88.6451 126.176 92.2459 132.779 97.9797 131.771L92.8629 136.715L84.7942 144.1" fill="#47D163"/>
<path d="M70.3164 118.66C70.3224 117.815 70.5835 116.991 71.0664 116.293C71.4741 115.548 72.0958 114.938 72.8535 114.54C71.6517 115.667 70.776 117.089 70.3164 118.66Z" fill="#263238"/>
<path d="M74.5341 122.544C74.3127 122.194 74.1611 121.806 74.0873 121.4C73.8577 120.427 73.8303 119.418 74.0068 118.433C74.1832 117.449 74.5598 116.511 75.1139 115.674C75.3251 115.316 75.6031 115.001 75.933 114.745C75.9702 114.776 75.6617 115.133 75.2841 115.795C74.7928 116.631 74.4527 117.546 74.2788 118.498C74.1123 119.451 74.1123 120.426 74.2788 121.379C74.4118 122.061 74.5767 122.502 74.5341 122.544Z" fill="#263238"/>
<path d="M94.076 136.023C93.6834 136.264 93.2542 136.441 92.8048 136.548C91.576 136.84 90.2903 136.802 89.0815 136.437C87.2913 135.876 85.7248 134.775 84.603 133.288C83.2556 131.465 82.3462 129.363 81.9436 127.142C81.1924 123.142 80.9778 119.062 81.3053 115.007C81.4276 113.433 81.6032 112.205 81.7521 111.333C81.8212 110.903 81.8851 110.572 81.9329 110.347C81.9495 110.23 81.978 110.116 82.018 110.005C82.0218 110.124 82.0111 110.242 81.9861 110.357L81.8585 111.349C81.7468 112.21 81.5979 113.449 81.5021 115.023C81.23 119.061 81.4694 123.116 82.2148 127.095C82.6131 129.259 83.4943 131.308 84.7945 133.094C85.87 134.565 87.3862 135.667 89.1294 136.243C90.3065 136.617 91.5618 136.684 92.7729 136.437C93.2161 136.328 93.6515 136.19 94.076 136.023Z" fill="#FAFAFA"/>
<path d="M32.2381 175.644C32.1637 175.644 32.0999 168.181 32.0999 158.98C32.0999 149.779 32.1637 142.316 32.2381 142.316C32.3126 142.316 32.3764 149.774 32.3764 158.98C32.3764 168.186 32.3179 175.644 32.2381 175.644Z" fill="#263238"/>
<path d="M31.8128 136.558C31.7543 136.558 31.7702 135.813 31.5096 134.653C31.3543 133.975 31.1316 133.314 30.8447 132.679C30.4873 131.907 30.0468 131.175 29.531 130.496C29.0007 129.826 28.3999 129.214 27.7385 128.669C27.1939 128.23 26.608 127.843 25.9886 127.515C24.9248 126.964 24.1855 126.78 24.2014 126.727C24.383 126.737 24.5622 126.772 24.7333 126.832C24.9349 126.882 25.1323 126.947 25.3237 127.027C25.5846 127.115 25.8388 127.222 26.0843 127.347C26.7233 127.655 27.3261 128.032 27.8821 128.47C28.5649 129.02 29.1839 129.643 29.7278 130.328C30.2586 131.025 30.7049 131.78 31.0575 132.58C31.3472 133.233 31.563 133.916 31.7011 134.616C31.7556 134.883 31.793 135.153 31.8128 135.424C31.8376 135.628 31.8483 135.833 31.8447 136.038C31.8543 136.212 31.8436 136.387 31.8128 136.558Z" fill="#263238"/>
<path d="M68.2422 114.761C68.2863 114.906 68.3166 115.056 68.3326 115.207C68.4043 115.632 68.4505 116.062 68.4709 116.493C68.5344 118.085 68.3093 119.676 67.806 121.19C67.0565 123.448 65.7282 125.477 63.9498 127.079C61.7193 129.003 58.9182 130.163 55.9647 130.386C53.0111 130.609 50.0636 129.884 47.5623 128.318C45.5627 126.997 43.943 125.189 42.8604 123.069C42.1352 121.646 41.6723 120.107 41.4934 118.524C41.4502 118.095 41.4307 117.664 41.4349 117.233C41.4221 117.083 41.4221 116.932 41.4349 116.781C41.4599 116.929 41.4723 117.078 41.4721 117.228C41.4858 117.656 41.5213 118.083 41.5785 118.508C41.7964 120.068 42.282 121.581 43.0146 122.98C44.0999 125.057 45.7057 126.826 47.6793 128.118C50.1354 129.642 53.0219 130.349 55.915 130.134C58.8081 129.92 61.5552 128.796 63.753 126.927C65.5119 125.358 66.8341 123.37 67.5933 121.154C68.103 119.661 68.3547 118.094 68.3379 116.519C68.3379 115.963 68.29 115.532 68.2475 115.238C68.2049 114.944 68.2368 114.766 68.2422 114.761Z" fill="#263238"/>
<path d="M31.7811 160.297C31.7811 160.371 27.3611 159.001 21.9677 157.243C16.5743 155.484 12.2182 153.999 12.2448 153.926C12.2713 153.852 16.6594 155.222 22.0581 156.98C27.4568 158.739 31.8023 160.224 31.7811 160.297Z" fill="#FAFAFA"/>
<path d="M84.2624 153.012C84.2624 153.091 72.5343 153.201 58.0669 153.259C43.5995 153.317 31.866 153.306 31.866 153.259C31.866 153.212 43.5941 153.07 58.0669 153.012C72.5396 152.955 84.2624 152.939 84.2624 153.012Z" fill="#FAFAFA"/>
<path d="M84.5284 157.584C84.5284 157.657 72.7364 157.72 58.1998 157.72C43.6633 157.72 31.866 157.657 31.866 157.584C31.866 157.51 43.6526 157.447 58.1998 157.447C72.747 157.447 84.5284 157.505 84.5284 157.584Z" fill="#FAFAFA"/>
<path d="M77.3053 163.137C77.2693 163.283 77.2194 163.425 77.1564 163.562C77.0393 163.856 76.8798 164.255 76.683 164.759L76.3319 165.619C76.1936 165.934 76.0287 166.265 75.8585 166.627C75.5075 167.341 75.1458 168.17 74.6405 169.041L73.8746 170.417C73.6087 170.894 73.2895 171.367 72.981 171.87C72.3747 172.883 71.63 173.902 70.8535 174.988C69.1263 177.297 67.2238 179.472 65.1622 181.496C63.0714 183.492 60.8291 185.327 58.4551 186.986C57.3381 187.721 56.2903 188.44 55.2638 189.018C54.7319 189.312 54.2638 189.616 53.7745 189.873L52.349 190.597C51.4608 191.075 50.6097 191.421 49.881 191.752C49.514 191.91 49.1736 192.067 48.8545 192.198L47.9716 192.529L46.7535 192.975C46.613 193.034 46.4669 193.08 46.3174 193.111C46.4501 193.037 46.5889 192.974 46.7323 192.923L47.9343 192.429L48.8013 192.078C49.1204 191.941 49.4555 191.778 49.8172 191.61C50.5406 191.269 51.381 190.912 52.2586 190.424L53.6575 189.689C54.1415 189.427 54.6255 189.117 55.1361 188.823C56.1627 188.241 57.1999 187.517 58.3275 186.782C63.0652 183.483 67.2321 179.451 70.6673 174.841C71.4385 173.765 72.1885 172.742 72.7949 171.75C73.1087 171.251 73.4331 170.784 73.7044 170.312L74.4756 168.947C75.0075 168.092 75.3639 167.267 75.7256 166.559C75.9011 166.202 76.0766 165.877 76.2202 165.567C76.3638 165.257 76.4809 164.974 76.5926 164.717C76.8106 164.223 76.9862 163.835 77.1244 163.541C77.1777 163.403 77.2381 163.268 77.3053 163.137Z" fill="#263238"/>
<g opacity="0.3">
<path opacity="0.3" d="M75.1461 167.682C71.5718 171.975 67.8273 175.088 62.5776 177.093C60.0617 178.048 57.4289 178.704 54.9928 179.843C52.5568 180.982 50.259 182.698 49.142 185.128C48.2963 187.007 48.7059 189.852 50.7377 190.261C51.527 190.357 52.3278 190.235 53.0514 189.91C63.4499 186.189 70.2847 176.788 75.1142 167.682" fill="black"/>
</g>
<path d="M37.9509 74.2993C35.7063 76.0366 35.5574 79.2855 35.6691 82.0987C35.7808 84.9119 35.8127 88.1136 33.733 90.0556C32.0309 91.6564 29.0524 92.2495 28.563 94.5221C28.4392 95.0576 28.4887 95.6179 28.7046 96.1241C28.9205 96.6303 29.2919 97.0569 29.7665 97.3438C30.2411 97.6307 30.795 97.7635 31.3501 97.7233C31.9052 97.6832 32.4335 97.4722 32.8607 97.1201C32.1373 98.8994 32.4671 101.177 34.0043 102.369C35.5414 103.56 38.2275 102.993 38.7913 101.167C38.7041 101.469 38.6801 101.785 38.7206 102.097C38.7611 102.409 38.8654 102.709 39.027 102.98C39.1887 103.25 39.4043 103.486 39.661 103.672C39.9176 103.858 40.2098 103.99 40.5199 104.061C40.83 104.133 41.1515 104.141 41.465 104.086C41.7784 104.031 42.0772 103.913 42.3433 103.741C42.6094 103.568 42.8372 103.344 43.0129 103.082C43.1886 102.82 43.3086 102.526 43.3655 102.217" fill="#263238"/>
<path d="M70.5235 94.6691C70.6304 95.0378 70.8131 95.3808 71.0601 95.6769C71.3071 95.9729 71.6131 96.2157 71.9592 96.3902C72.3053 96.5647 72.684 96.667 73.0719 96.691C73.4597 96.7149 73.8484 96.6599 74.2139 96.5294C74.5793 96.3989 74.9136 96.1956 75.1961 95.9322C75.4785 95.6688 75.7031 95.3509 75.8558 94.9983C76.0085 94.6456 76.0861 94.2658 76.0838 93.8823C76.0815 93.4988 75.9993 93.1199 75.8424 92.7691C75.4009 91.6774 74.2467 90.8534 74.2201 89.6829C74.1509 88.2658 75.6615 87.3263 76.9859 86.7752C78.3103 86.2241 79.8634 85.4893 80.0709 84.088C80.2783 82.6866 79.0922 81.6106 78.1029 80.6501C77.1136 79.6896 76.1615 78.2305 76.8583 77.0444C77.2146 76.4408 77.922 76.1154 78.3795 75.5853C79.4113 74.4096 78.9965 72.4361 77.805 71.4336C76.6136 70.4311 74.9062 70.2002 73.3478 70.3839C71.7894 70.5676 70.3001 71.145 68.7735 71.5176C66.2422 72.1205 63.6116 72.1985 61.0481 71.7468C58.4847 71.2951 56.0441 70.3235 53.8806 68.8933" fill="#263238"/>
<path d="M39.4774 85.1219L44.9505 116.424C45.1773 117.735 45.6646 118.987 46.3844 120.111C47.1041 121.234 48.0421 122.206 49.1442 122.97C50.2462 123.734 51.4907 124.275 52.8057 124.563C54.1208 124.85 55.4805 124.877 56.8064 124.644C59.3186 124.2 61.5713 122.844 63.1208 120.842C64.6704 118.841 65.4044 116.34 65.1783 113.832C64.9283 111.055 64.7156 108.756 64.7156 108.756C64.7156 108.756 72.662 106.741 71.9759 98.7839C71.6408 94.9315 70.3057 87.0534 69.0079 79.9363C68.335 76.2527 66.2814 72.954 63.2557 70.6967C60.23 68.4395 56.4539 67.389 52.6789 67.7543L51.9023 67.8278C49.9241 68.1338 48.028 68.8276 46.3259 69.8684C44.6238 70.9093 43.1502 72.276 41.9921 73.8879C40.834 75.4999 40.0148 77.3244 39.5829 79.2539C39.151 81.1833 39.1151 83.1785 39.4774 85.1219Z" fill="#B78876"/>
<path d="M67.3114 85.0747C67.346 85.3709 67.261 85.6685 67.0749 85.9033C66.8887 86.1381 66.6164 86.2911 66.3167 86.3291C66.1715 86.3554 66.0225 86.3525 65.8784 86.3208C65.7344 86.289 65.5982 86.229 65.4782 86.1443C65.3581 86.0596 65.2565 85.9519 65.1794 85.8277C65.1024 85.7034 65.0514 85.5652 65.0296 85.4211C64.9949 85.125 65.0799 84.8273 65.266 84.5925C65.4522 84.3578 65.7246 84.2048 66.0242 84.1667C66.1694 84.1405 66.3184 84.1433 66.4625 84.1751C66.6066 84.2068 66.7427 84.2669 66.8628 84.3516C66.9828 84.4363 67.0844 84.544 67.1615 84.6682C67.2386 84.7924 67.2895 84.9307 67.3114 85.0747Z" fill="#263238"/>
<path d="M67.662 83.9881C67.5344 84.1455 66.5983 83.5944 65.359 83.7151C64.1197 83.8359 63.2686 84.5392 63.1197 84.4027C63.0506 84.3397 63.1676 84.0615 63.5346 83.7361C64.0355 83.3166 64.6564 83.0616 65.3111 83.0066C65.9553 82.9432 66.6033 83.0829 67.1621 83.4055C67.5716 83.6574 67.7259 83.9146 67.662 83.9881Z" fill="#263238"/>
<path d="M55.184 86.4759C55.2143 86.7715 55.1269 87.0671 54.9403 87.3003C54.7536 87.5334 54.4825 87.6857 54.1841 87.7251C54.0389 87.7506 53.8901 87.7472 53.7463 87.7151C53.6026 87.6831 53.4667 87.623 53.3468 87.5384C53.2269 87.4538 53.1253 87.3464 53.0481 87.2226C52.9708 87.0987 52.9194 86.9608 52.8969 86.8171C52.865 86.5215 52.951 86.2252 53.1367 85.9911C53.3223 85.7569 53.5931 85.6033 53.8915 85.5627C54.0373 85.5372 54.1868 85.5408 54.3313 85.5731C54.4757 85.6054 54.6121 85.6659 54.7325 85.751C54.8529 85.836 54.9549 85.944 55.0324 86.0685C55.1099 86.193 55.1615 86.3315 55.184 86.4759Z" fill="#263238"/>
<path d="M55.4977 85.3843C55.3701 85.547 54.434 84.9959 53.1947 85.1166C51.9553 85.2374 51.1096 85.9407 50.9554 85.8042C50.8862 85.7412 51.0033 85.4631 51.3703 85.1376C51.8723 84.7199 52.4927 84.4651 53.1468 84.4081C53.7911 84.3421 54.4399 84.482 54.9978 84.807C55.4073 85.0589 55.5403 85.3161 55.4977 85.3843Z" fill="#263238"/>
<path d="M60.8964 94.0288C60.8964 93.9553 61.641 93.7507 62.8697 93.4725C63.1835 93.4095 63.4814 93.3203 63.5133 93.0998C63.5043 92.776 63.3989 92.4621 63.2101 92.1971L62.0346 89.9087C60.4017 86.6441 59.189 83.9516 59.322 83.8886C59.455 83.8256 60.8857 86.4184 62.5133 89.662L63.6462 91.9714C63.882 92.3282 63.9819 92.7559 63.9281 93.1786C63.8962 93.2964 63.8368 93.4053 63.7546 93.4964C63.6724 93.5875 63.5697 93.6584 63.4548 93.7034C63.283 93.7654 63.1045 93.8077 62.9229 93.8294C62.2581 93.9768 61.5776 94.0438 60.8964 94.0288Z" fill="#263238"/>
<path d="M55.3435 80.5556C55.2531 80.902 54.0032 80.86 52.5671 81.1749C51.131 81.4898 49.9874 81.9937 49.7693 81.6998C49.6683 81.5685 49.8385 81.2326 50.3012 80.8652C50.8919 80.4048 51.5844 80.0883 52.3224 79.9415C53.0584 79.7815 53.8226 79.7977 54.551 79.9887C55.0882 80.1619 55.3808 80.3981 55.3435 80.5556Z" fill="#263238"/>
<path d="M66.8593 80.4874C66.6678 80.7865 65.7955 80.5819 64.7317 80.6658C63.6679 80.7498 62.8542 81.0385 62.6042 80.7655C62.5031 80.6343 62.6042 80.3404 62.9659 80.0412C63.4423 79.6696 64.0241 79.4531 64.6307 79.4219C65.235 79.3732 65.8396 79.5127 66.3593 79.8208C66.7901 80.0727 66.9391 80.3457 66.8593 80.4874Z" fill="#263238"/>
<path d="M47.3707 75.5485L47.3281 75.5904C46.1428 76.7129 45.4417 78.2432 45.3708 79.8628C45.3708 79.9205 45.3708 79.9783 45.3708 80.0255C45.2803 82.3296 45.5622 84.6338 45.4505 86.9326C45.3388 89.2315 44.7697 91.6144 43.2219 93.3412C42.589 94.0497 41.3975 94.6113 40.7486 93.9132C40.5228 93.6192 40.3863 93.2679 40.355 92.9003C39.387 87.4627 37.3871 82.7443 36.8339 77.0076C36.7546 76.2404 36.8623 75.4657 37.1482 74.748C37.4342 74.0304 37.8899 73.3906 38.4775 72.8822C39.6051 71.9007 41.0039 70.8667 42.4188 71.3706C43.8336 71.8745 45.8282 74.1996 46.9824 75.1548" fill="#263238"/>
<path d="M42.5517 88.46C42.4081 88.418 36.8499 87.3788 37.5626 92.8006C38.2753 98.2224 43.6474 96.4011 43.6368 96.2437C43.6262 96.0862 42.5517 88.46 42.5517 88.46Z" fill="#B78876"/>
<path d="M41.7113 94.4067C41.7113 94.4067 41.6262 94.4855 41.472 94.5747C41.3664 94.6384 41.249 94.6809 41.1267 94.6998C41.0044 94.7188 40.8796 94.7137 40.7592 94.6849C40.1529 94.5484 39.5412 93.6982 39.387 92.7272C39.3115 92.2627 39.3424 91.7875 39.4774 91.3363C39.5077 91.1601 39.5805 90.9938 39.6898 90.8512C39.799 90.7087 39.9415 90.5942 40.105 90.5175C40.2112 90.4765 40.3284 90.4728 40.437 90.5073C40.5456 90.5417 40.6387 90.6121 40.7007 90.7065C40.7965 90.8482 40.7752 90.9637 40.8071 90.9689C40.839 90.9742 40.9135 90.8639 40.839 90.6435C40.7909 90.5124 40.699 90.4013 40.5784 90.3286C40.4162 90.2404 40.2262 90.2161 40.0465 90.2604C39.8262 90.3338 39.6284 90.4615 39.4721 90.6315C39.3157 90.8014 39.2059 91.0078 39.1529 91.2313C38.9801 91.7378 38.9345 92.2782 39.02 92.8059C39.2008 93.8924 39.9029 94.8424 40.7273 94.9683C40.8805 94.9928 41.0373 94.9824 41.1858 94.9378C41.3342 94.8933 41.4703 94.8157 41.5837 94.7112C41.7113 94.538 41.7113 94.412 41.7113 94.4067Z" fill="#7C5142"/>
<path d="M42.3071 72.2313C40.7114 70.1843 44.1474 66.6993 46.7856 65.5918C49.4238 64.4844 53.1417 65.4449 55.9394 66.0694C57.7 66.4683 59.4818 67.0824 61.2583 66.8357C62.4495 66.6009 63.5986 66.1922 64.6678 65.6233C65.7358 65.0449 66.9122 64.6877 68.125 64.5736C68.7325 64.528 69.341 64.6471 69.8848 64.9182C70.4285 65.1892 70.8868 65.6019 71.21 66.1114C71.7738 67.1611 71.2685 68.7357 70.0877 69.0244C70.4509 68.7778 70.8693 68.6219 71.307 68.5701C71.7447 68.5183 72.1886 68.5721 72.6006 68.7269C73.0125 68.8817 73.3803 69.1329 73.6722 69.4589C73.9641 69.7848 74.1714 70.1759 74.2764 70.5984C74.3813 71.0209 74.3808 71.4622 74.2748 71.8844C74.1688 72.3067 73.9605 72.6972 73.6678 73.0225C73.3751 73.3478 73.0067 73.5981 72.5944 73.7519C72.182 73.9057 71.738 73.9584 71.3004 73.9056C72.0291 73.2443 73.3269 74.0998 73.3269 75.0708C73.3269 76.0417 72.5025 76.8395 71.6408 77.3172C69.4388 78.5348 66.7262 78.4718 64.2688 77.9102C61.8115 77.3486 59.4818 76.3357 57.0351 75.7058C54.5884 75.076 50.4876 73.9423 48.2004 74.9973C46.5197 75.7688 45.5091 77.9575 44.4772 77.6216C43.9889 77.4216 43.555 77.1113 43.2105 76.7157C42.8659 76.32 42.6202 75.8501 42.4933 75.3437C42.2557 74.3256 42.1874 73.2762 42.2911 72.2365" fill="#263238"/>
<path d="M42.6211 89.3891C42.6897 92.2718 43.0244 95.1424 43.621 97.9652C44.2174 100.798 45.5793 103.419 47.5624 105.549C50.2218 108.242 53.711 110.798 57.4874 111.433C61.6096 112.105 66.6519 111.255 70.0081 108.809C71.6038 107.649 72.758 105.135 72.2633 103.235C72.9389 102.92 73.517 102.433 73.9379 101.824C74.3587 101.215 74.6069 100.506 74.6568 99.7708C74.7419 98.3011 73.8324 96.4641 72.6569 96.2699C73.5399 96.123 73.7952 94.7374 73.4601 93.9553C73.125 93.1733 71.9601 92.9371 71.0772 93.1051C70.2046 93.3305 69.3928 93.7426 68.6997 94.3122C68.0105 94.8825 67.2329 95.3397 66.3966 95.6664C63.5456 96.5796 60.6575 94.0918 57.6629 94.2125C54.9556 94.3175 52.5462 96.5376 49.8601 96.165C49.1145 96.0247 48.4071 95.7312 47.7839 95.3035C47.1608 94.8758 46.6359 94.3234 46.2433 93.6824C45.4135 92.428 45.7752 87.7935 45.4507 86.3344" fill="#263238"/>
<g opacity="0.6">
<path opacity="0.6" d="M64.3485 101.886C64.1243 101.834 63.904 101.767 63.689 101.686C63.168 101.539 62.6198 101.513 62.0867 101.608C61.5536 101.704 61.0499 101.919 60.6147 102.237C60.2742 102.479 60.0828 102.673 60.0828 102.647C60.0828 102.621 60.1891 102.39 60.5136 102.122C60.9504 101.742 61.4842 101.488 62.057 101.386C62.6298 101.284 63.2199 101.339 63.7634 101.545C64.157 101.676 64.3645 101.86 64.3485 101.886Z" fill="#455A64"/>
</g>
<path d="M58.5243 95.8552C58.7264 95.8237 58.8594 97.1516 60.1199 97.9547C61.3805 98.7577 62.7794 98.5058 62.8113 98.6895C62.8379 98.7682 62.5188 98.9781 61.9124 99.0516C61.1266 99.1426 60.3335 98.9567 59.6732 98.5268C59.0406 98.1099 58.5979 97.4658 58.4392 96.7317C58.3168 96.1964 58.4338 95.8552 58.5243 95.8552Z" fill="white"/>
<path d="M54.5244 110.546C54.6447 110.573 54.7609 110.615 54.8701 110.672C55.0989 110.756 55.434 110.871 55.8754 110.992C57.1265 111.326 58.4105 111.525 59.705 111.585C60.5915 111.637 61.4808 111.619 62.3645 111.533C63.3836 111.443 64.3907 111.249 65.3696 110.955C66.4505 110.637 67.4815 110.172 68.4333 109.575C69.4684 108.959 70.3717 108.15 71.0928 107.192C71.9494 106.065 72.3306 104.654 72.1566 103.256V103.146L72.2523 103.104C72.9139 102.8 73.4867 102.336 73.9171 101.755C74.1259 101.48 74.3042 101.185 74.449 100.873C74.5761 100.57 74.655 100.25 74.683 99.9229C74.7409 99.3316 74.6554 98.7353 74.4334 98.1831C74.2114 97.6309 73.8594 97.1388 73.4065 96.7475L73.3267 96.6845L73.3906 96.6058C73.6304 96.3054 73.787 95.9485 73.8448 95.5703C73.9026 95.1921 73.8597 94.8055 73.7203 94.4486C73.611 94.178 73.4458 93.9327 73.2351 93.7285C73.0245 93.5243 72.7731 93.3656 72.497 93.2625C72.1444 93.1235 71.7629 93.0713 71.3853 93.1103C71.1247 93.1417 70.997 93.189 70.9917 93.1732C71.1145 93.1156 71.2454 93.0767 71.38 93.0578C71.8853 92.977 72.4034 93.0635 72.8537 93.3036C73.3039 93.5438 73.661 93.9243 73.8693 94.3857C74.0268 94.7705 74.0801 95.1891 74.0242 95.6004C73.9682 96.0117 73.8049 96.4016 73.5501 96.7318V96.5901C74.036 96.9994 74.4159 97.5172 74.6583 98.1005C74.9007 98.6838 74.9985 99.3158 74.9437 99.9439C74.9165 100.305 74.8321 100.659 74.6937 100.994C74.5394 101.323 74.3524 101.636 74.1352 101.928C73.6824 102.551 73.0741 103.048 72.3693 103.371L72.4491 103.214C72.6626 104.684 72.2804 106.177 71.3853 107.371C70.6429 108.356 69.7124 109.189 68.6461 109.822C67.675 110.432 66.6199 110.9 65.5133 111.213C64.5171 111.508 63.4918 111.698 62.4549 111.779C61.5539 111.85 60.6486 111.85 59.7476 111.779C58.4429 111.699 57.1523 111.468 55.902 111.092C55.563 110.988 55.2309 110.863 54.9074 110.719C54.7738 110.675 54.6454 110.617 54.5244 110.546Z" fill="#455A64"/>
<path d="M30.414 96.6951C30.3122 96.6675 30.2166 96.6212 30.1321 96.5586C29.8925 96.3815 29.7081 96.1414 29.6002 95.8658C29.4205 95.4223 29.3815 94.9355 29.4885 94.4697C29.6563 93.8529 30.0314 93.3107 30.5523 92.9318C31.1643 92.4767 31.8468 92.1222 32.5735 91.8821C33.3879 91.6296 34.1752 91.2991 34.9244 90.8954C35.7128 90.4029 36.3306 89.6853 36.6956 88.8379C37.0961 87.9261 37.3094 86.9449 37.3233 85.9512C37.3658 83.899 36.8871 81.9518 36.8339 80.141C36.7807 78.3303 37.0999 76.6402 37.9349 75.5065C38.5604 74.5977 39.51 73.9549 40.5944 73.7063C40.8885 73.6484 41.1897 73.6343 41.488 73.6643C41.5921 73.6762 41.6952 73.6955 41.7965 73.722C41.4024 73.7035 41.0075 73.7335 40.621 73.8112C39.5757 74.0837 38.6688 74.7264 38.0732 75.6168C37.2967 76.719 36.9722 78.3565 37.068 80.1305C37.1637 81.9046 37.5999 83.8518 37.5999 85.9617C37.5777 86.9933 37.3481 88.0102 36.9244 88.9534C36.5333 89.8475 35.8744 90.6021 35.0361 91.1158C34.2664 91.527 33.4553 91.8577 32.616 92.1026C31.9101 92.3228 31.244 92.6524 30.6427 93.0788C30.1488 93.4238 29.7872 93.9231 29.6162 94.4959C29.5003 94.9325 29.5207 95.3935 29.6747 95.8186C29.8149 96.1841 30.0752 96.4927 30.414 96.6951Z" fill="#455A64"/>
<path d="M70.2896 68.9352C70.3651 68.8899 70.4454 68.853 70.529 68.8249C70.63 68.7804 70.7351 68.7453 70.8428 68.72C70.9871 68.6779 71.1348 68.6481 71.2843 68.6307C71.7806 68.5774 72.2828 68.6361 72.7527 68.8025C73.2227 68.9689 73.6481 69.2386 73.9969 69.5912C74.3457 70.0528 74.5981 70.5782 74.7397 71.1367C74.8812 71.6953 74.9089 72.2761 74.8213 72.8453C74.7169 73.5514 74.4702 74.2296 74.0956 74.8399C73.7211 75.4502 73.2263 75.9803 72.6406 76.3986C71.292 77.3675 69.6803 77.9159 68.0131 77.9732C66.2058 78.0434 64.3977 77.8525 62.6464 77.4064C59.8643 76.7326 57.2246 75.5794 54.8489 74C53.8333 73.3111 52.7665 72.6988 51.6575 72.1683C50.6862 71.7248 49.6405 71.4615 48.5726 71.3915C47.017 71.2854 45.4595 71.5708 44.0462 72.2208C43.0515 72.6826 42.5782 73.0815 42.5569 73.05C42.9937 72.679 43.4784 72.3666 43.9983 72.121C45.42 71.4273 46.9997 71.109 48.5832 71.1973C49.6857 71.2531 50.7679 71.5112 51.7745 71.9583C52.8995 72.4876 53.9823 73.0999 55.0137 73.7901C57.3727 75.3383 59.9857 76.4712 62.7368 77.1387C64.4611 77.5853 66.2419 77.7833 68.0238 77.7265C69.6401 77.6707 71.2038 77.1448 72.5182 76.2149C73.0825 75.8167 73.5611 75.312 73.9263 74.73C74.2915 74.148 74.536 73.5003 74.6458 72.8244C74.7395 72.2773 74.7225 71.7173 74.5956 71.1768C74.4687 70.6362 74.2344 70.1259 73.9065 69.6752C73.5765 69.3339 73.1741 69.0689 72.7281 68.8992C72.2821 68.7295 71.8035 68.6594 71.3268 68.6937C70.9753 68.7477 70.6285 68.8285 70.2896 68.9352Z" fill="#455A64"/>
<path d="M67.4708 64.3111C67.4703 64.7243 67.3853 65.1331 67.2208 65.513C66.7596 66.5573 65.9585 67.4199 64.9444 67.9641C64.2596 68.3573 63.508 68.6241 62.7264 68.7514C61.8304 68.8803 60.9203 68.8803 60.0244 68.7514C58.1255 68.5152 56.1629 67.7804 54.0991 67.1454C52.0354 66.5103 49.9557 66.1324 48.126 66.5208C46.5047 66.8702 45.0363 67.715 43.9294 68.9351C43.1754 69.7489 42.598 70.7063 42.2327 71.7484C41.988 72.4937 41.9401 72.9293 41.9082 72.9241C41.8952 72.8195 41.8952 72.7137 41.9082 72.6091C41.9508 72.3072 42.0166 72.0089 42.105 71.7169C42.4354 70.6388 42.9999 69.6448 43.7592 68.8039C44.8769 67.5296 46.3796 66.6428 48.0462 66.2741C49.9397 65.8595 52.0779 66.2426 54.1523 66.8829C56.2267 67.5233 58.1734 68.2581 60.0297 68.4995C60.9027 68.6253 61.7896 68.6253 62.6625 68.4995C63.4209 68.3863 64.1525 68.1392 64.822 67.7699C65.8133 67.2568 66.61 66.4412 67.0932 65.4448C67.2495 65.0775 67.3758 64.6983 67.4708 64.3111Z" fill="#455A64"/>
<path d="M107.73 31.093C107.682 31.1507 104.692 28.7521 101.049 25.7342C97.4056 22.7162 94.4961 20.1969 94.5493 20.1602C94.6025 20.1234 97.5864 22.501 101.23 25.5242C104.873 28.5474 107.783 31.0352 107.73 31.093Z" fill="#263238"/>
<path d="M122.899 27.4976C122.825 27.4976 122.521 22.8368 122.229 17.0791C121.936 11.3214 121.756 6.65021 121.83 6.64496C121.904 6.63971 122.208 11.3057 122.505 17.0686C122.803 22.8316 122.974 27.4976 122.899 27.4976Z" fill="#263238"/>
<path d="M113.24 24.1648C113.165 24.1648 112.235 21.5405 111.155 18.2181C110.075 14.8958 109.261 12.2137 109.336 12.1928C109.41 12.1718 110.341 14.817 111.421 18.1341C112.501 21.4512 113.309 24.1438 113.24 24.1648Z" fill="#263238"/>
<path d="M104.629 36.0161C103.228 35.5299 101.858 34.9603 100.528 34.3103C99.1579 33.7405 97.8256 33.0866 96.5386 32.3526C97.9392 32.8388 99.3087 33.4085 100.639 34.0584C102.009 34.6295 103.341 35.2833 104.629 36.0161Z" fill="#263238"/>
<path d="M90.6452 29.9855C90.6452 30.059 90.1931 30.0695 89.6559 29.9855C89.1187 29.9015 88.6932 29.8071 88.7038 29.7336C88.7144 29.6601 89.1559 29.6496 89.6878 29.7336C90.2197 29.8176 90.6452 29.912 90.6452 29.9855Z" fill="#263238"/>
<path d="M109.682 8.80221C109.602 8.80221 109.543 8.37707 109.543 7.84697C109.543 7.31686 109.602 6.88647 109.682 6.88647C109.761 6.88647 109.82 7.31686 109.82 7.84697C109.82 8.37707 109.756 8.80221 109.682 8.80221Z" fill="#263238"/>
<path d="M141.706 16.2133C141.765 16.2658 139.307 19.0423 136.228 22.4171C133.148 25.792 130.606 28.4897 130.537 28.4373C130.467 28.3848 132.935 25.6135 136.015 22.2334C139.095 18.8534 141.653 16.1661 141.706 16.2133Z" fill="#263238"/>
<path d="M145.616 12.3975C145.669 12.45 145.387 12.8174 144.983 13.2163C144.579 13.6152 144.212 13.8881 144.159 13.8356C144.105 13.7831 144.387 13.4157 144.791 13.0221C145.196 12.6285 145.563 12.324 145.616 12.3975Z" fill="#263238"/>
<path d="M155.094 25.8338C154.866 25.9959 154.624 26.1382 154.371 26.259C153.897 26.5161 153.206 26.8783 152.344 27.3087C150.616 28.1694 148.195 29.2926 145.472 30.4106C142.749 31.5285 140.233 32.4208 138.393 33.0349C137.478 33.334 136.733 33.5597 136.212 33.7119C135.948 33.8065 135.676 33.875 135.398 33.9166C135.65 33.7938 135.911 33.692 136.18 33.6122L138.308 32.8512C140.127 32.2056 142.621 31.2766 145.345 30.1744C148.068 29.0722 150.488 27.9647 152.259 27.1512L154.323 26.1855C154.571 26.0496 154.829 25.9321 155.094 25.8338Z" fill="#263238"/>
<path d="M147.318 38.7559C146.863 38.9557 146.389 39.1087 145.903 39.2126C145.02 39.454 143.775 39.7374 142.403 39.9736C141.031 40.2098 139.744 40.341 138.845 40.404C138.353 40.4658 137.855 40.4746 137.361 40.4302C137.844 40.3204 138.335 40.2467 138.829 40.2098C139.733 40.0996 140.983 39.9316 142.355 39.6849C143.728 39.4383 144.967 39.2021 145.86 39.0131C146.337 38.8833 146.825 38.7972 147.318 38.7559Z" fill="#263238"/>
<path d="M154.387 37.4648C153.374 37.6467 152.336 37.6467 151.323 37.4648C152.336 37.2828 153.374 37.2828 154.387 37.4648Z" fill="#263238"/>
</svg>
