<svg width="159" height="56" viewBox="0 0 159 56" fill="none" xmlns="http://www.w3.org/2000/svg">
<rect width="159" height="56" fill="#E0E0E0"/>
<path d="M61.2327 21.9111H67.971V23.4443H59.348V9.22559H61.2327V21.9111ZM69.048 18.0635C69.048 17.0283 69.2498 16.0973 69.6534 15.2705C70.0636 14.4437 70.63 13.8057 71.3527 13.3564C72.0818 12.9072 72.9119 12.6826 73.8429 12.6826C75.2817 12.6826 76.4438 13.1807 77.3292 14.1768C78.2211 15.1729 78.6671 16.4977 78.6671 18.1514V18.2783C78.6671 19.307 78.4685 20.2314 78.0714 21.0518C77.6808 21.8656 77.1176 22.5003 76.382 22.9561C75.6528 23.4118 74.8129 23.6396 73.8624 23.6396C72.4301 23.6396 71.268 23.1416 70.3761 22.1455C69.4907 21.1494 69.048 19.8311 69.048 18.1904V18.0635ZM70.8644 18.2783C70.8644 19.4502 71.1346 20.391 71.6749 21.1006C72.2218 21.8102 72.951 22.165 73.8624 22.165C74.7804 22.165 75.5096 21.807 76.0499 21.0908C76.5903 20.3682 76.8605 19.359 76.8605 18.0635C76.8605 16.9046 76.5838 15.9671 76.0304 15.251C75.4835 14.5283 74.7544 14.167 73.8429 14.167C72.951 14.167 72.2316 14.5218 71.6847 15.2314C71.1378 15.9411 70.8644 16.9567 70.8644 18.2783ZM80.203 18.0732C80.203 16.4261 80.5839 15.1175 81.3456 14.1475C82.1073 13.1709 83.1165 12.6826 84.373 12.6826C85.662 12.6826 86.6679 13.1383 87.3905 14.0498L87.4784 12.8779H89.1288V23.1904C89.1288 24.5576 88.7219 25.6351 87.9081 26.4229C87.1008 27.2106 86.0136 27.6045 84.6464 27.6045C83.8847 27.6045 83.1392 27.4417 82.4101 27.1162C81.6809 26.7907 81.1243 26.3447 80.7402 25.7783L81.6777 24.6943C82.4524 25.6514 83.3997 26.1299 84.5195 26.1299C85.3984 26.1299 86.082 25.8825 86.5702 25.3877C87.065 24.8929 87.3124 24.1963 87.3124 23.2979V22.3896C86.5898 23.223 85.6034 23.6396 84.3534 23.6396C83.1165 23.6396 82.1139 23.1416 81.3456 22.1455C80.5839 21.1494 80.203 19.792 80.203 18.0732ZM82.0195 18.2783C82.0195 19.4697 82.2636 20.4072 82.7519 21.0908C83.2402 21.7679 83.9238 22.1064 84.8027 22.1064C85.942 22.1064 86.7786 21.5889 87.3124 20.5537V15.7295C86.759 14.7204 85.929 14.2158 84.8222 14.2158C83.9433 14.2158 83.2564 14.5576 82.7616 15.2412C82.2669 15.9248 82.0195 16.9372 82.0195 18.2783ZM91.0847 18.0635C91.0847 17.0283 91.2865 16.0973 91.6902 15.2705C92.1003 14.4437 92.6667 13.8057 93.3894 13.3564C94.1185 12.9072 94.9486 12.6826 95.8796 12.6826C97.3184 12.6826 98.4805 13.1807 99.3659 14.1768C100.258 15.1729 100.704 16.4977 100.704 18.1514V18.2783C100.704 19.307 100.505 20.2314 100.108 21.0518C99.7175 21.8656 99.1543 22.5003 98.4187 22.9561C97.6895 23.4118 96.8497 23.6396 95.8991 23.6396C94.4668 23.6396 93.3047 23.1416 92.4128 22.1455C91.5274 21.1494 91.0847 19.8311 91.0847 18.1904V18.0635ZM92.9011 18.2783C92.9011 19.4502 93.1713 20.391 93.7116 21.1006C94.2585 21.8102 94.9877 22.165 95.8991 22.165C96.8171 22.165 97.5463 21.807 98.0866 21.0908C98.627 20.3682 98.8972 19.359 98.8972 18.0635C98.8972 16.9046 98.6205 15.9671 98.0671 15.251C97.5202 14.5283 96.7911 14.167 95.8796 14.167C94.9877 14.167 94.2683 14.5218 93.7214 15.2314C93.1745 15.9411 92.9011 16.9567 92.9011 18.2783ZM39.2909 41.2783C39.2909 42.8864 38.9231 44.182 38.1874 45.165C37.4517 46.1481 36.4557 46.6396 35.1991 46.6396C33.9166 46.6396 32.9075 46.2327 32.1718 45.4189V50.5068H30.3652V35.8779H32.0155L32.1034 37.0498C32.8391 36.1383 33.8613 35.6826 35.1698 35.6826C36.4394 35.6826 37.442 36.1611 38.1777 37.1182C38.9198 38.0752 39.2909 39.4066 39.2909 41.1123V41.2783ZM37.4843 41.0732C37.4843 39.8818 37.2304 38.9411 36.7226 38.251C36.2148 37.5609 35.5182 37.2158 34.6327 37.2158C33.539 37.2158 32.7187 37.7008 32.1718 38.6709V43.7197C32.7122 44.6833 33.539 45.165 34.6523 45.165C35.5182 45.165 36.205 44.8232 36.7128 44.1396C37.2271 43.4495 37.4843 42.4274 37.4843 41.0732ZM43.2585 46.4443H41.4519V31.4443H43.2585V46.4443ZM52.3823 46.4443C52.2782 46.236 52.1935 45.8649 52.1284 45.3311C51.2886 46.2035 50.286 46.6396 49.1206 46.6396C48.079 46.6396 47.2228 46.3467 46.5523 45.7607C45.8882 45.1683 45.5562 44.4196 45.5562 43.5146C45.5562 42.4144 45.9728 41.5615 46.8062 40.9561C47.646 40.3441 48.8244 40.0381 50.3413 40.0381H52.0991V39.208C52.0991 38.5765 51.9103 38.0752 51.5327 37.7041C51.1551 37.3265 50.5985 37.1377 49.8628 37.1377C49.2183 37.1377 48.6779 37.3005 48.2417 37.626C47.8055 37.9515 47.5874 38.3454 47.5874 38.8076H45.771C45.771 38.2803 45.9566 37.7725 46.3277 37.2842C46.7053 36.7894 47.2131 36.3988 47.8511 36.1123C48.4956 35.8258 49.202 35.6826 49.9702 35.6826C51.1877 35.6826 52.1415 35.9886 52.8316 36.6006C53.5217 37.2061 53.8797 38.0426 53.9058 39.1104V43.9736C53.9058 44.9437 54.0295 45.7152 54.2769 46.2881V46.4443H52.3823ZM49.3843 45.0674C49.9507 45.0674 50.4878 44.9209 50.9956 44.6279C51.5034 44.335 51.8713 43.9541 52.0991 43.4854V41.3174H50.6831C48.4696 41.3174 47.3628 41.9652 47.3628 43.2607C47.3628 43.8271 47.5516 44.2699 47.9292 44.5889C48.3068 44.9079 48.7919 45.0674 49.3843 45.0674ZM60.6761 45.165C61.3206 45.165 61.8838 44.9697 62.3655 44.5791C62.8473 44.1885 63.1142 43.7002 63.1663 43.1143H64.8753C64.8428 43.7197 64.6344 44.2959 64.2503 44.8428C63.8662 45.3896 63.3519 45.8258 62.7073 46.1514C62.0693 46.4769 61.3922 46.6396 60.6761 46.6396C59.2373 46.6396 58.0915 46.1611 57.2386 45.2041C56.3922 44.2406 55.9691 42.9255 55.9691 41.2588V40.9561C55.9691 39.9274 56.1579 39.0127 56.5355 38.2119C56.9131 37.4111 57.4534 36.7894 58.1566 36.3467C58.8662 35.904 59.7028 35.6826 60.6663 35.6826C61.8512 35.6826 62.8343 36.0374 63.6155 36.7471C64.4033 37.4567 64.8232 38.3779 64.8753 39.5107H63.1663C63.1142 38.8271 62.8538 38.2673 62.3851 37.8311C61.9228 37.3883 61.3499 37.167 60.6663 37.167C59.7484 37.167 59.0355 37.499 58.5277 38.1631C58.0264 38.8206 57.7757 39.7744 57.7757 41.0244V41.3662C57.7757 42.5837 58.0264 43.5212 58.5277 44.1787C59.029 44.8363 59.7451 45.165 60.6761 45.165ZM70.9913 46.6396C69.559 46.6396 68.3937 46.1709 67.4952 45.2334C66.5968 44.2894 66.1476 43.0296 66.1476 41.4541V41.1221C66.1476 40.0739 66.3461 39.1396 66.7433 38.3193C67.1469 37.4925 67.7068 36.848 68.423 36.3857C69.1456 35.917 69.9269 35.6826 70.7667 35.6826C72.1404 35.6826 73.2081 36.1351 73.9698 37.04C74.7316 37.945 75.1124 39.2406 75.1124 40.9268V41.6787H67.9542C67.9803 42.7204 68.283 43.5635 68.8624 44.208C69.4484 44.846 70.1905 45.165 71.089 45.165C71.727 45.165 72.2674 45.0348 72.7101 44.7744C73.1528 44.514 73.5402 44.1689 73.8722 43.7393L74.9757 44.5986C74.0903 45.9593 72.7622 46.6396 70.9913 46.6396ZM70.7667 37.167C70.0376 37.167 69.4256 37.4339 68.9308 37.9678C68.436 38.4951 68.13 39.2373 68.0128 40.1943H73.3058V40.0576C73.2537 39.1396 73.0063 38.43 72.5636 37.9287C72.1209 37.4209 71.5219 37.167 70.7667 37.167ZM78.7187 37.1572C79.5195 36.1742 80.5611 35.6826 81.8437 35.6826C84.0767 35.6826 85.203 36.9424 85.2226 39.4619V46.4443H83.4159V39.4521C83.4094 38.6904 83.2336 38.1273 82.8886 37.7627C82.5501 37.3981 82.0195 37.2158 81.2968 37.2158C80.7109 37.2158 80.1965 37.3721 79.7538 37.6846C79.3111 37.9971 78.9661 38.4072 78.7187 38.915V46.4443H76.912V31.4443H78.7187V37.1572ZM87.1491 41.0635C87.1491 40.0283 87.351 39.0973 87.7546 38.2705C88.1648 37.4437 88.7312 36.8057 89.4538 36.3564C90.183 35.9072 91.0131 35.6826 91.9441 35.6826C93.3829 35.6826 94.545 36.1807 95.4304 37.1768C96.3223 38.1729 96.7683 39.4977 96.7683 41.1514V41.2783C96.7683 42.307 96.5697 43.2314 96.1726 44.0518C95.782 44.8656 95.2188 45.5003 94.4831 45.9561C93.754 46.4118 92.9141 46.6396 91.9636 46.6396C90.5313 46.6396 89.3692 46.1416 88.4773 45.1455C87.5918 44.1494 87.1491 42.8311 87.1491 41.1904V41.0635ZM88.9655 41.2783C88.9655 42.4502 89.2357 43.391 89.7761 44.1006C90.323 44.8102 91.0521 45.165 91.9636 45.165C92.8816 45.165 93.6107 44.807 94.1511 44.0908C94.6915 43.3682 94.9616 42.359 94.9616 41.0635C94.9616 39.9046 94.6849 38.9671 94.1316 38.251C93.5847 37.5283 92.8555 37.167 91.9441 37.167C91.0521 37.167 90.3327 37.5218 89.7859 38.2314C89.239 38.9411 88.9655 39.9567 88.9655 41.2783ZM100.697 46.4443H98.8902V31.4443H100.697V46.4443ZM102.858 41.0732C102.858 39.4521 103.242 38.1501 104.01 37.167C104.778 36.1774 105.784 35.6826 107.028 35.6826C108.265 35.6826 109.244 36.1058 109.967 36.9521V31.4443H111.774V46.4443H110.114L110.026 45.3115C109.303 46.1969 108.297 46.6396 107.008 46.6396C105.784 46.6396 104.785 46.1383 104.01 45.1357C103.242 44.1331 102.858 42.8245 102.858 41.21V41.0732ZM104.664 41.2783C104.664 42.4762 104.912 43.4137 105.407 44.0908C105.901 44.7679 106.585 45.1064 107.457 45.1064C108.603 45.1064 109.44 44.5921 109.967 43.5635V38.71C109.427 37.7139 108.597 37.2158 107.477 37.2158C106.591 37.2158 105.901 37.5576 105.407 38.2412C104.912 38.9248 104.664 39.9372 104.664 41.2783ZM118.671 46.6396C117.239 46.6396 116.073 46.1709 115.175 45.2334C114.276 44.2894 113.827 43.0296 113.827 41.4541V41.1221C113.827 40.0739 114.026 39.1396 114.423 38.3193C114.827 37.4925 115.387 36.848 116.103 36.3857C116.825 35.917 117.607 35.6826 118.446 35.6826C119.82 35.6826 120.888 36.1351 121.65 37.04C122.411 37.945 122.792 39.2406 122.792 40.9268V41.6787H115.634C115.66 42.7204 115.963 43.5635 116.542 44.208C117.128 44.846 117.87 45.165 118.769 45.165C119.407 45.165 119.947 45.0348 120.39 44.7744C120.832 44.514 121.22 44.1689 121.552 43.7393L122.655 44.5986C121.77 45.9593 120.442 46.6396 118.671 46.6396ZM118.446 37.167C117.717 37.167 117.105 37.4339 116.61 37.9678C116.116 38.4951 115.81 39.2373 115.693 40.1943H120.985V40.0576C120.933 39.1396 120.686 38.43 120.243 37.9287C119.801 37.4209 119.202 37.167 118.446 37.167ZM129.699 37.499C129.426 37.4535 129.129 37.4307 128.81 37.4307C127.626 37.4307 126.822 37.9352 126.398 38.9443V46.4443H124.592V35.8779H126.35L126.379 37.0986C126.971 36.1546 127.811 35.6826 128.898 35.6826C129.25 35.6826 129.517 35.7282 129.699 35.8193V37.499Z" fill="black"/>
</svg>
