<svg width="8" height="14" viewBox="0 0 8 14" fill="none" xmlns="http://www.w3.org/2000/svg">
<path d="M0.931801 12.9666C0.930052 13.0308 0.942706 13.0946 0.968802 13.1533C0.994899 13.212 1.03379 13.2641 1.08263 13.3058C1.17749 13.3881 1.29979 13.4319 1.42535 13.4284C1.5509 13.4249 1.67056 13.3744 1.76067 13.2869L7.46935 7.57848C7.54678 7.50412 7.60839 7.41489 7.65047 7.31613C7.69255 7.21737 7.71423 7.11111 7.71423 7.00376C7.71423 6.89641 7.69255 6.79018 7.65047 6.69142C7.60839 6.59266 7.54678 6.50341 7.46935 6.42904L1.74208 0.720674C1.69942 0.674681 1.64792 0.637776 1.59067 0.612142C1.53341 0.586508 1.47159 0.572682 1.40887 0.571495C1.34615 0.570307 1.28384 0.58178 1.22566 0.605228C1.16748 0.628676 1.11461 0.663617 1.07024 0.707962C1.02587 0.752307 0.990905 0.805148 0.967427 0.863318C0.94395 0.921488 0.932458 0.983791 0.933615 1.04651C0.934771 1.10923 0.948556 1.17106 0.974162 1.22833C0.999768 1.28559 1.03666 1.33712 1.08263 1.3798L6.69763 6.99478L1.08263 12.6281C1.03386 12.6698 0.995012 12.722 0.968922 12.7806C0.942832 12.8393 0.930145 12.9031 0.931801 12.9673" fill="#1B5DFF"/>
<path d="M0.931801 12.9666C0.930052 13.0308 0.942706 13.0946 0.968802 13.1533C0.994899 13.212 1.03379 13.2641 1.08263 13.3058C1.17749 13.3881 1.29979 13.4319 1.42535 13.4284C1.5509 13.4249 1.67056 13.3744 1.76067 13.2869L7.46935 7.57848C7.54678 7.50412 7.60839 7.41489 7.65047 7.31613C7.69255 7.21737 7.71423 7.11111 7.71423 7.00376C7.71423 6.89641 7.69255 6.79018 7.65047 6.69142C7.60839 6.59266 7.54678 6.50341 7.46935 6.42904L1.74208 0.720674C1.69942 0.674681 1.64792 0.637776 1.59067 0.612142C1.53341 0.586508 1.47159 0.572682 1.40887 0.571495C1.34615 0.570307 1.28384 0.58178 1.22566 0.605228C1.16748 0.628676 1.11461 0.663617 1.07024 0.707962C1.02587 0.752307 0.990905 0.805148 0.967427 0.863318C0.94395 0.921488 0.932458 0.983791 0.933615 1.04651C0.934771 1.10923 0.948556 1.17106 0.974162 1.22833C0.999768 1.28559 1.03666 1.33712 1.08263 1.3798L6.69763 6.99478L1.08263 12.6281C1.03386 12.6698 0.995012 12.722 0.968922 12.7806C0.942832 12.8393 0.930145 12.9031 0.931801 12.9673" stroke="#1B5DFF" stroke-width="0.5"/>
</svg>
