<svg width="8" height="14" viewBox="0 0 8 14" fill="none" xmlns="http://www.w3.org/2000/svg">
<path d="M7.06814 1.03341C7.06989 0.9692 7.05724 0.905418 7.03114 0.846729C7.00504 0.788038 6.96615 0.73593 6.91731 0.694222C6.82245 0.61188 6.70015 0.568135 6.57459 0.571642C6.44904 0.575148 6.32938 0.625645 6.23927 0.71315L0.530587 6.42152C0.453162 6.49588 0.391547 6.58511 0.349467 6.68387C0.307388 6.78263 0.285707 6.88889 0.285707 6.99624C0.285707 7.10359 0.307388 7.20982 0.349467 7.30858C0.391547 7.40734 0.453162 7.49659 0.530586 7.57096L6.25786 13.2793C6.30052 13.3253 6.35202 13.3622 6.40927 13.3879C6.46653 13.4135 6.52835 13.4273 6.59107 13.4285C6.65379 13.4297 6.7161 13.4182 6.77428 13.3948C6.83246 13.3713 6.88533 13.3364 6.9297 13.292C6.97406 13.2477 7.00903 13.1949 7.03251 13.1367C7.05599 13.0785 7.06748 13.0162 7.06632 12.9535C7.06517 12.8908 7.05138 12.8289 7.02578 12.7717C7.00017 12.7144 6.96328 12.6629 6.9173 12.6202L1.30231 7.00522L6.91731 1.37193C6.96608 1.33017 7.00493 1.27804 7.03102 1.21937C7.05711 1.16069 7.0698 1.09694 7.06814 1.03275" fill="#1B5DFF"/>
<path d="M7.06814 1.03341C7.06989 0.969201 7.05724 0.905417 7.03114 0.846728C7.00504 0.788039 6.96615 0.73593 6.91731 0.694221C6.82245 0.611881 6.70015 0.568136 6.57459 0.571642C6.44904 0.575148 6.32938 0.625645 6.23927 0.71315L0.530587 6.42152C0.453162 6.49588 0.391547 6.58511 0.349467 6.68387C0.307388 6.78263 0.285707 6.88889 0.285707 6.99624C0.285707 7.10359 0.307388 7.20982 0.349467 7.30858C0.391547 7.40734 0.453162 7.49659 0.530586 7.57096L6.25786 13.2793C6.30052 13.3253 6.35202 13.3622 6.40927 13.3879C6.46653 13.4135 6.52835 13.4273 6.59107 13.4285C6.65379 13.4297 6.7161 13.4182 6.77428 13.3948C6.83246 13.3713 6.88533 13.3364 6.9297 13.292C6.97407 13.2477 7.00903 13.1949 7.03251 13.1367C7.05599 13.0785 7.06748 13.0162 7.06632 12.9535C7.06517 12.8908 7.05138 12.8289 7.02578 12.7717C7.00017 12.7144 6.96328 12.6629 6.9173 12.6202L1.30231 7.00522L6.91731 1.37193C6.96608 1.33017 7.00493 1.27804 7.03102 1.21937C7.05711 1.16069 7.0698 1.09694 7.06814 1.03275" stroke="#1B5DFF" stroke-width="0.5"/>
</svg>
