<svg width="26" height="21" viewBox="0 0 26 21" fill="none" xmlns="http://www.w3.org/2000/svg">
<path d="M8.32436 10.5804C8.32436 9.59137 8.56012 8.70854 9.03408 7.92244L9.38326 8.29127C8.98595 8.9758 8.78571 9.74159 8.78571 10.5804C8.78571 11.8202 9.2082 12.8981 10.0491 13.7863L10.049 13.7863L10.0538 13.7913C10.8947 14.6554 11.9152 15.1003 13.0913 15.1003C13.8953 15.1003 14.6222 14.8993 15.263 14.5021L15.63 14.8898C14.8886 15.3947 14.046 15.6439 13.0913 15.6439C11.7918 15.6439 10.6826 15.1674 9.73847 14.1905C8.7948 13.1928 8.32436 11.9989 8.32436 10.5804ZM9.01395 6.31322C8.99285 6.33551 8.97194 6.35789 8.95124 6.38035L8.46015 5.86161C8.6186 5.78039 8.77816 5.70206 8.93882 5.62662L9.31054 6.01862C9.20988 6.11249 9.11101 6.2107 9.01395 6.31322ZM9.17932 4.42693L8.79985 4.02675C9.18724 3.86147 9.57235 3.7179 9.95518 3.59581C10.9852 3.26735 11.9996 3.1049 13 3.1049C14.0004 3.1049 15.0148 3.26735 16.0448 3.59581C17.0773 3.92506 18.116 4.41061 19.1611 5.0563L19.1611 5.05631L19.1646 5.05847C20.2303 5.70467 21.3014 6.51054 22.3775 7.47888L22.3775 7.4789L22.3816 7.48251C23.0285 8.05195 23.6768 8.67971 24.3264 9.36618C24.233 9.47684 24.1383 9.58772 24.0421 9.6988C23.6716 9.30985 23.2841 8.91668 22.8797 8.51932L22.8797 8.51929L22.8756 8.51531C21.9631 7.63907 20.988 6.84995 19.9505 6.14828C18.9065 5.42079 17.8088 4.82443 16.6577 4.36017L16.6549 4.35903C15.4619 3.88649 14.2427 3.64855 13 3.64855C11.7573 3.64855 10.5381 3.88649 9.34514 4.35903L9.34513 4.35902L9.34225 4.36018C9.28782 4.38214 9.23351 4.40439 9.17932 4.42693ZM9.74015 7.00071C9.82498 6.9111 9.91114 6.82562 9.99862 6.74425L10.3496 7.11439C10.247 7.20598 10.1468 7.30342 10.0491 7.40664C10.028 7.42895 10.0071 7.45137 9.9865 7.47391L9.64058 7.10851C9.67317 7.07234 9.70635 7.03641 9.74015 7.00071ZM16.0469 13.8756C16.076 13.8463 16.1049 13.8166 16.1336 13.7863C16.2254 13.6893 16.3122 13.5901 16.394 13.4886L16.7394 13.8529C16.6463 13.9684 16.5473 14.0815 16.4425 14.1922C16.4265 14.2092 16.4104 14.2259 16.3943 14.2425L16.0469 13.8756ZM8.21639 4.86477C8.05844 4.94287 7.90156 5.02361 7.74575 5.10698L7.38232 4.72309C7.53748 4.63696 7.69228 4.55424 7.84672 4.47493L8.21639 4.86477ZM10.7753 8.09412C10.8611 8.00343 10.9487 7.91887 11.0381 7.84039L15.6982 12.7548C15.6097 12.8729 15.5128 12.9875 15.4074 13.0988C15.3914 13.1158 15.3752 13.1325 15.3591 13.149L10.6762 8.20248C10.7084 8.16604 10.7414 8.12993 10.7753 8.09412ZM16.9475 12.619C17.2468 12.0009 17.397 11.3194 17.397 10.5804C17.397 9.36039 16.9734 8.29485 16.1359 7.40912C15.3133 6.51729 14.2888 6.06049 13.0913 6.06049C12.396 6.06049 11.7557 6.21978 11.1753 6.53187L10.7999 6.13598C11.4892 5.72065 12.2508 5.51685 13.0913 5.51685C14.4104 5.51685 15.5167 6.00322 16.4391 6.99711L16.4391 6.99712L16.4425 7.00071C17.3887 8.00014 17.8583 9.1845 17.8583 10.5804C17.8583 11.4706 17.673 12.2723 17.3018 12.9926L16.9475 12.619ZM17.4327 14.584L17.8192 14.9916C17.6601 15.0773 17.4998 15.16 17.3384 15.2398L17.0823 14.9693C17.1113 14.9398 17.1401 14.91 17.1687 14.8797C17.2605 14.7828 17.3485 14.6842 17.4327 14.584ZM16.6577 16.6398C16.8086 16.579 16.9585 16.5159 17.1075 16.4505L17.5082 16.8737C17.0206 17.0931 16.5343 17.2801 16.0492 17.4349C15.0185 17.7427 14.0025 17.8951 13 17.8951C11.9996 17.8951 10.9852 17.7326 9.95518 17.4042C8.92228 17.0748 7.87283 16.5889 6.8067 15.9426C5.76076 15.2962 4.69924 14.49 3.6225 13.5211C2.95559 12.921 2.28742 12.2633 1.61805 11.5475C1.71045 11.4428 1.80423 11.3377 1.89938 11.2322C2.28762 11.6462 2.6946 12.0624 3.12029 12.4807L3.12026 12.4807L3.12441 12.4847C4.03625 13.3603 5.01037 14.1594 6.0466 14.8818L6.04657 14.8819L6.05252 14.8859C7.09601 15.5913 8.1927 16.1762 9.34225 16.6398L9.34221 16.6399L9.35279 16.6439C10.544 17.0933 11.7606 17.3193 13 17.3193C14.2394 17.3193 15.456 17.0933 16.6472 16.6439L16.6473 16.644L16.6577 16.6398ZM22.253 20.4311L19.159 17.1629C19.3144 17.0768 19.4696 16.9877 19.6248 16.8957L22.5924 20.0252C22.643 20.0786 22.6686 20.1364 22.6686 20.2282C22.6686 20.32 22.643 20.3777 22.5924 20.4311C22.5659 20.4592 22.5404 20.4788 22.5159 20.4929C22.4889 20.4978 22.463 20.5 22.4379 20.5C22.3984 20.5 22.3586 20.4975 22.3183 20.4924C22.3 20.4776 22.2781 20.4577 22.253 20.4311ZM18.9181 16.1505C18.7612 16.2408 18.6044 16.3278 18.4477 16.4115L18.0557 15.9975C18.2151 15.915 18.3734 15.8297 18.5306 15.7417L18.9181 16.1505ZM24.3997 11.5676C23.7241 12.3079 23.05 12.9803 22.3775 13.5854C21.5101 14.3659 20.646 15.0409 19.7854 15.6117L19.4086 15.2144C19.5918 15.0967 19.7734 14.9752 19.9534 14.8497C20.9916 14.1259 21.9672 13.3146 22.88 12.4161L22.88 12.4161L22.8841 12.412C23.2924 12.0008 23.6835 11.5915 24.0573 11.1842C24.1735 11.3126 24.2876 11.4404 24.3997 11.5676ZM24.9594 10.6918C24.8829 10.6063 24.8056 10.5206 24.7275 10.4347C24.8013 10.35 24.8743 10.2653 24.9466 10.1807L25.2429 10.4589L24.9594 10.6918ZM3.12029 8.51932C2.69677 8.93547 2.2918 9.34701 1.90543 9.75394C1.80827 9.64401 1.71255 9.5343 1.61826 9.4248C2.2864 8.71542 2.95315 8.06812 3.61842 7.48251L3.61844 7.48253L3.6225 7.47888C4.59527 6.60356 5.55561 5.861 6.50327 5.24912L6.85437 5.61998C6.58264 5.78763 6.31437 5.96373 6.04956 6.14827C5.012 6.84994 4.0369 7.63906 3.12441 8.51531L3.12438 8.51529L3.12029 8.51932ZM1.03617 10.2797C1.09754 10.3499 1.15946 10.4201 1.22192 10.4904C1.16097 10.5577 1.10054 10.6248 1.04063 10.6918L0.787642 10.4839L1.03617 10.2797ZM7.13163 3.72082C6.97911 3.80248 6.82652 3.88712 6.67386 3.97474L3.83382 0.974787C3.78323 0.921347 3.75761 0.863643 3.75761 0.771822C3.75761 0.680001 3.78323 0.622298 3.83382 0.568858C3.88341 0.516475 3.92549 0.5 3.98829 0.5C4.0511 0.5 4.09317 0.516476 4.14276 0.568858L4.14304 0.569157L7.13163 3.72082Z" fill="#23232E" stroke="black"/>
</svg>
